0, 0, Header, 1, 8, 480
1, 0, Start_track
1, 0, Time_signature, 4, 2, 24, 8
1, 0, Key_signature, 0, "major"
1, 0, SMPTE_offset, 33, 0, 0, 0, 0
1, 0, Tempo, 447761
1, 0, End_track
2, 0, Start_track
2, 0, Channel_prefix, 0
2, 0, Title_t, "WAVE*merged"
2, 0, Instrument_name_t, "My Soundcard  1"
2, 0, Program_c, 0, 25
2, 0, Control_c, 0, 7, 100
2, 0, Control_c, 0, 7, 100
2, 0, Control_c, 0, 10, 64
2, 0, Control_c, 0, 10, 64
2, 480, Note_on_c, 0, 51, 95
2, 600, Note_on_c, 0, 51, 0
2, 960, Note_on_c, 0, 51, 95
2, 1080, Note_on_c, 0, 51, 0
2, 1200, Note_on_c, 0, 58, 95
2, 1320, Note_on_c, 0, 58, 0
2, 1320, Note_on_c, 0, 58, 95
2, 1440, Note_on_c, 0, 58, 0
2, 1440, Note_on_c, 0, 58, 95
2, 1560, Note_on_c, 0, 58, 0
2, 1680, Note_on_c, 0, 59, 95
2, 1800, Note_on_c, 0, 59, 0
2, 1920, Note_on_c, 0, 58, 95
2, 2040, Note_on_c, 0, 58, 0
2, 2160, Note_on_c, 0, 56, 95
2, 2280, Note_on_c, 0, 56, 0
2, 2400, Note_on_c, 0, 54, 95
2, 2520, Note_on_c, 0, 54, 0
2, 2880, Note_on_c, 0, 54, 95
2, 3000, Note_on_c, 0, 54, 0
2, 3120, Note_on_c, 0, 52, 95
2, 3240, Note_on_c, 0, 52, 0
2, 3240, Note_on_c, 0, 52, 95
2, 3360, Note_on_c, 0, 52, 0
2, 3360, Note_on_c, 0, 52, 95
2, 3480, Note_on_c, 0, 52, 0
2, 3600, Note_on_c, 0, 52, 95
2, 3720, Note_on_c, 0, 52, 0
2, 3840, Note_on_c, 0, 52, 95
2, 3960, Note_on_c, 0, 52, 0
2, 4080, Note_on_c, 0, 54, 95
2, 4200, Note_on_c, 0, 54, 0
2, 4320, Note_on_c, 0, 51, 95
2, 4440, Note_on_c, 0, 51, 0
2, 4800, Note_on_c, 0, 51, 95
2, 4920, Note_on_c, 0, 51, 0
2, 5040, Note_on_c, 0, 58, 95
2, 5160, Note_on_c, 0, 58, 0
2, 5160, Note_on_c, 0, 58, 95
2, 5280, Note_on_c, 0, 58, 0
2, 5280, Note_on_c, 0, 58, 95
2, 5400, Note_on_c, 0, 58, 0
2, 5520, Note_on_c, 0, 59, 95
2, 5640, Note_on_c, 0, 59, 0
2, 5760, Note_on_c, 0, 58, 95
2, 5880, Note_on_c, 0, 58, 0
2, 6000, Note_on_c, 0, 56, 95
2, 6120, Note_on_c, 0, 56, 0
2, 6240, Note_on_c, 0, 54, 95
2, 6360, Note_on_c, 0, 54, 0
2, 6720, Note_on_c, 0, 54, 95
2, 6840, Note_on_c, 0, 54, 0
2, 6960, Note_on_c, 0, 52, 95
2, 7080, Note_on_c, 0, 52, 0
2, 7080, Note_on_c, 0, 52, 95
2, 7200, Note_on_c, 0, 52, 0
2, 7200, Note_on_c, 0, 52, 95
2, 7320, Note_on_c, 0, 52, 0
2, 7440, Note_on_c, 0, 52, 95
2, 7560, Note_on_c, 0, 52, 0
2, 7680, Note_on_c, 0, 52, 95
2, 7800, Note_on_c, 0, 52, 0
2, 7920, Note_on_c, 0, 54, 95
2, 8040, Note_on_c, 0, 54, 0
2, 8160, Note_on_c, 0, 51, 95
2, 8280, Note_on_c, 0, 51, 0
2, 8640, Note_on_c, 0, 51, 95
2, 8760, Note_on_c, 0, 51, 0
2, 8880, Note_on_c, 0, 58, 95
2, 9000, Note_on_c, 0, 58, 0
2, 9000, Note_on_c, 0, 58, 95
2, 9120, Note_on_c, 0, 58, 0
2, 9120, Note_on_c, 0, 58, 95
2, 9240, Note_on_c, 0, 58, 0
2, 9360, Note_on_c, 0, 59, 95
2, 9480, Note_on_c, 0, 59, 0
2, 9600, Note_on_c, 0, 58, 95
2, 9720, Note_on_c, 0, 58, 0
2, 9840, Note_on_c, 0, 56, 95
2, 9960, Note_on_c, 0, 56, 0
2, 10080, Note_on_c, 0, 54, 95
2, 10200, Note_on_c, 0, 54, 0
2, 10560, Note_on_c, 0, 54, 95
2, 10680, Note_on_c, 0, 54, 0
2, 10800, Note_on_c, 0, 52, 95
2, 10920, Note_on_c, 0, 52, 0
2, 10920, Note_on_c, 0, 52, 95
2, 11040, Note_on_c, 0, 52, 0
2, 11040, Note_on_c, 0, 52, 95
2, 11160, Note_on_c, 0, 52, 0
2, 11280, Note_on_c, 0, 52, 95
2, 11400, Note_on_c, 0, 52, 0
2, 11520, Note_on_c, 0, 52, 95
2, 11640, Note_on_c, 0, 52, 0
2, 11760, Note_on_c, 0, 54, 95
2, 11880, Note_on_c, 0, 54, 0
2, 12000, Note_on_c, 0, 51, 95
2, 12120, Note_on_c, 0, 51, 0
2, 12480, Note_on_c, 0, 51, 95
2, 12600, Note_on_c, 0, 51, 0
2, 12720, Note_on_c, 0, 58, 95
2, 12840, Note_on_c, 0, 58, 0
2, 12840, Note_on_c, 0, 58, 95
2, 12960, Note_on_c, 0, 58, 0
2, 12960, Note_on_c, 0, 58, 95
2, 13080, Note_on_c, 0, 58, 0
2, 13200, Note_on_c, 0, 59, 95
2, 13320, Note_on_c, 0, 59, 0
2, 13440, Note_on_c, 0, 58, 95
2, 13560, Note_on_c, 0, 58, 0
2, 13680, Note_on_c, 0, 56, 95
2, 13800, Note_on_c, 0, 56, 0
2, 13920, Note_on_c, 0, 54, 95
2, 14040, Note_on_c, 0, 54, 0
2, 14400, Note_on_c, 0, 54, 95
2, 14520, Note_on_c, 0, 54, 0
2, 14640, Note_on_c, 0, 52, 95
2, 14760, Note_on_c, 0, 52, 0
2, 14760, Note_on_c, 0, 52, 95
2, 14880, Note_on_c, 0, 52, 0
2, 14880, Note_on_c, 0, 52, 95
2, 15000, Note_on_c, 0, 52, 0
2, 15120, Note_on_c, 0, 52, 107
2, 15240, Note_on_c, 0, 52, 0
2, 15360, Note_on_c, 0, 52, 127
2, 15480, Note_on_c, 0, 52, 0
2, 15600, Note_on_c, 0, 54, 127
2, 15720, Note_on_c, 0, 54, 0
2, 15840, Note_on_c, 0, 51, 95
2, 15960, Note_on_c, 0, 51, 0
2, 16320, Note_on_c, 0, 51, 95
2, 16440, Note_on_c, 0, 51, 0
2, 16560, Note_on_c, 0, 58, 95
2, 16680, Note_on_c, 0, 58, 0
2, 16680, Note_on_c, 0, 58, 95
2, 16800, Note_on_c, 0, 58, 0
2, 16800, Note_on_c, 0, 58, 95
2, 16920, Note_on_c, 0, 58, 0
2, 17040, Note_on_c, 0, 59, 95
2, 17160, Note_on_c, 0, 59, 0
2, 17280, Note_on_c, 0, 58, 95
2, 17400, Note_on_c, 0, 58, 0
2, 17520, Note_on_c, 0, 56, 95
2, 17640, Note_on_c, 0, 56, 0
2, 17760, Note_on_c, 0, 54, 95
2, 17880, Note_on_c, 0, 54, 0
2, 18240, Note_on_c, 0, 54, 95
2, 18360, Note_on_c, 0, 54, 0
2, 18480, Note_on_c, 0, 52, 95
2, 18600, Note_on_c, 0, 52, 0
2, 18600, Note_on_c, 0, 52, 95
2, 18720, Note_on_c, 0, 52, 0
2, 18720, Note_on_c, 0, 52, 95
2, 18840, Note_on_c, 0, 52, 0
2, 18960, Note_on_c, 0, 52, 95
2, 19080, Note_on_c, 0, 52, 0
2, 19200, Note_on_c, 0, 52, 95
2, 19320, Note_on_c, 0, 52, 0
2, 19440, Note_on_c, 0, 54, 95
2, 19560, Note_on_c, 0, 54, 0
2, 19680, Note_on_c, 0, 51, 95
2, 19800, Note_on_c, 0, 51, 0
2, 20160, Note_on_c, 0, 51, 95
2, 20280, Note_on_c, 0, 51, 0
2, 20400, Note_on_c, 0, 58, 95
2, 20520, Note_on_c, 0, 58, 0
2, 20520, Note_on_c, 0, 58, 95
2, 20640, Note_on_c, 0, 58, 0
2, 20640, Note_on_c, 0, 58, 95
2, 20760, Note_on_c, 0, 58, 0
2, 20880, Note_on_c, 0, 59, 95
2, 21000, Note_on_c, 0, 59, 0
2, 21120, Note_on_c, 0, 58, 95
2, 21240, Note_on_c, 0, 58, 0
2, 21360, Note_on_c, 0, 56, 95
2, 21480, Note_on_c, 0, 56, 0
2, 21600, Note_on_c, 0, 54, 95
2, 21720, Note_on_c, 0, 54, 0
2, 22080, Note_on_c, 0, 54, 95
2, 22200, Note_on_c, 0, 54, 0
2, 22320, Note_on_c, 0, 52, 95
2, 22440, Note_on_c, 0, 52, 0
2, 22440, Note_on_c, 0, 52, 95
2, 22560, Note_on_c, 0, 52, 0
2, 22560, Note_on_c, 0, 52, 95
2, 22680, Note_on_c, 0, 52, 0
2, 22800, Note_on_c, 0, 52, 95
2, 22920, Note_on_c, 0, 52, 0
2, 23040, Note_on_c, 0, 52, 95
2, 23160, Note_on_c, 0, 52, 0
2, 23280, Note_on_c, 0, 54, 95
2, 23400, Note_on_c, 0, 54, 0
2, 23520, Note_on_c, 0, 51, 127
2, 23640, Note_on_c, 0, 51, 0
2, 24000, Note_on_c, 0, 51, 127
2, 24120, Note_on_c, 0, 51, 0
2, 24240, Note_on_c, 0, 58, 127
2, 24360, Note_on_c, 0, 58, 0
2, 24360, Note_on_c, 0, 58, 127
2, 24480, Note_on_c, 0, 58, 0
2, 24480, Note_on_c, 0, 58, 127
2, 24600, Note_on_c, 0, 58, 0
2, 24720, Note_on_c, 0, 59, 127
2, 24840, Note_on_c, 0, 59, 0
2, 24960, Note_on_c, 0, 58, 127
2, 25080, Note_on_c, 0, 58, 0
2, 25200, Note_on_c, 0, 56, 127
2, 25320, Note_on_c, 0, 56, 0
2, 25440, Note_on_c, 0, 54, 127
2, 25560, Note_on_c, 0, 54, 0
2, 25920, Note_on_c, 0, 54, 127
2, 26040, Note_on_c, 0, 54, 0
2, 26160, Note_on_c, 0, 52, 127
2, 26280, Note_on_c, 0, 52, 0
2, 26280, Note_on_c, 0, 52, 127
2, 26400, Note_on_c, 0, 52, 0
2, 26400, Note_on_c, 0, 52, 127
2, 26520, Note_on_c, 0, 52, 0
2, 26640, Note_on_c, 0, 52, 127
2, 26760, Note_on_c, 0, 52, 0
2, 26880, Note_on_c, 0, 52, 127
2, 27000, Note_on_c, 0, 52, 0
2, 27120, Note_on_c, 0, 54, 127
2, 27240, Note_on_c, 0, 54, 0
2, 27360, Note_on_c, 0, 51, 127
2, 27480, Note_on_c, 0, 51, 0
2, 27840, Note_on_c, 0, 51, 127
2, 27960, Note_on_c, 0, 51, 0
2, 28080, Note_on_c, 0, 58, 127
2, 28200, Note_on_c, 0, 58, 0
2, 28200, Note_on_c, 0, 58, 127
2, 28320, Note_on_c, 0, 58, 0
2, 28320, Note_on_c, 0, 58, 127
2, 28440, Note_on_c, 0, 58, 0
2, 28560, Note_on_c, 0, 59, 127
2, 28680, Note_on_c, 0, 59, 0
2, 28800, Note_on_c, 0, 58, 127
2, 28920, Note_on_c, 0, 58, 0
2, 29040, Note_on_c, 0, 56, 127
2, 29160, Note_on_c, 0, 56, 0
2, 29280, Note_on_c, 0, 54, 127
2, 29400, Note_on_c, 0, 54, 0
2, 29760, Note_on_c, 0, 54, 127
2, 29880, Note_on_c, 0, 54, 0
2, 30000, Note_on_c, 0, 52, 127
2, 30120, Note_on_c, 0, 52, 0
2, 30120, Note_on_c, 0, 52, 127
2, 30240, Note_on_c, 0, 52, 0
2, 30240, Note_on_c, 0, 52, 127
2, 30360, Note_on_c, 0, 52, 0
2, 30480, Note_on_c, 0, 52, 127
2, 30600, Note_on_c, 0, 52, 0
2, 30720, Note_on_c, 0, 52, 127
2, 30840, Note_on_c, 0, 52, 0
2, 30960, Note_on_c, 0, 54, 127
2, 31080, Note_on_c, 0, 54, 0
2, 69600, Note_on_c, 0, 51, 95
2, 70080, Note_on_c, 0, 51, 0
2, 70080, Note_on_c, 0, 51, 95
2, 70320, Note_on_c, 0, 51, 0
2, 70320, Note_on_c, 0, 58, 95
2, 70440, Note_on_c, 0, 58, 0
2, 70440, Note_on_c, 0, 58, 95
2, 70560, Note_on_c, 0, 58, 0
2, 70560, Note_on_c, 0, 58, 95
2, 70800, Note_on_c, 0, 58, 0
2, 70800, Note_on_c, 0, 59, 95
2, 71040, Note_on_c, 0, 58, 95
2, 71040, Note_on_c, 0, 59, 0
2, 71280, Note_on_c, 0, 56, 95
2, 71280, Note_on_c, 0, 58, 0
2, 71400, Note_on_c, 0, 56, 0
2, 71400, End_track
3, 0, Start_track
3, 0, Channel_prefix, 1
3, 0, Title_t, " Distortion Gt*merged"
3, 0, Instrument_name_t, "My Soundcard  2"
3, 0, Program_c, 1, 30
3, 0, Control_c, 1, 7, 100
3, 0, Control_c, 1, 10, 64
3, 15840, Note_on_c, 1, 46, 91
3, 15840, Note_on_c, 1, 51, 127
3, 15840, Note_on_c, 1, 51, 127
3, 15840, Note_on_c, 1, 51, 127
3, 15960, Note_on_c, 1, 46, 0
3, 15960, Note_on_c, 1, 51, 0
3, 15960, Note_on_c, 1, 51, 0
3, 15960, Note_on_c, 1, 51, 0
3, 16080, Note_on_c, 1, 46, 91
3, 16080, Note_on_c, 1, 51, 127
3, 16080, Note_on_c, 1, 51, 127
3, 16080, Note_on_c, 1, 51, 127
3, 16200, Note_on_c, 1, 46, 0
3, 16200, Note_on_c, 1, 51, 0
3, 16200, Note_on_c, 1, 51, 0
3, 16200, Note_on_c, 1, 51, 0
3, 19680, Note_on_c, 1, 46, 91
3, 19680, Note_on_c, 1, 51, 127
3, 19680, Note_on_c, 1, 51, 127
3, 19680, Note_on_c, 1, 51, 127
3, 19800, Note_on_c, 1, 46, 0
3, 19800, Note_on_c, 1, 51, 0
3, 19800, Note_on_c, 1, 51, 0
3, 19800, Note_on_c, 1, 51, 0
3, 19920, Note_on_c, 1, 46, 91
3, 19920, Note_on_c, 1, 51, 127
3, 19920, Note_on_c, 1, 51, 127
3, 19920, Note_on_c, 1, 51, 127
3, 20040, Note_on_c, 1, 46, 0
3, 20040, Note_on_c, 1, 51, 0
3, 20040, Note_on_c, 1, 51, 0
3, 20040, Note_on_c, 1, 51, 0
3, 23520, Note_on_c, 1, 46, 91
3, 23520, Note_on_c, 1, 51, 127
3, 23520, Note_on_c, 1, 51, 127
3, 23520, Note_on_c, 1, 51, 127
3, 23640, Note_on_c, 1, 46, 0
3, 23640, Note_on_c, 1, 51, 0
3, 23640, Note_on_c, 1, 51, 0
3, 23640, Note_on_c, 1, 51, 0
3, 23760, Note_on_c, 1, 46, 91
3, 23760, Note_on_c, 1, 51, 127
3, 23760, Note_on_c, 1, 51, 127
3, 23760, Note_on_c, 1, 51, 127
3, 23880, Note_on_c, 1, 46, 0
3, 23880, Note_on_c, 1, 51, 0
3, 23880, Note_on_c, 1, 51, 0
3, 23880, Note_on_c, 1, 51, 0
3, 31200, Note_on_c, 1, 51, 95
3, 31680, Note_on_c, 1, 51, 0
3, 31680, Note_on_c, 1, 51, 95
3, 31920, Note_on_c, 1, 51, 0
3, 31920, Note_on_c, 1, 58, 95
3, 32040, Note_on_c, 1, 58, 0
3, 32040, Note_on_c, 1, 58, 95
3, 32160, Note_on_c, 1, 58, 0
3, 32160, Note_on_c, 1, 58, 95
3, 32400, Note_on_c, 1, 58, 0
3, 32400, Note_on_c, 1, 59, 95
3, 32640, Note_on_c, 1, 58, 95
3, 32640, Note_on_c, 1, 59, 0
3, 32880, Note_on_c, 1, 56, 95
3, 32880, Note_on_c, 1, 58, 0
3, 33000, Note_on_c, 1, 56, 0
3, 33360, Note_on_c, 1, 54, 95
3, 33600, Note_on_c, 1, 54, 0
3, 33600, Note_on_c, 1, 54, 95
3, 33840, Note_on_c, 1, 52, 95
3, 33840, Note_on_c, 1, 54, 0
3, 33960, Note_on_c, 1, 52, 0
3, 33960, Note_on_c, 1, 52, 95
3, 34080, Note_on_c, 1, 52, 0
3, 34080, Note_on_c, 1, 52, 95
3, 34320, Note_on_c, 1, 52, 0
3, 34320, Note_on_c, 1, 52, 95
3, 34560, Note_on_c, 1, 52, 0
3, 34560, Note_on_c, 1, 52, 95
3, 34800, Note_on_c, 1, 52, 0
3, 34800, Note_on_c, 1, 54, 95
3, 34920, Note_on_c, 1, 54, 0
3, 35040, Note_on_c, 1, 51, 95
3, 35520, Note_on_c, 1, 51, 0
3, 35520, Note_on_c, 1, 51, 95
3, 35760, Note_on_c, 1, 51, 0
3, 35760, Note_on_c, 1, 58, 95
3, 35880, Note_on_c, 1, 58, 0
3, 35880, Note_on_c, 1, 58, 95
3, 36000, Note_on_c, 1, 58, 0
3, 36000, Note_on_c, 1, 58, 95
3, 36240, Note_on_c, 1, 58, 0
3, 36240, Note_on_c, 1, 59, 95
3, 36480, Note_on_c, 1, 58, 95
3, 36480, Note_on_c, 1, 59, 0
3, 36720, Note_on_c, 1, 56, 95
3, 36720, Note_on_c, 1, 58, 0
3, 36840, Note_on_c, 1, 56, 0
3, 37200, Note_on_c, 1, 54, 95
3, 37440, Note_on_c, 1, 54, 0
3, 37440, Note_on_c, 1, 54, 95
3, 37680, Note_on_c, 1, 52, 95
3, 37680, Note_on_c, 1, 54, 0
3, 37800, Note_on_c, 1, 52, 0
3, 37800, Note_on_c, 1, 52, 95
3, 37920, Note_on_c, 1, 52, 0
3, 37920, Note_on_c, 1, 52, 95
3, 38160, Note_on_c, 1, 52, 0
3, 38160, Note_on_c, 1, 52, 95
3, 38400, Note_on_c, 1, 52, 0
3, 38400, Note_on_c, 1, 52, 95
3, 38640, Note_on_c, 1, 52, 0
3, 38640, Note_on_c, 1, 54, 95
3, 38760, Note_on_c, 1, 54, 0
3, 38880, Note_on_c, 1, 51, 95
3, 39360, Note_on_c, 1, 51, 0
3, 39360, Note_on_c, 1, 51, 95
3, 39600, Note_on_c, 1, 51, 0
3, 39600, Note_on_c, 1, 58, 95
3, 39720, Note_on_c, 1, 58, 0
3, 39720, Note_on_c, 1, 58, 95
3, 39840, Note_on_c, 1, 58, 0
3, 39840, Note_on_c, 1, 58, 95
3, 40080, Note_on_c, 1, 58, 0
3, 40080, Note_on_c, 1, 59, 95
3, 40320, Note_on_c, 1, 58, 95
3, 40320, Note_on_c, 1, 59, 0
3, 40560, Note_on_c, 1, 56, 95
3, 40560, Note_on_c, 1, 58, 0
3, 40680, Note_on_c, 1, 56, 0
3, 41040, Note_on_c, 1, 54, 95
3, 41280, Note_on_c, 1, 54, 0
3, 41280, Note_on_c, 1, 54, 95
3, 41520, Note_on_c, 1, 52, 95
3, 41520, Note_on_c, 1, 54, 0
3, 41640, Note_on_c, 1, 52, 0
3, 41640, Note_on_c, 1, 52, 95
3, 41760, Note_on_c, 1, 52, 0
3, 41760, Note_on_c, 1, 52, 95
3, 42000, Note_on_c, 1, 52, 0
3, 42000, Note_on_c, 1, 52, 95
3, 42240, Note_on_c, 1, 52, 0
3, 42240, Note_on_c, 1, 52, 95
3, 42480, Note_on_c, 1, 52, 0
3, 42480, Note_on_c, 1, 54, 95
3, 42600, Note_on_c, 1, 54, 0
3, 42720, Note_on_c, 1, 51, 95
3, 43200, Note_on_c, 1, 51, 0
3, 43200, Note_on_c, 1, 51, 95
3, 43440, Note_on_c, 1, 51, 0
3, 43440, Note_on_c, 1, 58, 95
3, 43560, Note_on_c, 1, 58, 0
3, 43560, Note_on_c, 1, 58, 95
3, 43680, Note_on_c, 1, 58, 0
3, 43680, Note_on_c, 1, 58, 95
3, 43920, Note_on_c, 1, 58, 0
3, 43920, Note_on_c, 1, 59, 95
3, 44160, Note_on_c, 1, 58, 95
3, 44160, Note_on_c, 1, 59, 0
3, 44400, Note_on_c, 1, 56, 95
3, 44400, Note_on_c, 1, 58, 0
3, 44520, Note_on_c, 1, 56, 0
3, 44880, Note_on_c, 1, 54, 95
3, 45120, Note_on_c, 1, 54, 0
3, 45120, Note_on_c, 1, 54, 95
3, 45360, Note_on_c, 1, 52, 95
3, 45360, Note_on_c, 1, 54, 0
3, 45480, Note_on_c, 1, 52, 0
3, 45480, Note_on_c, 1, 52, 95
3, 45600, Note_on_c, 1, 52, 0
3, 45600, Note_on_c, 1, 52, 95
3, 45840, Note_on_c, 1, 52, 0
3, 45840, Note_on_c, 1, 52, 95
3, 46080, Note_on_c, 1, 52, 0
3, 46080, Note_on_c, 1, 52, 95
3, 46320, Note_on_c, 1, 52, 0
3, 46320, Note_on_c, 1, 54, 95
3, 46440, Note_on_c, 1, 54, 0
3, 46560, Note_on_c, 1, 51, 95
3, 47040, Note_on_c, 1, 51, 0
3, 47040, Note_on_c, 1, 51, 95
3, 47280, Note_on_c, 1, 51, 0
3, 47280, Note_on_c, 1, 58, 95
3, 47400, Note_on_c, 1, 58, 0
3, 47400, Note_on_c, 1, 58, 95
3, 47520, Note_on_c, 1, 58, 0
3, 47520, Note_on_c, 1, 58, 95
3, 47760, Note_on_c, 1, 58, 0
3, 47760, Note_on_c, 1, 59, 95
3, 48000, Note_on_c, 1, 58, 95
3, 48000, Note_on_c, 1, 59, 0
3, 48240, Note_on_c, 1, 56, 95
3, 48240, Note_on_c, 1, 58, 0
3, 48360, Note_on_c, 1, 56, 0
3, 48720, Note_on_c, 1, 54, 95
3, 48960, Note_on_c, 1, 54, 0
3, 48960, Note_on_c, 1, 54, 95
3, 49200, Note_on_c, 1, 52, 95
3, 49200, Note_on_c, 1, 54, 0
3, 49320, Note_on_c, 1, 52, 0
3, 49320, Note_on_c, 1, 52, 95
3, 49440, Note_on_c, 1, 52, 0
3, 49440, Note_on_c, 1, 52, 95
3, 49680, Note_on_c, 1, 52, 0
3, 49680, Note_on_c, 1, 52, 95
3, 49920, Note_on_c, 1, 52, 0
3, 49920, Note_on_c, 1, 52, 95
3, 50160, Note_on_c, 1, 52, 0
3, 50160, Note_on_c, 1, 54, 95
3, 50280, Note_on_c, 1, 54, 0
3, 50400, Note_on_c, 1, 51, 95
3, 50880, Note_on_c, 1, 51, 0
3, 50880, Note_on_c, 1, 51, 95
3, 51120, Note_on_c, 1, 51, 0
3, 51120, Note_on_c, 1, 58, 95
3, 51240, Note_on_c, 1, 58, 0
3, 51240, Note_on_c, 1, 58, 95
3, 51360, Note_on_c, 1, 58, 0
3, 51360, Note_on_c, 1, 58, 95
3, 51600, Note_on_c, 1, 58, 0
3, 51600, Note_on_c, 1, 59, 95
3, 51840, Note_on_c, 1, 58, 95
3, 51840, Note_on_c, 1, 59, 0
3, 52080, Note_on_c, 1, 56, 95
3, 52080, Note_on_c, 1, 58, 0
3, 52200, Note_on_c, 1, 56, 0
3, 52560, Note_on_c, 1, 54, 95
3, 52800, Note_on_c, 1, 54, 0
3, 52800, Note_on_c, 1, 54, 95
3, 53040, Note_on_c, 1, 52, 95
3, 53040, Note_on_c, 1, 54, 0
3, 53160, Note_on_c, 1, 52, 0
3, 53160, Note_on_c, 1, 52, 95
3, 53280, Note_on_c, 1, 52, 0
3, 53280, Note_on_c, 1, 52, 95
3, 53520, Note_on_c, 1, 52, 0
3, 53520, Note_on_c, 1, 52, 95
3, 53760, Note_on_c, 1, 52, 0
3, 53760, Note_on_c, 1, 52, 95
3, 54000, Note_on_c, 1, 52, 0
3, 54000, Note_on_c, 1, 54, 95
3, 54120, Note_on_c, 1, 54, 0
3, 54240, Note_on_c, 1, 51, 127
3, 54720, Note_on_c, 1, 51, 0
3, 54720, Note_on_c, 1, 51, 127
3, 54960, Note_on_c, 1, 51, 0
3, 54960, Note_on_c, 1, 58, 127
3, 55080, Note_on_c, 1, 58, 0
3, 55080, Note_on_c, 1, 58, 127
3, 55200, Note_on_c, 1, 58, 0
3, 55200, Note_on_c, 1, 58, 127
3, 55440, Note_on_c, 1, 58, 0
3, 55440, Note_on_c, 1, 59, 127
3, 55680, Note_on_c, 1, 58, 127
3, 55680, Note_on_c, 1, 59, 0
3, 55920, Note_on_c, 1, 56, 127
3, 55920, Note_on_c, 1, 58, 0
3, 56160, Note_on_c, 1, 54, 127
3, 56160, Note_on_c, 1, 56, 0
3, 56640, Note_on_c, 1, 54, 0
3, 56640, Note_on_c, 1, 54, 127
3, 56880, Note_on_c, 1, 52, 127
3, 56880, Note_on_c, 1, 54, 0
3, 57000, Note_on_c, 1, 52, 0
3, 57000, Note_on_c, 1, 52, 127
3, 57120, Note_on_c, 1, 52, 0
3, 57120, Note_on_c, 1, 52, 127
3, 57360, Note_on_c, 1, 52, 0
3, 57360, Note_on_c, 1, 52, 127
3, 57600, Note_on_c, 1, 52, 0
3, 57600, Note_on_c, 1, 52, 127
3, 57840, Note_on_c, 1, 52, 0
3, 57840, Note_on_c, 1, 54, 127
3, 58080, Note_on_c, 1, 51, 127
3, 58080, Note_on_c, 1, 54, 0
3, 58560, Note_on_c, 1, 51, 0
3, 58560, Note_on_c, 1, 51, 127
3, 58800, Note_on_c, 1, 51, 0
3, 58800, Note_on_c, 1, 58, 127
3, 58920, Note_on_c, 1, 58, 0
3, 58920, Note_on_c, 1, 58, 127
3, 59040, Note_on_c, 1, 58, 0
3, 59040, Note_on_c, 1, 58, 127
3, 59280, Note_on_c, 1, 58, 0
3, 59280, Note_on_c, 1, 59, 127
3, 59520, Note_on_c, 1, 58, 127
3, 59520, Note_on_c, 1, 59, 0
3, 59760, Note_on_c, 1, 56, 127
3, 59760, Note_on_c, 1, 58, 0
3, 60000, Note_on_c, 1, 54, 127
3, 60000, Note_on_c, 1, 56, 0
3, 60480, Note_on_c, 1, 54, 0
3, 60480, Note_on_c, 1, 54, 127
3, 60720, Note_on_c, 1, 52, 127
3, 60720, Note_on_c, 1, 54, 0
3, 60840, Note_on_c, 1, 52, 0
3, 60840, Note_on_c, 1, 52, 127
3, 60960, Note_on_c, 1, 52, 0
3, 60960, Note_on_c, 1, 52, 127
3, 61200, Note_on_c, 1, 52, 0
3, 61200, Note_on_c, 1, 52, 127
3, 61440, Note_on_c, 1, 52, 0
3, 61440, Note_on_c, 1, 52, 127
3, 61680, Note_on_c, 1, 52, 0
3, 61680, Note_on_c, 1, 54, 127
3, 61920, Note_on_c, 1, 51, 127
3, 61920, Note_on_c, 1, 54, 0
3, 62400, Note_on_c, 1, 51, 0
3, 62400, Note_on_c, 1, 51, 127
3, 62640, Note_on_c, 1, 51, 0
3, 62640, Note_on_c, 1, 58, 127
3, 62760, Note_on_c, 1, 58, 0
3, 62760, Note_on_c, 1, 58, 127
3, 62880, Note_on_c, 1, 58, 0
3, 62880, Note_on_c, 1, 58, 127
3, 63120, Note_on_c, 1, 58, 0
3, 63120, Note_on_c, 1, 59, 127
3, 63360, Note_on_c, 1, 58, 127
3, 63360, Note_on_c, 1, 59, 0
3, 63600, Note_on_c, 1, 56, 127
3, 63600, Note_on_c, 1, 58, 0
3, 63840, Note_on_c, 1, 54, 127
3, 63840, Note_on_c, 1, 56, 0
3, 64320, Note_on_c, 1, 54, 0
3, 64320, Note_on_c, 1, 54, 127
3, 64560, Note_on_c, 1, 52, 127
3, 64560, Note_on_c, 1, 54, 0
3, 64680, Note_on_c, 1, 52, 0
3, 64680, Note_on_c, 1, 52, 127
3, 64800, Note_on_c, 1, 52, 0
3, 64800, Note_on_c, 1, 52, 127
3, 65040, Note_on_c, 1, 52, 0
3, 65040, Note_on_c, 1, 52, 127
3, 65280, Note_on_c, 1, 52, 0
3, 65280, Note_on_c, 1, 52, 127
3, 65520, Note_on_c, 1, 52, 0
3, 65520, Note_on_c, 1, 54, 127
3, 65760, Note_on_c, 1, 51, 127
3, 65760, Note_on_c, 1, 54, 0
3, 66240, Note_on_c, 1, 51, 0
3, 66240, Note_on_c, 1, 51, 127
3, 66480, Note_on_c, 1, 51, 0
3, 66480, Note_on_c, 1, 58, 127
3, 66600, Note_on_c, 1, 58, 0
3, 66600, Note_on_c, 1, 58, 127
3, 66720, Note_on_c, 1, 58, 0
3, 66720, Note_on_c, 1, 58, 127
3, 66960, Note_on_c, 1, 58, 0
3, 66960, Note_on_c, 1, 59, 127
3, 67200, Note_on_c, 1, 58, 127
3, 67200, Note_on_c, 1, 59, 0
3, 67440, Note_on_c, 1, 56, 127
3, 67440, Note_on_c, 1, 58, 0
3, 67680, Note_on_c, 1, 54, 127
3, 67680, Note_on_c, 1, 56, 0
3, 68160, Note_on_c, 1, 54, 0
3, 68160, Note_on_c, 1, 54, 127
3, 68400, Note_on_c, 1, 52, 127
3, 68400, Note_on_c, 1, 54, 0
3, 68520, Note_on_c, 1, 52, 0
3, 68520, Note_on_c, 1, 52, 127
3, 68640, Note_on_c, 1, 52, 0
3, 68640, Note_on_c, 1, 52, 127
3, 68880, Note_on_c, 1, 52, 0
3, 68880, Note_on_c, 1, 52, 127
3, 69120, Note_on_c, 1, 52, 0
3, 69120, Note_on_c, 1, 52, 127
3, 69360, Note_on_c, 1, 52, 0
3, 69360, Note_on_c, 1, 54, 127
3, 69600, Note_on_c, 1, 54, 0
3, 71760, Note_on_c, 1, 54, 95
3, 72000, Note_on_c, 1, 54, 0
3, 72000, Note_on_c, 1, 54, 95
3, 72240, Note_on_c, 1, 52, 95
3, 72240, Note_on_c, 1, 54, 0
3, 72360, Note_on_c, 1, 52, 0
3, 72360, Note_on_c, 1, 52, 95
3, 72480, Note_on_c, 1, 52, 0
3, 72480, Note_on_c, 1, 52, 95
3, 72720, Note_on_c, 1, 52, 0
3, 72720, Note_on_c, 1, 52, 95
3, 72960, Note_on_c, 1, 52, 0
3, 72960, Note_on_c, 1, 52, 95
3, 73200, Note_on_c, 1, 52, 0
3, 73200, Note_on_c, 1, 54, 95
3, 73320, Note_on_c, 1, 54, 0
3, 73440, Note_on_c, 1, 51, 95
3, 73920, Note_on_c, 1, 51, 0
3, 73920, Note_on_c, 1, 51, 95
3, 74160, Note_on_c, 1, 51, 0
3, 74160, Note_on_c, 1, 58, 95
3, 74280, Note_on_c, 1, 58, 0
3, 74280, Note_on_c, 1, 58, 95
3, 74400, Note_on_c, 1, 58, 0
3, 74400, Note_on_c, 1, 58, 95
3, 74640, Note_on_c, 1, 58, 0
3, 74640, Note_on_c, 1, 59, 95
3, 74880, Note_on_c, 1, 58, 95
3, 74880, Note_on_c, 1, 59, 0
3, 75120, Note_on_c, 1, 56, 95
3, 75120, Note_on_c, 1, 58, 0
3, 75240, Note_on_c, 1, 56, 0
3, 75600, Note_on_c, 1, 54, 95
3, 75840, Note_on_c, 1, 54, 0
3, 75840, Note_on_c, 1, 54, 95
3, 76080, Note_on_c, 1, 52, 95
3, 76080, Note_on_c, 1, 54, 0
3, 76200, Note_on_c, 1, 52, 0
3, 76200, Note_on_c, 1, 52, 95
3, 76320, Note_on_c, 1, 52, 0
3, 76320, Note_on_c, 1, 52, 95
3, 76560, Note_on_c, 1, 52, 0
3, 76560, Note_on_c, 1, 52, 95
3, 76800, Note_on_c, 1, 52, 0
3, 76800, Note_on_c, 1, 52, 95
3, 77040, Note_on_c, 1, 52, 0
3, 77040, Note_on_c, 1, 54, 95
3, 77160, Note_on_c, 1, 54, 0
3, 77280, Note_on_c, 1, 51, 95
3, 77760, Note_on_c, 1, 51, 0
3, 77760, Note_on_c, 1, 51, 95
3, 78000, Note_on_c, 1, 51, 0
3, 78000, Note_on_c, 1, 58, 95
3, 78120, Note_on_c, 1, 58, 0
3, 78120, Note_on_c, 1, 58, 95
3, 78240, Note_on_c, 1, 58, 0
3, 78240, Note_on_c, 1, 58, 95
3, 78480, Note_on_c, 1, 58, 0
3, 78480, Note_on_c, 1, 59, 95
3, 78720, Note_on_c, 1, 58, 95
3, 78720, Note_on_c, 1, 59, 0
3, 78960, Note_on_c, 1, 56, 95
3, 78960, Note_on_c, 1, 58, 0
3, 79080, Note_on_c, 1, 56, 0
3, 79440, Note_on_c, 1, 54, 95
3, 79680, Note_on_c, 1, 54, 0
3, 79680, Note_on_c, 1, 54, 95
3, 79920, Note_on_c, 1, 52, 95
3, 79920, Note_on_c, 1, 54, 0
3, 80040, Note_on_c, 1, 52, 0
3, 80040, Note_on_c, 1, 52, 95
3, 80160, Note_on_c, 1, 52, 0
3, 80160, Note_on_c, 1, 52, 95
3, 80400, Note_on_c, 1, 52, 0
3, 80400, Note_on_c, 1, 52, 95
3, 80640, Note_on_c, 1, 52, 0
3, 80640, Note_on_c, 1, 52, 95
3, 80880, Note_on_c, 1, 52, 0
3, 80880, Note_on_c, 1, 54, 95
3, 81000, Note_on_c, 1, 54, 0
3, 81120, Note_on_c, 1, 51, 95
3, 81600, Note_on_c, 1, 51, 0
3, 81600, Note_on_c, 1, 51, 95
3, 81840, Note_on_c, 1, 51, 0
3, 81840, Note_on_c, 1, 58, 95
3, 81960, Note_on_c, 1, 58, 0
3, 81960, Note_on_c, 1, 58, 95
3, 82080, Note_on_c, 1, 58, 0
3, 82080, Note_on_c, 1, 58, 95
3, 82320, Note_on_c, 1, 58, 0
3, 82320, Note_on_c, 1, 59, 95
3, 82560, Note_on_c, 1, 58, 95
3, 82560, Note_on_c, 1, 59, 0
3, 82800, Note_on_c, 1, 56, 95
3, 82800, Note_on_c, 1, 58, 0
3, 82920, Note_on_c, 1, 56, 0
3, 83280, Note_on_c, 1, 54, 95
3, 83520, Note_on_c, 1, 54, 0
3, 83520, Note_on_c, 1, 54, 95
3, 83760, Note_on_c, 1, 52, 95
3, 83760, Note_on_c, 1, 54, 0
3, 83880, Note_on_c, 1, 52, 0
3, 83880, Note_on_c, 1, 52, 95
3, 84000, Note_on_c, 1, 52, 0
3, 84000, Note_on_c, 1, 52, 95
3, 84240, Note_on_c, 1, 52, 0
3, 84240, Note_on_c, 1, 52, 95
3, 84480, Note_on_c, 1, 52, 0
3, 84480, Note_on_c, 1, 52, 95
3, 84720, Note_on_c, 1, 52, 0
3, 84720, Note_on_c, 1, 54, 95
3, 84840, Note_on_c, 1, 54, 0
3, 84960, Note_on_c, 1, 51, 95
3, 85440, Note_on_c, 1, 51, 0
3, 85440, Note_on_c, 1, 51, 95
3, 85680, Note_on_c, 1, 51, 0
3, 85680, Note_on_c, 1, 58, 95
3, 85800, Note_on_c, 1, 58, 0
3, 85800, Note_on_c, 1, 58, 95
3, 85920, Note_on_c, 1, 58, 0
3, 85920, Note_on_c, 1, 58, 95
3, 86160, Note_on_c, 1, 58, 0
3, 86160, Note_on_c, 1, 59, 95
3, 86400, Note_on_c, 1, 58, 95
3, 86400, Note_on_c, 1, 59, 0
3, 86640, Note_on_c, 1, 56, 95
3, 86640, Note_on_c, 1, 58, 0
3, 86760, Note_on_c, 1, 56, 0
3, 87120, Note_on_c, 1, 54, 95
3, 87360, Note_on_c, 1, 54, 0
3, 87360, Note_on_c, 1, 54, 95
3, 87600, Note_on_c, 1, 52, 95
3, 87600, Note_on_c, 1, 54, 0
3, 87720, Note_on_c, 1, 52, 0
3, 87720, Note_on_c, 1, 52, 95
3, 87840, Note_on_c, 1, 52, 0
3, 87840, Note_on_c, 1, 52, 95
3, 88080, Note_on_c, 1, 52, 0
3, 88080, Note_on_c, 1, 52, 95
3, 88320, Note_on_c, 1, 52, 0
3, 88320, Note_on_c, 1, 52, 95
3, 88560, Note_on_c, 1, 52, 0
3, 88560, Note_on_c, 1, 54, 95
3, 88680, Note_on_c, 1, 54, 0
3, 88800, Note_on_c, 1, 51, 95
3, 89280, Note_on_c, 1, 51, 0
3, 89280, Note_on_c, 1, 51, 95
3, 89520, Note_on_c, 1, 51, 0
3, 89520, Note_on_c, 1, 58, 95
3, 89640, Note_on_c, 1, 58, 0
3, 89640, Note_on_c, 1, 58, 95
3, 89760, Note_on_c, 1, 58, 0
3, 89760, Note_on_c, 1, 58, 95
3, 90000, Note_on_c, 1, 58, 0
3, 90000, Note_on_c, 1, 59, 95
3, 90240, Note_on_c, 1, 58, 95
3, 90240, Note_on_c, 1, 59, 0
3, 90480, Note_on_c, 1, 56, 95
3, 90480, Note_on_c, 1, 58, 0
3, 90600, Note_on_c, 1, 56, 0
3, 90960, Note_on_c, 1, 54, 95
3, 91200, Note_on_c, 1, 54, 0
3, 91200, Note_on_c, 1, 54, 95
3, 91440, Note_on_c, 1, 52, 95
3, 91440, Note_on_c, 1, 54, 0
3, 91560, Note_on_c, 1, 52, 0
3, 91560, Note_on_c, 1, 52, 95
3, 91680, Note_on_c, 1, 52, 0
3, 91680, Note_on_c, 1, 52, 95
3, 91920, Note_on_c, 1, 52, 0
3, 91920, Note_on_c, 1, 52, 95
3, 92160, Note_on_c, 1, 52, 0
3, 92160, Note_on_c, 1, 52, 95
3, 92400, Note_on_c, 1, 52, 0
3, 92400, Note_on_c, 1, 54, 95
3, 92520, Note_on_c, 1, 54, 0
3, 92640, Note_on_c, 1, 51, 95
3, 93120, Note_on_c, 1, 51, 0
3, 93120, Note_on_c, 1, 51, 95
3, 93360, Note_on_c, 1, 51, 0
3, 93360, Note_on_c, 1, 58, 95
3, 93480, Note_on_c, 1, 58, 0
3, 93480, Note_on_c, 1, 58, 95
3, 93600, Note_on_c, 1, 58, 0
3, 93600, Note_on_c, 1, 58, 95
3, 93840, Note_on_c, 1, 58, 0
3, 93840, Note_on_c, 1, 59, 95
3, 94080, Note_on_c, 1, 58, 95
3, 94080, Note_on_c, 1, 59, 0
3, 94320, Note_on_c, 1, 56, 95
3, 94320, Note_on_c, 1, 58, 0
3, 94440, Note_on_c, 1, 56, 0
3, 94800, Note_on_c, 1, 54, 95
3, 95040, Note_on_c, 1, 54, 0
3, 95040, Note_on_c, 1, 54, 95
3, 95280, Note_on_c, 1, 52, 95
3, 95280, Note_on_c, 1, 54, 0
3, 95400, Note_on_c, 1, 52, 0
3, 95400, Note_on_c, 1, 52, 95
3, 95520, Note_on_c, 1, 52, 0
3, 95520, Note_on_c, 1, 52, 95
3, 95760, Note_on_c, 1, 52, 0
3, 95760, Note_on_c, 1, 52, 95
3, 96000, Note_on_c, 1, 52, 0
3, 96000, Note_on_c, 1, 52, 95
3, 96240, Note_on_c, 1, 52, 0
3, 96240, Note_on_c, 1, 54, 95
3, 96360, Note_on_c, 1, 54, 0
3, 96480, Note_on_c, 1, 51, 95
3, 96960, Note_on_c, 1, 51, 0
3, 96960, Note_on_c, 1, 51, 95
3, 97200, Note_on_c, 1, 51, 0
3, 97200, Note_on_c, 1, 58, 95
3, 97320, Note_on_c, 1, 58, 0
3, 97320, Note_on_c, 1, 58, 95
3, 97440, Note_on_c, 1, 58, 0
3, 97440, Note_on_c, 1, 58, 95
3, 97680, Note_on_c, 1, 58, 0
3, 97680, Note_on_c, 1, 59, 95
3, 97920, Note_on_c, 1, 58, 95
3, 97920, Note_on_c, 1, 59, 0
3, 98160, Note_on_c, 1, 56, 95
3, 98160, Note_on_c, 1, 58, 0
3, 98280, Note_on_c, 1, 56, 0
3, 98640, Note_on_c, 1, 54, 95
3, 98880, Note_on_c, 1, 54, 0
3, 98880, Note_on_c, 1, 54, 95
3, 99120, Note_on_c, 1, 52, 95
3, 99120, Note_on_c, 1, 54, 0
3, 99240, Note_on_c, 1, 52, 0
3, 99240, Note_on_c, 1, 52, 95
3, 99360, Note_on_c, 1, 52, 0
3, 99360, Note_on_c, 1, 52, 95
3, 99600, Note_on_c, 1, 52, 0
3, 99600, Note_on_c, 1, 52, 95
3, 99840, Note_on_c, 1, 52, 0
3, 99840, Note_on_c, 1, 52, 95
3, 100080, Note_on_c, 1, 52, 0
3, 100080, Note_on_c, 1, 54, 95
3, 100200, Note_on_c, 1, 54, 0
3, 100320, Note_on_c, 1, 51, 127
3, 100800, Note_on_c, 1, 51, 0
3, 100800, Note_on_c, 1, 51, 127
3, 101040, Note_on_c, 1, 51, 0
3, 101040, Note_on_c, 1, 58, 127
3, 101160, Note_on_c, 1, 58, 0
3, 101160, Note_on_c, 1, 58, 127
3, 101280, Note_on_c, 1, 58, 0
3, 101280, Note_on_c, 1, 58, 127
3, 101520, Note_on_c, 1, 58, 0
3, 101520, Note_on_c, 1, 59, 127
3, 101760, Note_on_c, 1, 58, 127
3, 101760, Note_on_c, 1, 59, 0
3, 102000, Note_on_c, 1, 56, 127
3, 102000, Note_on_c, 1, 58, 0
3, 102240, Note_on_c, 1, 54, 127
3, 102240, Note_on_c, 1, 56, 0
3, 102720, Note_on_c, 1, 54, 0
3, 102720, Note_on_c, 1, 54, 127
3, 102960, Note_on_c, 1, 52, 127
3, 102960, Note_on_c, 1, 54, 0
3, 103080, Note_on_c, 1, 52, 0
3, 103080, Note_on_c, 1, 52, 127
3, 103200, Note_on_c, 1, 52, 0
3, 103200, Note_on_c, 1, 52, 127
3, 103440, Note_on_c, 1, 52, 0
3, 103440, Note_on_c, 1, 52, 127
3, 103680, Note_on_c, 1, 52, 0
3, 103680, Note_on_c, 1, 52, 127
3, 103920, Note_on_c, 1, 52, 0
3, 103920, Note_on_c, 1, 54, 127
3, 104160, Note_on_c, 1, 51, 127
3, 104160, Note_on_c, 1, 54, 0
3, 104640, Note_on_c, 1, 51, 0
3, 104640, Note_on_c, 1, 51, 127
3, 104880, Note_on_c, 1, 51, 0
3, 104880, Note_on_c, 1, 58, 127
3, 105000, Note_on_c, 1, 58, 0
3, 105000, Note_on_c, 1, 58, 127
3, 105120, Note_on_c, 1, 58, 0
3, 105120, Note_on_c, 1, 58, 127
3, 105360, Note_on_c, 1, 58, 0
3, 105360, Note_on_c, 1, 59, 127
3, 105600, Note_on_c, 1, 58, 127
3, 105600, Note_on_c, 1, 59, 0
3, 105840, Note_on_c, 1, 56, 127
3, 105840, Note_on_c, 1, 58, 0
3, 106080, Note_on_c, 1, 54, 127
3, 106080, Note_on_c, 1, 56, 0
3, 106560, Note_on_c, 1, 54, 0
3, 106560, Note_on_c, 1, 54, 127
3, 106800, Note_on_c, 1, 52, 127
3, 106800, Note_on_c, 1, 54, 0
3, 106920, Note_on_c, 1, 52, 0
3, 106920, Note_on_c, 1, 52, 127
3, 107040, Note_on_c, 1, 52, 0
3, 107040, Note_on_c, 1, 52, 127
3, 107280, Note_on_c, 1, 52, 0
3, 107280, Note_on_c, 1, 52, 127
3, 107520, Note_on_c, 1, 52, 0
3, 107520, Note_on_c, 1, 52, 127
3, 107760, Note_on_c, 1, 52, 0
3, 107760, Note_on_c, 1, 54, 127
3, 108000, Note_on_c, 1, 51, 127
3, 108000, Note_on_c, 1, 54, 0
3, 108480, Note_on_c, 1, 51, 0
3, 108480, Note_on_c, 1, 51, 127
3, 108720, Note_on_c, 1, 51, 0
3, 108720, Note_on_c, 1, 58, 127
3, 108840, Note_on_c, 1, 58, 0
3, 108840, Note_on_c, 1, 58, 127
3, 108960, Note_on_c, 1, 58, 0
3, 108960, Note_on_c, 1, 58, 127
3, 109200, Note_on_c, 1, 58, 0
3, 109200, Note_on_c, 1, 59, 127
3, 109440, Note_on_c, 1, 58, 127
3, 109440, Note_on_c, 1, 59, 0
3, 109680, Note_on_c, 1, 56, 127
3, 109680, Note_on_c, 1, 58, 0
3, 109920, Note_on_c, 1, 54, 127
3, 109920, Note_on_c, 1, 56, 0
3, 110400, Note_on_c, 1, 54, 0
3, 110400, Note_on_c, 1, 54, 127
3, 110640, Note_on_c, 1, 52, 127
3, 110640, Note_on_c, 1, 54, 0
3, 110760, Note_on_c, 1, 52, 0
3, 110760, Note_on_c, 1, 52, 127
3, 110880, Note_on_c, 1, 52, 0
3, 110880, Note_on_c, 1, 52, 127
3, 111120, Note_on_c, 1, 52, 0
3, 111120, Note_on_c, 1, 52, 127
3, 111360, Note_on_c, 1, 52, 0
3, 111360, Note_on_c, 1, 52, 127
3, 111600, Note_on_c, 1, 52, 0
3, 111600, Note_on_c, 1, 54, 127
3, 111840, Note_on_c, 1, 51, 127
3, 111840, Note_on_c, 1, 54, 0
3, 112320, Note_on_c, 1, 51, 0
3, 112320, Note_on_c, 1, 51, 127
3, 112560, Note_on_c, 1, 51, 0
3, 112560, Note_on_c, 1, 58, 127
3, 112680, Note_on_c, 1, 58, 0
3, 112680, Note_on_c, 1, 58, 127
3, 112800, Note_on_c, 1, 58, 0
3, 112800, Note_on_c, 1, 58, 127
3, 113040, Note_on_c, 1, 58, 0
3, 113040, Note_on_c, 1, 59, 127
3, 113280, Note_on_c, 1, 58, 127
3, 113280, Note_on_c, 1, 59, 0
3, 113520, Note_on_c, 1, 56, 127
3, 113520, Note_on_c, 1, 58, 0
3, 113760, Note_on_c, 1, 54, 127
3, 113760, Note_on_c, 1, 56, 0
3, 114240, Note_on_c, 1, 54, 0
3, 114240, Note_on_c, 1, 54, 127
3, 114480, Note_on_c, 1, 52, 127
3, 114480, Note_on_c, 1, 54, 0
3, 114600, Note_on_c, 1, 52, 0
3, 114600, Note_on_c, 1, 52, 127
3, 114720, Note_on_c, 1, 52, 0
3, 114720, Note_on_c, 1, 52, 127
3, 114960, Note_on_c, 1, 52, 0
3, 114960, Note_on_c, 1, 52, 127
3, 115200, Note_on_c, 1, 52, 0
3, 115200, Note_on_c, 1, 52, 127
3, 115440, Note_on_c, 1, 52, 0
3, 115440, Note_on_c, 1, 54, 127
3, 115680, Note_on_c, 1, 54, 0
3, 131040, Note_on_c, 1, 51, 127
3, 131520, Note_on_c, 1, 51, 0
3, 131520, Note_on_c, 1, 51, 127
3, 131760, Note_on_c, 1, 51, 0
3, 131760, Note_on_c, 1, 58, 127
3, 131880, Note_on_c, 1, 58, 0
3, 131880, Note_on_c, 1, 58, 127
3, 132000, Note_on_c, 1, 58, 0
3, 132000, Note_on_c, 1, 58, 127
3, 132240, Note_on_c, 1, 58, 0
3, 132240, Note_on_c, 1, 59, 127
3, 132480, Note_on_c, 1, 58, 127
3, 132480, Note_on_c, 1, 59, 0
3, 132720, Note_on_c, 1, 56, 127
3, 132720, Note_on_c, 1, 58, 0
3, 132960, Note_on_c, 1, 54, 127
3, 132960, Note_on_c, 1, 56, 0
3, 133440, Note_on_c, 1, 54, 0
3, 133440, Note_on_c, 1, 54, 127
3, 133680, Note_on_c, 1, 52, 127
3, 133680, Note_on_c, 1, 54, 0
3, 133800, Note_on_c, 1, 52, 0
3, 133800, Note_on_c, 1, 52, 127
3, 133920, Note_on_c, 1, 52, 0
3, 133920, Note_on_c, 1, 52, 127
3, 134160, Note_on_c, 1, 52, 0
3, 134160, Note_on_c, 1, 52, 127
3, 134400, Note_on_c, 1, 52, 0
3, 134400, Note_on_c, 1, 52, 127
3, 134640, Note_on_c, 1, 52, 0
3, 134640, Note_on_c, 1, 54, 127
3, 134880, Note_on_c, 1, 51, 127
3, 134880, Note_on_c, 1, 54, 0
3, 135360, Note_on_c, 1, 51, 0
3, 135360, Note_on_c, 1, 51, 127
3, 135600, Note_on_c, 1, 51, 0
3, 135600, Note_on_c, 1, 58, 127
3, 135720, Note_on_c, 1, 58, 0
3, 135720, Note_on_c, 1, 58, 127
3, 135840, Note_on_c, 1, 58, 0
3, 135840, Note_on_c, 1, 58, 127
3, 136080, Note_on_c, 1, 58, 0
3, 136080, Note_on_c, 1, 59, 127
3, 136320, Note_on_c, 1, 58, 127
3, 136320, Note_on_c, 1, 59, 0
3, 136560, Note_on_c, 1, 56, 127
3, 136560, Note_on_c, 1, 58, 0
3, 136800, Note_on_c, 1, 54, 127
3, 136800, Note_on_c, 1, 56, 0
3, 137280, Note_on_c, 1, 54, 0
3, 137280, Note_on_c, 1, 54, 127
3, 137520, Note_on_c, 1, 52, 127
3, 137520, Note_on_c, 1, 54, 0
3, 137640, Note_on_c, 1, 52, 0
3, 137640, Note_on_c, 1, 52, 127
3, 137760, Note_on_c, 1, 52, 0
3, 137760, Note_on_c, 1, 52, 127
3, 138000, Note_on_c, 1, 52, 0
3, 138000, Note_on_c, 1, 52, 127
3, 138240, Note_on_c, 1, 52, 0
3, 138240, Note_on_c, 1, 52, 127
3, 138480, Note_on_c, 1, 52, 0
3, 138480, Note_on_c, 1, 54, 127
3, 138720, Note_on_c, 1, 51, 127
3, 138720, Note_on_c, 1, 54, 0
3, 139200, Note_on_c, 1, 51, 0
3, 139200, Note_on_c, 1, 51, 127
3, 139440, Note_on_c, 1, 51, 0
3, 139440, Note_on_c, 1, 58, 127
3, 139560, Note_on_c, 1, 58, 0
3, 139560, Note_on_c, 1, 58, 127
3, 139680, Note_on_c, 1, 58, 0
3, 139680, Note_on_c, 1, 58, 127
3, 139920, Note_on_c, 1, 58, 0
3, 139920, Note_on_c, 1, 59, 127
3, 140160, Note_on_c, 1, 58, 127
3, 140160, Note_on_c, 1, 59, 0
3, 140400, Note_on_c, 1, 56, 127
3, 140400, Note_on_c, 1, 58, 0
3, 140640, Note_on_c, 1, 54, 127
3, 140640, Note_on_c, 1, 56, 0
3, 141120, Note_on_c, 1, 54, 0
3, 141120, Note_on_c, 1, 54, 127
3, 141360, Note_on_c, 1, 52, 127
3, 141360, Note_on_c, 1, 54, 0
3, 141480, Note_on_c, 1, 52, 0
3, 141480, Note_on_c, 1, 52, 127
3, 141600, Note_on_c, 1, 52, 0
3, 141600, Note_on_c, 1, 52, 127
3, 141840, Note_on_c, 1, 52, 0
3, 141840, Note_on_c, 1, 52, 127
3, 142080, Note_on_c, 1, 52, 0
3, 142080, Note_on_c, 1, 52, 127
3, 142320, Note_on_c, 1, 52, 0
3, 142320, Note_on_c, 1, 54, 127
3, 142560, Note_on_c, 1, 51, 127
3, 142560, Note_on_c, 1, 54, 0
3, 143040, Note_on_c, 1, 51, 0
3, 143040, Note_on_c, 1, 51, 127
3, 143280, Note_on_c, 1, 51, 0
3, 143280, Note_on_c, 1, 58, 127
3, 143400, Note_on_c, 1, 58, 0
3, 143400, Note_on_c, 1, 58, 127
3, 143520, Note_on_c, 1, 58, 0
3, 143520, Note_on_c, 1, 58, 127
3, 143760, Note_on_c, 1, 58, 0
3, 143760, Note_on_c, 1, 59, 127
3, 144000, Note_on_c, 1, 58, 127
3, 144000, Note_on_c, 1, 59, 0
3, 144240, Note_on_c, 1, 56, 127
3, 144240, Note_on_c, 1, 58, 0
3, 144480, Note_on_c, 1, 54, 127
3, 144480, Note_on_c, 1, 56, 0
3, 144960, Note_on_c, 1, 54, 0
3, 144960, Note_on_c, 1, 54, 127
3, 145200, Note_on_c, 1, 52, 127
3, 145200, Note_on_c, 1, 54, 0
3, 145320, Note_on_c, 1, 52, 0
3, 145320, Note_on_c, 1, 52, 127
3, 145440, Note_on_c, 1, 52, 0
3, 145440, Note_on_c, 1, 52, 127
3, 145680, Note_on_c, 1, 52, 0
3, 145680, Note_on_c, 1, 52, 127
3, 145920, Note_on_c, 1, 52, 0
3, 145920, Note_on_c, 1, 52, 127
3, 146160, Note_on_c, 1, 52, 0
3, 146160, Note_on_c, 1, 54, 127
3, 146400, Note_on_c, 1, 51, 127
3, 146400, Note_on_c, 1, 54, 0
3, 146880, Note_on_c, 1, 51, 0
3, 146880, Note_on_c, 1, 51, 127
3, 147120, Note_on_c, 1, 51, 0
3, 147120, Note_on_c, 1, 58, 127
3, 147240, Note_on_c, 1, 58, 0
3, 147240, Note_on_c, 1, 58, 127
3, 147360, Note_on_c, 1, 58, 0
3, 147360, Note_on_c, 1, 58, 127
3, 147600, Note_on_c, 1, 58, 0
3, 147600, Note_on_c, 1, 59, 127
3, 147840, Note_on_c, 1, 58, 127
3, 147840, Note_on_c, 1, 59, 0
3, 148080, Note_on_c, 1, 56, 127
3, 148080, Note_on_c, 1, 58, 0
3, 148320, Note_on_c, 1, 54, 127
3, 148320, Note_on_c, 1, 56, 0
3, 148800, Note_on_c, 1, 54, 0
3, 148800, Note_on_c, 1, 54, 127
3, 149040, Note_on_c, 1, 52, 127
3, 149040, Note_on_c, 1, 54, 0
3, 149160, Note_on_c, 1, 52, 0
3, 149160, Note_on_c, 1, 52, 127
3, 149280, Note_on_c, 1, 52, 0
3, 149280, Note_on_c, 1, 52, 127
3, 149520, Note_on_c, 1, 52, 0
3, 149520, Note_on_c, 1, 52, 127
3, 149760, Note_on_c, 1, 52, 0
3, 149760, Note_on_c, 1, 52, 127
3, 150000, Note_on_c, 1, 52, 0
3, 150000, Note_on_c, 1, 54, 127
3, 150240, Note_on_c, 1, 51, 127
3, 150240, Note_on_c, 1, 54, 0
3, 150720, Note_on_c, 1, 51, 0
3, 150720, Note_on_c, 1, 51, 127
3, 150960, Note_on_c, 1, 51, 0
3, 150960, Note_on_c, 1, 58, 127
3, 151080, Note_on_c, 1, 58, 0
3, 151080, Note_on_c, 1, 58, 127
3, 151200, Note_on_c, 1, 58, 0
3, 151200, Note_on_c, 1, 58, 127
3, 151440, Note_on_c, 1, 58, 0
3, 151440, Note_on_c, 1, 59, 127
3, 151680, Note_on_c, 1, 58, 127
3, 151680, Note_on_c, 1, 59, 0
3, 151920, Note_on_c, 1, 56, 127
3, 151920, Note_on_c, 1, 58, 0
3, 152160, Note_on_c, 1, 54, 127
3, 152160, Note_on_c, 1, 56, 0
3, 152640, Note_on_c, 1, 54, 0
3, 152640, Note_on_c, 1, 54, 127
3, 152880, Note_on_c, 1, 52, 127
3, 152880, Note_on_c, 1, 54, 0
3, 153000, Note_on_c, 1, 52, 0
3, 153000, Note_on_c, 1, 52, 127
3, 153120, Note_on_c, 1, 52, 0
3, 153120, Note_on_c, 1, 52, 127
3, 153360, Note_on_c, 1, 52, 0
3, 153360, Note_on_c, 1, 52, 127
3, 153600, Note_on_c, 1, 52, 0
3, 153600, Note_on_c, 1, 52, 127
3, 153840, Note_on_c, 1, 52, 0
3, 153840, Note_on_c, 1, 54, 127
3, 154080, Note_on_c, 1, 51, 127
3, 154080, Note_on_c, 1, 54, 0
3, 154560, Note_on_c, 1, 51, 0
3, 154560, Note_on_c, 1, 51, 127
3, 154800, Note_on_c, 1, 51, 0
3, 154800, Note_on_c, 1, 58, 127
3, 154920, Note_on_c, 1, 58, 0
3, 154920, Note_on_c, 1, 58, 127
3, 155040, Note_on_c, 1, 58, 0
3, 155040, Note_on_c, 1, 58, 127
3, 155280, Note_on_c, 1, 58, 0
3, 155280, Note_on_c, 1, 59, 127
3, 155520, Note_on_c, 1, 58, 127
3, 155520, Note_on_c, 1, 59, 0
3, 155760, Note_on_c, 1, 56, 127
3, 155760, Note_on_c, 1, 58, 0
3, 156000, Note_on_c, 1, 54, 127
3, 156000, Note_on_c, 1, 56, 0
3, 156480, Note_on_c, 1, 54, 0
3, 156480, Note_on_c, 1, 54, 127
3, 156720, Note_on_c, 1, 52, 127
3, 156720, Note_on_c, 1, 54, 0
3, 156840, Note_on_c, 1, 52, 0
3, 156840, Note_on_c, 1, 52, 127
3, 156960, Note_on_c, 1, 52, 0
3, 156960, Note_on_c, 1, 52, 127
3, 157200, Note_on_c, 1, 52, 0
3, 157200, Note_on_c, 1, 52, 127
3, 157440, Note_on_c, 1, 52, 0
3, 157440, Note_on_c, 1, 52, 127
3, 157680, Note_on_c, 1, 52, 0
3, 157680, Note_on_c, 1, 54, 127
3, 157920, Note_on_c, 1, 51, 127
3, 157920, Note_on_c, 1, 54, 0
3, 158400, Note_on_c, 1, 51, 0
3, 158400, Note_on_c, 1, 51, 127
3, 158640, Note_on_c, 1, 51, 0
3, 158640, Note_on_c, 1, 58, 127
3, 158760, Note_on_c, 1, 58, 0
3, 158760, Note_on_c, 1, 58, 127
3, 158880, Note_on_c, 1, 58, 0
3, 158880, Note_on_c, 1, 58, 127
3, 159120, Note_on_c, 1, 58, 0
3, 159120, Note_on_c, 1, 59, 127
3, 159360, Note_on_c, 1, 58, 127
3, 159360, Note_on_c, 1, 59, 0
3, 159600, Note_on_c, 1, 56, 127
3, 159600, Note_on_c, 1, 58, 0
3, 159840, Note_on_c, 1, 54, 127
3, 159840, Note_on_c, 1, 56, 0
3, 160320, Note_on_c, 1, 54, 0
3, 160320, Note_on_c, 1, 54, 127
3, 160560, Note_on_c, 1, 52, 127
3, 160560, Note_on_c, 1, 54, 0
3, 160680, Note_on_c, 1, 52, 0
3, 160680, Note_on_c, 1, 52, 127
3, 160800, Note_on_c, 1, 52, 0
3, 160800, Note_on_c, 1, 52, 127
3, 161040, Note_on_c, 1, 52, 0
3, 161040, Note_on_c, 1, 52, 127
3, 161280, Note_on_c, 1, 52, 0
3, 161280, Note_on_c, 1, 52, 127
3, 161520, Note_on_c, 1, 52, 0
3, 161520, Note_on_c, 1, 54, 127
3, 161760, Note_on_c, 1, 51, 127
3, 161760, Note_on_c, 1, 54, 0
3, 161880, Note_on_c, 1, 51, 0
3, 162000, Note_on_c, 1, 51, 127
3, 162120, Note_on_c, 1, 51, 0
3, 162480, Note_on_c, 1, 51, 127
3, 162600, Note_on_c, 1, 51, 0
3, 162600, Note_on_c, 1, 51, 127
3, 162720, Note_on_c, 1, 51, 0
3, 162720, Note_on_c, 1, 51, 127
3, 162840, Note_on_c, 1, 51, 0
3, 162960, Note_on_c, 1, 51, 127
3, 163080, Note_on_c, 1, 51, 0
3, 163440, Note_on_c, 1, 51, 127
3, 163560, Note_on_c, 1, 51, 0
3, 163680, Note_on_c, 1, 51, 127
3, 163800, Note_on_c, 1, 51, 0
3, 163920, Note_on_c, 1, 51, 127
3, 164040, Note_on_c, 1, 51, 0
3, 164400, Note_on_c, 1, 51, 127
3, 164520, Note_on_c, 1, 51, 0
3, 164520, Note_on_c, 1, 51, 127
3, 164640, Note_on_c, 1, 51, 0
3, 164640, Note_on_c, 1, 51, 127
3, 164760, Note_on_c, 1, 51, 0
3, 164880, Note_on_c, 1, 51, 127
3, 165000, Note_on_c, 1, 51, 0
3, 165120, Note_on_c, 1, 54, 127
3, 165480, Note_on_c, 1, 54, 0
3, 165600, Note_on_c, 1, 51, 127
3, 165720, Note_on_c, 1, 51, 0
3, 165840, Note_on_c, 1, 51, 127
3, 165960, Note_on_c, 1, 51, 0
3, 166320, Note_on_c, 1, 51, 127
3, 166440, Note_on_c, 1, 51, 0
3, 166440, Note_on_c, 1, 51, 127
3, 166560, Note_on_c, 1, 51, 0
3, 166560, Note_on_c, 1, 51, 127
3, 166680, Note_on_c, 1, 51, 0
3, 166800, Note_on_c, 1, 51, 127
3, 166920, Note_on_c, 1, 51, 0
3, 167280, Note_on_c, 1, 51, 127
3, 167400, Note_on_c, 1, 51, 0
3, 167520, Note_on_c, 1, 51, 127
3, 167640, Note_on_c, 1, 51, 0
3, 167760, Note_on_c, 1, 51, 127
3, 167880, Note_on_c, 1, 51, 0
3, 168240, Note_on_c, 1, 51, 127
3, 168360, Note_on_c, 1, 51, 0
3, 168360, Note_on_c, 1, 51, 127
3, 168480, Note_on_c, 1, 51, 0
3, 168480, Note_on_c, 1, 51, 127
3, 168600, Note_on_c, 1, 51, 0
3, 168720, Note_on_c, 1, 51, 127
3, 168840, Note_on_c, 1, 51, 0
3, 168960, Note_on_c, 1, 54, 127
3, 169320, Note_on_c, 1, 54, 0
3, 169440, Note_on_c, 1, 51, 127
3, 169560, Note_on_c, 1, 51, 0
3, 169680, Note_on_c, 1, 51, 127
3, 169800, Note_on_c, 1, 51, 0
3, 170160, Note_on_c, 1, 51, 127
3, 170280, Note_on_c, 1, 51, 0
3, 170280, Note_on_c, 1, 51, 127
3, 170400, Note_on_c, 1, 51, 0
3, 170400, Note_on_c, 1, 51, 127
3, 170520, Note_on_c, 1, 51, 0
3, 170640, Note_on_c, 1, 51, 127
3, 170760, Note_on_c, 1, 51, 0
3, 171120, Note_on_c, 1, 51, 127
3, 171240, Note_on_c, 1, 51, 0
3, 171360, Note_on_c, 1, 51, 127
3, 171480, Note_on_c, 1, 51, 0
3, 171600, Note_on_c, 1, 51, 127
3, 171720, Note_on_c, 1, 51, 0
3, 172080, Note_on_c, 1, 51, 127
3, 172200, Note_on_c, 1, 51, 0
3, 172200, Note_on_c, 1, 51, 127
3, 172320, Note_on_c, 1, 51, 0
3, 172320, Note_on_c, 1, 51, 127
3, 172440, Note_on_c, 1, 51, 0
3, 172560, Note_on_c, 1, 51, 127
3, 172680, Note_on_c, 1, 51, 0
3, 172800, Note_on_c, 1, 54, 127
3, 173160, Note_on_c, 1, 54, 0
3, 173280, Note_on_c, 1, 51, 127
3, 173400, Note_on_c, 1, 51, 0
3, 173520, Note_on_c, 1, 51, 127
3, 173640, Note_on_c, 1, 51, 0
3, 174000, Note_on_c, 1, 51, 127
3, 174120, Note_on_c, 1, 51, 0
3, 174120, Note_on_c, 1, 51, 127
3, 174240, Note_on_c, 1, 51, 0
3, 174240, Note_on_c, 1, 51, 127
3, 174360, Note_on_c, 1, 51, 0
3, 174480, Note_on_c, 1, 51, 127
3, 174600, Note_on_c, 1, 51, 0
3, 174960, Note_on_c, 1, 51, 127
3, 175080, Note_on_c, 1, 51, 0
3, 175200, Note_on_c, 1, 51, 127
3, 175320, Note_on_c, 1, 51, 0
3, 175440, Note_on_c, 1, 51, 127
3, 175560, Note_on_c, 1, 51, 0
3, 175920, Note_on_c, 1, 51, 127
3, 176040, Note_on_c, 1, 51, 0
3, 176040, Note_on_c, 1, 51, 127
3, 176160, Note_on_c, 1, 51, 0
3, 176160, Note_on_c, 1, 51, 127
3, 176280, Note_on_c, 1, 51, 0
3, 176400, Note_on_c, 1, 51, 127
3, 176520, Note_on_c, 1, 51, 0
3, 176640, Note_on_c, 1, 54, 127
3, 177000, Note_on_c, 1, 54, 0
3, 177120, Note_on_c, 1, 51, 127
3, 177360, Note_on_c, 1, 51, 0
3, 177360, Note_on_c, 1, 51, 127
3, 177840, Note_on_c, 1, 51, 0
3, 177840, Note_on_c, 1, 51, 127
3, 177960, Note_on_c, 1, 51, 0
3, 177960, Note_on_c, 1, 51, 127
3, 178080, Note_on_c, 1, 51, 0
3, 178080, Note_on_c, 1, 51, 127
3, 178320, Note_on_c, 1, 51, 0
3, 178320, Note_on_c, 1, 51, 127
3, 178800, Note_on_c, 1, 51, 0
3, 178800, Note_on_c, 1, 51, 127
3, 179040, Note_on_c, 1, 51, 0
3, 179040, Note_on_c, 1, 51, 127
3, 179280, Note_on_c, 1, 51, 0
3, 179280, Note_on_c, 1, 51, 127
3, 179760, Note_on_c, 1, 51, 0
3, 179760, Note_on_c, 1, 51, 127
3, 179880, Note_on_c, 1, 51, 0
3, 179880, Note_on_c, 1, 51, 127
3, 180000, Note_on_c, 1, 51, 0
3, 180000, Note_on_c, 1, 51, 127
3, 180240, Note_on_c, 1, 51, 0
3, 180240, Note_on_c, 1, 51, 127
3, 180480, Note_on_c, 1, 51, 0
3, 180480, Note_on_c, 1, 54, 127
3, 180960, Note_on_c, 1, 51, 127
3, 180960, Note_on_c, 1, 54, 0
3, 181200, Note_on_c, 1, 51, 0
3, 181200, Note_on_c, 1, 51, 127
3, 181680, Note_on_c, 1, 51, 0
3, 181680, Note_on_c, 1, 51, 127
3, 181800, Note_on_c, 1, 51, 0
3, 181800, Note_on_c, 1, 51, 127
3, 181920, Note_on_c, 1, 51, 0
3, 181920, Note_on_c, 1, 51, 127
3, 182160, Note_on_c, 1, 51, 0
3, 182160, Note_on_c, 1, 51, 127
3, 182640, Note_on_c, 1, 51, 0
3, 182640, Note_on_c, 1, 51, 127
3, 182880, Note_on_c, 1, 51, 0
3, 182880, Note_on_c, 1, 51, 127
3, 183120, Note_on_c, 1, 51, 0
3, 183120, Note_on_c, 1, 51, 127
3, 183600, Note_on_c, 1, 51, 0
3, 183600, Note_on_c, 1, 51, 127
3, 183720, Note_on_c, 1, 51, 0
3, 183720, Note_on_c, 1, 51, 127
3, 183840, Note_on_c, 1, 51, 0
3, 183840, Note_on_c, 1, 51, 127
3, 184080, Note_on_c, 1, 51, 0
3, 184080, Note_on_c, 1, 51, 127
3, 184320, Note_on_c, 1, 51, 0
3, 184320, Note_on_c, 1, 54, 127
3, 184800, Note_on_c, 1, 51, 127
3, 184800, Note_on_c, 1, 54, 0
3, 185040, Note_on_c, 1, 51, 0
3, 185040, Note_on_c, 1, 51, 127
3, 185520, Note_on_c, 1, 51, 0
3, 185520, Note_on_c, 1, 51, 127
3, 185640, Note_on_c, 1, 51, 0
3, 185640, Note_on_c, 1, 51, 127
3, 185760, Note_on_c, 1, 51, 0
3, 185760, Note_on_c, 1, 51, 127
3, 186000, Note_on_c, 1, 51, 0
3, 186000, Note_on_c, 1, 51, 127
3, 186480, Note_on_c, 1, 51, 0
3, 186480, Note_on_c, 1, 51, 127
3, 186720, Note_on_c, 1, 51, 0
3, 186720, Note_on_c, 1, 51, 127
3, 186960, Note_on_c, 1, 51, 0
3, 186960, Note_on_c, 1, 51, 127
3, 187440, Note_on_c, 1, 51, 0
3, 187440, Note_on_c, 1, 51, 127
3, 187560, Note_on_c, 1, 51, 0
3, 187560, Note_on_c, 1, 51, 127
3, 187680, Note_on_c, 1, 51, 0
3, 187680, Note_on_c, 1, 51, 127
3, 187920, Note_on_c, 1, 51, 0
3, 187920, Note_on_c, 1, 51, 127
3, 188160, Note_on_c, 1, 51, 0
3, 188160, Note_on_c, 1, 54, 127
3, 188640, Note_on_c, 1, 51, 127
3, 188640, Note_on_c, 1, 54, 0
3, 188880, Note_on_c, 1, 51, 0
3, 188880, Note_on_c, 1, 51, 127
3, 189360, Note_on_c, 1, 51, 0
3, 189360, Note_on_c, 1, 51, 127
3, 189480, Note_on_c, 1, 51, 0
3, 189480, Note_on_c, 1, 51, 127
3, 189600, Note_on_c, 1, 51, 0
3, 189600, Note_on_c, 1, 51, 127
3, 189840, Note_on_c, 1, 51, 0
3, 189840, Note_on_c, 1, 51, 127
3, 190320, Note_on_c, 1, 51, 0
3, 190320, Note_on_c, 1, 51, 127
3, 190560, Note_on_c, 1, 51, 0
3, 190560, Note_on_c, 1, 51, 127
3, 190800, Note_on_c, 1, 51, 0
3, 190800, Note_on_c, 1, 51, 127
3, 191280, Note_on_c, 1, 51, 0
3, 191280, Note_on_c, 1, 51, 127
3, 191400, Note_on_c, 1, 51, 0
3, 191400, Note_on_c, 1, 51, 127
3, 191520, Note_on_c, 1, 51, 0
3, 191520, Note_on_c, 1, 51, 127
3, 191760, Note_on_c, 1, 51, 0
3, 191760, Note_on_c, 1, 51, 127
3, 192000, Note_on_c, 1, 51, 0
3, 192000, Note_on_c, 1, 54, 127
3, 192480, Note_on_c, 1, 51, 127
3, 192480, Note_on_c, 1, 54, 0
3, 192720, Note_on_c, 1, 51, 0
3, 192720, End_track
4, 0, Start_track
4, 0, Channel_prefix, 2
4, 0, Title_t, " Overdrive Gt.*merged"
4, 0, Instrument_name_t, "My Soundcard  3"
4, 0, Program_c, 2, 29
4, 0, Control_c, 2, 7, 100
4, 0, Control_c, 2, 10, 64
4, 54240, Note_on_c, 2, 34, 1
4, 54720, Note_on_c, 2, 34, 0
4, 54720, Note_on_c, 2, 34, 1
4, 54960, Note_on_c, 2, 34, 0
4, 54960, Note_on_c, 2, 41, 1
4, 55080, Note_on_c, 2, 41, 0
4, 55080, Note_on_c, 2, 41, 1
4, 55200, Note_on_c, 2, 41, 0
4, 55200, Note_on_c, 2, 41, 1
4, 55440, Note_on_c, 2, 41, 0
4, 55440, Note_on_c, 2, 42, 1
4, 55680, Note_on_c, 2, 41, 1
4, 55680, Note_on_c, 2, 42, 0
4, 55920, Note_on_c, 2, 39, 1
4, 55920, Note_on_c, 2, 41, 0
4, 56040, Note_on_c, 2, 39, 0
4, 56400, Note_on_c, 2, 37, 1
4, 56640, Note_on_c, 2, 37, 0
4, 56640, Note_on_c, 2, 37, 1
4, 56880, Note_on_c, 2, 35, 1
4, 56880, Note_on_c, 2, 37, 0
4, 57000, Note_on_c, 2, 35, 0
4, 57000, Note_on_c, 2, 35, 1
4, 57120, Note_on_c, 2, 35, 0
4, 57120, Note_on_c, 2, 35, 1
4, 57360, Note_on_c, 2, 35, 0
4, 57360, Note_on_c, 2, 35, 1
4, 57600, Note_on_c, 2, 35, 0
4, 57600, Note_on_c, 2, 35, 1
4, 57840, Note_on_c, 2, 35, 0
4, 57840, Note_on_c, 2, 37, 1
4, 57960, Note_on_c, 2, 37, 0
4, 58080, Note_on_c, 2, 34, 1
4, 58560, Note_on_c, 2, 34, 0
4, 58560, Note_on_c, 2, 34, 1
4, 58800, Note_on_c, 2, 34, 0
4, 58800, Note_on_c, 2, 41, 1
4, 58920, Note_on_c, 2, 41, 0
4, 58920, Note_on_c, 2, 41, 1
4, 59040, Note_on_c, 2, 41, 0
4, 59040, Note_on_c, 2, 41, 1
4, 59280, Note_on_c, 2, 41, 0
4, 59280, Note_on_c, 2, 42, 1
4, 59520, Note_on_c, 2, 41, 1
4, 59520, Note_on_c, 2, 42, 0
4, 59760, Note_on_c, 2, 39, 1
4, 59760, Note_on_c, 2, 41, 0
4, 59880, Note_on_c, 2, 39, 0
4, 60240, Note_on_c, 2, 37, 1
4, 60480, Note_on_c, 2, 37, 0
4, 60480, Note_on_c, 2, 37, 1
4, 60720, Note_on_c, 2, 35, 1
4, 60720, Note_on_c, 2, 37, 0
4, 60840, Note_on_c, 2, 35, 0
4, 60840, Note_on_c, 2, 35, 1
4, 60960, Note_on_c, 2, 35, 0
4, 60960, Note_on_c, 2, 35, 1
4, 61200, Note_on_c, 2, 35, 0
4, 61200, Note_on_c, 2, 35, 1
4, 61440, Note_on_c, 2, 35, 0
4, 61440, Note_on_c, 2, 35, 1
4, 61680, Note_on_c, 2, 35, 0
4, 61680, Note_on_c, 2, 37, 1
4, 61800, Note_on_c, 2, 37, 0
4, 61920, Note_on_c, 2, 34, 1
4, 62400, Note_on_c, 2, 34, 0
4, 62400, Note_on_c, 2, 34, 1
4, 62640, Note_on_c, 2, 34, 0
4, 62640, Note_on_c, 2, 41, 1
4, 62760, Note_on_c, 2, 41, 0
4, 62760, Note_on_c, 2, 41, 1
4, 62880, Note_on_c, 2, 41, 0
4, 62880, Note_on_c, 2, 41, 1
4, 63120, Note_on_c, 2, 41, 0
4, 63120, Note_on_c, 2, 42, 1
4, 63360, Note_on_c, 2, 41, 1
4, 63360, Note_on_c, 2, 42, 0
4, 63600, Note_on_c, 2, 39, 1
4, 63600, Note_on_c, 2, 41, 0
4, 63720, Note_on_c, 2, 39, 0
4, 64080, Note_on_c, 2, 37, 1
4, 64320, Note_on_c, 2, 37, 0
4, 64320, Note_on_c, 2, 37, 1
4, 64560, Note_on_c, 2, 35, 1
4, 64560, Note_on_c, 2, 37, 0
4, 64680, Note_on_c, 2, 35, 0
4, 64680, Note_on_c, 2, 35, 1
4, 64800, Note_on_c, 2, 35, 0
4, 64800, Note_on_c, 2, 35, 1
4, 65040, Note_on_c, 2, 35, 0
4, 65040, Note_on_c, 2, 35, 1
4, 65280, Note_on_c, 2, 35, 0
4, 65280, Note_on_c, 2, 35, 1
4, 65520, Note_on_c, 2, 35, 0
4, 65520, Note_on_c, 2, 37, 1
4, 65640, Note_on_c, 2, 37, 0
4, 65760, Note_on_c, 2, 34, 1
4, 66240, Note_on_c, 2, 34, 0
4, 66240, Note_on_c, 2, 34, 1
4, 66480, Note_on_c, 2, 34, 0
4, 66480, Note_on_c, 2, 41, 1
4, 66600, Note_on_c, 2, 41, 0
4, 66600, Note_on_c, 2, 41, 1
4, 66720, Note_on_c, 2, 41, 0
4, 66720, Note_on_c, 2, 41, 1
4, 66960, Note_on_c, 2, 41, 0
4, 66960, Note_on_c, 2, 42, 1
4, 67200, Note_on_c, 2, 41, 1
4, 67200, Note_on_c, 2, 42, 0
4, 67440, Note_on_c, 2, 39, 1
4, 67440, Note_on_c, 2, 41, 0
4, 67560, Note_on_c, 2, 39, 0
4, 67920, Note_on_c, 2, 37, 1
4, 68160, Note_on_c, 2, 37, 0
4, 68160, Note_on_c, 2, 37, 1
4, 68400, Note_on_c, 2, 35, 1
4, 68400, Note_on_c, 2, 37, 0
4, 68520, Note_on_c, 2, 35, 0
4, 68520, Note_on_c, 2, 35, 1
4, 68640, Note_on_c, 2, 35, 0
4, 68640, Note_on_c, 2, 35, 1
4, 68880, Note_on_c, 2, 35, 0
4, 68880, Note_on_c, 2, 35, 1
4, 69120, Note_on_c, 2, 35, 0
4, 69120, Note_on_c, 2, 35, 1
4, 69360, Note_on_c, 2, 35, 0
4, 69360, Note_on_c, 2, 37, 1
4, 69480, Note_on_c, 2, 37, 0
4, 100320, Note_on_c, 2, 34, 1
4, 100800, Note_on_c, 2, 34, 0
4, 100800, Note_on_c, 2, 34, 1
4, 101040, Note_on_c, 2, 34, 0
4, 101040, Note_on_c, 2, 41, 1
4, 101160, Note_on_c, 2, 41, 0
4, 101160, Note_on_c, 2, 41, 1
4, 101280, Note_on_c, 2, 41, 0
4, 101280, Note_on_c, 2, 41, 1
4, 101520, Note_on_c, 2, 41, 0
4, 101520, Note_on_c, 2, 42, 1
4, 101760, Note_on_c, 2, 41, 1
4, 101760, Note_on_c, 2, 42, 0
4, 102000, Note_on_c, 2, 39, 1
4, 102000, Note_on_c, 2, 41, 0
4, 102120, Note_on_c, 2, 39, 0
4, 102480, Note_on_c, 2, 37, 1
4, 102720, Note_on_c, 2, 37, 0
4, 102720, Note_on_c, 2, 37, 1
4, 102960, Note_on_c, 2, 35, 1
4, 102960, Note_on_c, 2, 37, 0
4, 103080, Note_on_c, 2, 35, 0
4, 103080, Note_on_c, 2, 35, 1
4, 103200, Note_on_c, 2, 35, 0
4, 103200, Note_on_c, 2, 35, 1
4, 103440, Note_on_c, 2, 35, 0
4, 103440, Note_on_c, 2, 35, 1
4, 103680, Note_on_c, 2, 35, 0
4, 103680, Note_on_c, 2, 35, 1
4, 103920, Note_on_c, 2, 35, 0
4, 103920, Note_on_c, 2, 37, 1
4, 104040, Note_on_c, 2, 37, 0
4, 104160, Note_on_c, 2, 34, 1
4, 104640, Note_on_c, 2, 34, 0
4, 104640, Note_on_c, 2, 34, 1
4, 104880, Note_on_c, 2, 34, 0
4, 104880, Note_on_c, 2, 41, 1
4, 105000, Note_on_c, 2, 41, 0
4, 105000, Note_on_c, 2, 41, 1
4, 105120, Note_on_c, 2, 41, 0
4, 105120, Note_on_c, 2, 41, 1
4, 105360, Note_on_c, 2, 41, 0
4, 105360, Note_on_c, 2, 42, 1
4, 105600, Note_on_c, 2, 41, 1
4, 105600, Note_on_c, 2, 42, 0
4, 105840, Note_on_c, 2, 39, 1
4, 105840, Note_on_c, 2, 41, 0
4, 105960, Note_on_c, 2, 39, 0
4, 106320, Note_on_c, 2, 37, 1
4, 106560, Note_on_c, 2, 37, 0
4, 106560, Note_on_c, 2, 37, 1
4, 106800, Note_on_c, 2, 35, 1
4, 106800, Note_on_c, 2, 37, 0
4, 106920, Note_on_c, 2, 35, 0
4, 106920, Note_on_c, 2, 35, 1
4, 107040, Note_on_c, 2, 35, 0
4, 107040, Note_on_c, 2, 35, 1
4, 107280, Note_on_c, 2, 35, 0
4, 107280, Note_on_c, 2, 35, 1
4, 107520, Note_on_c, 2, 35, 0
4, 107520, Note_on_c, 2, 35, 1
4, 107760, Note_on_c, 2, 35, 0
4, 107760, Note_on_c, 2, 37, 1
4, 107880, Note_on_c, 2, 37, 0
4, 108000, Note_on_c, 2, 34, 1
4, 108480, Note_on_c, 2, 34, 0
4, 108480, Note_on_c, 2, 34, 1
4, 108720, Note_on_c, 2, 34, 0
4, 108720, Note_on_c, 2, 41, 1
4, 108840, Note_on_c, 2, 41, 0
4, 108840, Note_on_c, 2, 41, 1
4, 108960, Note_on_c, 2, 41, 0
4, 108960, Note_on_c, 2, 41, 1
4, 109200, Note_on_c, 2, 41, 0
4, 109200, Note_on_c, 2, 42, 1
4, 109440, Note_on_c, 2, 41, 1
4, 109440, Note_on_c, 2, 42, 0
4, 109680, Note_on_c, 2, 39, 1
4, 109680, Note_on_c, 2, 41, 0
4, 109800, Note_on_c, 2, 39, 0
4, 110160, Note_on_c, 2, 37, 1
4, 110400, Note_on_c, 2, 37, 0
4, 110400, Note_on_c, 2, 37, 1
4, 110640, Note_on_c, 2, 35, 1
4, 110640, Note_on_c, 2, 37, 0
4, 110760, Note_on_c, 2, 35, 0
4, 110760, Note_on_c, 2, 35, 1
4, 110880, Note_on_c, 2, 35, 0
4, 110880, Note_on_c, 2, 35, 1
4, 111120, Note_on_c, 2, 35, 0
4, 111120, Note_on_c, 2, 35, 1
4, 111360, Note_on_c, 2, 35, 0
4, 111360, Note_on_c, 2, 35, 1
4, 111600, Note_on_c, 2, 35, 0
4, 111600, Note_on_c, 2, 37, 1
4, 111720, Note_on_c, 2, 37, 0
4, 111840, Note_on_c, 2, 34, 1
4, 112320, Note_on_c, 2, 34, 0
4, 112320, Note_on_c, 2, 34, 1
4, 112560, Note_on_c, 2, 34, 0
4, 112560, Note_on_c, 2, 41, 1
4, 112680, Note_on_c, 2, 41, 0
4, 112680, Note_on_c, 2, 41, 1
4, 112800, Note_on_c, 2, 41, 0
4, 112800, Note_on_c, 2, 41, 1
4, 113040, Note_on_c, 2, 41, 0
4, 113040, Note_on_c, 2, 42, 1
4, 113280, Note_on_c, 2, 41, 1
4, 113280, Note_on_c, 2, 42, 0
4, 113520, Note_on_c, 2, 39, 1
4, 113520, Note_on_c, 2, 41, 0
4, 113640, Note_on_c, 2, 39, 0
4, 114000, Note_on_c, 2, 37, 1
4, 114240, Note_on_c, 2, 37, 0
4, 114240, Note_on_c, 2, 37, 1
4, 114480, Note_on_c, 2, 35, 1
4, 114480, Note_on_c, 2, 37, 0
4, 114600, Note_on_c, 2, 35, 0
4, 114600, Note_on_c, 2, 35, 1
4, 114720, Note_on_c, 2, 35, 0
4, 114720, Note_on_c, 2, 35, 1
4, 114960, Note_on_c, 2, 35, 0
4, 114960, Note_on_c, 2, 35, 1
4, 115200, Note_on_c, 2, 35, 0
4, 115200, Note_on_c, 2, 35, 1
4, 115440, Note_on_c, 2, 35, 0
4, 115440, Note_on_c, 2, 37, 1
4, 115560, Note_on_c, 2, 37, 0
4, 131040, Note_on_c, 2, 34, 1
4, 131520, Note_on_c, 2, 34, 0
4, 131520, Note_on_c, 2, 34, 1
4, 131760, Note_on_c, 2, 34, 0
4, 131760, Note_on_c, 2, 41, 1
4, 131880, Note_on_c, 2, 41, 0
4, 131880, Note_on_c, 2, 41, 1
4, 132000, Note_on_c, 2, 41, 0
4, 132000, Note_on_c, 2, 41, 1
4, 132240, Note_on_c, 2, 41, 0
4, 132240, Note_on_c, 2, 42, 1
4, 132480, Note_on_c, 2, 41, 1
4, 132480, Note_on_c, 2, 42, 0
4, 132720, Note_on_c, 2, 39, 1
4, 132720, Note_on_c, 2, 41, 0
4, 132840, Note_on_c, 2, 39, 0
4, 133200, Note_on_c, 2, 37, 1
4, 133440, Note_on_c, 2, 37, 0
4, 133440, Note_on_c, 2, 37, 1
4, 133680, Note_on_c, 2, 35, 1
4, 133680, Note_on_c, 2, 37, 0
4, 133800, Note_on_c, 2, 35, 0
4, 133800, Note_on_c, 2, 35, 1
4, 133920, Note_on_c, 2, 35, 0
4, 133920, Note_on_c, 2, 35, 1
4, 134160, Note_on_c, 2, 35, 0
4, 134160, Note_on_c, 2, 35, 1
4, 134400, Note_on_c, 2, 35, 0
4, 134400, Note_on_c, 2, 35, 1
4, 134640, Note_on_c, 2, 35, 0
4, 134640, Note_on_c, 2, 37, 1
4, 134760, Note_on_c, 2, 37, 0
4, 134880, Note_on_c, 2, 34, 1
4, 135360, Note_on_c, 2, 34, 0
4, 135360, Note_on_c, 2, 34, 1
4, 135600, Note_on_c, 2, 34, 0
4, 135600, Note_on_c, 2, 41, 1
4, 135720, Note_on_c, 2, 41, 0
4, 135720, Note_on_c, 2, 41, 1
4, 135840, Note_on_c, 2, 41, 0
4, 135840, Note_on_c, 2, 41, 1
4, 136080, Note_on_c, 2, 41, 0
4, 136080, Note_on_c, 2, 42, 1
4, 136320, Note_on_c, 2, 41, 1
4, 136320, Note_on_c, 2, 42, 0
4, 136560, Note_on_c, 2, 39, 1
4, 136560, Note_on_c, 2, 41, 0
4, 136680, Note_on_c, 2, 39, 0
4, 137040, Note_on_c, 2, 37, 1
4, 137280, Note_on_c, 2, 37, 0
4, 137280, Note_on_c, 2, 37, 1
4, 137520, Note_on_c, 2, 35, 1
4, 137520, Note_on_c, 2, 37, 0
4, 137640, Note_on_c, 2, 35, 0
4, 137640, Note_on_c, 2, 35, 1
4, 137760, Note_on_c, 2, 35, 0
4, 137760, Note_on_c, 2, 35, 1
4, 138000, Note_on_c, 2, 35, 0
4, 138000, Note_on_c, 2, 35, 1
4, 138240, Note_on_c, 2, 35, 0
4, 138240, Note_on_c, 2, 35, 1
4, 138480, Note_on_c, 2, 35, 0
4, 138480, Note_on_c, 2, 37, 1
4, 138600, Note_on_c, 2, 37, 0
4, 138720, Note_on_c, 2, 34, 1
4, 139200, Note_on_c, 2, 34, 0
4, 139200, Note_on_c, 2, 34, 1
4, 139440, Note_on_c, 2, 34, 0
4, 139440, Note_on_c, 2, 41, 1
4, 139560, Note_on_c, 2, 41, 0
4, 139560, Note_on_c, 2, 41, 1
4, 139680, Note_on_c, 2, 41, 0
4, 139680, Note_on_c, 2, 41, 1
4, 139920, Note_on_c, 2, 41, 0
4, 139920, Note_on_c, 2, 42, 1
4, 140160, Note_on_c, 2, 41, 1
4, 140160, Note_on_c, 2, 42, 0
4, 140400, Note_on_c, 2, 39, 1
4, 140400, Note_on_c, 2, 41, 0
4, 140520, Note_on_c, 2, 39, 0
4, 140880, Note_on_c, 2, 37, 1
4, 141120, Note_on_c, 2, 37, 0
4, 141120, Note_on_c, 2, 37, 1
4, 141360, Note_on_c, 2, 35, 1
4, 141360, Note_on_c, 2, 37, 0
4, 141480, Note_on_c, 2, 35, 0
4, 141480, Note_on_c, 2, 35, 1
4, 141600, Note_on_c, 2, 35, 0
4, 141600, Note_on_c, 2, 35, 1
4, 141840, Note_on_c, 2, 35, 0
4, 141840, Note_on_c, 2, 35, 1
4, 142080, Note_on_c, 2, 35, 0
4, 142080, Note_on_c, 2, 35, 1
4, 142320, Note_on_c, 2, 35, 0
4, 142320, Note_on_c, 2, 37, 1
4, 142440, Note_on_c, 2, 37, 0
4, 142560, Note_on_c, 2, 34, 1
4, 143040, Note_on_c, 2, 34, 0
4, 143040, Note_on_c, 2, 34, 1
4, 143280, Note_on_c, 2, 34, 0
4, 143280, Note_on_c, 2, 41, 1
4, 143400, Note_on_c, 2, 41, 0
4, 143400, Note_on_c, 2, 41, 1
4, 143520, Note_on_c, 2, 41, 0
4, 143520, Note_on_c, 2, 41, 1
4, 143760, Note_on_c, 2, 41, 0
4, 143760, Note_on_c, 2, 42, 1
4, 144000, Note_on_c, 2, 41, 1
4, 144000, Note_on_c, 2, 42, 0
4, 144240, Note_on_c, 2, 39, 1
4, 144240, Note_on_c, 2, 41, 0
4, 144360, Note_on_c, 2, 39, 0
4, 144720, Note_on_c, 2, 37, 1
4, 144960, Note_on_c, 2, 37, 0
4, 144960, Note_on_c, 2, 37, 1
4, 145200, Note_on_c, 2, 35, 1
4, 145200, Note_on_c, 2, 37, 0
4, 145320, Note_on_c, 2, 35, 0
4, 145320, Note_on_c, 2, 35, 1
4, 145440, Note_on_c, 2, 35, 0
4, 145440, Note_on_c, 2, 35, 1
4, 145680, Note_on_c, 2, 35, 0
4, 145680, Note_on_c, 2, 35, 1
4, 145920, Note_on_c, 2, 35, 0
4, 145920, Note_on_c, 2, 35, 1
4, 146160, Note_on_c, 2, 35, 0
4, 146160, Note_on_c, 2, 37, 1
4, 146280, Note_on_c, 2, 37, 0
4, 146400, Note_on_c, 2, 34, 1
4, 146880, Note_on_c, 2, 34, 0
4, 146880, Note_on_c, 2, 34, 1
4, 147120, Note_on_c, 2, 34, 0
4, 147120, Note_on_c, 2, 41, 1
4, 147240, Note_on_c, 2, 41, 0
4, 147240, Note_on_c, 2, 41, 1
4, 147360, Note_on_c, 2, 41, 0
4, 147360, Note_on_c, 2, 41, 1
4, 147600, Note_on_c, 2, 41, 0
4, 147600, Note_on_c, 2, 42, 1
4, 147840, Note_on_c, 2, 41, 1
4, 147840, Note_on_c, 2, 42, 0
4, 148080, Note_on_c, 2, 39, 1
4, 148080, Note_on_c, 2, 41, 0
4, 148200, Note_on_c, 2, 39, 0
4, 148560, Note_on_c, 2, 37, 1
4, 148800, Note_on_c, 2, 37, 0
4, 148800, Note_on_c, 2, 37, 1
4, 149040, Note_on_c, 2, 35, 1
4, 149040, Note_on_c, 2, 37, 0
4, 149160, Note_on_c, 2, 35, 0
4, 149160, Note_on_c, 2, 35, 1
4, 149280, Note_on_c, 2, 35, 0
4, 149280, Note_on_c, 2, 35, 1
4, 149520, Note_on_c, 2, 35, 0
4, 149520, Note_on_c, 2, 35, 1
4, 149760, Note_on_c, 2, 35, 0
4, 149760, Note_on_c, 2, 35, 1
4, 150000, Note_on_c, 2, 35, 0
4, 150000, Note_on_c, 2, 37, 1
4, 150120, Note_on_c, 2, 37, 0
4, 150240, Note_on_c, 2, 34, 1
4, 150720, Note_on_c, 2, 34, 0
4, 150720, Note_on_c, 2, 34, 1
4, 150960, Note_on_c, 2, 34, 0
4, 150960, Note_on_c, 2, 41, 1
4, 151080, Note_on_c, 2, 41, 0
4, 151080, Note_on_c, 2, 41, 1
4, 151200, Note_on_c, 2, 41, 0
4, 151200, Note_on_c, 2, 41, 1
4, 151440, Note_on_c, 2, 41, 0
4, 151440, Note_on_c, 2, 42, 1
4, 151680, Note_on_c, 2, 41, 1
4, 151680, Note_on_c, 2, 42, 0
4, 151920, Note_on_c, 2, 39, 1
4, 151920, Note_on_c, 2, 41, 0
4, 152040, Note_on_c, 2, 39, 0
4, 152400, Note_on_c, 2, 37, 1
4, 152640, Note_on_c, 2, 37, 0
4, 152640, Note_on_c, 2, 37, 1
4, 152880, Note_on_c, 2, 35, 1
4, 152880, Note_on_c, 2, 37, 0
4, 153000, Note_on_c, 2, 35, 0
4, 153000, Note_on_c, 2, 35, 1
4, 153120, Note_on_c, 2, 35, 0
4, 153120, Note_on_c, 2, 35, 1
4, 153360, Note_on_c, 2, 35, 0
4, 153360, Note_on_c, 2, 35, 1
4, 153600, Note_on_c, 2, 35, 0
4, 153600, Note_on_c, 2, 35, 1
4, 153840, Note_on_c, 2, 35, 0
4, 153840, Note_on_c, 2, 37, 1
4, 153960, Note_on_c, 2, 37, 0
4, 154080, Note_on_c, 2, 34, 1
4, 154560, Note_on_c, 2, 34, 0
4, 154560, Note_on_c, 2, 34, 1
4, 154800, Note_on_c, 2, 34, 0
4, 154800, Note_on_c, 2, 41, 1
4, 154920, Note_on_c, 2, 41, 0
4, 154920, Note_on_c, 2, 41, 1
4, 155040, Note_on_c, 2, 41, 0
4, 155040, Note_on_c, 2, 41, 1
4, 155280, Note_on_c, 2, 41, 0
4, 155280, Note_on_c, 2, 42, 1
4, 155520, Note_on_c, 2, 41, 1
4, 155520, Note_on_c, 2, 42, 0
4, 155760, Note_on_c, 2, 39, 1
4, 155760, Note_on_c, 2, 41, 0
4, 155880, Note_on_c, 2, 39, 0
4, 156240, Note_on_c, 2, 37, 1
4, 156480, Note_on_c, 2, 37, 0
4, 156480, Note_on_c, 2, 37, 1
4, 156720, Note_on_c, 2, 35, 1
4, 156720, Note_on_c, 2, 37, 0
4, 156840, Note_on_c, 2, 35, 0
4, 156840, Note_on_c, 2, 35, 1
4, 156960, Note_on_c, 2, 35, 0
4, 156960, Note_on_c, 2, 35, 1
4, 157200, Note_on_c, 2, 35, 0
4, 157200, Note_on_c, 2, 35, 1
4, 157440, Note_on_c, 2, 35, 0
4, 157440, Note_on_c, 2, 35, 1
4, 157680, Note_on_c, 2, 35, 0
4, 157680, Note_on_c, 2, 37, 1
4, 157800, Note_on_c, 2, 37, 0
4, 157920, Note_on_c, 2, 34, 1
4, 158400, Note_on_c, 2, 34, 0
4, 158400, Note_on_c, 2, 34, 1
4, 158640, Note_on_c, 2, 34, 0
4, 158640, Note_on_c, 2, 41, 1
4, 158760, Note_on_c, 2, 41, 0
4, 158760, Note_on_c, 2, 41, 1
4, 158880, Note_on_c, 2, 41, 0
4, 158880, Note_on_c, 2, 41, 1
4, 159120, Note_on_c, 2, 41, 0
4, 159120, Note_on_c, 2, 42, 1
4, 159360, Note_on_c, 2, 41, 1
4, 159360, Note_on_c, 2, 42, 0
4, 159600, Note_on_c, 2, 39, 1
4, 159600, Note_on_c, 2, 41, 0
4, 159720, Note_on_c, 2, 39, 0
4, 160080, Note_on_c, 2, 37, 1
4, 160320, Note_on_c, 2, 37, 0
4, 160320, Note_on_c, 2, 37, 1
4, 160560, Note_on_c, 2, 35, 1
4, 160560, Note_on_c, 2, 37, 0
4, 160680, Note_on_c, 2, 35, 0
4, 160680, Note_on_c, 2, 35, 1
4, 160800, Note_on_c, 2, 35, 0
4, 160800, Note_on_c, 2, 35, 1
4, 161040, Note_on_c, 2, 35, 0
4, 161040, Note_on_c, 2, 35, 1
4, 161280, Note_on_c, 2, 35, 0
4, 161280, Note_on_c, 2, 35, 1
4, 161520, Note_on_c, 2, 35, 0
4, 161520, Note_on_c, 2, 37, 1
4, 161640, Note_on_c, 2, 37, 0
4, 177120, Note_on_c, 2, 51, 127
4, 177360, Note_on_c, 2, 51, 0
4, 177360, Note_on_c, 2, 51, 127
4, 177840, Note_on_c, 2, 51, 0
4, 177840, Note_on_c, 2, 51, 127
4, 177960, Note_on_c, 2, 51, 0
4, 177960, Note_on_c, 2, 51, 127
4, 178080, Note_on_c, 2, 51, 0
4, 178080, Note_on_c, 2, 51, 127
4, 178320, Note_on_c, 2, 51, 0
4, 178320, Note_on_c, 2, 51, 127
4, 178800, Note_on_c, 2, 51, 0
4, 178800, Note_on_c, 2, 51, 127
4, 179040, Note_on_c, 2, 51, 0
4, 179040, Note_on_c, 2, 51, 127
4, 179280, Note_on_c, 2, 51, 0
4, 179280, Note_on_c, 2, 51, 127
4, 179760, Note_on_c, 2, 51, 0
4, 179760, Note_on_c, 2, 51, 127
4, 179880, Note_on_c, 2, 51, 0
4, 179880, Note_on_c, 2, 51, 127
4, 180000, Note_on_c, 2, 51, 0
4, 180000, Note_on_c, 2, 51, 127
4, 180240, Note_on_c, 2, 51, 0
4, 180240, Note_on_c, 2, 51, 127
4, 180480, Note_on_c, 2, 51, 0
4, 180480, Note_on_c, 2, 54, 127
4, 180960, Note_on_c, 2, 51, 127
4, 180960, Note_on_c, 2, 54, 0
4, 181200, Note_on_c, 2, 51, 0
4, 181200, Note_on_c, 2, 51, 127
4, 181680, Note_on_c, 2, 51, 0
4, 181680, Note_on_c, 2, 51, 127
4, 181800, Note_on_c, 2, 51, 0
4, 181800, Note_on_c, 2, 51, 127
4, 181920, Note_on_c, 2, 51, 0
4, 181920, Note_on_c, 2, 51, 127
4, 182160, Note_on_c, 2, 51, 0
4, 182160, Note_on_c, 2, 51, 127
4, 182640, Note_on_c, 2, 51, 0
4, 182640, Note_on_c, 2, 51, 127
4, 182880, Note_on_c, 2, 51, 0
4, 182880, Note_on_c, 2, 51, 127
4, 183120, Note_on_c, 2, 51, 0
4, 183120, Note_on_c, 2, 51, 127
4, 183600, Note_on_c, 2, 51, 0
4, 183600, Note_on_c, 2, 51, 127
4, 183720, Note_on_c, 2, 51, 0
4, 183720, Note_on_c, 2, 51, 127
4, 183840, Note_on_c, 2, 51, 0
4, 183840, Note_on_c, 2, 51, 127
4, 184080, Note_on_c, 2, 51, 0
4, 184080, Note_on_c, 2, 51, 127
4, 184320, Note_on_c, 2, 51, 0
4, 184320, Note_on_c, 2, 54, 127
4, 184800, Note_on_c, 2, 51, 127
4, 184800, Note_on_c, 2, 54, 0
4, 185040, Note_on_c, 2, 51, 0
4, 185040, Note_on_c, 2, 51, 127
4, 185520, Note_on_c, 2, 51, 0
4, 185520, Note_on_c, 2, 51, 127
4, 185640, Note_on_c, 2, 51, 0
4, 185640, Note_on_c, 2, 51, 127
4, 185760, Note_on_c, 2, 51, 0
4, 185760, Note_on_c, 2, 51, 127
4, 186000, Note_on_c, 2, 51, 0
4, 186000, Note_on_c, 2, 51, 127
4, 186480, Note_on_c, 2, 51, 0
4, 186480, Note_on_c, 2, 51, 127
4, 186720, Note_on_c, 2, 51, 0
4, 186720, Note_on_c, 2, 51, 127
4, 186960, Note_on_c, 2, 51, 0
4, 186960, Note_on_c, 2, 51, 127
4, 187440, Note_on_c, 2, 51, 0
4, 187440, Note_on_c, 2, 51, 127
4, 187560, Note_on_c, 2, 51, 0
4, 187560, Note_on_c, 2, 51, 127
4, 187680, Note_on_c, 2, 51, 0
4, 187680, Note_on_c, 2, 51, 127
4, 187920, Note_on_c, 2, 51, 0
4, 187920, Note_on_c, 2, 51, 127
4, 188160, Note_on_c, 2, 51, 0
4, 188160, Note_on_c, 2, 54, 127
4, 188640, Note_on_c, 2, 51, 127
4, 188640, Note_on_c, 2, 54, 0
4, 188880, Note_on_c, 2, 51, 0
4, 188880, Note_on_c, 2, 51, 127
4, 189360, Note_on_c, 2, 51, 0
4, 189360, Note_on_c, 2, 51, 127
4, 189480, Note_on_c, 2, 51, 0
4, 189480, Note_on_c, 2, 51, 127
4, 189600, Note_on_c, 2, 51, 0
4, 189600, Note_on_c, 2, 51, 127
4, 189840, Note_on_c, 2, 51, 0
4, 189840, Note_on_c, 2, 51, 127
4, 190320, Note_on_c, 2, 51, 0
4, 190320, Note_on_c, 2, 51, 127
4, 190560, Note_on_c, 2, 51, 0
4, 190560, Note_on_c, 2, 51, 127
4, 190800, Note_on_c, 2, 51, 0
4, 190800, Note_on_c, 2, 51, 127
4, 191280, Note_on_c, 2, 51, 0
4, 191280, Note_on_c, 2, 51, 127
4, 191400, Note_on_c, 2, 51, 0
4, 191400, Note_on_c, 2, 51, 127
4, 191520, Note_on_c, 2, 51, 0
4, 191520, Note_on_c, 2, 51, 127
4, 191760, Note_on_c, 2, 51, 0
4, 191760, Note_on_c, 2, 51, 127
4, 192000, Note_on_c, 2, 51, 0
4, 192000, Note_on_c, 2, 54, 127
4, 192480, Note_on_c, 2, 51, 127
4, 192480, Note_on_c, 2, 54, 0
4, 192720, Note_on_c, 2, 51, 0
4, 192720, End_track
5, 0, Start_track
5, 0, Channel_prefix, 3
5, 0, Title_t, " E. Piano1 *merged"
5, 0, Instrument_name_t, "My Soundcard  4"
5, 0, Program_c, 3, 4
5, 0, Control_c, 3, 7, 100
5, 0, Control_c, 3, 10, 64
5, 54240, Note_on_c, 3, 39, 127
5, 54720, Note_on_c, 3, 39, 0
5, 54720, Note_on_c, 3, 39, 127
5, 54960, Note_on_c, 3, 39, 0
5, 54960, Note_on_c, 3, 46, 127
5, 55080, Note_on_c, 3, 46, 0
5, 55080, Note_on_c, 3, 46, 127
5, 55200, Note_on_c, 3, 46, 0
5, 55200, Note_on_c, 3, 46, 127
5, 55440, Note_on_c, 3, 46, 0
5, 55440, Note_on_c, 3, 47, 127
5, 55680, Note_on_c, 3, 46, 127
5, 55680, Note_on_c, 3, 47, 0
5, 55920, Note_on_c, 3, 44, 127
5, 55920, Note_on_c, 3, 46, 0
5, 56040, Note_on_c, 3, 44, 0
5, 56400, Note_on_c, 3, 42, 127
5, 56640, Note_on_c, 3, 42, 0
5, 56640, Note_on_c, 3, 42, 127
5, 56880, Note_on_c, 3, 40, 127
5, 56880, Note_on_c, 3, 42, 0
5, 57000, Note_on_c, 3, 40, 0
5, 57000, Note_on_c, 3, 40, 127
5, 57120, Note_on_c, 3, 40, 0
5, 57120, Note_on_c, 3, 40, 127
5, 57360, Note_on_c, 3, 40, 0
5, 57360, Note_on_c, 3, 40, 127
5, 57600, Note_on_c, 3, 40, 0
5, 57600, Note_on_c, 3, 40, 127
5, 57840, Note_on_c, 3, 40, 0
5, 57840, Note_on_c, 3, 42, 127
5, 57960, Note_on_c, 3, 42, 0
5, 58080, Note_on_c, 3, 39, 127
5, 58560, Note_on_c, 3, 39, 0
5, 58560, Note_on_c, 3, 39, 127
5, 58800, Note_on_c, 3, 39, 0
5, 58800, Note_on_c, 3, 46, 127
5, 58920, Note_on_c, 3, 46, 0
5, 58920, Note_on_c, 3, 46, 127
5, 59040, Note_on_c, 3, 46, 0
5, 59040, Note_on_c, 3, 46, 127
5, 59280, Note_on_c, 3, 46, 0
5, 59280, Note_on_c, 3, 47, 127
5, 59520, Note_on_c, 3, 46, 127
5, 59520, Note_on_c, 3, 47, 0
5, 59760, Note_on_c, 3, 44, 127
5, 59760, Note_on_c, 3, 46, 0
5, 59880, Note_on_c, 3, 44, 0
5, 60240, Note_on_c, 3, 42, 127
5, 60480, Note_on_c, 3, 42, 0
5, 60480, Note_on_c, 3, 42, 127
5, 60720, Note_on_c, 3, 40, 127
5, 60720, Note_on_c, 3, 42, 0
5, 60840, Note_on_c, 3, 40, 0
5, 60840, Note_on_c, 3, 40, 127
5, 60960, Note_on_c, 3, 40, 0
5, 60960, Note_on_c, 3, 40, 127
5, 61200, Note_on_c, 3, 40, 0
5, 61200, Note_on_c, 3, 40, 127
5, 61440, Note_on_c, 3, 40, 0
5, 61440, Note_on_c, 3, 40, 127
5, 61680, Note_on_c, 3, 40, 0
5, 61680, Note_on_c, 3, 42, 127
5, 61800, Note_on_c, 3, 42, 0
5, 61920, Note_on_c, 3, 39, 127
5, 62400, Note_on_c, 3, 39, 0
5, 62400, Note_on_c, 3, 39, 127
5, 62640, Note_on_c, 3, 39, 0
5, 62640, Note_on_c, 3, 46, 127
5, 62760, Note_on_c, 3, 46, 0
5, 62760, Note_on_c, 3, 46, 127
5, 62880, Note_on_c, 3, 46, 0
5, 62880, Note_on_c, 3, 46, 127
5, 63120, Note_on_c, 3, 46, 0
5, 63120, Note_on_c, 3, 47, 127
5, 63360, Note_on_c, 3, 46, 127
5, 63360, Note_on_c, 3, 47, 0
5, 63600, Note_on_c, 3, 44, 127
5, 63600, Note_on_c, 3, 46, 0
5, 63720, Note_on_c, 3, 44, 0
5, 64080, Note_on_c, 3, 42, 127
5, 64320, Note_on_c, 3, 42, 0
5, 64320, Note_on_c, 3, 42, 127
5, 64560, Note_on_c, 3, 40, 127
5, 64560, Note_on_c, 3, 42, 0
5, 64680, Note_on_c, 3, 40, 0
5, 64680, Note_on_c, 3, 40, 127
5, 64800, Note_on_c, 3, 40, 0
5, 64800, Note_on_c, 3, 40, 127
5, 65040, Note_on_c, 3, 40, 0
5, 65040, Note_on_c, 3, 40, 127
5, 65280, Note_on_c, 3, 40, 0
5, 65280, Note_on_c, 3, 40, 127
5, 65520, Note_on_c, 3, 40, 0
5, 65520, Note_on_c, 3, 42, 127
5, 65640, Note_on_c, 3, 42, 0
5, 65760, Note_on_c, 3, 39, 127
5, 66240, Note_on_c, 3, 39, 0
5, 66240, Note_on_c, 3, 39, 127
5, 66480, Note_on_c, 3, 39, 0
5, 66480, Note_on_c, 3, 46, 127
5, 66600, Note_on_c, 3, 46, 0
5, 66600, Note_on_c, 3, 46, 127
5, 66720, Note_on_c, 3, 46, 0
5, 66720, Note_on_c, 3, 46, 127
5, 66960, Note_on_c, 3, 46, 0
5, 66960, Note_on_c, 3, 47, 127
5, 67200, Note_on_c, 3, 46, 127
5, 67200, Note_on_c, 3, 47, 0
5, 67440, Note_on_c, 3, 44, 127
5, 67440, Note_on_c, 3, 46, 0
5, 67560, Note_on_c, 3, 44, 0
5, 67920, Note_on_c, 3, 42, 127
5, 68160, Note_on_c, 3, 42, 0
5, 68160, Note_on_c, 3, 42, 127
5, 68400, Note_on_c, 3, 40, 127
5, 68400, Note_on_c, 3, 42, 0
5, 68520, Note_on_c, 3, 40, 0
5, 68520, Note_on_c, 3, 40, 127
5, 68640, Note_on_c, 3, 40, 0
5, 68640, Note_on_c, 3, 40, 127
5, 68880, Note_on_c, 3, 40, 0
5, 68880, Note_on_c, 3, 40, 127
5, 69120, Note_on_c, 3, 40, 0
5, 69120, Note_on_c, 3, 40, 127
5, 69360, Note_on_c, 3, 40, 0
5, 69360, Note_on_c, 3, 42, 127
5, 69480, Note_on_c, 3, 42, 0
5, 100320, Note_on_c, 3, 39, 127
5, 100800, Note_on_c, 3, 39, 0
5, 100800, Note_on_c, 3, 39, 127
5, 101040, Note_on_c, 3, 39, 0
5, 101040, Note_on_c, 3, 46, 127
5, 101160, Note_on_c, 3, 46, 0
5, 101160, Note_on_c, 3, 46, 127
5, 101280, Note_on_c, 3, 46, 0
5, 101280, Note_on_c, 3, 46, 127
5, 101520, Note_on_c, 3, 46, 0
5, 101520, Note_on_c, 3, 47, 127
5, 101760, Note_on_c, 3, 46, 127
5, 101760, Note_on_c, 3, 47, 0
5, 102000, Note_on_c, 3, 44, 127
5, 102000, Note_on_c, 3, 46, 0
5, 102120, Note_on_c, 3, 44, 0
5, 102480, Note_on_c, 3, 42, 127
5, 102720, Note_on_c, 3, 42, 0
5, 102720, Note_on_c, 3, 42, 127
5, 102960, Note_on_c, 3, 40, 127
5, 102960, Note_on_c, 3, 42, 0
5, 103080, Note_on_c, 3, 40, 0
5, 103080, Note_on_c, 3, 40, 127
5, 103200, Note_on_c, 3, 40, 0
5, 103200, Note_on_c, 3, 40, 127
5, 103440, Note_on_c, 3, 40, 0
5, 103440, Note_on_c, 3, 40, 127
5, 103680, Note_on_c, 3, 40, 0
5, 103680, Note_on_c, 3, 40, 127
5, 103920, Note_on_c, 3, 40, 0
5, 103920, Note_on_c, 3, 42, 127
5, 104040, Note_on_c, 3, 42, 0
5, 104160, Note_on_c, 3, 39, 127
5, 104640, Note_on_c, 3, 39, 0
5, 104640, Note_on_c, 3, 39, 127
5, 104880, Note_on_c, 3, 39, 0
5, 104880, Note_on_c, 3, 46, 127
5, 105000, Note_on_c, 3, 46, 0
5, 105000, Note_on_c, 3, 46, 127
5, 105120, Note_on_c, 3, 46, 0
5, 105120, Note_on_c, 3, 46, 127
5, 105360, Note_on_c, 3, 46, 0
5, 105360, Note_on_c, 3, 47, 127
5, 105600, Note_on_c, 3, 46, 127
5, 105600, Note_on_c, 3, 47, 0
5, 105840, Note_on_c, 3, 44, 127
5, 105840, Note_on_c, 3, 46, 0
5, 105960, Note_on_c, 3, 44, 0
5, 106320, Note_on_c, 3, 42, 127
5, 106560, Note_on_c, 3, 42, 0
5, 106560, Note_on_c, 3, 42, 127
5, 106800, Note_on_c, 3, 40, 127
5, 106800, Note_on_c, 3, 42, 0
5, 106920, Note_on_c, 3, 40, 0
5, 106920, Note_on_c, 3, 40, 127
5, 107040, Note_on_c, 3, 40, 0
5, 107040, Note_on_c, 3, 40, 127
5, 107280, Note_on_c, 3, 40, 0
5, 107280, Note_on_c, 3, 40, 127
5, 107520, Note_on_c, 3, 40, 0
5, 107520, Note_on_c, 3, 40, 127
5, 107760, Note_on_c, 3, 40, 0
5, 107760, Note_on_c, 3, 42, 127
5, 107880, Note_on_c, 3, 42, 0
5, 108000, Note_on_c, 3, 39, 127
5, 108480, Note_on_c, 3, 39, 0
5, 108480, Note_on_c, 3, 39, 127
5, 108720, Note_on_c, 3, 39, 0
5, 108720, Note_on_c, 3, 46, 127
5, 108840, Note_on_c, 3, 46, 0
5, 108840, Note_on_c, 3, 46, 127
5, 108960, Note_on_c, 3, 46, 0
5, 108960, Note_on_c, 3, 46, 127
5, 109200, Note_on_c, 3, 46, 0
5, 109200, Note_on_c, 3, 47, 127
5, 109440, Note_on_c, 3, 46, 127
5, 109440, Note_on_c, 3, 47, 0
5, 109680, Note_on_c, 3, 44, 127
5, 109680, Note_on_c, 3, 46, 0
5, 109800, Note_on_c, 3, 44, 0
5, 110160, Note_on_c, 3, 42, 127
5, 110400, Note_on_c, 3, 42, 0
5, 110400, Note_on_c, 3, 42, 127
5, 110640, Note_on_c, 3, 40, 127
5, 110640, Note_on_c, 3, 42, 0
5, 110760, Note_on_c, 3, 40, 0
5, 110760, Note_on_c, 3, 40, 127
5, 110880, Note_on_c, 3, 40, 0
5, 110880, Note_on_c, 3, 40, 127
5, 111120, Note_on_c, 3, 40, 0
5, 111120, Note_on_c, 3, 40, 127
5, 111360, Note_on_c, 3, 40, 0
5, 111360, Note_on_c, 3, 40, 127
5, 111600, Note_on_c, 3, 40, 0
5, 111600, Note_on_c, 3, 42, 127
5, 111720, Note_on_c, 3, 42, 0
5, 111840, Note_on_c, 3, 39, 127
5, 112320, Note_on_c, 3, 39, 0
5, 112320, Note_on_c, 3, 39, 127
5, 112560, Note_on_c, 3, 39, 0
5, 112560, Note_on_c, 3, 46, 127
5, 112680, Note_on_c, 3, 46, 0
5, 112680, Note_on_c, 3, 46, 127
5, 112800, Note_on_c, 3, 46, 0
5, 112800, Note_on_c, 3, 46, 127
5, 113040, Note_on_c, 3, 46, 0
5, 113040, Note_on_c, 3, 47, 127
5, 113280, Note_on_c, 3, 46, 127
5, 113280, Note_on_c, 3, 47, 0
5, 113520, Note_on_c, 3, 44, 127
5, 113520, Note_on_c, 3, 46, 0
5, 113640, Note_on_c, 3, 44, 0
5, 114000, Note_on_c, 3, 42, 127
5, 114240, Note_on_c, 3, 42, 0
5, 114240, Note_on_c, 3, 42, 127
5, 114480, Note_on_c, 3, 40, 127
5, 114480, Note_on_c, 3, 42, 0
5, 114600, Note_on_c, 3, 40, 0
5, 114600, Note_on_c, 3, 40, 127
5, 114720, Note_on_c, 3, 40, 0
5, 114720, Note_on_c, 3, 40, 127
5, 114960, Note_on_c, 3, 40, 0
5, 114960, Note_on_c, 3, 40, 127
5, 115200, Note_on_c, 3, 40, 0
5, 115200, Note_on_c, 3, 40, 127
5, 115440, Note_on_c, 3, 40, 0
5, 115440, Note_on_c, 3, 42, 127
5, 115560, Note_on_c, 3, 42, 0
5, 131040, Note_on_c, 3, 39, 127
5, 131520, Note_on_c, 3, 39, 0
5, 131520, Note_on_c, 3, 39, 127
5, 131760, Note_on_c, 3, 39, 0
5, 131760, Note_on_c, 3, 46, 127
5, 131880, Note_on_c, 3, 46, 0
5, 131880, Note_on_c, 3, 46, 127
5, 132000, Note_on_c, 3, 46, 0
5, 132000, Note_on_c, 3, 46, 127
5, 132240, Note_on_c, 3, 46, 0
5, 132240, Note_on_c, 3, 47, 127
5, 132480, Note_on_c, 3, 46, 127
5, 132480, Note_on_c, 3, 47, 0
5, 132720, Note_on_c, 3, 44, 127
5, 132720, Note_on_c, 3, 46, 0
5, 132840, Note_on_c, 3, 44, 0
5, 133200, Note_on_c, 3, 42, 127
5, 133440, Note_on_c, 3, 42, 0
5, 133440, Note_on_c, 3, 42, 127
5, 133680, Note_on_c, 3, 40, 127
5, 133680, Note_on_c, 3, 42, 0
5, 133800, Note_on_c, 3, 40, 0
5, 133800, Note_on_c, 3, 40, 127
5, 133920, Note_on_c, 3, 40, 0
5, 133920, Note_on_c, 3, 40, 127
5, 134160, Note_on_c, 3, 40, 0
5, 134160, Note_on_c, 3, 40, 127
5, 134400, Note_on_c, 3, 40, 0
5, 134400, Note_on_c, 3, 40, 127
5, 134640, Note_on_c, 3, 40, 0
5, 134640, Note_on_c, 3, 42, 127
5, 134760, Note_on_c, 3, 42, 0
5, 134880, Note_on_c, 3, 39, 127
5, 135360, Note_on_c, 3, 39, 0
5, 135360, Note_on_c, 3, 39, 127
5, 135600, Note_on_c, 3, 39, 0
5, 135600, Note_on_c, 3, 46, 127
5, 135720, Note_on_c, 3, 46, 0
5, 135720, Note_on_c, 3, 46, 127
5, 135840, Note_on_c, 3, 46, 0
5, 135840, Note_on_c, 3, 46, 127
5, 136080, Note_on_c, 3, 46, 0
5, 136080, Note_on_c, 3, 47, 127
5, 136320, Note_on_c, 3, 46, 127
5, 136320, Note_on_c, 3, 47, 0
5, 136560, Note_on_c, 3, 44, 127
5, 136560, Note_on_c, 3, 46, 0
5, 136680, Note_on_c, 3, 44, 0
5, 137040, Note_on_c, 3, 42, 127
5, 137280, Note_on_c, 3, 42, 0
5, 137280, Note_on_c, 3, 42, 127
5, 137520, Note_on_c, 3, 40, 127
5, 137520, Note_on_c, 3, 42, 0
5, 137640, Note_on_c, 3, 40, 0
5, 137640, Note_on_c, 3, 40, 127
5, 137760, Note_on_c, 3, 40, 0
5, 137760, Note_on_c, 3, 40, 127
5, 138000, Note_on_c, 3, 40, 0
5, 138000, Note_on_c, 3, 40, 127
5, 138240, Note_on_c, 3, 40, 0
5, 138240, Note_on_c, 3, 40, 127
5, 138480, Note_on_c, 3, 40, 0
5, 138480, Note_on_c, 3, 42, 127
5, 138600, Note_on_c, 3, 42, 0
5, 138720, Note_on_c, 3, 39, 127
5, 139200, Note_on_c, 3, 39, 0
5, 139200, Note_on_c, 3, 39, 127
5, 139440, Note_on_c, 3, 39, 0
5, 139440, Note_on_c, 3, 46, 127
5, 139560, Note_on_c, 3, 46, 0
5, 139560, Note_on_c, 3, 46, 127
5, 139680, Note_on_c, 3, 46, 0
5, 139680, Note_on_c, 3, 46, 127
5, 139920, Note_on_c, 3, 46, 0
5, 139920, Note_on_c, 3, 47, 127
5, 140160, Note_on_c, 3, 46, 127
5, 140160, Note_on_c, 3, 47, 0
5, 140400, Note_on_c, 3, 44, 127
5, 140400, Note_on_c, 3, 46, 0
5, 140520, Note_on_c, 3, 44, 0
5, 140880, Note_on_c, 3, 42, 127
5, 141120, Note_on_c, 3, 42, 0
5, 141120, Note_on_c, 3, 42, 127
5, 141360, Note_on_c, 3, 40, 127
5, 141360, Note_on_c, 3, 42, 0
5, 141480, Note_on_c, 3, 40, 0
5, 141480, Note_on_c, 3, 40, 127
5, 141600, Note_on_c, 3, 40, 0
5, 141600, Note_on_c, 3, 40, 127
5, 141840, Note_on_c, 3, 40, 0
5, 141840, Note_on_c, 3, 40, 127
5, 142080, Note_on_c, 3, 40, 0
5, 142080, Note_on_c, 3, 40, 127
5, 142320, Note_on_c, 3, 40, 0
5, 142320, Note_on_c, 3, 42, 127
5, 142440, Note_on_c, 3, 42, 0
5, 142560, Note_on_c, 3, 39, 127
5, 143040, Note_on_c, 3, 39, 0
5, 143040, Note_on_c, 3, 39, 127
5, 143280, Note_on_c, 3, 39, 0
5, 143280, Note_on_c, 3, 46, 127
5, 143400, Note_on_c, 3, 46, 0
5, 143400, Note_on_c, 3, 46, 127
5, 143520, Note_on_c, 3, 46, 0
5, 143520, Note_on_c, 3, 46, 127
5, 143760, Note_on_c, 3, 46, 0
5, 143760, Note_on_c, 3, 47, 127
5, 144000, Note_on_c, 3, 46, 127
5, 144000, Note_on_c, 3, 47, 0
5, 144240, Note_on_c, 3, 44, 127
5, 144240, Note_on_c, 3, 46, 0
5, 144360, Note_on_c, 3, 44, 0
5, 144720, Note_on_c, 3, 42, 127
5, 144960, Note_on_c, 3, 42, 0
5, 144960, Note_on_c, 3, 42, 127
5, 145200, Note_on_c, 3, 40, 127
5, 145200, Note_on_c, 3, 42, 0
5, 145320, Note_on_c, 3, 40, 0
5, 145320, Note_on_c, 3, 40, 127
5, 145440, Note_on_c, 3, 40, 0
5, 145440, Note_on_c, 3, 40, 127
5, 145680, Note_on_c, 3, 40, 0
5, 145680, Note_on_c, 3, 40, 127
5, 145920, Note_on_c, 3, 40, 0
5, 145920, Note_on_c, 3, 40, 127
5, 146160, Note_on_c, 3, 40, 0
5, 146160, Note_on_c, 3, 42, 127
5, 146280, Note_on_c, 3, 42, 0
5, 146400, Note_on_c, 3, 39, 127
5, 146880, Note_on_c, 3, 39, 0
5, 146880, Note_on_c, 3, 39, 127
5, 147120, Note_on_c, 3, 39, 0
5, 147120, Note_on_c, 3, 46, 127
5, 147240, Note_on_c, 3, 46, 0
5, 147240, Note_on_c, 3, 46, 127
5, 147360, Note_on_c, 3, 46, 0
5, 147360, Note_on_c, 3, 46, 127
5, 147600, Note_on_c, 3, 46, 0
5, 147600, Note_on_c, 3, 47, 127
5, 147840, Note_on_c, 3, 46, 127
5, 147840, Note_on_c, 3, 47, 0
5, 148080, Note_on_c, 3, 44, 127
5, 148080, Note_on_c, 3, 46, 0
5, 148200, Note_on_c, 3, 44, 0
5, 148560, Note_on_c, 3, 42, 127
5, 148800, Note_on_c, 3, 42, 0
5, 148800, Note_on_c, 3, 42, 127
5, 149040, Note_on_c, 3, 40, 127
5, 149040, Note_on_c, 3, 42, 0
5, 149160, Note_on_c, 3, 40, 0
5, 149160, Note_on_c, 3, 40, 127
5, 149280, Note_on_c, 3, 40, 0
5, 149280, Note_on_c, 3, 40, 127
5, 149520, Note_on_c, 3, 40, 0
5, 149520, Note_on_c, 3, 40, 127
5, 149760, Note_on_c, 3, 40, 0
5, 149760, Note_on_c, 3, 40, 127
5, 150000, Note_on_c, 3, 40, 0
5, 150000, Note_on_c, 3, 42, 127
5, 150120, Note_on_c, 3, 42, 0
5, 150240, Note_on_c, 3, 39, 127
5, 150720, Note_on_c, 3, 39, 0
5, 150720, Note_on_c, 3, 39, 127
5, 150960, Note_on_c, 3, 39, 0
5, 150960, Note_on_c, 3, 46, 127
5, 151080, Note_on_c, 3, 46, 0
5, 151080, Note_on_c, 3, 46, 127
5, 151200, Note_on_c, 3, 46, 0
5, 151200, Note_on_c, 3, 46, 127
5, 151440, Note_on_c, 3, 46, 0
5, 151440, Note_on_c, 3, 47, 127
5, 151680, Note_on_c, 3, 46, 127
5, 151680, Note_on_c, 3, 47, 0
5, 151920, Note_on_c, 3, 44, 127
5, 151920, Note_on_c, 3, 46, 0
5, 152040, Note_on_c, 3, 44, 0
5, 152400, Note_on_c, 3, 42, 127
5, 152640, Note_on_c, 3, 42, 0
5, 152640, Note_on_c, 3, 42, 127
5, 152880, Note_on_c, 3, 40, 127
5, 152880, Note_on_c, 3, 42, 0
5, 153000, Note_on_c, 3, 40, 0
5, 153000, Note_on_c, 3, 40, 127
5, 153120, Note_on_c, 3, 40, 0
5, 153120, Note_on_c, 3, 40, 127
5, 153360, Note_on_c, 3, 40, 0
5, 153360, Note_on_c, 3, 40, 127
5, 153600, Note_on_c, 3, 40, 0
5, 153600, Note_on_c, 3, 40, 127
5, 153840, Note_on_c, 3, 40, 0
5, 153840, Note_on_c, 3, 42, 127
5, 153960, Note_on_c, 3, 42, 0
5, 154080, Note_on_c, 3, 39, 127
5, 154560, Note_on_c, 3, 39, 0
5, 154560, Note_on_c, 3, 39, 127
5, 154800, Note_on_c, 3, 39, 0
5, 154800, Note_on_c, 3, 46, 127
5, 154920, Note_on_c, 3, 46, 0
5, 154920, Note_on_c, 3, 46, 127
5, 155040, Note_on_c, 3, 46, 0
5, 155040, Note_on_c, 3, 46, 127
5, 155280, Note_on_c, 3, 46, 0
5, 155280, Note_on_c, 3, 47, 127
5, 155520, Note_on_c, 3, 46, 127
5, 155520, Note_on_c, 3, 47, 0
5, 155760, Note_on_c, 3, 44, 127
5, 155760, Note_on_c, 3, 46, 0
5, 155880, Note_on_c, 3, 44, 0
5, 156240, Note_on_c, 3, 42, 127
5, 156480, Note_on_c, 3, 42, 0
5, 156480, Note_on_c, 3, 42, 127
5, 156720, Note_on_c, 3, 40, 127
5, 156720, Note_on_c, 3, 42, 0
5, 156840, Note_on_c, 3, 40, 0
5, 156840, Note_on_c, 3, 40, 127
5, 156960, Note_on_c, 3, 40, 0
5, 156960, Note_on_c, 3, 40, 127
5, 157200, Note_on_c, 3, 40, 0
5, 157200, Note_on_c, 3, 40, 127
5, 157440, Note_on_c, 3, 40, 0
5, 157440, Note_on_c, 3, 40, 127
5, 157680, Note_on_c, 3, 40, 0
5, 157680, Note_on_c, 3, 42, 127
5, 157800, Note_on_c, 3, 42, 0
5, 157920, Note_on_c, 3, 39, 127
5, 158400, Note_on_c, 3, 39, 0
5, 158400, Note_on_c, 3, 39, 127
5, 158640, Note_on_c, 3, 39, 0
5, 158640, Note_on_c, 3, 46, 127
5, 158760, Note_on_c, 3, 46, 0
5, 158760, Note_on_c, 3, 46, 127
5, 158880, Note_on_c, 3, 46, 0
5, 158880, Note_on_c, 3, 46, 127
5, 159120, Note_on_c, 3, 46, 0
5, 159120, Note_on_c, 3, 47, 127
5, 159360, Note_on_c, 3, 46, 127
5, 159360, Note_on_c, 3, 47, 0
5, 159600, Note_on_c, 3, 44, 127
5, 159600, Note_on_c, 3, 46, 0
5, 159720, Note_on_c, 3, 44, 0
5, 160080, Note_on_c, 3, 42, 127
5, 160320, Note_on_c, 3, 42, 0
5, 160320, Note_on_c, 3, 42, 127
5, 160560, Note_on_c, 3, 40, 127
5, 160560, Note_on_c, 3, 42, 0
5, 160680, Note_on_c, 3, 40, 0
5, 160680, Note_on_c, 3, 40, 127
5, 160800, Note_on_c, 3, 40, 0
5, 160800, Note_on_c, 3, 40, 127
5, 161040, Note_on_c, 3, 40, 0
5, 161040, Note_on_c, 3, 40, 127
5, 161280, Note_on_c, 3, 40, 0
5, 161280, Note_on_c, 3, 40, 127
5, 161520, Note_on_c, 3, 40, 0
5, 161520, Note_on_c, 3, 42, 127
5, 161640, Note_on_c, 3, 42, 0
5, 177120, Note_on_c, 3, 46, 127
5, 177240, Note_on_c, 3, 46, 0
5, 177360, Note_on_c, 3, 46, 127
5, 177480, Note_on_c, 3, 46, 0
5, 177840, Note_on_c, 3, 46, 127
5, 177960, Note_on_c, 3, 46, 0
5, 177960, Note_on_c, 3, 46, 127
5, 178080, Note_on_c, 3, 46, 0
5, 178080, Note_on_c, 3, 46, 127
5, 178200, Note_on_c, 3, 46, 0
5, 178320, Note_on_c, 3, 46, 127
5, 178440, Note_on_c, 3, 46, 0
5, 178800, Note_on_c, 3, 46, 127
5, 178920, Note_on_c, 3, 46, 0
5, 179040, Note_on_c, 3, 46, 127
5, 179160, Note_on_c, 3, 46, 0
5, 179280, Note_on_c, 3, 46, 127
5, 179400, Note_on_c, 3, 46, 0
5, 179760, Note_on_c, 3, 46, 127
5, 179880, Note_on_c, 3, 46, 0
5, 179880, Note_on_c, 3, 46, 127
5, 180000, Note_on_c, 3, 46, 0
5, 180000, Note_on_c, 3, 46, 127
5, 180120, Note_on_c, 3, 46, 0
5, 180240, Note_on_c, 3, 46, 127
5, 180360, Note_on_c, 3, 46, 0
5, 180480, Note_on_c, 3, 49, 127
5, 180840, Note_on_c, 3, 49, 0
5, 180960, Note_on_c, 3, 46, 127
5, 181080, Note_on_c, 3, 46, 0
5, 181200, Note_on_c, 3, 46, 127
5, 181320, Note_on_c, 3, 46, 0
5, 181680, Note_on_c, 3, 46, 127
5, 181800, Note_on_c, 3, 46, 0
5, 181800, Note_on_c, 3, 46, 127
5, 181920, Note_on_c, 3, 46, 0
5, 181920, Note_on_c, 3, 46, 127
5, 182040, Note_on_c, 3, 46, 0
5, 182160, Note_on_c, 3, 46, 127
5, 182280, Note_on_c, 3, 46, 0
5, 182640, Note_on_c, 3, 46, 127
5, 182760, Note_on_c, 3, 46, 0
5, 182880, Note_on_c, 3, 46, 127
5, 183000, Note_on_c, 3, 46, 0
5, 183120, Note_on_c, 3, 46, 127
5, 183240, Note_on_c, 3, 46, 0
5, 183600, Note_on_c, 3, 46, 127
5, 183720, Note_on_c, 3, 46, 0
5, 183720, Note_on_c, 3, 46, 127
5, 183840, Note_on_c, 3, 46, 0
5, 183840, Note_on_c, 3, 46, 127
5, 183960, Note_on_c, 3, 46, 0
5, 184080, Note_on_c, 3, 46, 127
5, 184200, Note_on_c, 3, 46, 0
5, 184320, Note_on_c, 3, 49, 127
5, 184680, Note_on_c, 3, 49, 0
5, 184800, Note_on_c, 3, 46, 127
5, 184920, Note_on_c, 3, 46, 0
5, 185040, Note_on_c, 3, 46, 127
5, 185160, Note_on_c, 3, 46, 0
5, 185520, Note_on_c, 3, 46, 127
5, 185640, Note_on_c, 3, 46, 0
5, 185640, Note_on_c, 3, 46, 127
5, 185760, Note_on_c, 3, 46, 0
5, 185760, Note_on_c, 3, 46, 127
5, 185880, Note_on_c, 3, 46, 0
5, 186000, Note_on_c, 3, 46, 127
5, 186120, Note_on_c, 3, 46, 0
5, 186480, Note_on_c, 3, 46, 127
5, 186600, Note_on_c, 3, 46, 0
5, 186720, Note_on_c, 3, 46, 127
5, 186840, Note_on_c, 3, 46, 0
5, 186960, Note_on_c, 3, 46, 127
5, 187080, Note_on_c, 3, 46, 0
5, 187440, Note_on_c, 3, 46, 127
5, 187560, Note_on_c, 3, 46, 0
5, 187560, Note_on_c, 3, 46, 127
5, 187680, Note_on_c, 3, 46, 0
5, 187680, Note_on_c, 3, 46, 127
5, 187800, Note_on_c, 3, 46, 0
5, 187920, Note_on_c, 3, 46, 127
5, 188040, Note_on_c, 3, 46, 0
5, 188160, Note_on_c, 3, 49, 127
5, 188520, Note_on_c, 3, 49, 0
5, 188640, Note_on_c, 3, 46, 127
5, 188760, Note_on_c, 3, 46, 0
5, 188880, Note_on_c, 3, 46, 127
5, 189000, Note_on_c, 3, 46, 0
5, 189360, Note_on_c, 3, 46, 127
5, 189480, Note_on_c, 3, 46, 0
5, 189480, Note_on_c, 3, 46, 127
5, 189600, Note_on_c, 3, 46, 0
5, 189600, Note_on_c, 3, 46, 127
5, 189720, Note_on_c, 3, 46, 0
5, 189840, Note_on_c, 3, 46, 127
5, 189960, Note_on_c, 3, 46, 0
5, 190320, Note_on_c, 3, 46, 127
5, 190440, Note_on_c, 3, 46, 0
5, 190560, Note_on_c, 3, 46, 127
5, 190680, Note_on_c, 3, 46, 0
5, 190800, Note_on_c, 3, 46, 127
5, 190920, Note_on_c, 3, 46, 0
5, 191280, Note_on_c, 3, 46, 127
5, 191400, Note_on_c, 3, 46, 0
5, 191400, Note_on_c, 3, 46, 127
5, 191520, Note_on_c, 3, 46, 0
5, 191520, Note_on_c, 3, 46, 127
5, 191640, Note_on_c, 3, 46, 0
5, 191760, Note_on_c, 3, 46, 127
5, 191880, Note_on_c, 3, 46, 0
5, 192000, Note_on_c, 3, 49, 127
5, 192360, Note_on_c, 3, 49, 0
5, 192480, Note_on_c, 3, 46, 127
5, 192600, Note_on_c, 3, 46, 0
5, 192600, End_track
6, 0, Start_track
6, 0, Channel_prefix, 4
6, 0, Title_t, " Bowed Glass *merged"
6, 0, Instrument_name_t, "My Soundcard  5"
6, 0, Program_c, 4, 92
6, 0, Control_c, 4, 7, 100
6, 0, Control_c, 4, 10, 64
6, 84960, Note_on_c, 4, 51, 127
6, 88800, Note_on_c, 4, 49, 127
6, 88800, Note_on_c, 4, 51, 0
6, 92640, Note_on_c, 4, 49, 0
6, 92640, Note_on_c, 4, 51, 127
6, 96480, Note_on_c, 4, 49, 127
6, 96480, Note_on_c, 4, 51, 0
6, 100320, Note_on_c, 4, 49, 0
6, 108000, Note_on_c, 4, 51, 127
6, 111840, Note_on_c, 4, 49, 127
6, 111840, Note_on_c, 4, 51, 0
6, 115680, Note_on_c, 4, 49, 0
6, 138720, Note_on_c, 4, 51, 127
6, 142560, Note_on_c, 4, 49, 127
6, 142560, Note_on_c, 4, 51, 0
6, 146400, Note_on_c, 4, 49, 0
6, 146400, Note_on_c, 4, 51, 127
6, 150240, Note_on_c, 4, 49, 127
6, 150240, Note_on_c, 4, 51, 0
6, 154080, Note_on_c, 4, 49, 0
6, 154080, Note_on_c, 4, 51, 127
6, 157920, Note_on_c, 4, 49, 127
6, 157920, Note_on_c, 4, 51, 0
6, 161760, Note_on_c, 4, 49, 0
6, 161760, End_track
7, 0, Start_track
7, 0, Channel_prefix, 5
7, 0, Title_t, " Choir Aahs *merged"
7, 0, Instrument_name_t, "My Soundcard  6"
7, 0, Program_c, 5, 52
7, 0, Control_c, 5, 7, 100
7, 0, Control_c, 5, 10, 64
7, 115680, Note_on_c, 5, 51, 127
7, 115800, Note_on_c, 5, 51, 0
7, 115920, Note_on_c, 5, 51, 127
7, 116040, Note_on_c, 5, 51, 0
7, 117000, Note_on_c, 5, 51, 127
7, 117120, Note_on_c, 5, 51, 0
7, 117240, Note_on_c, 5, 51, 127
7, 117360, Note_on_c, 5, 51, 0
7, 119520, Note_on_c, 5, 51, 127
7, 119640, Note_on_c, 5, 51, 0
7, 119760, Note_on_c, 5, 51, 127
7, 119880, Note_on_c, 5, 51, 0
7, 120840, Note_on_c, 5, 51, 127
7, 120960, Note_on_c, 5, 51, 0
7, 121080, Note_on_c, 5, 51, 127
7, 121200, Note_on_c, 5, 51, 0
7, 123360, Note_on_c, 5, 51, 127
7, 123480, Note_on_c, 5, 51, 0
7, 123600, Note_on_c, 5, 51, 127
7, 123720, Note_on_c, 5, 51, 0
7, 124680, Note_on_c, 5, 51, 127
7, 124800, Note_on_c, 5, 51, 0
7, 124920, Note_on_c, 5, 51, 127
7, 125040, Note_on_c, 5, 51, 0
7, 127200, Note_on_c, 5, 51, 127
7, 127320, Note_on_c, 5, 51, 0
7, 127440, Note_on_c, 5, 51, 127
7, 127560, Note_on_c, 5, 51, 0
7, 127560, End_track
8, 0, Start_track
8, 0, Channel_prefix, 9
8, 0, Title_t, " STANDARD Drum*merged"
8, 0, Instrument_name_t, "My Soundcard 10"
8, 0, Control_c, 9, 7, 100
8, 0, Control_c, 9, 7, 100
8, 0, Control_c, 9, 10, 64
8, 0, Control_c, 9, 10, 64
8, 480, Note_on_c, 9, 36, 127
8, 600, Note_on_c, 9, 36, 0
8, 960, Note_on_c, 9, 36, 127
8, 1080, Note_on_c, 9, 36, 0
8, 1200, Note_on_c, 9, 36, 91
8, 1320, Note_on_c, 9, 36, 0
8, 1320, Note_on_c, 9, 36, 91
8, 1440, Note_on_c, 9, 36, 0
8, 1440, Note_on_c, 9, 36, 127
8, 1560, Note_on_c, 9, 36, 0
8, 1680, Note_on_c, 9, 36, 91
8, 1800, Note_on_c, 9, 36, 0
8, 1920, Note_on_c, 9, 36, 127
8, 2040, Note_on_c, 9, 36, 0
8, 2160, Note_on_c, 9, 36, 91
8, 2280, Note_on_c, 9, 36, 0
8, 2400, Note_on_c, 9, 36, 127
8, 2520, Note_on_c, 9, 36, 0
8, 2880, Note_on_c, 9, 36, 127
8, 3000, Note_on_c, 9, 36, 0
8, 3120, Note_on_c, 9, 36, 91
8, 3240, Note_on_c, 9, 36, 0
8, 3240, Note_on_c, 9, 36, 91
8, 3360, Note_on_c, 9, 36, 0
8, 3360, Note_on_c, 9, 36, 127
8, 3480, Note_on_c, 9, 36, 0
8, 3600, Note_on_c, 9, 36, 91
8, 3720, Note_on_c, 9, 36, 0
8, 3840, Note_on_c, 9, 36, 127
8, 3960, Note_on_c, 9, 36, 0
8, 4080, Note_on_c, 9, 36, 91
8, 4200, Note_on_c, 9, 36, 0
8, 4320, Note_on_c, 9, 36, 127
8, 4440, Note_on_c, 9, 36, 0
8, 4800, Note_on_c, 9, 36, 127
8, 4920, Note_on_c, 9, 36, 0
8, 5040, Note_on_c, 9, 36, 91
8, 5160, Note_on_c, 9, 36, 0
8, 5160, Note_on_c, 9, 36, 91
8, 5280, Note_on_c, 9, 36, 0
8, 5280, Note_on_c, 9, 36, 127
8, 5400, Note_on_c, 9, 36, 0
8, 5520, Note_on_c, 9, 36, 91
8, 5640, Note_on_c, 9, 36, 0
8, 5760, Note_on_c, 9, 36, 127
8, 5880, Note_on_c, 9, 36, 0
8, 6000, Note_on_c, 9, 36, 91
8, 6120, Note_on_c, 9, 36, 0
8, 6240, Note_on_c, 9, 36, 127
8, 6360, Note_on_c, 9, 36, 0
8, 6720, Note_on_c, 9, 36, 127
8, 6840, Note_on_c, 9, 36, 0
8, 6960, Note_on_c, 9, 36, 91
8, 7080, Note_on_c, 9, 36, 0
8, 7080, Note_on_c, 9, 36, 91
8, 7200, Note_on_c, 9, 36, 0
8, 7200, Note_on_c, 9, 36, 127
8, 7320, Note_on_c, 9, 36, 0
8, 7440, Note_on_c, 9, 36, 91
8, 7560, Note_on_c, 9, 36, 0
8, 7680, Note_on_c, 9, 36, 127
8, 7800, Note_on_c, 9, 36, 0
8, 7920, Note_on_c, 9, 36, 91
8, 8040, Note_on_c, 9, 36, 0
8, 8160, Note_on_c, 9, 36, 127
8, 8280, Note_on_c, 9, 36, 0
8, 8640, Note_on_c, 9, 36, 127
8, 8760, Note_on_c, 9, 36, 0
8, 8880, Note_on_c, 9, 36, 91
8, 9000, Note_on_c, 9, 36, 0
8, 9000, Note_on_c, 9, 36, 91
8, 9120, Note_on_c, 9, 36, 0
8, 9120, Note_on_c, 9, 36, 127
8, 9240, Note_on_c, 9, 36, 0
8, 9360, Note_on_c, 9, 36, 91
8, 9480, Note_on_c, 9, 36, 0
8, 9600, Note_on_c, 9, 36, 127
8, 9720, Note_on_c, 9, 36, 0
8, 9840, Note_on_c, 9, 36, 91
8, 9960, Note_on_c, 9, 36, 0
8, 10080, Note_on_c, 9, 36, 127
8, 10200, Note_on_c, 9, 36, 0
8, 10560, Note_on_c, 9, 36, 127
8, 10680, Note_on_c, 9, 36, 0
8, 10800, Note_on_c, 9, 36, 91
8, 10920, Note_on_c, 9, 36, 0
8, 10920, Note_on_c, 9, 36, 91
8, 11040, Note_on_c, 9, 36, 0
8, 11040, Note_on_c, 9, 36, 127
8, 11160, Note_on_c, 9, 36, 0
8, 11280, Note_on_c, 9, 36, 91
8, 11400, Note_on_c, 9, 36, 0
8, 11520, Note_on_c, 9, 36, 127
8, 11640, Note_on_c, 9, 36, 0
8, 11760, Note_on_c, 9, 36, 91
8, 11880, Note_on_c, 9, 36, 0
8, 12000, Note_on_c, 9, 36, 127
8, 12120, Note_on_c, 9, 36, 0
8, 12480, Note_on_c, 9, 36, 127
8, 12600, Note_on_c, 9, 36, 0
8, 12720, Note_on_c, 9, 36, 91
8, 12840, Note_on_c, 9, 36, 0
8, 12840, Note_on_c, 9, 36, 91
8, 12960, Note_on_c, 9, 36, 0
8, 12960, Note_on_c, 9, 36, 127
8, 13080, Note_on_c, 9, 36, 0
8, 13200, Note_on_c, 9, 36, 91
8, 13320, Note_on_c, 9, 36, 0
8, 13440, Note_on_c, 9, 36, 127
8, 13560, Note_on_c, 9, 36, 0
8, 13680, Note_on_c, 9, 36, 91
8, 13800, Note_on_c, 9, 36, 0
8, 13920, Note_on_c, 9, 36, 127
8, 14040, Note_on_c, 9, 36, 0
8, 14400, Note_on_c, 9, 36, 127
8, 14520, Note_on_c, 9, 36, 0
8, 14640, Note_on_c, 9, 36, 91
8, 14760, Note_on_c, 9, 36, 0
8, 14760, Note_on_c, 9, 36, 91
8, 14880, Note_on_c, 9, 36, 0
8, 14880, Note_on_c, 9, 36, 127
8, 15000, Note_on_c, 9, 36, 0
8, 15120, Note_on_c, 9, 36, 91
8, 15240, Note_on_c, 9, 36, 0
8, 15360, Note_on_c, 9, 36, 127
8, 15480, Note_on_c, 9, 36, 0
8, 15600, Note_on_c, 9, 36, 91
8, 15720, Note_on_c, 9, 36, 0
8, 15840, Note_on_c, 9, 35, 127
8, 15840, Note_on_c, 9, 35, 127
8, 15840, Note_on_c, 9, 35, 127
8, 15840, Note_on_c, 9, 49, 127
8, 15840, Note_on_c, 9, 49, 127
8, 15840, Note_on_c, 9, 49, 127
8, 15840, Note_on_c, 9, 42, 75
8, 15840, Note_on_c, 9, 36, 127
8, 15960, Note_on_c, 9, 35, 0
8, 15960, Note_on_c, 9, 35, 0
8, 15960, Note_on_c, 9, 35, 0
8, 15960, Note_on_c, 9, 49, 0
8, 15960, Note_on_c, 9, 49, 0
8, 15960, Note_on_c, 9, 49, 0
8, 15960, Note_on_c, 9, 42, 0
8, 15960, Note_on_c, 9, 44, 75
8, 15960, Note_on_c, 9, 36, 0
8, 16080, Note_on_c, 9, 35, 127
8, 16080, Note_on_c, 9, 35, 127
8, 16080, Note_on_c, 9, 35, 127
8, 16080, Note_on_c, 9, 49, 127
8, 16080, Note_on_c, 9, 49, 127
8, 16080, Note_on_c, 9, 49, 127
8, 16080, Note_on_c, 9, 42, 75
8, 16080, Note_on_c, 9, 44, 0
8, 16200, Note_on_c, 9, 35, 0
8, 16200, Note_on_c, 9, 35, 0
8, 16200, Note_on_c, 9, 35, 0
8, 16200, Note_on_c, 9, 49, 0
8, 16200, Note_on_c, 9, 49, 0
8, 16200, Note_on_c, 9, 49, 0
8, 16200, Note_on_c, 9, 42, 0
8, 16200, Note_on_c, 9, 42, 47
8, 16200, Note_on_c, 9, 42, 0
8, 16320, Note_on_c, 9, 42, 75
8, 16320, Note_on_c, 9, 36, 127
8, 16440, Note_on_c, 9, 42, 0
8, 16440, Note_on_c, 9, 44, 75
8, 16440, Note_on_c, 9, 36, 0
8, 16560, Note_on_c, 9, 42, 75
8, 16560, Note_on_c, 9, 44, 0
8, 16560, Note_on_c, 9, 36, 91
8, 16680, Note_on_c, 9, 42, 0
8, 16680, Note_on_c, 9, 42, 47
8, 16680, Note_on_c, 9, 36, 0
8, 16680, Note_on_c, 9, 36, 91
8, 16680, Note_on_c, 9, 42, 0
8, 16800, Note_on_c, 9, 42, 75
8, 16800, Note_on_c, 9, 36, 0
8, 16800, Note_on_c, 9, 36, 127
8, 16920, Note_on_c, 9, 42, 0
8, 16920, Note_on_c, 9, 44, 75
8, 16920, Note_on_c, 9, 36, 0
8, 17040, Note_on_c, 9, 42, 75
8, 17040, Note_on_c, 9, 44, 0
8, 17040, Note_on_c, 9, 36, 91
8, 17160, Note_on_c, 9, 42, 0
8, 17160, Note_on_c, 9, 42, 47
8, 17160, Note_on_c, 9, 36, 0
8, 17160, Note_on_c, 9, 42, 0
8, 17280, Note_on_c, 9, 42, 75
8, 17280, Note_on_c, 9, 36, 127
8, 17400, Note_on_c, 9, 42, 0
8, 17400, Note_on_c, 9, 44, 75
8, 17400, Note_on_c, 9, 36, 0
8, 17520, Note_on_c, 9, 42, 75
8, 17520, Note_on_c, 9, 44, 0
8, 17520, Note_on_c, 9, 36, 91
8, 17640, Note_on_c, 9, 42, 0
8, 17640, Note_on_c, 9, 42, 47
8, 17640, Note_on_c, 9, 36, 0
8, 17640, Note_on_c, 9, 42, 0
8, 17760, Note_on_c, 9, 42, 75
8, 17760, Note_on_c, 9, 36, 127
8, 17880, Note_on_c, 9, 42, 0
8, 17880, Note_on_c, 9, 44, 75
8, 17880, Note_on_c, 9, 36, 0
8, 18000, Note_on_c, 9, 42, 75
8, 18000, Note_on_c, 9, 44, 0
8, 18120, Note_on_c, 9, 42, 0
8, 18120, Note_on_c, 9, 42, 47
8, 18120, Note_on_c, 9, 42, 0
8, 18240, Note_on_c, 9, 42, 75
8, 18240, Note_on_c, 9, 36, 127
8, 18360, Note_on_c, 9, 42, 0
8, 18360, Note_on_c, 9, 44, 75
8, 18360, Note_on_c, 9, 36, 0
8, 18480, Note_on_c, 9, 42, 75
8, 18480, Note_on_c, 9, 44, 0
8, 18480, Note_on_c, 9, 36, 91
8, 18600, Note_on_c, 9, 42, 0
8, 18600, Note_on_c, 9, 42, 47
8, 18600, Note_on_c, 9, 36, 0
8, 18600, Note_on_c, 9, 36, 91
8, 18600, Note_on_c, 9, 42, 0
8, 18720, Note_on_c, 9, 42, 75
8, 18720, Note_on_c, 9, 36, 0
8, 18720, Note_on_c, 9, 36, 127
8, 18840, Note_on_c, 9, 42, 0
8, 18840, Note_on_c, 9, 44, 75
8, 18840, Note_on_c, 9, 36, 0
8, 18960, Note_on_c, 9, 42, 75
8, 18960, Note_on_c, 9, 44, 0
8, 18960, Note_on_c, 9, 36, 91
8, 19080, Note_on_c, 9, 42, 0
8, 19080, Note_on_c, 9, 42, 47
8, 19080, Note_on_c, 9, 36, 0
8, 19080, Note_on_c, 9, 42, 0
8, 19200, Note_on_c, 9, 42, 75
8, 19200, Note_on_c, 9, 36, 127
8, 19320, Note_on_c, 9, 42, 0
8, 19320, Note_on_c, 9, 44, 75
8, 19320, Note_on_c, 9, 36, 0
8, 19440, Note_on_c, 9, 42, 75
8, 19440, Note_on_c, 9, 44, 0
8, 19440, Note_on_c, 9, 36, 91
8, 19560, Note_on_c, 9, 42, 0
8, 19560, Note_on_c, 9, 42, 47
8, 19560, Note_on_c, 9, 36, 0
8, 19560, Note_on_c, 9, 42, 0
8, 19680, Note_on_c, 9, 35, 127
8, 19680, Note_on_c, 9, 35, 127
8, 19680, Note_on_c, 9, 35, 127
8, 19680, Note_on_c, 9, 49, 127
8, 19680, Note_on_c, 9, 49, 127
8, 19680, Note_on_c, 9, 49, 127
8, 19680, Note_on_c, 9, 42, 75
8, 19680, Note_on_c, 9, 36, 127
8, 19800, Note_on_c, 9, 35, 0
8, 19800, Note_on_c, 9, 35, 0
8, 19800, Note_on_c, 9, 35, 0
8, 19800, Note_on_c, 9, 49, 0
8, 19800, Note_on_c, 9, 49, 0
8, 19800, Note_on_c, 9, 49, 0
8, 19800, Note_on_c, 9, 42, 0
8, 19800, Note_on_c, 9, 44, 75
8, 19800, Note_on_c, 9, 36, 0
8, 19920, Note_on_c, 9, 35, 127
8, 19920, Note_on_c, 9, 35, 127
8, 19920, Note_on_c, 9, 35, 127
8, 19920, Note_on_c, 9, 49, 127
8, 19920, Note_on_c, 9, 49, 127
8, 19920, Note_on_c, 9, 49, 127
8, 19920, Note_on_c, 9, 42, 75
8, 19920, Note_on_c, 9, 44, 0
8, 20040, Note_on_c, 9, 35, 0
8, 20040, Note_on_c, 9, 35, 0
8, 20040, Note_on_c, 9, 35, 0
8, 20040, Note_on_c, 9, 49, 0
8, 20040, Note_on_c, 9, 49, 0
8, 20040, Note_on_c, 9, 49, 0
8, 20040, Note_on_c, 9, 42, 0
8, 20040, Note_on_c, 9, 42, 47
8, 20040, Note_on_c, 9, 42, 0
8, 20160, Note_on_c, 9, 42, 75
8, 20160, Note_on_c, 9, 36, 127
8, 20280, Note_on_c, 9, 42, 0
8, 20280, Note_on_c, 9, 44, 75
8, 20280, Note_on_c, 9, 36, 0
8, 20400, Note_on_c, 9, 42, 75
8, 20400, Note_on_c, 9, 44, 0
8, 20400, Note_on_c, 9, 36, 91
8, 20520, Note_on_c, 9, 42, 0
8, 20520, Note_on_c, 9, 42, 47
8, 20520, Note_on_c, 9, 36, 0
8, 20520, Note_on_c, 9, 36, 91
8, 20520, Note_on_c, 9, 42, 0
8, 20640, Note_on_c, 9, 42, 75
8, 20640, Note_on_c, 9, 36, 0
8, 20640, Note_on_c, 9, 36, 127
8, 20760, Note_on_c, 9, 42, 0
8, 20760, Note_on_c, 9, 44, 75
8, 20760, Note_on_c, 9, 36, 0
8, 20880, Note_on_c, 9, 42, 75
8, 20880, Note_on_c, 9, 44, 0
8, 20880, Note_on_c, 9, 36, 91
8, 21000, Note_on_c, 9, 42, 0
8, 21000, Note_on_c, 9, 42, 47
8, 21000, Note_on_c, 9, 36, 0
8, 21000, Note_on_c, 9, 42, 0
8, 21120, Note_on_c, 9, 42, 75
8, 21120, Note_on_c, 9, 36, 127
8, 21240, Note_on_c, 9, 42, 0
8, 21240, Note_on_c, 9, 44, 75
8, 21240, Note_on_c, 9, 36, 0
8, 21360, Note_on_c, 9, 42, 75
8, 21360, Note_on_c, 9, 44, 0
8, 21360, Note_on_c, 9, 36, 91
8, 21480, Note_on_c, 9, 42, 0
8, 21480, Note_on_c, 9, 42, 47
8, 21480, Note_on_c, 9, 36, 0
8, 21480, Note_on_c, 9, 42, 0
8, 21600, Note_on_c, 9, 42, 75
8, 21600, Note_on_c, 9, 36, 127
8, 21720, Note_on_c, 9, 42, 0
8, 21720, Note_on_c, 9, 44, 75
8, 21720, Note_on_c, 9, 36, 0
8, 21840, Note_on_c, 9, 42, 75
8, 21840, Note_on_c, 9, 44, 0
8, 21960, Note_on_c, 9, 42, 0
8, 21960, Note_on_c, 9, 42, 47
8, 21960, Note_on_c, 9, 42, 0
8, 22080, Note_on_c, 9, 42, 75
8, 22080, Note_on_c, 9, 36, 127
8, 22200, Note_on_c, 9, 42, 0
8, 22200, Note_on_c, 9, 44, 75
8, 22200, Note_on_c, 9, 36, 0
8, 22320, Note_on_c, 9, 42, 75
8, 22320, Note_on_c, 9, 44, 0
8, 22320, Note_on_c, 9, 36, 91
8, 22440, Note_on_c, 9, 42, 0
8, 22440, Note_on_c, 9, 42, 47
8, 22440, Note_on_c, 9, 36, 0
8, 22440, Note_on_c, 9, 36, 91
8, 22440, Note_on_c, 9, 42, 0
8, 22560, Note_on_c, 9, 42, 75
8, 22560, Note_on_c, 9, 36, 0
8, 22560, Note_on_c, 9, 36, 127
8, 22680, Note_on_c, 9, 42, 0
8, 22680, Note_on_c, 9, 44, 75
8, 22680, Note_on_c, 9, 36, 0
8, 22800, Note_on_c, 9, 42, 75
8, 22800, Note_on_c, 9, 44, 0
8, 22800, Note_on_c, 9, 36, 91
8, 22920, Note_on_c, 9, 42, 0
8, 22920, Note_on_c, 9, 42, 47
8, 22920, Note_on_c, 9, 36, 0
8, 22920, Note_on_c, 9, 42, 0
8, 23040, Note_on_c, 9, 42, 75
8, 23040, Note_on_c, 9, 36, 127
8, 23160, Note_on_c, 9, 42, 0
8, 23160, Note_on_c, 9, 44, 75
8, 23160, Note_on_c, 9, 36, 0
8, 23280, Note_on_c, 9, 42, 75
8, 23280, Note_on_c, 9, 44, 0
8, 23280, Note_on_c, 9, 36, 91
8, 23400, Note_on_c, 9, 42, 0
8, 23400, Note_on_c, 9, 42, 47
8, 23400, Note_on_c, 9, 36, 0
8, 23400, Note_on_c, 9, 42, 0
8, 23520, Note_on_c, 9, 35, 127
8, 23520, Note_on_c, 9, 35, 127
8, 23520, Note_on_c, 9, 35, 127
8, 23520, Note_on_c, 9, 49, 127
8, 23520, Note_on_c, 9, 49, 127
8, 23520, Note_on_c, 9, 49, 127
8, 23520, Note_on_c, 9, 42, 75
8, 23520, Note_on_c, 9, 36, 127
8, 23640, Note_on_c, 9, 35, 0
8, 23640, Note_on_c, 9, 35, 0
8, 23640, Note_on_c, 9, 35, 0
8, 23640, Note_on_c, 9, 49, 0
8, 23640, Note_on_c, 9, 49, 0
8, 23640, Note_on_c, 9, 49, 0
8, 23640, Note_on_c, 9, 42, 0
8, 23640, Note_on_c, 9, 44, 75
8, 23640, Note_on_c, 9, 36, 0
8, 23760, Note_on_c, 9, 35, 127
8, 23760, Note_on_c, 9, 35, 127
8, 23760, Note_on_c, 9, 35, 127
8, 23760, Note_on_c, 9, 49, 127
8, 23760, Note_on_c, 9, 49, 127
8, 23760, Note_on_c, 9, 49, 127
8, 23760, Note_on_c, 9, 42, 75
8, 23760, Note_on_c, 9, 44, 0
8, 23880, Note_on_c, 9, 35, 0
8, 23880, Note_on_c, 9, 35, 0
8, 23880, Note_on_c, 9, 35, 0
8, 23880, Note_on_c, 9, 49, 0
8, 23880, Note_on_c, 9, 49, 0
8, 23880, Note_on_c, 9, 49, 0
8, 23880, Note_on_c, 9, 42, 0
8, 23880, Note_on_c, 9, 42, 47
8, 23880, Note_on_c, 9, 42, 0
8, 24000, Note_on_c, 9, 42, 75
8, 24000, Note_on_c, 9, 36, 127
8, 24120, Note_on_c, 9, 42, 0
8, 24120, Note_on_c, 9, 44, 75
8, 24120, Note_on_c, 9, 36, 0
8, 24240, Note_on_c, 9, 42, 75
8, 24240, Note_on_c, 9, 44, 0
8, 24240, Note_on_c, 9, 36, 91
8, 24360, Note_on_c, 9, 42, 0
8, 24360, Note_on_c, 9, 42, 47
8, 24360, Note_on_c, 9, 36, 0
8, 24360, Note_on_c, 9, 36, 91
8, 24360, Note_on_c, 9, 42, 0
8, 24480, Note_on_c, 9, 42, 75
8, 24480, Note_on_c, 9, 36, 0
8, 24480, Note_on_c, 9, 36, 127
8, 24600, Note_on_c, 9, 42, 0
8, 24600, Note_on_c, 9, 44, 75
8, 24600, Note_on_c, 9, 36, 0
8, 24720, Note_on_c, 9, 42, 75
8, 24720, Note_on_c, 9, 44, 0
8, 24720, Note_on_c, 9, 36, 91
8, 24840, Note_on_c, 9, 42, 0
8, 24840, Note_on_c, 9, 42, 47
8, 24840, Note_on_c, 9, 36, 0
8, 24840, Note_on_c, 9, 42, 0
8, 24960, Note_on_c, 9, 42, 75
8, 24960, Note_on_c, 9, 36, 127
8, 25080, Note_on_c, 9, 42, 0
8, 25080, Note_on_c, 9, 44, 75
8, 25080, Note_on_c, 9, 36, 0
8, 25200, Note_on_c, 9, 42, 75
8, 25200, Note_on_c, 9, 44, 0
8, 25200, Note_on_c, 9, 36, 91
8, 25320, Note_on_c, 9, 42, 0
8, 25320, Note_on_c, 9, 42, 47
8, 25320, Note_on_c, 9, 36, 0
8, 25320, Note_on_c, 9, 42, 0
8, 25440, Note_on_c, 9, 42, 75
8, 25440, Note_on_c, 9, 36, 127
8, 25560, Note_on_c, 9, 42, 0
8, 25560, Note_on_c, 9, 44, 75
8, 25560, Note_on_c, 9, 36, 0
8, 25680, Note_on_c, 9, 42, 75
8, 25680, Note_on_c, 9, 44, 0
8, 25800, Note_on_c, 9, 42, 0
8, 25800, Note_on_c, 9, 42, 47
8, 25800, Note_on_c, 9, 42, 0
8, 25920, Note_on_c, 9, 42, 75
8, 25920, Note_on_c, 9, 36, 127
8, 26040, Note_on_c, 9, 42, 0
8, 26040, Note_on_c, 9, 44, 75
8, 26040, Note_on_c, 9, 36, 0
8, 26160, Note_on_c, 9, 42, 75
8, 26160, Note_on_c, 9, 44, 0
8, 26160, Note_on_c, 9, 36, 91
8, 26280, Note_on_c, 9, 42, 0
8, 26280, Note_on_c, 9, 42, 47
8, 26280, Note_on_c, 9, 36, 0
8, 26280, Note_on_c, 9, 36, 91
8, 26280, Note_on_c, 9, 42, 0
8, 26400, Note_on_c, 9, 42, 75
8, 26400, Note_on_c, 9, 36, 0
8, 26400, Note_on_c, 9, 36, 127
8, 26520, Note_on_c, 9, 42, 0
8, 26520, Note_on_c, 9, 44, 75
8, 26520, Note_on_c, 9, 36, 0
8, 26640, Note_on_c, 9, 42, 75
8, 26640, Note_on_c, 9, 44, 0
8, 26640, Note_on_c, 9, 36, 91
8, 26760, Note_on_c, 9, 42, 0
8, 26760, Note_on_c, 9, 42, 47
8, 26760, Note_on_c, 9, 36, 0
8, 26760, Note_on_c, 9, 42, 0
8, 26880, Note_on_c, 9, 42, 75
8, 26880, Note_on_c, 9, 36, 127
8, 27000, Note_on_c, 9, 42, 0
8, 27000, Note_on_c, 9, 44, 75
8, 27000, Note_on_c, 9, 36, 0
8, 27120, Note_on_c, 9, 42, 75
8, 27120, Note_on_c, 9, 44, 0
8, 27120, Note_on_c, 9, 36, 91
8, 27240, Note_on_c, 9, 42, 0
8, 27240, Note_on_c, 9, 42, 47
8, 27240, Note_on_c, 9, 36, 0
8, 27240, Note_on_c, 9, 42, 0
8, 27360, Note_on_c, 9, 42, 75
8, 27360, Note_on_c, 9, 36, 127
8, 27480, Note_on_c, 9, 42, 0
8, 27480, Note_on_c, 9, 44, 75
8, 27480, Note_on_c, 9, 36, 0
8, 27600, Note_on_c, 9, 42, 75
8, 27600, Note_on_c, 9, 44, 0
8, 27720, Note_on_c, 9, 42, 0
8, 27720, Note_on_c, 9, 42, 47
8, 27720, Note_on_c, 9, 42, 0
8, 27840, Note_on_c, 9, 42, 75
8, 27840, Note_on_c, 9, 36, 127
8, 27960, Note_on_c, 9, 42, 0
8, 27960, Note_on_c, 9, 44, 75
8, 27960, Note_on_c, 9, 36, 0
8, 28080, Note_on_c, 9, 42, 75
8, 28080, Note_on_c, 9, 44, 0
8, 28080, Note_on_c, 9, 36, 91
8, 28200, Note_on_c, 9, 42, 0
8, 28200, Note_on_c, 9, 42, 47
8, 28200, Note_on_c, 9, 36, 0
8, 28200, Note_on_c, 9, 36, 91
8, 28200, Note_on_c, 9, 42, 0
8, 28320, Note_on_c, 9, 42, 75
8, 28320, Note_on_c, 9, 36, 0
8, 28320, Note_on_c, 9, 36, 127
8, 28440, Note_on_c, 9, 42, 0
8, 28440, Note_on_c, 9, 44, 75
8, 28440, Note_on_c, 9, 36, 0
8, 28560, Note_on_c, 9, 42, 75
8, 28560, Note_on_c, 9, 44, 0
8, 28560, Note_on_c, 9, 36, 91
8, 28680, Note_on_c, 9, 42, 0
8, 28680, Note_on_c, 9, 42, 47
8, 28680, Note_on_c, 9, 36, 0
8, 28680, Note_on_c, 9, 42, 0
8, 28800, Note_on_c, 9, 42, 75
8, 28800, Note_on_c, 9, 36, 127
8, 28920, Note_on_c, 9, 42, 0
8, 28920, Note_on_c, 9, 44, 75
8, 28920, Note_on_c, 9, 36, 0
8, 29040, Note_on_c, 9, 42, 75
8, 29040, Note_on_c, 9, 44, 0
8, 29040, Note_on_c, 9, 36, 91
8, 29160, Note_on_c, 9, 42, 0
8, 29160, Note_on_c, 9, 42, 47
8, 29160, Note_on_c, 9, 36, 0
8, 29160, Note_on_c, 9, 42, 0
8, 29280, Note_on_c, 9, 42, 75
8, 29280, Note_on_c, 9, 36, 127
8, 29400, Note_on_c, 9, 42, 0
8, 29400, Note_on_c, 9, 44, 75
8, 29400, Note_on_c, 9, 36, 0
8, 29520, Note_on_c, 9, 42, 75
8, 29520, Note_on_c, 9, 44, 0
8, 29640, Note_on_c, 9, 42, 0
8, 29640, Note_on_c, 9, 42, 47
8, 29640, Note_on_c, 9, 42, 0
8, 29760, Note_on_c, 9, 42, 75
8, 29760, Note_on_c, 9, 36, 127
8, 29880, Note_on_c, 9, 42, 0
8, 29880, Note_on_c, 9, 44, 75
8, 29880, Note_on_c, 9, 36, 0
8, 30000, Note_on_c, 9, 42, 75
8, 30000, Note_on_c, 9, 44, 0
8, 30000, Note_on_c, 9, 36, 91
8, 30120, Note_on_c, 9, 42, 0
8, 30120, Note_on_c, 9, 42, 47
8, 30120, Note_on_c, 9, 36, 0
8, 30120, Note_on_c, 9, 36, 91
8, 30120, Note_on_c, 9, 42, 0
8, 30240, Note_on_c, 9, 42, 75
8, 30240, Note_on_c, 9, 36, 0
8, 30240, Note_on_c, 9, 36, 127
8, 30360, Note_on_c, 9, 42, 0
8, 30360, Note_on_c, 9, 44, 75
8, 30360, Note_on_c, 9, 36, 0
8, 30480, Note_on_c, 9, 42, 75
8, 30480, Note_on_c, 9, 44, 0
8, 30480, Note_on_c, 9, 36, 91
8, 30600, Note_on_c, 9, 42, 0
8, 30600, Note_on_c, 9, 42, 47
8, 30600, Note_on_c, 9, 36, 0
8, 30600, Note_on_c, 9, 42, 0
8, 30720, Note_on_c, 9, 42, 75
8, 30720, Note_on_c, 9, 36, 127
8, 30840, Note_on_c, 9, 42, 0
8, 30840, Note_on_c, 9, 44, 75
8, 30840, Note_on_c, 9, 36, 0
8, 30960, Note_on_c, 9, 42, 75
8, 30960, Note_on_c, 9, 44, 0
8, 30960, Note_on_c, 9, 36, 91
8, 31080, Note_on_c, 9, 42, 0
8, 31080, Note_on_c, 9, 42, 47
8, 31080, Note_on_c, 9, 36, 0
8, 31080, Note_on_c, 9, 42, 0
8, 31200, Note_on_c, 9, 36, 127
8, 31200, Note_on_c, 9, 42, 75
8, 31200, Note_on_c, 9, 35, 127
8, 31320, Note_on_c, 9, 36, 0
8, 31320, Note_on_c, 9, 42, 0
8, 31320, Note_on_c, 9, 44, 75
8, 31320, Note_on_c, 9, 35, 0
8, 31440, Note_on_c, 9, 42, 75
8, 31440, Note_on_c, 9, 44, 0
8, 31440, Note_on_c, 9, 35, 127
8, 31560, Note_on_c, 9, 42, 0
8, 31560, Note_on_c, 9, 42, 47
8, 31560, Note_on_c, 9, 35, 0
8, 31560, Note_on_c, 9, 42, 0
8, 31680, Note_on_c, 9, 36, 127
8, 31680, Note_on_c, 9, 42, 75
8, 31680, Note_on_c, 9, 38, 127
8, 31800, Note_on_c, 9, 36, 0
8, 31800, Note_on_c, 9, 42, 0
8, 31800, Note_on_c, 9, 44, 75
8, 31800, Note_on_c, 9, 38, 0
8, 31920, Note_on_c, 9, 36, 91
8, 31920, Note_on_c, 9, 42, 75
8, 31920, Note_on_c, 9, 44, 0
8, 31920, Note_on_c, 9, 35, 127
8, 32040, Note_on_c, 9, 36, 0
8, 32040, Note_on_c, 9, 36, 91
8, 32040, Note_on_c, 9, 42, 0
8, 32040, Note_on_c, 9, 42, 47
8, 32040, Note_on_c, 9, 35, 0
8, 32040, Note_on_c, 9, 35, 127
8, 32040, Note_on_c, 9, 42, 0
8, 32160, Note_on_c, 9, 36, 0
8, 32160, Note_on_c, 9, 36, 127
8, 32160, Note_on_c, 9, 42, 75
8, 32160, Note_on_c, 9, 35, 0
8, 32160, Note_on_c, 9, 35, 127
8, 32280, Note_on_c, 9, 36, 0
8, 32280, Note_on_c, 9, 42, 0
8, 32280, Note_on_c, 9, 44, 75
8, 32280, Note_on_c, 9, 35, 0
8, 32280, Note_on_c, 9, 35, 127
8, 32400, Note_on_c, 9, 36, 91
8, 32400, Note_on_c, 9, 42, 75
8, 32400, Note_on_c, 9, 44, 0
8, 32400, Note_on_c, 9, 35, 0
8, 32400, Note_on_c, 9, 35, 127
8, 32520, Note_on_c, 9, 36, 0
8, 32520, Note_on_c, 9, 42, 0
8, 32520, Note_on_c, 9, 42, 47
8, 32520, Note_on_c, 9, 35, 0
8, 32520, Note_on_c, 9, 42, 0
8, 32640, Note_on_c, 9, 36, 127
8, 32640, Note_on_c, 9, 42, 75
8, 32640, Note_on_c, 9, 35, 127
8, 32760, Note_on_c, 9, 36, 0
8, 32760, Note_on_c, 9, 42, 0
8, 32760, Note_on_c, 9, 44, 75
8, 32760, Note_on_c, 9, 35, 0
8, 32880, Note_on_c, 9, 36, 91
8, 32880, Note_on_c, 9, 42, 75
8, 32880, Note_on_c, 9, 44, 0
8, 32880, Note_on_c, 9, 38, 127
8, 33000, Note_on_c, 9, 36, 0
8, 33000, Note_on_c, 9, 42, 0
8, 33000, Note_on_c, 9, 42, 47
8, 33000, Note_on_c, 9, 38, 0
8, 33000, Note_on_c, 9, 42, 0
8, 33120, Note_on_c, 9, 42, 75
8, 33240, Note_on_c, 9, 42, 0
8, 33240, Note_on_c, 9, 44, 75
8, 33360, Note_on_c, 9, 36, 127
8, 33360, Note_on_c, 9, 42, 75
8, 33360, Note_on_c, 9, 44, 0
8, 33360, Note_on_c, 9, 35, 127
8, 33480, Note_on_c, 9, 36, 0
8, 33480, Note_on_c, 9, 42, 0
8, 33480, Note_on_c, 9, 42, 47
8, 33480, Note_on_c, 9, 35, 0
8, 33480, Note_on_c, 9, 42, 0
8, 33600, Note_on_c, 9, 36, 127
8, 33600, Note_on_c, 9, 42, 75
8, 33600, Note_on_c, 9, 38, 127
8, 33720, Note_on_c, 9, 36, 0
8, 33720, Note_on_c, 9, 42, 0
8, 33720, Note_on_c, 9, 44, 75
8, 33720, Note_on_c, 9, 38, 0
8, 33840, Note_on_c, 9, 36, 91
8, 33840, Note_on_c, 9, 42, 75
8, 33840, Note_on_c, 9, 44, 0
8, 33840, Note_on_c, 9, 35, 127
8, 33960, Note_on_c, 9, 36, 0
8, 33960, Note_on_c, 9, 36, 91
8, 33960, Note_on_c, 9, 42, 0
8, 33960, Note_on_c, 9, 42, 47
8, 33960, Note_on_c, 9, 35, 0
8, 33960, Note_on_c, 9, 42, 0
8, 34080, Note_on_c, 9, 36, 0
8, 34080, Note_on_c, 9, 36, 127
8, 34080, Note_on_c, 9, 42, 75
8, 34080, Note_on_c, 9, 38, 127
8, 34200, Note_on_c, 9, 36, 0
8, 34200, Note_on_c, 9, 42, 0
8, 34200, Note_on_c, 9, 44, 75
8, 34200, Note_on_c, 9, 35, 127
8, 34200, Note_on_c, 9, 38, 0
8, 34320, Note_on_c, 9, 36, 91
8, 34320, Note_on_c, 9, 42, 75
8, 34320, Note_on_c, 9, 44, 0
8, 34320, Note_on_c, 9, 35, 0
8, 34440, Note_on_c, 9, 36, 0
8, 34440, Note_on_c, 9, 42, 0
8, 34440, Note_on_c, 9, 42, 47
8, 34440, Note_on_c, 9, 38, 127
8, 34440, Note_on_c, 9, 42, 0
8, 34560, Note_on_c, 9, 36, 127
8, 34560, Note_on_c, 9, 42, 75
8, 34560, Note_on_c, 9, 35, 127
8, 34560, Note_on_c, 9, 38, 0
8, 34680, Note_on_c, 9, 36, 0
8, 34680, Note_on_c, 9, 42, 0
8, 34680, Note_on_c, 9, 44, 75
8, 34680, Note_on_c, 9, 35, 0
8, 34680, Note_on_c, 9, 35, 127
8, 34800, Note_on_c, 9, 36, 91
8, 34800, Note_on_c, 9, 42, 75
8, 34800, Note_on_c, 9, 44, 0
8, 34800, Note_on_c, 9, 35, 0
8, 34800, Note_on_c, 9, 38, 127
8, 34920, Note_on_c, 9, 36, 0
8, 34920, Note_on_c, 9, 42, 0
8, 34920, Note_on_c, 9, 42, 47
8, 34920, Note_on_c, 9, 38, 0
8, 34920, Note_on_c, 9, 42, 0
8, 35040, Note_on_c, 9, 36, 127
8, 35040, Note_on_c, 9, 42, 43
8, 35040, Note_on_c, 9, 35, 127
8, 35160, Note_on_c, 9, 36, 0
8, 35160, Note_on_c, 9, 42, 0
8, 35160, Note_on_c, 9, 44, 43
8, 35160, Note_on_c, 9, 35, 0
8, 35280, Note_on_c, 9, 42, 43
8, 35280, Note_on_c, 9, 44, 0
8, 35280, Note_on_c, 9, 35, 127
8, 35400, Note_on_c, 9, 42, 0
8, 35400, Note_on_c, 9, 42, 15
8, 35400, Note_on_c, 9, 35, 0
8, 35400, Note_on_c, 9, 42, 0
8, 35520, Note_on_c, 9, 36, 127
8, 35520, Note_on_c, 9, 42, 43
8, 35520, Note_on_c, 9, 38, 127
8, 35640, Note_on_c, 9, 36, 0
8, 35640, Note_on_c, 9, 42, 0
8, 35640, Note_on_c, 9, 44, 43
8, 35640, Note_on_c, 9, 38, 0
8, 35760, Note_on_c, 9, 36, 91
8, 35760, Note_on_c, 9, 42, 43
8, 35760, Note_on_c, 9, 44, 0
8, 35760, Note_on_c, 9, 35, 127
8, 35880, Note_on_c, 9, 36, 0
8, 35880, Note_on_c, 9, 36, 91
8, 35880, Note_on_c, 9, 42, 0
8, 35880, Note_on_c, 9, 42, 15
8, 35880, Note_on_c, 9, 35, 0
8, 35880, Note_on_c, 9, 35, 127
8, 35880, Note_on_c, 9, 42, 0
8, 36000, Note_on_c, 9, 36, 0
8, 36000, Note_on_c, 9, 36, 127
8, 36000, Note_on_c, 9, 42, 43
8, 36000, Note_on_c, 9, 35, 0
8, 36000, Note_on_c, 9, 35, 127
8, 36120, Note_on_c, 9, 36, 0
8, 36120, Note_on_c, 9, 42, 0
8, 36120, Note_on_c, 9, 44, 43
8, 36120, Note_on_c, 9, 35, 0
8, 36120, Note_on_c, 9, 35, 127
8, 36240, Note_on_c, 9, 36, 91
8, 36240, Note_on_c, 9, 42, 43
8, 36240, Note_on_c, 9, 44, 0
8, 36240, Note_on_c, 9, 35, 0
8, 36240, Note_on_c, 9, 35, 127
8, 36360, Note_on_c, 9, 36, 0
8, 36360, Note_on_c, 9, 42, 0
8, 36360, Note_on_c, 9, 42, 15
8, 36360, Note_on_c, 9, 35, 0
8, 36360, Note_on_c, 9, 42, 0
8, 36480, Note_on_c, 9, 36, 127
8, 36480, Note_on_c, 9, 42, 43
8, 36480, Note_on_c, 9, 35, 127
8, 36600, Note_on_c, 9, 36, 0
8, 36600, Note_on_c, 9, 42, 0
8, 36600, Note_on_c, 9, 44, 43
8, 36600, Note_on_c, 9, 35, 0
8, 36720, Note_on_c, 9, 36, 91
8, 36720, Note_on_c, 9, 42, 43
8, 36720, Note_on_c, 9, 44, 0
8, 36720, Note_on_c, 9, 38, 127
8, 36840, Note_on_c, 9, 36, 0
8, 36840, Note_on_c, 9, 42, 0
8, 36840, Note_on_c, 9, 42, 15
8, 36840, Note_on_c, 9, 38, 0
8, 36840, Note_on_c, 9, 42, 0
8, 36960, Note_on_c, 9, 42, 29
8, 37080, Note_on_c, 9, 42, 0
8, 37080, Note_on_c, 9, 44, 29
8, 37200, Note_on_c, 9, 36, 127
8, 37200, Note_on_c, 9, 42, 29
8, 37200, Note_on_c, 9, 44, 0
8, 37200, Note_on_c, 9, 35, 127
8, 37320, Note_on_c, 9, 36, 0
8, 37320, Note_on_c, 9, 42, 0
8, 37320, Note_on_c, 9, 42, 1
8, 37320, Note_on_c, 9, 35, 0
8, 37320, Note_on_c, 9, 42, 0
8, 37440, Note_on_c, 9, 36, 127
8, 37440, Note_on_c, 9, 42, 29
8, 37440, Note_on_c, 9, 38, 127
8, 37560, Note_on_c, 9, 36, 0
8, 37560, Note_on_c, 9, 42, 0
8, 37560, Note_on_c, 9, 44, 29
8, 37560, Note_on_c, 9, 38, 0
8, 37680, Note_on_c, 9, 36, 91
8, 37680, Note_on_c, 9, 42, 29
8, 37680, Note_on_c, 9, 44, 0
8, 37680, Note_on_c, 9, 35, 127
8, 37800, Note_on_c, 9, 36, 0
8, 37800, Note_on_c, 9, 36, 91
8, 37800, Note_on_c, 9, 42, 0
8, 37800, Note_on_c, 9, 42, 1
8, 37800, Note_on_c, 9, 35, 0
8, 37800, Note_on_c, 9, 42, 0
8, 37920, Note_on_c, 9, 36, 0
8, 37920, Note_on_c, 9, 36, 127
8, 37920, Note_on_c, 9, 42, 29
8, 37920, Note_on_c, 9, 38, 127
8, 38040, Note_on_c, 9, 36, 0
8, 38040, Note_on_c, 9, 42, 0
8, 38040, Note_on_c, 9, 44, 29
8, 38040, Note_on_c, 9, 35, 127
8, 38040, Note_on_c, 9, 38, 0
8, 38160, Note_on_c, 9, 36, 91
8, 38160, Note_on_c, 9, 42, 29
8, 38160, Note_on_c, 9, 44, 0
8, 38160, Note_on_c, 9, 35, 0
8, 38280, Note_on_c, 9, 36, 0
8, 38280, Note_on_c, 9, 42, 0
8, 38280, Note_on_c, 9, 42, 1
8, 38280, Note_on_c, 9, 38, 127
8, 38280, Note_on_c, 9, 42, 0
8, 38400, Note_on_c, 9, 36, 127
8, 38400, Note_on_c, 9, 42, 29
8, 38400, Note_on_c, 9, 35, 127
8, 38400, Note_on_c, 9, 38, 0
8, 38520, Note_on_c, 9, 36, 0
8, 38520, Note_on_c, 9, 42, 0
8, 38520, Note_on_c, 9, 44, 29
8, 38520, Note_on_c, 9, 35, 0
8, 38520, Note_on_c, 9, 35, 127
8, 38640, Note_on_c, 9, 36, 91
8, 38640, Note_on_c, 9, 42, 29
8, 38640, Note_on_c, 9, 44, 0
8, 38640, Note_on_c, 9, 35, 0
8, 38640, Note_on_c, 9, 38, 127
8, 38760, Note_on_c, 9, 36, 0
8, 38760, Note_on_c, 9, 42, 0
8, 38760, Note_on_c, 9, 42, 1
8, 38760, Note_on_c, 9, 38, 0
8, 38760, Note_on_c, 9, 42, 0
8, 38880, Note_on_c, 9, 35, 127
8, 39000, Note_on_c, 9, 35, 0
8, 39120, Note_on_c, 9, 35, 127
8, 39240, Note_on_c, 9, 35, 0
8, 39360, Note_on_c, 9, 38, 127
8, 39480, Note_on_c, 9, 38, 0
8, 39600, Note_on_c, 9, 35, 127
8, 39720, Note_on_c, 9, 35, 0
8, 39720, Note_on_c, 9, 35, 127
8, 39840, Note_on_c, 9, 35, 0
8, 39840, Note_on_c, 9, 35, 127
8, 39960, Note_on_c, 9, 35, 0
8, 39960, Note_on_c, 9, 35, 127
8, 40080, Note_on_c, 9, 35, 0
8, 40080, Note_on_c, 9, 35, 127
8, 40200, Note_on_c, 9, 35, 0
8, 40320, Note_on_c, 9, 35, 127
8, 40440, Note_on_c, 9, 35, 0
8, 40560, Note_on_c, 9, 38, 127
8, 40680, Note_on_c, 9, 38, 0
8, 41040, Note_on_c, 9, 35, 127
8, 41160, Note_on_c, 9, 35, 0
8, 41280, Note_on_c, 9, 38, 127
8, 41400, Note_on_c, 9, 38, 0
8, 41520, Note_on_c, 9, 35, 127
8, 41640, Note_on_c, 9, 35, 0
8, 41760, Note_on_c, 9, 38, 127
8, 41880, Note_on_c, 9, 35, 127
8, 41880, Note_on_c, 9, 38, 0
8, 42000, Note_on_c, 9, 35, 0
8, 42120, Note_on_c, 9, 38, 127
8, 42240, Note_on_c, 9, 35, 127
8, 42240, Note_on_c, 9, 38, 0
8, 42360, Note_on_c, 9, 35, 0
8, 42360, Note_on_c, 9, 35, 127
8, 42480, Note_on_c, 9, 35, 0
8, 42480, Note_on_c, 9, 38, 127
8, 42600, Note_on_c, 9, 38, 0
8, 42720, Note_on_c, 9, 35, 127
8, 42840, Note_on_c, 9, 35, 0
8, 42960, Note_on_c, 9, 35, 127
8, 43080, Note_on_c, 9, 35, 0
8, 43200, Note_on_c, 9, 38, 127
8, 43320, Note_on_c, 9, 38, 0
8, 43440, Note_on_c, 9, 35, 127
8, 43560, Note_on_c, 9, 35, 0
8, 43560, Note_on_c, 9, 35, 127
8, 43680, Note_on_c, 9, 35, 0
8, 43680, Note_on_c, 9, 35, 127
8, 43800, Note_on_c, 9, 35, 0
8, 43800, Note_on_c, 9, 35, 127
8, 43920, Note_on_c, 9, 35, 0
8, 43920, Note_on_c, 9, 35, 127
8, 44040, Note_on_c, 9, 35, 0
8, 44160, Note_on_c, 9, 35, 127
8, 44280, Note_on_c, 9, 35, 0
8, 44400, Note_on_c, 9, 38, 127
8, 44520, Note_on_c, 9, 38, 0
8, 44880, Note_on_c, 9, 35, 127
8, 45000, Note_on_c, 9, 35, 0
8, 45120, Note_on_c, 9, 38, 127
8, 45240, Note_on_c, 9, 38, 0
8, 45360, Note_on_c, 9, 35, 127
8, 45480, Note_on_c, 9, 35, 0
8, 45600, Note_on_c, 9, 38, 127
8, 45720, Note_on_c, 9, 35, 127
8, 45720, Note_on_c, 9, 38, 0
8, 45840, Note_on_c, 9, 35, 0
8, 45960, Note_on_c, 9, 38, 127
8, 46080, Note_on_c, 9, 35, 127
8, 46080, Note_on_c, 9, 38, 0
8, 46200, Note_on_c, 9, 35, 0
8, 46200, Note_on_c, 9, 35, 127
8, 46320, Note_on_c, 9, 35, 0
8, 46320, Note_on_c, 9, 38, 127
8, 46440, Note_on_c, 9, 38, 0
8, 46560, Note_on_c, 9, 35, 127
8, 46680, Note_on_c, 9, 35, 0
8, 46800, Note_on_c, 9, 35, 127
8, 46920, Note_on_c, 9, 35, 0
8, 47040, Note_on_c, 9, 38, 127
8, 47160, Note_on_c, 9, 38, 0
8, 47280, Note_on_c, 9, 35, 127
8, 47400, Note_on_c, 9, 35, 0
8, 47400, Note_on_c, 9, 35, 127
8, 47520, Note_on_c, 9, 35, 0
8, 47520, Note_on_c, 9, 35, 127
8, 47640, Note_on_c, 9, 35, 0
8, 47640, Note_on_c, 9, 35, 127
8, 47760, Note_on_c, 9, 35, 0
8, 47760, Note_on_c, 9, 35, 127
8, 47880, Note_on_c, 9, 35, 0
8, 48000, Note_on_c, 9, 35, 127
8, 48120, Note_on_c, 9, 35, 0
8, 48240, Note_on_c, 9, 38, 127
8, 48360, Note_on_c, 9, 38, 0
8, 48720, Note_on_c, 9, 35, 127
8, 48840, Note_on_c, 9, 35, 0
8, 48960, Note_on_c, 9, 38, 127
8, 49080, Note_on_c, 9, 38, 0
8, 49200, Note_on_c, 9, 35, 127
8, 49320, Note_on_c, 9, 35, 0
8, 49440, Note_on_c, 9, 38, 127
8, 49560, Note_on_c, 9, 35, 127
8, 49560, Note_on_c, 9, 38, 0
8, 49680, Note_on_c, 9, 35, 0
8, 49800, Note_on_c, 9, 38, 127
8, 49920, Note_on_c, 9, 35, 127
8, 49920, Note_on_c, 9, 38, 0
8, 50040, Note_on_c, 9, 35, 0
8, 50040, Note_on_c, 9, 35, 127
8, 50160, Note_on_c, 9, 35, 0
8, 50160, Note_on_c, 9, 38, 127
8, 50280, Note_on_c, 9, 38, 0
8, 50400, Note_on_c, 9, 35, 127
8, 50520, Note_on_c, 9, 35, 0
8, 50640, Note_on_c, 9, 35, 127
8, 50760, Note_on_c, 9, 35, 0
8, 50880, Note_on_c, 9, 38, 127
8, 51000, Note_on_c, 9, 38, 0
8, 51120, Note_on_c, 9, 35, 127
8, 51240, Note_on_c, 9, 35, 0
8, 51240, Note_on_c, 9, 35, 127
8, 51360, Note_on_c, 9, 35, 0
8, 51360, Note_on_c, 9, 35, 127
8, 51480, Note_on_c, 9, 35, 0
8, 51480, Note_on_c, 9, 35, 127
8, 51600, Note_on_c, 9, 35, 0
8, 51600, Note_on_c, 9, 35, 127
8, 51720, Note_on_c, 9, 35, 0
8, 51840, Note_on_c, 9, 35, 127
8, 51960, Note_on_c, 9, 35, 0
8, 52080, Note_on_c, 9, 38, 127
8, 52200, Note_on_c, 9, 38, 0
8, 52560, Note_on_c, 9, 35, 127
8, 52680, Note_on_c, 9, 35, 0
8, 52800, Note_on_c, 9, 38, 127
8, 52920, Note_on_c, 9, 38, 0
8, 53040, Note_on_c, 9, 35, 127
8, 53160, Note_on_c, 9, 35, 0
8, 53280, Note_on_c, 9, 38, 127
8, 53400, Note_on_c, 9, 35, 127
8, 53400, Note_on_c, 9, 38, 0
8, 53520, Note_on_c, 9, 35, 0
8, 53640, Note_on_c, 9, 38, 127
8, 53760, Note_on_c, 9, 35, 127
8, 53760, Note_on_c, 9, 38, 0
8, 53880, Note_on_c, 9, 35, 0
8, 53880, Note_on_c, 9, 35, 127
8, 54000, Note_on_c, 9, 35, 0
8, 54000, Note_on_c, 9, 38, 127
8, 54120, Note_on_c, 9, 38, 0
8, 54240, Note_on_c, 9, 35, 127
8, 54240, Note_on_c, 9, 46, 127
8, 54240, Note_on_c, 9, 49, 127
8, 54360, Note_on_c, 9, 35, 0
8, 54360, Note_on_c, 9, 46, 0
8, 54360, Note_on_c, 9, 49, 0
8, 54480, Note_on_c, 9, 35, 127
8, 54600, Note_on_c, 9, 35, 0
8, 54720, Note_on_c, 9, 38, 127
8, 54720, Note_on_c, 9, 46, 127
8, 54720, Note_on_c, 9, 49, 127
8, 54840, Note_on_c, 9, 38, 0
8, 54840, Note_on_c, 9, 46, 0
8, 54840, Note_on_c, 9, 49, 0
8, 54960, Note_on_c, 9, 35, 127
8, 55080, Note_on_c, 9, 35, 0
8, 55080, Note_on_c, 9, 35, 127
8, 55200, Note_on_c, 9, 35, 0
8, 55200, Note_on_c, 9, 35, 127
8, 55200, Note_on_c, 9, 46, 127
8, 55200, Note_on_c, 9, 49, 127
8, 55320, Note_on_c, 9, 35, 0
8, 55320, Note_on_c, 9, 35, 127
8, 55320, Note_on_c, 9, 46, 0
8, 55320, Note_on_c, 9, 49, 0
8, 55440, Note_on_c, 9, 35, 0
8, 55440, Note_on_c, 9, 35, 127
8, 55560, Note_on_c, 9, 35, 0
8, 55680, Note_on_c, 9, 35, 127
8, 55680, Note_on_c, 9, 46, 127
8, 55680, Note_on_c, 9, 49, 127
8, 55800, Note_on_c, 9, 35, 0
8, 55800, Note_on_c, 9, 46, 0
8, 55800, Note_on_c, 9, 49, 0
8, 55920, Note_on_c, 9, 38, 127
8, 56040, Note_on_c, 9, 38, 0
8, 56160, Note_on_c, 9, 46, 127
8, 56160, Note_on_c, 9, 49, 127
8, 56280, Note_on_c, 9, 46, 0
8, 56280, Note_on_c, 9, 49, 0
8, 56400, Note_on_c, 9, 35, 127
8, 56520, Note_on_c, 9, 35, 0
8, 56640, Note_on_c, 9, 38, 127
8, 56640, Note_on_c, 9, 46, 127
8, 56640, Note_on_c, 9, 49, 127
8, 56760, Note_on_c, 9, 38, 0
8, 56760, Note_on_c, 9, 46, 0
8, 56760, Note_on_c, 9, 49, 0
8, 56880, Note_on_c, 9, 35, 127
8, 57000, Note_on_c, 9, 35, 0
8, 57120, Note_on_c, 9, 38, 127
8, 57120, Note_on_c, 9, 46, 127
8, 57120, Note_on_c, 9, 49, 127
8, 57240, Note_on_c, 9, 35, 127
8, 57240, Note_on_c, 9, 38, 0
8, 57240, Note_on_c, 9, 46, 0
8, 57240, Note_on_c, 9, 49, 0
8, 57360, Note_on_c, 9, 35, 0
8, 57480, Note_on_c, 9, 38, 127
8, 57600, Note_on_c, 9, 35, 127
8, 57600, Note_on_c, 9, 38, 0
8, 57600, Note_on_c, 9, 46, 127
8, 57600, Note_on_c, 9, 49, 127
8, 57720, Note_on_c, 9, 35, 0
8, 57720, Note_on_c, 9, 35, 127
8, 57720, Note_on_c, 9, 46, 0
8, 57720, Note_on_c, 9, 49, 0
8, 57840, Note_on_c, 9, 35, 0
8, 57840, Note_on_c, 9, 38, 127
8, 57960, Note_on_c, 9, 38, 0
8, 58080, Note_on_c, 9, 35, 127
8, 58080, Note_on_c, 9, 46, 127
8, 58080, Note_on_c, 9, 49, 127
8, 58200, Note_on_c, 9, 35, 0
8, 58200, Note_on_c, 9, 46, 0
8, 58200, Note_on_c, 9, 49, 0
8, 58320, Note_on_c, 9, 35, 127
8, 58440, Note_on_c, 9, 35, 0
8, 58560, Note_on_c, 9, 38, 127
8, 58560, Note_on_c, 9, 46, 127
8, 58560, Note_on_c, 9, 49, 127
8, 58680, Note_on_c, 9, 38, 0
8, 58680, Note_on_c, 9, 46, 0
8, 58680, Note_on_c, 9, 49, 0
8, 58800, Note_on_c, 9, 35, 127
8, 58920, Note_on_c, 9, 35, 0
8, 58920, Note_on_c, 9, 35, 127
8, 59040, Note_on_c, 9, 35, 0
8, 59040, Note_on_c, 9, 35, 127
8, 59040, Note_on_c, 9, 46, 127
8, 59040, Note_on_c, 9, 49, 127
8, 59160, Note_on_c, 9, 35, 0
8, 59160, Note_on_c, 9, 35, 127
8, 59160, Note_on_c, 9, 46, 0
8, 59160, Note_on_c, 9, 49, 0
8, 59280, Note_on_c, 9, 35, 0
8, 59280, Note_on_c, 9, 35, 127
8, 59400, Note_on_c, 9, 35, 0
8, 59520, Note_on_c, 9, 35, 127
8, 59520, Note_on_c, 9, 46, 127
8, 59520, Note_on_c, 9, 49, 127
8, 59640, Note_on_c, 9, 35, 0
8, 59640, Note_on_c, 9, 46, 0
8, 59640, Note_on_c, 9, 49, 0
8, 59760, Note_on_c, 9, 38, 127
8, 59880, Note_on_c, 9, 38, 0
8, 60000, Note_on_c, 9, 46, 127
8, 60000, Note_on_c, 9, 49, 127
8, 60120, Note_on_c, 9, 46, 0
8, 60120, Note_on_c, 9, 49, 0
8, 60240, Note_on_c, 9, 35, 127
8, 60360, Note_on_c, 9, 35, 0
8, 60480, Note_on_c, 9, 38, 127
8, 60480, Note_on_c, 9, 46, 127
8, 60480, Note_on_c, 9, 49, 127
8, 60600, Note_on_c, 9, 38, 0
8, 60600, Note_on_c, 9, 46, 0
8, 60600, Note_on_c, 9, 49, 0
8, 60720, Note_on_c, 9, 35, 127
8, 60840, Note_on_c, 9, 35, 0
8, 60960, Note_on_c, 9, 38, 127
8, 60960, Note_on_c, 9, 46, 127
8, 60960, Note_on_c, 9, 49, 127
8, 61080, Note_on_c, 9, 35, 127
8, 61080, Note_on_c, 9, 38, 0
8, 61080, Note_on_c, 9, 46, 0
8, 61080, Note_on_c, 9, 49, 0
8, 61200, Note_on_c, 9, 35, 0
8, 61320, Note_on_c, 9, 38, 127
8, 61440, Note_on_c, 9, 35, 127
8, 61440, Note_on_c, 9, 38, 0
8, 61440, Note_on_c, 9, 46, 127
8, 61440, Note_on_c, 9, 49, 127
8, 61560, Note_on_c, 9, 35, 0
8, 61560, Note_on_c, 9, 35, 127
8, 61560, Note_on_c, 9, 46, 0
8, 61560, Note_on_c, 9, 49, 0
8, 61680, Note_on_c, 9, 35, 0
8, 61680, Note_on_c, 9, 38, 127
8, 61800, Note_on_c, 9, 38, 0
8, 61920, Note_on_c, 9, 35, 127
8, 61920, Note_on_c, 9, 46, 127
8, 61920, Note_on_c, 9, 49, 127
8, 62040, Note_on_c, 9, 35, 0
8, 62040, Note_on_c, 9, 46, 0
8, 62040, Note_on_c, 9, 49, 0
8, 62160, Note_on_c, 9, 35, 127
8, 62280, Note_on_c, 9, 35, 0
8, 62400, Note_on_c, 9, 38, 127
8, 62400, Note_on_c, 9, 46, 127
8, 62400, Note_on_c, 9, 49, 127
8, 62520, Note_on_c, 9, 38, 0
8, 62520, Note_on_c, 9, 46, 0
8, 62520, Note_on_c, 9, 49, 0
8, 62640, Note_on_c, 9, 35, 127
8, 62760, Note_on_c, 9, 35, 0
8, 62760, Note_on_c, 9, 35, 127
8, 62880, Note_on_c, 9, 35, 0
8, 62880, Note_on_c, 9, 35, 127
8, 62880, Note_on_c, 9, 46, 127
8, 62880, Note_on_c, 9, 49, 127
8, 63000, Note_on_c, 9, 35, 0
8, 63000, Note_on_c, 9, 35, 127
8, 63000, Note_on_c, 9, 46, 0
8, 63000, Note_on_c, 9, 49, 0
8, 63120, Note_on_c, 9, 35, 0
8, 63120, Note_on_c, 9, 35, 127
8, 63240, Note_on_c, 9, 35, 0
8, 63360, Note_on_c, 9, 35, 127
8, 63360, Note_on_c, 9, 46, 127
8, 63360, Note_on_c, 9, 49, 127
8, 63480, Note_on_c, 9, 35, 0
8, 63480, Note_on_c, 9, 46, 0
8, 63480, Note_on_c, 9, 49, 0
8, 63600, Note_on_c, 9, 38, 127
8, 63720, Note_on_c, 9, 38, 0
8, 63840, Note_on_c, 9, 46, 127
8, 63840, Note_on_c, 9, 49, 127
8, 63960, Note_on_c, 9, 46, 0
8, 63960, Note_on_c, 9, 49, 0
8, 64080, Note_on_c, 9, 35, 127
8, 64200, Note_on_c, 9, 35, 0
8, 64320, Note_on_c, 9, 38, 127
8, 64320, Note_on_c, 9, 46, 127
8, 64320, Note_on_c, 9, 49, 127
8, 64440, Note_on_c, 9, 38, 0
8, 64440, Note_on_c, 9, 46, 0
8, 64440, Note_on_c, 9, 49, 0
8, 64560, Note_on_c, 9, 35, 127
8, 64680, Note_on_c, 9, 35, 0
8, 64800, Note_on_c, 9, 38, 127
8, 64800, Note_on_c, 9, 46, 127
8, 64800, Note_on_c, 9, 49, 127
8, 64920, Note_on_c, 9, 35, 127
8, 64920, Note_on_c, 9, 38, 0
8, 64920, Note_on_c, 9, 46, 0
8, 64920, Note_on_c, 9, 49, 0
8, 65040, Note_on_c, 9, 35, 0
8, 65160, Note_on_c, 9, 38, 127
8, 65280, Note_on_c, 9, 35, 127
8, 65280, Note_on_c, 9, 38, 0
8, 65280, Note_on_c, 9, 46, 127
8, 65280, Note_on_c, 9, 49, 127
8, 65400, Note_on_c, 9, 35, 0
8, 65400, Note_on_c, 9, 35, 127
8, 65400, Note_on_c, 9, 46, 0
8, 65400, Note_on_c, 9, 49, 0
8, 65520, Note_on_c, 9, 35, 0
8, 65520, Note_on_c, 9, 38, 127
8, 65640, Note_on_c, 9, 38, 0
8, 65760, Note_on_c, 9, 35, 127
8, 65760, Note_on_c, 9, 46, 127
8, 65760, Note_on_c, 9, 49, 127
8, 65880, Note_on_c, 9, 35, 0
8, 65880, Note_on_c, 9, 46, 0
8, 65880, Note_on_c, 9, 49, 0
8, 66000, Note_on_c, 9, 35, 127
8, 66120, Note_on_c, 9, 35, 0
8, 66240, Note_on_c, 9, 38, 127
8, 66240, Note_on_c, 9, 46, 127
8, 66240, Note_on_c, 9, 49, 127
8, 66360, Note_on_c, 9, 38, 0
8, 66360, Note_on_c, 9, 46, 0
8, 66360, Note_on_c, 9, 49, 0
8, 66480, Note_on_c, 9, 35, 127
8, 66600, Note_on_c, 9, 35, 0
8, 66600, Note_on_c, 9, 35, 127
8, 66720, Note_on_c, 9, 35, 0
8, 66720, Note_on_c, 9, 35, 127
8, 66720, Note_on_c, 9, 46, 127
8, 66720, Note_on_c, 9, 49, 127
8, 66840, Note_on_c, 9, 35, 0
8, 66840, Note_on_c, 9, 35, 127
8, 66840, Note_on_c, 9, 46, 0
8, 66840, Note_on_c, 9, 49, 0
8, 66960, Note_on_c, 9, 35, 0
8, 66960, Note_on_c, 9, 35, 127
8, 67080, Note_on_c, 9, 35, 0
8, 67200, Note_on_c, 9, 35, 127
8, 67200, Note_on_c, 9, 46, 127
8, 67200, Note_on_c, 9, 49, 127
8, 67320, Note_on_c, 9, 35, 0
8, 67320, Note_on_c, 9, 46, 0
8, 67320, Note_on_c, 9, 49, 0
8, 67440, Note_on_c, 9, 38, 127
8, 67560, Note_on_c, 9, 38, 0
8, 67680, Note_on_c, 9, 46, 127
8, 67680, Note_on_c, 9, 49, 127
8, 67800, Note_on_c, 9, 46, 0
8, 67800, Note_on_c, 9, 49, 0
8, 67920, Note_on_c, 9, 35, 127
8, 68040, Note_on_c, 9, 35, 0
8, 68160, Note_on_c, 9, 38, 127
8, 68160, Note_on_c, 9, 46, 127
8, 68160, Note_on_c, 9, 49, 127
8, 68280, Note_on_c, 9, 38, 0
8, 68280, Note_on_c, 9, 46, 0
8, 68280, Note_on_c, 9, 49, 0
8, 68400, Note_on_c, 9, 35, 127
8, 68520, Note_on_c, 9, 35, 0
8, 68640, Note_on_c, 9, 38, 127
8, 68640, Note_on_c, 9, 46, 127
8, 68640, Note_on_c, 9, 49, 127
8, 68760, Note_on_c, 9, 35, 127
8, 68760, Note_on_c, 9, 38, 0
8, 68760, Note_on_c, 9, 46, 0
8, 68760, Note_on_c, 9, 49, 0
8, 68880, Note_on_c, 9, 35, 0
8, 69000, Note_on_c, 9, 38, 127
8, 69120, Note_on_c, 9, 35, 127
8, 69120, Note_on_c, 9, 38, 0
8, 69120, Note_on_c, 9, 46, 127
8, 69120, Note_on_c, 9, 49, 127
8, 69240, Note_on_c, 9, 35, 0
8, 69240, Note_on_c, 9, 35, 127
8, 69240, Note_on_c, 9, 46, 0
8, 69240, Note_on_c, 9, 49, 0
8, 69360, Note_on_c, 9, 35, 0
8, 69360, Note_on_c, 9, 38, 127
8, 69480, Note_on_c, 9, 38, 0
8, 69600, Note_on_c, 9, 36, 127
8, 69720, Note_on_c, 9, 36, 0
8, 70080, Note_on_c, 9, 36, 127
8, 70200, Note_on_c, 9, 36, 0
8, 70320, Note_on_c, 9, 36, 91
8, 70440, Note_on_c, 9, 36, 0
8, 70440, Note_on_c, 9, 36, 91
8, 70560, Note_on_c, 9, 36, 0
8, 70560, Note_on_c, 9, 36, 127
8, 70680, Note_on_c, 9, 36, 0
8, 70800, Note_on_c, 9, 36, 91
8, 70920, Note_on_c, 9, 36, 0
8, 71040, Note_on_c, 9, 36, 127
8, 71160, Note_on_c, 9, 36, 0
8, 71280, Note_on_c, 9, 36, 91
8, 71400, Note_on_c, 9, 36, 0
8, 71520, Note_on_c, 9, 36, 127
8, 71640, Note_on_c, 9, 36, 0
8, 71760, Note_on_c, 9, 36, 127
8, 71760, Note_on_c, 9, 35, 127
8, 71880, Note_on_c, 9, 36, 0
8, 71880, Note_on_c, 9, 35, 0
8, 72000, Note_on_c, 9, 36, 127
8, 72000, Note_on_c, 9, 36, 127
8, 72000, Note_on_c, 9, 38, 127
8, 72120, Note_on_c, 9, 36, 0
8, 72120, Note_on_c, 9, 36, 0
8, 72120, Note_on_c, 9, 38, 0
8, 72240, Note_on_c, 9, 36, 91
8, 72240, Note_on_c, 9, 36, 91
8, 72240, Note_on_c, 9, 35, 127
8, 72360, Note_on_c, 9, 36, 0
8, 72360, Note_on_c, 9, 36, 91
8, 72360, Note_on_c, 9, 36, 0
8, 72360, Note_on_c, 9, 36, 91
8, 72360, Note_on_c, 9, 35, 0
8, 72480, Note_on_c, 9, 36, 0
8, 72480, Note_on_c, 9, 36, 127
8, 72480, Note_on_c, 9, 36, 0
8, 72480, Note_on_c, 9, 36, 127
8, 72480, Note_on_c, 9, 38, 127
8, 72600, Note_on_c, 9, 36, 0
8, 72600, Note_on_c, 9, 36, 0
8, 72600, Note_on_c, 9, 35, 127
8, 72600, Note_on_c, 9, 38, 0
8, 72720, Note_on_c, 9, 36, 91
8, 72720, Note_on_c, 9, 36, 91
8, 72720, Note_on_c, 9, 35, 0
8, 72840, Note_on_c, 9, 36, 0
8, 72840, Note_on_c, 9, 36, 0
8, 72840, Note_on_c, 9, 38, 127
8, 72960, Note_on_c, 9, 36, 127
8, 72960, Note_on_c, 9, 36, 127
8, 72960, Note_on_c, 9, 35, 127
8, 72960, Note_on_c, 9, 38, 0
8, 73080, Note_on_c, 9, 36, 0
8, 73080, Note_on_c, 9, 36, 0
8, 73080, Note_on_c, 9, 35, 0
8, 73080, Note_on_c, 9, 35, 127
8, 73200, Note_on_c, 9, 36, 91
8, 73200, Note_on_c, 9, 36, 91
8, 73200, Note_on_c, 9, 35, 0
8, 73200, Note_on_c, 9, 38, 127
8, 73320, Note_on_c, 9, 36, 0
8, 73320, Note_on_c, 9, 36, 0
8, 73320, Note_on_c, 9, 38, 0
8, 73440, Note_on_c, 9, 36, 127
8, 73440, Note_on_c, 9, 35, 127
8, 73560, Note_on_c, 9, 36, 0
8, 73560, Note_on_c, 9, 35, 0
8, 73680, Note_on_c, 9, 35, 127
8, 73800, Note_on_c, 9, 35, 0
8, 73920, Note_on_c, 9, 36, 127
8, 73920, Note_on_c, 9, 38, 127
8, 74040, Note_on_c, 9, 36, 0
8, 74040, Note_on_c, 9, 38, 0
8, 74160, Note_on_c, 9, 36, 91
8, 74160, Note_on_c, 9, 35, 127
8, 74280, Note_on_c, 9, 36, 0
8, 74280, Note_on_c, 9, 36, 91
8, 74280, Note_on_c, 9, 35, 0
8, 74280, Note_on_c, 9, 35, 127
8, 74400, Note_on_c, 9, 36, 0
8, 74400, Note_on_c, 9, 36, 127
8, 74400, Note_on_c, 9, 35, 0
8, 74400, Note_on_c, 9, 35, 127
8, 74520, Note_on_c, 9, 36, 0
8, 74520, Note_on_c, 9, 35, 0
8, 74520, Note_on_c, 9, 35, 127
8, 74640, Note_on_c, 9, 36, 91
8, 74640, Note_on_c, 9, 35, 0
8, 74640, Note_on_c, 9, 35, 127
8, 74760, Note_on_c, 9, 36, 0
8, 74760, Note_on_c, 9, 35, 0
8, 74880, Note_on_c, 9, 36, 127
8, 74880, Note_on_c, 9, 35, 127
8, 75000, Note_on_c, 9, 36, 0
8, 75000, Note_on_c, 9, 35, 0
8, 75120, Note_on_c, 9, 36, 91
8, 75120, Note_on_c, 9, 38, 127
8, 75240, Note_on_c, 9, 36, 0
8, 75240, Note_on_c, 9, 38, 0
8, 75600, Note_on_c, 9, 36, 127
8, 75600, Note_on_c, 9, 35, 127
8, 75720, Note_on_c, 9, 36, 0
8, 75720, Note_on_c, 9, 35, 0
8, 75840, Note_on_c, 9, 36, 127
8, 75840, Note_on_c, 9, 38, 127
8, 75960, Note_on_c, 9, 36, 0
8, 75960, Note_on_c, 9, 38, 0
8, 76080, Note_on_c, 9, 36, 91
8, 76080, Note_on_c, 9, 35, 127
8, 76200, Note_on_c, 9, 36, 0
8, 76200, Note_on_c, 9, 36, 91
8, 76200, Note_on_c, 9, 35, 0
8, 76320, Note_on_c, 9, 36, 0
8, 76320, Note_on_c, 9, 36, 127
8, 76320, Note_on_c, 9, 38, 127
8, 76440, Note_on_c, 9, 36, 0
8, 76440, Note_on_c, 9, 35, 127
8, 76440, Note_on_c, 9, 38, 0
8, 76560, Note_on_c, 9, 36, 91
8, 76560, Note_on_c, 9, 35, 0
8, 76680, Note_on_c, 9, 36, 0
8, 76680, Note_on_c, 9, 38, 127
8, 76800, Note_on_c, 9, 36, 127
8, 76800, Note_on_c, 9, 35, 127
8, 76800, Note_on_c, 9, 38, 0
8, 76920, Note_on_c, 9, 36, 0
8, 76920, Note_on_c, 9, 35, 0
8, 76920, Note_on_c, 9, 35, 127
8, 77040, Note_on_c, 9, 36, 91
8, 77040, Note_on_c, 9, 35, 0
8, 77040, Note_on_c, 9, 38, 127
8, 77160, Note_on_c, 9, 36, 0
8, 77160, Note_on_c, 9, 38, 0
8, 77280, Note_on_c, 9, 35, 127
8, 77400, Note_on_c, 9, 35, 0
8, 77520, Note_on_c, 9, 35, 127
8, 77640, Note_on_c, 9, 35, 0
8, 77760, Note_on_c, 9, 38, 127
8, 77880, Note_on_c, 9, 38, 0
8, 78000, Note_on_c, 9, 35, 127
8, 78120, Note_on_c, 9, 35, 0
8, 78120, Note_on_c, 9, 35, 127
8, 78240, Note_on_c, 9, 35, 0
8, 78240, Note_on_c, 9, 35, 127
8, 78360, Note_on_c, 9, 35, 0
8, 78360, Note_on_c, 9, 35, 127
8, 78480, Note_on_c, 9, 35, 0
8, 78480, Note_on_c, 9, 35, 127
8, 78600, Note_on_c, 9, 35, 0
8, 78720, Note_on_c, 9, 35, 127
8, 78840, Note_on_c, 9, 35, 0
8, 78960, Note_on_c, 9, 38, 127
8, 79080, Note_on_c, 9, 38, 0
8, 79440, Note_on_c, 9, 35, 127
8, 79560, Note_on_c, 9, 35, 0
8, 79680, Note_on_c, 9, 38, 127
8, 79800, Note_on_c, 9, 38, 0
8, 79920, Note_on_c, 9, 35, 127
8, 80040, Note_on_c, 9, 35, 0
8, 80160, Note_on_c, 9, 38, 127
8, 80280, Note_on_c, 9, 35, 127
8, 80280, Note_on_c, 9, 38, 0
8, 80400, Note_on_c, 9, 35, 0
8, 80520, Note_on_c, 9, 38, 127
8, 80640, Note_on_c, 9, 35, 127
8, 80640, Note_on_c, 9, 38, 0
8, 80760, Note_on_c, 9, 35, 0
8, 80760, Note_on_c, 9, 35, 127
8, 80880, Note_on_c, 9, 35, 0
8, 80880, Note_on_c, 9, 38, 127
8, 81000, Note_on_c, 9, 38, 0
8, 81120, Note_on_c, 9, 35, 127
8, 81240, Note_on_c, 9, 35, 0
8, 81360, Note_on_c, 9, 35, 127
8, 81480, Note_on_c, 9, 35, 0
8, 81600, Note_on_c, 9, 38, 127
8, 81720, Note_on_c, 9, 38, 0
8, 81840, Note_on_c, 9, 35, 127
8, 81960, Note_on_c, 9, 35, 0
8, 81960, Note_on_c, 9, 35, 127
8, 82080, Note_on_c, 9, 35, 0
8, 82080, Note_on_c, 9, 35, 127
8, 82200, Note_on_c, 9, 35, 0
8, 82200, Note_on_c, 9, 35, 127
8, 82320, Note_on_c, 9, 35, 0
8, 82320, Note_on_c, 9, 35, 127
8, 82440, Note_on_c, 9, 35, 0
8, 82560, Note_on_c, 9, 35, 127
8, 82680, Note_on_c, 9, 35, 0
8, 82800, Note_on_c, 9, 38, 127
8, 82920, Note_on_c, 9, 38, 0
8, 83280, Note_on_c, 9, 35, 127
8, 83400, Note_on_c, 9, 35, 0
8, 83520, Note_on_c, 9, 38, 127
8, 83640, Note_on_c, 9, 38, 0
8, 83760, Note_on_c, 9, 35, 127
8, 83880, Note_on_c, 9, 35, 0
8, 84000, Note_on_c, 9, 38, 127
8, 84120, Note_on_c, 9, 35, 127
8, 84120, Note_on_c, 9, 38, 0
8, 84240, Note_on_c, 9, 35, 0
8, 84360, Note_on_c, 9, 38, 127
8, 84480, Note_on_c, 9, 35, 127
8, 84480, Note_on_c, 9, 38, 0
8, 84600, Note_on_c, 9, 35, 0
8, 84600, Note_on_c, 9, 35, 127
8, 84720, Note_on_c, 9, 35, 0
8, 84720, Note_on_c, 9, 38, 127
8, 84840, Note_on_c, 9, 38, 0
8, 84960, Note_on_c, 9, 35, 127
8, 85080, Note_on_c, 9, 35, 0
8, 85200, Note_on_c, 9, 35, 127
8, 85320, Note_on_c, 9, 35, 0
8, 85440, Note_on_c, 9, 38, 127
8, 85560, Note_on_c, 9, 38, 0
8, 85680, Note_on_c, 9, 35, 127
8, 85800, Note_on_c, 9, 35, 0
8, 85800, Note_on_c, 9, 35, 127
8, 85920, Note_on_c, 9, 35, 0
8, 85920, Note_on_c, 9, 35, 127
8, 86040, Note_on_c, 9, 35, 0
8, 86040, Note_on_c, 9, 35, 127
8, 86160, Note_on_c, 9, 35, 0
8, 86160, Note_on_c, 9, 35, 127
8, 86280, Note_on_c, 9, 35, 0
8, 86400, Note_on_c, 9, 35, 127
8, 86520, Note_on_c, 9, 35, 0
8, 86640, Note_on_c, 9, 38, 127
8, 86760, Note_on_c, 9, 38, 0
8, 87120, Note_on_c, 9, 35, 127
8, 87240, Note_on_c, 9, 35, 0
8, 87360, Note_on_c, 9, 38, 127
8, 87480, Note_on_c, 9, 38, 0
8, 87600, Note_on_c, 9, 35, 127
8, 87720, Note_on_c, 9, 35, 0
8, 87840, Note_on_c, 9, 38, 127
8, 87960, Note_on_c, 9, 35, 127
8, 87960, Note_on_c, 9, 38, 0
8, 88080, Note_on_c, 9, 35, 0
8, 88200, Note_on_c, 9, 38, 127
8, 88320, Note_on_c, 9, 35, 127
8, 88320, Note_on_c, 9, 38, 0
8, 88440, Note_on_c, 9, 35, 0
8, 88440, Note_on_c, 9, 35, 127
8, 88560, Note_on_c, 9, 35, 0
8, 88560, Note_on_c, 9, 38, 127
8, 88680, Note_on_c, 9, 38, 0
8, 88800, Note_on_c, 9, 35, 127
8, 88920, Note_on_c, 9, 35, 0
8, 89040, Note_on_c, 9, 35, 127
8, 89160, Note_on_c, 9, 35, 0
8, 89280, Note_on_c, 9, 38, 127
8, 89400, Note_on_c, 9, 38, 0
8, 89520, Note_on_c, 9, 35, 127
8, 89640, Note_on_c, 9, 35, 0
8, 89640, Note_on_c, 9, 35, 127
8, 89760, Note_on_c, 9, 35, 0
8, 89760, Note_on_c, 9, 35, 127
8, 89880, Note_on_c, 9, 35, 0
8, 89880, Note_on_c, 9, 35, 127
8, 90000, Note_on_c, 9, 35, 0
8, 90000, Note_on_c, 9, 35, 127
8, 90120, Note_on_c, 9, 35, 0
8, 90240, Note_on_c, 9, 35, 127
8, 90360, Note_on_c, 9, 35, 0
8, 90480, Note_on_c, 9, 38, 127
8, 90600, Note_on_c, 9, 38, 0
8, 90960, Note_on_c, 9, 35, 127
8, 91080, Note_on_c, 9, 35, 0
8, 91200, Note_on_c, 9, 38, 127
8, 91320, Note_on_c, 9, 38, 0
8, 91440, Note_on_c, 9, 35, 127
8, 91560, Note_on_c, 9, 35, 0
8, 91680, Note_on_c, 9, 38, 127
8, 91800, Note_on_c, 9, 35, 127
8, 91800, Note_on_c, 9, 38, 0
8, 91920, Note_on_c, 9, 35, 0
8, 92040, Note_on_c, 9, 38, 127
8, 92160, Note_on_c, 9, 35, 127
8, 92160, Note_on_c, 9, 38, 0
8, 92280, Note_on_c, 9, 35, 0
8, 92280, Note_on_c, 9, 35, 127
8, 92400, Note_on_c, 9, 35, 0
8, 92400, Note_on_c, 9, 38, 127
8, 92520, Note_on_c, 9, 38, 0
8, 92640, Note_on_c, 9, 35, 127
8, 92760, Note_on_c, 9, 35, 0
8, 92880, Note_on_c, 9, 35, 127
8, 93000, Note_on_c, 9, 35, 0
8, 93120, Note_on_c, 9, 38, 127
8, 93240, Note_on_c, 9, 38, 0
8, 93360, Note_on_c, 9, 35, 127
8, 93480, Note_on_c, 9, 35, 0
8, 93480, Note_on_c, 9, 35, 127
8, 93600, Note_on_c, 9, 35, 0
8, 93600, Note_on_c, 9, 35, 127
8, 93720, Note_on_c, 9, 35, 0
8, 93720, Note_on_c, 9, 35, 127
8, 93840, Note_on_c, 9, 35, 0
8, 93840, Note_on_c, 9, 35, 127
8, 93960, Note_on_c, 9, 35, 0
8, 94080, Note_on_c, 9, 35, 127
8, 94200, Note_on_c, 9, 35, 0
8, 94320, Note_on_c, 9, 38, 127
8, 94440, Note_on_c, 9, 38, 0
8, 94800, Note_on_c, 9, 35, 127
8, 94920, Note_on_c, 9, 35, 0
8, 95040, Note_on_c, 9, 38, 127
8, 95160, Note_on_c, 9, 38, 0
8, 95280, Note_on_c, 9, 35, 127
8, 95400, Note_on_c, 9, 35, 0
8, 95520, Note_on_c, 9, 38, 127
8, 95640, Note_on_c, 9, 35, 127
8, 95640, Note_on_c, 9, 38, 0
8, 95760, Note_on_c, 9, 35, 0
8, 95880, Note_on_c, 9, 38, 127
8, 96000, Note_on_c, 9, 35, 127
8, 96000, Note_on_c, 9, 38, 0
8, 96120, Note_on_c, 9, 35, 0
8, 96120, Note_on_c, 9, 35, 127
8, 96240, Note_on_c, 9, 35, 0
8, 96240, Note_on_c, 9, 38, 127
8, 96360, Note_on_c, 9, 38, 0
8, 96480, Note_on_c, 9, 35, 127
8, 96600, Note_on_c, 9, 35, 0
8, 96720, Note_on_c, 9, 35, 127
8, 96840, Note_on_c, 9, 35, 0
8, 96960, Note_on_c, 9, 38, 127
8, 97080, Note_on_c, 9, 38, 0
8, 97200, Note_on_c, 9, 35, 127
8, 97320, Note_on_c, 9, 35, 0
8, 97320, Note_on_c, 9, 35, 127
8, 97440, Note_on_c, 9, 35, 0
8, 97440, Note_on_c, 9, 35, 127
8, 97560, Note_on_c, 9, 35, 0
8, 97560, Note_on_c, 9, 35, 127
8, 97680, Note_on_c, 9, 35, 0
8, 97680, Note_on_c, 9, 35, 127
8, 97800, Note_on_c, 9, 35, 0
8, 97920, Note_on_c, 9, 35, 127
8, 98040, Note_on_c, 9, 35, 0
8, 98160, Note_on_c, 9, 38, 127
8, 98280, Note_on_c, 9, 38, 0
8, 98640, Note_on_c, 9, 35, 127
8, 98760, Note_on_c, 9, 35, 0
8, 98880, Note_on_c, 9, 38, 127
8, 99000, Note_on_c, 9, 38, 0
8, 99120, Note_on_c, 9, 35, 127
8, 99240, Note_on_c, 9, 35, 0
8, 99360, Note_on_c, 9, 38, 127
8, 99480, Note_on_c, 9, 35, 127
8, 99480, Note_on_c, 9, 38, 0
8, 99600, Note_on_c, 9, 35, 0
8, 99720, Note_on_c, 9, 35, 127
8, 99720, Note_on_c, 9, 38, 127
8, 99840, Note_on_c, 9, 35, 0
8, 99840, Note_on_c, 9, 35, 127
8, 99840, Note_on_c, 9, 38, 0
8, 99840, Note_on_c, 9, 38, 127
8, 99960, Note_on_c, 9, 35, 0
8, 99960, Note_on_c, 9, 35, 127
8, 99960, Note_on_c, 9, 38, 0
8, 99960, Note_on_c, 9, 38, 127
8, 100080, Note_on_c, 9, 35, 0
8, 100080, Note_on_c, 9, 38, 0
8, 100080, Note_on_c, 9, 38, 127
8, 100200, Note_on_c, 9, 38, 0
8, 100200, Note_on_c, 9, 38, 127
8, 100320, Note_on_c, 9, 35, 127
8, 100320, Note_on_c, 9, 38, 0
8, 100320, Note_on_c, 9, 46, 127
8, 100320, Note_on_c, 9, 49, 127
8, 100440, Note_on_c, 9, 35, 0
8, 100440, Note_on_c, 9, 46, 0
8, 100440, Note_on_c, 9, 49, 0
8, 100560, Note_on_c, 9, 35, 127
8, 100680, Note_on_c, 9, 35, 0
8, 100800, Note_on_c, 9, 38, 127
8, 100800, Note_on_c, 9, 46, 127
8, 100800, Note_on_c, 9, 49, 127
8, 100920, Note_on_c, 9, 38, 0
8, 100920, Note_on_c, 9, 46, 0
8, 100920, Note_on_c, 9, 49, 0
8, 101040, Note_on_c, 9, 35, 127
8, 101160, Note_on_c, 9, 35, 0
8, 101160, Note_on_c, 9, 35, 127
8, 101280, Note_on_c, 9, 35, 0
8, 101280, Note_on_c, 9, 35, 127
8, 101280, Note_on_c, 9, 46, 127
8, 101280, Note_on_c, 9, 49, 127
8, 101400, Note_on_c, 9, 35, 0
8, 101400, Note_on_c, 9, 35, 127
8, 101400, Note_on_c, 9, 46, 0
8, 101400, Note_on_c, 9, 49, 0
8, 101520, Note_on_c, 9, 35, 0
8, 101520, Note_on_c, 9, 35, 127
8, 101640, Note_on_c, 9, 35, 0
8, 101760, Note_on_c, 9, 35, 127
8, 101760, Note_on_c, 9, 46, 127
8, 101760, Note_on_c, 9, 49, 127
8, 101880, Note_on_c, 9, 35, 0
8, 101880, Note_on_c, 9, 46, 0
8, 101880, Note_on_c, 9, 49, 0
8, 102000, Note_on_c, 9, 38, 127
8, 102120, Note_on_c, 9, 38, 0
8, 102240, Note_on_c, 9, 46, 127
8, 102240, Note_on_c, 9, 49, 127
8, 102360, Note_on_c, 9, 46, 0
8, 102360, Note_on_c, 9, 49, 0
8, 102480, Note_on_c, 9, 35, 127
8, 102600, Note_on_c, 9, 35, 0
8, 102720, Note_on_c, 9, 38, 127
8, 102720, Note_on_c, 9, 46, 127
8, 102720, Note_on_c, 9, 49, 127
8, 102840, Note_on_c, 9, 38, 0
8, 102840, Note_on_c, 9, 46, 0
8, 102840, Note_on_c, 9, 49, 0
8, 102960, Note_on_c, 9, 35, 127
8, 103080, Note_on_c, 9, 35, 0
8, 103200, Note_on_c, 9, 38, 127
8, 103200, Note_on_c, 9, 46, 127
8, 103200, Note_on_c, 9, 49, 127
8, 103320, Note_on_c, 9, 35, 127
8, 103320, Note_on_c, 9, 38, 0
8, 103320, Note_on_c, 9, 46, 0
8, 103320, Note_on_c, 9, 49, 0
8, 103440, Note_on_c, 9, 35, 0
8, 103560, Note_on_c, 9, 38, 127
8, 103680, Note_on_c, 9, 35, 127
8, 103680, Note_on_c, 9, 38, 0
8, 103680, Note_on_c, 9, 46, 127
8, 103680, Note_on_c, 9, 49, 127
8, 103800, Note_on_c, 9, 35, 0
8, 103800, Note_on_c, 9, 35, 127
8, 103800, Note_on_c, 9, 46, 0
8, 103800, Note_on_c, 9, 49, 0
8, 103920, Note_on_c, 9, 35, 0
8, 103920, Note_on_c, 9, 38, 127
8, 104040, Note_on_c, 9, 38, 0
8, 104160, Note_on_c, 9, 35, 127
8, 104160, Note_on_c, 9, 46, 127
8, 104160, Note_on_c, 9, 49, 127
8, 104280, Note_on_c, 9, 35, 0
8, 104280, Note_on_c, 9, 46, 0
8, 104280, Note_on_c, 9, 49, 0
8, 104400, Note_on_c, 9, 35, 127
8, 104520, Note_on_c, 9, 35, 0
8, 104640, Note_on_c, 9, 38, 127
8, 104640, Note_on_c, 9, 46, 127
8, 104640, Note_on_c, 9, 49, 127
8, 104760, Note_on_c, 9, 38, 0
8, 104760, Note_on_c, 9, 46, 0
8, 104760, Note_on_c, 9, 49, 0
8, 104880, Note_on_c, 9, 35, 127
8, 105000, Note_on_c, 9, 35, 0
8, 105000, Note_on_c, 9, 35, 127
8, 105120, Note_on_c, 9, 35, 0
8, 105120, Note_on_c, 9, 35, 127
8, 105120, Note_on_c, 9, 46, 127
8, 105120, Note_on_c, 9, 49, 127
8, 105240, Note_on_c, 9, 35, 0
8, 105240, Note_on_c, 9, 35, 127
8, 105240, Note_on_c, 9, 46, 0
8, 105240, Note_on_c, 9, 49, 0
8, 105360, Note_on_c, 9, 35, 0
8, 105360, Note_on_c, 9, 35, 127
8, 105480, Note_on_c, 9, 35, 0
8, 105600, Note_on_c, 9, 35, 127
8, 105600, Note_on_c, 9, 46, 127
8, 105600, Note_on_c, 9, 49, 127
8, 105720, Note_on_c, 9, 35, 0
8, 105720, Note_on_c, 9, 46, 0
8, 105720, Note_on_c, 9, 49, 0
8, 105840, Note_on_c, 9, 38, 127
8, 105960, Note_on_c, 9, 38, 0
8, 106080, Note_on_c, 9, 46, 127
8, 106080, Note_on_c, 9, 49, 127
8, 106200, Note_on_c, 9, 46, 0
8, 106200, Note_on_c, 9, 49, 0
8, 106320, Note_on_c, 9, 35, 127
8, 106440, Note_on_c, 9, 35, 0
8, 106560, Note_on_c, 9, 38, 127
8, 106560, Note_on_c, 9, 46, 127
8, 106560, Note_on_c, 9, 49, 127
8, 106680, Note_on_c, 9, 38, 0
8, 106680, Note_on_c, 9, 46, 0
8, 106680, Note_on_c, 9, 49, 0
8, 106800, Note_on_c, 9, 35, 127
8, 106920, Note_on_c, 9, 35, 0
8, 107040, Note_on_c, 9, 38, 127
8, 107040, Note_on_c, 9, 46, 127
8, 107040, Note_on_c, 9, 49, 127
8, 107160, Note_on_c, 9, 35, 127
8, 107160, Note_on_c, 9, 38, 0
8, 107160, Note_on_c, 9, 46, 0
8, 107160, Note_on_c, 9, 49, 0
8, 107280, Note_on_c, 9, 35, 0
8, 107400, Note_on_c, 9, 38, 127
8, 107520, Note_on_c, 9, 35, 127
8, 107520, Note_on_c, 9, 38, 0
8, 107520, Note_on_c, 9, 46, 127
8, 107520, Note_on_c, 9, 49, 127
8, 107640, Note_on_c, 9, 35, 0
8, 107640, Note_on_c, 9, 35, 127
8, 107640, Note_on_c, 9, 46, 0
8, 107640, Note_on_c, 9, 49, 0
8, 107760, Note_on_c, 9, 35, 0
8, 107760, Note_on_c, 9, 38, 127
8, 107880, Note_on_c, 9, 38, 0
8, 108000, Note_on_c, 9, 35, 127
8, 108000, Note_on_c, 9, 46, 127
8, 108000, Note_on_c, 9, 49, 127
8, 108120, Note_on_c, 9, 35, 0
8, 108120, Note_on_c, 9, 46, 0
8, 108120, Note_on_c, 9, 49, 0
8, 108240, Note_on_c, 9, 35, 127
8, 108360, Note_on_c, 9, 35, 0
8, 108480, Note_on_c, 9, 38, 127
8, 108480, Note_on_c, 9, 46, 127
8, 108480, Note_on_c, 9, 49, 127
8, 108600, Note_on_c, 9, 38, 0
8, 108600, Note_on_c, 9, 46, 0
8, 108600, Note_on_c, 9, 49, 0
8, 108720, Note_on_c, 9, 35, 127
8, 108840, Note_on_c, 9, 35, 0
8, 108840, Note_on_c, 9, 35, 127
8, 108960, Note_on_c, 9, 35, 0
8, 108960, Note_on_c, 9, 35, 127
8, 108960, Note_on_c, 9, 46, 127
8, 108960, Note_on_c, 9, 49, 127
8, 109080, Note_on_c, 9, 35, 0
8, 109080, Note_on_c, 9, 35, 127
8, 109080, Note_on_c, 9, 46, 0
8, 109080, Note_on_c, 9, 49, 0
8, 109200, Note_on_c, 9, 35, 0
8, 109200, Note_on_c, 9, 35, 127
8, 109320, Note_on_c, 9, 35, 0
8, 109440, Note_on_c, 9, 35, 127
8, 109440, Note_on_c, 9, 46, 127
8, 109440, Note_on_c, 9, 49, 127
8, 109560, Note_on_c, 9, 35, 0
8, 109560, Note_on_c, 9, 46, 0
8, 109560, Note_on_c, 9, 49, 0
8, 109680, Note_on_c, 9, 38, 127
8, 109800, Note_on_c, 9, 38, 0
8, 109920, Note_on_c, 9, 46, 127
8, 109920, Note_on_c, 9, 49, 127
8, 110040, Note_on_c, 9, 46, 0
8, 110040, Note_on_c, 9, 49, 0
8, 110160, Note_on_c, 9, 35, 127
8, 110280, Note_on_c, 9, 35, 0
8, 110400, Note_on_c, 9, 38, 127
8, 110400, Note_on_c, 9, 46, 127
8, 110400, Note_on_c, 9, 49, 127
8, 110520, Note_on_c, 9, 38, 0
8, 110520, Note_on_c, 9, 46, 0
8, 110520, Note_on_c, 9, 49, 0
8, 110640, Note_on_c, 9, 35, 127
8, 110760, Note_on_c, 9, 35, 0
8, 110880, Note_on_c, 9, 38, 127
8, 110880, Note_on_c, 9, 46, 127
8, 110880, Note_on_c, 9, 49, 127
8, 111000, Note_on_c, 9, 35, 127
8, 111000, Note_on_c, 9, 38, 0
8, 111000, Note_on_c, 9, 46, 0
8, 111000, Note_on_c, 9, 49, 0
8, 111120, Note_on_c, 9, 35, 0
8, 111240, Note_on_c, 9, 38, 127
8, 111360, Note_on_c, 9, 35, 127
8, 111360, Note_on_c, 9, 38, 0
8, 111360, Note_on_c, 9, 46, 127
8, 111360, Note_on_c, 9, 49, 127
8, 111480, Note_on_c, 9, 35, 0
8, 111480, Note_on_c, 9, 35, 127
8, 111480, Note_on_c, 9, 46, 0
8, 111480, Note_on_c, 9, 49, 0
8, 111600, Note_on_c, 9, 35, 0
8, 111600, Note_on_c, 9, 38, 127
8, 111720, Note_on_c, 9, 38, 0
8, 111840, Note_on_c, 9, 35, 127
8, 111840, Note_on_c, 9, 46, 127
8, 111840, Note_on_c, 9, 49, 127
8, 111960, Note_on_c, 9, 35, 0
8, 111960, Note_on_c, 9, 46, 0
8, 111960, Note_on_c, 9, 49, 0
8, 112080, Note_on_c, 9, 35, 127
8, 112200, Note_on_c, 9, 35, 0
8, 112320, Note_on_c, 9, 38, 127
8, 112320, Note_on_c, 9, 46, 127
8, 112320, Note_on_c, 9, 49, 127
8, 112440, Note_on_c, 9, 38, 0
8, 112440, Note_on_c, 9, 46, 0
8, 112440, Note_on_c, 9, 49, 0
8, 112560, Note_on_c, 9, 35, 127
8, 112680, Note_on_c, 9, 35, 0
8, 112680, Note_on_c, 9, 35, 127
8, 112800, Note_on_c, 9, 35, 0
8, 112800, Note_on_c, 9, 35, 127
8, 112800, Note_on_c, 9, 46, 127
8, 112800, Note_on_c, 9, 49, 127
8, 112920, Note_on_c, 9, 35, 0
8, 112920, Note_on_c, 9, 35, 127
8, 112920, Note_on_c, 9, 46, 0
8, 112920, Note_on_c, 9, 49, 0
8, 113040, Note_on_c, 9, 35, 0
8, 113040, Note_on_c, 9, 35, 127
8, 113160, Note_on_c, 9, 35, 0
8, 113280, Note_on_c, 9, 35, 127
8, 113280, Note_on_c, 9, 46, 127
8, 113280, Note_on_c, 9, 49, 127
8, 113400, Note_on_c, 9, 35, 0
8, 113400, Note_on_c, 9, 46, 0
8, 113400, Note_on_c, 9, 49, 0
8, 113520, Note_on_c, 9, 38, 127
8, 113640, Note_on_c, 9, 38, 0
8, 113760, Note_on_c, 9, 46, 127
8, 113760, Note_on_c, 9, 49, 127
8, 113880, Note_on_c, 9, 46, 0
8, 113880, Note_on_c, 9, 49, 0
8, 114000, Note_on_c, 9, 35, 127
8, 114120, Note_on_c, 9, 35, 0
8, 114240, Note_on_c, 9, 38, 127
8, 114240, Note_on_c, 9, 46, 127
8, 114240, Note_on_c, 9, 49, 127
8, 114360, Note_on_c, 9, 38, 0
8, 114360, Note_on_c, 9, 46, 0
8, 114360, Note_on_c, 9, 49, 0
8, 114480, Note_on_c, 9, 35, 127
8, 114600, Note_on_c, 9, 35, 0
8, 114720, Note_on_c, 9, 38, 127
8, 114720, Note_on_c, 9, 46, 127
8, 114720, Note_on_c, 9, 49, 127
8, 114840, Note_on_c, 9, 35, 127
8, 114840, Note_on_c, 9, 38, 0
8, 114840, Note_on_c, 9, 46, 0
8, 114840, Note_on_c, 9, 49, 0
8, 114960, Note_on_c, 9, 35, 0
8, 115080, Note_on_c, 9, 38, 127
8, 115200, Note_on_c, 9, 35, 127
8, 115200, Note_on_c, 9, 38, 0
8, 115200, Note_on_c, 9, 46, 127
8, 115200, Note_on_c, 9, 49, 127
8, 115320, Note_on_c, 9, 35, 0
8, 115320, Note_on_c, 9, 35, 127
8, 115320, Note_on_c, 9, 46, 0
8, 115320, Note_on_c, 9, 49, 0
8, 115440, Note_on_c, 9, 35, 0
8, 115440, Note_on_c, 9, 38, 127
8, 115560, Note_on_c, 9, 38, 0
8, 131040, Note_on_c, 9, 35, 127
8, 131040, Note_on_c, 9, 46, 127
8, 131040, Note_on_c, 9, 49, 127
8, 131160, Note_on_c, 9, 35, 0
8, 131160, Note_on_c, 9, 46, 0
8, 131160, Note_on_c, 9, 49, 0
8, 131280, Note_on_c, 9, 35, 127
8, 131400, Note_on_c, 9, 35, 0
8, 131520, Note_on_c, 9, 38, 127
8, 131520, Note_on_c, 9, 46, 127
8, 131520, Note_on_c, 9, 49, 127
8, 131640, Note_on_c, 9, 38, 0
8, 131640, Note_on_c, 9, 46, 0
8, 131640, Note_on_c, 9, 49, 0
8, 131760, Note_on_c, 9, 35, 127
8, 131880, Note_on_c, 9, 35, 0
8, 131880, Note_on_c, 9, 35, 127
8, 132000, Note_on_c, 9, 35, 0
8, 132000, Note_on_c, 9, 35, 127
8, 132000, Note_on_c, 9, 46, 127
8, 132000, Note_on_c, 9, 49, 127
8, 132120, Note_on_c, 9, 35, 0
8, 132120, Note_on_c, 9, 35, 127
8, 132120, Note_on_c, 9, 46, 0
8, 132120, Note_on_c, 9, 49, 0
8, 132240, Note_on_c, 9, 35, 0
8, 132240, Note_on_c, 9, 35, 127
8, 132360, Note_on_c, 9, 35, 0
8, 132480, Note_on_c, 9, 35, 127
8, 132480, Note_on_c, 9, 46, 127
8, 132480, Note_on_c, 9, 49, 127
8, 132600, Note_on_c, 9, 35, 0
8, 132600, Note_on_c, 9, 46, 0
8, 132600, Note_on_c, 9, 49, 0
8, 132720, Note_on_c, 9, 38, 127
8, 132840, Note_on_c, 9, 38, 0
8, 132960, Note_on_c, 9, 46, 127
8, 132960, Note_on_c, 9, 49, 127
8, 133080, Note_on_c, 9, 46, 0
8, 133080, Note_on_c, 9, 49, 0
8, 133200, Note_on_c, 9, 35, 127
8, 133320, Note_on_c, 9, 35, 0
8, 133440, Note_on_c, 9, 38, 127
8, 133440, Note_on_c, 9, 46, 127
8, 133440, Note_on_c, 9, 49, 127
8, 133560, Note_on_c, 9, 38, 0
8, 133560, Note_on_c, 9, 46, 0
8, 133560, Note_on_c, 9, 49, 0
8, 133680, Note_on_c, 9, 35, 127
8, 133800, Note_on_c, 9, 35, 0
8, 133920, Note_on_c, 9, 38, 127
8, 133920, Note_on_c, 9, 46, 127
8, 133920, Note_on_c, 9, 49, 127
8, 134040, Note_on_c, 9, 35, 127
8, 134040, Note_on_c, 9, 38, 0
8, 134040, Note_on_c, 9, 46, 0
8, 134040, Note_on_c, 9, 49, 0
8, 134160, Note_on_c, 9, 35, 0
8, 134280, Note_on_c, 9, 38, 127
8, 134400, Note_on_c, 9, 35, 127
8, 134400, Note_on_c, 9, 38, 0
8, 134400, Note_on_c, 9, 46, 127
8, 134400, Note_on_c, 9, 49, 127
8, 134520, Note_on_c, 9, 35, 0
8, 134520, Note_on_c, 9, 35, 127
8, 134520, Note_on_c, 9, 46, 0
8, 134520, Note_on_c, 9, 49, 0
8, 134640, Note_on_c, 9, 35, 0
8, 134640, Note_on_c, 9, 38, 127
8, 134760, Note_on_c, 9, 38, 0
8, 134880, Note_on_c, 9, 35, 127
8, 134880, Note_on_c, 9, 46, 127
8, 134880, Note_on_c, 9, 49, 127
8, 135000, Note_on_c, 9, 35, 0
8, 135000, Note_on_c, 9, 46, 0
8, 135000, Note_on_c, 9, 49, 0
8, 135120, Note_on_c, 9, 35, 127
8, 135240, Note_on_c, 9, 35, 0
8, 135360, Note_on_c, 9, 38, 127
8, 135360, Note_on_c, 9, 46, 127
8, 135360, Note_on_c, 9, 49, 127
8, 135480, Note_on_c, 9, 38, 0
8, 135480, Note_on_c, 9, 46, 0
8, 135480, Note_on_c, 9, 49, 0
8, 135600, Note_on_c, 9, 35, 127
8, 135720, Note_on_c, 9, 35, 0
8, 135720, Note_on_c, 9, 35, 127
8, 135840, Note_on_c, 9, 35, 0
8, 135840, Note_on_c, 9, 35, 127
8, 135840, Note_on_c, 9, 46, 127
8, 135840, Note_on_c, 9, 49, 127
8, 135960, Note_on_c, 9, 35, 0
8, 135960, Note_on_c, 9, 35, 127
8, 135960, Note_on_c, 9, 46, 0
8, 135960, Note_on_c, 9, 49, 0
8, 136080, Note_on_c, 9, 35, 0
8, 136080, Note_on_c, 9, 35, 127
8, 136200, Note_on_c, 9, 35, 0
8, 136320, Note_on_c, 9, 35, 127
8, 136320, Note_on_c, 9, 46, 127
8, 136320, Note_on_c, 9, 49, 127
8, 136440, Note_on_c, 9, 35, 0
8, 136440, Note_on_c, 9, 46, 0
8, 136440, Note_on_c, 9, 49, 0
8, 136560, Note_on_c, 9, 38, 127
8, 136680, Note_on_c, 9, 38, 0
8, 136800, Note_on_c, 9, 46, 127
8, 136800, Note_on_c, 9, 49, 127
8, 136920, Note_on_c, 9, 46, 0
8, 136920, Note_on_c, 9, 49, 0
8, 137040, Note_on_c, 9, 35, 127
8, 137160, Note_on_c, 9, 35, 0
8, 137280, Note_on_c, 9, 38, 127
8, 137280, Note_on_c, 9, 46, 127
8, 137280, Note_on_c, 9, 49, 127
8, 137400, Note_on_c, 9, 38, 0
8, 137400, Note_on_c, 9, 46, 0
8, 137400, Note_on_c, 9, 49, 0
8, 137520, Note_on_c, 9, 35, 127
8, 137640, Note_on_c, 9, 35, 0
8, 137760, Note_on_c, 9, 38, 127
8, 137760, Note_on_c, 9, 46, 127
8, 137760, Note_on_c, 9, 49, 127
8, 137880, Note_on_c, 9, 35, 127
8, 137880, Note_on_c, 9, 38, 0
8, 137880, Note_on_c, 9, 46, 0
8, 137880, Note_on_c, 9, 49, 0
8, 138000, Note_on_c, 9, 35, 0
8, 138120, Note_on_c, 9, 38, 127
8, 138240, Note_on_c, 9, 35, 127
8, 138240, Note_on_c, 9, 38, 0
8, 138240, Note_on_c, 9, 46, 127
8, 138240, Note_on_c, 9, 49, 127
8, 138360, Note_on_c, 9, 35, 0
8, 138360, Note_on_c, 9, 35, 127
8, 138360, Note_on_c, 9, 46, 0
8, 138360, Note_on_c, 9, 49, 0
8, 138480, Note_on_c, 9, 35, 0
8, 138480, Note_on_c, 9, 38, 127
8, 138600, Note_on_c, 9, 38, 0
8, 138720, Note_on_c, 9, 35, 127
8, 138720, Note_on_c, 9, 46, 127
8, 138720, Note_on_c, 9, 49, 127
8, 138840, Note_on_c, 9, 35, 0
8, 138840, Note_on_c, 9, 46, 0
8, 138840, Note_on_c, 9, 49, 0
8, 138960, Note_on_c, 9, 35, 127
8, 139080, Note_on_c, 9, 35, 0
8, 139200, Note_on_c, 9, 38, 127
8, 139200, Note_on_c, 9, 46, 127
8, 139200, Note_on_c, 9, 49, 127
8, 139320, Note_on_c, 9, 38, 0
8, 139320, Note_on_c, 9, 46, 0
8, 139320, Note_on_c, 9, 49, 0
8, 139440, Note_on_c, 9, 35, 127
8, 139560, Note_on_c, 9, 35, 0
8, 139560, Note_on_c, 9, 35, 127
8, 139680, Note_on_c, 9, 35, 0
8, 139680, Note_on_c, 9, 35, 127
8, 139680, Note_on_c, 9, 46, 127
8, 139680, Note_on_c, 9, 49, 127
8, 139800, Note_on_c, 9, 35, 0
8, 139800, Note_on_c, 9, 35, 127
8, 139800, Note_on_c, 9, 46, 0
8, 139800, Note_on_c, 9, 49, 0
8, 139920, Note_on_c, 9, 35, 0
8, 139920, Note_on_c, 9, 35, 127
8, 140040, Note_on_c, 9, 35, 0
8, 140160, Note_on_c, 9, 35, 127
8, 140160, Note_on_c, 9, 46, 127
8, 140160, Note_on_c, 9, 49, 127
8, 140280, Note_on_c, 9, 35, 0
8, 140280, Note_on_c, 9, 46, 0
8, 140280, Note_on_c, 9, 49, 0
8, 140400, Note_on_c, 9, 38, 127
8, 140520, Note_on_c, 9, 38, 0
8, 140640, Note_on_c, 9, 46, 127
8, 140640, Note_on_c, 9, 49, 127
8, 140760, Note_on_c, 9, 46, 0
8, 140760, Note_on_c, 9, 49, 0
8, 140880, Note_on_c, 9, 35, 127
8, 141000, Note_on_c, 9, 35, 0
8, 141120, Note_on_c, 9, 38, 127
8, 141120, Note_on_c, 9, 46, 127
8, 141120, Note_on_c, 9, 49, 127
8, 141240, Note_on_c, 9, 38, 0
8, 141240, Note_on_c, 9, 46, 0
8, 141240, Note_on_c, 9, 49, 0
8, 141360, Note_on_c, 9, 35, 127
8, 141480, Note_on_c, 9, 35, 0
8, 141600, Note_on_c, 9, 38, 127
8, 141600, Note_on_c, 9, 46, 127
8, 141600, Note_on_c, 9, 49, 127
8, 141720, Note_on_c, 9, 35, 127
8, 141720, Note_on_c, 9, 38, 0
8, 141720, Note_on_c, 9, 46, 0
8, 141720, Note_on_c, 9, 49, 0
8, 141840, Note_on_c, 9, 35, 0
8, 141960, Note_on_c, 9, 38, 127
8, 142080, Note_on_c, 9, 35, 127
8, 142080, Note_on_c, 9, 38, 0
8, 142080, Note_on_c, 9, 46, 127
8, 142080, Note_on_c, 9, 49, 127
8, 142200, Note_on_c, 9, 35, 0
8, 142200, Note_on_c, 9, 35, 127
8, 142200, Note_on_c, 9, 46, 0
8, 142200, Note_on_c, 9, 49, 0
8, 142320, Note_on_c, 9, 35, 0
8, 142320, Note_on_c, 9, 38, 127
8, 142440, Note_on_c, 9, 38, 0
8, 142560, Note_on_c, 9, 35, 127
8, 142560, Note_on_c, 9, 46, 127
8, 142560, Note_on_c, 9, 49, 127
8, 142680, Note_on_c, 9, 35, 0
8, 142680, Note_on_c, 9, 46, 0
8, 142680, Note_on_c, 9, 49, 0
8, 142800, Note_on_c, 9, 35, 127
8, 142920, Note_on_c, 9, 35, 0
8, 143040, Note_on_c, 9, 38, 127
8, 143040, Note_on_c, 9, 46, 127
8, 143040, Note_on_c, 9, 49, 127
8, 143160, Note_on_c, 9, 38, 0
8, 143160, Note_on_c, 9, 46, 0
8, 143160, Note_on_c, 9, 49, 0
8, 143280, Note_on_c, 9, 35, 127
8, 143400, Note_on_c, 9, 35, 0
8, 143400, Note_on_c, 9, 35, 127
8, 143520, Note_on_c, 9, 35, 0
8, 143520, Note_on_c, 9, 35, 127
8, 143520, Note_on_c, 9, 46, 127
8, 143520, Note_on_c, 9, 49, 127
8, 143640, Note_on_c, 9, 35, 0
8, 143640, Note_on_c, 9, 35, 127
8, 143640, Note_on_c, 9, 46, 0
8, 143640, Note_on_c, 9, 49, 0
8, 143760, Note_on_c, 9, 35, 0
8, 143760, Note_on_c, 9, 35, 127
8, 143880, Note_on_c, 9, 35, 0
8, 144000, Note_on_c, 9, 35, 127
8, 144000, Note_on_c, 9, 46, 127
8, 144000, Note_on_c, 9, 49, 127
8, 144120, Note_on_c, 9, 35, 0
8, 144120, Note_on_c, 9, 46, 0
8, 144120, Note_on_c, 9, 49, 0
8, 144240, Note_on_c, 9, 38, 127
8, 144360, Note_on_c, 9, 38, 0
8, 144480, Note_on_c, 9, 46, 127
8, 144480, Note_on_c, 9, 49, 127
8, 144600, Note_on_c, 9, 46, 0
8, 144600, Note_on_c, 9, 49, 0
8, 144720, Note_on_c, 9, 35, 127
8, 144840, Note_on_c, 9, 35, 0
8, 144960, Note_on_c, 9, 38, 127
8, 144960, Note_on_c, 9, 46, 127
8, 144960, Note_on_c, 9, 49, 127
8, 145080, Note_on_c, 9, 38, 0
8, 145080, Note_on_c, 9, 46, 0
8, 145080, Note_on_c, 9, 49, 0
8, 145200, Note_on_c, 9, 35, 127
8, 145320, Note_on_c, 9, 35, 0
8, 145440, Note_on_c, 9, 38, 127
8, 145440, Note_on_c, 9, 46, 127
8, 145440, Note_on_c, 9, 49, 127
8, 145560, Note_on_c, 9, 35, 127
8, 145560, Note_on_c, 9, 38, 0
8, 145560, Note_on_c, 9, 46, 0
8, 145560, Note_on_c, 9, 49, 0
8, 145680, Note_on_c, 9, 35, 0
8, 145800, Note_on_c, 9, 38, 127
8, 145920, Note_on_c, 9, 35, 127
8, 145920, Note_on_c, 9, 38, 0
8, 145920, Note_on_c, 9, 46, 127
8, 145920, Note_on_c, 9, 49, 127
8, 146040, Note_on_c, 9, 35, 0
8, 146040, Note_on_c, 9, 35, 127
8, 146040, Note_on_c, 9, 46, 0
8, 146040, Note_on_c, 9, 49, 0
8, 146160, Note_on_c, 9, 35, 0
8, 146160, Note_on_c, 9, 38, 127
8, 146280, Note_on_c, 9, 38, 0
8, 146400, Note_on_c, 9, 35, 127
8, 146400, Note_on_c, 9, 46, 127
8, 146400, Note_on_c, 9, 49, 127
8, 146520, Note_on_c, 9, 35, 0
8, 146520, Note_on_c, 9, 46, 0
8, 146520, Note_on_c, 9, 49, 0
8, 146640, Note_on_c, 9, 35, 127
8, 146760, Note_on_c, 9, 35, 0
8, 146880, Note_on_c, 9, 38, 127
8, 146880, Note_on_c, 9, 46, 127
8, 146880, Note_on_c, 9, 49, 127
8, 147000, Note_on_c, 9, 38, 0
8, 147000, Note_on_c, 9, 46, 0
8, 147000, Note_on_c, 9, 49, 0
8, 147120, Note_on_c, 9, 35, 127
8, 147240, Note_on_c, 9, 35, 0
8, 147240, Note_on_c, 9, 35, 127
8, 147360, Note_on_c, 9, 35, 0
8, 147360, Note_on_c, 9, 35, 127
8, 147360, Note_on_c, 9, 46, 127
8, 147360, Note_on_c, 9, 49, 127
8, 147480, Note_on_c, 9, 35, 0
8, 147480, Note_on_c, 9, 35, 127
8, 147480, Note_on_c, 9, 46, 0
8, 147480, Note_on_c, 9, 49, 0
8, 147600, Note_on_c, 9, 35, 0
8, 147600, Note_on_c, 9, 35, 127
8, 147720, Note_on_c, 9, 35, 0
8, 147840, Note_on_c, 9, 35, 127
8, 147840, Note_on_c, 9, 46, 127
8, 147840, Note_on_c, 9, 49, 127
8, 147960, Note_on_c, 9, 35, 0
8, 147960, Note_on_c, 9, 46, 0
8, 147960, Note_on_c, 9, 49, 0
8, 148080, Note_on_c, 9, 38, 127
8, 148200, Note_on_c, 9, 38, 0
8, 148320, Note_on_c, 9, 46, 127
8, 148320, Note_on_c, 9, 49, 127
8, 148440, Note_on_c, 9, 46, 0
8, 148440, Note_on_c, 9, 49, 0
8, 148560, Note_on_c, 9, 35, 127
8, 148680, Note_on_c, 9, 35, 0
8, 148800, Note_on_c, 9, 38, 127
8, 148800, Note_on_c, 9, 46, 127
8, 148800, Note_on_c, 9, 49, 127
8, 148920, Note_on_c, 9, 38, 0
8, 148920, Note_on_c, 9, 46, 0
8, 148920, Note_on_c, 9, 49, 0
8, 149040, Note_on_c, 9, 35, 127
8, 149160, Note_on_c, 9, 35, 0
8, 149280, Note_on_c, 9, 38, 127
8, 149280, Note_on_c, 9, 46, 127
8, 149280, Note_on_c, 9, 49, 127
8, 149400, Note_on_c, 9, 35, 127
8, 149400, Note_on_c, 9, 38, 0
8, 149400, Note_on_c, 9, 46, 0
8, 149400, Note_on_c, 9, 49, 0
8, 149520, Note_on_c, 9, 35, 0
8, 149640, Note_on_c, 9, 38, 127
8, 149760, Note_on_c, 9, 35, 127
8, 149760, Note_on_c, 9, 38, 0
8, 149760, Note_on_c, 9, 46, 127
8, 149760, Note_on_c, 9, 49, 127
8, 149880, Note_on_c, 9, 35, 0
8, 149880, Note_on_c, 9, 35, 127
8, 149880, Note_on_c, 9, 46, 0
8, 149880, Note_on_c, 9, 49, 0
8, 150000, Note_on_c, 9, 35, 0
8, 150000, Note_on_c, 9, 38, 127
8, 150120, Note_on_c, 9, 38, 0
8, 150240, Note_on_c, 9, 35, 127
8, 150240, Note_on_c, 9, 46, 127
8, 150240, Note_on_c, 9, 49, 127
8, 150360, Note_on_c, 9, 35, 0
8, 150360, Note_on_c, 9, 46, 0
8, 150360, Note_on_c, 9, 49, 0
8, 150480, Note_on_c, 9, 35, 127
8, 150600, Note_on_c, 9, 35, 0
8, 150720, Note_on_c, 9, 38, 127
8, 150720, Note_on_c, 9, 46, 127
8, 150720, Note_on_c, 9, 49, 127
8, 150840, Note_on_c, 9, 38, 0
8, 150840, Note_on_c, 9, 46, 0
8, 150840, Note_on_c, 9, 49, 0
8, 150960, Note_on_c, 9, 35, 127
8, 151080, Note_on_c, 9, 35, 0
8, 151080, Note_on_c, 9, 35, 127
8, 151200, Note_on_c, 9, 35, 0
8, 151200, Note_on_c, 9, 35, 127
8, 151200, Note_on_c, 9, 46, 127
8, 151200, Note_on_c, 9, 49, 127
8, 151320, Note_on_c, 9, 35, 0
8, 151320, Note_on_c, 9, 35, 127
8, 151320, Note_on_c, 9, 46, 0
8, 151320, Note_on_c, 9, 49, 0
8, 151440, Note_on_c, 9, 35, 0
8, 151440, Note_on_c, 9, 35, 127
8, 151560, Note_on_c, 9, 35, 0
8, 151680, Note_on_c, 9, 35, 127
8, 151680, Note_on_c, 9, 46, 127
8, 151680, Note_on_c, 9, 49, 127
8, 151800, Note_on_c, 9, 35, 0
8, 151800, Note_on_c, 9, 46, 0
8, 151800, Note_on_c, 9, 49, 0
8, 151920, Note_on_c, 9, 38, 127
8, 152040, Note_on_c, 9, 38, 0
8, 152160, Note_on_c, 9, 46, 127
8, 152160, Note_on_c, 9, 49, 127
8, 152280, Note_on_c, 9, 46, 0
8, 152280, Note_on_c, 9, 49, 0
8, 152400, Note_on_c, 9, 35, 127
8, 152520, Note_on_c, 9, 35, 0
8, 152640, Note_on_c, 9, 38, 127
8, 152640, Note_on_c, 9, 46, 127
8, 152640, Note_on_c, 9, 49, 127
8, 152760, Note_on_c, 9, 38, 0
8, 152760, Note_on_c, 9, 46, 0
8, 152760, Note_on_c, 9, 49, 0
8, 152880, Note_on_c, 9, 35, 127
8, 153000, Note_on_c, 9, 35, 0
8, 153120, Note_on_c, 9, 38, 127
8, 153120, Note_on_c, 9, 46, 127
8, 153120, Note_on_c, 9, 49, 127
8, 153240, Note_on_c, 9, 35, 127
8, 153240, Note_on_c, 9, 38, 0
8, 153240, Note_on_c, 9, 46, 0
8, 153240, Note_on_c, 9, 49, 0
8, 153360, Note_on_c, 9, 35, 0
8, 153480, Note_on_c, 9, 38, 127
8, 153600, Note_on_c, 9, 35, 127
8, 153600, Note_on_c, 9, 38, 0
8, 153600, Note_on_c, 9, 46, 127
8, 153600, Note_on_c, 9, 49, 127
8, 153720, Note_on_c, 9, 35, 0
8, 153720, Note_on_c, 9, 35, 127
8, 153720, Note_on_c, 9, 46, 0
8, 153720, Note_on_c, 9, 49, 0
8, 153840, Note_on_c, 9, 35, 0
8, 153840, Note_on_c, 9, 38, 127
8, 153960, Note_on_c, 9, 38, 0
8, 154080, Note_on_c, 9, 35, 127
8, 154080, Note_on_c, 9, 46, 127
8, 154080, Note_on_c, 9, 49, 127
8, 154200, Note_on_c, 9, 35, 0
8, 154200, Note_on_c, 9, 46, 0
8, 154200, Note_on_c, 9, 49, 0
8, 154320, Note_on_c, 9, 35, 127
8, 154440, Note_on_c, 9, 35, 0
8, 154560, Note_on_c, 9, 38, 127
8, 154560, Note_on_c, 9, 46, 127
8, 154560, Note_on_c, 9, 49, 127
8, 154680, Note_on_c, 9, 38, 0
8, 154680, Note_on_c, 9, 46, 0
8, 154680, Note_on_c, 9, 49, 0
8, 154800, Note_on_c, 9, 35, 127
8, 154920, Note_on_c, 9, 35, 0
8, 154920, Note_on_c, 9, 35, 127
8, 155040, Note_on_c, 9, 35, 0
8, 155040, Note_on_c, 9, 35, 127
8, 155040, Note_on_c, 9, 46, 127
8, 155040, Note_on_c, 9, 49, 127
8, 155160, Note_on_c, 9, 35, 0
8, 155160, Note_on_c, 9, 35, 127
8, 155160, Note_on_c, 9, 46, 0
8, 155160, Note_on_c, 9, 49, 0
8, 155280, Note_on_c, 9, 35, 0
8, 155280, Note_on_c, 9, 35, 127
8, 155400, Note_on_c, 9, 35, 0
8, 155520, Note_on_c, 9, 35, 127
8, 155520, Note_on_c, 9, 46, 127
8, 155520, Note_on_c, 9, 49, 127
8, 155640, Note_on_c, 9, 35, 0
8, 155640, Note_on_c, 9, 46, 0
8, 155640, Note_on_c, 9, 49, 0
8, 155760, Note_on_c, 9, 38, 127
8, 155880, Note_on_c, 9, 38, 0
8, 156000, Note_on_c, 9, 46, 127
8, 156000, Note_on_c, 9, 49, 127
8, 156120, Note_on_c, 9, 46, 0
8, 156120, Note_on_c, 9, 49, 0
8, 156240, Note_on_c, 9, 35, 127
8, 156360, Note_on_c, 9, 35, 0
8, 156480, Note_on_c, 9, 38, 127
8, 156480, Note_on_c, 9, 46, 127
8, 156480, Note_on_c, 9, 49, 127
8, 156600, Note_on_c, 9, 38, 0
8, 156600, Note_on_c, 9, 46, 0
8, 156600, Note_on_c, 9, 49, 0
8, 156720, Note_on_c, 9, 35, 127
8, 156840, Note_on_c, 9, 35, 0
8, 156960, Note_on_c, 9, 38, 127
8, 156960, Note_on_c, 9, 46, 127
8, 156960, Note_on_c, 9, 49, 127
8, 157080, Note_on_c, 9, 35, 127
8, 157080, Note_on_c, 9, 38, 0
8, 157080, Note_on_c, 9, 46, 0
8, 157080, Note_on_c, 9, 49, 0
8, 157200, Note_on_c, 9, 35, 0
8, 157320, Note_on_c, 9, 38, 127
8, 157440, Note_on_c, 9, 35, 127
8, 157440, Note_on_c, 9, 38, 0
8, 157440, Note_on_c, 9, 46, 127
8, 157440, Note_on_c, 9, 49, 127
8, 157560, Note_on_c, 9, 35, 0
8, 157560, Note_on_c, 9, 35, 127
8, 157560, Note_on_c, 9, 46, 0
8, 157560, Note_on_c, 9, 49, 0
8, 157680, Note_on_c, 9, 35, 0
8, 157680, Note_on_c, 9, 38, 127
8, 157800, Note_on_c, 9, 38, 0
8, 157920, Note_on_c, 9, 35, 127
8, 157920, Note_on_c, 9, 46, 127
8, 157920, Note_on_c, 9, 49, 127
8, 158040, Note_on_c, 9, 35, 0
8, 158040, Note_on_c, 9, 46, 0
8, 158040, Note_on_c, 9, 49, 0
8, 158160, Note_on_c, 9, 35, 127
8, 158280, Note_on_c, 9, 35, 0
8, 158400, Note_on_c, 9, 38, 127
8, 158400, Note_on_c, 9, 46, 127
8, 158400, Note_on_c, 9, 49, 127
8, 158520, Note_on_c, 9, 38, 0
8, 158520, Note_on_c, 9, 46, 0
8, 158520, Note_on_c, 9, 49, 0
8, 158640, Note_on_c, 9, 35, 127
8, 158760, Note_on_c, 9, 35, 0
8, 158760, Note_on_c, 9, 35, 127
8, 158880, Note_on_c, 9, 35, 0
8, 158880, Note_on_c, 9, 35, 127
8, 158880, Note_on_c, 9, 46, 127
8, 158880, Note_on_c, 9, 49, 127
8, 159000, Note_on_c, 9, 35, 0
8, 159000, Note_on_c, 9, 35, 127
8, 159000, Note_on_c, 9, 46, 0
8, 159000, Note_on_c, 9, 49, 0
8, 159120, Note_on_c, 9, 35, 0
8, 159120, Note_on_c, 9, 35, 127
8, 159240, Note_on_c, 9, 35, 0
8, 159360, Note_on_c, 9, 35, 127
8, 159360, Note_on_c, 9, 46, 127
8, 159360, Note_on_c, 9, 49, 127
8, 159480, Note_on_c, 9, 35, 0
8, 159480, Note_on_c, 9, 46, 0
8, 159480, Note_on_c, 9, 49, 0
8, 159600, Note_on_c, 9, 38, 127
8, 159720, Note_on_c, 9, 38, 0
8, 159840, Note_on_c, 9, 46, 127
8, 159840, Note_on_c, 9, 49, 127
8, 159960, Note_on_c, 9, 46, 0
8, 159960, Note_on_c, 9, 49, 0
8, 160080, Note_on_c, 9, 35, 127
8, 160200, Note_on_c, 9, 35, 0
8, 160320, Note_on_c, 9, 38, 127
8, 160320, Note_on_c, 9, 46, 127
8, 160320, Note_on_c, 9, 49, 127
8, 160440, Note_on_c, 9, 38, 0
8, 160440, Note_on_c, 9, 46, 0
8, 160440, Note_on_c, 9, 49, 0
8, 160560, Note_on_c, 9, 35, 127
8, 160680, Note_on_c, 9, 35, 0
8, 160800, Note_on_c, 9, 38, 127
8, 160800, Note_on_c, 9, 46, 127
8, 160800, Note_on_c, 9, 49, 127
8, 160920, Note_on_c, 9, 35, 127
8, 160920, Note_on_c, 9, 38, 0
8, 160920, Note_on_c, 9, 46, 0
8, 160920, Note_on_c, 9, 49, 0
8, 161040, Note_on_c, 9, 35, 0
8, 161160, Note_on_c, 9, 38, 127
8, 161280, Note_on_c, 9, 35, 127
8, 161280, Note_on_c, 9, 38, 0
8, 161280, Note_on_c, 9, 46, 127
8, 161280, Note_on_c, 9, 49, 127
8, 161400, Note_on_c, 9, 35, 0
8, 161400, Note_on_c, 9, 35, 127
8, 161400, Note_on_c, 9, 46, 0
8, 161400, Note_on_c, 9, 49, 0
8, 161520, Note_on_c, 9, 35, 0
8, 161520, Note_on_c, 9, 38, 127
8, 161640, Note_on_c, 9, 38, 0
8, 161760, Note_on_c, 9, 35, 127
8, 161760, Note_on_c, 9, 35, 127
8, 161760, Note_on_c, 9, 35, 127
8, 161880, Note_on_c, 9, 35, 0
8, 161880, Note_on_c, 9, 35, 0
8, 161880, Note_on_c, 9, 35, 0
8, 162000, Note_on_c, 9, 35, 127
8, 162000, Note_on_c, 9, 35, 127
8, 162000, Note_on_c, 9, 35, 127
8, 162120, Note_on_c, 9, 35, 0
8, 162120, Note_on_c, 9, 35, 0
8, 162120, Note_on_c, 9, 35, 0
8, 162480, Note_on_c, 9, 35, 127
8, 162480, Note_on_c, 9, 35, 127
8, 162480, Note_on_c, 9, 35, 127
8, 162600, Note_on_c, 9, 35, 0
8, 162600, Note_on_c, 9, 35, 0
8, 162600, Note_on_c, 9, 35, 0
8, 162600, Note_on_c, 9, 35, 127
8, 162600, Note_on_c, 9, 35, 127
8, 162600, Note_on_c, 9, 35, 127
8, 162720, Note_on_c, 9, 35, 0
8, 162720, Note_on_c, 9, 35, 0
8, 162720, Note_on_c, 9, 35, 0
8, 162720, Note_on_c, 9, 35, 127
8, 162720, Note_on_c, 9, 35, 127
8, 162720, Note_on_c, 9, 35, 127
8, 162840, Note_on_c, 9, 35, 0
8, 162840, Note_on_c, 9, 35, 0
8, 162840, Note_on_c, 9, 35, 0
8, 162960, Note_on_c, 9, 35, 127
8, 162960, Note_on_c, 9, 35, 127
8, 162960, Note_on_c, 9, 35, 127
8, 163080, Note_on_c, 9, 35, 0
8, 163080, Note_on_c, 9, 35, 0
8, 163080, Note_on_c, 9, 35, 0
8, 163440, Note_on_c, 9, 35, 127
8, 163440, Note_on_c, 9, 35, 127
8, 163440, Note_on_c, 9, 35, 127
8, 163560, Note_on_c, 9, 35, 0
8, 163560, Note_on_c, 9, 35, 0
8, 163560, Note_on_c, 9, 35, 0
8, 163680, Note_on_c, 9, 35, 127
8, 163680, Note_on_c, 9, 35, 127
8, 163680, Note_on_c, 9, 35, 127
8, 163800, Note_on_c, 9, 35, 0
8, 163800, Note_on_c, 9, 35, 0
8, 163800, Note_on_c, 9, 35, 0
8, 163920, Note_on_c, 9, 35, 127
8, 163920, Note_on_c, 9, 35, 127
8, 163920, Note_on_c, 9, 35, 127
8, 164040, Note_on_c, 9, 35, 0
8, 164040, Note_on_c, 9, 35, 0
8, 164040, Note_on_c, 9, 35, 0
8, 164400, Note_on_c, 9, 35, 127
8, 164400, Note_on_c, 9, 35, 127
8, 164400, Note_on_c, 9, 35, 127
8, 164520, Note_on_c, 9, 35, 0
8, 164520, Note_on_c, 9, 35, 0
8, 164520, Note_on_c, 9, 35, 0
8, 164520, Note_on_c, 9, 35, 127
8, 164520, Note_on_c, 9, 35, 127
8, 164520, Note_on_c, 9, 35, 127
8, 164640, Note_on_c, 9, 35, 0
8, 164640, Note_on_c, 9, 35, 0
8, 164640, Note_on_c, 9, 35, 0
8, 164640, Note_on_c, 9, 35, 127
8, 164640, Note_on_c, 9, 35, 127
8, 164640, Note_on_c, 9, 35, 127
8, 164760, Note_on_c, 9, 35, 0
8, 164760, Note_on_c, 9, 35, 0
8, 164760, Note_on_c, 9, 35, 0
8, 164880, Note_on_c, 9, 35, 127
8, 164880, Note_on_c, 9, 35, 127
8, 164880, Note_on_c, 9, 35, 127
8, 165000, Note_on_c, 9, 35, 0
8, 165000, Note_on_c, 9, 35, 0
8, 165000, Note_on_c, 9, 35, 0
8, 165120, Note_on_c, 9, 35, 127
8, 165120, Note_on_c, 9, 35, 127
8, 165120, Note_on_c, 9, 35, 127
8, 165120, Note_on_c, 9, 38, 127
8, 165120, Note_on_c, 9, 38, 127
8, 165120, Note_on_c, 9, 38, 127
8, 165480, Note_on_c, 9, 35, 0
8, 165480, Note_on_c, 9, 35, 0
8, 165480, Note_on_c, 9, 35, 0
8, 165480, Note_on_c, 9, 38, 0
8, 165480, Note_on_c, 9, 38, 0
8, 165480, Note_on_c, 9, 38, 0
8, 165600, Note_on_c, 9, 35, 127
8, 165600, Note_on_c, 9, 35, 127
8, 165600, Note_on_c, 9, 35, 127
8, 165720, Note_on_c, 9, 35, 0
8, 165720, Note_on_c, 9, 35, 0
8, 165720, Note_on_c, 9, 35, 0
8, 165840, Note_on_c, 9, 35, 127
8, 165840, Note_on_c, 9, 35, 127
8, 165840, Note_on_c, 9, 35, 127
8, 165960, Note_on_c, 9, 35, 0
8, 165960, Note_on_c, 9, 35, 0
8, 165960, Note_on_c, 9, 35, 0
8, 166320, Note_on_c, 9, 35, 127
8, 166320, Note_on_c, 9, 35, 127
8, 166320, Note_on_c, 9, 35, 127
8, 166440, Note_on_c, 9, 35, 0
8, 166440, Note_on_c, 9, 35, 0
8, 166440, Note_on_c, 9, 35, 0
8, 166440, Note_on_c, 9, 35, 127
8, 166440, Note_on_c, 9, 35, 127
8, 166440, Note_on_c, 9, 35, 127
8, 166560, Note_on_c, 9, 35, 0
8, 166560, Note_on_c, 9, 35, 0
8, 166560, Note_on_c, 9, 35, 0
8, 166560, Note_on_c, 9, 35, 127
8, 166560, Note_on_c, 9, 35, 127
8, 166560, Note_on_c, 9, 35, 127
8, 166680, Note_on_c, 9, 35, 0
8, 166680, Note_on_c, 9, 35, 0
8, 166680, Note_on_c, 9, 35, 0
8, 166800, Note_on_c, 9, 35, 127
8, 166800, Note_on_c, 9, 35, 127
8, 166800, Note_on_c, 9, 35, 127
8, 166920, Note_on_c, 9, 35, 0
8, 166920, Note_on_c, 9, 35, 0
8, 166920, Note_on_c, 9, 35, 0
8, 167280, Note_on_c, 9, 35, 127
8, 167280, Note_on_c, 9, 35, 127
8, 167280, Note_on_c, 9, 35, 127
8, 167400, Note_on_c, 9, 35, 0
8, 167400, Note_on_c, 9, 35, 0
8, 167400, Note_on_c, 9, 35, 0
8, 167520, Note_on_c, 9, 35, 127
8, 167520, Note_on_c, 9, 35, 127
8, 167520, Note_on_c, 9, 35, 127
8, 167640, Note_on_c, 9, 35, 0
8, 167640, Note_on_c, 9, 35, 0
8, 167640, Note_on_c, 9, 35, 0
8, 167760, Note_on_c, 9, 35, 127
8, 167760, Note_on_c, 9, 35, 127
8, 167760, Note_on_c, 9, 35, 127
8, 167880, Note_on_c, 9, 35, 0
8, 167880, Note_on_c, 9, 35, 0
8, 167880, Note_on_c, 9, 35, 0
8, 168240, Note_on_c, 9, 35, 127
8, 168240, Note_on_c, 9, 35, 127
8, 168240, Note_on_c, 9, 35, 127
8, 168360, Note_on_c, 9, 35, 0
8, 168360, Note_on_c, 9, 35, 0
8, 168360, Note_on_c, 9, 35, 0
8, 168360, Note_on_c, 9, 35, 127
8, 168360, Note_on_c, 9, 35, 127
8, 168360, Note_on_c, 9, 35, 127
8, 168480, Note_on_c, 9, 35, 0
8, 168480, Note_on_c, 9, 35, 0
8, 168480, Note_on_c, 9, 35, 0
8, 168480, Note_on_c, 9, 35, 127
8, 168480, Note_on_c, 9, 35, 127
8, 168480, Note_on_c, 9, 35, 127
8, 168600, Note_on_c, 9, 35, 0
8, 168600, Note_on_c, 9, 35, 0
8, 168600, Note_on_c, 9, 35, 0
8, 168720, Note_on_c, 9, 35, 127
8, 168720, Note_on_c, 9, 35, 127
8, 168720, Note_on_c, 9, 35, 127
8, 168840, Note_on_c, 9, 35, 0
8, 168840, Note_on_c, 9, 35, 0
8, 168840, Note_on_c, 9, 35, 0
8, 168960, Note_on_c, 9, 35, 127
8, 168960, Note_on_c, 9, 35, 127
8, 168960, Note_on_c, 9, 35, 127
8, 168960, Note_on_c, 9, 38, 127
8, 168960, Note_on_c, 9, 38, 127
8, 168960, Note_on_c, 9, 38, 127
8, 169320, Note_on_c, 9, 35, 0
8, 169320, Note_on_c, 9, 35, 0
8, 169320, Note_on_c, 9, 35, 0
8, 169320, Note_on_c, 9, 38, 0
8, 169320, Note_on_c, 9, 38, 0
8, 169320, Note_on_c, 9, 38, 0
8, 169440, Note_on_c, 9, 35, 127
8, 169440, Note_on_c, 9, 35, 127
8, 169440, Note_on_c, 9, 35, 127
8, 169560, Note_on_c, 9, 35, 0
8, 169560, Note_on_c, 9, 35, 0
8, 169560, Note_on_c, 9, 35, 0
8, 169680, Note_on_c, 9, 35, 127
8, 169680, Note_on_c, 9, 35, 127
8, 169680, Note_on_c, 9, 35, 127
8, 169800, Note_on_c, 9, 35, 0
8, 169800, Note_on_c, 9, 35, 0
8, 169800, Note_on_c, 9, 35, 0
8, 170160, Note_on_c, 9, 35, 127
8, 170160, Note_on_c, 9, 35, 127
8, 170160, Note_on_c, 9, 35, 127
8, 170280, Note_on_c, 9, 35, 0
8, 170280, Note_on_c, 9, 35, 0
8, 170280, Note_on_c, 9, 35, 0
8, 170280, Note_on_c, 9, 35, 127
8, 170280, Note_on_c, 9, 35, 127
8, 170280, Note_on_c, 9, 35, 127
8, 170400, Note_on_c, 9, 35, 0
8, 170400, Note_on_c, 9, 35, 0
8, 170400, Note_on_c, 9, 35, 0
8, 170400, Note_on_c, 9, 35, 127
8, 170400, Note_on_c, 9, 35, 127
8, 170400, Note_on_c, 9, 35, 127
8, 170520, Note_on_c, 9, 35, 0
8, 170520, Note_on_c, 9, 35, 0
8, 170520, Note_on_c, 9, 35, 0
8, 170640, Note_on_c, 9, 35, 127
8, 170640, Note_on_c, 9, 35, 127
8, 170640, Note_on_c, 9, 35, 127
8, 170760, Note_on_c, 9, 35, 0
8, 170760, Note_on_c, 9, 35, 0
8, 170760, Note_on_c, 9, 35, 0
8, 171120, Note_on_c, 9, 35, 127
8, 171120, Note_on_c, 9, 35, 127
8, 171120, Note_on_c, 9, 35, 127
8, 171240, Note_on_c, 9, 35, 0
8, 171240, Note_on_c, 9, 35, 0
8, 171240, Note_on_c, 9, 35, 0
8, 171360, Note_on_c, 9, 35, 127
8, 171360, Note_on_c, 9, 35, 127
8, 171360, Note_on_c, 9, 35, 127
8, 171480, Note_on_c, 9, 35, 0
8, 171480, Note_on_c, 9, 35, 0
8, 171480, Note_on_c, 9, 35, 0
8, 171600, Note_on_c, 9, 35, 127
8, 171600, Note_on_c, 9, 35, 127
8, 171600, Note_on_c, 9, 35, 127
8, 171720, Note_on_c, 9, 35, 0
8, 171720, Note_on_c, 9, 35, 0
8, 171720, Note_on_c, 9, 35, 0
8, 172080, Note_on_c, 9, 35, 127
8, 172080, Note_on_c, 9, 35, 127
8, 172080, Note_on_c, 9, 35, 127
8, 172200, Note_on_c, 9, 35, 0
8, 172200, Note_on_c, 9, 35, 0
8, 172200, Note_on_c, 9, 35, 0
8, 172200, Note_on_c, 9, 35, 127
8, 172200, Note_on_c, 9, 35, 127
8, 172200, Note_on_c, 9, 35, 127
8, 172320, Note_on_c, 9, 35, 0
8, 172320, Note_on_c, 9, 35, 0
8, 172320, Note_on_c, 9, 35, 0
8, 172320, Note_on_c, 9, 35, 127
8, 172320, Note_on_c, 9, 35, 127
8, 172320, Note_on_c, 9, 35, 127
8, 172440, Note_on_c, 9, 35, 0
8, 172440, Note_on_c, 9, 35, 0
8, 172440, Note_on_c, 9, 35, 0
8, 172560, Note_on_c, 9, 35, 127
8, 172560, Note_on_c, 9, 35, 127
8, 172560, Note_on_c, 9, 35, 127
8, 172680, Note_on_c, 9, 35, 0
8, 172680, Note_on_c, 9, 35, 0
8, 172680, Note_on_c, 9, 35, 0
8, 172800, Note_on_c, 9, 35, 127
8, 172800, Note_on_c, 9, 35, 127
8, 172800, Note_on_c, 9, 35, 127
8, 172800, Note_on_c, 9, 38, 127
8, 172800, Note_on_c, 9, 38, 127
8, 172800, Note_on_c, 9, 38, 127
8, 173160, Note_on_c, 9, 35, 0
8, 173160, Note_on_c, 9, 35, 0
8, 173160, Note_on_c, 9, 35, 0
8, 173160, Note_on_c, 9, 38, 0
8, 173160, Note_on_c, 9, 38, 0
8, 173160, Note_on_c, 9, 38, 0
8, 173280, Note_on_c, 9, 35, 127
8, 173280, Note_on_c, 9, 35, 127
8, 173280, Note_on_c, 9, 35, 127
8, 173400, Note_on_c, 9, 35, 0
8, 173400, Note_on_c, 9, 35, 0
8, 173400, Note_on_c, 9, 35, 0
8, 173520, Note_on_c, 9, 35, 127
8, 173520, Note_on_c, 9, 35, 127
8, 173520, Note_on_c, 9, 35, 127
8, 173640, Note_on_c, 9, 35, 0
8, 173640, Note_on_c, 9, 35, 0
8, 173640, Note_on_c, 9, 35, 0
8, 174000, Note_on_c, 9, 35, 127
8, 174000, Note_on_c, 9, 35, 127
8, 174000, Note_on_c, 9, 35, 127
8, 174120, Note_on_c, 9, 35, 0
8, 174120, Note_on_c, 9, 35, 0
8, 174120, Note_on_c, 9, 35, 0
8, 174120, Note_on_c, 9, 35, 127
8, 174120, Note_on_c, 9, 35, 127
8, 174120, Note_on_c, 9, 35, 127
8, 174240, Note_on_c, 9, 35, 0
8, 174240, Note_on_c, 9, 35, 0
8, 174240, Note_on_c, 9, 35, 0
8, 174240, Note_on_c, 9, 35, 127
8, 174240, Note_on_c, 9, 35, 127
8, 174240, Note_on_c, 9, 35, 127
8, 174360, Note_on_c, 9, 35, 0
8, 174360, Note_on_c, 9, 35, 0
8, 174360, Note_on_c, 9, 35, 0
8, 174480, Note_on_c, 9, 35, 127
8, 174480, Note_on_c, 9, 35, 127
8, 174480, Note_on_c, 9, 35, 127
8, 174600, Note_on_c, 9, 35, 0
8, 174600, Note_on_c, 9, 35, 0
8, 174600, Note_on_c, 9, 35, 0
8, 174960, Note_on_c, 9, 35, 127
8, 174960, Note_on_c, 9, 35, 127
8, 174960, Note_on_c, 9, 35, 127
8, 175080, Note_on_c, 9, 35, 0
8, 175080, Note_on_c, 9, 35, 0
8, 175080, Note_on_c, 9, 35, 0
8, 175200, Note_on_c, 9, 35, 127
8, 175200, Note_on_c, 9, 35, 127
8, 175200, Note_on_c, 9, 35, 127
8, 175320, Note_on_c, 9, 35, 0
8, 175320, Note_on_c, 9, 35, 0
8, 175320, Note_on_c, 9, 35, 0
8, 175440, Note_on_c, 9, 35, 127
8, 175440, Note_on_c, 9, 35, 127
8, 175440, Note_on_c, 9, 35, 127
8, 175560, Note_on_c, 9, 35, 0
8, 175560, Note_on_c, 9, 35, 0
8, 175560, Note_on_c, 9, 35, 0
8, 175920, Note_on_c, 9, 35, 127
8, 175920, Note_on_c, 9, 35, 127
8, 175920, Note_on_c, 9, 35, 127
8, 176040, Note_on_c, 9, 35, 0
8, 176040, Note_on_c, 9, 35, 0
8, 176040, Note_on_c, 9, 35, 0
8, 176040, Note_on_c, 9, 35, 127
8, 176040, Note_on_c, 9, 35, 127
8, 176040, Note_on_c, 9, 35, 127
8, 176160, Note_on_c, 9, 35, 0
8, 176160, Note_on_c, 9, 35, 0
8, 176160, Note_on_c, 9, 35, 0
8, 176160, Note_on_c, 9, 35, 127
8, 176160, Note_on_c, 9, 35, 127
8, 176160, Note_on_c, 9, 35, 127
8, 176280, Note_on_c, 9, 35, 0
8, 176280, Note_on_c, 9, 35, 0
8, 176280, Note_on_c, 9, 35, 0
8, 176400, Note_on_c, 9, 35, 127
8, 176400, Note_on_c, 9, 35, 127
8, 176400, Note_on_c, 9, 35, 127
8, 176520, Note_on_c, 9, 35, 0
8, 176520, Note_on_c, 9, 35, 0
8, 176520, Note_on_c, 9, 35, 0
8, 176640, Note_on_c, 9, 35, 127
8, 176640, Note_on_c, 9, 35, 127
8, 176640, Note_on_c, 9, 35, 127
8, 176640, Note_on_c, 9, 38, 127
8, 176640, Note_on_c, 9, 38, 127
8, 176640, Note_on_c, 9, 38, 127
8, 176640, Note_on_c, 9, 42, 127
8, 176640, Note_on_c, 9, 42, 127
8, 176640, Note_on_c, 9, 42, 127
8, 176640, Note_on_c, 9, 49, 127
8, 176640, Note_on_c, 9, 49, 127
8, 176640, Note_on_c, 9, 49, 127
8, 177000, Note_on_c, 9, 35, 0
8, 177000, Note_on_c, 9, 35, 0
8, 177000, Note_on_c, 9, 35, 0
8, 177000, Note_on_c, 9, 38, 0
8, 177000, Note_on_c, 9, 38, 0
8, 177000, Note_on_c, 9, 38, 0
8, 177000, Note_on_c, 9, 42, 0
8, 177000, Note_on_c, 9, 42, 0
8, 177000, Note_on_c, 9, 42, 0
8, 177000, Note_on_c, 9, 49, 0
8, 177000, Note_on_c, 9, 49, 0
8, 177000, Note_on_c, 9, 49, 0
8, 177120, Note_on_c, 9, 35, 127
8, 177120, Note_on_c, 9, 35, 127
8, 177120, Note_on_c, 9, 35, 127
8, 177120, Note_on_c, 9, 35, 127
8, 177120, Note_on_c, 9, 46, 127
8, 177120, Note_on_c, 9, 49, 127
8, 177240, Note_on_c, 9, 35, 0
8, 177240, Note_on_c, 9, 35, 0
8, 177240, Note_on_c, 9, 35, 0
8, 177240, Note_on_c, 9, 35, 0
8, 177240, Note_on_c, 9, 46, 0
8, 177240, Note_on_c, 9, 49, 0
8, 177360, Note_on_c, 9, 35, 127
8, 177360, Note_on_c, 9, 35, 127
8, 177360, Note_on_c, 9, 35, 127
8, 177360, Note_on_c, 9, 35, 127
8, 177480, Note_on_c, 9, 35, 0
8, 177480, Note_on_c, 9, 35, 0
8, 177480, Note_on_c, 9, 35, 0
8, 177480, Note_on_c, 9, 35, 0
8, 177600, Note_on_c, 9, 38, 127
8, 177600, Note_on_c, 9, 46, 127
8, 177600, Note_on_c, 9, 49, 127
8, 177720, Note_on_c, 9, 38, 0
8, 177720, Note_on_c, 9, 46, 0
8, 177720, Note_on_c, 9, 49, 0
8, 177840, Note_on_c, 9, 35, 127
8, 177840, Note_on_c, 9, 35, 127
8, 177840, Note_on_c, 9, 35, 127
8, 177840, Note_on_c, 9, 35, 127
8, 177960, Note_on_c, 9, 35, 0
8, 177960, Note_on_c, 9, 35, 0
8, 177960, Note_on_c, 9, 35, 0
8, 177960, Note_on_c, 9, 35, 127
8, 177960, Note_on_c, 9, 35, 127
8, 177960, Note_on_c, 9, 35, 127
8, 177960, Note_on_c, 9, 35, 0
8, 177960, Note_on_c, 9, 35, 127
8, 178080, Note_on_c, 9, 35, 0
8, 178080, Note_on_c, 9, 35, 0
8, 178080, Note_on_c, 9, 35, 0
8, 178080, Note_on_c, 9, 35, 127
8, 178080, Note_on_c, 9, 35, 127
8, 178080, Note_on_c, 9, 35, 127
8, 178080, Note_on_c, 9, 35, 0
8, 178080, Note_on_c, 9, 35, 127
8, 178080, Note_on_c, 9, 46, 127
8, 178080, Note_on_c, 9, 49, 127
8, 178200, Note_on_c, 9, 35, 0
8, 178200, Note_on_c, 9, 35, 0
8, 178200, Note_on_c, 9, 35, 0
8, 178200, Note_on_c, 9, 35, 0
8, 178200, Note_on_c, 9, 35, 127
8, 178200, Note_on_c, 9, 46, 0
8, 178200, Note_on_c, 9, 49, 0
8, 178320, Note_on_c, 9, 35, 127
8, 178320, Note_on_c, 9, 35, 127
8, 178320, Note_on_c, 9, 35, 127
8, 178320, Note_on_c, 9, 35, 0
8, 178320, Note_on_c, 9, 35, 127
8, 178440, Note_on_c, 9, 35, 0
8, 178440, Note_on_c, 9, 35, 0
8, 178440, Note_on_c, 9, 35, 0
8, 178440, Note_on_c, 9, 35, 0
8, 178560, Note_on_c, 9, 35, 127
8, 178560, Note_on_c, 9, 46, 127
8, 178560, Note_on_c, 9, 49, 127
8, 178680, Note_on_c, 9, 35, 0
8, 178680, Note_on_c, 9, 46, 0
8, 178680, Note_on_c, 9, 49, 0
8, 178800, Note_on_c, 9, 35, 127
8, 178800, Note_on_c, 9, 35, 127
8, 178800, Note_on_c, 9, 35, 127
8, 178800, Note_on_c, 9, 38, 127
8, 178920, Note_on_c, 9, 35, 0
8, 178920, Note_on_c, 9, 35, 0
8, 178920, Note_on_c, 9, 35, 0
8, 178920, Note_on_c, 9, 38, 0
8, 179040, Note_on_c, 9, 35, 127
8, 179040, Note_on_c, 9, 35, 127
8, 179040, Note_on_c, 9, 35, 127
8, 179040, Note_on_c, 9, 46, 127
8, 179040, Note_on_c, 9, 49, 127
8, 179160, Note_on_c, 9, 35, 0
8, 179160, Note_on_c, 9, 35, 0
8, 179160, Note_on_c, 9, 35, 0
8, 179160, Note_on_c, 9, 46, 0
8, 179160, Note_on_c, 9, 49, 0
8, 179280, Note_on_c, 9, 35, 127
8, 179280, Note_on_c, 9, 35, 127
8, 179280, Note_on_c, 9, 35, 127
8, 179280, Note_on_c, 9, 35, 127
8, 179400, Note_on_c, 9, 35, 0
8, 179400, Note_on_c, 9, 35, 0
8, 179400, Note_on_c, 9, 35, 0
8, 179400, Note_on_c, 9, 35, 0
8, 179520, Note_on_c, 9, 38, 127
8, 179520, Note_on_c, 9, 46, 127
8, 179520, Note_on_c, 9, 49, 127
8, 179640, Note_on_c, 9, 38, 0
8, 179640, Note_on_c, 9, 46, 0
8, 179640, Note_on_c, 9, 49, 0
8, 179760, Note_on_c, 9, 35, 127
8, 179760, Note_on_c, 9, 35, 127
8, 179760, Note_on_c, 9, 35, 127
8, 179760, Note_on_c, 9, 35, 127
8, 179880, Note_on_c, 9, 35, 0
8, 179880, Note_on_c, 9, 35, 0
8, 179880, Note_on_c, 9, 35, 0
8, 179880, Note_on_c, 9, 35, 127
8, 179880, Note_on_c, 9, 35, 127
8, 179880, Note_on_c, 9, 35, 127
8, 179880, Note_on_c, 9, 35, 0
8, 180000, Note_on_c, 9, 35, 0
8, 180000, Note_on_c, 9, 35, 0
8, 180000, Note_on_c, 9, 35, 0
8, 180000, Note_on_c, 9, 35, 127
8, 180000, Note_on_c, 9, 35, 127
8, 180000, Note_on_c, 9, 35, 127
8, 180000, Note_on_c, 9, 38, 127
8, 180000, Note_on_c, 9, 46, 127
8, 180000, Note_on_c, 9, 49, 127
8, 180120, Note_on_c, 9, 35, 0
8, 180120, Note_on_c, 9, 35, 0
8, 180120, Note_on_c, 9, 35, 0
8, 180120, Note_on_c, 9, 35, 127
8, 180120, Note_on_c, 9, 38, 0
8, 180120, Note_on_c, 9, 46, 0
8, 180120, Note_on_c, 9, 49, 0
8, 180240, Note_on_c, 9, 35, 127
8, 180240, Note_on_c, 9, 35, 127
8, 180240, Note_on_c, 9, 35, 127
8, 180240, Note_on_c, 9, 35, 0
8, 180360, Note_on_c, 9, 35, 0
8, 180360, Note_on_c, 9, 35, 0
8, 180360, Note_on_c, 9, 35, 0
8, 180360, Note_on_c, 9, 38, 127
8, 180480, Note_on_c, 9, 35, 127
8, 180480, Note_on_c, 9, 35, 127
8, 180480, Note_on_c, 9, 35, 127
8, 180480, Note_on_c, 9, 38, 127
8, 180480, Note_on_c, 9, 38, 127
8, 180480, Note_on_c, 9, 38, 127
8, 180480, Note_on_c, 9, 35, 127
8, 180480, Note_on_c, 9, 38, 0
8, 180480, Note_on_c, 9, 46, 127
8, 180480, Note_on_c, 9, 49, 127
8, 180600, Note_on_c, 9, 35, 0
8, 180600, Note_on_c, 9, 35, 127
8, 180600, Note_on_c, 9, 46, 0
8, 180600, Note_on_c, 9, 49, 0
8, 180720, Note_on_c, 9, 35, 0
8, 180720, Note_on_c, 9, 38, 127
8, 180840, Note_on_c, 9, 35, 0
8, 180840, Note_on_c, 9, 35, 0
8, 180840, Note_on_c, 9, 35, 0
8, 180840, Note_on_c, 9, 38, 0
8, 180840, Note_on_c, 9, 38, 0
8, 180840, Note_on_c, 9, 38, 0
8, 180840, Note_on_c, 9, 38, 0
8, 180960, Note_on_c, 9, 35, 127
8, 180960, Note_on_c, 9, 35, 127
8, 180960, Note_on_c, 9, 35, 127
8, 180960, Note_on_c, 9, 35, 127
8, 180960, Note_on_c, 9, 46, 127
8, 180960, Note_on_c, 9, 49, 127
8, 181080, Note_on_c, 9, 35, 0
8, 181080, Note_on_c, 9, 35, 0
8, 181080, Note_on_c, 9, 35, 0
8, 181080, Note_on_c, 9, 35, 0
8, 181080, Note_on_c, 9, 46, 0
8, 181080, Note_on_c, 9, 49, 0
8, 181200, Note_on_c, 9, 35, 127
8, 181200, Note_on_c, 9, 35, 127
8, 181200, Note_on_c, 9, 35, 127
8, 181200, Note_on_c, 9, 35, 127
8, 181320, Note_on_c, 9, 35, 0
8, 181320, Note_on_c, 9, 35, 0
8, 181320, Note_on_c, 9, 35, 0
8, 181320, Note_on_c, 9, 35, 0
8, 181440, Note_on_c, 9, 38, 127
8, 181440, Note_on_c, 9, 46, 127
8, 181440, Note_on_c, 9, 49, 127
8, 181560, Note_on_c, 9, 38, 0
8, 181560, Note_on_c, 9, 46, 0
8, 181560, Note_on_c, 9, 49, 0
8, 181680, Note_on_c, 9, 35, 127
8, 181680, Note_on_c, 9, 35, 127
8, 181680, Note_on_c, 9, 35, 127
8, 181680, Note_on_c, 9, 35, 127
8, 181800, Note_on_c, 9, 35, 0
8, 181800, Note_on_c, 9, 35, 0
8, 181800, Note_on_c, 9, 35, 0
8, 181800, Note_on_c, 9, 35, 127
8, 181800, Note_on_c, 9, 35, 127
8, 181800, Note_on_c, 9, 35, 127
8, 181800, Note_on_c, 9, 35, 0
8, 181800, Note_on_c, 9, 35, 127
8, 181920, Note_on_c, 9, 35, 0
8, 181920, Note_on_c, 9, 35, 0
8, 181920, Note_on_c, 9, 35, 0
8, 181920, Note_on_c, 9, 35, 127
8, 181920, Note_on_c, 9, 35, 127
8, 181920, Note_on_c, 9, 35, 127
8, 181920, Note_on_c, 9, 35, 0
8, 181920, Note_on_c, 9, 35, 127
8, 181920, Note_on_c, 9, 46, 127
8, 181920, Note_on_c, 9, 49, 127
8, 182040, Note_on_c, 9, 35, 0
8, 182040, Note_on_c, 9, 35, 0
8, 182040, Note_on_c, 9, 35, 0
8, 182040, Note_on_c, 9, 35, 0
8, 182040, Note_on_c, 9, 35, 127
8, 182040, Note_on_c, 9, 46, 0
8, 182040, Note_on_c, 9, 49, 0
8, 182160, Note_on_c, 9, 35, 127
8, 182160, Note_on_c, 9, 35, 127
8, 182160, Note_on_c, 9, 35, 127
8, 182160, Note_on_c, 9, 35, 0
8, 182160, Note_on_c, 9, 35, 127
8, 182280, Note_on_c, 9, 35, 0
8, 182280, Note_on_c, 9, 35, 0
8, 182280, Note_on_c, 9, 35, 0
8, 182280, Note_on_c, 9, 35, 0
8, 182400, Note_on_c, 9, 35, 127
8, 182400, Note_on_c, 9, 46, 127
8, 182400, Note_on_c, 9, 49, 127
8, 182520, Note_on_c, 9, 35, 0
8, 182520, Note_on_c, 9, 46, 0
8, 182520, Note_on_c, 9, 49, 0
8, 182640, Note_on_c, 9, 35, 127
8, 182640, Note_on_c, 9, 35, 127
8, 182640, Note_on_c, 9, 35, 127
8, 182640, Note_on_c, 9, 38, 127
8, 182760, Note_on_c, 9, 35, 0
8, 182760, Note_on_c, 9, 35, 0
8, 182760, Note_on_c, 9, 35, 0
8, 182760, Note_on_c, 9, 38, 0
8, 182880, Note_on_c, 9, 35, 127
8, 182880, Note_on_c, 9, 35, 127
8, 182880, Note_on_c, 9, 35, 127
8, 182880, Note_on_c, 9, 46, 127
8, 182880, Note_on_c, 9, 49, 127
8, 183000, Note_on_c, 9, 35, 0
8, 183000, Note_on_c, 9, 35, 0
8, 183000, Note_on_c, 9, 35, 0
8, 183000, Note_on_c, 9, 46, 0
8, 183000, Note_on_c, 9, 49, 0
8, 183120, Note_on_c, 9, 35, 127
8, 183120, Note_on_c, 9, 35, 127
8, 183120, Note_on_c, 9, 35, 127
8, 183120, Note_on_c, 9, 35, 127
8, 183240, Note_on_c, 9, 35, 0
8, 183240, Note_on_c, 9, 35, 0
8, 183240, Note_on_c, 9, 35, 0
8, 183240, Note_on_c, 9, 35, 0
8, 183360, Note_on_c, 9, 38, 127
8, 183360, Note_on_c, 9, 46, 127
8, 183360, Note_on_c, 9, 49, 127
8, 183480, Note_on_c, 9, 38, 0
8, 183480, Note_on_c, 9, 46, 0
8, 183480, Note_on_c, 9, 49, 0
8, 183600, Note_on_c, 9, 35, 127
8, 183600, Note_on_c, 9, 35, 127
8, 183600, Note_on_c, 9, 35, 127
8, 183600, Note_on_c, 9, 35, 127
8, 183720, Note_on_c, 9, 35, 0
8, 183720, Note_on_c, 9, 35, 0
8, 183720, Note_on_c, 9, 35, 0
8, 183720, Note_on_c, 9, 35, 127
8, 183720, Note_on_c, 9, 35, 127
8, 183720, Note_on_c, 9, 35, 127
8, 183720, Note_on_c, 9, 35, 0
8, 183840, Note_on_c, 9, 35, 0
8, 183840, Note_on_c, 9, 35, 0
8, 183840, Note_on_c, 9, 35, 0
8, 183840, Note_on_c, 9, 35, 127
8, 183840, Note_on_c, 9, 35, 127
8, 183840, Note_on_c, 9, 35, 127
8, 183840, Note_on_c, 9, 38, 127
8, 183840, Note_on_c, 9, 46, 127
8, 183840, Note_on_c, 9, 49, 127
8, 183960, Note_on_c, 9, 35, 0
8, 183960, Note_on_c, 9, 35, 0
8, 183960, Note_on_c, 9, 35, 0
8, 183960, Note_on_c, 9, 35, 127
8, 183960, Note_on_c, 9, 38, 0
8, 183960, Note_on_c, 9, 46, 0
8, 183960, Note_on_c, 9, 49, 0
8, 184080, Note_on_c, 9, 35, 127
8, 184080, Note_on_c, 9, 35, 127
8, 184080, Note_on_c, 9, 35, 127
8, 184080, Note_on_c, 9, 35, 0
8, 184200, Note_on_c, 9, 35, 0
8, 184200, Note_on_c, 9, 35, 0
8, 184200, Note_on_c, 9, 35, 0
8, 184200, Note_on_c, 9, 38, 127
8, 184320, Note_on_c, 9, 35, 127
8, 184320, Note_on_c, 9, 35, 127
8, 184320, Note_on_c, 9, 35, 127
8, 184320, Note_on_c, 9, 38, 127
8, 184320, Note_on_c, 9, 38, 127
8, 184320, Note_on_c, 9, 38, 127
8, 184320, Note_on_c, 9, 42, 127
8, 184320, Note_on_c, 9, 42, 127
8, 184320, Note_on_c, 9, 42, 127
8, 184320, Note_on_c, 9, 49, 127
8, 184320, Note_on_c, 9, 49, 127
8, 184320, Note_on_c, 9, 49, 127
8, 184320, Note_on_c, 9, 35, 127
8, 184320, Note_on_c, 9, 38, 0
8, 184320, Note_on_c, 9, 46, 127
8, 184320, Note_on_c, 9, 49, 127
8, 184440, Note_on_c, 9, 35, 0
8, 184440, Note_on_c, 9, 35, 127
8, 184440, Note_on_c, 9, 46, 0
8, 184440, Note_on_c, 9, 49, 0
8, 184560, Note_on_c, 9, 35, 0
8, 184560, Note_on_c, 9, 38, 127
8, 184680, Note_on_c, 9, 35, 0
8, 184680, Note_on_c, 9, 35, 0
8, 184680, Note_on_c, 9, 35, 0
8, 184680, Note_on_c, 9, 38, 0
8, 184680, Note_on_c, 9, 38, 0
8, 184680, Note_on_c, 9, 38, 0
8, 184680, Note_on_c, 9, 42, 0
8, 184680, Note_on_c, 9, 42, 0
8, 184680, Note_on_c, 9, 42, 0
8, 184680, Note_on_c, 9, 49, 0
8, 184680, Note_on_c, 9, 49, 0
8, 184680, Note_on_c, 9, 49, 0
8, 184680, Note_on_c, 9, 38, 0
8, 184800, Note_on_c, 9, 35, 127
8, 184800, Note_on_c, 9, 35, 127
8, 184800, Note_on_c, 9, 35, 127
8, 184800, Note_on_c, 9, 35, 127
8, 184800, Note_on_c, 9, 46, 127
8, 184800, Note_on_c, 9, 49, 127
8, 184920, Note_on_c, 9, 35, 0
8, 184920, Note_on_c, 9, 35, 0
8, 184920, Note_on_c, 9, 35, 0
8, 184920, Note_on_c, 9, 35, 0
8, 184920, Note_on_c, 9, 46, 0
8, 184920, Note_on_c, 9, 49, 0
8, 185040, Note_on_c, 9, 35, 127
8, 185040, Note_on_c, 9, 35, 127
8, 185040, Note_on_c, 9, 35, 127
8, 185040, Note_on_c, 9, 35, 127
8, 185160, Note_on_c, 9, 35, 0
8, 185160, Note_on_c, 9, 35, 0
8, 185160, Note_on_c, 9, 35, 0
8, 185160, Note_on_c, 9, 35, 0
8, 185280, Note_on_c, 9, 38, 127
8, 185280, Note_on_c, 9, 46, 127
8, 185280, Note_on_c, 9, 49, 127
8, 185400, Note_on_c, 9, 38, 0
8, 185400, Note_on_c, 9, 46, 0
8, 185400, Note_on_c, 9, 49, 0
8, 185520, Note_on_c, 9, 35, 127
8, 185520, Note_on_c, 9, 35, 127
8, 185520, Note_on_c, 9, 35, 127
8, 185520, Note_on_c, 9, 35, 127
8, 185640, Note_on_c, 9, 35, 0
8, 185640, Note_on_c, 9, 35, 0
8, 185640, Note_on_c, 9, 35, 0
8, 185640, Note_on_c, 9, 35, 127
8, 185640, Note_on_c, 9, 35, 127
8, 185640, Note_on_c, 9, 35, 127
8, 185640, Note_on_c, 9, 35, 0
8, 185640, Note_on_c, 9, 35, 127
8, 185760, Note_on_c, 9, 35, 0
8, 185760, Note_on_c, 9, 35, 0
8, 185760, Note_on_c, 9, 35, 0
8, 185760, Note_on_c, 9, 35, 127
8, 185760, Note_on_c, 9, 35, 127
8, 185760, Note_on_c, 9, 35, 127
8, 185760, Note_on_c, 9, 35, 0
8, 185760, Note_on_c, 9, 35, 127
8, 185760, Note_on_c, 9, 46, 127
8, 185760, Note_on_c, 9, 49, 127
8, 185880, Note_on_c, 9, 35, 0
8, 185880, Note_on_c, 9, 35, 0
8, 185880, Note_on_c, 9, 35, 0
8, 185880, Note_on_c, 9, 35, 0
8, 185880, Note_on_c, 9, 35, 127
8, 185880, Note_on_c, 9, 46, 0
8, 185880, Note_on_c, 9, 49, 0
8, 186000, Note_on_c, 9, 35, 127
8, 186000, Note_on_c, 9, 35, 127
8, 186000, Note_on_c, 9, 35, 127
8, 186000, Note_on_c, 9, 35, 0
8, 186000, Note_on_c, 9, 35, 127
8, 186120, Note_on_c, 9, 35, 0
8, 186120, Note_on_c, 9, 35, 0
8, 186120, Note_on_c, 9, 35, 0
8, 186120, Note_on_c, 9, 35, 0
8, 186240, Note_on_c, 9, 35, 127
8, 186240, Note_on_c, 9, 46, 127
8, 186240, Note_on_c, 9, 49, 127
8, 186360, Note_on_c, 9, 35, 0
8, 186360, Note_on_c, 9, 46, 0
8, 186360, Note_on_c, 9, 49, 0
8, 186480, Note_on_c, 9, 35, 127
8, 186480, Note_on_c, 9, 35, 127
8, 186480, Note_on_c, 9, 35, 127
8, 186480, Note_on_c, 9, 38, 127
8, 186600, Note_on_c, 9, 35, 0
8, 186600, Note_on_c, 9, 35, 0
8, 186600, Note_on_c, 9, 35, 0
8, 186600, Note_on_c, 9, 38, 0
8, 186720, Note_on_c, 9, 35, 127
8, 186720, Note_on_c, 9, 35, 127
8, 186720, Note_on_c, 9, 35, 127
8, 186720, Note_on_c, 9, 46, 127
8, 186720, Note_on_c, 9, 49, 127
8, 186840, Note_on_c, 9, 35, 0
8, 186840, Note_on_c, 9, 35, 0
8, 186840, Note_on_c, 9, 35, 0
8, 186840, Note_on_c, 9, 46, 0
8, 186840, Note_on_c, 9, 49, 0
8, 186960, Note_on_c, 9, 35, 127
8, 186960, Note_on_c, 9, 35, 127
8, 186960, Note_on_c, 9, 35, 127
8, 186960, Note_on_c, 9, 35, 127
8, 187080, Note_on_c, 9, 35, 0
8, 187080, Note_on_c, 9, 35, 0
8, 187080, Note_on_c, 9, 35, 0
8, 187080, Note_on_c, 9, 35, 0
8, 187200, Note_on_c, 9, 38, 127
8, 187200, Note_on_c, 9, 46, 127
8, 187200, Note_on_c, 9, 49, 127
8, 187320, Note_on_c, 9, 38, 0
8, 187320, Note_on_c, 9, 46, 0
8, 187320, Note_on_c, 9, 49, 0
8, 187440, Note_on_c, 9, 35, 127
8, 187440, Note_on_c, 9, 35, 127
8, 187440, Note_on_c, 9, 35, 127
8, 187440, Note_on_c, 9, 35, 127
8, 187560, Note_on_c, 9, 35, 0
8, 187560, Note_on_c, 9, 35, 0
8, 187560, Note_on_c, 9, 35, 0
8, 187560, Note_on_c, 9, 35, 127
8, 187560, Note_on_c, 9, 35, 127
8, 187560, Note_on_c, 9, 35, 127
8, 187560, Note_on_c, 9, 35, 0
8, 187680, Note_on_c, 9, 35, 0
8, 187680, Note_on_c, 9, 35, 0
8, 187680, Note_on_c, 9, 35, 0
8, 187680, Note_on_c, 9, 35, 127
8, 187680, Note_on_c, 9, 35, 127
8, 187680, Note_on_c, 9, 35, 127
8, 187680, Note_on_c, 9, 38, 127
8, 187680, Note_on_c, 9, 46, 127
8, 187680, Note_on_c, 9, 49, 127
8, 187800, Note_on_c, 9, 35, 0
8, 187800, Note_on_c, 9, 35, 0
8, 187800, Note_on_c, 9, 35, 0
8, 187800, Note_on_c, 9, 35, 127
8, 187800, Note_on_c, 9, 38, 0
8, 187800, Note_on_c, 9, 46, 0
8, 187800, Note_on_c, 9, 49, 0
8, 187920, Note_on_c, 9, 35, 127
8, 187920, Note_on_c, 9, 35, 127
8, 187920, Note_on_c, 9, 35, 127
8, 187920, Note_on_c, 9, 35, 0
8, 188040, Note_on_c, 9, 35, 0
8, 188040, Note_on_c, 9, 35, 0
8, 188040, Note_on_c, 9, 35, 0
8, 188040, Note_on_c, 9, 38, 127
8, 188160, Note_on_c, 9, 35, 127
8, 188160, Note_on_c, 9, 35, 127
8, 188160, Note_on_c, 9, 35, 127
8, 188160, Note_on_c, 9, 38, 127
8, 188160, Note_on_c, 9, 38, 127
8, 188160, Note_on_c, 9, 38, 127
8, 188160, Note_on_c, 9, 35, 127
8, 188160, Note_on_c, 9, 38, 0
8, 188160, Note_on_c, 9, 46, 127
8, 188160, Note_on_c, 9, 49, 127
8, 188280, Note_on_c, 9, 35, 0
8, 188280, Note_on_c, 9, 35, 127
8, 188280, Note_on_c, 9, 46, 0
8, 188280, Note_on_c, 9, 49, 0
8, 188400, Note_on_c, 9, 35, 0
8, 188400, Note_on_c, 9, 38, 127
8, 188520, Note_on_c, 9, 35, 0
8, 188520, Note_on_c, 9, 35, 0
8, 188520, Note_on_c, 9, 35, 0
8, 188520, Note_on_c, 9, 38, 0
8, 188520, Note_on_c, 9, 38, 0
8, 188520, Note_on_c, 9, 38, 0
8, 188520, Note_on_c, 9, 38, 0
8, 188640, Note_on_c, 9, 35, 127
8, 188640, Note_on_c, 9, 35, 127
8, 188640, Note_on_c, 9, 35, 127
8, 188640, Note_on_c, 9, 35, 127
8, 188640, Note_on_c, 9, 46, 127
8, 188640, Note_on_c, 9, 49, 127
8, 188760, Note_on_c, 9, 35, 0
8, 188760, Note_on_c, 9, 35, 0
8, 188760, Note_on_c, 9, 35, 0
8, 188760, Note_on_c, 9, 35, 0
8, 188760, Note_on_c, 9, 46, 0
8, 188760, Note_on_c, 9, 49, 0
8, 188880, Note_on_c, 9, 35, 127
8, 188880, Note_on_c, 9, 35, 127
8, 188880, Note_on_c, 9, 35, 127
8, 188880, Note_on_c, 9, 35, 127
8, 189000, Note_on_c, 9, 35, 0
8, 189000, Note_on_c, 9, 35, 0
8, 189000, Note_on_c, 9, 35, 0
8, 189000, Note_on_c, 9, 35, 0
8, 189120, Note_on_c, 9, 38, 127
8, 189120, Note_on_c, 9, 46, 127
8, 189120, Note_on_c, 9, 49, 127
8, 189240, Note_on_c, 9, 38, 0
8, 189240, Note_on_c, 9, 46, 0
8, 189240, Note_on_c, 9, 49, 0
8, 189360, Note_on_c, 9, 35, 127
8, 189360, Note_on_c, 9, 35, 127
8, 189360, Note_on_c, 9, 35, 127
8, 189360, Note_on_c, 9, 35, 127
8, 189480, Note_on_c, 9, 35, 0
8, 189480, Note_on_c, 9, 35, 0
8, 189480, Note_on_c, 9, 35, 0
8, 189480, Note_on_c, 9, 35, 127
8, 189480, Note_on_c, 9, 35, 127
8, 189480, Note_on_c, 9, 35, 127
8, 189480, Note_on_c, 9, 35, 0
8, 189480, Note_on_c, 9, 35, 127
8, 189600, Note_on_c, 9, 35, 0
8, 189600, Note_on_c, 9, 35, 0
8, 189600, Note_on_c, 9, 35, 0
8, 189600, Note_on_c, 9, 35, 127
8, 189600, Note_on_c, 9, 35, 127
8, 189600, Note_on_c, 9, 35, 127
8, 189600, Note_on_c, 9, 35, 0
8, 189600, Note_on_c, 9, 35, 127
8, 189600, Note_on_c, 9, 46, 127
8, 189600, Note_on_c, 9, 49, 127
8, 189720, Note_on_c, 9, 35, 0
8, 189720, Note_on_c, 9, 35, 0
8, 189720, Note_on_c, 9, 35, 0
8, 189720, Note_on_c, 9, 35, 0
8, 189720, Note_on_c, 9, 35, 127
8, 189720, Note_on_c, 9, 46, 0
8, 189720, Note_on_c, 9, 49, 0
8, 189840, Note_on_c, 9, 35, 127
8, 189840, Note_on_c, 9, 35, 127
8, 189840, Note_on_c, 9, 35, 127
8, 189840, Note_on_c, 9, 35, 0
8, 189840, Note_on_c, 9, 35, 127
8, 189960, Note_on_c, 9, 35, 0
8, 189960, Note_on_c, 9, 35, 0
8, 189960, Note_on_c, 9, 35, 0
8, 189960, Note_on_c, 9, 35, 0
8, 190080, Note_on_c, 9, 35, 127
8, 190080, Note_on_c, 9, 46, 127
8, 190080, Note_on_c, 9, 49, 127
8, 190200, Note_on_c, 9, 35, 0
8, 190200, Note_on_c, 9, 46, 0
8, 190200, Note_on_c, 9, 49, 0
8, 190320, Note_on_c, 9, 35, 127
8, 190320, Note_on_c, 9, 35, 127
8, 190320, Note_on_c, 9, 35, 127
8, 190320, Note_on_c, 9, 38, 127
8, 190440, Note_on_c, 9, 35, 0
8, 190440, Note_on_c, 9, 35, 0
8, 190440, Note_on_c, 9, 35, 0
8, 190440, Note_on_c, 9, 38, 0
8, 190560, Note_on_c, 9, 35, 127
8, 190560, Note_on_c, 9, 35, 127
8, 190560, Note_on_c, 9, 35, 127
8, 190560, Note_on_c, 9, 46, 127
8, 190560, Note_on_c, 9, 49, 127
8, 190680, Note_on_c, 9, 35, 0
8, 190680, Note_on_c, 9, 35, 0
8, 190680, Note_on_c, 9, 35, 0
8, 190680, Note_on_c, 9, 46, 0
8, 190680, Note_on_c, 9, 49, 0
8, 190800, Note_on_c, 9, 35, 127
8, 190800, Note_on_c, 9, 35, 127
8, 190800, Note_on_c, 9, 35, 127
8, 190800, Note_on_c, 9, 35, 127
8, 190920, Note_on_c, 9, 35, 0
8, 190920, Note_on_c, 9, 35, 0
8, 190920, Note_on_c, 9, 35, 0
8, 190920, Note_on_c, 9, 35, 0
8, 191040, Note_on_c, 9, 38, 127
8, 191040, Note_on_c, 9, 46, 127
8, 191040, Note_on_c, 9, 49, 127
8, 191160, Note_on_c, 9, 38, 0
8, 191160, Note_on_c, 9, 46, 0
8, 191160, Note_on_c, 9, 49, 0
8, 191280, Note_on_c, 9, 35, 127
8, 191280, Note_on_c, 9, 35, 127
8, 191280, Note_on_c, 9, 35, 127
8, 191280, Note_on_c, 9, 35, 127
8, 191400, Note_on_c, 9, 35, 0
8, 191400, Note_on_c, 9, 35, 0
8, 191400, Note_on_c, 9, 35, 0
8, 191400, Note_on_c, 9, 35, 127
8, 191400, Note_on_c, 9, 35, 127
8, 191400, Note_on_c, 9, 35, 127
8, 191400, Note_on_c, 9, 35, 0
8, 191520, Note_on_c, 9, 35, 0
8, 191520, Note_on_c, 9, 35, 0
8, 191520, Note_on_c, 9, 35, 0
8, 191520, Note_on_c, 9, 35, 127
8, 191520, Note_on_c, 9, 35, 127
8, 191520, Note_on_c, 9, 35, 127
8, 191520, Note_on_c, 9, 38, 127
8, 191520, Note_on_c, 9, 46, 127
8, 191520, Note_on_c, 9, 49, 127
8, 191640, Note_on_c, 9, 35, 0
8, 191640, Note_on_c, 9, 35, 0
8, 191640, Note_on_c, 9, 35, 0
8, 191640, Note_on_c, 9, 35, 127
8, 191640, Note_on_c, 9, 38, 0
8, 191640, Note_on_c, 9, 46, 0
8, 191640, Note_on_c, 9, 49, 0
8, 191760, Note_on_c, 9, 35, 127
8, 191760, Note_on_c, 9, 35, 127
8, 191760, Note_on_c, 9, 35, 127
8, 191760, Note_on_c, 9, 35, 0
8, 191880, Note_on_c, 9, 35, 0
8, 191880, Note_on_c, 9, 35, 0
8, 191880, Note_on_c, 9, 35, 0
8, 191880, Note_on_c, 9, 38, 127
8, 192000, Note_on_c, 9, 35, 127
8, 192000, Note_on_c, 9, 35, 127
8, 192000, Note_on_c, 9, 35, 127
8, 192000, Note_on_c, 9, 38, 127
8, 192000, Note_on_c, 9, 38, 127
8, 192000, Note_on_c, 9, 38, 127
8, 192000, Note_on_c, 9, 42, 127
8, 192000, Note_on_c, 9, 42, 127
8, 192000, Note_on_c, 9, 42, 127
8, 192000, Note_on_c, 9, 49, 127
8, 192000, Note_on_c, 9, 49, 127
8, 192000, Note_on_c, 9, 49, 127
8, 192000, Note_on_c, 9, 35, 127
8, 192000, Note_on_c, 9, 38, 0
8, 192000, Note_on_c, 9, 46, 127
8, 192000, Note_on_c, 9, 49, 127
8, 192120, Note_on_c, 9, 35, 0
8, 192120, Note_on_c, 9, 35, 127
8, 192120, Note_on_c, 9, 46, 0
8, 192120, Note_on_c, 9, 49, 0
8, 192240, Note_on_c, 9, 35, 0
8, 192240, Note_on_c, 9, 38, 127
8, 192360, Note_on_c, 9, 35, 0
8, 192360, Note_on_c, 9, 35, 0
8, 192360, Note_on_c, 9, 35, 0
8, 192360, Note_on_c, 9, 38, 0
8, 192360, Note_on_c, 9, 38, 0
8, 192360, Note_on_c, 9, 38, 0
8, 192360, Note_on_c, 9, 42, 0
8, 192360, Note_on_c, 9, 42, 0
8, 192360, Note_on_c, 9, 42, 0
8, 192360, Note_on_c, 9, 49, 0
8, 192360, Note_on_c, 9, 49, 0
8, 192360, Note_on_c, 9, 49, 0
8, 192360, Note_on_c, 9, 38, 0
8, 192480, Note_on_c, 9, 35, 127
8, 192480, Note_on_c, 9, 35, 127
8, 192480, Note_on_c, 9, 35, 127
8, 192480, Note_on_c, 9, 35, 127
8, 192480, Note_on_c, 9, 46, 127
8, 192480, Note_on_c, 9, 49, 127
8, 192600, Note_on_c, 9, 35, 0
8, 192600, Note_on_c, 9, 35, 0
8, 192600, Note_on_c, 9, 35, 0
8, 192600, Note_on_c, 9, 35, 0
8, 192600, Note_on_c, 9, 46, 0
8, 192600, Note_on_c, 9, 49, 0
8, 192600, End_track
0, 0, End_of_file
