0, 0, Header, 0, 1, 480
1, 0, Start_track
1, 0, Title_t, "YOU'RE BEAUTIFUL"
1, 0, Tempo, 750000
1, 0, Time_signature, 4, 2, 24, 8
1, 0, MIDI_port, 0
1, 0, MIDI_port, 0
1, 0, MIDI_port, 0
1, 0, MIDI_port, 0
1, 0, MIDI_port, 0
1, 0, MIDI_port, 0
1, 0, MIDI_port, 0
1, 0, MIDI_port, 0
1, 0, MIDI_port, 0
1, 0, MIDI_port, 0
1, 0, MIDI_port, 0
1, 0, MIDI_port, 0
1, 0, Lyric_t, "\015"
1, 0, System_exclusive, 5, 126, 127, 9, 1, 247
1, 5, System_exclusive, 5, 126, 127, 9, 1, 247
1, 56, System_exclusive, 10, 65, 16, 66, 18, 64, 0, 127, 0, 65, 247
1, 118, System_exclusive, 10, 65, 16, 66, 18, 64, 1, 52, 93, 46, 247
1, 315, Control_c, 1, 121, 0
1, 317, Control_c, 7, 121, 0
1, 320, Control_c, 3, 121, 0
1, 320, Control_c, 4, 121, 0
1, 325, Control_c, 5, 121, 0
1, 327, Control_c, 6, 121, 0
1, 332, Control_c, 8, 121, 0
1, 335, Control_c, 9, 121, 0
1, 337, Control_c, 10, 121, 0
1, 340, Control_c, 11, 121, 0
1, 342, Control_c, 12, 121, 0
1, 345, Control_c, 2, 121, 0
1, 345, Control_c, 13, 121, 0
1, 359, Control_c, 6, 101, 0
1, 360, Control_c, 6, 100, 0
1, 361, Control_c, 6, 6, 6
1, 362, Control_c, 6, 38, 32
1, 484, Control_c, 1, 91, 0
1, 484, Control_c, 1, 93, 0
1, 484, Control_c, 3, 32, 1
1, 484, Control_c, 3, 0, 0
1, 487, Control_c, 4, 32, 1
1, 487, Control_c, 4, 0, 0
1, 488, Program_c, 3, 63
1, 489, Control_c, 3, 91, 105
1, 489, Control_c, 3, 93, 0
1, 489, Control_c, 5, 32, 1
1, 489, Control_c, 5, 0, 0
1, 491, Program_c, 4, 53
1, 491, Control_c, 4, 91, 86
1, 491, Control_c, 4, 93, 20
1, 492, Control_c, 6, 32, 1
1, 492, Control_c, 6, 0, 0
1, 493, Program_c, 5, 49
1, 494, Control_c, 7, 32, 1
1, 494, Control_c, 7, 0, 0
1, 494, Control_c, 5, 91, 73
1, 494, Control_c, 5, 93, 22
1, 496, Program_c, 6, 48
1, 496, Control_c, 6, 91, 86
1, 496, Control_c, 6, 93, 24
1, 497, Control_c, 8, 32, 1
1, 497, Control_c, 8, 0, 0
1, 498, Program_c, 7, 1
1, 499, Control_c, 7, 91, 102
1, 499, Control_c, 7, 93, 20
1, 501, Program_c, 8, 26
1, 501, Control_c, 8, 91, 80
1, 501, Control_c, 8, 93, 20
1, 502, Control_c, 10, 32, 1
1, 502, Control_c, 10, 0, 0
1, 503, Program_c, 9, 0
1, 504, Control_c, 9, 91, 83
1, 504, Control_c, 9, 93, 0
1, 504, Control_c, 11, 32, 1
1, 504, Control_c, 11, 0, 0
1, 506, Program_c, 10, 26
1, 506, Control_c, 10, 91, 60
1, 506, Control_c, 10, 93, 22
1, 507, Control_c, 12, 32, 1
1, 507, Control_c, 12, 0, 0
1, 508, Program_c, 11, 25
1, 509, Control_c, 11, 91, 82
1, 509, Control_c, 11, 93, 12
1, 509, Control_c, 13, 32, 1
1, 509, Control_c, 13, 0, 0
1, 511, Program_c, 12, 25
1, 511, Control_c, 12, 91, 74
1, 511, Control_c, 12, 93, 20
1, 512, Control_c, 2, 32, 1
1, 512, Control_c, 2, 0, 0
1, 513, Program_c, 13, 24
1, 514, Control_c, 13, 91, 103
1, 514, Control_c, 13, 93, 28
1, 516, Program_c, 2, 18
1, 516, Control_c, 2, 91, 58
1, 516, Control_c, 2, 93, 28
1, 707, Control_c, 1, 64, 0
1, 710, Control_c, 7, 64, 0
1, 712, Control_c, 3, 64, 0
1, 712, Control_c, 4, 64, 0
1, 717, Control_c, 5, 64, 0
1, 720, Control_c, 6, 64, 0
1, 725, Control_c, 8, 64, 0
1, 727, Control_c, 9, 64, 0
1, 730, Control_c, 10, 64, 0
1, 732, Control_c, 11, 64, 0
1, 735, Control_c, 12, 64, 0
1, 737, Control_c, 2, 64, 0
1, 737, Control_c, 13, 64, 0
1, 757, Control_c, 1, 11, 127
1, 760, Control_c, 7, 11, 127
1, 762, Control_c, 3, 11, 127
1, 762, Control_c, 4, 11, 127
1, 767, Control_c, 5, 11, 127
1, 770, Control_c, 6, 11, 127
1, 775, Control_c, 8, 11, 127
1, 777, Control_c, 9, 11, 127
1, 780, Control_c, 10, 11, 127
1, 782, Control_c, 11, 11, 127
1, 785, Control_c, 12, 11, 127
1, 787, Control_c, 2, 11, 127
1, 787, Control_c, 13, 11, 127
1, 807, Control_c, 1, 1, 0
1, 810, Control_c, 7, 1, 0
1, 812, Control_c, 3, 1, 0
1, 812, Control_c, 4, 1, 0
1, 817, Control_c, 5, 1, 0
1, 820, Control_c, 6, 1, 0
1, 825, Control_c, 8, 1, 0
1, 827, Control_c, 9, 1, 0
1, 830, Control_c, 10, 1, 0
1, 832, Control_c, 11, 1, 0
1, 835, Control_c, 12, 1, 0
1, 837, Control_c, 2, 1, 0
1, 837, Control_c, 13, 1, 0
1, 857, Pitch_bend_c, 1, 8192
1, 860, Pitch_bend_c, 7, 8192
1, 862, Pitch_bend_c, 3, 8192
1, 862, Pitch_bend_c, 4, 8192
1, 867, Pitch_bend_c, 5, 8192
1, 870, Pitch_bend_c, 6, 8192
1, 875, Pitch_bend_c, 8, 8192
1, 877, Pitch_bend_c, 9, 8192
1, 880, Pitch_bend_c, 10, 8192
1, 882, Pitch_bend_c, 11, 8192
1, 885, Pitch_bend_c, 12, 8192
1, 887, Pitch_bend_c, 2, 8192
1, 887, Pitch_bend_c, 13, 8192
1, 1920, Note_on_c, 9, 42, 54
1, 2140, Note_on_c, 9, 42, 0
1, 2400, Note_on_c, 9, 42, 44
1, 2626, Note_on_c, 9, 42, 0
1, 2880, Note_on_c, 9, 42, 55
1, 3114, Note_on_c, 9, 42, 0
1, 3120, Note_on_c, 12, 55, 105
1, 3120, Note_on_c, 13, 55, 105
1, 3348, Note_on_c, 12, 55, 0
1, 3348, Note_on_c, 13, 55, 0
1, 3360, Note_on_c, 10, 55, 75
1, 3360, Note_on_c, 12, 63, 105
1, 3360, Note_on_c, 13, 63, 105
1, 3474, Note_on_c, 12, 63, 0
1, 3474, Note_on_c, 13, 63, 0
1, 3480, Note_on_c, 10, 53, 25
1, 3480, Note_on_c, 12, 62, 99
1, 3480, Note_on_c, 13, 62, 99
1, 3483, Note_on_c, 10, 55, 0
1, 3543, Note_on_c, 10, 53, 0
1, 3682, Note_on_c, 12, 62, 0
1, 3682, Note_on_c, 13, 62, 0
1, 3720, Note_on_c, 12, 63, 108
1, 3720, Note_on_c, 13, 63, 108
1, 3839, Note_on_c, 11, 67, 87
1, 3840, Note_on_c, 8, 51, 72
1, 3840, Note_on_c, 10, 55, 70
1, 3840, Note_on_c, 11, 63, 84
1, 3840, Note_on_c, 11, 70, 87
1, 4033, Note_on_c, 8, 51, 0
1, 4080, Note_on_c, 8, 51, 43
1, 4249, Control_c, 12, 1, 7
1, 4249, Control_c, 13, 1, 7
1, 4260, Note_on_c, 11, 63, 0
1, 4260, Note_on_c, 11, 70, 0
1, 4262, Note_on_c, 10, 55, 0
1, 4266, Note_on_c, 11, 67, 0
1, 4292, Note_on_c, 8, 51, 0
1, 4320, Note_on_c, 8, 51, 70
1, 4320, Note_on_c, 10, 53, 48
1, 4320, Note_on_c, 11, 63, 87
1, 4320, Note_on_c, 11, 67, 87
1, 4321, Note_on_c, 11, 70, 82
1, 4398, Control_c, 12, 1, 15
1, 4398, Control_c, 13, 1, 15
1, 4526, Control_c, 12, 1, 22
1, 4526, Control_c, 13, 1, 22
1, 4560, Note_on_c, 10, 55, 76
1, 4591, Note_on_c, 10, 53, 0
1, 4638, Note_on_c, 11, 63, 0
1, 4638, Note_on_c, 11, 70, 0
1, 4649, Note_on_c, 11, 67, 0
1, 4680, Note_on_c, 11, 70, 80
1, 4680, Note_on_c, 11, 63, 66
1, 4680, Note_on_c, 11, 67, 84
1, 4823, Control_c, 12, 1, 14
1, 4823, Control_c, 13, 1, 14
1, 4845, Control_c, 12, 1, 3
1, 4845, Control_c, 13, 1, 3
1, 4855, Control_c, 12, 1, 0
1, 4855, Control_c, 13, 1, 0
1, 4872, Note_on_c, 11, 63, 0
1, 4883, Note_on_c, 11, 70, 0
1, 4889, Note_on_c, 11, 67, 0
1, 4919, Note_on_c, 11, 70, 60
1, 4920, Note_on_c, 11, 63, 60
1, 4920, Note_on_c, 11, 67, 60
1, 4936, Note_on_c, 8, 51, 0
1, 4986, Note_on_c, 12, 63, 0
1, 4986, Note_on_c, 13, 63, 0
1, 5008, Note_on_c, 10, 55, 0
1, 5036, Note_on_c, 11, 70, 0
1, 5037, Note_on_c, 11, 63, 0
1, 5037, Note_on_c, 11, 67, 0
1, 5038, Note_on_c, 11, 67, 93
1, 5039, Note_on_c, 11, 70, 93
1, 5040, Note_on_c, 8, 51, 55
1, 5040, Note_on_c, 10, 53, 66
1, 5040, Note_on_c, 11, 63, 80
1, 5040, Note_on_c, 12, 55, 99
1, 5040, Note_on_c, 13, 55, 99
1, 5239, Note_on_c, 10, 53, 0
1, 5265, Note_on_c, 8, 51, 0
1, 5276, Note_on_c, 12, 55, 0
1, 5276, Note_on_c, 13, 55, 0
1, 5280, Note_on_c, 8, 51, 66
1, 5280, Note_on_c, 10, 55, 74
1, 5280, Note_on_c, 12, 63, 105
1, 5280, Note_on_c, 13, 63, 105
1, 5395, Note_on_c, 11, 63, 0
1, 5395, Note_on_c, 12, 63, 0
1, 5395, Note_on_c, 13, 63, 0
1, 5396, Note_on_c, 11, 67, 0
1, 5396, Note_on_c, 11, 70, 0
1, 5400, Note_on_c, 11, 67, 84
1, 5400, Note_on_c, 11, 63, 64
1, 5400, Note_on_c, 11, 70, 72
1, 5400, Note_on_c, 12, 62, 99
1, 5400, Note_on_c, 13, 62, 99
1, 5473, Note_on_c, 8, 51, 0
1, 5516, Note_on_c, 11, 67, 0
1, 5516, Note_on_c, 11, 70, 0
1, 5518, Note_on_c, 11, 63, 0
1, 5519, Note_on_c, 11, 63, 76
1, 5520, Note_on_c, 8, 51, 68
1, 5520, Note_on_c, 11, 67, 74
1, 5520, Note_on_c, 11, 70, 89
1, 5590, Note_on_c, 12, 62, 0
1, 5590, Note_on_c, 13, 62, 0
1, 5636, Note_on_c, 11, 63, 0
1, 5637, Note_on_c, 11, 67, 0
1, 5637, Note_on_c, 11, 70, 0
1, 5639, Note_on_c, 11, 70, 60
1, 5640, Note_on_c, 11, 63, 60
1, 5640, Note_on_c, 11, 67, 60
1, 5640, Note_on_c, 12, 63, 102
1, 5640, Note_on_c, 13, 63, 102
1, 5723, Note_on_c, 11, 63, 0
1, 5731, Note_on_c, 10, 55, 0
1, 5752, Note_on_c, 11, 67, 0
1, 5757, Note_on_c, 11, 70, 0
1, 5760, Note_on_c, 8, 46, 64
1, 5760, Note_on_c, 10, 50, 74
1, 5760, Note_on_c, 11, 65, 87
1, 5760, Note_on_c, 11, 70, 84
1, 5761, Note_on_c, 11, 62, 84
1, 5782, Note_on_c, 8, 51, 0
1, 5927, Note_on_c, 8, 46, 0
1, 5974, Note_on_c, 12, 63, 0
1, 5974, Note_on_c, 13, 63, 0
1, 6000, Note_on_c, 8, 46, 64
1, 6000, Note_on_c, 12, 65, 102
1, 6000, Note_on_c, 13, 65, 102
1, 6176, Note_on_c, 11, 65, 0
1, 6179, Note_on_c, 11, 62, 0
1, 6180, Note_on_c, 11, 70, 0
1, 6193, Note_on_c, 8, 46, 0
1, 6222, Note_on_c, 10, 50, 0
1, 6238, Note_on_c, 11, 70, 90
1, 6240, Note_on_c, 8, 46, 61
1, 6240, Note_on_c, 10, 48, 64
1, 6241, Note_on_c, 11, 65, 87
1, 6241, Note_on_c, 11, 62, 87
1, 6427, Note_on_c, 10, 48, 0
1, 6429, Note_on_c, 8, 46, 0
1, 6480, Note_on_c, 8, 46, 58
1, 6480, Note_on_c, 10, 50, 76
1, 6548, Note_on_c, 11, 70, 0
1, 6553, Note_on_c, 11, 65, 0
1, 6557, Note_on_c, 11, 62, 0
1, 6600, Note_on_c, 11, 65, 76
1, 6600, Note_on_c, 11, 62, 87
1, 6600, Note_on_c, 11, 70, 87
1, 6797, Note_on_c, 11, 70, 0
1, 6799, Note_on_c, 11, 65, 0
1, 6840, Note_on_c, 11, 65, 51
1, 6840, Note_on_c, 11, 70, 64
1, 6855, Note_on_c, 8, 46, 0
1, 6890, Note_on_c, 11, 70, 0
1, 6896, Note_on_c, 11, 62, 0
1, 6901, Note_on_c, 11, 65, 0
1, 6935, Note_on_c, 10, 50, 0
1, 6958, Note_on_c, 11, 62, 87
1, 6960, Note_on_c, 8, 46, 47
1, 6960, Note_on_c, 10, 48, 61
1, 6960, Note_on_c, 11, 65, 80
1, 6960, Note_on_c, 11, 70, 87
1, 6960, Note_on_c, 12, 63, 99
1, 6960, Note_on_c, 13, 63, 99
1, 6972, Note_on_c, 12, 65, 0
1, 6972, Note_on_c, 13, 65, 0
1, 7140, Note_on_c, 8, 46, 0
1, 7198, Note_on_c, 10, 48, 0
1, 7200, Note_on_c, 8, 46, 68
1, 7200, Note_on_c, 10, 50, 76
1, 7200, Note_on_c, 12, 62, 84
1, 7200, Note_on_c, 13, 62, 84
1, 7222, Note_on_c, 12, 63, 0
1, 7222, Note_on_c, 13, 63, 0
1, 7314, Note_on_c, 11, 65, 0
1, 7315, Note_on_c, 11, 62, 0
1, 7317, Note_on_c, 11, 70, 0
1, 7320, Note_on_c, 11, 62, 58
1, 7320, Note_on_c, 11, 65, 61
1, 7320, Note_on_c, 11, 70, 64
1, 7373, Note_on_c, 8, 46, 0
1, 7436, Note_on_c, 11, 65, 0
1, 7437, Note_on_c, 11, 62, 0
1, 7437, Note_on_c, 11, 70, 0
1, 7440, Note_on_c, 8, 46, 70
1, 7440, Note_on_c, 8, 46, 74
1, 7440, Note_on_c, 11, 62, 82
1, 7440, Note_on_c, 11, 65, 70
1, 7440, Note_on_c, 11, 70, 87
1, 7440, Note_on_c, 12, 63, 105
1, 7440, Note_on_c, 13, 63, 105
1, 7460, Note_on_c, 12, 62, 0
1, 7460, Note_on_c, 13, 62, 0
1, 7475, Note_on_c, 10, 50, 0
1, 7556, Note_on_c, 11, 70, 0
1, 7557, Note_on_c, 11, 62, 0
1, 7557, Note_on_c, 11, 65, 0
1, 7560, Note_on_c, 11, 65, 72
1, 7560, Note_on_c, 11, 70, 78
1, 7560, Note_on_c, 11, 62, 66
1, 7625, Note_on_c, 11, 62, 0
1, 7634, Note_on_c, 11, 70, 0
1, 7636, Note_on_c, 11, 65, 0
1, 7661, Note_on_c, 8, 46, 0
1, 7670, Note_on_c, 8, 46, 0
1, 7680, Note_on_c, 8, 48, 74
1, 7680, Note_on_c, 10, 55, 76
1, 7680, Note_on_c, 11, 60, 76
1, 7680, Note_on_c, 11, 70, 90
1, 7681, Note_on_c, 11, 63, 82
1, 7895, Note_on_c, 8, 48, 0
1, 7896, Note_on_c, 10, 55, 0
1, 7920, Note_on_c, 8, 48, 78
1, 7920, Note_on_c, 10, 55, 64
1, 8045, Control_c, 12, 1, 1
1, 8045, Control_c, 13, 1, 1
1, 8048, Note_on_c, 11, 70, 0
1, 8077, Control_c, 12, 1, 10
1, 8077, Control_c, 13, 1, 10
1, 8110, Note_on_c, 11, 60, 0
1, 8118, Note_on_c, 8, 48, 0
1, 8141, Control_c, 12, 1, 17
1, 8141, Control_c, 13, 1, 17
1, 8159, Note_on_c, 11, 60, 80
1, 8159, Note_on_c, 11, 63, 0
1, 8160, Note_on_c, 8, 48, 76
1, 8160, Note_on_c, 10, 53, 84
1, 8160, Note_on_c, 11, 70, 90
1, 8160, Note_on_c, 11, 63, 72
1, 8189, Note_on_c, 10, 55, 0
1, 8400, Note_on_c, 10, 55, 84
1, 8423, Note_on_c, 10, 53, 0
1, 8428, Control_c, 12, 1, 25
1, 8428, Control_c, 13, 1, 25
1, 8464, Note_on_c, 11, 70, 0
1, 8478, Note_on_c, 11, 60, 0
1, 8520, Note_on_c, 11, 70, 87
1, 8520, Note_on_c, 11, 60, 80
1, 8544, Control_c, 12, 1, 18
1, 8544, Control_c, 13, 1, 18
1, 8566, Control_c, 12, 1, 10
1, 8566, Control_c, 13, 1, 10
1, 8598, Control_c, 12, 1, 0
1, 8598, Control_c, 13, 1, 0
1, 8669, Note_on_c, 12, 63, 0
1, 8669, Note_on_c, 13, 63, 0
1, 8707, Note_on_c, 11, 63, 0
1, 8760, Note_on_c, 11, 63, 61
1, 8808, Note_on_c, 11, 60, 0
1, 8814, Note_on_c, 11, 70, 0
1, 8816, Note_on_c, 8, 48, 0
1, 8818, Note_on_c, 11, 63, 0
1, 8880, Note_on_c, 8, 48, 80
1, 8880, Note_on_c, 10, 53, 76
1, 8880, Note_on_c, 11, 63, 84
1, 8880, Note_on_c, 11, 60, 90
1, 8880, Note_on_c, 12, 55, 108
1, 8880, Note_on_c, 13, 55, 108
1, 8881, Note_on_c, 11, 70, 90
1, 8883, Note_on_c, 10, 55, 0
1, 9114, Note_on_c, 10, 53, 0
1, 9120, Note_on_c, 10, 55, 84
1, 9200, Note_on_c, 11, 60, 0
1, 9207, Note_on_c, 11, 63, 0
1, 9233, Note_on_c, 11, 70, 0
1, 9240, Note_on_c, 11, 70, 57
1, 9240, Note_on_c, 11, 60, 64
1, 9240, Note_on_c, 11, 63, 59
1, 9307, Control_c, 12, 1, 7
1, 9307, Control_c, 13, 1, 7
1, 9309, Note_on_c, 8, 48, 0
1, 9355, Note_on_c, 11, 70, 0
1, 9355, Note_on_c, 11, 60, 0
1, 9355, Note_on_c, 11, 63, 0
1, 9360, Note_on_c, 8, 48, 70
1, 9360, Note_on_c, 10, 56, 76
1, 9360, Note_on_c, 11, 60, 50
1, 9360, Note_on_c, 11, 63, 66
1, 9360, Note_on_c, 11, 70, 68
1, 9360, Note_on_c, 12, 56, 105
1, 9360, Note_on_c, 13, 56, 105
1, 9371, Control_c, 12, 1, 0
1, 9371, Control_c, 13, 1, 0
1, 9377, Note_on_c, 10, 55, 0
1, 9394, Note_on_c, 12, 55, 0
1, 9394, Note_on_c, 13, 55, 0
1, 9475, Note_on_c, 11, 60, 0
1, 9475, Note_on_c, 11, 63, 0
1, 9475, Note_on_c, 11, 70, 0
1, 9480, Note_on_c, 11, 60, 46
1, 9480, Note_on_c, 11, 70, 37
1, 9480, Note_on_c, 11, 63, 44
1, 9534, Note_on_c, 11, 70, 0
1, 9548, Note_on_c, 11, 60, 0
1, 9549, Note_on_c, 11, 63, 0
1, 9599, Note_on_c, 11, 60, 96
1, 9599, Note_on_c, 11, 70, 99
1, 9600, Note_on_c, 8, 51, 64
1, 9600, Note_on_c, 11, 63, 90
1, 9615, Note_on_c, 8, 48, 0
1, 10010, Note_on_c, 11, 70, 0
1, 10024, Note_on_c, 11, 60, 0
1, 10042, Note_on_c, 11, 63, 0
1, 10049, Note_on_c, 10, 56, 0
1, 10079, Note_on_c, 11, 70, 96
1, 10079, Note_on_c, 11, 63, 84
1, 10080, Note_on_c, 10, 55, 61
1, 10080, Note_on_c, 11, 60, 70
1, 10242, Control_c, 12, 1, 3
1, 10242, Control_c, 13, 1, 3
1, 10243, Note_on_c, 8, 51, 0
1, 10320, Note_on_c, 8, 51, 61
1, 10320, Note_on_c, 10, 56, 62
1, 10365, Note_on_c, 10, 55, 0
1, 10413, Note_on_c, 11, 63, 0
1, 10414, Note_on_c, 11, 60, 0
1, 10415, Note_on_c, 11, 70, 0
1, 10439, Note_on_c, 11, 70, 84
1, 10440, Note_on_c, 11, 60, 84
1, 10440, Note_on_c, 11, 63, 84
1, 10625, Control_c, 12, 1, 0
1, 10625, Control_c, 13, 1, 0
1, 10629, Note_on_c, 11, 63, 0
1, 10632, Note_on_c, 11, 60, 0
1, 10680, Note_on_c, 11, 60, 46
1, 10680, Note_on_c, 11, 63, 30
1, 10715, Note_on_c, 11, 63, 0
1, 10728, Note_on_c, 12, 56, 0
1, 10728, Note_on_c, 13, 56, 0
1, 10733, Note_on_c, 11, 60, 0
1, 10737, Note_on_c, 11, 70, 0
1, 10769, Note_on_c, 10, 56, 0
1, 10800, Note_on_c, 10, 55, 68
1, 10800, Note_on_c, 11, 60, 80
1, 10800, Note_on_c, 11, 70, 90
1, 10800, Note_on_c, 12, 55, 105
1, 10800, Note_on_c, 13, 55, 105
1, 10801, Note_on_c, 11, 63, 80
1, 10992, Note_on_c, 8, 51, 0
1, 11028, Note_on_c, 12, 55, 0
1, 11028, Note_on_c, 13, 55, 0
1, 11040, Note_on_c, 8, 51, 58
1, 11040, Note_on_c, 10, 56, 72
1, 11040, Note_on_c, 12, 63, 105
1, 11040, Note_on_c, 13, 63, 105
1, 11090, Note_on_c, 10, 55, 0
1, 11103, Note_on_c, 11, 60, 0
1, 11129, Note_on_c, 11, 63, 0
1, 11154, Note_on_c, 12, 63, 0
1, 11154, Note_on_c, 13, 63, 0
1, 11157, Note_on_c, 11, 70, 0
1, 11160, Note_on_c, 11, 63, 49
1, 11160, Note_on_c, 11, 60, 51
1, 11160, Note_on_c, 11, 70, 52
1, 11160, Note_on_c, 12, 62, 99
1, 11160, Note_on_c, 13, 62, 99
1, 11277, Note_on_c, 11, 63, 0
1, 11277, Note_on_c, 11, 60, 0
1, 11277, Note_on_c, 11, 70, 0
1, 11280, Note_on_c, 10, 55, 58
1, 11280, Note_on_c, 11, 70, 90
1, 11280, Note_on_c, 11, 60, 84
1, 11280, Note_on_c, 11, 63, 84
1, 11308, Note_on_c, 10, 56, 0
1, 11362, Note_on_c, 12, 62, 0
1, 11362, Note_on_c, 13, 62, 0
1, 11381, Note_on_c, 11, 60, 0
1, 11382, Note_on_c, 11, 63, 0
1, 11400, Note_on_c, 11, 63, 66
1, 11400, Note_on_c, 11, 60, 38
1, 11400, Note_on_c, 12, 63, 108
1, 11400, Note_on_c, 13, 63, 108
1, 11465, Note_on_c, 11, 70, 0
1, 11467, Note_on_c, 11, 63, 0
1, 11467, Note_on_c, 11, 60, 0
1, 11495, Note_on_c, 10, 55, 0
1, 11519, Note_on_c, 11, 67, 87
1, 11520, Note_on_c, 8, 51, 72
1, 11520, Note_on_c, 10, 55, 70
1, 11520, Note_on_c, 11, 63, 84
1, 11520, Note_on_c, 11, 70, 87
1, 11530, Note_on_c, 8, 51, 0
1, 11713, Note_on_c, 8, 51, 0
1, 11760, Lyric_t, "My "
1, 11760, Note_on_c, 3, 67, 102
1, 11760, Note_on_c, 8, 51, 43
1, 11929, Control_c, 12, 1, 7
1, 11929, Control_c, 13, 1, 7
1, 11942, Note_on_c, 10, 55, 0
1, 11961, Note_on_c, 3, 67, 0
1, 11972, Note_on_c, 8, 51, 0
1, 11994, Note_on_c, 11, 67, 0
1, 11997, Note_on_c, 11, 63, 0
1, 11999, Note_on_c, 11, 70, 0
1, 12000, Lyric_t, "life "
1, 12000, Note_on_c, 3, 70, 102
1, 12000, Note_on_c, 8, 51, 70
1, 12000, Note_on_c, 10, 53, 48
1, 12000, Note_on_c, 11, 63, 87
1, 12000, Note_on_c, 11, 67, 87
1, 12001, Note_on_c, 11, 70, 82
1, 12078, Control_c, 12, 1, 15
1, 12078, Control_c, 13, 1, 15
1, 12120, Lyric_t, "is "
1, 12120, Note_on_c, 3, 67, 99
1, 12147, Note_on_c, 3, 70, 0
1, 12206, Control_c, 12, 1, 22
1, 12206, Control_c, 13, 1, 22
1, 12240, Note_on_c, 10, 55, 76
1, 12259, Note_on_c, 3, 67, 0
1, 12271, Note_on_c, 10, 53, 0
1, 12354, Note_on_c, 11, 67, 0
1, 12358, Note_on_c, 11, 70, 0
1, 12360, Lyric_t, "bril"
1, 12360, Note_on_c, 3, 70, 105
1, 12360, Note_on_c, 11, 63, 0
1, 12360, Note_on_c, 11, 70, 80
1, 12360, Note_on_c, 11, 63, 66
1, 12360, Note_on_c, 11, 67, 84
1, 12480, Lyric_t, "liant. "
1, 12480, Lyric_t, "\015"
1, 12480, Note_on_c, 3, 63, 90
1, 12494, Note_on_c, 3, 70, 0
1, 12503, Control_c, 12, 1, 14
1, 12503, Control_c, 13, 1, 14
1, 12525, Control_c, 12, 1, 3
1, 12525, Control_c, 13, 1, 3
1, 12535, Control_c, 12, 1, 0
1, 12535, Control_c, 13, 1, 0
1, 12596, Note_on_c, 11, 70, 0
1, 12596, Note_on_c, 11, 67, 0
1, 12598, Note_on_c, 11, 63, 0
1, 12599, Note_on_c, 11, 70, 60
1, 12600, Note_on_c, 3, 63, 82
1, 12600, Note_on_c, 11, 63, 60
1, 12600, Note_on_c, 11, 67, 60
1, 12613, Note_on_c, 3, 63, 0
1, 12616, Note_on_c, 8, 51, 0
1, 12666, Note_on_c, 12, 63, 0
1, 12666, Note_on_c, 13, 63, 0
1, 12688, Note_on_c, 10, 55, 0
1, 12716, Note_on_c, 11, 70, 0
1, 12717, Note_on_c, 11, 63, 0
1, 12717, Note_on_c, 11, 67, 0
1, 12718, Note_on_c, 11, 67, 93
1, 12719, Note_on_c, 11, 70, 93
1, 12720, Note_on_c, 8, 51, 55
1, 12720, Note_on_c, 10, 53, 66
1, 12720, Note_on_c, 11, 63, 80
1, 12720, Note_on_c, 12, 55, 99
1, 12720, Note_on_c, 13, 55, 99
1, 12795, Note_on_c, 3, 63, 0
1, 12919, Note_on_c, 10, 53, 0
1, 12945, Note_on_c, 8, 51, 0
1, 12956, Note_on_c, 12, 55, 0
1, 12956, Note_on_c, 13, 55, 0
1, 12960, Note_on_c, 8, 51, 66
1, 12960, Note_on_c, 10, 55, 74
1, 12960, Note_on_c, 12, 63, 105
1, 12960, Note_on_c, 13, 63, 105
1, 13075, Note_on_c, 11, 63, 0
1, 13075, Note_on_c, 12, 63, 0
1, 13075, Note_on_c, 13, 63, 0
1, 13076, Note_on_c, 11, 67, 0
1, 13076, Note_on_c, 11, 70, 0
1, 13080, Note_on_c, 11, 67, 84
1, 13080, Note_on_c, 11, 63, 64
1, 13080, Note_on_c, 11, 70, 72
1, 13080, Note_on_c, 12, 62, 99
1, 13080, Note_on_c, 13, 62, 99
1, 13153, Note_on_c, 8, 51, 0
1, 13196, Note_on_c, 11, 67, 0
1, 13196, Note_on_c, 11, 70, 0
1, 13198, Note_on_c, 11, 63, 0
1, 13199, Note_on_c, 11, 63, 76
1, 13200, Note_on_c, 8, 51, 68
1, 13200, Note_on_c, 11, 67, 74
1, 13200, Note_on_c, 11, 70, 89
1, 13270, Note_on_c, 12, 62, 0
1, 13270, Note_on_c, 13, 62, 0
1, 13316, Note_on_c, 11, 63, 0
1, 13317, Note_on_c, 11, 67, 0
1, 13317, Note_on_c, 11, 70, 0
1, 13319, Note_on_c, 11, 70, 60
1, 13320, Note_on_c, 11, 63, 60
1, 13320, Note_on_c, 11, 67, 60
1, 13320, Note_on_c, 12, 63, 102
1, 13320, Note_on_c, 13, 63, 102
1, 13403, Note_on_c, 11, 63, 0
1, 13411, Note_on_c, 10, 55, 0
1, 13432, Note_on_c, 11, 67, 0
1, 13437, Note_on_c, 11, 70, 0
1, 13440, Note_on_c, 8, 46, 64
1, 13440, Note_on_c, 10, 50, 74
1, 13440, Note_on_c, 11, 65, 87
1, 13440, Note_on_c, 11, 70, 84
1, 13441, Note_on_c, 11, 62, 84
1, 13462, Note_on_c, 8, 51, 0
1, 13607, Note_on_c, 8, 46, 0
1, 13654, Note_on_c, 12, 63, 0
1, 13654, Note_on_c, 13, 63, 0
1, 13680, Note_on_c, 8, 46, 64
1, 13680, Note_on_c, 12, 65, 102
1, 13680, Note_on_c, 13, 65, 102
1, 13856, Note_on_c, 11, 65, 0
1, 13859, Note_on_c, 11, 62, 0
1, 13860, Note_on_c, 11, 70, 0
1, 13873, Note_on_c, 8, 46, 0
1, 13902, Note_on_c, 10, 50, 0
1, 13918, Note_on_c, 11, 70, 90
1, 13920, Note_on_c, 8, 46, 61
1, 13920, Note_on_c, 10, 48, 64
1, 13921, Note_on_c, 11, 65, 87
1, 13921, Note_on_c, 11, 62, 87
1, 14107, Note_on_c, 10, 48, 0
1, 14109, Note_on_c, 8, 46, 0
1, 14160, Note_on_c, 8, 46, 58
1, 14160, Note_on_c, 10, 50, 76
1, 14228, Note_on_c, 11, 70, 0
1, 14233, Note_on_c, 11, 65, 0
1, 14237, Note_on_c, 11, 62, 0
1, 14280, Note_on_c, 11, 65, 76
1, 14280, Note_on_c, 11, 62, 87
1, 14280, Note_on_c, 11, 70, 87
1, 14477, Note_on_c, 11, 70, 0
1, 14479, Note_on_c, 11, 65, 0
1, 14520, Note_on_c, 11, 65, 51
1, 14520, Note_on_c, 11, 70, 64
1, 14535, Note_on_c, 8, 46, 0
1, 14570, Note_on_c, 11, 70, 0
1, 14576, Note_on_c, 11, 62, 0
1, 14581, Note_on_c, 11, 65, 0
1, 14615, Note_on_c, 10, 50, 0
1, 14638, Note_on_c, 11, 62, 87
1, 14640, Note_on_c, 8, 46, 47
1, 14640, Note_on_c, 10, 48, 61
1, 14640, Note_on_c, 11, 65, 80
1, 14640, Note_on_c, 11, 70, 87
1, 14640, Note_on_c, 12, 63, 99
1, 14640, Note_on_c, 13, 63, 99
1, 14652, Note_on_c, 12, 65, 0
1, 14652, Note_on_c, 13, 65, 0
1, 14820, Note_on_c, 8, 46, 0
1, 14878, Note_on_c, 10, 48, 0
1, 14880, Note_on_c, 8, 46, 68
1, 14880, Note_on_c, 10, 50, 76
1, 14880, Note_on_c, 12, 62, 84
1, 14880, Note_on_c, 13, 62, 84
1, 14902, Note_on_c, 12, 63, 0
1, 14902, Note_on_c, 13, 63, 0
1, 14994, Note_on_c, 11, 65, 0
1, 14995, Note_on_c, 11, 62, 0
1, 14997, Note_on_c, 11, 70, 0
1, 15000, Note_on_c, 11, 62, 58
1, 15000, Note_on_c, 11, 65, 61
1, 15000, Note_on_c, 11, 70, 64
1, 15053, Note_on_c, 8, 46, 0
1, 15116, Note_on_c, 11, 65, 0
1, 15117, Note_on_c, 11, 62, 0
1, 15117, Note_on_c, 11, 70, 0
1, 15120, Note_on_c, 8, 46, 70
1, 15120, Note_on_c, 8, 46, 74
1, 15120, Note_on_c, 11, 62, 82
1, 15120, Note_on_c, 11, 65, 70
1, 15120, Note_on_c, 11, 70, 87
1, 15120, Note_on_c, 12, 63, 105
1, 15120, Note_on_c, 13, 63, 105
1, 15140, Note_on_c, 12, 62, 0
1, 15140, Note_on_c, 13, 62, 0
1, 15155, Note_on_c, 10, 50, 0
1, 15236, Note_on_c, 11, 70, 0
1, 15237, Note_on_c, 11, 62, 0
1, 15237, Note_on_c, 11, 65, 0
1, 15240, Note_on_c, 11, 65, 72
1, 15240, Note_on_c, 11, 70, 78
1, 15240, Note_on_c, 11, 62, 66
1, 15305, Note_on_c, 11, 62, 0
1, 15314, Note_on_c, 11, 70, 0
1, 15316, Note_on_c, 11, 65, 0
1, 15341, Note_on_c, 8, 46, 0
1, 15350, Note_on_c, 8, 46, 0
1, 15360, Note_on_c, 8, 48, 74
1, 15360, Note_on_c, 10, 55, 76
1, 15360, Note_on_c, 11, 60, 76
1, 15360, Note_on_c, 11, 70, 90
1, 15361, Note_on_c, 11, 63, 82
1, 15575, Note_on_c, 8, 48, 0
1, 15576, Note_on_c, 10, 55, 0
1, 15600, Note_on_c, 8, 48, 78
1, 15600, Note_on_c, 10, 55, 64
1, 15725, Control_c, 12, 1, 1
1, 15725, Control_c, 13, 1, 1
1, 15728, Note_on_c, 11, 70, 0
1, 15757, Control_c, 12, 1, 10
1, 15757, Control_c, 13, 1, 10
1, 15790, Note_on_c, 11, 60, 0
1, 15798, Note_on_c, 8, 48, 0
1, 15821, Control_c, 12, 1, 17
1, 15821, Control_c, 13, 1, 17
1, 15839, Note_on_c, 11, 63, 0
1, 15839, Note_on_c, 11, 60, 80
1, 15840, Note_on_c, 8, 48, 76
1, 15840, Note_on_c, 10, 53, 84
1, 15840, Note_on_c, 11, 70, 90
1, 15840, Note_on_c, 11, 63, 72
1, 15869, Note_on_c, 10, 55, 0
1, 16080, Note_on_c, 10, 55, 84
1, 16103, Note_on_c, 10, 53, 0
1, 16108, Control_c, 12, 1, 25
1, 16108, Control_c, 13, 1, 25
1, 16144, Note_on_c, 11, 70, 0
1, 16158, Note_on_c, 11, 60, 0
1, 16200, Note_on_c, 11, 70, 87
1, 16200, Note_on_c, 11, 60, 80
1, 16224, Control_c, 12, 1, 18
1, 16224, Control_c, 13, 1, 18
1, 16246, Control_c, 12, 1, 10
1, 16246, Control_c, 13, 1, 10
1, 16278, Control_c, 12, 1, 0
1, 16278, Control_c, 13, 1, 0
1, 16349, Note_on_c, 12, 63, 0
1, 16349, Note_on_c, 13, 63, 0
1, 16387, Note_on_c, 11, 63, 0
1, 16440, Note_on_c, 11, 63, 61
1, 16488, Note_on_c, 11, 60, 0
1, 16494, Note_on_c, 11, 70, 0
1, 16496, Note_on_c, 8, 48, 0
1, 16498, Note_on_c, 11, 63, 0
1, 16560, Note_on_c, 8, 48, 80
1, 16560, Note_on_c, 10, 53, 76
1, 16560, Note_on_c, 11, 63, 84
1, 16560, Note_on_c, 11, 60, 90
1, 16560, Note_on_c, 12, 55, 108
1, 16560, Note_on_c, 13, 55, 108
1, 16561, Note_on_c, 11, 70, 90
1, 16563, Note_on_c, 10, 55, 0
1, 16794, Note_on_c, 10, 53, 0
1, 16800, Note_on_c, 10, 55, 84
1, 16880, Note_on_c, 11, 60, 0
1, 16887, Note_on_c, 11, 63, 0
1, 16917, Note_on_c, 11, 70, 0
1, 16920, Note_on_c, 11, 70, 57
1, 16920, Note_on_c, 11, 60, 64
1, 16920, Note_on_c, 11, 63, 59
1, 16987, Control_c, 12, 1, 7
1, 16987, Control_c, 13, 1, 7
1, 16989, Note_on_c, 8, 48, 0
1, 17037, Note_on_c, 11, 70, 0
1, 17037, Note_on_c, 11, 60, 0
1, 17037, Note_on_c, 11, 63, 0
1, 17040, Note_on_c, 8, 48, 70
1, 17040, Note_on_c, 10, 56, 76
1, 17040, Note_on_c, 11, 60, 50
1, 17040, Note_on_c, 11, 63, 66
1, 17040, Note_on_c, 11, 70, 68
1, 17040, Note_on_c, 12, 56, 105
1, 17040, Note_on_c, 13, 56, 105
1, 17051, Control_c, 12, 1, 0
1, 17051, Control_c, 13, 1, 0
1, 17057, Note_on_c, 10, 55, 0
1, 17074, Note_on_c, 12, 55, 0
1, 17074, Note_on_c, 13, 55, 0
1, 17157, Note_on_c, 11, 60, 0
1, 17157, Note_on_c, 11, 63, 0
1, 17157, Note_on_c, 11, 70, 0
1, 17160, Note_on_c, 11, 60, 46
1, 17160, Note_on_c, 11, 70, 37
1, 17160, Note_on_c, 11, 63, 44
1, 17214, Note_on_c, 11, 70, 0
1, 17228, Note_on_c, 11, 60, 0
1, 17229, Note_on_c, 11, 63, 0
1, 17279, Note_on_c, 11, 60, 96
1, 17279, Note_on_c, 11, 70, 99
1, 17280, Note_on_c, 8, 51, 64
1, 17280, Note_on_c, 11, 63, 90
1, 17295, Note_on_c, 8, 48, 0
1, 17690, Note_on_c, 11, 70, 0
1, 17704, Note_on_c, 11, 60, 0
1, 17722, Note_on_c, 11, 63, 0
1, 17729, Note_on_c, 10, 56, 0
1, 17759, Note_on_c, 11, 70, 96
1, 17759, Note_on_c, 11, 63, 84
1, 17760, Note_on_c, 10, 55, 61
1, 17760, Note_on_c, 11, 60, 70
1, 17922, Control_c, 12, 1, 3
1, 17922, Control_c, 13, 1, 3
1, 17923, Note_on_c, 8, 51, 0
1, 18000, Note_on_c, 8, 51, 61
1, 18000, Note_on_c, 10, 56, 62
1, 18045, Note_on_c, 10, 55, 0
1, 18093, Note_on_c, 11, 63, 0
1, 18094, Note_on_c, 11, 60, 0
1, 18095, Note_on_c, 11, 70, 0
1, 18119, Note_on_c, 11, 70, 84
1, 18120, Note_on_c, 11, 60, 84
1, 18120, Note_on_c, 11, 63, 84
1, 18305, Control_c, 12, 1, 0
1, 18305, Control_c, 13, 1, 0
1, 18309, Note_on_c, 11, 63, 0
1, 18312, Note_on_c, 11, 60, 0
1, 18360, Note_on_c, 11, 60, 46
1, 18360, Note_on_c, 11, 63, 30
1, 18395, Note_on_c, 11, 63, 0
1, 18413, Note_on_c, 11, 60, 0
1, 18417, Note_on_c, 11, 70, 0
1, 18449, Note_on_c, 10, 56, 0
1, 18480, Note_on_c, 10, 55, 68
1, 18480, Note_on_c, 11, 60, 80
1, 18480, Note_on_c, 11, 70, 90
1, 18481, Note_on_c, 11, 63, 80
1, 18672, Note_on_c, 8, 51, 0
1, 18695, Note_on_c, 12, 56, 0
1, 18712, Note_on_c, 13, 56, 0
1, 18720, Note_on_c, 8, 51, 58
1, 18720, Note_on_c, 10, 56, 72
1, 18770, Note_on_c, 10, 55, 0
1, 18783, Note_on_c, 11, 60, 0
1, 18809, Note_on_c, 11, 63, 0
1, 18837, Note_on_c, 11, 70, 0
1, 18840, Note_on_c, 11, 63, 49
1, 18840, Note_on_c, 11, 60, 51
1, 18840, Note_on_c, 11, 70, 52
1, 18957, Note_on_c, 11, 63, 0
1, 18957, Note_on_c, 11, 60, 0
1, 18957, Note_on_c, 11, 70, 0
1, 18960, Note_on_c, 10, 55, 58
1, 18960, Note_on_c, 11, 70, 90
1, 18960, Note_on_c, 11, 60, 84
1, 18960, Note_on_c, 11, 63, 84
1, 18988, Note_on_c, 10, 56, 0
1, 19061, Note_on_c, 11, 60, 0
1, 19062, Note_on_c, 11, 63, 0
1, 19080, Note_on_c, 11, 63, 66
1, 19080, Note_on_c, 11, 60, 38
1, 19145, Note_on_c, 11, 70, 0
1, 19147, Note_on_c, 11, 63, 0
1, 19147, Note_on_c, 11, 60, 0
1, 19175, Note_on_c, 10, 55, 0
1, 19200, Note_on_c, 1, 39, 105
1, 19200, Note_on_c, 5, 55, 24
1, 19200, Note_on_c, 5, 51, 24
1, 19200, Note_on_c, 9, 36, 108
1, 19200, Note_on_c, 9, 42, 94
1, 19200, Note_on_c, 9, 70, 63
1, 19200, Note_on_c, 11, 70, 87
1, 19200, Note_on_c, 11, 67, 99
1, 19200, Note_on_c, 11, 75, 93
1, 19200, Note_on_c, 12, 55, 99
1, 19200, Note_on_c, 12, 63, 93
1, 19200, Note_on_c, 12, 58, 96
1, 19210, Note_on_c, 8, 51, 0
1, 19274, Note_on_c, 9, 42, 0
1, 19288, Note_on_c, 9, 70, 0
1, 19320, Note_on_c, 9, 42, 49
1, 19320, Note_on_c, 9, 69, 38
1, 19364, Note_on_c, 9, 42, 0
1, 19388, Note_on_c, 9, 69, 0
1, 19405, Note_on_c, 11, 67, 0
1, 19420, Note_on_c, 11, 75, 0
1, 19421, Note_on_c, 11, 70, 0
1, 19440, Lyric_t, "My "
1, 19440, Note_on_c, 3, 67, 111
1, 19440, Note_on_c, 9, 42, 75
1, 19440, Note_on_c, 9, 70, 56
1, 19440, Note_on_c, 11, 67, 52
1, 19440, Note_on_c, 11, 70, 64
1, 19440, Note_on_c, 11, 75, 29
1, 19440, Note_on_c, 12, 58, 37
1, 19481, Note_on_c, 11, 75, 0
1, 19490, Note_on_c, 12, 58, 0
1, 19512, Note_on_c, 9, 42, 0
1, 19516, Note_on_c, 9, 70, 0
1, 19560, Note_on_c, 9, 42, 42
1, 19560, Note_on_c, 9, 69, 50
1, 19560, Note_on_c, 12, 58, 58
1, 19560, Note_on_c, 12, 55, 50
1, 19574, Note_on_c, 9, 36, 0
1, 19587, Note_on_c, 11, 70, 0
1, 19593, Note_on_c, 9, 42, 0
1, 19620, Note_on_c, 11, 67, 0
1, 19626, Note_on_c, 9, 69, 0
1, 19633, Note_on_c, 12, 55, 0
1, 19635, Note_on_c, 12, 58, 0
1, 19645, Note_on_c, 3, 67, 0
1, 19672, Note_on_c, 12, 55, 0
1, 19672, Note_on_c, 12, 63, 0
1, 19672, Note_on_c, 12, 58, 0
1, 19680, Lyric_t, "life "
1, 19680, Note_on_c, 3, 70, 105
1, 19680, Note_on_c, 9, 38, 108
1, 19680, Note_on_c, 9, 42, 86
1, 19680, Note_on_c, 9, 70, 51
1, 19680, Note_on_c, 11, 67, 87
1, 19680, Note_on_c, 11, 70, 82
1, 19680, Note_on_c, 11, 75, 87
1, 19680, Note_on_c, 12, 58, 76
1, 19680, Note_on_c, 12, 55, 90
1, 19680, Note_on_c, 12, 63, 87
1, 19746, Note_on_c, 9, 42, 0
1, 19755, Note_on_c, 9, 70, 0
1, 19800, Lyric_t, "is "
1, 19800, Note_on_c, 3, 67, 96
1, 19800, Note_on_c, 9, 42, 41
1, 19800, Note_on_c, 9, 69, 40
1, 19829, Note_on_c, 3, 70, 0
1, 19839, Note_on_c, 9, 42, 0
1, 19876, Note_on_c, 9, 69, 0
1, 19920, Note_on_c, 9, 42, 75
1, 19920, Note_on_c, 9, 70, 53
1, 19920, Note_on_c, 12, 58, 14
1, 19988, Note_on_c, 9, 42, 0
1, 19992, Note_on_c, 11, 75, 0
1, 20003, Note_on_c, 9, 38, 0
1, 20003, Note_on_c, 9, 70, 0
1, 20005, Note_on_c, 11, 70, 0
1, 20011, Note_on_c, 11, 67, 0
1, 20012, Note_on_c, 12, 58, 0
1, 20033, Note_on_c, 12, 58, 0
1, 20033, Note_on_c, 12, 55, 0
1, 20033, Note_on_c, 12, 63, 0
1, 20040, Lyric_t, "bril"
1, 20040, Note_on_c, 3, 70, 105
1, 20040, Note_on_c, 9, 42, 52
1, 20040, Note_on_c, 9, 69, 43
1, 20040, Note_on_c, 11, 67, 87
1, 20040, Note_on_c, 11, 70, 84
1, 20040, Note_on_c, 11, 75, 90
1, 20040, Note_on_c, 12, 63, 90
1, 20040, Note_on_c, 12, 55, 80
1, 20040, Note_on_c, 12, 58, 93
1, 20052, Note_on_c, 3, 67, 0
1, 20078, Note_on_c, 9, 42, 0
1, 20089, Note_on_c, 9, 69, 0
1, 20160, Note_on_c, 9, 42, 75
1, 20160, Note_on_c, 9, 70, 53
1, 20213, Note_on_c, 1, 39, 0
1, 20222, Note_on_c, 11, 75, 0
1, 20226, Note_on_c, 9, 42, 0
1, 20227, Note_on_c, 11, 70, 0
1, 20239, Note_on_c, 9, 70, 0
1, 20244, Note_on_c, 3, 70, 0
1, 20280, Lyric_t, "liant "
1, 20280, Lyric_t, "\015"
1, 20280, Note_on_c, 1, 39, 78
1, 20280, Note_on_c, 3, 63, 66
1, 20280, Note_on_c, 9, 36, 76
1, 20280, Note_on_c, 9, 42, 55
1, 20280, Note_on_c, 9, 69, 27
1, 20280, Note_on_c, 11, 70, 31
1, 20280, Note_on_c, 11, 75, 19
1, 20280, Note_on_c, 12, 58, 32
1, 20308, Note_on_c, 1, 39, 0
1, 20310, Note_on_c, 9, 36, 0
1, 20316, Note_on_c, 11, 75, 0
1, 20329, Note_on_c, 9, 42, 0
1, 20338, Note_on_c, 11, 70, 0
1, 20349, Note_on_c, 11, 67, 0
1, 20356, Note_on_c, 3, 63, 0
1, 20360, Note_on_c, 12, 58, 0
1, 20380, Note_on_c, 9, 69, 0
1, 20393, Note_on_c, 12, 63, 0
1, 20393, Note_on_c, 12, 55, 0
1, 20393, Note_on_c, 12, 58, 0
1, 20400, Note_on_c, 1, 39, 105
1, 20400, Note_on_c, 3, 63, 87
1, 20400, Note_on_c, 9, 36, 99
1, 20400, Note_on_c, 9, 42, 68
1, 20400, Note_on_c, 9, 70, 58
1, 20400, Note_on_c, 11, 67, 87
1, 20400, Note_on_c, 11, 70, 84
1, 20400, Note_on_c, 11, 75, 99
1, 20400, Note_on_c, 12, 63, 90
1, 20400, Note_on_c, 12, 55, 78
1, 20400, Note_on_c, 12, 58, 90
1, 20456, Note_on_c, 9, 42, 0
1, 20487, Note_on_c, 9, 70, 0
1, 20520, Note_on_c, 9, 42, 55
1, 20520, Note_on_c, 9, 69, 27
1, 20553, Note_on_c, 9, 36, 0
1, 20556, Note_on_c, 9, 42, 0
1, 20599, Note_on_c, 9, 69, 0
1, 20640, Note_on_c, 9, 38, 111
1, 20640, Note_on_c, 9, 42, 78
1, 20640, Note_on_c, 9, 70, 54
1, 20652, Note_on_c, 3, 63, 0
1, 20702, Note_on_c, 9, 42, 0
1, 20733, Note_on_c, 9, 70, 0
1, 20753, Note_on_c, 12, 63, 0
1, 20753, Note_on_c, 12, 55, 0
1, 20753, Note_on_c, 12, 58, 0
1, 20757, Note_on_c, 11, 67, 0
1, 20757, Note_on_c, 11, 70, 0
1, 20757, Note_on_c, 11, 75, 0
1, 20760, Note_on_c, 9, 42, 48
1, 20760, Note_on_c, 9, 69, 41
1, 20760, Note_on_c, 11, 70, 72
1, 20760, Note_on_c, 11, 67, 72
1, 20760, Note_on_c, 11, 75, 58
1, 20760, Note_on_c, 12, 63, 57
1, 20760, Note_on_c, 12, 55, 23
1, 20760, Note_on_c, 12, 58, 37
1, 20799, Note_on_c, 9, 42, 0
1, 20841, Note_on_c, 9, 69, 0
1, 20877, Note_on_c, 11, 70, 0
1, 20877, Note_on_c, 11, 67, 0
1, 20877, Note_on_c, 11, 75, 0
1, 20880, Note_on_c, 9, 42, 78
1, 20880, Note_on_c, 9, 70, 51
1, 20880, Note_on_c, 11, 67, 87
1, 20880, Note_on_c, 11, 70, 84
1, 20880, Note_on_c, 11, 75, 84
1, 20880, Note_on_c, 12, 58, 64
1, 20880, Note_on_c, 12, 55, 59
1, 20880, Note_on_c, 12, 63, 62
1, 20937, Note_on_c, 9, 42, 0
1, 20942, Note_on_c, 12, 58, 0
1, 20951, Note_on_c, 12, 55, 0
1, 20966, Note_on_c, 9, 38, 0
1, 20971, Note_on_c, 9, 70, 0
1, 20997, Note_on_c, 11, 67, 0
1, 20997, Note_on_c, 11, 70, 0
1, 20997, Note_on_c, 11, 75, 0
1, 21000, Note_on_c, 9, 42, 36
1, 21000, Note_on_c, 9, 69, 40
1, 21000, Note_on_c, 11, 67, 51
1, 21000, Note_on_c, 11, 75, 43
1, 21000, Note_on_c, 12, 55, 38
1, 21000, Note_on_c, 12, 58, 34
1, 21039, Note_on_c, 9, 42, 0
1, 21047, Note_on_c, 12, 55, 0
1, 21048, Note_on_c, 11, 75, 0
1, 21051, Note_on_c, 12, 58, 0
1, 21056, Note_on_c, 12, 63, 0
1, 21071, Note_on_c, 11, 67, 0
1, 21088, Note_on_c, 9, 69, 0
1, 21108, Note_on_c, 5, 51, 0
1, 21112, Note_on_c, 5, 55, 0
1, 21113, Note_on_c, 12, 63, 0
1, 21113, Note_on_c, 12, 55, 0
1, 21113, Note_on_c, 12, 58, 0
1, 21120, Note_on_c, 1, 38, 105
1, 21120, Note_on_c, 5, 58, 24
1, 21120, Note_on_c, 5, 53, 24
1, 21120, Note_on_c, 9, 36, 111
1, 21120, Note_on_c, 9, 42, 78
1, 21120, Note_on_c, 9, 70, 50
1, 21120, Note_on_c, 11, 70, 87
1, 21120, Note_on_c, 11, 75, 90
1, 21120, Note_on_c, 11, 65, 84
1, 21120, Note_on_c, 12, 58, 96
1, 21120, Note_on_c, 12, 63, 108
1, 21120, Note_on_c, 12, 53, 90
1, 21168, Note_on_c, 1, 39, 0
1, 21173, Note_on_c, 9, 42, 0
1, 21221, Note_on_c, 9, 70, 0
1, 21240, Note_on_c, 9, 42, 49
1, 21240, Note_on_c, 9, 69, 51
1, 21283, Note_on_c, 9, 42, 0
1, 21292, Note_on_c, 11, 70, 0
1, 21320, Note_on_c, 9, 69, 0
1, 21329, Note_on_c, 9, 36, 0
1, 21360, Lyric_t, "my "
1, 21360, Note_on_c, 3, 67, 108
1, 21360, Note_on_c, 9, 42, 78
1, 21360, Note_on_c, 9, 70, 54
1, 21360, Note_on_c, 11, 70, 36
1, 21423, Note_on_c, 9, 42, 0
1, 21443, Note_on_c, 11, 70, 0
1, 21453, Note_on_c, 9, 70, 0
1, 21480, Note_on_c, 9, 42, 37
1, 21480, Note_on_c, 9, 69, 44
1, 21480, Note_on_c, 11, 70, 20
1, 21480, Note_on_c, 12, 53, 47
1, 21480, Note_on_c, 12, 58, 40
1, 21517, Note_on_c, 9, 42, 0
1, 21536, Note_on_c, 12, 58, 0
1, 21553, Note_on_c, 9, 69, 0
1, 21562, Note_on_c, 11, 65, 0
1, 21577, Note_on_c, 3, 67, 0
1, 21580, Note_on_c, 11, 75, 0
1, 21592, Note_on_c, 12, 58, 0
1, 21592, Note_on_c, 12, 63, 0
1, 21592, Note_on_c, 12, 53, 0
1, 21600, Lyric_t, "love "
1, 21600, Note_on_c, 3, 70, 90
1, 21600, Note_on_c, 9, 38, 114
1, 21600, Note_on_c, 9, 42, 73
1, 21600, Note_on_c, 9, 70, 56
1, 21600, Note_on_c, 11, 65, 78
1, 21600, Note_on_c, 11, 77, 96
1, 21600, Note_on_c, 12, 58, 84
1, 21600, Note_on_c, 12, 65, 102
1, 21676, Note_on_c, 9, 42, 0
1, 21702, Note_on_c, 9, 70, 0
1, 21720, Lyric_t, "is "
1, 21720, Note_on_c, 3, 67, 82
1, 21720, Note_on_c, 9, 42, 44
1, 21720, Note_on_c, 9, 69, 32
1, 21738, Note_on_c, 3, 70, 0
1, 21767, Note_on_c, 9, 42, 0
1, 21799, Note_on_c, 9, 69, 0
1, 21840, Note_on_c, 9, 42, 70
1, 21840, Note_on_c, 9, 70, 53
1, 21879, Note_on_c, 9, 38, 0
1, 21901, Note_on_c, 9, 42, 0
1, 21903, Note_on_c, 1, 38, 0
1, 21903, Note_on_c, 12, 53, 0
1, 21911, Note_on_c, 11, 70, 0
1, 21919, Note_on_c, 11, 77, 0
1, 21922, Note_on_c, 11, 65, 0
1, 21926, Note_on_c, 3, 67, 0
1, 21928, Note_on_c, 9, 70, 0
1, 21960, Lyric_t, "pure "
1, 21960, Lyric_t, "\015"
1, 21960, Note_on_c, 1, 38, 99
1, 21960, Note_on_c, 3, 70, 105
1, 21960, Note_on_c, 9, 36, 90
1, 21960, Note_on_c, 9, 42, 39
1, 21960, Note_on_c, 9, 69, 45
1, 21960, Note_on_c, 11, 65, 84
1, 21960, Note_on_c, 11, 70, 80
1, 21960, Note_on_c, 11, 75, 102
1, 21960, Note_on_c, 12, 53, 82
1, 21960, Note_on_c, 12, 63, 82
1, 21960, Note_on_c, 12, 58, 90
1, 21996, Note_on_c, 9, 42, 0
1, 22031, Note_on_c, 9, 69, 0
1, 22080, Note_on_c, 9, 36, 0
1, 22080, Note_on_c, 9, 42, 75
1, 22080, Note_on_c, 9, 70, 51
1, 22138, Note_on_c, 12, 58, 0
1, 22146, Note_on_c, 9, 42, 0
1, 22164, Note_on_c, 9, 70, 0
1, 22164, Note_on_c, 12, 53, 0
1, 22200, Note_on_c, 9, 42, 59
1, 22200, Note_on_c, 9, 69, 32
1, 22200, Note_on_c, 12, 58, 45
1, 22200, Note_on_c, 12, 53, 30
1, 22245, Note_on_c, 9, 42, 0
1, 22254, Note_on_c, 11, 75, 0
1, 22255, Note_on_c, 11, 65, 0
1, 22255, Note_on_c, 12, 53, 0
1, 22263, Note_on_c, 12, 58, 0
1, 22273, Note_on_c, 9, 69, 0
1, 22309, Note_on_c, 12, 58, 0
1, 22309, Note_on_c, 12, 65, 0
1, 22314, Note_on_c, 1, 38, 0
1, 22320, Note_on_c, 1, 38, 99
1, 22320, Note_on_c, 9, 36, 108
1, 22320, Note_on_c, 9, 42, 66
1, 22320, Note_on_c, 9, 70, 41
1, 22320, Note_on_c, 11, 65, 84
1, 22320, Note_on_c, 11, 77, 93
1, 22320, Note_on_c, 12, 53, 87
1, 22320, Note_on_c, 12, 58, 93
1, 22320, Note_on_c, 12, 65, 105
1, 22379, Note_on_c, 9, 42, 0
1, 22427, Note_on_c, 9, 70, 0
1, 22440, Note_on_c, 9, 42, 52
1, 22440, Note_on_c, 9, 69, 44
1, 22489, Note_on_c, 9, 36, 0
1, 22497, Note_on_c, 9, 42, 0
1, 22511, Note_on_c, 9, 69, 0
1, 22560, Note_on_c, 9, 38, 111
1, 22560, Note_on_c, 9, 42, 75
1, 22560, Note_on_c, 9, 70, 51
1, 22611, Note_on_c, 9, 42, 0
1, 22618, Note_on_c, 11, 65, 0
1, 22628, Note_on_c, 11, 70, 0
1, 22634, Note_on_c, 11, 77, 0
1, 22657, Note_on_c, 9, 70, 0
1, 22680, Note_on_c, 9, 42, 55
1, 22680, Note_on_c, 9, 69, 33
1, 22680, Note_on_c, 11, 65, 55
1, 22680, Note_on_c, 11, 70, 41
1, 22680, Note_on_c, 11, 75, 72
1, 22680, Note_on_c, 12, 58, 52
1, 22680, Note_on_c, 12, 53, 32
1, 22714, Note_on_c, 3, 70, 0
1, 22719, Note_on_c, 9, 42, 0
1, 22740, Note_on_c, 9, 38, 0
1, 22747, Note_on_c, 12, 53, 0
1, 22754, Note_on_c, 12, 58, 0
1, 22760, Note_on_c, 9, 69, 0
1, 22760, Note_on_c, 12, 63, 0
1, 22761, Note_on_c, 11, 70, 0
1, 22792, Note_on_c, 12, 53, 0
1, 22792, Note_on_c, 12, 58, 0
1, 22792, Note_on_c, 12, 65, 0
1, 22800, Note_on_c, 9, 46, 80
1, 22800, Note_on_c, 9, 70, 43
1, 22800, Note_on_c, 11, 70, 54
1, 22800, Note_on_c, 12, 58, 76
1, 22800, Note_on_c, 12, 53, 78
1, 22800, Note_on_c, 12, 63, 74
1, 22861, Note_on_c, 11, 65, 0
1, 22886, Note_on_c, 9, 70, 0
1, 22920, Note_on_c, 9, 69, 48
1, 22920, Note_on_c, 11, 65, 61
1, 22920, Note_on_c, 12, 58, 64
1, 22938, Note_on_c, 9, 46, 0
1, 22967, Note_on_c, 11, 75, 0
1, 22983, Note_on_c, 9, 69, 0
1, 22987, Note_on_c, 11, 65, 0
1, 22987, Note_on_c, 12, 58, 0
1, 23022, Note_on_c, 11, 70, 0
1, 23034, Note_on_c, 12, 58, 0
1, 23034, Note_on_c, 12, 53, 0
1, 23034, Note_on_c, 12, 63, 0
1, 23040, Note_on_c, 1, 36, 102
1, 23040, Note_on_c, 5, 51, 24
1, 23040, Note_on_c, 9, 36, 108
1, 23040, Note_on_c, 9, 42, 78
1, 23040, Note_on_c, 9, 70, 56
1, 23040, Note_on_c, 11, 67, 87
1, 23040, Note_on_c, 11, 70, 78
1, 23040, Note_on_c, 11, 75, 87
1, 23040, Note_on_c, 12, 55, 90
1, 23040, Note_on_c, 12, 63, 90
1, 23040, Note_on_c, 12, 58, 84
1, 23048, Note_on_c, 5, 53, 0
1, 23078, Note_on_c, 1, 38, 0
1, 23093, Note_on_c, 9, 42, 0
1, 23150, Note_on_c, 9, 70, 0
1, 23160, Note_on_c, 9, 42, 49
1, 23160, Note_on_c, 9, 69, 27
1, 23203, Note_on_c, 9, 42, 0
1, 23213, Note_on_c, 11, 70, 0
1, 23229, Note_on_c, 11, 67, 0
1, 23246, Note_on_c, 9, 69, 0
1, 23279, Note_on_c, 11, 75, 0
1, 23280, Lyric_t, "I "
1, 23280, Note_on_c, 3, 67, 102
1, 23280, Note_on_c, 9, 42, 78
1, 23280, Note_on_c, 9, 70, 45
1, 23280, Note_on_c, 11, 67, 46
1, 23280, Note_on_c, 11, 70, 38
1, 23280, Note_on_c, 11, 75, 14
1, 23306, Note_on_c, 11, 75, 0
1, 23343, Note_on_c, 9, 42, 0
1, 23376, Note_on_c, 9, 70, 0
1, 23400, Note_on_c, 9, 42, 37
1, 23400, Note_on_c, 9, 69, 33
1, 23400, Note_on_c, 12, 58, 27
1, 23414, Note_on_c, 9, 36, 0
1, 23437, Note_on_c, 9, 42, 0
1, 23440, Note_on_c, 11, 70, 0
1, 23445, Note_on_c, 11, 67, 0
1, 23465, Note_on_c, 9, 69, 0
1, 23471, Note_on_c, 12, 58, 0
1, 23495, Note_on_c, 3, 67, 0
1, 23512, Note_on_c, 12, 55, 0
1, 23512, Note_on_c, 12, 63, 0
1, 23512, Note_on_c, 12, 58, 0
1, 23520, Lyric_t, "saw "
1, 23520, Note_on_c, 3, 70, 105
1, 23520, Note_on_c, 9, 38, 108
1, 23520, Note_on_c, 9, 42, 73
1, 23520, Note_on_c, 9, 70, 54
1, 23520, Note_on_c, 11, 67, 78
1, 23520, Note_on_c, 11, 70, 84
1, 23520, Note_on_c, 11, 75, 87
1, 23520, Note_on_c, 12, 55, 78
1, 23520, Note_on_c, 12, 58, 84
1, 23520, Note_on_c, 12, 63, 90
1, 23596, Note_on_c, 9, 42, 0
1, 23619, Note_on_c, 9, 70, 0
1, 23640, Note_on_c, 9, 42, 44
1, 23640, Note_on_c, 9, 69, 39
1, 23687, Note_on_c, 9, 42, 0
1, 23714, Note_on_c, 9, 69, 0
1, 23715, Note_on_c, 11, 70, 0
1, 23760, Lyric_t, "an "
1, 23760, Note_on_c, 3, 70, 0
1, 23760, Note_on_c, 3, 67, 72
1, 23760, Note_on_c, 9, 42, 70
1, 23760, Note_on_c, 9, 70, 51
1, 23760, Note_on_c, 11, 70, 27
1, 23807, Note_on_c, 11, 70, 0
1, 23821, Note_on_c, 9, 42, 0
1, 23825, Note_on_c, 11, 67, 0
1, 23834, Note_on_c, 11, 75, 0
1, 23843, Note_on_c, 9, 38, 0
1, 23855, Note_on_c, 9, 70, 0
1, 23873, Note_on_c, 12, 55, 0
1, 23873, Note_on_c, 12, 58, 0
1, 23873, Note_on_c, 12, 63, 0
1, 23880, Lyric_t, "an"
1, 23880, Note_on_c, 3, 70, 105
1, 23880, Note_on_c, 9, 42, 39
1, 23880, Note_on_c, 9, 69, 44
1, 23880, Note_on_c, 11, 67, 84
1, 23880, Note_on_c, 11, 75, 90
1, 23880, Note_on_c, 11, 70, 87
1, 23880, Note_on_c, 12, 55, 87
1, 23880, Note_on_c, 12, 63, 90
1, 23880, Note_on_c, 12, 58, 87
1, 23895, Note_on_c, 3, 67, 0
1, 23916, Note_on_c, 9, 42, 0
1, 23942, Note_on_c, 9, 69, 0
1, 24000, Note_on_c, 9, 42, 75
1, 24000, Note_on_c, 9, 70, 56
1, 24066, Note_on_c, 9, 42, 0
1, 24088, Note_on_c, 9, 70, 0
1, 24096, Note_on_c, 11, 70, 0
1, 24102, Note_on_c, 11, 75, 0
1, 24120, Lyric_t, "gel "
1, 24120, Lyric_t, "\015"
1, 24120, Note_on_c, 3, 63, 96
1, 24120, Note_on_c, 9, 36, 76
1, 24120, Note_on_c, 9, 42, 59
1, 24120, Note_on_c, 9, 69, 42
1, 24120, Note_on_c, 11, 70, 45
1, 24120, Note_on_c, 11, 75, 44
1, 24120, Note_on_c, 12, 58, 29
1, 24131, Note_on_c, 3, 70, 0
1, 24150, Note_on_c, 9, 36, 0
1, 24165, Note_on_c, 9, 42, 0
1, 24177, Note_on_c, 1, 36, 0
1, 24180, Note_on_c, 9, 69, 0
1, 24184, Note_on_c, 11, 70, 0
1, 24191, Note_on_c, 12, 58, 0
1, 24195, Note_on_c, 11, 67, 0
1, 24201, Note_on_c, 11, 75, 0
1, 24233, Note_on_c, 12, 55, 0
1, 24233, Note_on_c, 12, 63, 0
1, 24233, Note_on_c, 12, 58, 0
1, 24240, Note_on_c, 1, 36, 102
1, 24240, Note_on_c, 9, 36, 99
1, 24240, Note_on_c, 9, 42, 66
1, 24240, Note_on_c, 9, 70, 54
1, 24240, Note_on_c, 11, 67, 84
1, 24240, Note_on_c, 11, 75, 82
1, 24240, Note_on_c, 11, 70, 87
1, 24240, Note_on_c, 12, 63, 93
1, 24240, Note_on_c, 12, 55, 90
1, 24240, Note_on_c, 12, 58, 84
1, 24299, Note_on_c, 9, 42, 0
1, 24328, Note_on_c, 9, 70, 0
1, 24360, Note_on_c, 9, 42, 52
1, 24360, Note_on_c, 9, 69, 50
1, 24393, Note_on_c, 9, 36, 0
1, 24416, Note_on_c, 9, 69, 0
1, 24417, Note_on_c, 9, 42, 0
1, 24480, Note_on_c, 9, 38, 111
1, 24480, Note_on_c, 9, 42, 75
1, 24480, Note_on_c, 9, 70, 56
1, 24531, Note_on_c, 9, 42, 0
1, 24561, Note_on_c, 3, 63, 0
1, 24571, Note_on_c, 9, 70, 0
1, 24593, Note_on_c, 12, 63, 0
1, 24593, Note_on_c, 12, 55, 0
1, 24593, Note_on_c, 12, 58, 0
1, 24597, Note_on_c, 11, 67, 0
1, 24597, Note_on_c, 11, 75, 0
1, 24597, Note_on_c, 11, 70, 0
1, 24600, Note_on_c, 9, 42, 55
1, 24600, Note_on_c, 9, 69, 41
1, 24600, Note_on_c, 11, 67, 59
1, 24600, Note_on_c, 11, 70, 74
1, 24600, Note_on_c, 11, 75, 76
1, 24600, Note_on_c, 12, 58, 51
1, 24600, Note_on_c, 12, 55, 43
1, 24600, Note_on_c, 12, 63, 42
1, 24639, Note_on_c, 9, 42, 0
1, 24649, Note_on_c, 9, 69, 0
1, 24715, Note_on_c, 12, 58, 0
1, 24715, Note_on_c, 12, 55, 0
1, 24715, Note_on_c, 12, 63, 0
1, 24717, Note_on_c, 11, 67, 0
1, 24717, Note_on_c, 11, 70, 0
1, 24717, Note_on_c, 11, 75, 0
1, 24720, Note_on_c, 9, 46, 80
1, 24720, Note_on_c, 9, 70, 48
1, 24720, Note_on_c, 11, 67, 74
1, 24720, Note_on_c, 11, 70, 80
1, 24720, Note_on_c, 11, 75, 87
1, 24720, Note_on_c, 12, 58, 87
1, 24720, Note_on_c, 12, 55, 78
1, 24720, Note_on_c, 12, 63, 72
1, 24806, Note_on_c, 9, 38, 0
1, 24817, Note_on_c, 9, 70, 0
1, 24837, Note_on_c, 11, 67, 0
1, 24837, Note_on_c, 11, 70, 0
1, 24840, Note_on_c, 9, 69, 53
1, 24840, Note_on_c, 11, 67, 72
1, 24840, Note_on_c, 11, 70, 66
1, 24840, Note_on_c, 12, 58, 62
1, 24858, Note_on_c, 9, 46, 0
1, 24896, Note_on_c, 12, 58, 0
1, 24911, Note_on_c, 9, 69, 0
1, 24915, Note_on_c, 11, 67, 0
1, 24920, Note_on_c, 11, 70, 0
1, 24932, Note_on_c, 11, 75, 0
1, 24954, Note_on_c, 12, 58, 0
1, 24954, Note_on_c, 12, 55, 0
1, 24954, Note_on_c, 12, 63, 0
1, 24960, Note_on_c, 1, 32, 105
1, 24960, Note_on_c, 5, 56, 24
1, 24960, Note_on_c, 9, 36, 108
1, 24960, Note_on_c, 9, 42, 73
1, 24960, Note_on_c, 9, 70, 51
1, 24960, Note_on_c, 11, 75, 90
1, 24960, Note_on_c, 11, 68, 87
1, 24960, Note_on_c, 11, 70, 87
1, 24960, Note_on_c, 12, 63, 82
1, 24960, Note_on_c, 12, 60, 90
1, 24960, Note_on_c, 12, 68, 90
1, 24960, Note_on_c, 12, 56, 84
1, 25002, Note_on_c, 1, 36, 0
1, 25033, Note_on_c, 5, 58, 0
1, 25036, Note_on_c, 9, 42, 0
1, 25038, Note_on_c, 9, 70, 0
1, 25080, Note_on_c, 9, 42, 44
1, 25080, Note_on_c, 9, 69, 43
1, 25124, Note_on_c, 9, 69, 0
1, 25127, Note_on_c, 9, 42, 0
1, 25160, Note_on_c, 11, 68, 0
1, 25200, Lyric_t, "of "
1, 25200, Note_on_c, 3, 67, 111
1, 25200, Note_on_c, 9, 42, 70
1, 25200, Note_on_c, 9, 70, 48
1, 25200, Note_on_c, 11, 68, 40
1, 25261, Note_on_c, 9, 42, 0
1, 25277, Note_on_c, 9, 70, 0
1, 25291, Note_on_c, 11, 75, 0
1, 25320, Note_on_c, 9, 42, 39
1, 25320, Note_on_c, 9, 69, 47
1, 25334, Note_on_c, 9, 36, 0
1, 25355, Note_on_c, 11, 68, 0
1, 25356, Note_on_c, 9, 42, 0
1, 25364, Note_on_c, 9, 69, 0
1, 25402, Note_on_c, 3, 67, 0
1, 25432, Note_on_c, 12, 63, 0
1, 25432, Note_on_c, 12, 60, 0
1, 25432, Note_on_c, 12, 68, 0
1, 25432, Note_on_c, 12, 56, 0
1, 25440, Lyric_t, "that "
1, 25440, Note_on_c, 3, 70, 105
1, 25440, Note_on_c, 9, 38, 108
1, 25440, Note_on_c, 9, 42, 75
1, 25440, Note_on_c, 9, 70, 54
1, 25440, Note_on_c, 11, 75, 90
1, 25440, Note_on_c, 11, 68, 99
1, 25440, Note_on_c, 12, 68, 78
1, 25440, Note_on_c, 12, 60, 82
1, 25440, Note_on_c, 12, 63, 87
1, 25440, Note_on_c, 12, 56, 99
1, 25506, Note_on_c, 9, 42, 0
1, 25516, Note_on_c, 9, 70, 0
1, 25560, Lyric_t, "I'm "
1, 25560, Note_on_c, 3, 67, 90
1, 25560, Note_on_c, 9, 42, 59
1, 25560, Note_on_c, 9, 69, 30
1, 25596, Note_on_c, 3, 70, 0
1, 25603, Note_on_c, 9, 69, 0
1, 25605, Note_on_c, 9, 42, 0
1, 25680, Note_on_c, 9, 42, 66
1, 25680, Note_on_c, 9, 70, 58
1, 25717, Note_on_c, 11, 75, 0
1, 25732, Note_on_c, 11, 68, 0
1, 25739, Note_on_c, 9, 42, 0
1, 25763, Note_on_c, 9, 38, 0
1, 25771, Note_on_c, 9, 70, 0
1, 25786, Note_on_c, 3, 67, 0
1, 25793, Note_on_c, 12, 68, 0
1, 25793, Note_on_c, 12, 60, 0
1, 25793, Note_on_c, 12, 63, 0
1, 25793, Note_on_c, 12, 56, 0
1, 25800, Lyric_t, "sure. "
1, 25800, Lyric_t, "\015"
1, 25800, Note_on_c, 3, 70, 105
1, 25800, Note_on_c, 9, 36, 105
1, 25800, Note_on_c, 9, 42, 52
1, 25800, Note_on_c, 9, 69, 47
1, 25800, Note_on_c, 11, 68, 87
1, 25800, Note_on_c, 11, 75, 90
1, 25800, Note_on_c, 12, 60, 82
1, 25800, Note_on_c, 12, 68, 84
1, 25800, Note_on_c, 12, 56, 90
1, 25800, Note_on_c, 12, 63, 84
1, 25850, Note_on_c, 9, 69, 0
1, 25857, Note_on_c, 9, 42, 0
1, 25874, Note_on_c, 9, 36, 0
1, 25920, Note_on_c, 9, 42, 75
1, 25920, Note_on_c, 9, 70, 51
1, 25971, Note_on_c, 9, 42, 0
1, 25987, Note_on_c, 11, 70, 0
1, 25989, Note_on_c, 11, 75, 0
1, 25990, Note_on_c, 9, 70, 0
1, 26003, Note_on_c, 11, 68, 0
1, 26040, Note_on_c, 9, 36, 76
1, 26040, Note_on_c, 9, 42, 55
1, 26040, Note_on_c, 9, 69, 38
1, 26040, Note_on_c, 11, 70, 48
1, 26040, Note_on_c, 11, 68, 49
1, 26040, Note_on_c, 12, 56, 35
1, 26040, Note_on_c, 12, 60, 40
1, 26070, Note_on_c, 9, 36, 0
1, 26079, Note_on_c, 9, 42, 0
1, 26083, Note_on_c, 12, 60, 0
1, 26094, Note_on_c, 11, 68, 0
1, 26101, Note_on_c, 9, 69, 0
1, 26101, Note_on_c, 12, 56, 0
1, 26114, Note_on_c, 11, 70, 0
1, 26135, Note_on_c, 3, 70, 0
1, 26153, Note_on_c, 12, 60, 0
1, 26153, Note_on_c, 12, 68, 0
1, 26153, Note_on_c, 12, 56, 0
1, 26153, Note_on_c, 12, 63, 0
1, 26160, Note_on_c, 9, 36, 99
1, 26160, Note_on_c, 9, 46, 80
1, 26160, Note_on_c, 9, 70, 58
1, 26160, Note_on_c, 11, 75, 93
1, 26160, Note_on_c, 11, 68, 96
1, 26160, Note_on_c, 11, 70, 93
1, 26160, Note_on_c, 12, 68, 87
1, 26160, Note_on_c, 12, 63, 84
1, 26160, Note_on_c, 12, 56, 102
1, 26160, Note_on_c, 12, 60, 87
1, 26252, Note_on_c, 9, 70, 0
1, 26280, Note_on_c, 9, 69, 45
1, 26298, Note_on_c, 9, 46, 0
1, 26313, Note_on_c, 9, 36, 0
1, 26337, Note_on_c, 9, 69, 0
1, 26400, Lyric_t, "She "
1, 26400, Note_on_c, 1, 36, 87
1, 26400, Note_on_c, 3, 63, 114
1, 26400, Note_on_c, 9, 38, 111
1, 26400, Note_on_c, 9, 42, 75
1, 26400, Note_on_c, 9, 70, 48
1, 26415, Note_on_c, 1, 32, 0
1, 26448, Note_on_c, 9, 70, 0
1, 26466, Note_on_c, 9, 42, 0
1, 26520, Note_on_c, 9, 42, 59
1, 26520, Note_on_c, 9, 70, 51
1, 26520, Note_on_c, 11, 70, 44
1, 26520, Note_on_c, 11, 68, 58
1, 26520, Note_on_c, 12, 60, 43
1, 26563, Note_on_c, 12, 60, 0
1, 26565, Note_on_c, 9, 42, 0
1, 26566, Note_on_c, 9, 70, 0
1, 26574, Note_on_c, 11, 68, 0
1, 26587, Note_on_c, 11, 70, 0
1, 26632, Note_on_c, 12, 68, 0
1, 26632, Note_on_c, 12, 63, 0
1, 26632, Note_on_c, 12, 56, 0
1, 26632, Note_on_c, 12, 60, 0
1, 26637, Note_on_c, 11, 75, 0
1, 26637, Note_on_c, 11, 68, 0
1, 26637, Note_on_c, 11, 70, 0
1, 26640, Lyric_t, "smiled "
1, 26640, Note_on_c, 1, 38, 82
1, 26640, Note_on_c, 3, 70, 102
1, 26640, Note_on_c, 9, 36, 108
1, 26640, Note_on_c, 9, 42, 66
1, 26640, Note_on_c, 9, 70, 54
1, 26640, Note_on_c, 11, 70, 87
1, 26640, Note_on_c, 11, 68, 93
1, 26640, Note_on_c, 11, 75, 87
1, 26640, Note_on_c, 12, 68, 87
1, 26640, Note_on_c, 12, 60, 93
1, 26640, Note_on_c, 12, 56, 102
1, 26640, Note_on_c, 12, 63, 87
1, 26652, Note_on_c, 1, 36, 0
1, 26669, Note_on_c, 3, 63, 0
1, 26699, Note_on_c, 9, 42, 0
1, 26714, Note_on_c, 9, 70, 0
1, 26726, Note_on_c, 9, 38, 0
1, 26736, Note_on_c, 11, 68, 0
1, 26744, Note_on_c, 11, 75, 0
1, 26755, Note_on_c, 11, 70, 0
1, 26755, Note_on_c, 12, 68, 0
1, 26755, Note_on_c, 12, 60, 0
1, 26755, Note_on_c, 12, 56, 0
1, 26755, Note_on_c, 12, 63, 0
1, 26760, Note_on_c, 9, 42, 52
1, 26760, Note_on_c, 9, 69, 59
1, 26760, Note_on_c, 11, 68, 62
1, 26760, Note_on_c, 11, 75, 76
1, 26760, Note_on_c, 11, 70, 80
1, 26760, Note_on_c, 12, 68, 46
1, 26760, Note_on_c, 12, 56, 44
1, 26760, Note_on_c, 12, 60, 59
1, 26799, Note_on_c, 5, 51, 0
1, 26810, Note_on_c, 9, 36, 0
1, 26817, Note_on_c, 9, 42, 0
1, 26822, Note_on_c, 11, 68, 0
1, 26830, Note_on_c, 12, 56, 0
1, 26832, Note_on_c, 12, 60, 0
1, 26840, Note_on_c, 9, 69, 0
1, 26840, Note_on_c, 12, 68, 0
1, 26842, Note_on_c, 11, 70, 0
1, 26845, Note_on_c, 11, 75, 0
1, 26880, Note_on_c, 1, 39, 105
1, 26880, Note_on_c, 5, 55, 25
1, 26880, Note_on_c, 5, 51, 25
1, 26880, Note_on_c, 9, 36, 108
1, 26880, Note_on_c, 9, 42, 73
1, 26880, Note_on_c, 9, 70, 58
1, 26880, Note_on_c, 10, 55, 82
1, 26880, Note_on_c, 11, 75, 90
1, 26880, Note_on_c, 11, 67, 87
1, 26880, Note_on_c, 11, 70, 87
1, 26880, Note_on_c, 12, 55, 99
1, 26880, Note_on_c, 12, 63, 93
1, 26880, Note_on_c, 12, 58, 96
1, 26896, Note_on_c, 1, 38, 0
1, 26915, Note_on_c, 5, 56, 0
1, 26946, Note_on_c, 9, 70, 0
1, 26952, Note_on_c, 3, 70, 0
1, 26956, Note_on_c, 9, 42, 0
1, 26960, Lyric_t, "at "
1, 26963, Note_on_c, 3, 70, 108
1, 26996, Note_on_c, 3, 70, 0
1, 27000, Note_on_c, 9, 69, 27
1, 27064, Lyric_t, "me "
1, 27064, Lyric_t, "\015"
1, 27065, Note_on_c, 3, 70, 90
1, 27066, Note_on_c, 9, 69, 0
1, 27087, Note_on_c, 11, 70, 0
1, 27088, Note_on_c, 10, 55, 0
1, 27089, Note_on_c, 11, 67, 0
1, 27097, Note_on_c, 3, 70, 0
1, 27108, Note_on_c, 11, 75, 0
1, 27120, Note_on_c, 9, 42, 70
1, 27120, Note_on_c, 9, 70, 58
1, 27120, Note_on_c, 10, 55, 82
1, 27120, Note_on_c, 11, 75, 58
1, 27120, Note_on_c, 11, 70, 64
1, 27120, Note_on_c, 11, 67, 36
1, 27120, Note_on_c, 12, 58, 37
1, 27152, Lyric_t, "on "
1, 27153, Note_on_c, 3, 70, 80
1, 27170, Note_on_c, 12, 58, 0
1, 27181, Note_on_c, 9, 42, 0
1, 27193, Note_on_c, 9, 70, 0
1, 27240, Note_on_c, 9, 42, 39
1, 27240, Note_on_c, 9, 69, 37
1, 27240, Note_on_c, 12, 58, 58
1, 27240, Note_on_c, 12, 55, 50
1, 27254, Note_on_c, 9, 36, 0
1, 27255, Note_on_c, 3, 70, 0
1, 27260, Lyric_t, "the "
1, 27260, Note_on_c, 3, 67, 82
1, 27266, Note_on_c, 11, 75, 0
1, 27276, Note_on_c, 9, 42, 0
1, 27299, Note_on_c, 11, 67, 0
1, 27302, Note_on_c, 9, 69, 0
1, 27311, Note_on_c, 11, 70, 0
1, 27313, Note_on_c, 12, 55, 0
1, 27315, Note_on_c, 12, 58, 0
1, 27328, Note_on_c, 3, 67, 0
1, 27352, Note_on_c, 12, 55, 0
1, 27352, Note_on_c, 12, 63, 0
1, 27352, Note_on_c, 12, 58, 0
1, 27360, Lyric_t, "sub"
1, 27360, Note_on_c, 3, 70, 108
1, 27360, Note_on_c, 9, 38, 108
1, 27360, Note_on_c, 9, 42, 75
1, 27360, Note_on_c, 9, 70, 51
1, 27360, Note_on_c, 10, 53, 80
1, 27360, Note_on_c, 11, 75, 90
1, 27360, Note_on_c, 11, 67, 84
1, 27360, Note_on_c, 11, 70, 84
1, 27360, Note_on_c, 12, 58, 76
1, 27360, Note_on_c, 12, 55, 90
1, 27360, Note_on_c, 12, 63, 87
1, 27406, Note_on_c, 10, 55, 0
1, 27421, Note_on_c, 9, 70, 0
1, 27426, Note_on_c, 9, 42, 0
1, 27480, Note_on_c, 9, 42, 59
1, 27480, Note_on_c, 9, 69, 42
1, 27525, Note_on_c, 9, 42, 0
1, 27536, Note_on_c, 9, 69, 0
1, 27552, Note_on_c, 3, 70, 0
1, 27600, Lyric_t, "way "
1, 27600, Lyric_t, "\015"
1, 27600, Note_on_c, 3, 63, 90
1, 27600, Note_on_c, 9, 42, 66
1, 27600, Note_on_c, 9, 70, 50
1, 27600, Note_on_c, 10, 55, 70
1, 27600, Note_on_c, 12, 58, 14
1, 27642, Note_on_c, 10, 53, 0
1, 27659, Note_on_c, 9, 42, 0
1, 27671, Note_on_c, 11, 75, 0
1, 27673, Note_on_c, 9, 70, 0
1, 27683, Note_on_c, 9, 38, 0
1, 27692, Note_on_c, 12, 58, 0
1, 27713, Note_on_c, 12, 58, 0
1, 27713, Note_on_c, 12, 55, 0
1, 27713, Note_on_c, 12, 63, 0
1, 27720, Note_on_c, 9, 42, 52
1, 27720, Note_on_c, 9, 69, 43
1, 27720, Note_on_c, 11, 75, 90
1, 27720, Note_on_c, 12, 63, 90
1, 27720, Note_on_c, 12, 55, 80
1, 27720, Note_on_c, 12, 58, 93
1, 27777, Note_on_c, 9, 42, 0
1, 27785, Note_on_c, 9, 69, 0
1, 27794, Note_on_c, 3, 63, 0
1, 27840, Note_on_c, 9, 42, 75
1, 27840, Note_on_c, 9, 70, 54
1, 27882, Note_on_c, 1, 39, 0
1, 27891, Note_on_c, 9, 42, 0
1, 27892, Note_on_c, 9, 70, 0
1, 27902, Note_on_c, 11, 75, 0
1, 27906, Note_on_c, 11, 67, 0
1, 27911, Note_on_c, 11, 70, 0
1, 27960, Note_on_c, 1, 39, 61
1, 27960, Note_on_c, 9, 36, 76
1, 27960, Note_on_c, 9, 42, 55
1, 27960, Note_on_c, 9, 70, 59
1, 27960, Note_on_c, 11, 70, 57
1, 27960, Note_on_c, 11, 75, 68
1, 27960, Note_on_c, 11, 67, 66
1, 27960, Note_on_c, 12, 58, 32
1, 27990, Note_on_c, 9, 36, 0
1, 27999, Note_on_c, 9, 42, 0
1, 28013, Note_on_c, 9, 70, 0
1, 28018, Note_on_c, 11, 75, 0
1, 28020, Note_on_c, 11, 67, 0
1, 28028, Note_on_c, 11, 70, 0
1, 28030, Note_on_c, 1, 39, 0
1, 28040, Note_on_c, 12, 58, 0
1, 28073, Note_on_c, 12, 63, 0
1, 28073, Note_on_c, 12, 55, 0
1, 28073, Note_on_c, 12, 58, 0
1, 28080, Note_on_c, 1, 39, 87
1, 28080, Note_on_c, 9, 46, 80
1, 28080, Note_on_c, 9, 36, 99
1, 28080, Note_on_c, 9, 69, 48
1, 28080, Note_on_c, 10, 53, 64
1, 28080, Note_on_c, 11, 67, 90
1, 28080, Note_on_c, 11, 70, 90
1, 28080, Note_on_c, 11, 75, 99
1, 28080, Note_on_c, 12, 63, 90
1, 28080, Note_on_c, 12, 55, 78
1, 28080, Note_on_c, 12, 58, 90
1, 28090, Note_on_c, 10, 55, 0
1, 28148, Note_on_c, 9, 69, 0
1, 28200, Note_on_c, 9, 70, 48
1, 28218, Note_on_c, 9, 46, 0
1, 28233, Note_on_c, 9, 36, 0
1, 28249, Note_on_c, 9, 70, 0
1, 28320, Note_on_c, 9, 38, 111
1, 28320, Note_on_c, 9, 42, 75
1, 28320, Note_on_c, 9, 70, 56
1, 28320, Note_on_c, 10, 55, 76
1, 28372, Note_on_c, 10, 53, 0
1, 28386, Note_on_c, 9, 42, 0
1, 28406, Note_on_c, 9, 70, 0
1, 28433, Note_on_c, 12, 63, 0
1, 28433, Note_on_c, 12, 55, 0
1, 28433, Note_on_c, 12, 58, 0
1, 28437, Note_on_c, 11, 67, 0
1, 28437, Note_on_c, 11, 70, 0
1, 28437, Note_on_c, 11, 75, 0
1, 28440, Note_on_c, 9, 42, 59
1, 28440, Note_on_c, 9, 69, 44
1, 28440, Note_on_c, 11, 67, 64
1, 28440, Note_on_c, 11, 70, 78
1, 28440, Note_on_c, 11, 75, 76
1, 28440, Note_on_c, 12, 63, 57
1, 28440, Note_on_c, 12, 55, 23
1, 28440, Note_on_c, 12, 58, 37
1, 28485, Note_on_c, 9, 42, 0
1, 28508, Note_on_c, 9, 69, 0
1, 28549, Note_on_c, 1, 39, 0
1, 28557, Note_on_c, 11, 67, 0
1, 28557, Note_on_c, 11, 70, 0
1, 28557, Note_on_c, 11, 75, 0
1, 28560, Lyric_t, "she "
1, 28560, Note_on_c, 1, 39, 87
1, 28560, Note_on_c, 3, 58, 105
1, 28560, Note_on_c, 9, 42, 66
1, 28560, Note_on_c, 9, 70, 56
1, 28560, Note_on_c, 10, 51, 52
1, 28560, Note_on_c, 11, 67, 78
1, 28560, Note_on_c, 11, 70, 78
1, 28560, Note_on_c, 11, 75, 84
1, 28560, Note_on_c, 12, 58, 64
1, 28560, Note_on_c, 12, 55, 59
1, 28560, Note_on_c, 12, 63, 62
1, 28598, Note_on_c, 10, 55, 0
1, 28619, Note_on_c, 9, 42, 0
1, 28622, Note_on_c, 12, 58, 0
1, 28631, Note_on_c, 12, 55, 0
1, 28635, Note_on_c, 9, 70, 0
1, 28636, Note_on_c, 3, 58, 0
1, 28646, Note_on_c, 9, 38, 0
1, 28677, Note_on_c, 11, 67, 0
1, 28677, Note_on_c, 11, 70, 0
1, 28680, Lyric_t, "was "
1, 28680, Note_on_c, 3, 58, 102
1, 28680, Note_on_c, 9, 42, 52
1, 28680, Note_on_c, 9, 69, 42
1, 28680, Note_on_c, 11, 70, 54
1, 28680, Note_on_c, 11, 67, 61
1, 28680, Note_on_c, 12, 55, 38
1, 28680, Note_on_c, 12, 58, 34
1, 28716, Note_on_c, 10, 51, 0
1, 28727, Note_on_c, 12, 55, 0
1, 28731, Note_on_c, 12, 58, 0
1, 28736, Note_on_c, 12, 63, 0
1, 28737, Note_on_c, 9, 42, 0
1, 28744, Note_on_c, 9, 69, 0
1, 28744, Note_on_c, 11, 67, 0
1, 28762, Note_on_c, 11, 70, 0
1, 28778, Note_on_c, 3, 58, 0
1, 28783, Note_on_c, 11, 75, 0
1, 28793, Note_on_c, 12, 63, 0
1, 28793, Note_on_c, 12, 55, 0
1, 28793, Note_on_c, 12, 58, 0
1, 28800, Note_on_c, 1, 38, 105
1, 28800, Note_on_c, 5, 58, 25
1, 28800, Note_on_c, 5, 53, 25
1, 28800, Note_on_c, 9, 36, 111
1, 28800, Note_on_c, 9, 42, 73
1, 28800, Note_on_c, 9, 70, 58
1, 28800, Note_on_c, 10, 50, 96
1, 28800, Note_on_c, 11, 74, 93
1, 28800, Note_on_c, 11, 70, 90
1, 28800, Note_on_c, 11, 65, 84
1, 28800, Note_on_c, 12, 58, 96
1, 28800, Note_on_c, 12, 63, 108
1, 28800, Note_on_c, 12, 53, 90
1, 28808, Lyric_t, "with "
1, 28809, Note_on_c, 3, 70, 108
1, 28821, Note_on_c, 5, 51, 0
1, 28823, Note_on_c, 5, 55, 0
1, 28872, Note_on_c, 9, 70, 0
1, 28873, Note_on_c, 1, 39, 0
1, 28876, Note_on_c, 9, 42, 0
1, 28898, Note_on_c, 3, 70, 0
1, 28900, Lyric_t, "an"
1, 28902, Note_on_c, 3, 67, 90
1, 28920, Note_on_c, 9, 42, 44
1, 28920, Note_on_c, 9, 70, 45
1, 28967, Note_on_c, 9, 42, 0
1, 28976, Note_on_c, 9, 70, 0
1, 28980, Lyric_t, "oth"
1, 28982, Note_on_c, 3, 70, 99
1, 28987, Note_on_c, 3, 67, 0
1, 29001, Note_on_c, 9, 36, 0
1, 29029, Note_on_c, 11, 70, 0
1, 29040, Note_on_c, 9, 42, 70
1, 29040, Note_on_c, 9, 69, 53
1, 29040, Note_on_c, 10, 50, 0
1, 29040, Note_on_c, 10, 50, 80
1, 29040, Note_on_c, 11, 70, 72
1, 29060, Lyric_t, "er "
1, 29061, Note_on_c, 3, 67, 90
1, 29062, Note_on_c, 3, 70, 0
1, 29101, Note_on_c, 9, 42, 0
1, 29113, Note_on_c, 9, 69, 0
1, 29148, Lyric_t, "man "
1, 29148, Lyric_t, "\015"
1, 29149, Note_on_c, 3, 67, 0
1, 29151, Note_on_c, 3, 70, 102
1, 29160, Note_on_c, 9, 42, 39
1, 29160, Note_on_c, 9, 70, 42
1, 29160, Note_on_c, 12, 53, 47
1, 29160, Note_on_c, 12, 58, 40
1, 29196, Note_on_c, 9, 42, 0
1, 29213, Note_on_c, 9, 70, 0
1, 29216, Note_on_c, 12, 58, 0
1, 29243, Note_on_c, 11, 74, 0
1, 29252, Note_on_c, 11, 65, 0
1, 29257, Note_on_c, 11, 70, 0
1, 29272, Note_on_c, 12, 58, 0
1, 29272, Note_on_c, 12, 63, 0
1, 29272, Note_on_c, 12, 53, 0
1, 29280, Note_on_c, 9, 38, 114
1, 29280, Note_on_c, 9, 42, 75
1, 29280, Note_on_c, 9, 70, 48
1, 29280, Note_on_c, 10, 48, 78
1, 29280, Note_on_c, 11, 65, 84
1, 29280, Note_on_c, 11, 74, 99
1, 29280, Note_on_c, 11, 70, 90
1, 29280, Note_on_c, 12, 58, 84
1, 29280, Note_on_c, 12, 65, 102
1, 29288, Note_on_c, 10, 50, 0
1, 29346, Note_on_c, 9, 42, 0
1, 29355, Note_on_c, 9, 70, 0
1, 29400, Note_on_c, 9, 42, 59
1, 29400, Note_on_c, 9, 69, 51
1, 29445, Note_on_c, 9, 42, 0
1, 29465, Note_on_c, 9, 69, 0
1, 29472, Note_on_c, 9, 38, 0
1, 29481, Note_on_c, 3, 70, 0
1, 29517, Note_on_c, 10, 48, 0
1, 29520, Note_on_c, 9, 42, 66
1, 29520, Note_on_c, 9, 70, 56
1, 29520, Note_on_c, 10, 50, 78
1, 29576, Note_on_c, 11, 74, 0
1, 29579, Note_on_c, 9, 42, 0
1, 29580, Note_on_c, 11, 65, 0
1, 29583, Note_on_c, 12, 53, 0
1, 29599, Note_on_c, 11, 70, 0
1, 29610, Note_on_c, 9, 70, 0
1, 29640, Note_on_c, 9, 42, 52
1, 29640, Note_on_c, 9, 69, 45
1, 29640, Note_on_c, 11, 74, 93
1, 29640, Note_on_c, 11, 65, 76
1, 29640, Note_on_c, 11, 70, 78
1, 29640, Note_on_c, 12, 53, 82
1, 29640, Note_on_c, 12, 63, 82
1, 29640, Note_on_c, 12, 58, 90
1, 29696, Note_on_c, 9, 69, 0
1, 29697, Note_on_c, 9, 42, 0
1, 29760, Note_on_c, 9, 42, 75
1, 29760, Note_on_c, 9, 70, 56
1, 29811, Note_on_c, 9, 42, 0
1, 29818, Note_on_c, 12, 58, 0
1, 29841, Note_on_c, 11, 70, 0
1, 29844, Note_on_c, 12, 53, 0
1, 29846, Note_on_c, 11, 65, 0
1, 29849, Note_on_c, 9, 70, 0
1, 29880, Note_on_c, 9, 42, 55
1, 29880, Note_on_c, 9, 69, 40
1, 29880, Note_on_c, 11, 65, 14
1, 29880, Note_on_c, 11, 70, 43
1, 29880, Note_on_c, 12, 58, 45
1, 29880, Note_on_c, 12, 53, 30
1, 29918, Note_on_c, 11, 65, 0
1, 29919, Note_on_c, 9, 42, 0
1, 29935, Note_on_c, 12, 53, 0
1, 29943, Note_on_c, 12, 58, 0
1, 29948, Note_on_c, 1, 38, 0
1, 29951, Note_on_c, 9, 69, 0
1, 29958, Note_on_c, 11, 70, 0
1, 29987, Note_on_c, 11, 74, 0
1, 29989, Note_on_c, 12, 58, 0
1, 29989, Note_on_c, 12, 65, 0
1, 30000, Note_on_c, 1, 38, 96
1, 30000, Note_on_c, 9, 46, 80
1, 30000, Note_on_c, 9, 36, 111
1, 30000, Note_on_c, 9, 70, 53
1, 30000, Note_on_c, 10, 48, 78
1, 30000, Note_on_c, 11, 70, 84
1, 30000, Note_on_c, 11, 74, 96
1, 30000, Note_on_c, 11, 65, 76
1, 30000, Note_on_c, 12, 53, 87
1, 30000, Note_on_c, 12, 58, 93
1, 30000, Note_on_c, 12, 65, 105
1, 30003, Note_on_c, 10, 50, 0
1, 30092, Note_on_c, 9, 70, 0
1, 30120, Note_on_c, 9, 69, 40
1, 30138, Note_on_c, 9, 46, 0
1, 30173, Note_on_c, 9, 36, 0
1, 30191, Note_on_c, 9, 69, 0
1, 30240, Note_on_c, 9, 38, 108
1, 30240, Note_on_c, 9, 42, 75
1, 30240, Note_on_c, 9, 70, 66
1, 30240, Note_on_c, 10, 50, 87
1, 30277, Note_on_c, 10, 48, 0
1, 30306, Note_on_c, 9, 42, 0
1, 30347, Note_on_c, 9, 70, 0
1, 30357, Note_on_c, 11, 70, 0
1, 30357, Note_on_c, 11, 74, 0
1, 30357, Note_on_c, 11, 65, 0
1, 30360, Note_on_c, 9, 42, 59
1, 30360, Note_on_c, 9, 69, 28
1, 30360, Note_on_c, 11, 74, 76
1, 30360, Note_on_c, 11, 70, 55
1, 30360, Note_on_c, 11, 65, 62
1, 30360, Note_on_c, 12, 58, 52
1, 30360, Note_on_c, 12, 53, 32
1, 30405, Note_on_c, 9, 42, 0
1, 30414, Note_on_c, 9, 69, 0
1, 30427, Note_on_c, 12, 53, 0
1, 30434, Note_on_c, 12, 58, 0
1, 30440, Note_on_c, 12, 63, 0
1, 30472, Note_on_c, 12, 53, 0
1, 30472, Note_on_c, 12, 58, 0
1, 30472, Note_on_c, 12, 65, 0
1, 30477, Note_on_c, 11, 74, 0
1, 30477, Note_on_c, 11, 70, 0
1, 30477, Note_on_c, 11, 65, 0
1, 30480, Lyric_t, "but "
1, 30480, Note_on_c, 3, 63, 99
1, 30480, Note_on_c, 9, 38, 0
1, 30480, Note_on_c, 9, 42, 66
1, 30480, Note_on_c, 9, 70, 53
1, 30480, Note_on_c, 10, 46, 76
1, 30480, Note_on_c, 11, 74, 90
1, 30480, Note_on_c, 11, 65, 57
1, 30480, Note_on_c, 11, 70, 84
1, 30480, Note_on_c, 12, 58, 76
1, 30480, Note_on_c, 12, 53, 78
1, 30480, Note_on_c, 12, 63, 74
1, 30494, Note_on_c, 10, 50, 0
1, 30504, Note_on_c, 3, 63, 0
1, 30539, Note_on_c, 9, 42, 0
1, 30568, Note_on_c, 9, 70, 0
1, 30597, Note_on_c, 11, 74, 0
1, 30597, Note_on_c, 11, 65, 0
1, 30597, Note_on_c, 11, 70, 0
1, 30600, Lyric_t, "I "
1, 30600, Note_on_c, 3, 70, 111
1, 30600, Note_on_c, 9, 42, 52
1, 30600, Note_on_c, 9, 69, 30
1, 30600, Note_on_c, 11, 74, 84
1, 30600, Note_on_c, 11, 65, 30
1, 30600, Note_on_c, 11, 70, 62
1, 30600, Note_on_c, 12, 58, 64
1, 30657, Note_on_c, 9, 42, 0
1, 30662, Note_on_c, 9, 69, 0
1, 30667, Note_on_c, 12, 58, 0
1, 30707, Note_on_c, 10, 46, 0
1, 30714, Note_on_c, 12, 58, 0
1, 30714, Note_on_c, 12, 53, 0
1, 30714, Note_on_c, 12, 63, 0
1, 30719, Note_on_c, 11, 74, 0
1, 30720, Note_on_c, 1, 36, 105
1, 30720, Note_on_c, 5, 51, 25
1, 30720, Note_on_c, 9, 36, 108
1, 30720, Note_on_c, 9, 42, 73
1, 30720, Note_on_c, 9, 70, 61
1, 30720, Note_on_c, 10, 55, 82
1, 30720, Note_on_c, 11, 67, 84
1, 30720, Note_on_c, 11, 75, 96
1, 30720, Note_on_c, 11, 70, 90
1, 30720, Note_on_c, 12, 55, 90
1, 30720, Note_on_c, 12, 63, 90
1, 30720, Note_on_c, 12, 58, 84
1, 30734, Note_on_c, 5, 53, 0
1, 30734, Note_on_c, 11, 70, 0
1, 30737, Note_on_c, 11, 65, 0
1, 30783, Note_on_c, 1, 38, 0
1, 30796, Note_on_c, 9, 42, 0
1, 30807, Note_on_c, 3, 70, 0
1, 30821, Note_on_c, 9, 70, 0
1, 30840, Lyric_t, "won't "
1, 30840, Note_on_c, 3, 70, 105
1, 30840, Note_on_c, 9, 42, 44
1, 30840, Note_on_c, 9, 69, 30
1, 30887, Note_on_c, 9, 42, 0
1, 30907, Note_on_c, 9, 69, 0
1, 30923, Note_on_c, 10, 55, 0
1, 30945, Note_on_c, 11, 70, 0
1, 30947, Note_on_c, 11, 67, 0
1, 30960, Note_on_c, 9, 42, 70
1, 30960, Note_on_c, 9, 70, 51
1, 30960, Note_on_c, 10, 55, 82
1, 30960, Note_on_c, 11, 70, 68
1, 30960, Note_on_c, 11, 67, 38
1, 31009, Note_on_c, 3, 70, 0
1, 31021, Note_on_c, 9, 42, 0
1, 31044, Note_on_c, 9, 70, 0
1, 31080, Lyric_t, "lose "
1, 31080, Note_on_c, 3, 63, 105
1, 31080, Note_on_c, 9, 42, 39
1, 31080, Note_on_c, 9, 69, 43
1, 31080, Note_on_c, 12, 58, 27
1, 31094, Note_on_c, 9, 36, 0
1, 31116, Note_on_c, 9, 42, 0
1, 31138, Note_on_c, 11, 75, 0
1, 31138, Note_on_c, 11, 67, 0
1, 31140, Note_on_c, 9, 69, 0
1, 31150, Note_on_c, 11, 70, 0
1, 31151, Note_on_c, 12, 58, 0
1, 31192, Note_on_c, 12, 55, 0
1, 31192, Note_on_c, 12, 63, 0
1, 31192, Note_on_c, 12, 58, 0
1, 31200, Lyric_t, "no "
1, 31200, Lyric_t, "\015"
1, 31200, Note_on_c, 3, 63, 105
1, 31200, Note_on_c, 9, 38, 108
1, 31200, Note_on_c, 9, 42, 75
1, 31200, Note_on_c, 9, 70, 37
1, 31200, Note_on_c, 10, 53, 84
1, 31200, Note_on_c, 11, 67, 84
1, 31200, Note_on_c, 11, 75, 93
1, 31200, Note_on_c, 11, 70, 87
1, 31200, Note_on_c, 12, 55, 78
1, 31200, Note_on_c, 12, 58, 84
1, 31200, Note_on_c, 12, 63, 90
1, 31206, Note_on_c, 3, 63, 0
1, 31239, Note_on_c, 10, 55, 0
1, 31266, Note_on_c, 9, 42, 0
1, 31281, Note_on_c, 9, 70, 0
1, 31320, Note_on_c, 9, 42, 59
1, 31320, Note_on_c, 9, 69, 35
1, 31365, Note_on_c, 9, 42, 0
1, 31389, Note_on_c, 9, 69, 0
1, 31440, Note_on_c, 9, 42, 66
1, 31440, Note_on_c, 9, 70, 42
1, 31440, Note_on_c, 10, 55, 82
1, 31449, Note_on_c, 10, 53, 0
1, 31499, Note_on_c, 9, 42, 0
1, 31512, Note_on_c, 11, 75, 0
1, 31514, Note_on_c, 11, 67, 0
1, 31515, Note_on_c, 3, 63, 0
1, 31521, Note_on_c, 11, 70, 0
1, 31523, Note_on_c, 9, 38, 0
1, 31537, Note_on_c, 9, 70, 0
1, 31553, Note_on_c, 12, 55, 0
1, 31553, Note_on_c, 12, 58, 0
1, 31553, Note_on_c, 12, 63, 0
1, 31560, Note_on_c, 9, 42, 52
1, 31560, Note_on_c, 9, 69, 50
1, 31560, Note_on_c, 11, 67, 84
1, 31560, Note_on_c, 11, 75, 96
1, 31560, Note_on_c, 11, 70, 80
1, 31560, Note_on_c, 12, 55, 87
1, 31560, Note_on_c, 12, 63, 90
1, 31560, Note_on_c, 12, 58, 87
1, 31617, Note_on_c, 9, 42, 0
1, 31621, Note_on_c, 9, 69, 0
1, 31680, Lyric_t, "sleep "
1, 31680, Note_on_c, 3, 70, 108
1, 31680, Note_on_c, 9, 42, 75
1, 31680, Note_on_c, 9, 70, 44
1, 31712, Note_on_c, 3, 70, 0
1, 31723, Note_on_c, 1, 36, 0
1, 31731, Note_on_c, 9, 42, 0
1, 31748, Note_on_c, 11, 67, 0
1, 31755, Note_on_c, 11, 70, 0
1, 31760, Note_on_c, 11, 75, 0
1, 31766, Note_on_c, 9, 70, 0
1, 31800, Lyric_t, "on "
1, 31800, Note_on_c, 1, 36, 80
1, 31800, Note_on_c, 3, 70, 114
1, 31800, Note_on_c, 9, 36, 76
1, 31800, Note_on_c, 9, 42, 55
1, 31800, Note_on_c, 9, 69, 36
1, 31800, Note_on_c, 11, 75, 54
1, 31800, Note_on_c, 11, 70, 57
1, 31800, Note_on_c, 11, 67, 62
1, 31800, Note_on_c, 12, 58, 29
1, 31830, Note_on_c, 9, 36, 0
1, 31839, Note_on_c, 9, 42, 0
1, 31858, Note_on_c, 1, 36, 0
1, 31864, Note_on_c, 9, 69, 0
1, 31870, Note_on_c, 11, 75, 0
1, 31871, Note_on_c, 12, 58, 0
1, 31872, Note_on_c, 11, 67, 0
1, 31880, Note_on_c, 11, 70, 0
1, 31913, Note_on_c, 12, 55, 0
1, 31913, Note_on_c, 12, 63, 0
1, 31913, Note_on_c, 12, 58, 0
1, 31920, Note_on_c, 1, 36, 87
1, 31920, Note_on_c, 9, 46, 80
1, 31920, Note_on_c, 9, 36, 99
1, 31920, Note_on_c, 9, 70, 54
1, 31920, Note_on_c, 10, 53, 74
1, 31920, Note_on_c, 11, 75, 90
1, 31920, Note_on_c, 11, 67, 93
1, 31920, Note_on_c, 11, 70, 90
1, 31920, Note_on_c, 12, 63, 93
1, 31920, Note_on_c, 12, 55, 90
1, 31920, Note_on_c, 12, 58, 84
1, 31922, Note_on_c, 10, 55, 0
1, 32004, Note_on_c, 3, 70, 0
1, 32009, Note_on_c, 9, 70, 0
1, 32040, Lyric_t, "that "
1, 32040, Lyric_t, "\015"
1, 32040, Note_on_c, 3, 63, 105
1, 32040, Note_on_c, 9, 69, 28
1, 32058, Note_on_c, 9, 46, 0
1, 32073, Note_on_c, 9, 36, 0
1, 32091, Note_on_c, 9, 69, 0
1, 32160, Note_on_c, 9, 38, 111
1, 32160, Note_on_c, 9, 42, 75
1, 32160, Note_on_c, 9, 70, 59
1, 32160, Note_on_c, 10, 55, 87
1, 32210, Note_on_c, 10, 53, 0
1, 32226, Note_on_c, 9, 42, 0
1, 32252, Note_on_c, 9, 70, 0
1, 32273, Note_on_c, 12, 63, 0
1, 32273, Note_on_c, 12, 55, 0
1, 32273, Note_on_c, 12, 58, 0
1, 32277, Note_on_c, 11, 75, 0
1, 32277, Note_on_c, 11, 67, 0
1, 32277, Note_on_c, 11, 70, 0
1, 32280, Note_on_c, 9, 42, 59
1, 32280, Note_on_c, 9, 69, 32
1, 32280, Note_on_c, 11, 75, 72
1, 32280, Note_on_c, 11, 70, 64
1, 32280, Note_on_c, 11, 67, 66
1, 32280, Note_on_c, 12, 58, 51
1, 32280, Note_on_c, 12, 55, 43
1, 32280, Note_on_c, 12, 63, 42
1, 32289, Note_on_c, 3, 63, 0
1, 32325, Note_on_c, 9, 42, 0
1, 32336, Note_on_c, 9, 69, 0
1, 32395, Note_on_c, 12, 58, 0
1, 32395, Note_on_c, 12, 55, 0
1, 32395, Note_on_c, 12, 63, 0
1, 32397, Note_on_c, 11, 75, 0
1, 32397, Note_on_c, 11, 70, 0
1, 32397, Note_on_c, 11, 67, 0
1, 32400, Lyric_t, "'cause "
1, 32400, Note_on_c, 1, 31, 96
1, 32400, Note_on_c, 3, 63, 105
1, 32400, Note_on_c, 9, 42, 66
1, 32400, Note_on_c, 9, 70, 54
1, 32400, Note_on_c, 11, 70, 80
1, 32400, Note_on_c, 11, 67, 74
1, 32400, Note_on_c, 11, 75, 78
1, 32400, Note_on_c, 12, 58, 87
1, 32400, Note_on_c, 12, 55, 78
1, 32400, Note_on_c, 12, 63, 72
1, 32408, Note_on_c, 1, 36, 0
1, 32439, Note_on_c, 3, 63, 0
1, 32459, Note_on_c, 9, 42, 0
1, 32480, Note_on_c, 9, 70, 0
1, 32486, Note_on_c, 9, 38, 0
1, 32517, Note_on_c, 11, 70, 0
1, 32517, Note_on_c, 11, 67, 0
1, 32517, Note_on_c, 11, 75, 0
1, 32520, Lyric_t, "I've "
1, 32520, Note_on_c, 3, 70, 108
1, 32520, Note_on_c, 9, 42, 52
1, 32520, Note_on_c, 9, 69, 44
1, 32520, Note_on_c, 11, 67, 37
1, 32520, Note_on_c, 11, 70, 32
1, 32520, Note_on_c, 12, 58, 62
1, 32576, Note_on_c, 12, 58, 0
1, 32577, Note_on_c, 9, 42, 0
1, 32586, Note_on_c, 9, 69, 0
1, 32604, Note_on_c, 11, 67, 0
1, 32612, Note_on_c, 11, 70, 0
1, 32631, Note_on_c, 10, 55, 0
1, 32634, Note_on_c, 12, 58, 0
1, 32634, Note_on_c, 12, 55, 0
1, 32634, Note_on_c, 12, 63, 0
1, 32640, Note_on_c, 1, 36, 99
1, 32640, Note_on_c, 9, 36, 108
1, 32640, Note_on_c, 9, 42, 75
1, 32640, Note_on_c, 9, 70, 53
1, 32640, Note_on_c, 10, 55, 96
1, 32640, Note_on_c, 11, 67, 84
1, 32640, Note_on_c, 11, 75, 96
1, 32640, Note_on_c, 11, 70, 90
1, 32640, Note_on_c, 12, 55, 90
1, 32640, Note_on_c, 12, 63, 90
1, 32640, Note_on_c, 12, 58, 84
1, 32692, Note_on_c, 1, 31, 0
1, 32706, Note_on_c, 9, 70, 0
1, 32725, Note_on_c, 9, 42, 0
1, 32760, Note_on_c, 9, 42, 44
1, 32760, Note_on_c, 9, 70, 54
1, 32794, Note_on_c, 9, 42, 0
1, 32839, Note_on_c, 9, 70, 0
1, 32855, Note_on_c, 3, 70, 0
1, 32860, Note_on_c, 10, 55, 0
1, 32865, Note_on_c, 11, 70, 0
1, 32867, Note_on_c, 11, 67, 0
1, 32880, Lyric_t, "got "
1, 32880, Note_on_c, 3, 70, 102
1, 32880, Note_on_c, 9, 42, 66
1, 32880, Note_on_c, 9, 69, 42
1, 32880, Note_on_c, 10, 55, 72
1, 32880, Note_on_c, 11, 70, 68
1, 32880, Note_on_c, 11, 67, 38
1, 32944, Note_on_c, 9, 69, 0
1, 32945, Note_on_c, 9, 42, 0
1, 33000, Note_on_c, 9, 42, 45
1, 33000, Note_on_c, 9, 70, 51
1, 33000, Note_on_c, 12, 58, 27
1, 33014, Note_on_c, 9, 36, 0
1, 33029, Note_on_c, 9, 42, 0
1, 33056, Note_on_c, 9, 70, 0
1, 33058, Note_on_c, 11, 75, 0
1, 33058, Note_on_c, 11, 67, 0
1, 33070, Note_on_c, 11, 70, 0
1, 33071, Note_on_c, 12, 58, 0
1, 33107, Note_on_c, 3, 70, 0
1, 33112, Note_on_c, 12, 55, 0
1, 33112, Note_on_c, 12, 63, 0
1, 33112, Note_on_c, 12, 58, 0
1, 33120, Lyric_t, "a "
1, 33120, Note_on_c, 3, 63, 108
1, 33120, Note_on_c, 9, 38, 108
1, 33120, Note_on_c, 9, 42, 75
1, 33120, Note_on_c, 9, 70, 53
1, 33120, Note_on_c, 10, 53, 72
1, 33120, Note_on_c, 11, 67, 84
1, 33120, Note_on_c, 11, 75, 93
1, 33120, Note_on_c, 11, 70, 87
1, 33120, Note_on_c, 12, 55, 78
1, 33120, Note_on_c, 12, 58, 84
1, 33120, Note_on_c, 12, 63, 90
1, 33127, Note_on_c, 10, 55, 0
1, 33181, Note_on_c, 9, 42, 0
1, 33216, Note_on_c, 9, 70, 0
1, 33240, Note_on_c, 9, 42, 45
1, 33240, Note_on_c, 9, 69, 48
1, 33281, Note_on_c, 9, 42, 0
1, 33283, Note_on_c, 9, 69, 0
1, 33350, Note_on_c, 10, 53, 0
1, 33360, Lyric_t, "plan. "
1, 33360, Lyric_t, "\015"
1, 33360, Note_on_c, 3, 70, 105
1, 33360, Note_on_c, 9, 42, 57
1, 33360, Note_on_c, 9, 70, 50
1, 33360, Note_on_c, 10, 55, 78
1, 33373, Note_on_c, 3, 63, 0
1, 33425, Note_on_c, 9, 70, 0
1, 33426, Note_on_c, 9, 42, 0
1, 33432, Note_on_c, 11, 75, 0
1, 33434, Note_on_c, 11, 67, 0
1, 33441, Note_on_c, 11, 70, 0
1, 33443, Note_on_c, 9, 38, 0
1, 33473, Note_on_c, 12, 55, 0
1, 33473, Note_on_c, 12, 58, 0
1, 33473, Note_on_c, 12, 63, 0
1, 33480, Note_on_c, 9, 36, 105
1, 33480, Note_on_c, 9, 42, 48
1, 33480, Note_on_c, 9, 70, 61
1, 33480, Note_on_c, 11, 67, 84
1, 33480, Note_on_c, 11, 75, 96
1, 33480, Note_on_c, 11, 70, 80
1, 33480, Note_on_c, 12, 55, 87
1, 33480, Note_on_c, 12, 63, 90
1, 33480, Note_on_c, 12, 58, 87
1, 33518, Note_on_c, 9, 42, 0
1, 33541, Note_on_c, 9, 70, 0
1, 33554, Note_on_c, 9, 36, 0
1, 33600, Note_on_c, 9, 42, 78
1, 33600, Note_on_c, 9, 70, 54
1, 33649, Note_on_c, 9, 42, 0
1, 33653, Note_on_c, 1, 36, 0
1, 33668, Note_on_c, 11, 67, 0
1, 33675, Note_on_c, 11, 70, 0
1, 33676, Note_on_c, 3, 70, 0
1, 33680, Note_on_c, 11, 75, 0
1, 33681, Note_on_c, 9, 70, 0
1, 33720, Note_on_c, 1, 36, 76
1, 33720, Note_on_c, 9, 36, 76
1, 33720, Note_on_c, 9, 42, 55
1, 33720, Note_on_c, 9, 69, 35
1, 33720, Note_on_c, 11, 75, 54
1, 33720, Note_on_c, 11, 70, 57
1, 33720, Note_on_c, 11, 67, 62
1, 33720, Note_on_c, 12, 58, 29
1, 33750, Note_on_c, 9, 36, 0
1, 33755, Note_on_c, 9, 42, 0
1, 33771, Note_on_c, 9, 69, 0
1, 33783, Note_on_c, 1, 36, 0
1, 33790, Note_on_c, 11, 75, 0
1, 33791, Note_on_c, 12, 58, 0
1, 33792, Note_on_c, 11, 67, 0
1, 33800, Note_on_c, 11, 70, 0
1, 33819, Note_on_c, 5, 51, 0
1, 33833, Note_on_c, 10, 55, 0
1, 33833, Note_on_c, 12, 55, 0
1, 33833, Note_on_c, 12, 63, 0
1, 33833, Note_on_c, 12, 58, 0
1, 33840, Note_on_c, 1, 36, 102
1, 33840, Note_on_c, 7, 65, 99
1, 33840, Note_on_c, 5, 53, 84
1, 33840, Note_on_c, 8, 65, 108
1, 33840, Note_on_c, 9, 36, 99
1, 33840, Note_on_c, 9, 46, 111
1, 33840, Note_on_c, 9, 70, 53
1, 33840, Note_on_c, 10, 53, 108
1, 33840, Note_on_c, 11, 75, 90
1, 33840, Note_on_c, 11, 67, 93
1, 33840, Note_on_c, 11, 70, 90
1, 33840, Note_on_c, 12, 63, 93
1, 33840, Note_on_c, 12, 55, 90
1, 33840, Note_on_c, 12, 58, 84
1, 33840, Note_on_c, 13, 65, 108
1, 33900, Note_on_c, 9, 70, 0
1, 33960, Note_on_c, 9, 69, 36
1, 33993, Note_on_c, 9, 36, 0
1, 34018, Note_on_c, 9, 69, 0
1, 34059, Note_on_c, 9, 46, 0
1, 34080, Note_on_c, 9, 38, 106
1, 34080, Note_on_c, 9, 42, 49
1, 34080, Note_on_c, 9, 70, 61
1, 34142, Note_on_c, 9, 42, 0
1, 34142, Note_on_c, 9, 70, 0
1, 34145, Note_on_c, 9, 38, 0
1, 34193, Note_on_c, 12, 63, 0
1, 34193, Note_on_c, 12, 55, 0
1, 34193, Note_on_c, 12, 58, 0
1, 34197, Note_on_c, 11, 75, 0
1, 34197, Note_on_c, 11, 67, 0
1, 34197, Note_on_c, 11, 70, 0
1, 34200, Note_on_c, 7, 67, 87
1, 34200, Note_on_c, 5, 55, 82
1, 34200, Note_on_c, 8, 67, 78
1, 34200, Note_on_c, 9, 46, 67
1, 34200, Note_on_c, 9, 38, 84
1, 34200, Note_on_c, 9, 70, 61
1, 34200, Note_on_c, 10, 55, 99
1, 34200, Note_on_c, 11, 75, 72
1, 34200, Note_on_c, 11, 70, 64
1, 34200, Note_on_c, 11, 67, 66
1, 34200, Note_on_c, 12, 58, 51
1, 34200, Note_on_c, 12, 55, 43
1, 34200, Note_on_c, 12, 63, 42
1, 34200, Note_on_c, 13, 67, 78
1, 34211, Note_on_c, 10, 53, 0
1, 34220, Note_on_c, 5, 58, 0
1, 34245, Note_on_c, 7, 65, 0
1, 34251, Note_on_c, 9, 46, 0
1, 34253, Note_on_c, 8, 65, 0
1, 34253, Note_on_c, 13, 65, 0
1, 34258, Note_on_c, 5, 53, 0
1, 34265, Note_on_c, 9, 38, 0
1, 34278, Note_on_c, 9, 70, 0
1, 34315, Note_on_c, 12, 58, 0
1, 34315, Note_on_c, 12, 55, 0
1, 34315, Note_on_c, 12, 63, 0
1, 34317, Note_on_c, 11, 75, 0
1, 34317, Note_on_c, 11, 70, 0
1, 34317, Note_on_c, 11, 67, 0
1, 34320, Note_on_c, 1, 31, 99
1, 34320, Note_on_c, 9, 46, 64
1, 34320, Note_on_c, 9, 45, 93
1, 34320, Note_on_c, 9, 69, 48
1, 34320, Note_on_c, 11, 70, 80
1, 34320, Note_on_c, 11, 67, 74
1, 34320, Note_on_c, 11, 75, 78
1, 34320, Note_on_c, 12, 58, 87
1, 34320, Note_on_c, 12, 55, 78
1, 34320, Note_on_c, 12, 63, 72
1, 34336, Note_on_c, 1, 36, 0
1, 34381, Note_on_c, 9, 69, 0
1, 34382, Note_on_c, 9, 46, 0
1, 34418, Note_on_c, 9, 45, 0
1, 34437, Note_on_c, 11, 70, 0
1, 34437, Note_on_c, 11, 67, 0
1, 34437, Note_on_c, 11, 75, 0
1, 34440, Note_on_c, 9, 46, 58
1, 34440, Note_on_c, 9, 43, 84
1, 34440, Note_on_c, 9, 70, 56
1, 34440, Note_on_c, 11, 67, 37
1, 34440, Note_on_c, 11, 70, 32
1, 34440, Note_on_c, 12, 58, 62
1, 34491, Note_on_c, 9, 46, 0
1, 34496, Note_on_c, 12, 58, 0
1, 34500, Note_on_c, 9, 70, 0
1, 34522, Note_on_c, 9, 43, 0
1, 34524, Note_on_c, 11, 67, 0
1, 34532, Note_on_c, 11, 70, 0
1, 34535, Note_on_c, 10, 55, 0
1, 34554, Note_on_c, 12, 58, 0
1, 34554, Note_on_c, 12, 55, 0
1, 34554, Note_on_c, 12, 63, 0
1, 34560, Note_on_c, 1, 32, 111
1, 34560, Note_on_c, 7, 51, 90
1, 34560, Note_on_c, 7, 56, 76
1, 34560, Note_on_c, 7, 44, 90
1, 34560, Note_on_c, 7, 60, 82
1, 34560, Note_on_c, 7, 63, 84
1, 34560, Note_on_c, 5, 56, 47
1, 34560, Note_on_c, 5, 60, 59
1, 34560, Note_on_c, 8, 63, 84
1, 34560, Note_on_c, 9, 69, 51
1, 34560, Note_on_c, 9, 36, 117
1, 34560, Note_on_c, 9, 49, 90
1, 34560, Note_on_c, 9, 54, 86
1, 34560, Note_on_c, 12, 60, 90
1, 34560, Note_on_c, 12, 56, 99
1, 34560, Note_on_c, 12, 63, 90
1, 34560, Note_on_c, 13, 63, 84
1, 34562, Note_on_c, 7, 67, 0
1, 34577, Note_on_c, 8, 67, 0
1, 34577, Note_on_c, 13, 67, 0
1, 34582, Note_on_c, 5, 55, 0
1, 34600, Control_c, 7, 64, 127
1, 34611, Note_on_c, 9, 54, 0
1, 34614, Note_on_c, 9, 49, 0
1, 34624, Note_on_c, 1, 31, 0
1, 34640, Note_on_c, 9, 69, 0
1, 34680, Note_on_c, 9, 42, 59
1, 34680, Note_on_c, 9, 70, 54
1, 34680, Note_on_c, 9, 54, 23
1, 34710, Note_on_c, 9, 42, 0
1, 34714, Note_on_c, 9, 54, 0
1, 34746, Note_on_c, 7, 63, 0
1, 34773, Note_on_c, 9, 70, 0
1, 34800, Lyric_t, "You're "
1, 34800, Note_on_c, 7, 63, 82
1, 34800, Note_on_c, 3, 75, 111
1, 34800, Note_on_c, 9, 54, 45
1, 34800, Note_on_c, 9, 69, 44
1, 34800, Note_on_c, 9, 42, 55
1, 34800, Note_on_c, 11, 63, 84
1, 34800, Note_on_c, 11, 60, 87
1, 34800, Note_on_c, 11, 70, 96
1, 34800, Note_on_c, 12, 56, 31
1, 34846, Note_on_c, 9, 42, 0
1, 34859, Note_on_c, 9, 54, 0
1, 34873, Note_on_c, 9, 69, 0
1, 34909, Note_on_c, 9, 36, 0
1, 34913, Note_on_c, 12, 56, 0
1, 34920, Note_on_c, 9, 54, 37
1, 34920, Note_on_c, 9, 42, 43
1, 34920, Note_on_c, 9, 70, 56
1, 34945, Note_on_c, 9, 42, 0
1, 34964, Note_on_c, 9, 54, 0
1, 34965, Note_on_c, 7, 51, 0
1, 35022, Note_on_c, 9, 70, 0
1, 35025, Note_on_c, 3, 75, 0
1, 35032, Note_on_c, 12, 60, 0
1, 35032, Note_on_c, 12, 56, 0
1, 35032, Note_on_c, 12, 63, 0
1, 35040, Lyric_t, "beau"
1, 35040, Note_on_c, 3, 82, 105
1, 35040, Note_on_c, 9, 38, 114
1, 35040, Note_on_c, 9, 42, 90
1, 35040, Note_on_c, 9, 69, 32
1, 35040, Note_on_c, 9, 54, 89
1, 35040, Note_on_c, 12, 56, 99
1, 35040, Note_on_c, 12, 63, 96
1, 35096, Note_on_c, 9, 54, 0
1, 35111, Note_on_c, 9, 42, 0
1, 35119, Note_on_c, 9, 69, 0
1, 35153, Note_on_c, 11, 70, 0
1, 35160, Lyric_t, "ti"
1, 35160, Note_on_c, 3, 79, 96
1, 35160, Note_on_c, 9, 42, 54
1, 35160, Note_on_c, 9, 54, 27
1, 35160, Note_on_c, 9, 70, 53
1, 35160, Note_on_c, 11, 70, 66
1, 35170, Note_on_c, 7, 56, 0
1, 35196, Note_on_c, 9, 42, 0
1, 35201, Note_on_c, 3, 82, 0
1, 35204, Note_on_c, 9, 54, 0
1, 35221, Note_on_c, 11, 70, 0
1, 35223, Note_on_c, 11, 60, 0
1, 35235, Note_on_c, 11, 63, 0
1, 35248, Note_on_c, 9, 70, 0
1, 35280, Note_on_c, 7, 51, 47
1, 35280, Note_on_c, 7, 56, 62
1, 35280, Note_on_c, 9, 54, 66
1, 35280, Note_on_c, 9, 69, 45
1, 35280, Note_on_c, 9, 42, 76
1, 35280, Note_on_c, 11, 63, 76
1, 35280, Note_on_c, 11, 60, 68
1, 35280, Note_on_c, 11, 70, 84
1, 35308, Note_on_c, 3, 79, 0
1, 35314, Note_on_c, 1, 32, 0
1, 35325, Note_on_c, 9, 38, 0
1, 35341, Note_on_c, 9, 54, 0
1, 35343, Note_on_c, 9, 42, 0
1, 35346, Note_on_c, 11, 60, 0
1, 35349, Note_on_c, 7, 51, 0
1, 35351, Note_on_c, 9, 69, 0
1, 35355, Note_on_c, 11, 63, 0
1, 35363, Note_on_c, 7, 56, 0
1, 35366, Note_on_c, 11, 70, 0
1, 35368, Note_on_c, 7, 44, 0
1, 35400, Lyric_t, "ful "
1, 35400, Lyric_t, "\015"
1, 35400, Note_on_c, 1, 32, 74
1, 35400, Note_on_c, 3, 79, 105
1, 35400, Note_on_c, 9, 42, 49
1, 35400, Note_on_c, 9, 70, 51
1, 35400, Note_on_c, 9, 54, 37
1, 35400, Note_on_c, 12, 56, 57
1, 35431, Note_on_c, 9, 42, 0
1, 35437, Note_on_c, 9, 54, 0
1, 35468, Note_on_c, 1, 32, 0
1, 35478, Note_on_c, 7, 63, 0
1, 35484, Note_on_c, 7, 60, 0
1, 35484, Note_on_c, 9, 70, 0
1, 35506, Control_c, 7, 64, 0
1, 35511, Control_c, 7, 64, 127
1, 35520, Note_on_c, 1, 34, 87
1, 35520, Note_on_c, 7, 58, 68
1, 35520, Note_on_c, 7, 65, 61
1, 35520, Note_on_c, 7, 46, 90
1, 35520, Note_on_c, 7, 62, 82
1, 35520, Note_on_c, 3, 75, 105
1, 35520, Note_on_c, 5, 58, 59
1, 35520, Note_on_c, 5, 53, 46
1, 35520, Note_on_c, 9, 69, 32
1, 35520, Note_on_c, 9, 36, 105
1, 35520, Note_on_c, 9, 54, 75
1, 35520, Note_on_c, 9, 42, 102
1, 35520, Note_on_c, 11, 62, 78
1, 35520, Note_on_c, 11, 65, 70
1, 35520, Note_on_c, 11, 70, 82
1, 35538, Control_c, 7, 64, 0
1, 35541, Note_on_c, 5, 60, 0
1, 35550, Note_on_c, 12, 56, 0
1, 35566, Note_on_c, 5, 56, 0
1, 35578, Note_on_c, 9, 42, 0
1, 35584, Note_on_c, 9, 54, 0
1, 35592, Note_on_c, 3, 79, 0
1, 35593, Note_on_c, 9, 69, 0
1, 35605, Note_on_c, 8, 63, 0
1, 35605, Note_on_c, 13, 63, 0
1, 35631, Note_on_c, 12, 56, 0
1, 35631, Note_on_c, 12, 63, 0
1, 35640, Note_on_c, 9, 42, 44
1, 35640, Note_on_c, 9, 54, 40
1, 35640, Note_on_c, 9, 70, 41
1, 35640, Note_on_c, 12, 58, 80
1, 35640, Note_on_c, 12, 62, 87
1, 35640, Note_on_c, 12, 65, 87
1, 35656, Control_c, 7, 64, 127
1, 35662, Note_on_c, 9, 36, 0
1, 35667, Note_on_c, 9, 42, 0
1, 35687, Note_on_c, 9, 54, 0
1, 35692, Note_on_c, 7, 65, 0
1, 35698, Note_on_c, 7, 58, 0
1, 35734, Note_on_c, 11, 62, 0
1, 35735, Note_on_c, 7, 62, 0
1, 35737, Note_on_c, 1, 34, 0
1, 35743, Note_on_c, 3, 75, 0
1, 35747, Note_on_c, 9, 70, 0
1, 35759, Note_on_c, 11, 70, 0
1, 35760, Note_on_c, 1, 34, 99
1, 35760, Note_on_c, 7, 58, 76
1, 35760, Note_on_c, 7, 65, 84
1, 35760, Note_on_c, 7, 62, 87
1, 35760, Note_on_c, 9, 69, 44
1, 35760, Note_on_c, 9, 54, 70
1, 35760, Note_on_c, 9, 36, 111
1, 35760, Note_on_c, 9, 42, 74
1, 35760, Note_on_c, 11, 72, 102
1, 35760, Note_on_c, 11, 62, 99
1, 35760, Note_on_c, 12, 58, 61
1, 35820, Note_on_c, 9, 42, 0
1, 35827, Note_on_c, 9, 54, 0
1, 35831, Note_on_c, 9, 69, 0
1, 35880, Note_on_c, 9, 42, 40
1, 35880, Note_on_c, 9, 54, 33
1, 35880, Note_on_c, 9, 70, 51
1, 35914, Note_on_c, 12, 58, 0
1, 35917, Note_on_c, 9, 42, 0
1, 35922, Note_on_c, 9, 54, 0
1, 35954, Note_on_c, 9, 36, 0
1, 35977, Note_on_c, 9, 70, 0
1, 35993, Note_on_c, 12, 58, 0
1, 35993, Note_on_c, 12, 62, 0
1, 35993, Note_on_c, 12, 65, 0
1, 36000, Note_on_c, 9, 69, 33
1, 36000, Note_on_c, 9, 38, 108
1, 36000, Note_on_c, 9, 54, 66
1, 36000, Note_on_c, 9, 42, 93
1, 36000, Note_on_c, 12, 62, 90
1, 36000, Note_on_c, 12, 65, 87
1, 36000, Note_on_c, 12, 58, 105
1, 36063, Note_on_c, 9, 42, 0
1, 36070, Note_on_c, 9, 54, 0
1, 36080, Note_on_c, 9, 69, 0
1, 36098, Note_on_c, 11, 62, 0
1, 36106, Note_on_c, 7, 65, 0
1, 36120, Note_on_c, 7, 63, 64
1, 36120, Note_on_c, 9, 54, 28
1, 36120, Note_on_c, 9, 70, 43
1, 36120, Note_on_c, 9, 42, 43
1, 36120, Note_on_c, 11, 70, 93
1, 36120, Note_on_c, 11, 62, 96
1, 36136, Note_on_c, 11, 72, 0
1, 36147, Note_on_c, 9, 54, 0
1, 36153, Note_on_c, 9, 42, 0
1, 36171, Note_on_c, 7, 58, 0
1, 36194, Note_on_c, 9, 38, 0
1, 36202, Note_on_c, 7, 62, 0
1, 36206, Note_on_c, 9, 70, 0
1, 36228, Note_on_c, 7, 63, 0
1, 36234, Note_on_c, 1, 34, 0
1, 36240, Note_on_c, 1, 38, 102
1, 36240, Note_on_c, 7, 62, 54
1, 36240, Note_on_c, 7, 65, 93
1, 36240, Note_on_c, 7, 58, 76
1, 36240, Note_on_c, 9, 69, 48
1, 36240, Note_on_c, 9, 42, 84
1, 36240, Note_on_c, 9, 54, 78
1, 36285, Note_on_c, 9, 42, 0
1, 36303, Note_on_c, 9, 69, 0
1, 36303, Note_on_c, 9, 54, 0
1, 36353, Note_on_c, 12, 62, 0
1, 36353, Note_on_c, 12, 65, 0
1, 36353, Note_on_c, 12, 58, 0
1, 36360, Note_on_c, 9, 54, 18
1, 36360, Note_on_c, 9, 42, 52
1, 36360, Note_on_c, 9, 70, 56
1, 36360, Note_on_c, 12, 58, 52
1, 36360, Note_on_c, 12, 62, 57
1, 36360, Note_on_c, 12, 65, 48
1, 36374, Control_c, 7, 64, 0
1, 36388, Note_on_c, 9, 42, 0
1, 36399, Note_on_c, 9, 54, 0
1, 36438, Note_on_c, 11, 70, 0
1, 36445, Note_on_c, 11, 62, 0
1, 36449, Note_on_c, 7, 46, 0
1, 36456, Note_on_c, 11, 65, 0
1, 36470, Note_on_c, 9, 70, 0
1, 36475, Note_on_c, 12, 58, 0
1, 36475, Note_on_c, 12, 62, 0
1, 36475, Note_on_c, 12, 65, 0
1, 36480, Note_on_c, 1, 39, 108
1, 36480, Note_on_c, 7, 51, 74
1, 36480, Note_on_c, 7, 39, 84
1, 36480, Note_on_c, 7, 63, 76
1, 36480, Note_on_c, 7, 67, 87
1, 36480, Note_on_c, 7, 58, 82
1, 36480, Note_on_c, 5, 55, 48
1, 36480, Note_on_c, 9, 42, 105
1, 36480, Note_on_c, 9, 36, 111
1, 36480, Note_on_c, 9, 69, 27
1, 36480, Note_on_c, 9, 54, 78
1, 36480, Note_on_c, 11, 67, 44
1, 36480, Note_on_c, 11, 63, 39
1, 36480, Note_on_c, 12, 63, 68
1, 36480, Note_on_c, 12, 58, 84
1, 36480, Note_on_c, 12, 67, 99
1, 36481, Note_on_c, 7, 62, 0
1, 36482, Note_on_c, 5, 53, 0
1, 36496, Note_on_c, 7, 65, 0
1, 36498, Note_on_c, 7, 58, 0
1, 36512, Note_on_c, 1, 38, 0
1, 36519, Note_on_c, 11, 63, 0
1, 36527, Note_on_c, 9, 42, 0
1, 36533, Control_c, 7, 64, 127
1, 36539, Note_on_c, 11, 67, 0
1, 36540, Note_on_c, 9, 54, 0
1, 36566, Note_on_c, 9, 69, 0
1, 36600, Note_on_c, 9, 42, 62
1, 36600, Note_on_c, 9, 70, 45
1, 36600, Note_on_c, 9, 54, 42
1, 36631, Note_on_c, 9, 42, 0
1, 36642, Note_on_c, 9, 54, 0
1, 36682, Note_on_c, 7, 63, 0
1, 36696, Note_on_c, 9, 70, 0
1, 36711, Note_on_c, 9, 36, 0
1, 36720, Lyric_t, "you're "
1, 36720, Note_on_c, 7, 63, 54
1, 36720, Note_on_c, 7, 55, 49
1, 36720, Note_on_c, 3, 75, 111
1, 36720, Note_on_c, 9, 42, 68
1, 36720, Note_on_c, 9, 54, 68
1, 36720, Note_on_c, 9, 69, 33
1, 36720, Note_on_c, 11, 67, 87
1, 36720, Note_on_c, 11, 70, 87
1, 36720, Note_on_c, 11, 63, 84
1, 36720, Note_on_c, 12, 58, 59
1, 36769, Note_on_c, 9, 42, 0
1, 36781, Note_on_c, 9, 54, 0
1, 36785, Note_on_c, 9, 69, 0
1, 36823, Note_on_c, 12, 58, 0
1, 36840, Note_on_c, 9, 54, 33
1, 36840, Note_on_c, 9, 70, 54
1, 36840, Note_on_c, 9, 42, 61
1, 36867, Note_on_c, 9, 42, 0
1, 36879, Note_on_c, 9, 54, 0
1, 36939, Note_on_c, 9, 70, 0
1, 36952, Note_on_c, 12, 63, 0
1, 36952, Note_on_c, 12, 58, 0
1, 36952, Note_on_c, 12, 67, 0
1, 36955, Note_on_c, 3, 75, 0
1, 36960, Lyric_t, "beau"
1, 36960, Note_on_c, 3, 82, 99
1, 36960, Note_on_c, 9, 42, 93
1, 36960, Note_on_c, 9, 69, 39
1, 36960, Note_on_c, 9, 38, 114
1, 36960, Note_on_c, 9, 54, 78
1, 36960, Note_on_c, 12, 63, 82
1, 36960, Note_on_c, 12, 67, 90
1, 36960, Note_on_c, 12, 58, 102
1, 36987, Note_on_c, 7, 63, 0
1, 37008, Note_on_c, 9, 42, 0
1, 37026, Note_on_c, 9, 54, 0
1, 37034, Note_on_c, 9, 69, 0
1, 37080, Lyric_t, "ti"
1, 37080, Note_on_c, 7, 63, 74
1, 37080, Note_on_c, 3, 79, 102
1, 37080, Note_on_c, 9, 42, 58
1, 37080, Note_on_c, 9, 54, 24
1, 37080, Note_on_c, 9, 70, 51
1, 37110, Note_on_c, 9, 42, 0
1, 37123, Note_on_c, 3, 82, 0
1, 37127, Note_on_c, 9, 54, 0
1, 37127, Note_on_c, 11, 70, 0
1, 37133, Note_on_c, 11, 63, 0
1, 37135, Note_on_c, 11, 67, 0
1, 37172, Note_on_c, 7, 51, 0
1, 37175, Note_on_c, 9, 70, 0
1, 37200, Note_on_c, 9, 54, 64
1, 37200, Note_on_c, 9, 42, 66
1, 37200, Note_on_c, 9, 69, 44
1, 37200, Note_on_c, 11, 67, 84
1, 37200, Note_on_c, 11, 70, 90
1, 37200, Note_on_c, 11, 63, 78
1, 37215, Note_on_c, 9, 38, 0
1, 37222, Note_on_c, 3, 79, 0
1, 37255, Note_on_c, 1, 39, 0
1, 37256, Note_on_c, 9, 42, 0
1, 37262, Note_on_c, 9, 69, 0
1, 37283, Note_on_c, 9, 54, 0
1, 37313, Note_on_c, 12, 63, 0
1, 37313, Note_on_c, 12, 67, 0
1, 37313, Note_on_c, 12, 58, 0
1, 37320, Lyric_t, "ful "
1, 37320, Lyric_t, "\015"
1, 37320, Note_on_c, 1, 39, 76
1, 37320, Note_on_c, 3, 79, 105
1, 37320, Note_on_c, 9, 54, 29
1, 37320, Note_on_c, 9, 70, 56
1, 37320, Note_on_c, 9, 36, 105
1, 37320, Note_on_c, 9, 42, 59
1, 37320, Note_on_c, 12, 58, 74
1, 37320, Note_on_c, 12, 67, 82
1, 37357, Note_on_c, 9, 42, 0
1, 37361, Note_on_c, 9, 54, 0
1, 37394, Note_on_c, 1, 39, 0
1, 37408, Note_on_c, 9, 70, 0
1, 37434, Note_on_c, 9, 36, 0
1, 37440, Note_on_c, 1, 39, 93
1, 37440, Note_on_c, 7, 51, 36
1, 37440, Note_on_c, 3, 75, 99
1, 37440, Note_on_c, 9, 42, 87
1, 37440, Note_on_c, 9, 54, 83
1, 37440, Note_on_c, 9, 69, 42
1, 37490, Note_on_c, 11, 70, 0
1, 37500, Note_on_c, 9, 69, 0
1, 37501, Note_on_c, 9, 42, 0
1, 37504, Note_on_c, 9, 54, 0
1, 37512, Note_on_c, 7, 58, 0
1, 37516, Note_on_c, 3, 79, 0
1, 37524, Note_on_c, 11, 63, 0
1, 37526, Note_on_c, 11, 67, 0
1, 37554, Note_on_c, 12, 58, 0
1, 37554, Note_on_c, 12, 67, 0
1, 37560, Note_on_c, 9, 42, 64
1, 37560, Note_on_c, 9, 54, 26
1, 37560, Note_on_c, 9, 70, 54
1, 37560, Note_on_c, 11, 67, 49
1, 37560, Note_on_c, 11, 63, 37
1, 37560, Note_on_c, 12, 58, 66
1, 37560, Note_on_c, 12, 67, 64
1, 37586, Note_on_c, 9, 54, 0
1, 37586, Note_on_c, 11, 63, 0
1, 37592, Note_on_c, 9, 42, 0
1, 37612, Note_on_c, 11, 67, 0
1, 37634, Note_on_c, 1, 39, 0
1, 37636, Note_on_c, 3, 75, 0
1, 37648, Note_on_c, 9, 70, 0
1, 37675, Note_on_c, 12, 58, 0
1, 37675, Note_on_c, 12, 67, 0
1, 37676, Note_on_c, 5, 55, 0
1, 37680, Note_on_c, 1, 39, 99
1, 37680, Note_on_c, 7, 65, 99
1, 37680, Note_on_c, 5, 53, 51
1, 37680, Note_on_c, 8, 65, 99
1, 37680, Note_on_c, 9, 36, 114
1, 37680, Note_on_c, 9, 46, 99
1, 37680, Note_on_c, 9, 54, 78
1, 37680, Note_on_c, 9, 69, 50
1, 37680, Note_on_c, 11, 67, 93
1, 37680, Note_on_c, 11, 63, 90
1, 37680, Note_on_c, 11, 70, 93
1, 37680, Note_on_c, 12, 67, 80
1, 37680, Note_on_c, 12, 58, 87
1, 37680, Note_on_c, 13, 65, 99
1, 37719, Note_on_c, 7, 67, 0
1, 37730, Note_on_c, 7, 63, 0
1, 37736, Note_on_c, 9, 69, 0
1, 37740, Note_on_c, 9, 54, 0
1, 37791, Note_on_c, 9, 46, 0
1, 37800, Note_on_c, 9, 54, 35
1, 37800, Note_on_c, 9, 70, 56
1, 37806, Note_on_c, 9, 36, 0
1, 37837, Note_on_c, 9, 54, 0
1, 37891, Note_on_c, 9, 70, 0
1, 37914, Note_on_c, 12, 67, 0
1, 37914, Note_on_c, 12, 58, 0
1, 37920, Note_on_c, 9, 42, 70
1, 37920, Note_on_c, 9, 69, 41
1, 37920, Note_on_c, 9, 54, 78
1, 37920, Note_on_c, 9, 38, 114
1, 37920, Note_on_c, 12, 58, 99
1, 37920, Note_on_c, 12, 67, 90
1, 37954, Note_on_c, 9, 42, 0
1, 37969, Note_on_c, 9, 69, 0
1, 37984, Note_on_c, 9, 54, 0
1, 38039, Note_on_c, 7, 65, 0
1, 38040, Note_on_c, 7, 67, 96
1, 38040, Note_on_c, 5, 55, 59
1, 38040, Note_on_c, 8, 67, 87
1, 38040, Note_on_c, 9, 54, 27
1, 38040, Note_on_c, 9, 42, 62
1, 38040, Note_on_c, 9, 70, 48
1, 38040, Note_on_c, 13, 67, 87
1, 38054, Note_on_c, 5, 53, 0
1, 38074, Note_on_c, 9, 42, 0
1, 38078, Note_on_c, 8, 65, 0
1, 38078, Note_on_c, 9, 54, 0
1, 38078, Note_on_c, 13, 65, 0
1, 38085, Note_on_c, 11, 63, 0
1, 38086, Note_on_c, 11, 67, 0
1, 38093, Note_on_c, 11, 70, 0
1, 38114, Note_on_c, 9, 38, 0
1, 38137, Note_on_c, 9, 70, 0
1, 38160, Note_on_c, 1, 34, 96
1, 38160, Note_on_c, 9, 36, 90
1, 38160, Note_on_c, 9, 69, 53
1, 38160, Note_on_c, 9, 46, 90
1, 38160, Note_on_c, 9, 54, 78
1, 38160, Note_on_c, 11, 67, 84
1, 38160, Note_on_c, 11, 70, 68
1, 38160, Note_on_c, 11, 63, 84
1, 38171, Note_on_c, 1, 39, 0
1, 38216, Note_on_c, 9, 36, 0
1, 38224, Note_on_c, 9, 54, 0
1, 38231, Note_on_c, 9, 69, 0
1, 38250, Control_c, 7, 64, 0
1, 38271, Note_on_c, 9, 46, 0
1, 38280, Note_on_c, 9, 54, 30
1, 38280, Note_on_c, 12, 58, 52
1, 38300, Note_on_c, 7, 55, 0
1, 38312, Note_on_c, 9, 54, 0
1, 38325, Note_on_c, 7, 51, 0
1, 38339, Note_on_c, 7, 39, 0
1, 38344, Note_on_c, 12, 58, 0
1, 38383, Note_on_c, 11, 63, 0
1, 38387, Note_on_c, 11, 67, 0
1, 38387, Note_on_c, 11, 70, 0
1, 38392, Note_on_c, 12, 58, 0
1, 38392, Note_on_c, 12, 67, 0
1, 38400, Note_on_c, 1, 32, 111
1, 38400, Note_on_c, 7, 44, 87
1, 38400, Note_on_c, 7, 56, 82
1, 38400, Note_on_c, 7, 51, 80
1, 38400, Note_on_c, 7, 60, 82
1, 38400, Note_on_c, 5, 60, 57
1, 38400, Note_on_c, 5, 56, 47
1, 38400, Note_on_c, 8, 63, 93
1, 38400, Note_on_c, 9, 69, 51
1, 38400, Note_on_c, 9, 42, 105
1, 38400, Note_on_c, 9, 54, 89
1, 38400, Note_on_c, 9, 36, 117
1, 38400, Note_on_c, 11, 60, 50
1, 38400, Note_on_c, 11, 63, 58
1, 38400, Note_on_c, 12, 63, 80
1, 38400, Note_on_c, 12, 60, 84
1, 38400, Note_on_c, 12, 56, 102
1, 38400, Note_on_c, 13, 63, 93
1, 38412, Note_on_c, 5, 55, 0
1, 38415, Note_on_c, 7, 67, 0
1, 38425, Note_on_c, 1, 34, 0
1, 38434, Note_on_c, 5, 58, 0
1, 38440, Note_on_c, 8, 67, 0
1, 38440, Note_on_c, 13, 67, 0
1, 38453, Control_c, 7, 64, 127
1, 38453, Note_on_c, 9, 42, 0
1, 38459, Note_on_c, 9, 54, 0
1, 38480, Note_on_c, 9, 69, 0
1, 38520, Note_on_c, 9, 54, 31
1, 38520, Note_on_c, 9, 70, 54
1, 38520, Note_on_c, 9, 42, 80
1, 38562, Note_on_c, 9, 54, 0
1, 38580, Note_on_c, 9, 42, 0
1, 38613, Note_on_c, 9, 70, 0
1, 38615, Note_on_c, 11, 60, 0
1, 38640, Lyric_t, "you're "
1, 38640, Note_on_c, 7, 63, 80
1, 38640, Note_on_c, 3, 75, 117
1, 38640, Note_on_c, 9, 69, 44
1, 38640, Note_on_c, 9, 54, 70
1, 38640, Note_on_c, 9, 42, 59
1, 38640, Note_on_c, 11, 60, 84
1, 38640, Note_on_c, 11, 70, 102
1, 38640, Note_on_c, 12, 56, 55
1, 38698, Note_on_c, 9, 42, 0
1, 38707, Note_on_c, 9, 54, 0
1, 38713, Note_on_c, 9, 69, 0
1, 38749, Note_on_c, 9, 36, 0
1, 38760, Note_on_c, 9, 70, 56
1, 38760, Note_on_c, 9, 42, 59
1, 38760, Note_on_c, 9, 54, 49
1, 38787, Note_on_c, 12, 56, 0
1, 38794, Note_on_c, 9, 42, 0
1, 38796, Note_on_c, 9, 54, 0
1, 38855, Note_on_c, 3, 75, 0
1, 38862, Note_on_c, 9, 70, 0
1, 38872, Note_on_c, 12, 63, 0
1, 38872, Note_on_c, 12, 60, 0
1, 38872, Note_on_c, 12, 56, 0
1, 38880, Lyric_t, "beau"
1, 38880, Note_on_c, 3, 82, 111
1, 38880, Note_on_c, 9, 54, 86
1, 38880, Note_on_c, 9, 42, 105
1, 38880, Note_on_c, 9, 69, 32
1, 38880, Note_on_c, 9, 38, 114
1, 38880, Note_on_c, 12, 56, 80
1, 38880, Note_on_c, 12, 60, 93
1, 38880, Note_on_c, 12, 63, 93
1, 38926, Note_on_c, 7, 51, 0
1, 38931, Note_on_c, 9, 42, 0
1, 38951, Note_on_c, 9, 54, 0
1, 38959, Note_on_c, 9, 69, 0
1, 38969, Note_on_c, 7, 56, 0
1, 38983, Note_on_c, 11, 70, 0
1, 39000, Lyric_t, "ti"
1, 39000, Note_on_c, 3, 79, 102
1, 39000, Note_on_c, 9, 54, 34
1, 39000, Note_on_c, 9, 70, 53
1, 39000, Note_on_c, 9, 42, 34
1, 39025, Note_on_c, 3, 82, 0
1, 39035, Note_on_c, 9, 42, 0
1, 39036, Note_on_c, 9, 54, 0
1, 39088, Note_on_c, 9, 70, 0
1, 39120, Note_on_c, 7, 56, 49
1, 39120, Note_on_c, 7, 51, 55
1, 39120, Note_on_c, 9, 42, 82
1, 39120, Note_on_c, 9, 69, 45
1, 39120, Note_on_c, 9, 54, 72
1, 39120, Note_on_c, 11, 70, 87
1, 39149, Note_on_c, 7, 44, 0
1, 39154, Note_on_c, 1, 32, 0
1, 39165, Note_on_c, 9, 38, 0
1, 39168, Note_on_c, 9, 42, 0
1, 39173, Note_on_c, 7, 51, 0
1, 39174, Note_on_c, 3, 79, 0
1, 39184, Note_on_c, 9, 54, 0
1, 39191, Note_on_c, 9, 69, 0
1, 39220, Note_on_c, 7, 63, 0
1, 39228, Note_on_c, 7, 56, 0
1, 39229, Note_on_c, 11, 60, 0
1, 39240, Lyric_t, "ful "
1, 39240, Note_on_c, 1, 32, 74
1, 39240, Note_on_c, 3, 79, 102
1, 39240, Note_on_c, 9, 54, 43
1, 39240, Note_on_c, 9, 42, 51
1, 39240, Note_on_c, 9, 70, 51
1, 39240, Note_on_c, 12, 60, 42
1, 39240, Note_on_c, 12, 56, 64
1, 39244, Note_on_c, 11, 63, 0
1, 39266, Note_on_c, 9, 42, 0
1, 39270, Note_on_c, 9, 54, 0
1, 39301, Note_on_c, 12, 60, 0
1, 39307, Note_on_c, 7, 60, 0
1, 39308, Note_on_c, 1, 32, 0
1, 39324, Note_on_c, 9, 70, 0
1, 39341, Note_on_c, 11, 70, 0
1, 39360, Note_on_c, 1, 34, 87
1, 39360, Note_on_c, 7, 46, 93
1, 39360, Note_on_c, 7, 65, 76
1, 39360, Note_on_c, 7, 62, 82
1, 39360, Note_on_c, 7, 58, 68
1, 39360, Note_on_c, 5, 58, 56
1, 39360, Note_on_c, 5, 53, 43
1, 39360, Note_on_c, 9, 42, 96
1, 39360, Note_on_c, 9, 69, 32
1, 39360, Note_on_c, 9, 36, 105
1, 39360, Note_on_c, 9, 54, 86
1, 39360, Note_on_c, 11, 62, 84
1, 39360, Note_on_c, 11, 65, 96
1, 39360, Note_on_c, 11, 70, 87
1, 39365, Control_c, 7, 64, 0
1, 39366, Note_on_c, 12, 56, 0
1, 39370, Note_on_c, 5, 60, 0
1, 39389, Note_on_c, 5, 56, 0
1, 39407, Note_on_c, 9, 42, 0
1, 39427, Note_on_c, 9, 54, 0
1, 39432, Note_on_c, 8, 63, 0
1, 39432, Note_on_c, 13, 63, 0
1, 39433, Note_on_c, 9, 69, 0
1, 39471, Note_on_c, 12, 56, 0
1, 39471, Note_on_c, 12, 60, 0
1, 39471, Note_on_c, 12, 63, 0
1, 39480, Note_on_c, 9, 42, 70
1, 39480, Note_on_c, 9, 70, 41
1, 39480, Note_on_c, 9, 54, 43
1, 39480, Note_on_c, 12, 58, 62
1, 39480, Note_on_c, 12, 62, 82
1, 39480, Note_on_c, 12, 65, 70
1, 39483, Control_c, 7, 64, 127
1, 39502, Note_on_c, 9, 36, 0
1, 39511, Note_on_c, 9, 54, 0
1, 39521, Note_on_c, 9, 42, 0
1, 39559, Note_on_c, 3, 79, 0
1, 39563, Note_on_c, 7, 65, 0
1, 39577, Note_on_c, 1, 34, 0
1, 39587, Note_on_c, 9, 70, 0
1, 39592, Note_on_c, 11, 62, 0
1, 39595, Note_on_c, 12, 58, 0
1, 39595, Note_on_c, 12, 62, 0
1, 39595, Note_on_c, 12, 65, 0
1, 39600, Lyric_t, "it's "
1, 39600, Note_on_c, 1, 34, 99
1, 39600, Note_on_c, 7, 65, 93
1, 39600, Note_on_c, 3, 82, 105
1, 39600, Note_on_c, 8, 65, 87
1, 39600, Note_on_c, 9, 69, 44
1, 39600, Note_on_c, 9, 54, 78
1, 39600, Note_on_c, 9, 46, 99
1, 39600, Note_on_c, 9, 36, 111
1, 39600, Note_on_c, 11, 62, 87
1, 39600, Note_on_c, 11, 72, 96
1, 39600, Note_on_c, 12, 62, 58
1, 39600, Note_on_c, 12, 58, 78
1, 39600, Note_on_c, 12, 65, 66
1, 39600, Note_on_c, 13, 65, 87
1, 39616, Note_on_c, 11, 70, 0
1, 39668, Note_on_c, 9, 54, 0
1, 39671, Note_on_c, 9, 69, 0
1, 39678, Note_on_c, 9, 46, 0
1, 39720, Note_on_c, 9, 70, 51
1, 39720, Note_on_c, 9, 54, 36
1, 39747, Note_on_c, 9, 54, 0
1, 39794, Note_on_c, 9, 36, 0
1, 39817, Note_on_c, 9, 70, 0
1, 39834, Note_on_c, 12, 62, 0
1, 39834, Note_on_c, 12, 58, 0
1, 39834, Note_on_c, 12, 65, 0
1, 39840, Note_on_c, 9, 54, 91
1, 39840, Note_on_c, 9, 38, 108
1, 39840, Note_on_c, 9, 42, 76
1, 39840, Note_on_c, 9, 69, 33
1, 39840, Note_on_c, 12, 62, 99
1, 39840, Note_on_c, 12, 65, 90
1, 39840, Note_on_c, 12, 58, 111
1, 39882, Note_on_c, 9, 42, 0
1, 39906, Note_on_c, 9, 54, 0
1, 39920, Note_on_c, 9, 69, 0
1, 39926, Note_on_c, 7, 62, 0
1, 39960, Note_on_c, 9, 70, 43
1, 39960, Note_on_c, 9, 54, 33
1, 39960, Note_on_c, 9, 42, 61
1, 39995, Note_on_c, 9, 42, 0
1, 39996, Note_on_c, 11, 62, 0
1, 40005, Note_on_c, 9, 54, 0
1, 40034, Note_on_c, 9, 38, 0
1, 40035, Note_on_c, 11, 65, 0
1, 40046, Note_on_c, 9, 70, 0
1, 40072, Note_on_c, 11, 72, 0
1, 40074, Note_on_c, 1, 34, 0
1, 40076, Note_on_c, 3, 82, 0
1, 40080, Lyric_t, "true. "
1, 40080, Lyric_t, "\015"
1, 40080, Note_on_c, 1, 38, 102
1, 40080, Note_on_c, 7, 53, 46
1, 40080, Note_on_c, 7, 62, 58
1, 40080, Note_on_c, 3, 75, 108
1, 40080, Note_on_c, 9, 54, 78
1, 40080, Note_on_c, 9, 69, 48
1, 40080, Note_on_c, 9, 42, 90
1, 40080, Note_on_c, 11, 65, 64
1, 40080, Note_on_c, 11, 70, 82
1, 40080, Note_on_c, 11, 62, 76
1, 40125, Note_on_c, 9, 42, 0
1, 40143, Note_on_c, 9, 69, 0
1, 40145, Note_on_c, 9, 54, 0
1, 40200, Note_on_c, 9, 54, 27
1, 40200, Note_on_c, 9, 70, 56
1, 40200, Note_on_c, 9, 42, 68
1, 40200, Note_on_c, 12, 58, 38
1, 40232, Note_on_c, 9, 54, 0
1, 40239, Note_on_c, 9, 42, 0
1, 40240, Note_on_c, 11, 65, 0
1, 40252, Note_on_c, 12, 58, 0
1, 40256, Note_on_c, 7, 65, 0
1, 40257, Note_on_c, 8, 65, 0
1, 40257, Note_on_c, 13, 65, 0
1, 40263, Note_on_c, 7, 46, 0
1, 40263, Note_on_c, 7, 53, 0
1, 40268, Note_on_c, 7, 62, 0
1, 40281, Note_on_c, 11, 62, 0
1, 40283, Note_on_c, 7, 58, 0
1, 40310, Note_on_c, 9, 70, 0
1, 40312, Note_on_c, 12, 62, 0
1, 40312, Note_on_c, 12, 65, 0
1, 40312, Note_on_c, 12, 58, 0
1, 40317, Note_on_c, 5, 53, 0
1, 40320, Note_on_c, 1, 39, 108
1, 40320, Note_on_c, 7, 67, 90
1, 40320, Note_on_c, 7, 58, 84
1, 40320, Note_on_c, 7, 51, 74
1, 40320, Note_on_c, 7, 63, 80
1, 40320, Note_on_c, 7, 39, 87
1, 40320, Note_on_c, 5, 55, 57
1, 40320, Note_on_c, 8, 67, 82
1, 40320, Note_on_c, 9, 36, 117
1, 40320, Note_on_c, 9, 69, 27
1, 40320, Note_on_c, 9, 42, 99
1, 40320, Note_on_c, 9, 54, 86
1, 40320, Note_on_c, 12, 58, 102
1, 40320, Note_on_c, 12, 67, 90
1, 40320, Note_on_c, 12, 63, 90
1, 40320, Note_on_c, 13, 67, 82
1, 40323, Control_c, 7, 64, 0
1, 40352, Note_on_c, 1, 38, 0
1, 40370, Control_c, 7, 64, 127
1, 40376, Note_on_c, 9, 42, 0
1, 40380, Note_on_c, 9, 54, 0
1, 40406, Note_on_c, 9, 69, 0
1, 40420, Note_on_c, 11, 70, 0
1, 40440, Note_on_c, 9, 54, 35
1, 40440, Note_on_c, 9, 42, 66
1, 40440, Note_on_c, 9, 70, 45
1, 40466, Note_on_c, 9, 54, 0
1, 40472, Note_on_c, 9, 42, 0
1, 40536, Note_on_c, 9, 70, 0
1, 40560, Note_on_c, 9, 69, 33
1, 40560, Note_on_c, 9, 42, 82
1, 40560, Note_on_c, 9, 54, 75
1, 40560, Note_on_c, 11, 67, 90
1, 40560, Note_on_c, 11, 70, 87
1, 40560, Note_on_c, 11, 63, 90
1, 40560, Note_on_c, 12, 58, 59
1, 40610, Note_on_c, 9, 42, 0
1, 40620, Note_on_c, 9, 54, 0
1, 40625, Note_on_c, 9, 69, 0
1, 40641, Note_on_c, 9, 36, 0
1, 40680, Note_on_c, 9, 42, 44
1, 40680, Note_on_c, 9, 70, 54
1, 40680, Note_on_c, 9, 54, 25
1, 40704, Note_on_c, 7, 63, 0
1, 40712, Note_on_c, 9, 42, 0
1, 40722, Note_on_c, 9, 54, 0
1, 40737, Note_on_c, 12, 58, 0
1, 40744, Note_on_c, 3, 75, 0
1, 40757, Control_c, 7, 64, 0
1, 40762, Control_c, 7, 64, 127
1, 40779, Note_on_c, 9, 70, 0
1, 40792, Note_on_c, 12, 58, 0
1, 40792, Note_on_c, 12, 67, 0
1, 40792, Note_on_c, 12, 63, 0
1, 40800, Note_on_c, 7, 63, 66
1, 40800, Note_on_c, 7, 55, 44
1, 40800, Note_on_c, 9, 69, 39
1, 40800, Note_on_c, 9, 42, 99
1, 40800, Note_on_c, 9, 54, 83
1, 40800, Note_on_c, 9, 38, 111
1, 40800, Note_on_c, 12, 63, 72
1, 40800, Note_on_c, 12, 58, 102
1, 40800, Note_on_c, 12, 67, 93
1, 40846, Note_on_c, 11, 63, 0
1, 40851, Note_on_c, 9, 42, 0
1, 40855, Note_on_c, 11, 67, 0
1, 40859, Note_on_c, 9, 54, 0
1, 40874, Note_on_c, 9, 69, 0
1, 40920, Note_on_c, 9, 54, 34
1, 40920, Note_on_c, 9, 42, 49
1, 40920, Note_on_c, 9, 70, 51
1, 40921, Note_on_c, 7, 51, 0
1, 40954, Note_on_c, 9, 54, 0
1, 40957, Note_on_c, 9, 42, 0
1, 40982, Note_on_c, 11, 70, 0
1, 41005, Note_on_c, 1, 39, 0
1, 41015, Note_on_c, 9, 70, 0
1, 41024, Note_on_c, 9, 38, 0
1, 41040, Note_on_c, 1, 39, 84
1, 41040, Note_on_c, 9, 54, 81
1, 41040, Note_on_c, 9, 69, 44
1, 41040, Note_on_c, 9, 42, 70
1, 41040, Note_on_c, 11, 70, 74
1, 41040, Note_on_c, 11, 67, 87
1, 41040, Note_on_c, 11, 63, 87
1, 41097, Note_on_c, 9, 42, 0
1, 41101, Note_on_c, 9, 54, 0
1, 41102, Note_on_c, 9, 69, 0
1, 41160, Note_on_c, 9, 42, 52
1, 41160, Note_on_c, 9, 36, 78
1, 41160, Note_on_c, 9, 54, 30
1, 41160, Note_on_c, 9, 70, 56
1, 41160, Note_on_c, 12, 58, 64
1, 41177, Note_on_c, 7, 63, 0
1, 41190, Note_on_c, 9, 54, 0
1, 41192, Note_on_c, 7, 55, 0
1, 41200, Note_on_c, 9, 42, 0
1, 41200, Note_on_c, 9, 36, 0
1, 41234, Note_on_c, 1, 39, 0
1, 41248, Note_on_c, 9, 70, 0
1, 41280, Note_on_c, 1, 39, 90
1, 41280, Note_on_c, 7, 51, 58
1, 41280, Note_on_c, 7, 63, 62
1, 41280, Note_on_c, 7, 55, 43
1, 41280, Note_on_c, 9, 42, 90
1, 41280, Note_on_c, 9, 36, 108
1, 41280, Note_on_c, 9, 69, 42
1, 41280, Note_on_c, 9, 54, 78
1, 41337, Note_on_c, 9, 54, 0
1, 41338, Note_on_c, 12, 58, 0
1, 41339, Note_on_c, 7, 67, 0
1, 41340, Note_on_c, 9, 42, 0
1, 41340, Note_on_c, 9, 69, 0
1, 41374, Note_on_c, 8, 67, 0
1, 41374, Note_on_c, 13, 67, 0
1, 41377, Note_on_c, 7, 55, 0
1, 41378, Note_on_c, 11, 70, 0
1, 41391, Note_on_c, 12, 63, 0
1, 41391, Note_on_c, 12, 58, 0
1, 41391, Note_on_c, 12, 67, 0
1, 41394, Note_on_c, 7, 58, 0
1, 41400, Note_on_c, 9, 42, 54
1, 41400, Note_on_c, 9, 70, 54
1, 41400, Note_on_c, 9, 54, 30
1, 41400, Note_on_c, 12, 58, 66
1, 41400, Note_on_c, 12, 67, 40
1, 41407, Note_on_c, 7, 63, 0
1, 41427, Note_on_c, 9, 54, 0
1, 41436, Note_on_c, 9, 42, 0
1, 41437, Note_on_c, 9, 36, 0
1, 41484, Note_on_c, 11, 63, 0
1, 41488, Note_on_c, 9, 70, 0
1, 41515, Note_on_c, 12, 58, 0
1, 41515, Note_on_c, 12, 67, 0
1, 41517, Note_on_c, 1, 39, 0
1, 41520, Note_on_c, 1, 46, 84
1, 41520, Note_on_c, 7, 65, 108
1, 41520, Note_on_c, 7, 53, 90
1, 41520, Note_on_c, 5, 53, 57
1, 41520, Note_on_c, 8, 65, 93
1, 41520, Note_on_c, 9, 69, 50
1, 41520, Note_on_c, 9, 54, 81
1, 41520, Note_on_c, 9, 36, 99
1, 41520, Note_on_c, 9, 46, 105
1, 41520, Note_on_c, 11, 63, 93
1, 41520, Note_on_c, 11, 70, 99
1, 41520, Note_on_c, 12, 67, 87
1, 41520, Note_on_c, 12, 58, 90
1, 41520, Note_on_c, 12, 63, 90
1, 41520, Note_on_c, 13, 65, 93
1, 41537, Note_on_c, 5, 55, 0
1, 41576, Note_on_c, 9, 69, 0
1, 41576, Note_on_c, 9, 54, 0
1, 41605, Note_on_c, 9, 46, 0
1, 41640, Note_on_c, 9, 54, 30
1, 41640, Note_on_c, 9, 70, 56
1, 41642, Note_on_c, 9, 36, 0
1, 41686, Note_on_c, 9, 54, 0
1, 41731, Note_on_c, 9, 70, 0
1, 41754, Note_on_c, 12, 67, 0
1, 41754, Note_on_c, 12, 58, 0
1, 41754, Note_on_c, 12, 63, 0
1, 41760, Note_on_c, 1, 39, 84
1, 41760, Note_on_c, 9, 54, 81
1, 41760, Note_on_c, 9, 46, 66
1, 41760, Note_on_c, 9, 38, 114
1, 41760, Note_on_c, 9, 69, 41
1, 41760, Note_on_c, 12, 58, 90
1, 41760, Note_on_c, 12, 67, 90
1, 41763, Note_on_c, 1, 46, 0
1, 41790, Note_on_c, 7, 53, 0
1, 41795, Note_on_c, 11, 63, 0
1, 41809, Note_on_c, 9, 69, 0
1, 41810, Note_on_c, 9, 46, 0
1, 41819, Note_on_c, 9, 54, 0
1, 41834, Note_on_c, 11, 70, 0
1, 41866, Note_on_c, 5, 53, 0
1, 41879, Note_on_c, 8, 65, 0
1, 41879, Note_on_c, 13, 65, 0
1, 41880, Note_on_c, 7, 67, 105
1, 41880, Note_on_c, 7, 55, 64
1, 41880, Note_on_c, 5, 55, 62
1, 41880, Note_on_c, 8, 67, 99
1, 41880, Note_on_c, 9, 70, 48
1, 41880, Note_on_c, 9, 54, 24
1, 41880, Note_on_c, 11, 63, 45
1, 41880, Note_on_c, 13, 67, 99
1, 41890, Note_on_c, 7, 65, 0
1, 41918, Note_on_c, 9, 54, 0
1, 41926, Note_on_c, 11, 63, 0
1, 41945, Note_on_c, 11, 67, 0
1, 41966, Note_on_c, 1, 39, 0
1, 41977, Note_on_c, 9, 70, 0
1, 41987, Note_on_c, 9, 38, 0
1, 42000, Lyric_t, "I "
1, 42000, Note_on_c, 1, 39, 93
1, 42000, Note_on_c, 3, 75, 108
1, 42000, Note_on_c, 9, 54, 78
1, 42000, Note_on_c, 9, 69, 53
1, 42000, Note_on_c, 9, 36, 99
1, 42000, Note_on_c, 9, 42, 102
1, 42000, Note_on_c, 11, 67, 78
1, 42000, Note_on_c, 11, 63, 76
1, 42000, Note_on_c, 11, 70, 87
1, 42000, Note_on_c, 12, 58, 74
1, 42040, Note_on_c, 9, 42, 0
1, 42051, Control_c, 7, 64, 0
1, 42054, Note_on_c, 9, 54, 0
1, 42058, Note_on_c, 9, 36, 0
1, 42071, Note_on_c, 9, 69, 0
1, 42096, Note_on_c, 12, 58, 0
1, 42120, Lyric_t, "saw "
1, 42120, Note_on_c, 3, 82, 117
1, 42120, Note_on_c, 9, 42, 66
1, 42120, Note_on_c, 9, 54, 39
1, 42134, Note_on_c, 7, 51, 0
1, 42139, Note_on_c, 3, 75, 0
1, 42153, Note_on_c, 9, 42, 0
1, 42162, Note_on_c, 9, 54, 0
1, 42171, Note_on_c, 7, 39, 0
1, 42199, Note_on_c, 11, 70, 0
1, 42205, Note_on_c, 11, 63, 0
1, 42208, Note_on_c, 11, 67, 0
1, 42209, Note_on_c, 7, 55, 0
1, 42232, Note_on_c, 12, 58, 0
1, 42232, Note_on_c, 12, 67, 0
1, 42240, Note_on_c, 1, 32, 108
1, 42240, Note_on_c, 7, 63, 84
1, 42240, Note_on_c, 7, 44, 96
1, 42240, Note_on_c, 7, 60, 80
1, 42240, Note_on_c, 7, 56, 76
1, 42240, Note_on_c, 5, 60, 57
1, 42240, Note_on_c, 5, 56, 56
1, 42240, Note_on_c, 8, 63, 96
1, 42240, Note_on_c, 9, 42, 96
1, 42240, Note_on_c, 9, 69, 51
1, 42240, Note_on_c, 9, 36, 117
1, 42240, Note_on_c, 9, 54, 89
1, 42240, Note_on_c, 11, 63, 58
1, 42240, Note_on_c, 11, 60, 55
1, 42240, Note_on_c, 12, 60, 90
1, 42240, Note_on_c, 12, 68, 93
1, 42240, Note_on_c, 13, 63, 96
1, 42241, Note_on_c, 5, 55, 0
1, 42245, Note_on_c, 7, 67, 0
1, 42254, Note_on_c, 5, 58, 0
1, 42257, Note_on_c, 1, 39, 0
1, 42290, Note_on_c, 9, 54, 0
1, 42291, Control_c, 7, 64, 127
1, 42294, Note_on_c, 8, 67, 0
1, 42294, Note_on_c, 13, 67, 0
1, 42297, Note_on_c, 9, 42, 0
1, 42320, Note_on_c, 9, 69, 0
1, 42360, Note_on_c, 9, 54, 37
1, 42360, Note_on_c, 9, 70, 54
1, 42360, Note_on_c, 9, 42, 68
1, 42393, Note_on_c, 9, 42, 0
1, 42394, Note_on_c, 9, 54, 0
1, 42441, Note_on_c, 11, 60, 0
1, 42453, Note_on_c, 9, 70, 0
1, 42480, Lyric_t, "your "
1, 42480, Note_on_c, 3, 79, 105
1, 42480, Note_on_c, 9, 42, 78
1, 42480, Note_on_c, 9, 54, 70
1, 42480, Note_on_c, 9, 69, 44
1, 42480, Note_on_c, 11, 60, 93
1, 42480, Note_on_c, 11, 70, 93
1, 42480, Note_on_c, 12, 60, 68
1, 42505, Note_on_c, 3, 82, 0
1, 42512, Note_on_c, 7, 56, 0
1, 42533, Note_on_c, 9, 42, 0
1, 42534, Note_on_c, 9, 54, 0
1, 42553, Note_on_c, 9, 69, 0
1, 42589, Note_on_c, 9, 36, 0
1, 42600, Note_on_c, 7, 56, 32
1, 42600, Note_on_c, 9, 70, 56
1, 42600, Note_on_c, 9, 42, 68
1, 42600, Note_on_c, 9, 54, 32
1, 42633, Note_on_c, 7, 63, 0
1, 42638, Note_on_c, 9, 42, 0
1, 42641, Note_on_c, 12, 60, 0
1, 42658, Note_on_c, 9, 54, 0
1, 42702, Note_on_c, 9, 70, 0
1, 42712, Note_on_c, 12, 60, 0
1, 42712, Note_on_c, 12, 68, 0
1, 42720, Note_on_c, 7, 63, 46
1, 42720, Note_on_c, 7, 51, 44
1, 42720, Note_on_c, 9, 38, 114
1, 42720, Note_on_c, 9, 54, 89
1, 42720, Note_on_c, 9, 42, 105
1, 42720, Note_on_c, 9, 69, 32
1, 42720, Note_on_c, 12, 60, 99
1, 42720, Note_on_c, 12, 63, 84
1, 42720, Note_on_c, 12, 68, 96
1, 42771, Note_on_c, 9, 54, 0
1, 42774, Note_on_c, 9, 42, 0
1, 42799, Note_on_c, 9, 69, 0
1, 42811, Note_on_c, 11, 60, 0
1, 42840, Note_on_c, 9, 42, 64
1, 42840, Note_on_c, 9, 54, 42
1, 42840, Note_on_c, 9, 70, 53
1, 42840, Note_on_c, 11, 60, 40
1, 42878, Note_on_c, 9, 42, 0
1, 42881, Note_on_c, 9, 54, 0
1, 42893, Note_on_c, 11, 60, 0
1, 42910, Note_on_c, 11, 70, 0
1, 42916, Note_on_c, 11, 63, 0
1, 42918, Note_on_c, 7, 51, 0
1, 42928, Note_on_c, 9, 70, 0
1, 42934, Note_on_c, 7, 56, 0
1, 42946, Note_on_c, 3, 79, 0
1, 42960, Lyric_t, "face "
1, 42960, Lyric_t, "\015"
1, 42960, Note_on_c, 7, 56, 26
1, 42960, Note_on_c, 3, 75, 114
1, 42960, Note_on_c, 9, 54, 78
1, 42960, Note_on_c, 9, 69, 45
1, 42960, Note_on_c, 9, 42, 78
1, 42960, Note_on_c, 11, 60, 76
1, 42960, Note_on_c, 11, 63, 80
1, 42960, Note_on_c, 11, 70, 93
1, 42964, Note_on_c, 7, 44, 0
1, 42994, Note_on_c, 8, 63, 0
1, 42994, Note_on_c, 13, 63, 0
1, 43005, Note_on_c, 9, 38, 0
1, 43010, Note_on_c, 9, 42, 0
1, 43013, Note_on_c, 9, 54, 0
1, 43016, Note_on_c, 7, 56, 0
1, 43031, Note_on_c, 9, 69, 0
1, 43056, Note_on_c, 1, 32, 0
1, 43058, Note_on_c, 7, 60, 0
1, 43080, Note_on_c, 1, 32, 76
1, 43080, Note_on_c, 9, 54, 34
1, 43080, Note_on_c, 9, 42, 61
1, 43080, Note_on_c, 9, 70, 51
1, 43080, Note_on_c, 12, 60, 64
1, 43082, Note_on_c, 7, 63, 0
1, 43106, Note_on_c, 11, 63, 0
1, 43109, Note_on_c, 11, 60, 0
1, 43112, Note_on_c, 9, 42, 0
1, 43114, Note_on_c, 9, 54, 0
1, 43164, Note_on_c, 9, 70, 0
1, 43181, Note_on_c, 11, 70, 0
1, 43197, Note_on_c, 12, 60, 0
1, 43200, Note_on_c, 1, 34, 82
1, 43200, Note_on_c, 7, 58, 74
1, 43200, Note_on_c, 7, 46, 93
1, 43200, Note_on_c, 7, 62, 84
1, 43200, Note_on_c, 5, 58, 57
1, 43200, Note_on_c, 5, 53, 48
1, 43200, Note_on_c, 8, 65, 70
1, 43200, Note_on_c, 9, 42, 90
1, 43200, Note_on_c, 9, 69, 32
1, 43200, Note_on_c, 9, 54, 72
1, 43200, Note_on_c, 9, 36, 105
1, 43200, Note_on_c, 11, 65, 87
1, 43200, Note_on_c, 11, 62, 84
1, 43200, Note_on_c, 11, 70, 66
1, 43200, Note_on_c, 13, 65, 70
1, 43201, Control_c, 7, 64, 0
1, 43217, Note_on_c, 1, 32, 0
1, 43223, Note_on_c, 5, 60, 0
1, 43232, Note_on_c, 5, 56, 0
1, 43255, Note_on_c, 9, 54, 0
1, 43257, Note_on_c, 9, 42, 0
1, 43273, Note_on_c, 9, 69, 0
1, 43298, Note_on_c, 3, 75, 0
1, 43308, Control_c, 7, 64, 127
1, 43311, Note_on_c, 12, 60, 0
1, 43311, Note_on_c, 12, 63, 0
1, 43311, Note_on_c, 12, 68, 0
1, 43320, Note_on_c, 9, 42, 38
1, 43320, Note_on_c, 9, 54, 51
1, 43320, Note_on_c, 9, 70, 41
1, 43320, Note_on_c, 12, 62, 74
1, 43320, Note_on_c, 12, 58, 74
1, 43320, Note_on_c, 12, 65, 66
1, 43342, Note_on_c, 9, 36, 0
1, 43357, Note_on_c, 9, 42, 0
1, 43357, Note_on_c, 9, 54, 0
1, 43417, Note_on_c, 1, 34, 0
1, 43420, Note_on_c, 11, 62, 0
1, 43427, Note_on_c, 9, 70, 0
1, 43436, Note_on_c, 11, 70, 0
1, 43440, Note_on_c, 1, 34, 87
1, 43440, Note_on_c, 9, 69, 44
1, 43440, Note_on_c, 9, 54, 81
1, 43440, Note_on_c, 9, 36, 111
1, 43440, Note_on_c, 9, 46, 99
1, 43440, Note_on_c, 11, 72, 105
1, 43440, Note_on_c, 11, 62, 99
1, 43440, Note_on_c, 12, 58, 76
1, 43440, Note_on_c, 12, 62, 76
1, 43463, Note_on_c, 7, 58, 0
1, 43494, Note_on_c, 9, 54, 0
1, 43511, Note_on_c, 9, 69, 0
1, 43524, Note_on_c, 9, 46, 0
1, 43560, Note_on_c, 7, 58, 25
1, 43560, Note_on_c, 9, 54, 26
1, 43560, Note_on_c, 9, 70, 51
1, 43604, Note_on_c, 9, 54, 0
1, 43606, Note_on_c, 7, 62, 0
1, 43618, Note_on_c, 12, 58, 0
1, 43631, Note_on_c, 12, 62, 0
1, 43634, Note_on_c, 9, 36, 0
1, 43657, Note_on_c, 9, 70, 0
1, 43667, Note_on_c, 7, 58, 0
1, 43673, Note_on_c, 12, 62, 0
1, 43673, Note_on_c, 12, 58, 0
1, 43673, Note_on_c, 12, 65, 0
1, 43680, Note_on_c, 7, 53, 55
1, 43680, Note_on_c, 7, 63, 76
1, 43680, Note_on_c, 7, 58, 55
1, 43680, Note_on_c, 9, 54, 78
1, 43680, Note_on_c, 9, 42, 76
1, 43680, Note_on_c, 9, 69, 33
1, 43680, Note_on_c, 9, 38, 108
1, 43680, Note_on_c, 12, 62, 93
1, 43680, Note_on_c, 12, 65, 84
1, 43680, Note_on_c, 12, 58, 102
1, 43730, Note_on_c, 9, 54, 0
1, 43736, Note_on_c, 9, 42, 0
1, 43760, Note_on_c, 9, 69, 0
1, 43800, Note_on_c, 9, 70, 43
1, 43800, Note_on_c, 9, 54, 36
1, 43800, Note_on_c, 9, 42, 64
1, 43833, Note_on_c, 9, 42, 0
1, 43854, Note_on_c, 9, 54, 0
1, 43865, Note_on_c, 11, 62, 0
1, 43874, Note_on_c, 9, 38, 0
1, 43886, Note_on_c, 9, 70, 0
1, 43909, Note_on_c, 1, 34, 0
1, 43920, Lyric_t, "in "
1, 43920, Note_on_c, 1, 38, 87
1, 43920, Note_on_c, 3, 75, 114
1, 43920, Note_on_c, 9, 54, 75
1, 43920, Note_on_c, 9, 42, 96
1, 43920, Note_on_c, 9, 69, 48
1, 43920, Note_on_c, 11, 70, 76
1, 43920, Note_on_c, 11, 62, 72
1, 43926, Note_on_c, 11, 72, 0
1, 43968, Note_on_c, 9, 42, 0
1, 43975, Note_on_c, 9, 54, 0
1, 43983, Note_on_c, 9, 69, 0
1, 43995, Note_on_c, 3, 75, 0
1, 44040, Lyric_t, "a "
1, 44040, Note_on_c, 3, 75, 105
1, 44040, Note_on_c, 9, 70, 56
1, 44040, Note_on_c, 9, 42, 78
1, 44040, Note_on_c, 9, 54, 27
1, 44040, Note_on_c, 12, 58, 54
1, 44053, Note_on_c, 11, 62, 0
1, 44060, Note_on_c, 11, 70, 0
1, 44067, Note_on_c, 11, 65, 0
1, 44074, Note_on_c, 9, 42, 0
1, 44078, Note_on_c, 7, 53, 0
1, 44081, Note_on_c, 7, 46, 0
1, 44083, Note_on_c, 9, 54, 0
1, 44087, Note_on_c, 7, 58, 0
1, 44098, Note_on_c, 7, 63, 0
1, 44102, Note_on_c, 5, 53, 0
1, 44118, Note_on_c, 12, 58, 0
1, 44135, Control_c, 7, 64, 0
1, 44150, Note_on_c, 9, 70, 0
1, 44152, Note_on_c, 12, 62, 0
1, 44152, Note_on_c, 12, 65, 0
1, 44152, Note_on_c, 12, 58, 0
1, 44153, Note_on_c, 3, 75, 0
1, 44158, Note_on_c, 1, 38, 0
1, 44160, Time_signature, 6, 2, 24, 8
1, 44160, Lyric_t, "crowd"
1, 44160, Note_on_c, 1, 39, 111
1, 44160, Note_on_c, 7, 67, 87
1, 44160, Note_on_c, 7, 63, 82
1, 44160, Note_on_c, 7, 58, 82
1, 44160, Note_on_c, 7, 39, 82
1, 44160, Note_on_c, 7, 51, 68
1, 44160, Note_on_c, 3, 82, 111
1, 44160, Note_on_c, 5, 63, 60
1, 44160, Note_on_c, 5, 55, 45
1, 44160, Note_on_c, 8, 67, 76
1, 44160, Note_on_c, 9, 69, 27
1, 44160, Note_on_c, 9, 36, 111
1, 44160, Note_on_c, 9, 42, 99
1, 44160, Note_on_c, 9, 54, 81
1, 44160, Note_on_c, 11, 70, 87
1, 44160, Note_on_c, 11, 67, 90
1, 44160, Note_on_c, 11, 63, 87
1, 44160, Note_on_c, 12, 67, 87
1, 44160, Note_on_c, 12, 63, 96
1, 44160, Note_on_c, 12, 58, 105
1, 44160, Note_on_c, 13, 67, 76
1, 44185, Note_on_c, 8, 65, 0
1, 44185, Note_on_c, 13, 65, 0
1, 44212, Note_on_c, 9, 42, 0
1, 44213, Note_on_c, 9, 54, 0
1, 44224, Note_on_c, 5, 58, 0
1, 44231, Control_c, 7, 64, 127
1, 44246, Note_on_c, 9, 69, 0
1, 44280, Note_on_c, 9, 54, 25
1, 44280, Note_on_c, 9, 70, 45
1, 44280, Note_on_c, 9, 42, 55
1, 44321, Note_on_c, 9, 54, 0
1, 44324, Note_on_c, 9, 42, 0
1, 44355, Note_on_c, 3, 82, 0
1, 44356, Note_on_c, 9, 36, 0
1, 44376, Note_on_c, 9, 70, 0
1, 44393, Note_on_c, 7, 51, 0
1, 44400, Lyric_t, "ed "
1, 44400, Note_on_c, 3, 79, 108
1, 44400, Note_on_c, 9, 54, 72
1, 44400, Note_on_c, 9, 69, 33
1, 44400, Note_on_c, 9, 42, 54
1, 44400, Note_on_c, 12, 58, 32
1, 44413, Note_on_c, 7, 39, 0
1, 44440, Note_on_c, 12, 58, 0
1, 44452, Note_on_c, 9, 54, 0
1, 44457, Note_on_c, 9, 42, 0
1, 44464, Note_on_c, 11, 63, 0
1, 44465, Note_on_c, 9, 69, 0
1, 44495, Note_on_c, 7, 67, 0
1, 44519, Note_on_c, 11, 70, 0
1, 44520, Note_on_c, 9, 70, 54
1, 44520, Note_on_c, 9, 42, 44
1, 44520, Note_on_c, 9, 54, 39
1, 44520, Note_on_c, 11, 63, 43
1, 44520, Note_on_c, 12, 58, 52
1, 44533, Note_on_c, 7, 63, 0
1, 44550, Note_on_c, 9, 54, 0
1, 44559, Note_on_c, 5, 55, 0
1, 44565, Note_on_c, 7, 58, 0
1, 44568, Note_on_c, 9, 42, 0
1, 44570, Note_on_c, 11, 63, 0
1, 44585, Note_on_c, 11, 67, 0
1, 44587, Note_on_c, 12, 58, 0
1, 44619, Note_on_c, 9, 70, 0
1, 44632, Note_on_c, 12, 67, 0
1, 44632, Note_on_c, 12, 63, 0
1, 44632, Note_on_c, 12, 58, 0
1, 44640, Note_on_c, 1, 38, 105
1, 44640, Note_on_c, 7, 65, 82
1, 44640, Note_on_c, 7, 62, 84
1, 44640, Note_on_c, 7, 58, 74
1, 44640, Note_on_c, 7, 38, 87
1, 44640, Note_on_c, 7, 50, 76
1, 44640, Note_on_c, 3, 75, 111
1, 44640, Note_on_c, 5, 62, 60
1, 44640, Note_on_c, 5, 58, 54
1, 44640, Note_on_c, 5, 53, 54
1, 44640, Note_on_c, 8, 65, 82
1, 44640, Note_on_c, 9, 46, 102
1, 44640, Note_on_c, 9, 54, 81
1, 44640, Note_on_c, 9, 69, 39
1, 44640, Note_on_c, 9, 38, 111
1, 44640, Note_on_c, 11, 70, 96
1, 44640, Note_on_c, 11, 65, 90
1, 44640, Note_on_c, 12, 62, 93
1, 44640, Note_on_c, 12, 58, 96
1, 44640, Note_on_c, 12, 65, 87
1, 44640, Note_on_c, 13, 65, 82
1, 44641, Note_on_c, 8, 67, 0
1, 44641, Note_on_c, 13, 67, 0
1, 44648, Note_on_c, 5, 63, 0
1, 44653, Note_on_c, 1, 39, 0
1, 44658, Note_on_c, 3, 79, 0
1, 44668, Control_c, 7, 64, 0
1, 44690, Note_on_c, 9, 54, 0
1, 44714, Note_on_c, 9, 69, 0
1, 44744, Note_on_c, 9, 46, 0
1, 44754, Control_c, 7, 64, 127
1, 44760, Note_on_c, 9, 70, 51
1, 44760, Note_on_c, 9, 54, 36
1, 44809, Note_on_c, 9, 54, 0
1, 44818, Note_on_c, 9, 38, 0
1, 44844, Note_on_c, 7, 62, 0
1, 44854, Note_on_c, 3, 75, 0
1, 44855, Note_on_c, 9, 70, 0
1, 44860, Note_on_c, 7, 65, 0
1, 44865, Note_on_c, 7, 50, 0
1, 44871, Note_on_c, 7, 38, 0
1, 44877, Note_on_c, 7, 58, 0
1, 44880, Lyric_t, "place "
1, 44880, Lyric_t, "\015"
1, 44880, Note_on_c, 3, 75, 108
1, 44880, Note_on_c, 9, 69, 44
1, 44880, Note_on_c, 9, 54, 66
1, 44880, Note_on_c, 9, 46, 102
1, 44936, Note_on_c, 9, 54, 0
1, 44937, Note_on_c, 11, 65, 0
1, 44942, Note_on_c, 9, 69, 0
1, 44958, Note_on_c, 1, 38, 0
1, 44970, Note_on_c, 9, 46, 0
1, 45000, Note_on_c, 1, 38, 87
1, 45000, Note_on_c, 9, 70, 56
1, 45000, Note_on_c, 9, 36, 61
1, 45000, Note_on_c, 9, 54, 26
1, 45000, Note_on_c, 11, 65, 64
1, 45000, Note_on_c, 12, 58, 78
1, 45037, Note_on_c, 9, 54, 0
1, 45038, Note_on_c, 9, 36, 0
1, 45067, Note_on_c, 11, 65, 0
1, 45072, Note_on_c, 11, 70, 0
1, 45088, Note_on_c, 9, 70, 0
1, 45120, Note_on_c, 1, 36, 102
1, 45120, Note_on_c, 7, 55, 66
1, 45120, Note_on_c, 7, 60, 82
1, 45120, Note_on_c, 7, 63, 87
1, 45120, Note_on_c, 7, 48, 80
1, 45120, Note_on_c, 7, 36, 90
1, 45120, Note_on_c, 5, 55, 49
1, 45120, Note_on_c, 5, 60, 62
1, 45120, Note_on_c, 8, 63, 80
1, 45120, Note_on_c, 9, 54, 86
1, 45120, Note_on_c, 9, 36, 111
1, 45120, Note_on_c, 9, 69, 42
1, 45120, Note_on_c, 9, 42, 99
1, 45120, Note_on_c, 11, 70, 80
1, 45120, Note_on_c, 11, 67, 90
1, 45120, Note_on_c, 13, 63, 80
1, 45132, Note_on_c, 12, 58, 0
1, 45137, Note_on_c, 1, 38, 0
1, 45139, Control_c, 7, 64, 0
1, 45150, Note_on_c, 5, 53, 0
1, 45156, Note_on_c, 5, 62, 0
1, 45171, Note_on_c, 8, 65, 0
1, 45171, Note_on_c, 13, 65, 0
1, 45174, Note_on_c, 9, 54, 0
1, 45178, Note_on_c, 5, 58, 0
1, 45179, Note_on_c, 9, 42, 0
1, 45180, Note_on_c, 9, 69, 0
1, 45231, Note_on_c, 12, 62, 0
1, 45231, Note_on_c, 12, 58, 0
1, 45231, Note_on_c, 12, 65, 0
1, 45240, Note_on_c, 9, 54, 27
1, 45240, Note_on_c, 9, 70, 54
1, 45240, Note_on_c, 9, 42, 54
1, 45240, Note_on_c, 12, 60, 80
1, 45240, Note_on_c, 12, 63, 76
1, 45240, Note_on_c, 12, 67, 74
1, 45270, Note_on_c, 9, 54, 0
1, 45281, Note_on_c, 9, 42, 0
1, 45328, Note_on_c, 9, 70, 0
1, 45333, Note_on_c, 9, 36, 0
1, 45355, Note_on_c, 12, 60, 0
1, 45355, Note_on_c, 12, 63, 0
1, 45355, Note_on_c, 12, 67, 0
1, 45357, Note_on_c, 3, 75, 0
1, 45360, Note_on_c, 9, 54, 68
1, 45360, Note_on_c, 9, 42, 84
1, 45360, Note_on_c, 9, 69, 50
1, 45360, Note_on_c, 12, 60, 87
1, 45360, Note_on_c, 12, 67, 93
1, 45360, Note_on_c, 12, 63, 87
1, 45386, Note_on_c, 11, 67, 0
1, 45407, Note_on_c, 9, 42, 0
1, 45412, Note_on_c, 9, 54, 0
1, 45416, Note_on_c, 9, 69, 0
1, 45446, Note_on_c, 11, 70, 0
1, 45480, Note_on_c, 9, 70, 56
1, 45480, Note_on_c, 9, 42, 54
1, 45480, Note_on_c, 9, 54, 23
1, 45480, Note_on_c, 11, 67, 87
1, 45480, Note_on_c, 11, 70, 74
1, 45480, Note_on_c, 11, 63, 74
1, 45517, Note_on_c, 9, 42, 0
1, 45544, Note_on_c, 9, 54, 0
1, 45571, Note_on_c, 9, 70, 0
1, 45592, Note_on_c, 8, 50, 70
1, 45594, Note_on_c, 12, 60, 0
1, 45594, Note_on_c, 12, 67, 0
1, 45594, Note_on_c, 12, 63, 0
1, 45600, Note_on_c, 9, 69, 41
1, 45600, Note_on_c, 9, 38, 111
1, 45600, Note_on_c, 9, 42, 99
1, 45600, Note_on_c, 9, 54, 83
1, 45600, Note_on_c, 12, 60, 93
1, 45600, Note_on_c, 12, 67, 90
1, 45600, Note_on_c, 12, 63, 72
1, 45605, Note_on_c, 8, 63, 0
1, 45614, Note_on_c, 13, 62, 87
1, 45630, Note_on_c, 13, 63, 99
1, 45634, Note_on_c, 8, 51, 68
1, 45649, Note_on_c, 9, 69, 0
1, 45649, Note_on_c, 9, 54, 0
1, 45660, Note_on_c, 8, 50, 0
1, 45667, Note_on_c, 9, 42, 0
1, 45682, Note_on_c, 13, 62, 0
1, 45720, Note_on_c, 9, 70, 48
1, 45720, Note_on_c, 9, 54, 30
1, 45720, Note_on_c, 9, 42, 37
1, 45742, Note_on_c, 9, 38, 0
1, 45752, Note_on_c, 9, 54, 0
1, 45762, Note_on_c, 9, 42, 0
1, 45798, Note_on_c, 11, 63, 0
1, 45808, Note_on_c, 11, 70, 0
1, 45817, Note_on_c, 9, 70, 0
1, 45840, Note_on_c, 9, 42, 84
1, 45840, Note_on_c, 9, 69, 53
1, 45840, Note_on_c, 9, 54, 75
1, 45891, Note_on_c, 9, 42, 0
1, 45892, Note_on_c, 9, 54, 0
1, 45911, Note_on_c, 9, 69, 0
1, 45946, Note_on_c, 1, 36, 0
1, 45960, Note_on_c, 1, 36, 105
1, 45960, Note_on_c, 9, 54, 36
1, 45960, Note_on_c, 9, 42, 42
1, 45960, Note_on_c, 9, 36, 108
1, 45960, Note_on_c, 12, 60, 57
1, 45969, Note_on_c, 13, 63, 0
1, 45971, Note_on_c, 13, 70, 102
1, 45985, Note_on_c, 9, 54, 0
1, 45988, Note_on_c, 9, 42, 0
1, 46013, Note_on_c, 12, 60, 0
1, 46028, Note_on_c, 13, 63, 0
1, 46063, Note_on_c, 8, 51, 0
1, 46071, Note_on_c, 9, 36, 0
1, 46072, Note_on_c, 12, 60, 0
1, 46072, Note_on_c, 12, 67, 0
1, 46072, Note_on_c, 12, 63, 0
1, 46080, Note_on_c, 7, 48, 62
1, 46080, Note_on_c, 7, 62, 74
1, 46080, Note_on_c, 7, 36, 76
1, 46080, Note_on_c, 9, 42, 87
1, 46080, Note_on_c, 9, 54, 78
1, 46080, Note_on_c, 9, 69, 27
1, 46080, Note_on_c, 12, 60, 84
1, 46080, Note_on_c, 12, 67, 87
1, 46089, Note_on_c, 7, 48, 0
1, 46096, Note_on_c, 7, 36, 0
1, 46101, Note_on_c, 7, 60, 0
1, 46103, Note_on_c, 7, 63, 0
1, 46103, Note_on_c, 8, 50, 47
1, 46106, Note_on_c, 7, 55, 0
1, 46121, Note_on_c, 8, 51, 64
1, 46135, Note_on_c, 9, 42, 0
1, 46138, Note_on_c, 9, 54, 0
1, 46159, Note_on_c, 8, 50, 0
1, 46166, Note_on_c, 9, 69, 0
1, 46174, Note_on_c, 1, 36, 0
1, 46200, Note_on_c, 1, 36, 87
1, 46200, Note_on_c, 7, 63, 74
1, 46200, Control_c, 7, 64, 127
1, 46200, Note_on_c, 9, 36, 82
1, 46200, Note_on_c, 9, 70, 45
1, 46200, Note_on_c, 9, 42, 51
1, 46200, Note_on_c, 9, 54, 38
1, 46200, Note_on_c, 11, 63, 44
1, 46200, Note_on_c, 11, 70, 51
1, 46232, Note_on_c, 9, 54, 0
1, 46237, Note_on_c, 9, 36, 0
1, 46238, Note_on_c, 9, 42, 0
1, 46249, Note_on_c, 1, 36, 0
1, 46294, Note_on_c, 11, 63, 0
1, 46296, Note_on_c, 9, 70, 0
1, 46320, Note_on_c, 1, 36, 99
1, 46320, Note_on_c, 7, 70, 90
1, 46320, Note_on_c, 9, 54, 70
1, 46320, Note_on_c, 9, 69, 33
1, 46320, Note_on_c, 9, 42, 74
1, 46320, Note_on_c, 9, 36, 108
1, 46349, Note_on_c, 11, 70, 0
1, 46371, Note_on_c, 9, 54, 0
1, 46374, Note_on_c, 9, 42, 0
1, 46385, Note_on_c, 9, 69, 0
1, 46397, Note_on_c, 7, 48, 0
1, 46418, Note_on_c, 7, 62, 0
1, 46440, Note_on_c, 9, 54, 33
1, 46440, Note_on_c, 9, 70, 54
1, 46440, Note_on_c, 9, 42, 59
1, 46440, Note_on_c, 11, 63, 29
1, 46457, Note_on_c, 9, 36, 0
1, 46465, Note_on_c, 11, 63, 0
1, 46474, Note_on_c, 9, 54, 0
1, 46478, Note_on_c, 9, 42, 0
1, 46535, Note_on_c, 11, 67, 0
1, 46539, Note_on_c, 9, 70, 0
1, 46552, Note_on_c, 12, 60, 0
1, 46552, Note_on_c, 12, 67, 0
1, 46560, Note_on_c, 7, 48, 55
1, 46560, Note_on_c, 9, 54, 83
1, 46560, Note_on_c, 9, 69, 39
1, 46560, Note_on_c, 9, 38, 114
1, 46560, Note_on_c, 9, 46, 105
1, 46560, Note_on_c, 11, 67, 51
1, 46560, Note_on_c, 11, 63, 70
1, 46560, Note_on_c, 11, 70, 93
1, 46560, Note_on_c, 12, 60, 90
1, 46560, Note_on_c, 12, 67, 93
1, 46611, Note_on_c, 9, 54, 0
1, 46628, Note_on_c, 9, 46, 0
1, 46634, Note_on_c, 9, 69, 0
1, 46680, Note_on_c, 9, 70, 51
1, 46680, Note_on_c, 9, 54, 33
1, 46691, Note_on_c, 7, 63, 0
1, 46701, Note_on_c, 9, 38, 0
1, 46721, Note_on_c, 9, 54, 0
1, 46775, Note_on_c, 9, 70, 0
1, 46785, Note_on_c, 1, 36, 0
1, 46800, Lyric_t, "and "
1, 46800, Note_on_c, 1, 31, 102
1, 46800, Note_on_c, 7, 60, 68
1, 46800, Note_on_c, 3, 72, 111
1, 46800, Note_on_c, 9, 42, 82
1, 46800, Note_on_c, 9, 69, 44
1, 46800, Note_on_c, 9, 54, 68
1, 46800, Note_on_c, 9, 36, 96
1, 46832, Note_on_c, 7, 70, 0
1, 46848, Note_on_c, 11, 63, 0
1, 46852, Note_on_c, 9, 54, 0
1, 46854, Note_on_c, 9, 36, 0
1, 46858, Note_on_c, 9, 42, 0
1, 46862, Note_on_c, 9, 69, 0
1, 46866, Note_on_c, 11, 67, 0
1, 46903, Control_c, 7, 64, 0
1, 46918, Note_on_c, 3, 72, 0
1, 46920, Lyric_t, "I "
1, 46920, Note_on_c, 7, 62, 64
1, 46920, Note_on_c, 3, 74, 108
1, 46920, Note_on_c, 9, 70, 56
1, 46920, Note_on_c, 9, 42, 82
1, 46920, Note_on_c, 9, 54, 42
1, 46920, Note_on_c, 11, 67, 55
1, 46920, Note_on_c, 12, 60, 50
1, 46923, Note_on_c, 7, 60, 0
1, 46925, Note_on_c, 11, 70, 0
1, 46952, Note_on_c, 9, 42, 0
1, 46958, Note_on_c, 9, 54, 0
1, 46959, Note_on_c, 12, 60, 0
1, 46966, Note_on_c, 13, 70, 0
1, 46969, Note_on_c, 11, 67, 0
1, 46974, Note_on_c, 7, 48, 0
1, 46975, Note_on_c, 7, 36, 0
1, 47002, Note_on_c, 7, 62, 0
1, 47008, Note_on_c, 9, 70, 0
1, 47022, Note_on_c, 5, 55, 0
1, 47038, Note_on_c, 5, 60, 0
1, 47040, Time_signature, 4, 2, 24, 8
1, 47040, Lyric_t, "don't "
1, 47040, Note_on_c, 1, 32, 111
1, 47040, Note_on_c, 7, 63, 84
1, 47040, Note_on_c, 7, 44, 90
1, 47040, Note_on_c, 7, 60, 78
1, 47040, Note_on_c, 3, 75, 117
1, 47040, Note_on_c, 5, 60, 52
1, 47040, Note_on_c, 5, 56, 51
1, 47040, Note_on_c, 9, 36, 111
1, 47040, Note_on_c, 9, 54, 86
1, 47040, Note_on_c, 9, 42, 102
1, 47040, Note_on_c, 9, 69, 51
1, 47040, Note_on_c, 11, 63, 57
1, 47040, Note_on_c, 11, 60, 54
1, 47040, Note_on_c, 12, 63, 82
1, 47040, Note_on_c, 12, 60, 87
1, 47040, Note_on_c, 12, 56, 108
1, 47049, Note_on_c, 3, 74, 0
1, 47053, Note_on_c, 1, 31, 0
1, 47085, Note_on_c, 8, 51, 0
1, 47088, Control_c, 7, 64, 127
1, 47096, Note_on_c, 9, 54, 0
1, 47096, Note_on_c, 9, 42, 0
1, 47120, Note_on_c, 9, 69, 0
1, 47160, Note_on_c, 9, 70, 54
1, 47160, Note_on_c, 9, 54, 39
1, 47160, Note_on_c, 9, 42, 76
1, 47193, Note_on_c, 9, 42, 0
1, 47196, Note_on_c, 9, 54, 0
1, 47199, Note_on_c, 11, 60, 0
1, 47230, Note_on_c, 12, 56, 0
1, 47246, Note_on_c, 9, 36, 0
1, 47253, Note_on_c, 9, 70, 0
1, 47256, Note_on_c, 3, 75, 0
1, 47280, Lyric_t, "know "
1, 47280, Note_on_c, 7, 60, 45
1, 47280, Note_on_c, 3, 79, 108
1, 47280, Note_on_c, 9, 54, 61
1, 47280, Note_on_c, 9, 69, 44
1, 47280, Note_on_c, 9, 42, 84
1, 47280, Note_on_c, 11, 60, 49
1, 47280, Note_on_c, 12, 56, 64
1, 47287, Note_on_c, 7, 60, 0
1, 47331, Note_on_c, 9, 42, 0
1, 47332, Note_on_c, 9, 54, 0
1, 47353, Note_on_c, 9, 69, 0
1, 47400, Note_on_c, 9, 54, 30
1, 47400, Note_on_c, 9, 42, 70
1, 47400, Note_on_c, 9, 70, 56
1, 47424, Note_on_c, 12, 56, 0
1, 47433, Note_on_c, 9, 42, 0
1, 47450, Note_on_c, 9, 54, 0
1, 47457, Note_on_c, 11, 63, 0
1, 47470, Note_on_c, 11, 60, 0
1, 47481, Note_on_c, 12, 60, 0
1, 47493, Control_c, 7, 64, 0
1, 47499, Control_c, 7, 64, 127
1, 47502, Note_on_c, 9, 70, 0
1, 47504, Note_on_c, 3, 79, 0
1, 47507, Note_on_c, 12, 60, 0
1, 47507, Note_on_c, 12, 67, 0
1, 47520, Note_on_c, 7, 56, 66
1, 47520, Note_on_c, 7, 70, 90
1, 47520, Note_on_c, 3, 77, 99
1, 47520, Note_on_c, 8, 70, 87
1, 47520, Note_on_c, 9, 38, 111
1, 47520, Note_on_c, 9, 69, 32
1, 47520, Note_on_c, 9, 42, 102
1, 47520, Note_on_c, 9, 54, 78
1, 47520, Note_on_c, 11, 63, 87
1, 47520, Note_on_c, 11, 60, 90
1, 47520, Note_on_c, 11, 70, 96
1, 47520, Note_on_c, 12, 60, 76
1, 47520, Note_on_c, 12, 56, 90
1, 47520, Note_on_c, 12, 68, 93
1, 47520, Note_on_c, 13, 70, 87
1, 47558, Note_on_c, 7, 60, 0
1, 47575, Note_on_c, 9, 42, 0
1, 47576, Note_on_c, 9, 54, 0
1, 47599, Note_on_c, 9, 69, 0
1, 47640, Note_on_c, 9, 70, 53
1, 47640, Note_on_c, 9, 54, 27
1, 47640, Note_on_c, 9, 42, 37
1, 47677, Note_on_c, 9, 42, 0
1, 47679, Note_on_c, 9, 54, 0
1, 47687, Note_on_c, 9, 38, 0
1, 47695, Note_on_c, 3, 77, 0
1, 47710, Note_on_c, 7, 56, 0
1, 47727, Note_on_c, 7, 70, 0
1, 47728, Note_on_c, 9, 70, 0
1, 47760, Lyric_t, "what "
1, 47760, Note_on_c, 7, 60, 51
1, 47760, Note_on_c, 7, 51, 57
1, 47760, Note_on_c, 3, 77, 111
1, 47760, Note_on_c, 9, 42, 84
1, 47760, Note_on_c, 9, 69, 45
1, 47760, Note_on_c, 9, 54, 68
1, 47783, Note_on_c, 7, 63, 0
1, 47806, Note_on_c, 7, 60, 0
1, 47809, Note_on_c, 9, 54, 0
1, 47813, Note_on_c, 9, 42, 0
1, 47819, Note_on_c, 11, 60, 0
1, 47831, Note_on_c, 9, 69, 0
1, 47850, Note_on_c, 7, 44, 0
1, 47880, Note_on_c, 9, 54, 40
1, 47880, Note_on_c, 9, 70, 51
1, 47880, Note_on_c, 9, 42, 70
1, 47880, Note_on_c, 11, 60, 36
1, 47880, Note_on_c, 12, 56, 55
1, 47880, Note_on_c, 12, 60, 34
1, 47908, Note_on_c, 12, 60, 0
1, 47913, Note_on_c, 9, 42, 0
1, 47917, Note_on_c, 9, 54, 0
1, 47957, Note_on_c, 11, 60, 0
1, 47964, Note_on_c, 7, 51, 0
1, 47964, Note_on_c, 9, 70, 0
1, 47983, Note_on_c, 11, 63, 0
1, 47991, Control_c, 7, 64, 0
1, 47994, Note_on_c, 1, 32, 0
1, 47995, Note_on_c, 12, 56, 0
1, 47996, Note_on_c, 5, 56, 0
1, 48000, Note_on_c, 1, 34, 102
1, 48000, Note_on_c, 7, 62, 82
1, 48000, Note_on_c, 7, 46, 84
1, 48000, Note_on_c, 7, 65, 87
1, 48000, Note_on_c, 5, 53, 47
1, 48000, Note_on_c, 5, 58, 68
1, 48000, Note_on_c, 9, 54, 89
1, 48000, Note_on_c, 9, 69, 32
1, 48000, Note_on_c, 9, 36, 108
1, 48000, Note_on_c, 9, 42, 99
1, 48027, Note_on_c, 5, 60, 0
1, 48031, Note_on_c, 12, 63, 0
1, 48052, Note_on_c, 9, 54, 0
1, 48072, Note_on_c, 9, 42, 0
1, 48073, Note_on_c, 9, 69, 0
1, 48100, Control_c, 7, 64, 127
1, 48111, Note_on_c, 12, 60, 0
1, 48111, Note_on_c, 12, 56, 0
1, 48111, Note_on_c, 12, 68, 0
1, 48120, Note_on_c, 9, 70, 41
1, 48120, Note_on_c, 9, 42, 34
1, 48120, Note_on_c, 9, 54, 18
1, 48120, Note_on_c, 12, 58, 72
1, 48120, Note_on_c, 12, 62, 76
1, 48120, Note_on_c, 12, 65, 74
1, 48141, Note_on_c, 9, 36, 0
1, 48146, Note_on_c, 9, 54, 0
1, 48163, Note_on_c, 9, 42, 0
1, 48173, Note_on_c, 11, 70, 0
1, 48215, Note_on_c, 1, 34, 0
1, 48223, Note_on_c, 3, 77, 0
1, 48227, Note_on_c, 9, 70, 0
1, 48240, Lyric_t, "to "
1, 48240, Note_on_c, 1, 34, 96
1, 48240, Note_on_c, 7, 58, 52
1, 48240, Note_on_c, 3, 74, 114
1, 48240, Note_on_c, 9, 42, 84
1, 48240, Note_on_c, 9, 54, 68
1, 48240, Note_on_c, 9, 69, 44
1, 48240, Note_on_c, 9, 36, 108
1, 48240, Note_on_c, 11, 65, 87
1, 48240, Note_on_c, 11, 62, 87
1, 48240, Note_on_c, 11, 70, 87
1, 48240, Note_on_c, 12, 58, 84
1, 48288, Note_on_c, 9, 54, 0
1, 48306, Note_on_c, 9, 42, 0
1, 48311, Note_on_c, 9, 69, 0
1, 48316, Note_on_c, 8, 70, 0
1, 48316, Note_on_c, 13, 70, 0
1, 48355, Note_on_c, 7, 62, 0
1, 48360, Note_on_c, 9, 42, 59
1, 48360, Note_on_c, 9, 70, 51
1, 48360, Note_on_c, 9, 54, 45
1, 48367, Note_on_c, 9, 36, 0
1, 48392, Note_on_c, 7, 58, 0
1, 48404, Note_on_c, 9, 54, 0
1, 48406, Note_on_c, 9, 42, 0
1, 48433, Note_on_c, 12, 58, 0
1, 48457, Note_on_c, 9, 70, 0
1, 48473, Note_on_c, 12, 58, 0
1, 48473, Note_on_c, 12, 62, 0
1, 48473, Note_on_c, 12, 65, 0
1, 48480, Note_on_c, 7, 62, 74
1, 48480, Note_on_c, 7, 53, 78
1, 48480, Note_on_c, 3, 72, 105
1, 48480, Note_on_c, 8, 58, 82
1, 48480, Note_on_c, 9, 38, 114
1, 48480, Note_on_c, 9, 42, 90
1, 48480, Note_on_c, 9, 69, 33
1, 48480, Note_on_c, 9, 54, 83
1, 48480, Note_on_c, 12, 62, 68
1, 48480, Note_on_c, 12, 65, 78
1, 48480, Note_on_c, 12, 58, 99
1, 48480, Note_on_c, 13, 62, 82
1, 48514, Note_on_c, 3, 74, 0
1, 48522, Note_on_c, 11, 62, 0
1, 48533, Note_on_c, 9, 54, 0
1, 48536, Note_on_c, 11, 65, 0
1, 48540, Note_on_c, 9, 42, 0
1, 48560, Note_on_c, 9, 69, 0
1, 48576, Note_on_c, 11, 70, 0
1, 48600, Note_on_c, 8, 60, 44
1, 48600, Note_on_c, 9, 54, 44
1, 48600, Note_on_c, 9, 42, 72
1, 48600, Note_on_c, 9, 70, 43
1, 48600, Note_on_c, 11, 65, 31
1, 48600, Note_on_c, 11, 62, 50
1, 48600, Note_on_c, 13, 63, 44
1, 48645, Note_on_c, 8, 58, 0
1, 48645, Note_on_c, 13, 62, 0
1, 48647, Note_on_c, 9, 54, 0
1, 48654, Note_on_c, 9, 42, 0
1, 48664, Note_on_c, 9, 38, 0
1, 48672, Note_on_c, 7, 46, 0
1, 48679, Note_on_c, 1, 34, 0
1, 48682, Note_on_c, 11, 62, 0
1, 48686, Note_on_c, 9, 70, 0
1, 48696, Note_on_c, 3, 72, 0
1, 48710, Note_on_c, 7, 62, 0
1, 48720, Lyric_t, "do "
1, 48720, Lyric_t, "\015"
1, 48720, Note_on_c, 1, 34, 68
1, 48720, Note_on_c, 7, 60, 49
1, 48720, Note_on_c, 3, 72, 111
1, 48720, Note_on_c, 8, 62, 64
1, 48720, Note_on_c, 9, 69, 48
1, 48720, Note_on_c, 9, 54, 70
1, 48720, Note_on_c, 9, 46, 96
1, 48720, Note_on_c, 11, 70, 84
1, 48720, Note_on_c, 11, 62, 82
1, 48720, Note_on_c, 13, 65, 64
1, 48725, Note_on_c, 8, 60, 0
1, 48725, Note_on_c, 13, 63, 0
1, 48770, Note_on_c, 9, 54, 0
1, 48780, Note_on_c, 9, 46, 0
1, 48783, Note_on_c, 9, 69, 0
1, 48818, Note_on_c, 7, 60, 0
1, 48838, Note_on_c, 1, 34, 0
1, 48839, Note_on_c, 8, 62, 0
1, 48839, Note_on_c, 13, 65, 0
1, 48840, Note_on_c, 1, 36, 76
1, 48840, Note_on_c, 7, 62, 61
1, 48840, Note_on_c, 8, 60, 61
1, 48840, Note_on_c, 9, 70, 56
1, 48840, Note_on_c, 9, 54, 35
1, 48840, Note_on_c, 12, 58, 47
1, 48840, Note_on_c, 13, 63, 61
1, 48844, Note_on_c, 7, 65, 0
1, 48844, Control_c, 7, 64, 0
1, 48871, Note_on_c, 11, 70, 0
1, 48874, Note_on_c, 7, 53, 0
1, 48886, Note_on_c, 9, 54, 0
1, 48891, Note_on_c, 12, 58, 0
1, 48899, Note_on_c, 11, 62, 0
1, 48909, Note_on_c, 11, 65, 0
1, 48922, Note_on_c, 1, 36, 0
1, 48929, Note_on_c, 8, 60, 0
1, 48929, Note_on_c, 13, 63, 0
1, 48943, Note_on_c, 7, 62, 0
1, 48950, Note_on_c, 5, 53, 0
1, 48950, Note_on_c, 9, 70, 0
1, 48952, Note_on_c, 12, 62, 0
1, 48952, Note_on_c, 12, 65, 0
1, 48952, Note_on_c, 12, 58, 0
1, 48953, Note_on_c, 5, 58, 0
1, 48960, Note_on_c, 1, 36, 108
1, 48960, Note_on_c, 7, 48, 78
1, 48960, Note_on_c, 7, 36, 102
1, 48960, Note_on_c, 7, 63, 87
1, 48960, Note_on_c, 7, 60, 84
1, 48960, Note_on_c, 5, 55, 64
1, 48960, Note_on_c, 5, 60, 72
1, 48960, Note_on_c, 9, 69, 27
1, 48960, Note_on_c, 9, 42, 105
1, 48960, Note_on_c, 9, 54, 83
1, 48960, Note_on_c, 9, 36, 111
1, 48960, Note_on_c, 12, 63, 82
1, 48960, Note_on_c, 12, 67, 87
1, 48960, Note_on_c, 12, 60, 93
1, 49011, Note_on_c, 9, 54, 0
1, 49015, Note_on_c, 9, 42, 0
1, 49046, Note_on_c, 9, 69, 0
1, 49057, Control_c, 7, 64, 127
1, 49080, Note_on_c, 9, 54, 40
1, 49080, Note_on_c, 9, 42, 61
1, 49080, Note_on_c, 9, 70, 45
1, 49116, Note_on_c, 9, 42, 0
1, 49121, Note_on_c, 9, 54, 0
1, 49155, Note_on_c, 9, 36, 0
1, 49176, Note_on_c, 9, 70, 0
1, 49200, Note_on_c, 7, 55, 51
1, 49200, Note_on_c, 8, 55, 57
1, 49200, Note_on_c, 9, 54, 64
1, 49200, Note_on_c, 9, 42, 84
1, 49200, Note_on_c, 9, 69, 33
1, 49200, Note_on_c, 11, 63, 33
1, 49200, Note_on_c, 11, 67, 37
1, 49200, Note_on_c, 12, 60, 51
1, 49200, Note_on_c, 13, 55, 57
1, 49249, Note_on_c, 9, 54, 0
1, 49256, Note_on_c, 9, 42, 0
1, 49265, Note_on_c, 9, 69, 0
1, 49320, Note_on_c, 9, 70, 54
1, 49320, Note_on_c, 9, 42, 43
1, 49320, Note_on_c, 9, 54, 35
1, 49357, Note_on_c, 3, 72, 0
1, 49357, Note_on_c, 9, 54, 0
1, 49359, Note_on_c, 9, 42, 0
1, 49374, Note_on_c, 11, 63, 0
1, 49380, Note_on_c, 7, 63, 0
1, 49405, Note_on_c, 12, 60, 0
1, 49419, Note_on_c, 9, 70, 0
1, 49432, Note_on_c, 12, 63, 0
1, 49432, Note_on_c, 12, 67, 0
1, 49432, Note_on_c, 12, 60, 0
1, 49440, Note_on_c, 7, 63, 55
1, 49440, Note_on_c, 8, 63, 105
1, 49440, Note_on_c, 9, 38, 114
1, 49440, Note_on_c, 9, 42, 93
1, 49440, Note_on_c, 9, 69, 39
1, 49440, Note_on_c, 9, 54, 83
1, 49440, Note_on_c, 11, 63, 90
1, 49440, Note_on_c, 11, 70, 93
1, 49440, Note_on_c, 12, 60, 93
1, 49440, Note_on_c, 12, 67, 102
1, 49440, Note_on_c, 13, 63, 105
1, 49447, Note_on_c, 8, 55, 0
1, 49447, Note_on_c, 13, 55, 0
1, 49487, Note_on_c, 9, 54, 0
1, 49499, Note_on_c, 9, 42, 0
1, 49514, Note_on_c, 9, 69, 0
1, 49560, Note_on_c, 9, 54, 26
1, 49560, Note_on_c, 9, 70, 51
1, 49560, Note_on_c, 9, 42, 59
1, 49571, Note_on_c, 9, 38, 0
1, 49583, Note_on_c, 9, 54, 0
1, 49606, Note_on_c, 9, 42, 0
1, 49655, Note_on_c, 9, 70, 0
1, 49680, Note_on_c, 8, 62, 102
1, 49680, Note_on_c, 9, 54, 70
1, 49680, Note_on_c, 9, 42, 93
1, 49680, Note_on_c, 9, 69, 44
1, 49680, Note_on_c, 13, 62, 102
1, 49697, Note_on_c, 8, 63, 0
1, 49697, Note_on_c, 13, 63, 0
1, 49728, Note_on_c, 1, 36, 0
1, 49728, Note_on_c, 9, 54, 0
1, 49729, Note_on_c, 9, 42, 0
1, 49742, Note_on_c, 9, 69, 0
1, 49757, Note_on_c, 11, 63, 0
1, 49771, Note_on_c, 11, 70, 0
1, 49790, Note_on_c, 7, 48, 0
1, 49800, Note_on_c, 1, 36, 99
1, 49800, Note_on_c, 9, 36, 93
1, 49800, Note_on_c, 9, 42, 72
1, 49800, Note_on_c, 9, 54, 33
1, 49800, Note_on_c, 9, 70, 56
1, 49800, Note_on_c, 12, 60, 72
1, 49832, Note_on_c, 9, 54, 0
1, 49838, Note_on_c, 9, 42, 0
1, 49852, Note_on_c, 7, 55, 0
1, 49862, Note_on_c, 7, 60, 0
1, 49868, Note_on_c, 9, 36, 0
1, 49872, Note_on_c, 7, 63, 0
1, 49888, Note_on_c, 9, 70, 0
1, 49920, Note_on_c, 7, 60, 76
1, 49920, Note_on_c, 7, 63, 80
1, 49920, Note_on_c, 7, 48, 66
1, 49920, Note_on_c, 9, 69, 42
1, 49920, Note_on_c, 9, 42, 90
1, 49920, Note_on_c, 9, 54, 73
1, 49920, Note_on_c, 11, 63, 76
1, 49920, Note_on_c, 11, 70, 84
1, 49971, Note_on_c, 9, 54, 0
1, 49974, Note_on_c, 12, 60, 0
1, 49980, Note_on_c, 9, 69, 0
1, 49982, Note_on_c, 9, 42, 0
1, 50005, Note_on_c, 1, 36, 0
1, 50031, Note_on_c, 12, 60, 0
1, 50031, Note_on_c, 12, 67, 0
1, 50040, Note_on_c, 1, 36, 82
1, 50040, Note_on_c, 9, 54, 32
1, 50040, Note_on_c, 9, 42, 59
1, 50040, Note_on_c, 9, 70, 54
1, 50040, Note_on_c, 9, 36, 68
1, 50040, Note_on_c, 12, 63, 49
1, 50040, Note_on_c, 12, 67, 57
1, 50040, Note_on_c, 12, 60, 34
1, 50063, Note_on_c, 9, 36, 0
1, 50079, Note_on_c, 9, 54, 0
1, 50082, Note_on_c, 9, 42, 0
1, 50091, Note_on_c, 11, 67, 0
1, 50103, Note_on_c, 11, 63, 0
1, 50110, Note_on_c, 1, 36, 0
1, 50128, Note_on_c, 9, 70, 0
1, 50154, Note_on_c, 11, 70, 0
1, 50155, Note_on_c, 12, 63, 0
1, 50155, Note_on_c, 12, 67, 0
1, 50155, Note_on_c, 12, 60, 0
1, 50160, Note_on_c, 1, 36, 102
1, 50160, Note_on_c, 7, 55, 49
1, 50160, Note_on_c, 8, 63, 99
1, 50160, Note_on_c, 9, 69, 50
1, 50160, Note_on_c, 9, 46, 99
1, 50160, Note_on_c, 9, 36, 111
1, 50160, Note_on_c, 9, 54, 75
1, 50160, Note_on_c, 11, 67, 55
1, 50160, Note_on_c, 11, 63, 31
1, 50160, Note_on_c, 12, 63, 93
1, 50160, Note_on_c, 12, 67, 96
1, 50160, Note_on_c, 12, 60, 93
1, 50160, Note_on_c, 13, 63, 99
1, 50161, Note_on_c, 8, 62, 0
1, 50161, Note_on_c, 13, 62, 0
1, 50186, Note_on_c, 7, 63, 0
1, 50187, Note_on_c, 7, 36, 0
1, 50210, Note_on_c, 9, 54, 0
1, 50216, Note_on_c, 9, 69, 0
1, 50220, Note_on_c, 7, 60, 0
1, 50231, Note_on_c, 9, 46, 0
1, 50270, Note_on_c, 9, 36, 0
1, 50280, Note_on_c, 9, 70, 56
1, 50280, Note_on_c, 9, 54, 27
1, 50327, Note_on_c, 9, 54, 0
1, 50329, Note_on_c, 11, 63, 0
1, 50371, Note_on_c, 9, 70, 0
1, 50394, Note_on_c, 12, 63, 0
1, 50394, Note_on_c, 12, 67, 0
1, 50394, Note_on_c, 12, 60, 0
1, 50400, Lyric_t, "'cause "
1, 50400, Note_on_c, 7, 36, 90
1, 50400, Note_on_c, 7, 63, 74
1, 50400, Note_on_c, 7, 60, 70
1, 50400, Note_on_c, 3, 72, 114
1, 50400, Note_on_c, 5, 48, 49
1, 50400, Note_on_c, 9, 54, 68
1, 50400, Note_on_c, 9, 69, 41
1, 50400, Note_on_c, 9, 38, 114
1, 50400, Note_on_c, 9, 42, 62
1, 50400, Note_on_c, 11, 70, 84
1, 50400, Note_on_c, 11, 63, 82
1, 50400, Note_on_c, 12, 67, 99
1, 50400, Note_on_c, 12, 60, 90
1, 50438, Note_on_c, 9, 42, 0
1, 50449, Note_on_c, 9, 54, 0
1, 50449, Note_on_c, 9, 69, 0
1, 50466, Note_on_c, 7, 55, 0
1, 50486, Note_on_c, 11, 63, 0
1, 50519, Note_on_c, 3, 72, 0
1, 50520, Lyric_t, "I'll "
1, 50520, Note_on_c, 7, 55, 57
1, 50520, Note_on_c, 3, 74, 108
1, 50520, Note_on_c, 9, 42, 66
1, 50520, Note_on_c, 9, 54, 28
1, 50520, Note_on_c, 9, 70, 48
1, 50520, Note_on_c, 11, 63, 50
1, 50520, Note_on_c, 13, 62, 74
1, 50530, Note_on_c, 9, 38, 0
1, 50563, Note_on_c, 9, 54, 0
1, 50568, Note_on_c, 9, 42, 0
1, 50573, Note_on_c, 13, 63, 0
1, 50577, Note_on_c, 11, 63, 0
1, 50604, Note_on_c, 11, 70, 0
1, 50614, Note_on_c, 11, 67, 0
1, 50617, Note_on_c, 9, 70, 0
1, 50634, Note_on_c, 13, 62, 0
1, 50640, Note_on_c, 1, 34, 99
1, 50640, Note_on_c, 9, 42, 76
1, 50640, Note_on_c, 9, 69, 53
1, 50640, Note_on_c, 9, 54, 73
1, 50640, Note_on_c, 9, 36, 102
1, 50640, Note_on_c, 11, 67, 61
1, 50640, Note_on_c, 11, 70, 58
1, 50640, Note_on_c, 11, 63, 57
1, 50640, Note_on_c, 13, 60, 61
1, 50664, Note_on_c, 1, 36, 0
1, 50683, Note_on_c, 9, 42, 0
1, 50686, Note_on_c, 11, 63, 0
1, 50691, Note_on_c, 9, 54, 0
1, 50697, Note_on_c, 9, 36, 0
1, 50701, Note_on_c, 11, 67, 0
1, 50708, Note_on_c, 11, 70, 0
1, 50711, Note_on_c, 9, 69, 0
1, 50760, Lyric_t, "nev"
1, 50760, Note_on_c, 3, 75, 111
1, 50760, Note_on_c, 9, 42, 70
1, 50760, Note_on_c, 9, 54, 30
1, 50760, Note_on_c, 11, 70, 66
1, 50760, Note_on_c, 11, 67, 72
1, 50760, Note_on_c, 11, 63, 55
1, 50760, Note_on_c, 12, 60, 64
1, 50760, Note_on_c, 13, 58, 61
1, 50765, Note_on_c, 3, 74, 0
1, 50772, Note_on_c, 13, 60, 0
1, 50779, Note_on_c, 7, 60, 0
1, 50781, Control_c, 7, 64, 0
1, 50786, Note_on_c, 9, 42, 0
1, 50802, Note_on_c, 9, 54, 0
1, 50808, Note_on_c, 7, 48, 0
1, 50810, Note_on_c, 12, 60, 0
1, 50843, Note_on_c, 11, 63, 0
1, 50845, Note_on_c, 7, 63, 0
1, 50848, Note_on_c, 5, 60, 0
1, 50849, Note_on_c, 11, 67, 0
1, 50853, Note_on_c, 11, 70, 0
1, 50854, Note_on_c, 7, 36, 0
1, 50863, Note_on_c, 13, 58, 0
1, 50870, Note_on_c, 5, 48, 0
1, 50870, Note_on_c, 8, 63, 0
1, 50872, Note_on_c, 12, 67, 0
1, 50872, Note_on_c, 12, 60, 0
1, 50876, Note_on_c, 7, 55, 0
1, 50880, Note_on_c, 1, 32, 108
1, 50880, Note_on_c, 7, 56, 74
1, 50880, Note_on_c, 7, 51, 74
1, 50880, Note_on_c, 7, 44, 84
1, 50880, Note_on_c, 7, 60, 84
1, 50880, Note_on_c, 7, 63, 84
1, 50880, Note_on_c, 5, 56, 57
1, 50880, Note_on_c, 5, 51, 55
1, 50880, Note_on_c, 9, 36, 114
1, 50880, Note_on_c, 9, 54, 78
1, 50880, Note_on_c, 9, 42, 99
1, 50880, Note_on_c, 9, 69, 51
1, 50880, Note_on_c, 11, 60, 74
1, 50880, Note_on_c, 11, 63, 82
1, 50880, Note_on_c, 12, 60, 90
1, 50880, Note_on_c, 12, 63, 87
1, 50880, Note_on_c, 12, 68, 102
1, 50891, Note_on_c, 1, 34, 0
1, 50905, Note_on_c, 5, 55, 0
1, 50912, Control_c, 7, 64, 127
1, 50935, Note_on_c, 9, 54, 0
1, 50935, Note_on_c, 9, 42, 0
1, 50960, Note_on_c, 9, 69, 0
1, 51000, Note_on_c, 9, 54, 27
1, 51000, Note_on_c, 9, 42, 45
1, 51000, Note_on_c, 9, 70, 54
1, 51041, Note_on_c, 9, 42, 0
1, 51046, Note_on_c, 9, 54, 0
1, 51057, Note_on_c, 9, 36, 0
1, 51089, Note_on_c, 7, 60, 0
1, 51089, Note_on_c, 3, 75, 0
1, 51093, Note_on_c, 9, 70, 0
1, 51120, Lyric_t, "er "
1, 51120, Note_on_c, 7, 60, 49
1, 51120, Note_on_c, 3, 79, 108
1, 51120, Note_on_c, 9, 42, 78
1, 51120, Note_on_c, 9, 54, 75
1, 51120, Note_on_c, 9, 69, 44
1, 51120, Note_on_c, 12, 60, 70
1, 51170, Note_on_c, 9, 42, 0
1, 51171, Note_on_c, 9, 54, 0
1, 51192, Note_on_c, 7, 56, 0
1, 51193, Note_on_c, 9, 69, 0
1, 51218, Note_on_c, 7, 51, 0
1, 51240, Note_on_c, 9, 70, 56
1, 51240, Note_on_c, 9, 42, 74
1, 51240, Note_on_c, 9, 54, 27
1, 51245, Note_on_c, 12, 60, 0
1, 51276, Note_on_c, 9, 54, 0
1, 51280, Note_on_c, 7, 60, 0
1, 51282, Note_on_c, 9, 42, 0
1, 51306, Note_on_c, 11, 60, 0
1, 51321, Note_on_c, 11, 63, 0
1, 51342, Note_on_c, 9, 70, 0
1, 51352, Note_on_c, 12, 60, 0
1, 51352, Note_on_c, 12, 63, 0
1, 51352, Note_on_c, 12, 68, 0
1, 51360, Note_on_c, 7, 60, 68
1, 51360, Note_on_c, 7, 56, 49
1, 51360, Note_on_c, 7, 70, 93
1, 51360, Note_on_c, 3, 77, 99
1, 51360, Note_on_c, 8, 70, 111
1, 51360, Note_on_c, 9, 42, 105
1, 51360, Note_on_c, 9, 69, 32
1, 51360, Note_on_c, 9, 54, 78
1, 51360, Note_on_c, 9, 38, 117
1, 51360, Note_on_c, 11, 63, 66
1, 51360, Note_on_c, 11, 60, 78
1, 51360, Note_on_c, 11, 70, 93
1, 51360, Note_on_c, 12, 60, 90
1, 51360, Note_on_c, 12, 63, 87
1, 51360, Note_on_c, 12, 68, 93
1, 51360, Note_on_c, 13, 70, 111
1, 51376, Note_on_c, 3, 79, 0
1, 51409, Note_on_c, 9, 42, 0
1, 51415, Note_on_c, 9, 54, 0
1, 51439, Note_on_c, 9, 69, 0
1, 51480, Note_on_c, 9, 42, 44
1, 51480, Note_on_c, 9, 70, 53
1, 51480, Note_on_c, 9, 54, 18
1, 51500, Note_on_c, 7, 56, 0
1, 51525, Note_on_c, 9, 42, 0
1, 51528, Note_on_c, 9, 54, 0
1, 51534, Note_on_c, 7, 60, 0
1, 51541, Note_on_c, 3, 77, 0
1, 51556, Note_on_c, 9, 38, 0
1, 51568, Note_on_c, 9, 70, 0
1, 51584, Note_on_c, 7, 70, 0
1, 51600, Lyric_t, "be "
1, 51600, Note_on_c, 3, 77, 111
1, 51600, Note_on_c, 9, 54, 75
1, 51600, Note_on_c, 9, 42, 84
1, 51600, Note_on_c, 9, 69, 45
1, 51612, Note_on_c, 7, 63, 0
1, 51622, Note_on_c, 7, 44, 0
1, 51653, Note_on_c, 9, 54, 0
1, 51655, Note_on_c, 9, 42, 0
1, 51671, Note_on_c, 9, 69, 0
1, 51720, Note_on_c, 9, 42, 59
1, 51720, Note_on_c, 9, 54, 39
1, 51720, Note_on_c, 9, 70, 51
1, 51720, Note_on_c, 12, 60, 40
1, 51741, Note_on_c, 11, 70, 0
1, 51746, Note_on_c, 11, 63, 0
1, 51749, Note_on_c, 11, 60, 0
1, 51751, Note_on_c, 9, 54, 0
1, 51770, Note_on_c, 9, 42, 0
1, 51789, Note_on_c, 12, 60, 0
1, 51804, Note_on_c, 9, 70, 0
1, 51813, Note_on_c, 1, 32, 0
1, 51840, Note_on_c, 1, 34, 108
1, 51840, Note_on_c, 7, 62, 84
1, 51840, Note_on_c, 7, 46, 84
1, 51840, Note_on_c, 7, 53, 82
1, 51840, Note_on_c, 7, 58, 72
1, 51840, Note_on_c, 7, 65, 80
1, 51840, Note_on_c, 5, 53, 62
1, 51840, Note_on_c, 5, 58, 76
1, 51840, Note_on_c, 9, 42, 93
1, 51840, Note_on_c, 9, 69, 32
1, 51840, Note_on_c, 9, 36, 108
1, 51840, Note_on_c, 9, 54, 78
1, 51840, Note_on_c, 11, 65, 80
1, 51840, Note_on_c, 11, 62, 82
1, 51840, Note_on_c, 11, 70, 76
1, 51853, Control_c, 7, 64, 0
1, 51854, Note_on_c, 5, 51, 0
1, 51876, Note_on_c, 5, 56, 0
1, 51892, Note_on_c, 9, 54, 0
1, 51893, Note_on_c, 9, 42, 0
1, 51913, Note_on_c, 9, 69, 0
1, 51920, Note_on_c, 9, 36, 0
1, 51951, Note_on_c, 12, 60, 0
1, 51951, Note_on_c, 12, 63, 0
1, 51951, Note_on_c, 12, 68, 0
1, 51954, Note_on_c, 3, 77, 0
1, 51960, Note_on_c, 9, 54, 30
1, 51960, Note_on_c, 9, 70, 41
1, 51960, Note_on_c, 9, 42, 55
1, 51960, Note_on_c, 12, 62, 72
1, 51960, Note_on_c, 12, 58, 84
1, 51960, Note_on_c, 12, 65, 74
1, 51982, Control_c, 7, 64, 127
1, 52002, Note_on_c, 9, 42, 0
1, 52017, Note_on_c, 9, 54, 0
1, 52067, Note_on_c, 9, 70, 0
1, 52080, Lyric_t, "with "
1, 52080, Note_on_c, 3, 74, 117
1, 52080, Note_on_c, 4, 67, 74
1, 52080, Note_on_c, 9, 47, 117
1, 52080, Note_on_c, 9, 46, 96
1, 52080, Note_on_c, 9, 69, 44
1, 52080, Note_on_c, 9, 54, 73
1, 52080, Note_on_c, 12, 62, 64
1, 52080, Note_on_c, 12, 58, 82
1, 52135, Note_on_c, 9, 54, 0
1, 52151, Note_on_c, 9, 69, 0
1, 52174, Note_on_c, 9, 46, 0
1, 52200, Note_on_c, 9, 70, 51
1, 52200, Note_on_c, 9, 54, 28
1, 52222, Note_on_c, 9, 47, 0
1, 52247, Note_on_c, 9, 54, 0
1, 52255, Note_on_c, 7, 53, 0
1, 52259, Note_on_c, 8, 70, 0
1, 52259, Note_on_c, 13, 70, 0
1, 52265, Note_on_c, 12, 58, 0
1, 52286, Note_on_c, 12, 62, 0
1, 52297, Note_on_c, 9, 70, 0
1, 52313, Note_on_c, 12, 62, 0
1, 52313, Note_on_c, 12, 58, 0
1, 52313, Note_on_c, 12, 65, 0
1, 52320, Note_on_c, 7, 53, 59
1, 52320, Note_on_c, 8, 63, 108
1, 52320, Note_on_c, 9, 69, 33
1, 52320, Note_on_c, 9, 54, 68
1, 52320, Note_on_c, 9, 38, 105
1, 52320, Note_on_c, 9, 42, 87
1, 52320, Note_on_c, 12, 65, 80
1, 52320, Note_on_c, 12, 62, 102
1, 52320, Note_on_c, 12, 58, 105
1, 52320, Note_on_c, 13, 63, 108
1, 52375, Note_on_c, 9, 54, 0
1, 52375, Note_on_c, 9, 38, 0
1, 52388, Note_on_c, 9, 42, 0
1, 52400, Note_on_c, 9, 69, 0
1, 52440, Note_on_c, 8, 63, 0
1, 52440, Note_on_c, 8, 62, 82
1, 52440, Note_on_c, 9, 54, 25
1, 52440, Note_on_c, 9, 70, 43
1, 52440, Note_on_c, 9, 38, 108
1, 52440, Note_on_c, 13, 63, 0
1, 52440, Note_on_c, 13, 62, 82
1, 52472, Note_on_c, 9, 54, 0
1, 52497, Note_on_c, 9, 38, 0
1, 52516, Note_on_c, 4, 67, 0
1, 52526, Note_on_c, 9, 70, 0
1, 52558, Note_on_c, 3, 74, 0
1, 52558, Note_on_c, 11, 70, 0
1, 52560, Lyric_t, "you. "
1, 52560, Lyric_t, "\015"
1, 52560, Note_on_c, 1, 38, 84
1, 52560, Note_on_c, 3, 75, 111
1, 52560, Note_on_c, 4, 63, 70
1, 52560, Note_on_c, 9, 69, 48
1, 52560, Note_on_c, 9, 54, 78
1, 52560, Note_on_c, 9, 46, 87
1, 52560, Note_on_c, 9, 43, 114
1, 52580, Note_on_c, 1, 34, 0
1, 52595, Note_on_c, 8, 62, 0
1, 52595, Note_on_c, 13, 62, 0
1, 52616, Note_on_c, 9, 54, 0
1, 52623, Note_on_c, 9, 69, 0
1, 52625, Note_on_c, 9, 46, 0
1, 52639, Control_c, 7, 64, 0
1, 52650, Note_on_c, 11, 65, 0
1, 52661, Note_on_c, 11, 62, 0
1, 52680, Note_on_c, 8, 63, 105
1, 52680, Note_on_c, 9, 43, 0
1, 52680, Note_on_c, 9, 70, 56
1, 52680, Note_on_c, 9, 54, 28
1, 52680, Note_on_c, 13, 63, 105
1, 52718, Note_on_c, 9, 54, 0
1, 52745, Note_on_c, 7, 65, 0
1, 52758, Note_on_c, 7, 53, 0
1, 52759, Note_on_c, 7, 62, 0
1, 52762, Note_on_c, 7, 46, 0
1, 52766, Note_on_c, 12, 62, 0
1, 52767, Note_on_c, 12, 65, 0
1, 52768, Note_on_c, 7, 58, 0
1, 52768, Note_on_c, 12, 58, 0
1, 52790, Note_on_c, 9, 70, 0
1, 52800, Note_on_c, 1, 39, 114
1, 52800, Note_on_c, 7, 63, 78
1, 52800, Note_on_c, 7, 67, 90
1, 52800, Note_on_c, 7, 58, 90
1, 52800, Note_on_c, 7, 39, 84
1, 52800, Note_on_c, 7, 51, 82
1, 52800, Note_on_c, 5, 55, 76
1, 52800, Note_on_c, 5, 58, 78
1, 52800, Note_on_c, 5, 75, 76
1, 52800, Note_on_c, 5, 63, 68
1, 52800, Note_on_c, 9, 36, 114
1, 52800, Note_on_c, 9, 49, 96
1, 52800, Note_on_c, 9, 69, 27
1, 52800, Note_on_c, 9, 54, 83
1, 52800, Note_on_c, 10, 51, 72
1, 52800, Note_on_c, 11, 67, 87
1, 52800, Note_on_c, 11, 63, 84
1, 52800, Note_on_c, 11, 70, 87
1, 52800, Note_on_c, 12, 67, 78
1, 52800, Note_on_c, 12, 58, 99
1, 52800, Note_on_c, 12, 63, 90
1, 52800, Note_on_c, 2, 79, 72
1, 52800, Note_on_c, 2, 87, 87
1, 52800, Note_on_c, 2, 75, 66
1, 52813, Note_on_c, 5, 58, 0
1, 52816, Note_on_c, 5, 53, 0
1, 52828, Note_on_c, 1, 38, 0
1, 52851, Note_on_c, 9, 54, 0
1, 52866, Note_on_c, 9, 49, 0
1, 52886, Note_on_c, 9, 69, 0
1, 52920, Note_on_c, 9, 42, 68
1, 52920, Note_on_c, 9, 54, 40
1, 52920, Note_on_c, 9, 70, 45
1, 52951, Control_c, 7, 64, 127
1, 52961, Note_on_c, 9, 42, 0
1, 52961, Note_on_c, 9, 54, 0
1, 52977, Note_on_c, 4, 63, 0
1, 53016, Note_on_c, 9, 70, 0
1, 53018, Note_on_c, 9, 36, 0
1, 53026, Note_on_c, 12, 58, 0
1, 53040, Note_on_c, 9, 54, 64
1, 53040, Note_on_c, 9, 69, 33
1, 53040, Note_on_c, 9, 42, 58
1, 53040, Note_on_c, 12, 58, 55
1, 53083, Note_on_c, 9, 42, 0
1, 53089, Note_on_c, 9, 54, 0
1, 53090, Note_on_c, 12, 67, 0
1, 53105, Note_on_c, 9, 69, 0
1, 53115, Note_on_c, 3, 75, 0
1, 53160, Note_on_c, 9, 54, 35
1, 53160, Note_on_c, 9, 70, 54
1, 53160, Note_on_c, 9, 42, 30
1, 53190, Note_on_c, 9, 42, 0
1, 53197, Note_on_c, 9, 54, 0
1, 53200, Note_on_c, 12, 58, 0
1, 53221, Note_on_c, 11, 63, 0
1, 53221, Note_on_c, 11, 70, 0
1, 53227, Note_on_c, 11, 67, 0
1, 53249, Note_on_c, 12, 63, 0
1, 53259, Note_on_c, 9, 70, 0
1, 53280, Note_on_c, 9, 69, 39
1, 53280, Note_on_c, 9, 42, 108
1, 53280, Note_on_c, 9, 54, 83
1, 53280, Note_on_c, 9, 38, 114
1, 53280, Note_on_c, 11, 63, 87
1, 53280, Note_on_c, 11, 67, 87
1, 53280, Note_on_c, 12, 63, 72
1, 53280, Note_on_c, 12, 67, 76
1, 53280, Note_on_c, 12, 58, 93
1, 53281, Note_on_c, 11, 70, 82
1, 53325, Note_on_c, 8, 63, 0
1, 53325, Note_on_c, 13, 63, 0
1, 53327, Note_on_c, 9, 54, 0
1, 53350, Note_on_c, 9, 42, 0
1, 53354, Note_on_c, 9, 69, 0
1, 53400, Note_on_c, 9, 54, 26
1, 53400, Note_on_c, 9, 70, 51
1, 53400, Note_on_c, 9, 42, 58
1, 53423, Note_on_c, 9, 54, 0
1, 53425, Note_on_c, 7, 51, 0
1, 53445, Note_on_c, 9, 42, 0
1, 53495, Note_on_c, 9, 70, 0
1, 53509, Note_on_c, 12, 67, 0
1, 53520, Note_on_c, 9, 42, 51
1, 53520, Note_on_c, 9, 54, 70
1, 53520, Note_on_c, 9, 69, 44
1, 53568, Note_on_c, 9, 38, 0
1, 53568, Note_on_c, 9, 54, 0
1, 53572, Note_on_c, 12, 58, 0
1, 53575, Note_on_c, 1, 39, 0
1, 53582, Note_on_c, 9, 69, 0
1, 53584, Note_on_c, 9, 42, 0
1, 53598, Note_on_c, 11, 63, 0
1, 53598, Note_on_c, 11, 70, 0
1, 53609, Note_on_c, 11, 67, 0
1, 53640, Note_on_c, 1, 39, 84
1, 53640, Note_on_c, 9, 54, 33
1, 53640, Note_on_c, 9, 70, 56
1, 53640, Note_on_c, 9, 42, 59
1, 53640, Note_on_c, 9, 36, 80
1, 53640, Note_on_c, 11, 70, 80
1, 53640, Note_on_c, 11, 63, 66
1, 53640, Note_on_c, 11, 67, 84
1, 53640, Note_on_c, 12, 67, 84
1, 53640, Note_on_c, 12, 58, 96
1, 53672, Note_on_c, 9, 54, 0
1, 53681, Note_on_c, 9, 42, 0
1, 53698, Note_on_c, 9, 36, 0
1, 53728, Note_on_c, 9, 70, 0
1, 53760, Note_on_c, 7, 51, 55
1, 53760, Note_on_c, 9, 54, 73
1, 53760, Note_on_c, 9, 69, 42
1, 53760, Note_on_c, 9, 42, 105
1, 53811, Note_on_c, 9, 54, 0
1, 53811, Note_on_c, 12, 67, 0
1, 53814, Note_on_c, 12, 63, 0
1, 53817, Note_on_c, 12, 58, 0
1, 53820, Note_on_c, 9, 69, 0
1, 53823, Note_on_c, 1, 39, 0
1, 53832, Note_on_c, 11, 63, 0
1, 53844, Note_on_c, 11, 70, 0
1, 53845, Note_on_c, 9, 42, 0
1, 53849, Note_on_c, 11, 67, 0
1, 53880, Note_on_c, 1, 39, 74
1, 53880, Note_on_c, 9, 42, 41
1, 53880, Note_on_c, 9, 36, 84
1, 53880, Note_on_c, 9, 54, 32
1, 53880, Note_on_c, 9, 70, 54
1, 53880, Note_on_c, 11, 70, 60
1, 53880, Note_on_c, 11, 63, 60
1, 53880, Note_on_c, 12, 58, 72
1, 53880, Note_on_c, 12, 63, 48
1, 53881, Note_on_c, 11, 67, 60
1, 53912, Note_on_c, 9, 36, 0
1, 53919, Note_on_c, 9, 54, 0
1, 53930, Note_on_c, 9, 42, 0
1, 53940, Note_on_c, 1, 39, 0
1, 53944, Note_on_c, 12, 58, 0
1, 53949, Note_on_c, 12, 63, 0
1, 53968, Note_on_c, 9, 70, 0
1, 53997, Note_on_c, 11, 70, 0
1, 53997, Note_on_c, 11, 63, 0
1, 53998, Note_on_c, 11, 67, 0
1, 53999, Note_on_c, 11, 67, 93
1, 53999, Note_on_c, 11, 70, 93
1, 54000, Note_on_c, 1, 39, 105
1, 54000, Note_on_c, 8, 55, 117
1, 54000, Note_on_c, 9, 42, 64
1, 54000, Note_on_c, 9, 69, 50
1, 54000, Note_on_c, 9, 54, 75
1, 54000, Note_on_c, 9, 36, 114
1, 54000, Note_on_c, 11, 63, 80
1, 54000, Note_on_c, 12, 58, 96
1, 54000, Note_on_c, 12, 63, 87
1, 54000, Note_on_c, 12, 67, 102
1, 54000, Note_on_c, 13, 55, 117
1, 54050, Note_on_c, 9, 54, 0
1, 54056, Note_on_c, 9, 69, 0
1, 54064, Note_on_c, 9, 42, 0
1, 54120, Note_on_c, 9, 54, 27
1, 54120, Note_on_c, 9, 70, 56
1, 54120, Note_on_c, 9, 42, 55
1, 54128, Note_on_c, 7, 58, 0
1, 54130, Note_on_c, 7, 63, 0
1, 54148, Note_on_c, 9, 36, 0
1, 54161, Note_on_c, 9, 42, 0
1, 54167, Note_on_c, 9, 54, 0
1, 54211, Note_on_c, 9, 70, 0
1, 54238, Note_on_c, 8, 55, 0
1, 54238, Note_on_c, 13, 55, 0
1, 54240, Note_on_c, 9, 54, 68
1, 54240, Note_on_c, 9, 46, 102
1, 54240, Note_on_c, 9, 38, 111
1, 54240, Note_on_c, 9, 69, 41
1, 54247, Note_on_c, 8, 63, 111
1, 54247, Note_on_c, 13, 63, 111
1, 54289, Note_on_c, 9, 54, 0
1, 54289, Note_on_c, 9, 69, 0
1, 54327, Note_on_c, 9, 46, 0
1, 54355, Note_on_c, 11, 63, 0
1, 54356, Note_on_c, 11, 70, 0
1, 54357, Note_on_c, 11, 67, 0
1, 54360, Note_on_c, 9, 54, 28
1, 54360, Note_on_c, 9, 70, 48
1, 54360, Note_on_c, 11, 67, 84
1, 54360, Note_on_c, 11, 63, 64
1, 54360, Note_on_c, 11, 70, 72
1, 54366, Note_on_c, 8, 63, 0
1, 54366, Note_on_c, 13, 63, 0
1, 54388, Note_on_c, 8, 62, 111
1, 54388, Note_on_c, 13, 62, 111
1, 54403, Note_on_c, 9, 54, 0
1, 54425, Note_on_c, 12, 67, 0
1, 54434, Note_on_c, 12, 58, 0
1, 54449, Note_on_c, 7, 51, 0
1, 54457, Note_on_c, 9, 70, 0
1, 54457, Note_on_c, 12, 63, 0
1, 54458, Note_on_c, 9, 38, 0
1, 54460, Note_on_c, 7, 39, 0
1, 54476, Note_on_c, 11, 67, 0
1, 54476, Note_on_c, 11, 70, 0
1, 54478, Note_on_c, 11, 63, 0
1, 54480, Note_on_c, 1, 34, 102
1, 54480, Note_on_c, 7, 67, 0
1, 54480, Note_on_c, 9, 46, 82
1, 54480, Note_on_c, 9, 54, 73
1, 54480, Note_on_c, 9, 69, 53
1, 54480, Note_on_c, 11, 63, 76
1, 54480, Note_on_c, 11, 67, 74
1, 54480, Note_on_c, 11, 70, 89
1, 54480, Note_on_c, 12, 63, 62
1, 54480, Note_on_c, 12, 67, 76
1, 54480, Note_on_c, 12, 58, 62
1, 54502, Note_on_c, 1, 39, 0
1, 54531, Note_on_c, 9, 54, 0
1, 54541, Note_on_c, 9, 46, 0
1, 54551, Note_on_c, 9, 69, 0
1, 54595, Note_on_c, 8, 62, 0
1, 54595, Note_on_c, 13, 62, 0
1, 54597, Note_on_c, 11, 63, 0
1, 54597, Note_on_c, 11, 67, 0
1, 54597, Note_on_c, 11, 70, 0
1, 54600, Note_on_c, 9, 54, 30
1, 54600, Note_on_c, 11, 70, 60
1, 54600, Note_on_c, 11, 63, 60
1, 54600, Note_on_c, 11, 67, 60
1, 54627, Note_on_c, 8, 63, 114
1, 54627, Note_on_c, 13, 63, 114
1, 54637, Note_on_c, 5, 63, 0
1, 54637, Note_on_c, 12, 67, 0
1, 54642, Note_on_c, 9, 54, 0
1, 54669, Note_on_c, 12, 58, 0
1, 54678, Note_on_c, 12, 63, 0
1, 54683, Note_on_c, 11, 63, 0
1, 54699, Note_on_c, 5, 55, 0
1, 54712, Note_on_c, 11, 67, 0
1, 54718, Note_on_c, 11, 70, 0
1, 54720, Note_on_c, 1, 38, 108
1, 54720, Note_on_c, 7, 62, 82
1, 54720, Note_on_c, 7, 65, 84
1, 54720, Note_on_c, 7, 50, 76
1, 54720, Note_on_c, 7, 58, 82
1, 54720, Note_on_c, 7, 38, 90
1, 54720, Note_on_c, 5, 53, 76
1, 54720, Note_on_c, 5, 62, 76
1, 54720, Note_on_c, 5, 74, 72
1, 54720, Note_on_c, 9, 42, 96
1, 54720, Note_on_c, 9, 36, 111
1, 54720, Note_on_c, 9, 69, 51
1, 54720, Note_on_c, 9, 54, 78
1, 54720, Note_on_c, 10, 50, 70
1, 54720, Note_on_c, 11, 65, 87
1, 54720, Note_on_c, 11, 70, 84
1, 54720, Note_on_c, 12, 62, 90
1, 54720, Note_on_c, 12, 65, 87
1, 54720, Note_on_c, 12, 58, 102
1, 54720, Note_on_c, 2, 77, 68
1, 54720, Note_on_c, 2, 86, 76
1, 54720, Note_on_c, 2, 74, 78
1, 54722, Note_on_c, 11, 62, 84
1, 54725, Control_c, 7, 64, 0
1, 54726, Note_on_c, 2, 75, 0
1, 54727, Note_on_c, 10, 51, 0
1, 54728, Note_on_c, 2, 79, 0
1, 54747, Note_on_c, 1, 34, 0
1, 54757, Note_on_c, 5, 75, 0
1, 54770, Note_on_c, 2, 87, 0
1, 54775, Note_on_c, 9, 54, 0
1, 54781, Note_on_c, 9, 42, 0
1, 54800, Note_on_c, 9, 69, 0
1, 54840, Note_on_c, 9, 70, 54
1, 54840, Note_on_c, 9, 54, 27
1, 54840, Note_on_c, 9, 42, 62
1, 54881, Note_on_c, 9, 42, 0
1, 54886, Note_on_c, 9, 54, 0
1, 54920, Control_c, 13, 1, 8
1, 54933, Note_on_c, 9, 70, 0
1, 54942, Control_c, 13, 1, 19
1, 54954, Note_on_c, 8, 63, 0
1, 54954, Note_on_c, 13, 63, 0
1, 54960, Note_on_c, 9, 54, 75
1, 54960, Note_on_c, 9, 69, 44
1, 54960, Note_on_c, 9, 42, 74
1, 54964, Control_c, 13, 1, 26
1, 54979, Note_on_c, 8, 65, 108
1, 54979, Note_on_c, 13, 65, 108
1, 54987, Control_c, 13, 1, 16
1, 54997, Control_c, 13, 1, 0
1, 55007, Note_on_c, 9, 42, 0
1, 55011, Note_on_c, 9, 54, 0
1, 55027, Note_on_c, 12, 65, 0
1, 55033, Note_on_c, 9, 69, 0
1, 55080, Note_on_c, 9, 70, 56
1, 55080, Note_on_c, 9, 54, 27
1, 55080, Note_on_c, 9, 42, 46
1, 55087, Note_on_c, 9, 36, 0
1, 55111, Note_on_c, 9, 42, 0
1, 55116, Note_on_c, 9, 54, 0
1, 55128, Note_on_c, 12, 58, 0
1, 55136, Note_on_c, 11, 65, 0
1, 55137, Note_on_c, 12, 62, 0
1, 55140, Note_on_c, 11, 70, 0
1, 55140, Note_on_c, 11, 62, 0
1, 55172, Control_c, 7, 64, 127
1, 55182, Note_on_c, 9, 70, 0
1, 55199, Note_on_c, 11, 70, 90
1, 55200, Note_on_c, 9, 38, 114
1, 55200, Note_on_c, 9, 69, 32
1, 55200, Note_on_c, 9, 54, 78
1, 55200, Note_on_c, 9, 42, 105
1, 55200, Note_on_c, 12, 65, 84
1, 55200, Note_on_c, 12, 62, 93
1, 55200, Note_on_c, 12, 58, 90
1, 55201, Note_on_c, 11, 65, 87
1, 55201, Note_on_c, 11, 62, 87
1, 55255, Note_on_c, 9, 54, 0
1, 55267, Control_c, 13, 1, 2
1, 55271, Note_on_c, 9, 42, 0
1, 55278, Control_c, 13, 1, 11
1, 55279, Note_on_c, 9, 69, 0
1, 55320, Note_on_c, 9, 70, 53
1, 55320, Note_on_c, 9, 42, 41
1, 55320, Note_on_c, 9, 54, 18
1, 55352, Control_c, 13, 1, 20
1, 55360, Note_on_c, 9, 42, 0
1, 55368, Note_on_c, 9, 54, 0
1, 55374, Control_c, 13, 1, 35
1, 55385, Control_c, 13, 1, 44
1, 55406, Control_c, 13, 1, 51
1, 55408, Note_on_c, 9, 70, 0
1, 55440, Note_on_c, 9, 69, 45
1, 55440, Note_on_c, 9, 54, 75
1, 55440, Note_on_c, 9, 42, 72
1, 55458, Note_on_c, 12, 65, 0
1, 55493, Note_on_c, 9, 54, 0
1, 55496, Note_on_c, 12, 62, 0
1, 55501, Note_on_c, 9, 42, 0
1, 55503, Control_c, 13, 1, 61
1, 55509, Note_on_c, 11, 70, 0
1, 55511, Note_on_c, 9, 69, 0
1, 55513, Note_on_c, 11, 65, 0
1, 55517, Note_on_c, 11, 62, 0
1, 55525, Control_c, 13, 1, 69
1, 55554, Note_on_c, 9, 38, 0
1, 55560, Note_on_c, 9, 42, 46
1, 55560, Note_on_c, 9, 70, 51
1, 55560, Note_on_c, 9, 54, 39
1, 55560, Note_on_c, 11, 65, 76
1, 55560, Note_on_c, 11, 62, 87
1, 55560, Note_on_c, 11, 70, 87
1, 55560, Note_on_c, 12, 62, 84
1, 55560, Note_on_c, 12, 65, 93
1, 55568, Control_c, 13, 1, 76
1, 55591, Note_on_c, 9, 54, 0
1, 55593, Note_on_c, 9, 42, 0
1, 55644, Note_on_c, 9, 70, 0
1, 55680, Note_on_c, 9, 69, 32
1, 55680, Note_on_c, 9, 42, 105
1, 55680, Note_on_c, 9, 54, 78
1, 55732, Note_on_c, 9, 54, 0
1, 55736, Note_on_c, 12, 62, 0
1, 55740, Control_c, 13, 1, 62
1, 55744, Note_on_c, 12, 65, 0
1, 55753, Note_on_c, 9, 69, 0
1, 55755, Note_on_c, 9, 42, 0
1, 55757, Note_on_c, 11, 70, 0
1, 55759, Note_on_c, 11, 65, 0
1, 55800, Note_on_c, 9, 70, 41
1, 55800, Note_on_c, 9, 54, 30
1, 55800, Note_on_c, 9, 42, 55
1, 55800, Note_on_c, 11, 65, 51
1, 55800, Note_on_c, 11, 70, 64
1, 55800, Note_on_c, 12, 62, 38
1, 55826, Control_c, 13, 1, 54
1, 55845, Note_on_c, 9, 42, 0
1, 55850, Note_on_c, 11, 70, 0
1, 55851, Note_on_c, 12, 58, 0
1, 55851, Note_on_c, 12, 62, 0
1, 55856, Note_on_c, 11, 62, 0
1, 55857, Note_on_c, 9, 54, 0
1, 55859, Control_c, 13, 1, 42
1, 55861, Note_on_c, 11, 65, 0
1, 55870, Control_c, 13, 1, 32
1, 55880, Note_on_c, 8, 65, 0
1, 55880, Note_on_c, 13, 65, 0
1, 55880, Control_c, 13, 1, 22
1, 55891, Control_c, 13, 1, 9
1, 55902, Control_c, 13, 1, 0
1, 55907, Note_on_c, 9, 70, 0
1, 55919, Note_on_c, 11, 62, 87
1, 55920, Note_on_c, 5, 70, 72
1, 55920, Note_on_c, 9, 36, 99
1, 55920, Note_on_c, 9, 42, 74
1, 55920, Note_on_c, 9, 69, 44
1, 55920, Note_on_c, 9, 54, 73
1, 55920, Note_on_c, 11, 65, 80
1, 55920, Note_on_c, 11, 70, 87
1, 55920, Note_on_c, 12, 62, 96
1, 55920, Note_on_c, 12, 58, 82
1, 55920, Note_on_c, 12, 65, 87
1, 55922, Note_on_c, 8, 63, 117
1, 55922, Note_on_c, 13, 63, 117
1, 55954, Note_on_c, 5, 74, 0
1, 55975, Note_on_c, 9, 54, 0
1, 55987, Note_on_c, 9, 42, 0
1, 55991, Note_on_c, 9, 69, 0
1, 56012, Note_on_c, 9, 36, 0
1, 56040, Note_on_c, 9, 70, 51
1, 56040, Note_on_c, 9, 54, 28
1, 56040, Note_on_c, 9, 42, 43
1, 56087, Note_on_c, 9, 54, 0
1, 56090, Note_on_c, 9, 42, 0
1, 56137, Note_on_c, 9, 70, 0
1, 56153, Note_on_c, 8, 62, 114
1, 56153, Note_on_c, 13, 62, 114
1, 56154, Note_on_c, 7, 62, 0
1, 56160, Note_on_c, 9, 69, 33
1, 56160, Note_on_c, 9, 54, 68
1, 56160, Note_on_c, 9, 38, 117
1, 56160, Note_on_c, 9, 42, 102
1, 56165, Note_on_c, 8, 63, 0
1, 56165, Note_on_c, 13, 63, 0
1, 56215, Note_on_c, 9, 54, 0
1, 56223, Note_on_c, 9, 42, 0
1, 56224, Note_on_c, 12, 65, 0
1, 56228, Note_on_c, 7, 58, 0
1, 56240, Note_on_c, 9, 69, 0
1, 56252, Note_on_c, 7, 50, 0
1, 56252, Note_on_c, 7, 38, 0
1, 56260, Note_on_c, 7, 65, 0
1, 56274, Note_on_c, 11, 65, 0
1, 56276, Note_on_c, 11, 62, 0
1, 56277, Note_on_c, 11, 70, 0
1, 56280, Note_on_c, 9, 42, 76
1, 56280, Note_on_c, 9, 70, 43
1, 56280, Note_on_c, 9, 54, 25
1, 56280, Note_on_c, 11, 62, 58
1, 56280, Note_on_c, 11, 65, 61
1, 56280, Note_on_c, 11, 70, 64
1, 56312, Note_on_c, 9, 54, 0
1, 56322, Note_on_c, 9, 42, 0
1, 56362, Note_on_c, 12, 58, 0
1, 56366, Note_on_c, 9, 70, 0
1, 56378, Note_on_c, 1, 38, 0
1, 56391, Note_on_c, 9, 38, 0
1, 56396, Note_on_c, 11, 65, 0
1, 56397, Note_on_c, 11, 62, 0
1, 56397, Note_on_c, 11, 70, 0
1, 56398, Note_on_c, 8, 62, 0
1, 56398, Note_on_c, 13, 62, 0
1, 56400, Note_on_c, 1, 38, 105
1, 56400, Note_on_c, 9, 46, 99
1, 56400, Note_on_c, 9, 36, 44
1, 56400, Note_on_c, 9, 69, 48
1, 56400, Note_on_c, 9, 54, 78
1, 56400, Note_on_c, 11, 62, 82
1, 56400, Note_on_c, 11, 65, 70
1, 56400, Note_on_c, 11, 70, 87
1, 56400, Note_on_c, 12, 58, 72
1, 56400, Note_on_c, 12, 65, 78
1, 56412, Note_on_c, 8, 63, 111
1, 56412, Note_on_c, 13, 63, 111
1, 56438, Note_on_c, 9, 36, 0
1, 56448, Note_on_c, 9, 46, 0
1, 56456, Note_on_c, 9, 54, 0
1, 56463, Note_on_c, 9, 69, 0
1, 56464, Note_on_c, 12, 62, 0
1, 56467, Note_on_c, 12, 58, 0
1, 56516, Note_on_c, 11, 70, 0
1, 56517, Note_on_c, 11, 62, 0
1, 56517, Note_on_c, 11, 65, 0
1, 56520, Note_on_c, 9, 70, 56
1, 56520, Note_on_c, 9, 54, 28
1, 56520, Note_on_c, 11, 65, 72
1, 56520, Note_on_c, 11, 70, 78
1, 56520, Note_on_c, 11, 62, 66
1, 56558, Note_on_c, 9, 54, 0
1, 56585, Note_on_c, 11, 62, 0
1, 56594, Note_on_c, 11, 70, 0
1, 56596, Note_on_c, 11, 65, 0
1, 56601, Note_on_c, 5, 70, 0
1, 56620, Note_on_c, 10, 50, 0
1, 56626, Note_on_c, 1, 38, 0
1, 56627, Note_on_c, 12, 65, 0
1, 56630, Note_on_c, 9, 70, 0
1, 56632, Note_on_c, 5, 58, 0
1, 56637, Note_on_c, 5, 62, 0
1, 56640, Note_on_c, 1, 36, 105
1, 56640, Note_on_c, 7, 48, 87
1, 56640, Note_on_c, 7, 63, 80
1, 56640, Note_on_c, 7, 58, 82
1, 56640, Note_on_c, 7, 55, 74
1, 56640, Note_on_c, 7, 36, 96
1, 56640, Note_on_c, 5, 63, 49
1, 56640, Note_on_c, 5, 55, 45
1, 56640, Note_on_c, 5, 60, 59
1, 56640, Note_on_c, 5, 72, 84
1, 56640, Note_on_c, 9, 54, 83
1, 56640, Note_on_c, 9, 36, 117
1, 56640, Note_on_c, 9, 69, 27
1, 56640, Note_on_c, 9, 42, 105
1, 56640, Note_on_c, 10, 55, 78
1, 56640, Note_on_c, 11, 60, 76
1, 56640, Note_on_c, 11, 70, 90
1, 56640, Note_on_c, 12, 60, 78
1, 56640, Note_on_c, 12, 70, 90
1, 56640, Note_on_c, 12, 63, 84
1, 56640, Note_on_c, 2, 84, 90
1, 56640, Note_on_c, 2, 79, 74
1, 56640, Note_on_c, 2, 75, 78
1, 56642, Note_on_c, 11, 63, 82
1, 56646, Note_on_c, 5, 53, 0
1, 56647, Control_c, 7, 64, 0
1, 56654, Note_on_c, 2, 74, 0
1, 56667, Note_on_c, 2, 77, 0
1, 56672, Note_on_c, 2, 86, 0
1, 56691, Note_on_c, 9, 54, 0
1, 56699, Note_on_c, 9, 42, 0
1, 56726, Note_on_c, 9, 69, 0
1, 56760, Note_on_c, 9, 42, 51
1, 56760, Note_on_c, 9, 70, 45
1, 56760, Note_on_c, 9, 54, 40
1, 56798, Note_on_c, 9, 42, 0
1, 56801, Note_on_c, 9, 54, 0
1, 56856, Note_on_c, 9, 70, 0
1, 56880, Note_on_c, 9, 42, 66
1, 56880, Note_on_c, 9, 54, 64
1, 56880, Note_on_c, 9, 69, 33
1, 56929, Note_on_c, 9, 54, 0
1, 56939, Note_on_c, 9, 42, 0
1, 56945, Note_on_c, 9, 69, 0
1, 56977, Note_on_c, 12, 70, 0
1, 57000, Note_on_c, 9, 42, 37
1, 57000, Note_on_c, 9, 54, 35
1, 57000, Note_on_c, 9, 70, 54
1, 57008, Note_on_c, 11, 70, 0
1, 57035, Note_on_c, 9, 42, 0
1, 57037, Note_on_c, 9, 54, 0
1, 57038, Note_on_c, 9, 36, 0
1, 57050, Control_c, 13, 1, 5
1, 57053, Note_on_c, 12, 60, 0
1, 57066, Control_c, 7, 64, 127
1, 57070, Note_on_c, 11, 60, 0
1, 57072, Control_c, 13, 1, 11
1, 57088, Note_on_c, 12, 63, 0
1, 57099, Note_on_c, 9, 70, 0
1, 57114, Control_c, 13, 1, 18
1, 57120, Note_on_c, 9, 54, 83
1, 57120, Note_on_c, 9, 69, 39
1, 57120, Note_on_c, 9, 38, 114
1, 57120, Note_on_c, 9, 42, 105
1, 57120, Note_on_c, 11, 63, 0
1, 57120, Note_on_c, 11, 60, 80
1, 57120, Note_on_c, 11, 70, 90
1, 57120, Note_on_c, 11, 63, 72
1, 57120, Note_on_c, 12, 63, 76
1, 57120, Note_on_c, 12, 70, 96
1, 57120, Note_on_c, 12, 60, 93
1, 57167, Note_on_c, 9, 54, 0
1, 57171, Note_on_c, 9, 42, 0
1, 57194, Note_on_c, 9, 69, 0
1, 57233, Control_c, 13, 1, 26
1, 57240, Note_on_c, 9, 42, 39
1, 57240, Note_on_c, 9, 70, 51
1, 57240, Note_on_c, 9, 54, 26
1, 57254, Control_c, 13, 1, 33
1, 57263, Note_on_c, 9, 54, 0
1, 57284, Note_on_c, 9, 42, 0
1, 57287, Control_c, 13, 1, 41
1, 57335, Note_on_c, 9, 70, 0
1, 57360, Note_on_c, 9, 42, 74
1, 57360, Note_on_c, 9, 54, 70
1, 57360, Note_on_c, 9, 69, 44
1, 57391, Note_on_c, 12, 70, 0
1, 57408, Note_on_c, 9, 54, 0
1, 57416, Control_c, 13, 1, 49
1, 57422, Note_on_c, 9, 69, 0
1, 57424, Note_on_c, 11, 70, 0
1, 57429, Note_on_c, 9, 42, 0
1, 57433, Note_on_c, 12, 60, 0
1, 57439, Note_on_c, 11, 60, 0
1, 57480, Note_on_c, 9, 42, 57
1, 57480, Note_on_c, 9, 70, 56
1, 57480, Note_on_c, 9, 54, 33
1, 57480, Note_on_c, 11, 70, 87
1, 57480, Note_on_c, 11, 60, 80
1, 57480, Note_on_c, 12, 60, 93
1, 57480, Note_on_c, 12, 70, 93
1, 57512, Note_on_c, 9, 54, 0
1, 57517, Note_on_c, 9, 42, 0
1, 57549, Note_on_c, 9, 38, 0
1, 57568, Note_on_c, 9, 70, 0
1, 57599, Control_c, 13, 1, 56
1, 57600, Note_on_c, 9, 42, 84
1, 57600, Note_on_c, 9, 54, 73
1, 57600, Note_on_c, 9, 69, 42
1, 57651, Note_on_c, 9, 54, 0
1, 57657, Note_on_c, 12, 63, 0
1, 57660, Note_on_c, 9, 69, 0
1, 57667, Note_on_c, 11, 63, 0
1, 57674, Note_on_c, 9, 42, 0
1, 57706, Control_c, 13, 1, 49
1, 57720, Note_on_c, 9, 54, 32
1, 57720, Note_on_c, 9, 42, 51
1, 57720, Note_on_c, 9, 70, 54
1, 57720, Note_on_c, 11, 63, 61
1, 57720, Note_on_c, 12, 63, 57
1, 57723, Note_on_c, 12, 70, 0
1, 57759, Note_on_c, 9, 54, 0
1, 57761, Note_on_c, 12, 60, 0
1, 57765, Note_on_c, 9, 42, 0
1, 57768, Note_on_c, 11, 60, 0
1, 57774, Note_on_c, 11, 70, 0
1, 57778, Note_on_c, 11, 63, 0
1, 57787, Note_on_c, 8, 63, 0
1, 57787, Note_on_c, 13, 63, 0
1, 57789, Note_on_c, 12, 63, 0
1, 57792, Control_c, 13, 1, 32
1, 57803, Control_c, 13, 1, 18
1, 57808, Note_on_c, 9, 70, 0
1, 57814, Control_c, 13, 1, 0
1, 57840, Note_on_c, 8, 55, 120
1, 57840, Note_on_c, 9, 54, 75
1, 57840, Note_on_c, 9, 36, 93
1, 57840, Note_on_c, 9, 69, 50
1, 57840, Note_on_c, 9, 46, 96
1, 57840, Note_on_c, 11, 63, 84
1, 57840, Note_on_c, 11, 60, 90
1, 57840, Note_on_c, 12, 60, 82
1, 57840, Note_on_c, 12, 63, 87
1, 57840, Note_on_c, 12, 70, 93
1, 57840, Note_on_c, 13, 55, 120
1, 57841, Note_on_c, 11, 70, 90
1, 57890, Note_on_c, 9, 54, 0
1, 57896, Note_on_c, 9, 69, 0
1, 57929, Note_on_c, 9, 36, 0
1, 57929, Note_on_c, 9, 46, 0
1, 57960, Note_on_c, 9, 54, 27
1, 57960, Note_on_c, 9, 70, 56
1, 58007, Note_on_c, 9, 54, 0
1, 58021, Note_on_c, 7, 36, 0
1, 58050, Note_on_c, 12, 60, 0
1, 58051, Note_on_c, 9, 70, 0
1, 58080, Note_on_c, 9, 54, 68
1, 58080, Note_on_c, 9, 38, 120
1, 58080, Note_on_c, 9, 69, 41
1, 58080, Note_on_c, 9, 46, 87
1, 58080, Note_on_c, 12, 60, 66
1, 58103, Note_on_c, 7, 48, 0
1, 58129, Note_on_c, 9, 54, 0
1, 58129, Note_on_c, 9, 69, 0
1, 58130, Note_on_c, 7, 58, 0
1, 58139, Note_on_c, 7, 55, 0
1, 58140, Note_on_c, 7, 63, 0
1, 58143, Note_on_c, 9, 46, 0
1, 58160, Note_on_c, 11, 60, 0
1, 58167, Note_on_c, 11, 63, 0
1, 58193, Note_on_c, 11, 70, 0
1, 58200, Note_on_c, 9, 54, 28
1, 58200, Note_on_c, 9, 70, 48
1, 58200, Note_on_c, 11, 70, 57
1, 58200, Note_on_c, 11, 60, 64
1, 58200, Note_on_c, 11, 63, 59
1, 58243, Note_on_c, 9, 54, 0
1, 58284, Note_on_c, 12, 63, 0
1, 58297, Note_on_c, 9, 70, 0
1, 58297, Note_on_c, 12, 60, 0
1, 58304, Note_on_c, 9, 38, 0
1, 58315, Note_on_c, 11, 70, 0
1, 58315, Note_on_c, 11, 60, 0
1, 58315, Note_on_c, 11, 63, 0
1, 58320, Note_on_c, 1, 31, 102
1, 58320, Note_on_c, 8, 56, 114
1, 58320, Note_on_c, 9, 36, 80
1, 58320, Note_on_c, 9, 69, 53
1, 58320, Note_on_c, 9, 54, 73
1, 58320, Note_on_c, 11, 60, 50
1, 58320, Note_on_c, 11, 63, 66
1, 58320, Note_on_c, 11, 70, 68
1, 58320, Note_on_c, 12, 60, 35
1, 58320, Note_on_c, 12, 63, 59
1, 58320, Note_on_c, 13, 56, 114
1, 58328, Note_on_c, 8, 55, 0
1, 58328, Note_on_c, 13, 55, 0
1, 58337, Note_on_c, 1, 36, 0
1, 58347, Note_on_c, 12, 70, 0
1, 58361, Note_on_c, 9, 36, 0
1, 58371, Note_on_c, 9, 54, 0
1, 58391, Note_on_c, 9, 69, 0
1, 58435, Note_on_c, 11, 60, 0
1, 58435, Note_on_c, 11, 63, 0
1, 58435, Note_on_c, 11, 70, 0
1, 58440, Note_on_c, 9, 54, 30
1, 58440, Note_on_c, 11, 60, 46
1, 58440, Note_on_c, 11, 70, 37
1, 58440, Note_on_c, 11, 63, 44
1, 58455, Note_on_c, 12, 60, 0
1, 58482, Note_on_c, 9, 54, 0
1, 58486, Note_on_c, 5, 55, 0
1, 58494, Note_on_c, 11, 70, 0
1, 58508, Note_on_c, 11, 60, 0
1, 58509, Note_on_c, 11, 63, 0
1, 58557, Control_c, 7, 64, 0
1, 58558, Note_on_c, 2, 79, 0
1, 58560, Note_on_c, 1, 32, 111
1, 58560, Note_on_c, 7, 58, 76
1, 58560, Note_on_c, 7, 63, 74
1, 58560, Note_on_c, 7, 51, 82
1, 58560, Note_on_c, 7, 44, 87
1, 58560, Note_on_c, 7, 56, 66
1, 58560, Note_on_c, 5, 56, 84
1, 58560, Note_on_c, 9, 36, 114
1, 58560, Note_on_c, 9, 42, 105
1, 58560, Note_on_c, 9, 69, 51
1, 58560, Note_on_c, 9, 54, 78
1, 58560, Note_on_c, 10, 56, 74
1, 58560, Note_on_c, 11, 60, 96
1, 58560, Note_on_c, 11, 70, 99
1, 58560, Note_on_c, 11, 63, 90
1, 58560, Note_on_c, 12, 60, 84
1, 58560, Note_on_c, 12, 70, 99
1, 58560, Note_on_c, 2, 80, 72
1, 58565, Note_on_c, 10, 55, 0
1, 58598, Note_on_c, 1, 31, 0
1, 58615, Note_on_c, 9, 54, 0
1, 58618, Note_on_c, 9, 42, 0
1, 58640, Note_on_c, 9, 69, 0
1, 58680, Note_on_c, 9, 54, 27
1, 58680, Note_on_c, 9, 42, 59
1, 58680, Note_on_c, 9, 70, 54
1, 58715, Note_on_c, 9, 42, 0
1, 58726, Note_on_c, 9, 54, 0
1, 58773, Note_on_c, 9, 70, 0
1, 58778, Note_on_c, 9, 36, 0
1, 58800, Note_on_c, 9, 54, 75
1, 58800, Note_on_c, 9, 42, 70
1, 58800, Note_on_c, 9, 69, 44
1, 58846, Note_on_c, 9, 42, 0
1, 58851, Note_on_c, 9, 54, 0
1, 58873, Note_on_c, 9, 69, 0
1, 58891, Note_on_c, 12, 70, 0
1, 58920, Note_on_c, 9, 42, 64
1, 58920, Note_on_c, 9, 70, 56
1, 58920, Note_on_c, 9, 54, 27
1, 58956, Note_on_c, 9, 54, 0
1, 58958, Note_on_c, 9, 42, 0
1, 58970, Note_on_c, 12, 60, 0
1, 58971, Note_on_c, 11, 70, 0
1, 58985, Note_on_c, 11, 60, 0
1, 59002, Control_c, 8, 1, 4
1, 59002, Note_on_c, 11, 63, 0
1, 59002, Control_c, 13, 1, 4
1, 59003, Note_on_c, 12, 63, 0
1, 59022, Control_c, 7, 64, 127
1, 59022, Note_on_c, 9, 70, 0
1, 59024, Control_c, 8, 1, 11
1, 59024, Control_c, 13, 1, 11
1, 59039, Note_on_c, 11, 70, 96
1, 59039, Note_on_c, 11, 63, 84
1, 59040, Note_on_c, 9, 38, 114
1, 59040, Note_on_c, 9, 42, 105
1, 59040, Note_on_c, 9, 69, 32
1, 59040, Note_on_c, 9, 54, 78
1, 59040, Note_on_c, 11, 60, 70
1, 59040, Note_on_c, 12, 63, 70
1, 59040, Note_on_c, 12, 70, 99
1, 59040, Note_on_c, 12, 60, 96
1, 59056, Control_c, 8, 1, 18
1, 59056, Control_c, 13, 1, 18
1, 59095, Note_on_c, 9, 54, 0
1, 59098, Control_c, 8, 1, 29
1, 59098, Control_c, 13, 1, 29
1, 59101, Control_c, 2, 11, 123
1, 59105, Note_on_c, 9, 42, 0
1, 59119, Note_on_c, 9, 69, 0
1, 59139, Control_c, 2, 11, 122
1, 59160, Note_on_c, 9, 70, 53
1, 59160, Note_on_c, 9, 54, 18
1, 59160, Note_on_c, 9, 42, 24
1, 59177, Control_c, 2, 11, 121
1, 59196, Control_c, 8, 1, 36
1, 59196, Control_c, 13, 1, 36
1, 59205, Note_on_c, 9, 42, 0
1, 59207, Control_c, 2, 11, 120
1, 59208, Note_on_c, 9, 54, 0
1, 59245, Control_c, 2, 11, 119
1, 59248, Note_on_c, 9, 70, 0
1, 59276, Control_c, 2, 11, 118
1, 59280, Note_on_c, 9, 54, 75
1, 59280, Note_on_c, 9, 42, 72
1, 59280, Note_on_c, 9, 69, 45
1, 59312, Note_on_c, 12, 70, 0
1, 59314, Control_c, 2, 11, 117
1, 59328, Note_on_c, 9, 38, 0
1, 59333, Note_on_c, 9, 54, 0
1, 59344, Note_on_c, 9, 42, 0
1, 59344, Control_c, 2, 11, 116
1, 59350, Note_on_c, 12, 60, 0
1, 59351, Note_on_c, 9, 69, 0
1, 59362, Note_on_c, 7, 58, 0
1, 59373, Note_on_c, 11, 63, 0
1, 59374, Note_on_c, 11, 60, 0
1, 59375, Note_on_c, 11, 70, 0
1, 59380, Note_on_c, 12, 63, 0
1, 59383, Control_c, 2, 11, 115
1, 59400, Note_on_c, 9, 36, 102
1, 59400, Note_on_c, 9, 54, 39
1, 59400, Note_on_c, 9, 70, 51
1, 59400, Note_on_c, 9, 42, 62
1, 59400, Note_on_c, 11, 70, 84
1, 59400, Note_on_c, 11, 60, 84
1, 59400, Note_on_c, 11, 63, 84
1, 59400, Note_on_c, 12, 60, 82
1, 59400, Note_on_c, 12, 70, 93
1, 59400, Note_on_c, 12, 63, 82
1, 59413, Control_c, 2, 11, 114
1, 59431, Note_on_c, 9, 54, 0
1, 59440, Note_on_c, 9, 42, 0
1, 59451, Control_c, 2, 11, 113
1, 59458, Note_on_c, 9, 36, 0
1, 59475, Control_c, 8, 1, 26
1, 59475, Control_c, 13, 1, 26
1, 59484, Note_on_c, 9, 70, 0
1, 59489, Control_c, 2, 11, 112
1, 59508, Control_c, 8, 1, 18
1, 59508, Control_c, 13, 1, 18
1, 59520, Note_on_c, 7, 60, 41
1, 59520, Note_on_c, 9, 69, 32
1, 59520, Note_on_c, 9, 42, 93
1, 59520, Note_on_c, 9, 54, 78
1, 59520, Control_c, 2, 11, 111
1, 59529, Control_c, 13, 1, 11
1, 59541, Note_on_c, 8, 56, 0
1, 59541, Note_on_c, 13, 56, 0
1, 59550, Control_c, 13, 1, 0
1, 59558, Control_c, 2, 11, 110
1, 59566, Note_on_c, 7, 56, 0
1, 59572, Note_on_c, 9, 54, 0
1, 59584, Note_on_c, 12, 63, 0
1, 59588, Control_c, 2, 11, 109
1, 59589, Note_on_c, 11, 63, 0
1, 59590, Note_on_c, 7, 63, 0
1, 59592, Note_on_c, 11, 60, 0
1, 59593, Note_on_c, 9, 69, 0
1, 59596, Note_on_c, 9, 42, 0
1, 59599, Note_on_c, 12, 60, 0
1, 59610, Note_on_c, 7, 60, 0
1, 59626, Control_c, 2, 11, 108
1, 59634, Note_on_c, 12, 70, 0
1, 59640, Note_on_c, 9, 42, 59
1, 59640, Note_on_c, 9, 36, 109
1, 59640, Note_on_c, 9, 54, 30
1, 59640, Note_on_c, 9, 70, 41
1, 59640, Note_on_c, 11, 60, 46
1, 59640, Note_on_c, 11, 63, 30
1, 59640, Note_on_c, 12, 63, 57
1, 59640, Note_on_c, 12, 60, 27
1, 59657, Control_c, 2, 11, 107
1, 59672, Note_on_c, 9, 36, 0
1, 59675, Note_on_c, 11, 63, 0
1, 59686, Note_on_c, 9, 42, 0
1, 59686, Note_on_c, 12, 60, 0
1, 59693, Note_on_c, 11, 60, 0
1, 59695, Control_c, 2, 11, 106
1, 59697, Note_on_c, 9, 54, 0
1, 59698, Note_on_c, 11, 70, 0
1, 59707, Note_on_c, 12, 63, 0
1, 59725, Control_c, 2, 11, 105
1, 59747, Note_on_c, 9, 70, 0
1, 59760, Lyric_t, "Yes "
1, 59760, Note_on_c, 7, 67, 93
1, 59760, Note_on_c, 3, 75, 108
1, 59760, Note_on_c, 9, 69, 44
1, 59760, Note_on_c, 9, 46, 87
1, 59760, Note_on_c, 9, 54, 73
1, 59760, Note_on_c, 9, 36, 114
1, 59760, Note_on_c, 11, 60, 80
1, 59760, Note_on_c, 12, 63, 90
1, 59760, Note_on_c, 12, 60, 80
1, 59760, Note_on_c, 12, 70, 96
1, 59760, Note_on_c, 13, 67, 76
1, 59761, Note_on_c, 11, 70, 90
1, 59761, Note_on_c, 11, 63, 80
1, 59763, Control_c, 2, 11, 104
1, 59794, Control_c, 2, 11, 103
1, 59815, Note_on_c, 9, 54, 0
1, 59831, Note_on_c, 9, 69, 0
1, 59832, Control_c, 2, 11, 102
1, 59851, Note_on_c, 7, 67, 0
1, 59851, Note_on_c, 9, 46, 0
1, 59870, Control_c, 2, 11, 101
1, 59880, Note_on_c, 9, 70, 51
1, 59880, Note_on_c, 9, 54, 28
1, 59901, Control_c, 2, 11, 100
1, 59908, Note_on_c, 9, 36, 0
1, 59926, Note_on_c, 3, 75, 0
1, 59927, Note_on_c, 9, 54, 0
1, 59939, Control_c, 2, 11, 99
1, 59961, Note_on_c, 13, 67, 0
1, 59969, Control_c, 2, 11, 98
1, 59970, Note_on_c, 1, 32, 0
1, 59977, Note_on_c, 9, 70, 0
1, 59990, Control_c, 7, 64, 0
1, 60000, Lyric_t, "she "
1, 60000, Note_on_c, 1, 34, 99
1, 60000, Note_on_c, 7, 67, 105
1, 60000, Note_on_c, 3, 75, 111
1, 60000, Note_on_c, 9, 38, 111
1, 60000, Note_on_c, 9, 46, 102
1, 60000, Note_on_c, 9, 69, 33
1, 60000, Note_on_c, 9, 54, 68
1, 60000, Note_on_c, 13, 67, 66
1, 60007, Control_c, 2, 11, 97
1, 60038, Control_c, 2, 11, 96
1, 60055, Note_on_c, 9, 54, 0
1, 60063, Note_on_c, 11, 60, 0
1, 60076, Control_c, 2, 11, 95
1, 60080, Note_on_c, 9, 69, 0
1, 60088, Note_on_c, 9, 46, 0
1, 60089, Note_on_c, 11, 63, 0
1, 60106, Control_c, 2, 11, 94
1, 60117, Note_on_c, 3, 75, 0
1, 60118, Note_on_c, 11, 70, 0
1, 60120, Lyric_t, "caught "
1, 60120, Note_on_c, 7, 65, 76
1, 60120, Note_on_c, 3, 82, 105
1, 60120, Note_on_c, 9, 54, 25
1, 60120, Note_on_c, 9, 70, 43
1, 60120, Note_on_c, 11, 63, 49
1, 60120, Note_on_c, 11, 60, 51
1, 60120, Note_on_c, 11, 70, 52
1, 60120, Note_on_c, 13, 65, 64
1, 60141, Note_on_c, 12, 70, 0
1, 60141, Note_on_c, 13, 67, 0
1, 60144, Control_c, 2, 11, 93
1, 60152, Note_on_c, 9, 54, 0
1, 60170, Note_on_c, 7, 67, 0
1, 60183, Control_c, 2, 11, 92
1, 60189, Note_on_c, 12, 60, 0
1, 60206, Note_on_c, 9, 70, 0
1, 60213, Control_c, 2, 11, 91
1, 60218, Note_on_c, 9, 38, 0
1, 60226, Note_on_c, 12, 63, 0
1, 60237, Note_on_c, 11, 63, 0
1, 60237, Note_on_c, 11, 60, 0
1, 60237, Note_on_c, 11, 70, 0
1, 60240, Note_on_c, 1, 38, 96
1, 60240, Note_on_c, 7, 63, 93
1, 60240, Note_on_c, 9, 69, 48
1, 60240, Note_on_c, 9, 54, 78
1, 60240, Note_on_c, 9, 36, 108
1, 60240, Note_on_c, 9, 42, 62
1, 60240, Note_on_c, 11, 70, 90
1, 60240, Note_on_c, 11, 60, 84
1, 60240, Note_on_c, 11, 63, 84
1, 60240, Note_on_c, 13, 63, 68
1, 60241, Note_on_c, 13, 65, 0
1, 60251, Control_c, 2, 11, 90
1, 60259, Note_on_c, 5, 63, 0
1, 60275, Note_on_c, 9, 42, 0
1, 60278, Note_on_c, 1, 34, 0
1, 60280, Note_on_c, 7, 65, 0
1, 60282, Control_c, 2, 11, 89
1, 60296, Note_on_c, 7, 51, 0
1, 60296, Note_on_c, 9, 54, 0
1, 60303, Note_on_c, 9, 69, 0
1, 60320, Note_on_c, 7, 44, 0
1, 60320, Control_c, 2, 11, 88
1, 60341, Note_on_c, 11, 60, 0
1, 60342, Note_on_c, 11, 63, 0
1, 60350, Control_c, 2, 11, 87
1, 60356, Note_on_c, 5, 60, 0
1, 60360, Note_on_c, 9, 70, 56
1, 60360, Note_on_c, 9, 54, 28
1, 60360, Note_on_c, 9, 38, 118
1, 60360, Note_on_c, 9, 42, 66
1, 60360, Note_on_c, 11, 63, 66
1, 60360, Note_on_c, 11, 60, 38
1, 60381, Note_on_c, 5, 72, 0
1, 60383, Note_on_c, 9, 36, 0
1, 60385, Note_on_c, 7, 63, 0
1, 60388, Control_c, 2, 11, 86
1, 60396, Note_on_c, 9, 42, 0
1, 60398, Note_on_c, 9, 54, 0
1, 60412, Note_on_c, 5, 56, 0
1, 60419, Control_c, 2, 11, 85
1, 60425, Note_on_c, 11, 70, 0
1, 60426, Note_on_c, 10, 56, 0
1, 60427, Note_on_c, 11, 63, 0
1, 60427, Note_on_c, 11, 60, 0
1, 60427, Note_on_c, 2, 84, 0
1, 60439, Note_on_c, 13, 63, 0
1, 60455, Note_on_c, 2, 80, 0
1, 60457, Control_c, 2, 11, 84
1, 60470, Note_on_c, 9, 70, 0
1, 60480, Note_on_c, 1, 39, 102
1, 60480, Note_on_c, 7, 58, 74
1, 60480, Note_on_c, 7, 63, 76
1, 60480, Note_on_c, 7, 39, 87
1, 60480, Note_on_c, 7, 67, 80
1, 60480, Note_on_c, 9, 36, 108
1, 60480, Note_on_c, 9, 42, 94
1, 60480, Note_on_c, 9, 70, 63
1, 60480, Note_on_c, 12, 63, 90
1, 60480, Note_on_c, 12, 58, 102
1, 60480, Note_on_c, 12, 67, 90
1, 60480, Note_on_c, 2, 82, 72
1, 60480, Note_on_c, 2, 79, 72
1, 60487, Control_c, 2, 11, 83
1, 60511, Note_on_c, 1, 38, 0
1, 60525, Control_c, 2, 11, 82
1, 60554, Note_on_c, 9, 42, 0
1, 60563, Control_c, 2, 11, 81
1, 60568, Note_on_c, 9, 70, 0
1, 60594, Control_c, 2, 11, 80
1, 60600, Note_on_c, 9, 42, 49
1, 60600, Note_on_c, 9, 69, 38
1, 60632, Control_c, 2, 11, 79
1, 60644, Note_on_c, 9, 42, 0
1, 60663, Control_c, 2, 11, 78
1, 60668, Note_on_c, 9, 69, 0
1, 60670, Note_on_c, 3, 82, 0
1, 60701, Control_c, 2, 11, 77
1, 60720, Lyric_t, "my "
1, 60720, Note_on_c, 3, 82, 111
1, 60720, Note_on_c, 9, 42, 75
1, 60720, Note_on_c, 9, 70, 56
1, 60731, Control_c, 2, 11, 76
1, 60769, Control_c, 2, 11, 75
1, 60792, Note_on_c, 9, 42, 0
1, 60796, Note_on_c, 9, 70, 0
1, 60800, Control_c, 2, 11, 74
1, 60838, Note_on_c, 9, 38, 0
1, 60838, Control_c, 2, 11, 73
1, 60840, Note_on_c, 9, 42, 42
1, 60840, Note_on_c, 9, 69, 50
1, 60854, Note_on_c, 9, 36, 0
1, 60873, Note_on_c, 9, 42, 0
1, 60876, Control_c, 2, 11, 72
1, 60895, Note_on_c, 12, 67, 0
1, 60906, Note_on_c, 9, 69, 0
1, 60906, Control_c, 2, 11, 71
1, 60944, Control_c, 2, 11, 70
1, 60960, Note_on_c, 9, 42, 86
1, 60960, Note_on_c, 9, 70, 51
1, 60960, Note_on_c, 9, 38, 118
1, 60975, Control_c, 2, 11, 69
1, 60976, Control_c, 7, 64, 127
1, 61013, Control_c, 2, 11, 68
1, 61026, Note_on_c, 9, 42, 0
1, 61035, Note_on_c, 9, 70, 0
1, 61043, Control_c, 2, 11, 67
1, 61080, Note_on_c, 9, 42, 41
1, 61080, Note_on_c, 9, 69, 40
1, 61082, Control_c, 2, 11, 66
1, 61088, Note_on_c, 12, 63, 0
1, 61112, Control_c, 2, 11, 65
1, 61119, Note_on_c, 9, 42, 0
1, 61121, Control_c, 7, 64, 0
1, 61127, Control_c, 7, 64, 127
1, 61150, Control_c, 2, 11, 64
1, 61156, Note_on_c, 9, 69, 0
1, 61181, Control_c, 2, 11, 63
1, 61200, Lyric_t, "eye "
1, 61200, Lyric_t, "\015"
1, 61200, Note_on_c, 3, 75, 102
1, 61200, Note_on_c, 9, 42, 75
1, 61200, Note_on_c, 9, 70, 53
1, 61219, Control_c, 2, 11, 62
1, 61243, Note_on_c, 12, 58, 0
1, 61257, Control_c, 2, 11, 61
1, 61258, Note_on_c, 3, 82, 0
1, 61267, Control_c, 7, 64, 0
1, 61268, Note_on_c, 9, 42, 0
1, 61272, Control_c, 7, 64, 127
1, 61283, Note_on_c, 9, 38, 0
1, 61283, Note_on_c, 9, 70, 0
1, 61287, Control_c, 2, 11, 60
1, 61320, Note_on_c, 9, 42, 52
1, 61320, Note_on_c, 9, 69, 43
1, 61325, Control_c, 2, 11, 59
1, 61356, Control_c, 2, 11, 58
1, 61358, Note_on_c, 9, 42, 0
1, 61369, Note_on_c, 9, 69, 0
1, 61394, Control_c, 2, 11, 57
1, 61402, Control_c, 7, 64, 0
1, 61406, Control_c, 7, 64, 127
1, 61413, Control_c, 7, 64, 0
1, 61424, Control_c, 2, 11, 56
1, 61440, Note_on_c, 9, 42, 75
1, 61440, Note_on_c, 9, 70, 53
1, 61463, Control_c, 2, 11, 55
1, 61493, Control_c, 2, 11, 54
1, 61506, Note_on_c, 9, 42, 0
1, 61508, Note_on_c, 1, 39, 0
1, 61519, Note_on_c, 9, 70, 0
1, 61531, Control_c, 2, 11, 53
1, 61560, Note_on_c, 1, 39, 62
1, 61560, Note_on_c, 9, 36, 76
1, 61560, Note_on_c, 9, 42, 55
1, 61560, Note_on_c, 9, 69, 27
1, 61569, Control_c, 2, 11, 52
1, 61590, Note_on_c, 9, 36, 0
1, 61600, Control_c, 2, 11, 51
1, 61605, Note_on_c, 2, 82, 0
1, 61605, Note_on_c, 2, 79, 0
1, 61609, Note_on_c, 1, 39, 0
1, 61609, Note_on_c, 9, 42, 0
1, 61636, Note_on_c, 2, 75, 0
1, 61638, Control_c, 2, 11, 50
1, 61660, Note_on_c, 9, 69, 0
1, 61668, Control_c, 2, 11, 49
1, 61680, Note_on_c, 1, 39, 87
1, 61680, Note_on_c, 9, 36, 99
1, 61680, Note_on_c, 9, 42, 68
1, 61680, Note_on_c, 9, 70, 58
1, 61688, Note_on_c, 3, 75, 0
1, 61690, Note_on_c, 7, 67, 0
1, 61692, Note_on_c, 7, 63, 0
1, 61704, Control_c, 7, 64, 127
1, 61706, Control_c, 2, 11, 48
1, 61707, Note_on_c, 7, 58, 0
1, 61728, Control_c, 7, 64, 0
1, 61736, Note_on_c, 9, 42, 0
1, 61737, Control_c, 2, 11, 47
1, 61749, Control_c, 7, 64, 127
1, 61767, Note_on_c, 9, 70, 0
1, 61775, Control_c, 2, 11, 46
1, 61800, Note_on_c, 9, 42, 55
1, 61800, Note_on_c, 9, 69, 27
1, 61805, Control_c, 2, 11, 45
1, 61833, Note_on_c, 9, 36, 0
1, 61836, Note_on_c, 9, 42, 0
1, 61843, Control_c, 2, 11, 44
1, 61874, Control_c, 2, 11, 43
1, 61878, Control_c, 7, 64, 0
1, 61879, Note_on_c, 9, 69, 0
1, 61899, Control_c, 7, 64, 127
1, 61920, Note_on_c, 1, 46, 87
1, 61920, Note_on_c, 7, 63, 72
1, 61920, Note_on_c, 7, 67, 74
1, 61920, Note_on_c, 7, 51, 76
1, 61920, Note_on_c, 7, 58, 72
1, 61920, Note_on_c, 9, 42, 78
1, 61920, Note_on_c, 9, 70, 54
1, 61920, Note_on_c, 9, 38, 122
1, 61920, Note_on_c, 12, 67, 82
1, 61920, Note_on_c, 12, 63, 78
1, 61920, Note_on_c, 12, 58, 99
1, 61927, Control_c, 7, 64, 0
1, 61937, Note_on_c, 1, 39, 0
1, 61982, Note_on_c, 9, 42, 0
1, 62013, Note_on_c, 9, 70, 0
1, 62040, Note_on_c, 9, 42, 48
1, 62040, Note_on_c, 9, 69, 41
1, 62079, Note_on_c, 9, 42, 0
1, 62121, Note_on_c, 9, 69, 0
1, 62160, Lyric_t, "as "
1, 62160, Note_on_c, 1, 39, 78
1, 62160, Note_on_c, 3, 75, 93
1, 62160, Note_on_c, 9, 42, 78
1, 62160, Note_on_c, 9, 70, 51
1, 62190, Note_on_c, 1, 46, 0
1, 62200, Note_on_c, 3, 75, 0
1, 62217, Note_on_c, 9, 42, 0
1, 62246, Note_on_c, 9, 38, 0
1, 62251, Note_on_c, 9, 70, 0
1, 62253, Control_c, 2, 11, 126
1, 62280, Lyric_t, "I "
1, 62280, Note_on_c, 3, 75, 99
1, 62280, Note_on_c, 9, 42, 36
1, 62280, Note_on_c, 9, 69, 40
1, 62293, Note_on_c, 7, 39, 0
1, 62307, Note_on_c, 7, 51, 0
1, 62315, Note_on_c, 7, 67, 0
1, 62319, Note_on_c, 9, 42, 0
1, 62320, Note_on_c, 12, 63, 0
1, 62331, Note_on_c, 12, 58, 0
1, 62337, Note_on_c, 3, 75, 0
1, 62341, Note_on_c, 7, 63, 0
1, 62341, Note_on_c, 12, 67, 0
1, 62350, Note_on_c, 7, 58, 0
1, 62368, Note_on_c, 9, 69, 0
1, 62400, Lyric_t, "walked "
1, 62400, Note_on_c, 1, 38, 99
1, 62400, Note_on_c, 7, 38, 76
1, 62400, Note_on_c, 7, 50, 70
1, 62400, Note_on_c, 7, 65, 74
1, 62400, Note_on_c, 7, 62, 80
1, 62400, Note_on_c, 7, 58, 62
1, 62400, Note_on_c, 3, 82, 99
1, 62400, Note_on_c, 9, 36, 111
1, 62400, Note_on_c, 9, 42, 78
1, 62400, Note_on_c, 9, 70, 50
1, 62400, Note_on_c, 12, 65, 80
1, 62400, Note_on_c, 12, 62, 84
1, 62400, Note_on_c, 12, 58, 90
1, 62415, Note_on_c, 1, 39, 0
1, 62453, Note_on_c, 9, 42, 0
1, 62501, Note_on_c, 9, 70, 0
1, 62520, Note_on_c, 9, 42, 49
1, 62520, Note_on_c, 9, 69, 51
1, 62544, Note_on_c, 3, 82, 0
1, 62563, Note_on_c, 9, 42, 0
1, 62600, Note_on_c, 9, 69, 0
1, 62609, Note_on_c, 9, 36, 0
1, 62640, Lyric_t, "on "
1, 62640, Note_on_c, 3, 82, 102
1, 62640, Note_on_c, 9, 42, 78
1, 62640, Note_on_c, 9, 70, 54
1, 62703, Note_on_c, 9, 42, 0
1, 62733, Note_on_c, 9, 70, 0
1, 62760, Note_on_c, 9, 42, 37
1, 62760, Note_on_c, 9, 69, 44
1, 62797, Note_on_c, 9, 42, 0
1, 62833, Note_on_c, 9, 69, 0
1, 62871, Control_c, 7, 64, 127
1, 62880, Note_on_c, 9, 42, 73
1, 62880, Note_on_c, 9, 70, 56
1, 62880, Note_on_c, 9, 38, 125
1, 62928, Note_on_c, 12, 65, 0
1, 62932, Note_on_c, 12, 62, 0
1, 62956, Note_on_c, 9, 42, 0
1, 62982, Note_on_c, 9, 70, 0
1, 63000, Note_on_c, 9, 42, 44
1, 63000, Note_on_c, 9, 69, 32
1, 63001, Note_on_c, 12, 58, 0
1, 63047, Note_on_c, 9, 42, 0
1, 63079, Note_on_c, 9, 69, 0
1, 63111, Note_on_c, 3, 82, 0
1, 63120, Lyric_t, "by. "
1, 63120, Lyric_t, "\015"
1, 63120, Note_on_c, 3, 75, 105
1, 63120, Note_on_c, 9, 42, 70
1, 63120, Note_on_c, 9, 70, 53
1, 63159, Note_on_c, 9, 38, 0
1, 63181, Note_on_c, 9, 42, 0
1, 63208, Note_on_c, 9, 70, 0
1, 63240, Note_on_c, 9, 36, 90
1, 63240, Note_on_c, 9, 42, 39
1, 63240, Note_on_c, 9, 69, 45
1, 63276, Note_on_c, 9, 42, 0
1, 63287, Note_on_c, 7, 65, 0
1, 63311, Note_on_c, 9, 69, 0
1, 63341, Note_on_c, 7, 62, 0
1, 63344, Control_c, 7, 64, 0
1, 63350, Control_c, 7, 64, 127
1, 63358, Note_on_c, 7, 50, 0
1, 63360, Note_on_c, 9, 36, 0
1, 63360, Note_on_c, 9, 42, 75
1, 63360, Note_on_c, 9, 70, 51
1, 63361, Note_on_c, 7, 58, 0
1, 63366, Control_c, 7, 64, 0
1, 63374, Control_c, 7, 64, 127
1, 63396, Control_c, 7, 64, 0
1, 63412, Control_c, 7, 64, 127
1, 63423, Control_c, 7, 64, 0
1, 63426, Note_on_c, 9, 42, 0
1, 63428, Control_c, 7, 64, 127
1, 63444, Note_on_c, 9, 70, 0
1, 63480, Note_on_c, 9, 42, 59
1, 63480, Note_on_c, 9, 69, 32
1, 63525, Note_on_c, 9, 42, 0
1, 63526, Note_on_c, 3, 75, 0
1, 63544, Note_on_c, 1, 38, 0
1, 63553, Note_on_c, 9, 69, 0
1, 63584, Control_c, 7, 64, 0
1, 63589, Control_c, 7, 64, 127
1, 63600, Note_on_c, 1, 38, 80
1, 63600, Note_on_c, 7, 65, 84
1, 63600, Note_on_c, 7, 62, 90
1, 63600, Note_on_c, 7, 58, 76
1, 63600, Note_on_c, 9, 36, 108
1, 63600, Note_on_c, 9, 42, 66
1, 63600, Note_on_c, 9, 70, 41
1, 63600, Note_on_c, 12, 62, 96
1, 63600, Note_on_c, 12, 58, 90
1, 63600, Note_on_c, 12, 65, 90
1, 63612, Control_c, 7, 64, 0
1, 63659, Note_on_c, 9, 42, 0
1, 63707, Note_on_c, 9, 70, 0
1, 63720, Note_on_c, 9, 42, 52
1, 63720, Note_on_c, 9, 69, 44
1, 63769, Note_on_c, 9, 36, 0
1, 63777, Note_on_c, 9, 42, 0
1, 63791, Note_on_c, 9, 69, 0
1, 63840, Note_on_c, 1, 46, 93
1, 63840, Note_on_c, 9, 42, 75
1, 63840, Note_on_c, 9, 70, 51
1, 63840, Note_on_c, 9, 38, 122
1, 63858, Note_on_c, 1, 38, 0
1, 63877, Note_on_c, 7, 38, 0
1, 63891, Note_on_c, 9, 42, 0
1, 63937, Note_on_c, 9, 70, 0
1, 63960, Note_on_c, 9, 42, 55
1, 63960, Note_on_c, 9, 69, 33
1, 63991, Note_on_c, 12, 58, 0
1, 63996, Note_on_c, 12, 62, 0
1, 63997, Note_on_c, 12, 65, 0
1, 63999, Note_on_c, 9, 42, 0
1, 64020, Note_on_c, 9, 38, 0
1, 64040, Note_on_c, 9, 69, 0
1, 64080, Lyric_t, "she "
1, 64080, Note_on_c, 1, 38, 87
1, 64080, Note_on_c, 3, 75, 99
1, 64080, Note_on_c, 9, 46, 80
1, 64080, Note_on_c, 9, 70, 43
1, 64106, Note_on_c, 1, 46, 0
1, 64137, Note_on_c, 3, 75, 0
1, 64166, Note_on_c, 9, 70, 0
1, 64200, Lyric_t, "could "
1, 64200, Note_on_c, 3, 75, 90
1, 64200, Note_on_c, 9, 69, 48
1, 64218, Note_on_c, 9, 46, 0
1, 64262, Note_on_c, 3, 75, 0
1, 64263, Note_on_c, 9, 69, 0
1, 64311, Note_on_c, 7, 65, 0
1, 64312, Note_on_c, 7, 62, 0
1, 64316, Note_on_c, 7, 58, 0
1, 64320, Lyric_t, "see "
1, 64320, Note_on_c, 1, 38, 0
1, 64320, Note_on_c, 1, 36, 105
1, 64320, Note_on_c, 7, 63, 72
1, 64320, Note_on_c, 7, 60, 76
1, 64320, Note_on_c, 7, 55, 59
1, 64320, Note_on_c, 7, 48, 76
1, 64320, Note_on_c, 3, 75, 105
1, 64320, Note_on_c, 9, 36, 108
1, 64320, Note_on_c, 9, 42, 78
1, 64320, Note_on_c, 9, 70, 56
1, 64320, Note_on_c, 12, 55, 68
1, 64320, Note_on_c, 12, 63, 74
1, 64320, Note_on_c, 12, 60, 70
1, 64320, Note_on_c, 2, 72, 49
1, 64320, Note_on_c, 2, 75, 57
1, 64373, Note_on_c, 9, 42, 0
1, 64430, Note_on_c, 9, 70, 0
1, 64440, Note_on_c, 9, 42, 49
1, 64440, Note_on_c, 9, 69, 27
1, 64479, Note_on_c, 3, 75, 0
1, 64483, Note_on_c, 9, 42, 0
1, 64526, Note_on_c, 9, 69, 0
1, 64560, Lyric_t, "from "
1, 64560, Note_on_c, 3, 75, 102
1, 64560, Note_on_c, 9, 42, 78
1, 64560, Note_on_c, 9, 70, 45
1, 64623, Note_on_c, 9, 42, 0
1, 64656, Note_on_c, 9, 70, 0
1, 64656, Control_c, 2, 11, 125
1, 64668, Control_c, 2, 11, 124
1, 64680, Note_on_c, 9, 42, 37
1, 64680, Note_on_c, 9, 69, 33
1, 64680, Control_c, 2, 11, 123
1, 64692, Control_c, 2, 11, 122
1, 64694, Note_on_c, 9, 36, 0
1, 64704, Control_c, 2, 11, 121
1, 64716, Control_c, 2, 11, 120
1, 64717, Note_on_c, 9, 42, 0
1, 64728, Control_c, 2, 11, 119
1, 64740, Control_c, 2, 11, 118
1, 64745, Note_on_c, 9, 69, 0
1, 64752, Control_c, 2, 11, 117
1, 64764, Control_c, 2, 11, 116
1, 64776, Control_c, 2, 11, 115
1, 64788, Control_c, 2, 11, 114
1, 64797, Note_on_c, 3, 75, 0
1, 64800, Lyric_t, "my "
1, 64800, Note_on_c, 3, 77, 102
1, 64800, Note_on_c, 9, 42, 73
1, 64800, Note_on_c, 9, 70, 54
1, 64800, Note_on_c, 9, 38, 118
1, 64800, Control_c, 2, 11, 113
1, 64812, Control_c, 2, 11, 112
1, 64824, Control_c, 2, 11, 111
1, 64836, Control_c, 2, 11, 110
1, 64848, Control_c, 2, 11, 109
1, 64860, Control_c, 2, 11, 108
1, 64872, Control_c, 2, 11, 107
1, 64876, Note_on_c, 9, 42, 0
1, 64884, Control_c, 2, 11, 106
1, 64896, Control_c, 2, 11, 105
1, 64899, Note_on_c, 9, 70, 0
1, 64908, Control_c, 2, 11, 104
1, 64920, Note_on_c, 9, 42, 44
1, 64920, Note_on_c, 9, 69, 39
1, 64920, Control_c, 2, 11, 103
1, 64932, Control_c, 2, 11, 102
1, 64944, Control_c, 2, 11, 101
1, 64956, Control_c, 2, 11, 100
1, 64967, Note_on_c, 9, 42, 0
1, 64968, Control_c, 2, 11, 98
1, 64980, Control_c, 2, 11, 97
1, 64992, Control_c, 2, 11, 96
1, 64994, Note_on_c, 9, 69, 0
1, 65004, Control_c, 2, 11, 95
1, 65016, Control_c, 2, 11, 94
1, 65028, Control_c, 2, 11, 93
1, 65040, Lyric_t, "face "
1, 65040, Lyric_t, "\015"
1, 65040, Note_on_c, 3, 75, 108
1, 65040, Note_on_c, 9, 42, 70
1, 65040, Note_on_c, 9, 70, 51
1, 65040, Control_c, 2, 11, 92
1, 65052, Control_c, 2, 11, 91
1, 65064, Control_c, 2, 11, 90
1, 65069, Note_on_c, 3, 77, 0
1, 65076, Control_c, 2, 11, 89
1, 65088, Control_c, 2, 11, 88
1, 65100, Control_c, 2, 11, 87
1, 65101, Note_on_c, 9, 42, 0
1, 65112, Control_c, 2, 11, 86
1, 65123, Note_on_c, 9, 38, 0
1, 65124, Control_c, 2, 11, 85
1, 65135, Note_on_c, 9, 70, 0
1, 65136, Control_c, 2, 11, 84
1, 65148, Control_c, 2, 11, 83
1, 65160, Note_on_c, 9, 42, 39
1, 65160, Note_on_c, 9, 69, 44
1, 65160, Control_c, 2, 11, 82
1, 65172, Control_c, 2, 11, 81
1, 65184, Control_c, 2, 11, 80
1, 65196, Note_on_c, 9, 42, 0
1, 65196, Control_c, 2, 11, 79
1, 65208, Control_c, 2, 11, 78
1, 65220, Control_c, 2, 11, 77
1, 65222, Note_on_c, 9, 69, 0
1, 65232, Control_c, 2, 11, 76
1, 65244, Control_c, 2, 11, 75
1, 65256, Control_c, 2, 11, 74
1, 65268, Control_c, 2, 11, 73
1, 65280, Note_on_c, 9, 42, 75
1, 65280, Note_on_c, 9, 70, 56
1, 65280, Control_c, 2, 11, 71
1, 65292, Control_c, 2, 11, 70
1, 65304, Control_c, 2, 11, 69
1, 65316, Control_c, 2, 11, 68
1, 65328, Control_c, 2, 11, 67
1, 65340, Control_c, 2, 11, 66
1, 65346, Note_on_c, 9, 42, 0
1, 65352, Control_c, 2, 11, 65
1, 65364, Control_c, 2, 11, 64
1, 65368, Note_on_c, 9, 70, 0
1, 65376, Control_c, 2, 11, 63
1, 65388, Control_c, 2, 11, 62
1, 65400, Note_on_c, 9, 36, 76
1, 65400, Note_on_c, 9, 42, 59
1, 65400, Note_on_c, 9, 69, 42
1, 65400, Control_c, 2, 11, 61
1, 65412, Control_c, 2, 11, 60
1, 65424, Control_c, 2, 11, 59
1, 65430, Note_on_c, 9, 36, 0
1, 65436, Control_c, 2, 11, 58
1, 65445, Note_on_c, 9, 42, 0
1, 65448, Control_c, 2, 11, 57
1, 65460, Note_on_c, 9, 69, 0
1, 65460, Control_c, 2, 11, 56
1, 65472, Control_c, 2, 11, 55
1, 65484, Control_c, 2, 11, 54
1, 65487, Note_on_c, 3, 75, 0
1, 65496, Control_c, 2, 11, 53
1, 65508, Control_c, 2, 11, 52
1, 65520, Note_on_c, 9, 36, 99
1, 65520, Note_on_c, 9, 42, 66
1, 65520, Note_on_c, 9, 70, 54
1, 65520, Control_c, 2, 11, 51
1, 65532, Control_c, 2, 11, 50
1, 65544, Control_c, 2, 11, 49
1, 65556, Control_c, 2, 11, 48
1, 65568, Control_c, 2, 11, 47
1, 65579, Note_on_c, 9, 42, 0
1, 65580, Control_c, 2, 11, 46
1, 65592, Control_c, 2, 11, 44
1, 65604, Control_c, 2, 11, 43
1, 65608, Note_on_c, 9, 70, 0
1, 65616, Control_c, 2, 11, 42
1, 65628, Control_c, 2, 11, 41
1, 65640, Lyric_t, "that "
1, 65640, Note_on_c, 3, 72, 105
1, 65640, Note_on_c, 9, 42, 52
1, 65640, Note_on_c, 9, 69, 50
1, 65640, Control_c, 2, 11, 40
1, 65652, Control_c, 2, 11, 39
1, 65664, Control_c, 2, 11, 38
1, 65673, Note_on_c, 9, 36, 0
1, 65676, Control_c, 2, 11, 37
1, 65688, Control_c, 2, 11, 36
1, 65696, Note_on_c, 9, 69, 0
1, 65697, Note_on_c, 9, 42, 0
1, 65700, Control_c, 2, 11, 35
1, 65712, Control_c, 2, 11, 34
1, 65724, Control_c, 2, 11, 33
1, 65736, Control_c, 2, 11, 32
1, 65748, Control_c, 2, 11, 31
1, 65760, Lyric_t, "I "
1, 65760, Note_on_c, 3, 75, 102
1, 65760, Note_on_c, 9, 42, 75
1, 65760, Note_on_c, 9, 70, 56
1, 65760, Note_on_c, 9, 38, 122
1, 65760, Control_c, 2, 11, 30
1, 65761, Note_on_c, 3, 72, 0
1, 65772, Control_c, 2, 11, 29
1, 65784, Note_on_c, 12, 55, 0
1, 65784, Control_c, 2, 11, 28
1, 65796, Control_c, 2, 11, 27
1, 65808, Control_c, 2, 11, 26
1, 65811, Note_on_c, 9, 42, 0
1, 65820, Control_c, 2, 11, 25
1, 65832, Control_c, 2, 11, 24
1, 65844, Control_c, 2, 11, 23
1, 65846, Note_on_c, 12, 60, 0
1, 65851, Note_on_c, 9, 70, 0
1, 65855, Note_on_c, 12, 63, 0
1, 65856, Control_c, 2, 11, 22
1, 65868, Control_c, 2, 11, 21
1, 65869, Note_on_c, 3, 75, 0
1, 65880, Lyric_t, "was "
1, 65880, Note_on_c, 3, 72, 102
1, 65880, Note_on_c, 9, 42, 55
1, 65880, Note_on_c, 9, 69, 41
1, 65880, Control_c, 2, 11, 20
1, 65892, Control_c, 2, 11, 18
1, 65919, Note_on_c, 9, 42, 0
1, 65929, Note_on_c, 9, 69, 0
1, 65960, Note_on_c, 2, 75, 0
1, 65988, Note_on_c, 2, 72, 0
1, 66000, Note_on_c, 1, 31, 102
1, 66000, Note_on_c, 9, 46, 80
1, 66000, Note_on_c, 9, 70, 48
1, 66001, Note_on_c, 1, 36, 0
1, 66086, Note_on_c, 9, 38, 0
1, 66097, Note_on_c, 9, 70, 0
1, 66120, Note_on_c, 9, 69, 53
1, 66138, Note_on_c, 9, 46, 0
1, 66168, Control_c, 2, 11, 126
1, 66191, Note_on_c, 9, 69, 0
1, 66198, Note_on_c, 3, 72, 0
1, 66205, Note_on_c, 7, 48, 0
1, 66226, Note_on_c, 7, 60, 0
1, 66229, Note_on_c, 7, 63, 0
1, 66230, Note_on_c, 7, 55, 0
1, 66240, Note_on_c, 1, 32, 114
1, 66240, Note_on_c, 7, 63, 74
1, 66240, Note_on_c, 7, 44, 80
1, 66240, Note_on_c, 7, 60, 74
1, 66240, Note_on_c, 7, 56, 59
1, 66240, Note_on_c, 7, 58, 68
1, 66240, Note_on_c, 9, 36, 108
1, 66240, Note_on_c, 9, 42, 73
1, 66240, Note_on_c, 9, 70, 51
1, 66240, Note_on_c, 12, 60, 68
1, 66240, Note_on_c, 12, 63, 66
1, 66240, Note_on_c, 12, 56, 84
1, 66240, Note_on_c, 2, 75, 74
1, 66240, Note_on_c, 2, 80, 78
1, 66240, Note_on_c, 2, 70, 44
1, 66251, Note_on_c, 1, 31, 0
1, 66316, Note_on_c, 9, 42, 0
1, 66318, Note_on_c, 9, 70, 0
1, 66360, Note_on_c, 9, 42, 44
1, 66360, Note_on_c, 9, 69, 43
1, 66404, Note_on_c, 9, 69, 0
1, 66407, Note_on_c, 9, 42, 0
1, 66456, Control_c, 2, 11, 126
1, 66480, Note_on_c, 9, 42, 70
1, 66480, Note_on_c, 9, 70, 48
1, 66492, Control_c, 2, 11, 125
1, 66516, Control_c, 2, 11, 124
1, 66540, Control_c, 2, 11, 123
1, 66541, Note_on_c, 9, 42, 0
1, 66557, Note_on_c, 9, 70, 0
1, 66564, Control_c, 2, 11, 122
1, 66588, Control_c, 2, 11, 121
1, 66600, Note_on_c, 9, 42, 39
1, 66600, Note_on_c, 9, 69, 47
1, 66612, Control_c, 2, 11, 120
1, 66614, Note_on_c, 9, 36, 0
1, 66636, Note_on_c, 9, 42, 0
1, 66636, Control_c, 2, 11, 119
1, 66644, Note_on_c, 9, 69, 0
1, 66660, Control_c, 2, 11, 118
1, 66684, Control_c, 2, 11, 117
1, 66708, Control_c, 2, 11, 116
1, 66720, Lyric_t, "fly"
1, 66720, Note_on_c, 3, 79, 111
1, 66720, Note_on_c, 9, 42, 75
1, 66720, Note_on_c, 9, 70, 54
1, 66720, Note_on_c, 9, 38, 118
1, 66732, Control_c, 2, 11, 115
1, 66756, Control_c, 2, 11, 114
1, 66780, Control_c, 2, 11, 113
1, 66786, Note_on_c, 9, 42, 0
1, 66796, Note_on_c, 9, 70, 0
1, 66816, Control_c, 2, 11, 112
1, 66840, Note_on_c, 9, 42, 59
1, 66840, Note_on_c, 9, 69, 30
1, 66840, Control_c, 2, 11, 111
1, 66864, Control_c, 2, 11, 110
1, 66883, Note_on_c, 9, 69, 0
1, 66885, Note_on_c, 9, 42, 0
1, 66888, Control_c, 2, 11, 109
1, 66912, Control_c, 2, 11, 108
1, 66917, Note_on_c, 3, 79, 0
1, 66936, Control_c, 2, 11, 107
1, 66960, Lyric_t, "ing "
1, 66960, Note_on_c, 3, 79, 99
1, 66960, Note_on_c, 9, 42, 66
1, 66960, Note_on_c, 9, 70, 58
1, 66960, Control_c, 2, 11, 106
1, 66984, Control_c, 2, 11, 105
1, 67008, Control_c, 2, 11, 104
1, 67019, Note_on_c, 9, 42, 0
1, 67032, Control_c, 2, 11, 103
1, 67043, Note_on_c, 9, 38, 0
1, 67051, Note_on_c, 9, 70, 0
1, 67056, Control_c, 2, 11, 102
1, 67080, Note_on_c, 9, 36, 105
1, 67080, Note_on_c, 9, 42, 52
1, 67080, Note_on_c, 9, 69, 47
1, 67080, Control_c, 2, 11, 101
1, 67104, Control_c, 2, 11, 100
1, 67128, Control_c, 2, 11, 99
1, 67130, Note_on_c, 9, 69, 0
1, 67137, Note_on_c, 9, 42, 0
1, 67154, Note_on_c, 9, 36, 0
1, 67164, Control_c, 2, 11, 98
1, 67188, Control_c, 2, 11, 97
1, 67189, Note_on_c, 3, 79, 0
1, 67200, Lyric_t, "high. "
1, 67200, Lyric_t, "\015"
1, 67200, Note_on_c, 3, 82, 108
1, 67200, Note_on_c, 9, 42, 75
1, 67200, Note_on_c, 9, 70, 51
1, 67212, Control_c, 2, 11, 96
1, 67236, Control_c, 2, 11, 95
1, 67251, Note_on_c, 9, 42, 0
1, 67260, Control_c, 2, 11, 94
1, 67270, Note_on_c, 9, 70, 0
1, 67284, Control_c, 2, 11, 93
1, 67308, Control_c, 2, 11, 92
1, 67320, Note_on_c, 9, 36, 76
1, 67320, Note_on_c, 9, 42, 55
1, 67320, Note_on_c, 9, 69, 38
1, 67332, Control_c, 2, 11, 91
1, 67350, Note_on_c, 9, 36, 0
1, 67356, Control_c, 2, 11, 90
1, 67359, Note_on_c, 9, 42, 0
1, 67380, Control_c, 2, 11, 89
1, 67381, Note_on_c, 9, 69, 0
1, 67404, Control_c, 2, 11, 88
1, 67428, Control_c, 2, 11, 87
1, 67440, Note_on_c, 3, 75, 102
1, 67440, Note_on_c, 9, 36, 99
1, 67440, Note_on_c, 9, 46, 80
1, 67440, Note_on_c, 9, 70, 58
1, 67449, Note_on_c, 3, 82, 0
1, 67452, Control_c, 2, 11, 86
1, 67488, Control_c, 2, 11, 85
1, 67510, Note_on_c, 2, 70, 0
1, 67512, Control_c, 2, 11, 84
1, 67532, Note_on_c, 9, 70, 0
1, 67536, Control_c, 2, 11, 83
1, 67560, Note_on_c, 9, 69, 45
1, 67560, Control_c, 2, 11, 82
1, 67578, Note_on_c, 9, 46, 0
1, 67584, Control_c, 2, 11, 81
1, 67593, Note_on_c, 9, 36, 0
1, 67608, Control_c, 2, 11, 80
1, 67617, Note_on_c, 9, 69, 0
1, 67632, Control_c, 2, 11, 79
1, 67656, Control_c, 2, 11, 78
1, 67680, Note_on_c, 1, 34, 96
1, 67680, Note_on_c, 9, 42, 75
1, 67680, Note_on_c, 9, 70, 48
1, 67680, Note_on_c, 9, 38, 122
1, 67680, Control_c, 2, 11, 77
1, 67688, Lyric_t, "And "
1, 67704, Control_c, 2, 11, 76
1, 67722, Note_on_c, 1, 32, 0
1, 67728, Note_on_c, 9, 70, 0
1, 67728, Control_c, 2, 11, 75
1, 67746, Note_on_c, 9, 42, 0
1, 67752, Control_c, 2, 11, 74
1, 67776, Control_c, 2, 11, 73
1, 67800, Note_on_c, 9, 42, 59
1, 67800, Note_on_c, 9, 70, 51
1, 67800, Control_c, 2, 11, 72
1, 67836, Control_c, 2, 11, 71
1, 67845, Note_on_c, 9, 42, 0
1, 67846, Note_on_c, 9, 70, 0
1, 67860, Control_c, 2, 11, 70
1, 67870, Note_on_c, 3, 75, 0
1, 67884, Control_c, 2, 11, 69
1, 67908, Control_c, 2, 11, 68
1, 67920, Lyric_t, "I "
1, 67920, Note_on_c, 1, 38, 84
1, 67920, Note_on_c, 3, 75, 111
1, 67920, Note_on_c, 9, 36, 108
1, 67920, Note_on_c, 9, 42, 66
1, 67920, Note_on_c, 9, 70, 54
1, 67932, Control_c, 2, 11, 67
1, 67944, Note_on_c, 1, 34, 0
1, 67956, Control_c, 2, 11, 66
1, 67979, Note_on_c, 9, 42, 0
1, 67980, Control_c, 2, 11, 65
1, 67994, Note_on_c, 9, 70, 0
1, 68004, Control_c, 2, 11, 64
1, 68006, Note_on_c, 9, 38, 0
1, 68028, Control_c, 2, 11, 63
1, 68040, Note_on_c, 9, 42, 52
1, 68040, Note_on_c, 9, 69, 59
1, 68052, Control_c, 2, 11, 62
1, 68076, Note_on_c, 2, 75, 0
1, 68076, Control_c, 2, 11, 61
1, 68090, Note_on_c, 9, 36, 0
1, 68097, Note_on_c, 9, 42, 0
1, 68099, Note_on_c, 2, 80, 0
1, 68100, Note_on_c, 7, 44, 0
1, 68100, Control_c, 2, 11, 60
1, 68117, Note_on_c, 7, 58, 0
1, 68120, Note_on_c, 9, 69, 0
1, 68121, Note_on_c, 7, 60, 0
1, 68123, Note_on_c, 7, 63, 0
1, 68124, Control_c, 2, 11, 59
1, 68130, Note_on_c, 12, 56, 0
1, 68133, Note_on_c, 7, 56, 0
1, 68141, Note_on_c, 12, 60, 0
1, 68141, Note_on_c, 12, 63, 0
1, 68160, Note_on_c, 1, 39, 111
1, 68160, Note_on_c, 7, 51, 59
1, 68160, Note_on_c, 7, 39, 76
1, 68160, Note_on_c, 7, 70, 80
1, 68160, Note_on_c, 7, 67, 76
1, 68160, Note_on_c, 7, 63, 72
1, 68160, Note_on_c, 9, 36, 108
1, 68160, Note_on_c, 9, 42, 73
1, 68160, Note_on_c, 9, 70, 58
1, 68160, Note_on_c, 10, 51, 74
1, 68160, Note_on_c, 12, 63, 70
1, 68160, Note_on_c, 12, 67, 84
1, 68160, Note_on_c, 12, 58, 76
1, 68160, Control_c, 2, 11, 58
1, 68176, Note_on_c, 1, 38, 0
1, 68184, Control_c, 2, 11, 57
1, 68208, Control_c, 2, 11, 56
1, 68226, Note_on_c, 9, 70, 0
1, 68232, Control_c, 2, 11, 55
1, 68236, Note_on_c, 9, 42, 0
1, 68256, Control_c, 2, 11, 54
1, 68280, Note_on_c, 9, 69, 27
1, 68280, Control_c, 2, 11, 53
1, 68304, Control_c, 2, 11, 52
1, 68328, Control_c, 2, 11, 51
1, 68346, Note_on_c, 9, 69, 0
1, 68352, Control_c, 2, 11, 50
1, 68376, Control_c, 2, 11, 49
1, 68400, Lyric_t, "don't "
1, 68400, Note_on_c, 3, 77, 108
1, 68400, Note_on_c, 9, 42, 70
1, 68400, Note_on_c, 9, 70, 58
1, 68400, Note_on_c, 10, 55, 42
1, 68400, Control_c, 2, 11, 48
1, 68408, Note_on_c, 3, 75, 0
1, 68424, Control_c, 2, 11, 47
1, 68444, Note_on_c, 10, 51, 0
1, 68448, Control_c, 2, 11, 46
1, 68461, Note_on_c, 9, 42, 0
1, 68472, Control_c, 2, 11, 45
1, 68473, Note_on_c, 9, 70, 0
1, 68508, Control_c, 2, 11, 44
1, 68520, Note_on_c, 9, 42, 39
1, 68520, Note_on_c, 9, 69, 37
1, 68532, Control_c, 2, 11, 43
1, 68534, Note_on_c, 9, 36, 0
1, 68556, Note_on_c, 9, 42, 0
1, 68556, Control_c, 2, 11, 42
1, 68580, Control_c, 2, 11, 41
1, 68582, Note_on_c, 9, 69, 0
1, 68604, Control_c, 2, 11, 40
1, 68628, Control_c, 2, 11, 39
1, 68637, Note_on_c, 10, 55, 0
1, 68640, Note_on_c, 9, 42, 75
1, 68640, Note_on_c, 9, 70, 51
1, 68640, Note_on_c, 9, 38, 118
1, 68640, Note_on_c, 10, 53, 64
1, 68652, Control_c, 2, 11, 38
1, 68676, Control_c, 2, 11, 37
1, 68700, Control_c, 2, 11, 36
1, 68701, Note_on_c, 9, 70, 0
1, 68706, Note_on_c, 9, 42, 0
1, 68724, Control_c, 2, 11, 35
1, 68748, Control_c, 2, 11, 34
1, 68760, Note_on_c, 9, 42, 59
1, 68760, Note_on_c, 9, 69, 42
1, 68772, Control_c, 2, 11, 33
1, 68796, Control_c, 2, 11, 32
1, 68805, Note_on_c, 9, 42, 0
1, 68808, Control_c, 7, 64, 127
1, 68816, Note_on_c, 9, 69, 0
1, 68820, Control_c, 2, 11, 31
1, 68880, Lyric_t, "think "
1, 68880, Note_on_c, 3, 75, 108
1, 68880, Note_on_c, 9, 42, 66
1, 68880, Note_on_c, 9, 70, 50
1, 68880, Note_on_c, 10, 55, 72
1, 68895, Note_on_c, 3, 77, 0
1, 68895, Note_on_c, 10, 53, 0
1, 68939, Note_on_c, 9, 42, 0
1, 68953, Note_on_c, 9, 70, 0
1, 68963, Note_on_c, 9, 38, 0
1, 69000, Note_on_c, 9, 42, 52
1, 69000, Note_on_c, 9, 69, 43
1, 69057, Note_on_c, 9, 42, 0
1, 69065, Note_on_c, 9, 69, 0
1, 69120, Note_on_c, 9, 42, 75
1, 69120, Note_on_c, 9, 70, 54
1, 69171, Note_on_c, 9, 42, 0
1, 69172, Note_on_c, 3, 75, 0
1, 69172, Note_on_c, 9, 70, 0
1, 69240, Note_on_c, 9, 36, 76
1, 69240, Note_on_c, 9, 42, 55
1, 69240, Note_on_c, 9, 70, 59
1, 69270, Note_on_c, 9, 36, 0
1, 69279, Note_on_c, 9, 42, 0
1, 69293, Note_on_c, 9, 70, 0
1, 69359, Note_on_c, 10, 55, 0
1, 69360, Lyric_t, "that "
1, 69360, Note_on_c, 3, 70, 108
1, 69360, Note_on_c, 9, 46, 80
1, 69360, Note_on_c, 9, 36, 99
1, 69360, Note_on_c, 9, 69, 48
1, 69360, Note_on_c, 10, 53, 64
1, 69360, Control_c, 2, 11, 126
1, 69407, Note_on_c, 3, 70, 0
1, 69428, Note_on_c, 9, 69, 0
1, 69480, Lyric_t, "I'll "
1, 69480, Lyric_t, "\015"
1, 69480, Note_on_c, 3, 70, 105
1, 69480, Note_on_c, 9, 70, 48
1, 69498, Note_on_c, 9, 46, 0
1, 69513, Note_on_c, 9, 36, 0
1, 69529, Note_on_c, 9, 70, 0
1, 69570, Note_on_c, 7, 51, 0
1, 69581, Note_on_c, 1, 39, 0
1, 69600, Note_on_c, 1, 34, 96
1, 69600, Note_on_c, 9, 42, 75
1, 69600, Note_on_c, 9, 70, 56
1, 69600, Note_on_c, 9, 38, 122
1, 69600, Note_on_c, 10, 55, 76
1, 69603, Note_on_c, 10, 53, 0
1, 69609, Note_on_c, 12, 58, 0
1, 69610, Note_on_c, 7, 39, 0
1, 69612, Note_on_c, 12, 67, 0
1, 69626, Note_on_c, 7, 67, 0
1, 69630, Note_on_c, 7, 63, 0
1, 69642, Note_on_c, 7, 70, 0
1, 69657, Note_on_c, 12, 63, 0
1, 69666, Note_on_c, 9, 42, 0
1, 69686, Note_on_c, 9, 70, 0
1, 69720, Note_on_c, 9, 42, 59
1, 69720, Note_on_c, 9, 69, 44
1, 69765, Note_on_c, 9, 42, 0
1, 69788, Note_on_c, 9, 69, 0
1, 69840, Note_on_c, 1, 39, 90
1, 69840, Note_on_c, 9, 42, 66
1, 69840, Note_on_c, 9, 70, 56
1, 69841, Note_on_c, 1, 34, 0
1, 69899, Note_on_c, 9, 42, 0
1, 69915, Note_on_c, 9, 70, 0
1, 69926, Note_on_c, 9, 38, 0
1, 69960, Note_on_c, 9, 42, 52
1, 69960, Note_on_c, 9, 69, 42
1, 70017, Note_on_c, 9, 42, 0
1, 70024, Note_on_c, 9, 69, 0
1, 70030, Control_c, 7, 64, 0
1, 70035, Control_c, 7, 64, 127
1, 70045, Note_on_c, 10, 55, 0
1, 70063, Control_c, 7, 64, 0
1, 70070, Note_on_c, 3, 70, 0
1, 70080, Lyric_t, "see "
1, 70080, Note_on_c, 1, 38, 102
1, 70080, Note_on_c, 7, 50, 70
1, 70080, Note_on_c, 7, 38, 78
1, 70080, Note_on_c, 7, 62, 74
1, 70080, Note_on_c, 7, 58, 68
1, 70080, Note_on_c, 7, 65, 78
1, 70080, Note_on_c, 3, 75, 111
1, 70080, Note_on_c, 9, 36, 111
1, 70080, Note_on_c, 9, 42, 73
1, 70080, Note_on_c, 9, 70, 58
1, 70080, Note_on_c, 10, 50, 74
1, 70080, Note_on_c, 12, 62, 72
1, 70080, Note_on_c, 12, 58, 72
1, 70080, Note_on_c, 12, 65, 84
1, 70114, Note_on_c, 1, 39, 0
1, 70152, Note_on_c, 9, 70, 0
1, 70156, Note_on_c, 9, 42, 0
1, 70200, Note_on_c, 9, 42, 44
1, 70200, Note_on_c, 9, 70, 45
1, 70247, Note_on_c, 9, 42, 0
1, 70256, Note_on_c, 9, 70, 0
1, 70281, Note_on_c, 9, 36, 0
1, 70320, Lyric_t, "her "
1, 70320, Note_on_c, 3, 77, 102
1, 70320, Note_on_c, 9, 42, 70
1, 70320, Note_on_c, 9, 69, 53
1, 70325, Note_on_c, 3, 75, 0
1, 70381, Note_on_c, 9, 42, 0
1, 70393, Note_on_c, 9, 69, 0
1, 70440, Note_on_c, 9, 42, 39
1, 70440, Note_on_c, 9, 70, 42
1, 70476, Note_on_c, 9, 42, 0
1, 70493, Note_on_c, 9, 70, 0
1, 70542, Note_on_c, 10, 50, 0
1, 70552, Note_on_c, 3, 77, 0
1, 70560, Lyric_t, "a"
1, 70560, Note_on_c, 1, 36, 64
1, 70560, Note_on_c, 3, 75, 99
1, 70560, Note_on_c, 9, 42, 75
1, 70560, Note_on_c, 9, 70, 48
1, 70560, Note_on_c, 9, 38, 125
1, 70560, Note_on_c, 10, 48, 54
1, 70563, Control_c, 7, 64, 127
1, 70626, Note_on_c, 9, 42, 0
1, 70629, Note_on_c, 1, 38, 0
1, 70635, Note_on_c, 9, 70, 0
1, 70680, Note_on_c, 9, 42, 59
1, 70680, Note_on_c, 9, 69, 51
1, 70725, Note_on_c, 9, 42, 0
1, 70745, Note_on_c, 9, 69, 0
1, 70752, Note_on_c, 9, 38, 0
1, 70800, Lyric_t, "gain "
1, 70800, Lyric_t, "\015"
1, 70800, Note_on_c, 1, 38, 87
1, 70800, Note_on_c, 3, 70, 102
1, 70800, Note_on_c, 9, 42, 66
1, 70800, Note_on_c, 9, 70, 56
1, 70800, Note_on_c, 10, 50, 74
1, 70810, Note_on_c, 1, 36, 0
1, 70818, Note_on_c, 10, 48, 0
1, 70824, Note_on_c, 3, 75, 0
1, 70859, Note_on_c, 9, 42, 0
1, 70890, Note_on_c, 9, 70, 0
1, 70920, Note_on_c, 9, 42, 52
1, 70920, Note_on_c, 9, 69, 45
1, 70976, Note_on_c, 9, 69, 0
1, 70977, Note_on_c, 9, 42, 0
1, 71021, Note_on_c, 7, 62, 0
1, 71028, Note_on_c, 7, 65, 0
1, 71040, Note_on_c, 9, 42, 75
1, 71040, Note_on_c, 9, 70, 56
1, 71060, Note_on_c, 7, 58, 0
1, 71075, Note_on_c, 7, 50, 0
1, 71091, Note_on_c, 9, 42, 0
1, 71105, Note_on_c, 3, 70, 0
1, 71129, Note_on_c, 9, 70, 0
1, 71160, Note_on_c, 9, 42, 55
1, 71160, Note_on_c, 9, 69, 40
1, 71199, Note_on_c, 9, 42, 0
1, 71231, Note_on_c, 9, 69, 0
1, 71280, Lyric_t, "but "
1, 71280, Note_on_c, 3, 70, 114
1, 71280, Note_on_c, 9, 46, 80
1, 71280, Note_on_c, 9, 36, 111
1, 71280, Note_on_c, 9, 70, 53
1, 71280, Note_on_c, 10, 48, 22
1, 71299, Note_on_c, 10, 50, 0
1, 71372, Note_on_c, 9, 70, 0
1, 71400, Note_on_c, 9, 69, 40
1, 71418, Note_on_c, 9, 46, 0
1, 71453, Note_on_c, 9, 36, 0
1, 71471, Note_on_c, 9, 69, 0
1, 71477, Note_on_c, 12, 58, 0
1, 71479, Note_on_c, 12, 65, 0
1, 71492, Control_c, 7, 64, 0
1, 71497, Note_on_c, 12, 62, 0
1, 71508, Note_on_c, 10, 48, 0
1, 71520, Note_on_c, 1, 34, 87
1, 71520, Note_on_c, 7, 65, 82
1, 71520, Note_on_c, 7, 62, 80
1, 71520, Note_on_c, 7, 58, 80
1, 71520, Note_on_c, 9, 42, 75
1, 71520, Note_on_c, 9, 70, 66
1, 71520, Note_on_c, 9, 38, 118
1, 71520, Note_on_c, 10, 50, 76
1, 71538, Note_on_c, 1, 38, 0
1, 71586, Note_on_c, 9, 42, 0
1, 71627, Note_on_c, 9, 70, 0
1, 71640, Note_on_c, 9, 42, 59
1, 71640, Note_on_c, 9, 69, 28
1, 71685, Note_on_c, 9, 42, 0
1, 71694, Note_on_c, 9, 69, 0
1, 71754, Note_on_c, 1, 34, 0
1, 71760, Note_on_c, 1, 38, 78
1, 71760, Note_on_c, 9, 38, 0
1, 71760, Note_on_c, 9, 42, 66
1, 71760, Note_on_c, 9, 70, 53
1, 71760, Note_on_c, 10, 46, 34
1, 71784, Note_on_c, 10, 50, 0
1, 71786, Note_on_c, 7, 38, 0
1, 71801, Note_on_c, 3, 70, 0
1, 71819, Note_on_c, 9, 42, 0
1, 71848, Note_on_c, 9, 70, 0
1, 71880, Note_on_c, 9, 42, 52
1, 71880, Note_on_c, 9, 69, 30
1, 71937, Note_on_c, 9, 42, 0
1, 71942, Note_on_c, 9, 69, 0
1, 71973, Note_on_c, 10, 46, 0
1, 71977, Note_on_c, 1, 38, 0
1, 71989, Note_on_c, 7, 62, 0
1, 71989, Note_on_c, 7, 58, 0
1, 71997, Note_on_c, 7, 65, 0
1, 72000, Lyric_t, "we "
1, 72000, Note_on_c, 1, 36, 105
1, 72000, Note_on_c, 7, 48, 41
1, 72000, Note_on_c, 7, 60, 70
1, 72000, Note_on_c, 7, 63, 74
1, 72000, Note_on_c, 7, 55, 66
1, 72000, Note_on_c, 3, 75, 111
1, 72000, Note_on_c, 9, 36, 108
1, 72000, Note_on_c, 9, 42, 73
1, 72000, Note_on_c, 9, 70, 61
1, 72000, Note_on_c, 10, 51, 64
1, 72000, Note_on_c, 12, 63, 76
1, 72000, Note_on_c, 12, 60, 82
1, 72000, Note_on_c, 2, 72, 49
1, 72000, Note_on_c, 2, 75, 57
1, 72076, Note_on_c, 9, 42, 0
1, 72101, Note_on_c, 9, 70, 0
1, 72120, Note_on_c, 9, 42, 44
1, 72120, Note_on_c, 9, 69, 30
1, 72167, Note_on_c, 9, 42, 0
1, 72183, Note_on_c, 3, 75, 0
1, 72187, Note_on_c, 9, 69, 0
1, 72214, Note_on_c, 10, 51, 0
1, 72240, Lyric_t, "shared "
1, 72240, Note_on_c, 3, 75, 108
1, 72240, Note_on_c, 9, 42, 70
1, 72240, Note_on_c, 9, 70, 51
1, 72240, Note_on_c, 10, 51, 66
1, 72301, Note_on_c, 9, 42, 0
1, 72324, Note_on_c, 9, 70, 0
1, 72336, Control_c, 2, 11, 125
1, 72348, Control_c, 2, 11, 124
1, 72360, Note_on_c, 9, 42, 39
1, 72360, Note_on_c, 9, 69, 43
1, 72360, Control_c, 2, 11, 123
1, 72372, Control_c, 2, 11, 122
1, 72374, Note_on_c, 9, 36, 0
1, 72384, Control_c, 2, 11, 121
1, 72396, Note_on_c, 9, 42, 0
1, 72396, Control_c, 2, 11, 120
1, 72408, Control_c, 2, 11, 119
1, 72420, Note_on_c, 9, 69, 0
1, 72420, Control_c, 2, 11, 118
1, 72432, Control_c, 2, 11, 117
1, 72444, Control_c, 2, 11, 116
1, 72456, Control_c, 2, 11, 115
1, 72468, Control_c, 2, 11, 114
1, 72473, Note_on_c, 10, 51, 0
1, 72480, Lyric_t, "a "
1, 72480, Note_on_c, 3, 77, 105
1, 72480, Note_on_c, 9, 42, 75
1, 72480, Note_on_c, 9, 70, 37
1, 72480, Note_on_c, 9, 38, 118
1, 72480, Note_on_c, 10, 53, 70
1, 72480, Note_on_c, 12, 62, 70
1, 72480, Control_c, 2, 11, 113
1, 72488, Note_on_c, 12, 63, 0
1, 72491, Note_on_c, 3, 75, 0
1, 72492, Control_c, 2, 11, 112
1, 72504, Control_c, 2, 11, 111
1, 72516, Control_c, 2, 11, 110
1, 72528, Control_c, 2, 11, 109
1, 72529, Control_c, 7, 64, 127
1, 72540, Control_c, 2, 11, 108
1, 72546, Note_on_c, 9, 42, 0
1, 72552, Control_c, 2, 11, 107
1, 72561, Note_on_c, 9, 70, 0
1, 72564, Control_c, 2, 11, 106
1, 72576, Control_c, 2, 11, 105
1, 72588, Control_c, 2, 11, 104
1, 72600, Note_on_c, 9, 42, 59
1, 72600, Note_on_c, 9, 69, 35
1, 72600, Control_c, 2, 11, 103
1, 72612, Control_c, 2, 11, 102
1, 72624, Control_c, 2, 11, 101
1, 72636, Control_c, 2, 11, 100
1, 72645, Note_on_c, 9, 42, 0
1, 72648, Control_c, 2, 11, 98
1, 72660, Control_c, 2, 11, 97
1, 72669, Note_on_c, 9, 69, 0
1, 72672, Control_c, 2, 11, 96
1, 72675, Note_on_c, 3, 77, 0
1, 72684, Control_c, 2, 11, 95
1, 72696, Control_c, 2, 11, 94
1, 72708, Control_c, 2, 11, 93
1, 72720, Lyric_t, "mo"
1, 72720, Note_on_c, 3, 77, 105
1, 72720, Note_on_c, 9, 42, 66
1, 72720, Note_on_c, 9, 70, 42
1, 72720, Note_on_c, 10, 55, 72
1, 72720, Note_on_c, 12, 63, 57
1, 72720, Control_c, 2, 11, 92
1, 72732, Control_c, 2, 11, 91
1, 72733, Note_on_c, 10, 53, 0
1, 72738, Note_on_c, 12, 62, 0
1, 72744, Control_c, 2, 11, 90
1, 72756, Control_c, 2, 11, 89
1, 72768, Control_c, 2, 11, 88
1, 72779, Note_on_c, 9, 42, 0
1, 72780, Control_c, 2, 11, 87
1, 72792, Control_c, 2, 11, 86
1, 72803, Note_on_c, 9, 38, 0
1, 72804, Control_c, 2, 11, 85
1, 72816, Control_c, 2, 11, 84
1, 72817, Note_on_c, 9, 70, 0
1, 72828, Control_c, 2, 11, 83
1, 72840, Note_on_c, 9, 42, 52
1, 72840, Note_on_c, 9, 69, 50
1, 72840, Control_c, 2, 11, 82
1, 72846, Note_on_c, 12, 60, 0
1, 72852, Control_c, 2, 11, 81
1, 72864, Control_c, 2, 11, 80
1, 72876, Control_c, 2, 11, 79
1, 72888, Control_c, 2, 11, 78
1, 72897, Note_on_c, 9, 42, 0
1, 72900, Control_c, 2, 11, 77
1, 72901, Note_on_c, 9, 69, 0
1, 72912, Control_c, 2, 11, 76
1, 72924, Control_c, 2, 11, 75
1, 72936, Control_c, 2, 11, 74
1, 72948, Control_c, 2, 11, 73
1, 72960, Lyric_t, "ment "
1, 72960, Lyric_t, "\015"
1, 72960, Note_on_c, 3, 75, 105
1, 72960, Note_on_c, 9, 42, 75
1, 72960, Note_on_c, 9, 70, 44
1, 72960, Note_on_c, 12, 63, 72
1, 72960, Control_c, 2, 11, 71
1, 72964, Note_on_c, 3, 77, 0
1, 72972, Control_c, 2, 11, 70
1, 72978, Note_on_c, 12, 63, 0
1, 72984, Control_c, 2, 11, 69
1, 72996, Control_c, 2, 11, 68
1, 73008, Control_c, 2, 11, 67
1, 73011, Note_on_c, 9, 42, 0
1, 73014, Note_on_c, 7, 48, 0
1, 73020, Control_c, 2, 11, 66
1, 73032, Control_c, 2, 11, 65
1, 73044, Control_c, 2, 11, 64
1, 73046, Note_on_c, 9, 70, 0
1, 73056, Control_c, 2, 11, 63
1, 73068, Control_c, 2, 11, 62
1, 73080, Note_on_c, 9, 36, 76
1, 73080, Note_on_c, 9, 42, 55
1, 73080, Note_on_c, 9, 69, 36
1, 73080, Control_c, 2, 11, 61
1, 73092, Control_c, 2, 11, 60
1, 73104, Control_c, 2, 11, 59
1, 73110, Note_on_c, 9, 36, 0
1, 73116, Control_c, 2, 11, 58
1, 73119, Note_on_c, 9, 42, 0
1, 73128, Control_c, 2, 11, 57
1, 73133, Note_on_c, 7, 60, 0
1, 73140, Control_c, 2, 11, 56
1, 73144, Note_on_c, 9, 69, 0
1, 73151, Note_on_c, 3, 75, 0
1, 73152, Note_on_c, 7, 63, 0
1, 73152, Control_c, 2, 11, 55
1, 73164, Control_c, 2, 11, 54
1, 73176, Control_c, 2, 11, 53
1, 73188, Control_c, 2, 11, 52
1, 73196, Note_on_c, 10, 55, 0
1, 73200, Lyric_t, "that "
1, 73200, Note_on_c, 7, 62, 64
1, 73200, Note_on_c, 3, 75, 108
1, 73200, Note_on_c, 9, 46, 80
1, 73200, Note_on_c, 9, 36, 99
1, 73200, Note_on_c, 9, 70, 54
1, 73200, Note_on_c, 10, 53, 62
1, 73200, Note_on_c, 12, 65, 78
1, 73200, Control_c, 2, 11, 51
1, 73212, Control_c, 2, 11, 50
1, 73224, Control_c, 2, 11, 49
1, 73236, Control_c, 2, 11, 48
1, 73248, Control_c, 2, 11, 47
1, 73260, Control_c, 2, 11, 46
1, 73265, Control_c, 7, 64, 0
1, 73272, Control_c, 2, 11, 44
1, 73284, Control_c, 2, 11, 43
1, 73289, Note_on_c, 9, 70, 0
1, 73290, Note_on_c, 12, 63, 0
1, 73296, Control_c, 2, 11, 42
1, 73308, Control_c, 2, 11, 41
1, 73320, Note_on_c, 9, 69, 28
1, 73320, Control_c, 2, 11, 40
1, 73332, Control_c, 2, 11, 39
1, 73338, Note_on_c, 9, 46, 0
1, 73344, Control_c, 2, 11, 38
1, 73353, Note_on_c, 9, 36, 0
1, 73356, Control_c, 2, 11, 37
1, 73368, Control_c, 2, 11, 36
1, 73371, Note_on_c, 9, 69, 0
1, 73380, Control_c, 2, 11, 35
1, 73383, Note_on_c, 3, 75, 0
1, 73384, Control_c, 7, 64, 127
1, 73392, Control_c, 2, 11, 34
1, 73400, Note_on_c, 1, 36, 0
1, 73404, Control_c, 2, 11, 33
1, 73416, Control_c, 2, 11, 32
1, 73427, Note_on_c, 10, 53, 0
1, 73428, Control_c, 2, 11, 31
1, 73440, Lyric_t, "will "
1, 73440, Note_on_c, 1, 36, 84
1, 73440, Note_on_c, 3, 75, 105
1, 73440, Note_on_c, 9, 42, 75
1, 73440, Note_on_c, 9, 70, 59
1, 73440, Note_on_c, 9, 38, 122
1, 73440, Note_on_c, 10, 55, 70
1, 73440, Control_c, 2, 11, 30
1, 73452, Control_c, 2, 11, 29
1, 73464, Control_c, 2, 11, 28
1, 73476, Control_c, 2, 11, 27
1, 73488, Control_c, 2, 11, 26
1, 73500, Control_c, 2, 11, 25
1, 73506, Note_on_c, 9, 42, 0
1, 73512, Control_c, 2, 11, 24
1, 73524, Control_c, 2, 11, 23
1, 73532, Note_on_c, 9, 70, 0
1, 73536, Control_c, 2, 11, 22
1, 73544, Note_on_c, 12, 65, 0
1, 73548, Control_c, 2, 11, 21
1, 73560, Note_on_c, 9, 42, 59
1, 73560, Note_on_c, 9, 69, 32
1, 73560, Control_c, 2, 11, 20
1, 73572, Control_c, 2, 11, 18
1, 73605, Note_on_c, 9, 42, 0
1, 73616, Note_on_c, 9, 69, 0
1, 73640, Note_on_c, 2, 75, 0
1, 73666, Note_on_c, 3, 75, 0
1, 73668, Note_on_c, 2, 72, 0
1, 73680, Lyric_t, "last "
1, 73680, Note_on_c, 1, 31, 87
1, 73680, Note_on_c, 7, 60, 58
1, 73680, Note_on_c, 7, 63, 70
1, 73680, Note_on_c, 7, 48, 30
1, 73680, Note_on_c, 3, 82, 108
1, 73680, Note_on_c, 9, 42, 66
1, 73680, Note_on_c, 9, 70, 54
1, 73680, Note_on_c, 12, 67, 80
1, 73688, Control_c, 7, 64, 0
1, 73699, Note_on_c, 1, 36, 0
1, 73702, Note_on_c, 7, 62, 0
1, 73739, Note_on_c, 9, 42, 0
1, 73760, Note_on_c, 9, 70, 0
1, 73766, Note_on_c, 9, 38, 0
1, 73800, Note_on_c, 9, 42, 52
1, 73800, Note_on_c, 9, 69, 44
1, 73829, Note_on_c, 10, 55, 0
1, 73829, Note_on_c, 12, 67, 0
1, 73848, Control_c, 2, 11, 126
1, 73857, Note_on_c, 9, 42, 0
1, 73866, Note_on_c, 9, 69, 0
1, 73916, Note_on_c, 1, 31, 0
1, 73920, Note_on_c, 1, 36, 102
1, 73920, Note_on_c, 7, 55, 44
1, 73920, Note_on_c, 7, 63, 61
1, 73920, Note_on_c, 7, 60, 52
1, 73920, Note_on_c, 9, 36, 108
1, 73920, Note_on_c, 9, 42, 75
1, 73920, Note_on_c, 9, 70, 53
1, 73920, Note_on_c, 10, 55, 74
1, 73920, Note_on_c, 12, 60, 45
1, 73920, Note_on_c, 12, 63, 45
1, 73965, Note_on_c, 7, 48, 0
1, 73986, Note_on_c, 9, 70, 0
1, 73994, Note_on_c, 7, 55, 0
1, 73997, Note_on_c, 7, 60, 0
1, 74005, Note_on_c, 9, 42, 0
1, 74012, Note_on_c, 7, 63, 0
1, 74040, Note_on_c, 9, 42, 44
1, 74040, Note_on_c, 9, 70, 54
1, 74070, Note_on_c, 3, 82, 0
1, 74074, Note_on_c, 9, 42, 0
1, 74119, Note_on_c, 9, 70, 0
1, 74140, Note_on_c, 10, 55, 0
1, 74160, Lyric_t, "'til "
1, 74160, Note_on_c, 3, 82, 108
1, 74160, Note_on_c, 9, 42, 66
1, 74160, Note_on_c, 9, 69, 42
1, 74160, Note_on_c, 10, 55, 76
1, 74224, Note_on_c, 9, 69, 0
1, 74225, Note_on_c, 9, 42, 0
1, 74280, Note_on_c, 9, 42, 45
1, 74280, Note_on_c, 9, 70, 51
1, 74294, Note_on_c, 9, 36, 0
1, 74309, Note_on_c, 9, 42, 0
1, 74336, Note_on_c, 9, 70, 0
1, 74347, Note_on_c, 3, 82, 0
1, 74398, Control_c, 7, 64, 127
1, 74400, Lyric_t, "the "
1, 74400, Note_on_c, 3, 82, 108
1, 74400, Note_on_c, 9, 42, 75
1, 74400, Note_on_c, 9, 70, 53
1, 74400, Note_on_c, 9, 38, 118
1, 74400, Note_on_c, 10, 53, 70
1, 74410, Note_on_c, 10, 55, 0
1, 74461, Note_on_c, 9, 42, 0
1, 74496, Note_on_c, 9, 70, 0
1, 74520, Note_on_c, 9, 42, 45
1, 74520, Note_on_c, 9, 69, 48
1, 74561, Note_on_c, 9, 42, 0
1, 74563, Note_on_c, 9, 69, 0
1, 74624, Note_on_c, 10, 53, 0
1, 74640, Lyric_t, "end. "
1, 74640, Lyric_t, "\015"
1, 74640, Note_on_c, 3, 75, 105
1, 74640, Note_on_c, 9, 42, 57
1, 74640, Note_on_c, 9, 70, 50
1, 74640, Note_on_c, 10, 55, 64
1, 74650, Note_on_c, 3, 82, 0
1, 74705, Note_on_c, 9, 70, 0
1, 74706, Note_on_c, 9, 42, 0
1, 74723, Note_on_c, 9, 38, 0
1, 74760, Note_on_c, 9, 36, 105
1, 74760, Note_on_c, 9, 42, 48
1, 74760, Note_on_c, 9, 70, 61
1, 74798, Note_on_c, 9, 42, 0
1, 74821, Note_on_c, 9, 70, 0
1, 74834, Note_on_c, 9, 36, 0
1, 74853, Note_on_c, 7, 63, 0
1, 74859, Note_on_c, 10, 55, 0
1, 74880, Note_on_c, 9, 42, 78
1, 74880, Note_on_c, 9, 70, 54
1, 74880, Note_on_c, 10, 51, 61
1, 74929, Note_on_c, 9, 42, 0
1, 74961, Note_on_c, 9, 70, 0
1, 75000, Note_on_c, 9, 36, 76
1, 75000, Note_on_c, 9, 42, 55
1, 75000, Note_on_c, 9, 69, 35
1, 75028, Note_on_c, 7, 55, 0
1, 75030, Note_on_c, 9, 36, 0
1, 75035, Note_on_c, 9, 42, 0
1, 75051, Note_on_c, 9, 69, 0
1, 75075, Note_on_c, 3, 75, 0
1, 75086, Note_on_c, 12, 60, 0
1, 75090, Note_on_c, 12, 63, 0
1, 75113, Note_on_c, 10, 51, 0
1, 75120, Note_on_c, 7, 53, 57
1, 75120, Note_on_c, 7, 65, 57
1, 75120, Note_on_c, 9, 36, 99
1, 75120, Note_on_c, 9, 46, 111
1, 75120, Note_on_c, 9, 70, 53
1, 75120, Note_on_c, 10, 53, 68
1, 75120, Note_on_c, 12, 65, 90
1, 75165, Note_on_c, 7, 60, 0
1, 75180, Note_on_c, 9, 70, 0
1, 75240, Note_on_c, 9, 69, 36
1, 75273, Note_on_c, 9, 36, 0
1, 75298, Note_on_c, 9, 69, 0
1, 75339, Note_on_c, 9, 46, 0
1, 75360, Note_on_c, 9, 42, 49
1, 75360, Note_on_c, 9, 70, 61
1, 75360, Note_on_c, 9, 38, 116
1, 75398, Note_on_c, 7, 53, 0
1, 75422, Note_on_c, 9, 42, 0
1, 75422, Note_on_c, 9, 70, 0
1, 75425, Note_on_c, 9, 38, 0
1, 75477, Control_c, 7, 64, 0
1, 75480, Note_on_c, 7, 55, 64
1, 75480, Note_on_c, 7, 67, 64
1, 75480, Note_on_c, 9, 46, 67
1, 75480, Note_on_c, 9, 70, 61
1, 75480, Note_on_c, 9, 38, 92
1, 75480, Note_on_c, 10, 55, 72
1, 75480, Note_on_c, 12, 67, 93
1, 75492, Note_on_c, 7, 65, 0
1, 75492, Note_on_c, 12, 65, 0
1, 75495, Note_on_c, 10, 53, 0
1, 75531, Note_on_c, 9, 46, 0
1, 75545, Note_on_c, 9, 38, 0
1, 75558, Note_on_c, 9, 70, 0
1, 75600, Note_on_c, 1, 31, 93
1, 75600, Note_on_c, 9, 46, 64
1, 75600, Note_on_c, 9, 45, 93
1, 75600, Note_on_c, 9, 69, 48
1, 75602, Note_on_c, 1, 36, 0
1, 75661, Note_on_c, 9, 69, 0
1, 75662, Note_on_c, 9, 46, 0
1, 75698, Note_on_c, 9, 45, 0
1, 75720, Note_on_c, 9, 46, 58
1, 75720, Note_on_c, 9, 43, 84
1, 75720, Note_on_c, 9, 70, 56
1, 75721, Note_on_c, 7, 67, 0
1, 75730, Note_on_c, 7, 55, 0
1, 75735, Note_on_c, 12, 67, 0
1, 75764, Note_on_c, 10, 55, 0
1, 75771, Note_on_c, 9, 46, 0
1, 75780, Note_on_c, 9, 70, 0
1, 75802, Note_on_c, 9, 43, 0
1, 75840, Note_on_c, 1, 32, 111
1, 75840, Note_on_c, 7, 51, 90
1, 75840, Note_on_c, 7, 56, 76
1, 75840, Note_on_c, 7, 44, 90
1, 75840, Note_on_c, 7, 60, 82
1, 75840, Note_on_c, 7, 63, 84
1, 75840, Note_on_c, 5, 56, 47
1, 75840, Note_on_c, 5, 60, 59
1, 75840, Note_on_c, 6, 72, 80
1, 75840, Note_on_c, 6, 63, 78
1, 75840, Note_on_c, 8, 63, 84
1, 75840, Note_on_c, 9, 49, 90
1, 75840, Note_on_c, 9, 54, 86
1, 75840, Note_on_c, 9, 69, 51
1, 75840, Note_on_c, 9, 36, 117
1, 75840, Note_on_c, 12, 60, 90
1, 75840, Note_on_c, 12, 56, 99
1, 75840, Note_on_c, 12, 63, 90
1, 75840, Note_on_c, 13, 63, 84
1, 75861, Note_on_c, 1, 31, 0
1, 75880, Control_c, 7, 64, 127
1, 75891, Note_on_c, 9, 54, 0
1, 75894, Note_on_c, 9, 49, 0
1, 75920, Note_on_c, 9, 69, 0
1, 75960, Note_on_c, 9, 54, 23
1, 75960, Note_on_c, 9, 70, 54
1, 75960, Note_on_c, 9, 42, 59
1, 75990, Note_on_c, 9, 42, 0
1, 75994, Note_on_c, 9, 54, 0
1, 76026, Note_on_c, 7, 63, 0
1, 76053, Note_on_c, 9, 70, 0
1, 76080, Lyric_t, "You're "
1, 76080, Note_on_c, 7, 63, 82
1, 76080, Note_on_c, 3, 75, 111
1, 76080, Note_on_c, 9, 54, 45
1, 76080, Note_on_c, 9, 69, 44
1, 76080, Note_on_c, 9, 42, 55
1, 76080, Note_on_c, 11, 63, 84
1, 76080, Note_on_c, 11, 60, 87
1, 76080, Note_on_c, 11, 70, 96
1, 76080, Note_on_c, 12, 56, 31
1, 76126, Note_on_c, 9, 42, 0
1, 76139, Note_on_c, 9, 54, 0
1, 76153, Note_on_c, 9, 69, 0
1, 76189, Note_on_c, 9, 36, 0
1, 76193, Note_on_c, 12, 56, 0
1, 76200, Note_on_c, 9, 54, 37
1, 76200, Note_on_c, 9, 42, 43
1, 76200, Note_on_c, 9, 70, 56
1, 76225, Note_on_c, 9, 42, 0
1, 76244, Note_on_c, 9, 54, 0
1, 76245, Note_on_c, 7, 51, 0
1, 76302, Note_on_c, 9, 70, 0
1, 76305, Note_on_c, 3, 75, 0
1, 76312, Note_on_c, 12, 60, 0
1, 76312, Note_on_c, 12, 56, 0
1, 76312, Note_on_c, 12, 63, 0
1, 76320, Lyric_t, "beau"
1, 76320, Note_on_c, 3, 82, 105
1, 76320, Note_on_c, 9, 54, 89
1, 76320, Note_on_c, 9, 69, 32
1, 76320, Note_on_c, 9, 38, 114
1, 76320, Note_on_c, 9, 42, 90
1, 76320, Note_on_c, 12, 56, 99
1, 76320, Note_on_c, 12, 63, 96
1, 76376, Note_on_c, 9, 54, 0
1, 76391, Note_on_c, 9, 42, 0
1, 76399, Note_on_c, 9, 69, 0
1, 76433, Note_on_c, 11, 70, 0
1, 76440, Lyric_t, "ti"
1, 76440, Note_on_c, 3, 79, 96
1, 76440, Note_on_c, 9, 70, 53
1, 76440, Note_on_c, 9, 54, 27
1, 76440, Note_on_c, 9, 42, 54
1, 76440, Note_on_c, 11, 70, 66
1, 76450, Note_on_c, 7, 56, 0
1, 76476, Note_on_c, 9, 42, 0
1, 76481, Note_on_c, 3, 82, 0
1, 76484, Note_on_c, 9, 54, 0
1, 76501, Note_on_c, 11, 70, 0
1, 76503, Note_on_c, 11, 60, 0
1, 76515, Note_on_c, 11, 63, 0
1, 76528, Note_on_c, 9, 70, 0
1, 76560, Note_on_c, 7, 51, 47
1, 76560, Note_on_c, 7, 56, 62
1, 76560, Note_on_c, 9, 54, 66
1, 76560, Note_on_c, 9, 69, 45
1, 76560, Note_on_c, 9, 42, 76
1, 76560, Note_on_c, 11, 63, 76
1, 76560, Note_on_c, 11, 60, 68
1, 76560, Note_on_c, 11, 70, 84
1, 76588, Note_on_c, 3, 79, 0
1, 76594, Note_on_c, 1, 32, 0
1, 76605, Note_on_c, 9, 38, 0
1, 76621, Note_on_c, 9, 54, 0
1, 76623, Note_on_c, 9, 42, 0
1, 76626, Note_on_c, 11, 60, 0
1, 76629, Note_on_c, 7, 51, 0
1, 76631, Note_on_c, 9, 69, 0
1, 76635, Note_on_c, 11, 63, 0
1, 76643, Note_on_c, 7, 56, 0
1, 76646, Note_on_c, 11, 70, 0
1, 76648, Note_on_c, 7, 44, 0
1, 76680, Lyric_t, "ful "
1, 76680, Lyric_t, "\015"
1, 76680, Note_on_c, 1, 32, 74
1, 76680, Note_on_c, 3, 79, 105
1, 76680, Note_on_c, 9, 42, 49
1, 76680, Note_on_c, 9, 70, 51
1, 76680, Note_on_c, 9, 54, 37
1, 76680, Note_on_c, 12, 56, 57
1, 76711, Note_on_c, 9, 42, 0
1, 76717, Note_on_c, 9, 54, 0
1, 76748, Note_on_c, 1, 32, 0
1, 76758, Note_on_c, 7, 63, 0
1, 76764, Note_on_c, 7, 60, 0
1, 76764, Note_on_c, 9, 70, 0
1, 76786, Control_c, 7, 64, 0
1, 76791, Control_c, 7, 64, 127
1, 76800, Note_on_c, 1, 34, 87
1, 76800, Note_on_c, 7, 58, 68
1, 76800, Note_on_c, 7, 65, 61
1, 76800, Note_on_c, 7, 46, 90
1, 76800, Note_on_c, 7, 62, 82
1, 76800, Note_on_c, 3, 75, 105
1, 76800, Note_on_c, 5, 58, 59
1, 76800, Note_on_c, 5, 53, 46
1, 76800, Note_on_c, 6, 70, 74
1, 76800, Note_on_c, 6, 62, 61
1, 76800, Note_on_c, 9, 54, 75
1, 76800, Note_on_c, 9, 36, 105
1, 76800, Note_on_c, 9, 69, 32
1, 76800, Note_on_c, 9, 42, 102
1, 76800, Note_on_c, 11, 62, 78
1, 76800, Note_on_c, 11, 65, 70
1, 76800, Note_on_c, 11, 70, 82
1, 76818, Control_c, 7, 64, 0
1, 76821, Note_on_c, 5, 60, 0
1, 76830, Note_on_c, 12, 56, 0
1, 76846, Note_on_c, 5, 56, 0
1, 76850, Note_on_c, 6, 72, 0
1, 76858, Note_on_c, 9, 42, 0
1, 76864, Note_on_c, 9, 54, 0
1, 76872, Note_on_c, 3, 79, 0
1, 76873, Note_on_c, 9, 69, 0
1, 76885, Note_on_c, 8, 63, 0
1, 76885, Note_on_c, 13, 63, 0
1, 76901, Note_on_c, 6, 63, 0
1, 76911, Note_on_c, 12, 56, 0
1, 76911, Note_on_c, 12, 63, 0
1, 76920, Note_on_c, 9, 42, 44
1, 76920, Note_on_c, 9, 70, 41
1, 76920, Note_on_c, 9, 54, 40
1, 76920, Note_on_c, 12, 58, 80
1, 76920, Note_on_c, 12, 62, 87
1, 76920, Note_on_c, 12, 65, 87
1, 76936, Control_c, 7, 64, 127
1, 76942, Note_on_c, 9, 36, 0
1, 76947, Note_on_c, 9, 42, 0
1, 76967, Note_on_c, 9, 54, 0
1, 76972, Note_on_c, 7, 65, 0
1, 76978, Note_on_c, 7, 58, 0
1, 77014, Note_on_c, 11, 62, 0
1, 77015, Note_on_c, 7, 62, 0
1, 77017, Note_on_c, 1, 34, 0
1, 77023, Note_on_c, 3, 75, 0
1, 77027, Note_on_c, 9, 70, 0
1, 77039, Note_on_c, 11, 70, 0
1, 77040, Note_on_c, 1, 34, 99
1, 77040, Note_on_c, 7, 58, 76
1, 77040, Note_on_c, 7, 65, 84
1, 77040, Note_on_c, 7, 62, 87
1, 77040, Note_on_c, 6, 72, 74
1, 77040, Note_on_c, 6, 63, 57
1, 77040, Note_on_c, 9, 69, 44
1, 77040, Note_on_c, 9, 42, 74
1, 77040, Note_on_c, 9, 36, 111
1, 77040, Note_on_c, 9, 54, 70
1, 77040, Note_on_c, 11, 72, 102
1, 77040, Note_on_c, 11, 62, 99
1, 77040, Note_on_c, 12, 58, 61
1, 77086, Note_on_c, 6, 70, 0
1, 77100, Note_on_c, 9, 42, 0
1, 77107, Note_on_c, 9, 54, 0
1, 77111, Note_on_c, 9, 69, 0
1, 77133, Note_on_c, 6, 62, 0
1, 77160, Note_on_c, 9, 42, 40
1, 77160, Note_on_c, 9, 54, 33
1, 77160, Note_on_c, 9, 70, 51
1, 77194, Note_on_c, 12, 58, 0
1, 77197, Note_on_c, 9, 42, 0
1, 77202, Note_on_c, 9, 54, 0
1, 77234, Note_on_c, 9, 36, 0
1, 77257, Note_on_c, 9, 70, 0
1, 77273, Note_on_c, 12, 58, 0
1, 77273, Note_on_c, 12, 62, 0
1, 77273, Note_on_c, 12, 65, 0
1, 77280, Note_on_c, 6, 74, 74
1, 77280, Note_on_c, 6, 65, 55
1, 77280, Note_on_c, 9, 69, 33
1, 77280, Note_on_c, 9, 38, 108
1, 77280, Note_on_c, 9, 54, 66
1, 77280, Note_on_c, 9, 42, 93
1, 77280, Note_on_c, 12, 62, 90
1, 77280, Note_on_c, 12, 65, 87
1, 77280, Note_on_c, 12, 58, 105
1, 77321, Note_on_c, 6, 72, 0
1, 77343, Note_on_c, 9, 42, 0
1, 77350, Note_on_c, 9, 54, 0
1, 77360, Note_on_c, 9, 69, 0
1, 77378, Note_on_c, 11, 62, 0
1, 77383, Note_on_c, 6, 63, 0
1, 77386, Note_on_c, 7, 65, 0
1, 77400, Note_on_c, 7, 63, 64
1, 77400, Note_on_c, 9, 54, 28
1, 77400, Note_on_c, 9, 70, 43
1, 77400, Note_on_c, 9, 42, 43
1, 77400, Note_on_c, 11, 70, 93
1, 77400, Note_on_c, 11, 62, 96
1, 77416, Note_on_c, 11, 72, 0
1, 77427, Note_on_c, 9, 54, 0
1, 77433, Note_on_c, 9, 42, 0
1, 77451, Note_on_c, 7, 58, 0
1, 77474, Note_on_c, 9, 38, 0
1, 77482, Note_on_c, 7, 62, 0
1, 77486, Note_on_c, 9, 70, 0
1, 77508, Note_on_c, 7, 63, 0
1, 77514, Note_on_c, 1, 34, 0
1, 77520, Note_on_c, 1, 38, 102
1, 77520, Note_on_c, 7, 62, 54
1, 77520, Note_on_c, 7, 65, 93
1, 77520, Note_on_c, 7, 58, 76
1, 77520, Note_on_c, 9, 69, 48
1, 77520, Note_on_c, 9, 54, 78
1, 77520, Note_on_c, 9, 42, 84
1, 77565, Note_on_c, 9, 42, 0
1, 77583, Note_on_c, 9, 69, 0
1, 77583, Note_on_c, 9, 54, 0
1, 77633, Note_on_c, 12, 62, 0
1, 77633, Note_on_c, 12, 65, 0
1, 77633, Note_on_c, 12, 58, 0
1, 77640, Note_on_c, 9, 54, 18
1, 77640, Note_on_c, 9, 42, 52
1, 77640, Note_on_c, 9, 70, 56
1, 77640, Note_on_c, 12, 58, 52
1, 77640, Note_on_c, 12, 62, 57
1, 77640, Note_on_c, 12, 65, 48
1, 77654, Control_c, 7, 64, 0
1, 77668, Note_on_c, 9, 42, 0
1, 77679, Note_on_c, 9, 54, 0
1, 77718, Note_on_c, 11, 70, 0
1, 77725, Note_on_c, 11, 62, 0
1, 77729, Note_on_c, 7, 46, 0
1, 77736, Note_on_c, 11, 65, 0
1, 77750, Note_on_c, 9, 70, 0
1, 77755, Note_on_c, 12, 58, 0
1, 77755, Note_on_c, 12, 62, 0
1, 77755, Note_on_c, 12, 65, 0
1, 77760, Note_on_c, 1, 39, 108
1, 77760, Note_on_c, 7, 51, 74
1, 77760, Note_on_c, 7, 39, 84
1, 77760, Note_on_c, 7, 63, 76
1, 77760, Note_on_c, 7, 67, 87
1, 77760, Note_on_c, 7, 58, 82
1, 77760, Note_on_c, 5, 55, 48
1, 77760, Note_on_c, 6, 75, 66
1, 77760, Note_on_c, 6, 67, 45
1, 77760, Note_on_c, 9, 42, 105
1, 77760, Note_on_c, 9, 36, 111
1, 77760, Note_on_c, 9, 69, 27
1, 77760, Note_on_c, 9, 54, 78
1, 77760, Note_on_c, 11, 67, 44
1, 77760, Note_on_c, 11, 63, 39
1, 77760, Note_on_c, 12, 63, 68
1, 77760, Note_on_c, 12, 58, 84
1, 77760, Note_on_c, 12, 67, 99
1, 77761, Note_on_c, 7, 62, 0
1, 77762, Note_on_c, 5, 53, 0
1, 77775, Note_on_c, 6, 65, 0
1, 77776, Note_on_c, 7, 65, 0
1, 77778, Note_on_c, 7, 58, 0
1, 77792, Note_on_c, 1, 38, 0
1, 77799, Note_on_c, 11, 63, 0
1, 77807, Note_on_c, 9, 42, 0
1, 77813, Control_c, 7, 64, 127
1, 77819, Note_on_c, 11, 67, 0
1, 77820, Note_on_c, 6, 74, 0
1, 77820, Note_on_c, 9, 54, 0
1, 77846, Note_on_c, 9, 69, 0
1, 77880, Note_on_c, 9, 42, 62
1, 77880, Note_on_c, 9, 70, 45
1, 77880, Note_on_c, 9, 54, 42
1, 77911, Note_on_c, 9, 42, 0
1, 77922, Note_on_c, 9, 54, 0
1, 77962, Note_on_c, 7, 63, 0
1, 77976, Note_on_c, 9, 70, 0
1, 77991, Note_on_c, 9, 36, 0
1, 78000, Lyric_t, "you're "
1, 78000, Note_on_c, 7, 63, 54
1, 78000, Note_on_c, 7, 55, 49
1, 78000, Note_on_c, 3, 75, 111
1, 78000, Note_on_c, 9, 69, 33
1, 78000, Note_on_c, 9, 54, 68
1, 78000, Note_on_c, 9, 42, 68
1, 78000, Note_on_c, 11, 67, 87
1, 78000, Note_on_c, 11, 70, 87
1, 78000, Note_on_c, 11, 63, 84
1, 78000, Note_on_c, 12, 58, 59
1, 78049, Note_on_c, 9, 42, 0
1, 78061, Note_on_c, 9, 54, 0
1, 78065, Note_on_c, 9, 69, 0
1, 78103, Note_on_c, 12, 58, 0
1, 78120, Note_on_c, 9, 42, 61
1, 78120, Note_on_c, 9, 70, 54
1, 78120, Note_on_c, 9, 54, 33
1, 78147, Note_on_c, 9, 42, 0
1, 78159, Note_on_c, 9, 54, 0
1, 78219, Note_on_c, 9, 70, 0
1, 78232, Note_on_c, 12, 63, 0
1, 78232, Note_on_c, 12, 58, 0
1, 78232, Note_on_c, 12, 67, 0
1, 78235, Note_on_c, 3, 75, 0
1, 78240, Lyric_t, "beau"
1, 78240, Note_on_c, 3, 82, 99
1, 78240, Note_on_c, 9, 69, 39
1, 78240, Note_on_c, 9, 42, 93
1, 78240, Note_on_c, 9, 38, 114
1, 78240, Note_on_c, 9, 54, 78
1, 78240, Note_on_c, 12, 63, 82
1, 78240, Note_on_c, 12, 67, 90
1, 78240, Note_on_c, 12, 58, 102
1, 78267, Note_on_c, 7, 63, 0
1, 78288, Note_on_c, 9, 42, 0
1, 78306, Note_on_c, 9, 54, 0
1, 78314, Note_on_c, 9, 69, 0
1, 78360, Lyric_t, "ti"
1, 78360, Note_on_c, 7, 63, 74
1, 78360, Note_on_c, 3, 79, 102
1, 78360, Note_on_c, 9, 42, 58
1, 78360, Note_on_c, 9, 54, 24
1, 78360, Note_on_c, 9, 70, 51
1, 78390, Note_on_c, 9, 42, 0
1, 78403, Note_on_c, 3, 82, 0
1, 78407, Note_on_c, 9, 54, 0
1, 78407, Note_on_c, 11, 70, 0
1, 78413, Note_on_c, 11, 63, 0
1, 78415, Note_on_c, 11, 67, 0
1, 78452, Note_on_c, 7, 51, 0
1, 78455, Note_on_c, 9, 70, 0
1, 78480, Note_on_c, 9, 69, 44
1, 78480, Note_on_c, 9, 42, 66
1, 78480, Note_on_c, 9, 54, 64
1, 78480, Note_on_c, 11, 67, 84
1, 78480, Note_on_c, 11, 70, 90
1, 78480, Note_on_c, 11, 63, 78
1, 78495, Note_on_c, 9, 38, 0
1, 78502, Note_on_c, 3, 79, 0
1, 78535, Note_on_c, 1, 39, 0
1, 78536, Note_on_c, 9, 42, 0
1, 78542, Note_on_c, 9, 69, 0
1, 78563, Note_on_c, 9, 54, 0
1, 78593, Note_on_c, 12, 63, 0
1, 78593, Note_on_c, 12, 67, 0
1, 78593, Note_on_c, 12, 58, 0
1, 78600, Lyric_t, "ful "
1, 78600, Lyric_t, "\015"
1, 78600, Note_on_c, 1, 39, 76
1, 78600, Note_on_c, 3, 79, 105
1, 78600, Note_on_c, 9, 36, 105
1, 78600, Note_on_c, 9, 42, 59
1, 78600, Note_on_c, 9, 54, 29
1, 78600, Note_on_c, 9, 70, 56
1, 78600, Note_on_c, 12, 58, 74
1, 78600, Note_on_c, 12, 67, 82
1, 78637, Note_on_c, 9, 42, 0
1, 78641, Note_on_c, 9, 54, 0
1, 78674, Note_on_c, 1, 39, 0
1, 78688, Note_on_c, 9, 70, 0
1, 78714, Note_on_c, 9, 36, 0
1, 78720, Note_on_c, 1, 39, 93
1, 78720, Note_on_c, 7, 51, 36
1, 78720, Note_on_c, 3, 75, 99
1, 78720, Note_on_c, 9, 69, 42
1, 78720, Note_on_c, 9, 54, 83
1, 78720, Note_on_c, 9, 42, 87
1, 78770, Note_on_c, 11, 70, 0
1, 78780, Note_on_c, 9, 69, 0
1, 78781, Note_on_c, 9, 42, 0
1, 78784, Note_on_c, 9, 54, 0
1, 78792, Note_on_c, 7, 58, 0
1, 78796, Note_on_c, 3, 79, 0
1, 78804, Note_on_c, 11, 63, 0
1, 78806, Note_on_c, 11, 67, 0
1, 78834, Note_on_c, 12, 58, 0
1, 78834, Note_on_c, 12, 67, 0
1, 78840, Note_on_c, 9, 54, 26
1, 78840, Note_on_c, 9, 42, 64
1, 78840, Note_on_c, 9, 70, 54
1, 78840, Note_on_c, 11, 67, 49
1, 78840, Note_on_c, 11, 63, 37
1, 78840, Note_on_c, 12, 58, 66
1, 78840, Note_on_c, 12, 67, 64
1, 78866, Note_on_c, 9, 54, 0
1, 78866, Note_on_c, 11, 63, 0
1, 78872, Note_on_c, 9, 42, 0
1, 78892, Note_on_c, 11, 67, 0
1, 78914, Note_on_c, 1, 39, 0
1, 78916, Note_on_c, 3, 75, 0
1, 78928, Note_on_c, 9, 70, 0
1, 78955, Note_on_c, 12, 58, 0
1, 78955, Note_on_c, 12, 67, 0
1, 78956, Note_on_c, 5, 55, 0
1, 78960, Note_on_c, 1, 39, 99
1, 78960, Note_on_c, 7, 65, 99
1, 78960, Note_on_c, 5, 53, 51
1, 78960, Note_on_c, 8, 65, 99
1, 78960, Note_on_c, 9, 54, 78
1, 78960, Note_on_c, 9, 46, 99
1, 78960, Note_on_c, 9, 36, 114
1, 78960, Note_on_c, 9, 69, 50
1, 78960, Note_on_c, 11, 67, 93
1, 78960, Note_on_c, 11, 63, 90
1, 78960, Note_on_c, 11, 70, 93
1, 78960, Note_on_c, 12, 67, 80
1, 78960, Note_on_c, 12, 58, 87
1, 78960, Note_on_c, 13, 65, 99
1, 78999, Note_on_c, 7, 67, 0
1, 79010, Note_on_c, 7, 63, 0
1, 79016, Note_on_c, 9, 69, 0
1, 79020, Note_on_c, 9, 54, 0
1, 79071, Note_on_c, 9, 46, 0
1, 79080, Note_on_c, 9, 54, 35
1, 79080, Note_on_c, 9, 70, 56
1, 79086, Note_on_c, 9, 36, 0
1, 79117, Note_on_c, 9, 54, 0
1, 79171, Note_on_c, 9, 70, 0
1, 79194, Note_on_c, 12, 67, 0
1, 79194, Note_on_c, 12, 58, 0
1, 79200, Note_on_c, 9, 42, 70
1, 79200, Note_on_c, 9, 38, 114
1, 79200, Note_on_c, 9, 54, 78
1, 79200, Note_on_c, 9, 69, 41
1, 79200, Note_on_c, 12, 58, 99
1, 79200, Note_on_c, 12, 67, 90
1, 79234, Note_on_c, 9, 42, 0
1, 79249, Note_on_c, 9, 69, 0
1, 79264, Note_on_c, 9, 54, 0
1, 79319, Note_on_c, 7, 65, 0
1, 79320, Note_on_c, 7, 67, 96
1, 79320, Note_on_c, 5, 55, 59
1, 79320, Note_on_c, 8, 67, 87
1, 79320, Note_on_c, 9, 54, 27
1, 79320, Note_on_c, 9, 42, 62
1, 79320, Note_on_c, 9, 70, 48
1, 79320, Note_on_c, 13, 67, 87
1, 79334, Note_on_c, 5, 53, 0
1, 79354, Note_on_c, 9, 42, 0
1, 79358, Note_on_c, 8, 65, 0
1, 79358, Note_on_c, 9, 54, 0
1, 79358, Note_on_c, 13, 65, 0
1, 79365, Note_on_c, 11, 63, 0
1, 79366, Note_on_c, 11, 67, 0
1, 79373, Note_on_c, 11, 70, 0
1, 79394, Note_on_c, 9, 38, 0
1, 79417, Note_on_c, 9, 70, 0
1, 79440, Note_on_c, 1, 34, 96
1, 79440, Note_on_c, 9, 69, 53
1, 79440, Note_on_c, 9, 46, 90
1, 79440, Note_on_c, 9, 36, 90
1, 79440, Note_on_c, 9, 54, 78
1, 79440, Note_on_c, 11, 67, 84
1, 79440, Note_on_c, 11, 70, 68
1, 79440, Note_on_c, 11, 63, 84
1, 79451, Note_on_c, 1, 39, 0
1, 79496, Note_on_c, 9, 36, 0
1, 79504, Note_on_c, 9, 54, 0
1, 79511, Note_on_c, 9, 69, 0
1, 79530, Control_c, 7, 64, 0
1, 79551, Note_on_c, 9, 46, 0
1, 79560, Note_on_c, 9, 54, 30
1, 79560, Note_on_c, 12, 58, 52
1, 79580, Note_on_c, 7, 55, 0
1, 79592, Note_on_c, 9, 54, 0
1, 79605, Note_on_c, 7, 51, 0
1, 79619, Note_on_c, 7, 39, 0
1, 79624, Note_on_c, 12, 58, 0
1, 79645, Note_on_c, 6, 75, 0
1, 79649, Note_on_c, 6, 67, 0
1, 79663, Note_on_c, 11, 63, 0
1, 79667, Note_on_c, 11, 67, 0
1, 79667, Note_on_c, 11, 70, 0
1, 79672, Note_on_c, 12, 58, 0
1, 79672, Note_on_c, 12, 67, 0
1, 79680, Note_on_c, 1, 32, 111
1, 79680, Note_on_c, 7, 44, 87
1, 79680, Note_on_c, 7, 56, 82
1, 79680, Note_on_c, 7, 51, 80
1, 79680, Note_on_c, 7, 60, 82
1, 79680, Note_on_c, 5, 60, 57
1, 79680, Note_on_c, 5, 56, 47
1, 79680, Note_on_c, 6, 72, 78
1, 79680, Note_on_c, 6, 63, 74
1, 79680, Note_on_c, 8, 63, 93
1, 79680, Note_on_c, 9, 69, 51
1, 79680, Note_on_c, 9, 42, 105
1, 79680, Note_on_c, 9, 54, 89
1, 79680, Note_on_c, 9, 36, 117
1, 79680, Note_on_c, 11, 60, 50
1, 79680, Note_on_c, 11, 63, 58
1, 79680, Note_on_c, 12, 63, 80
1, 79680, Note_on_c, 12, 60, 84
1, 79680, Note_on_c, 12, 56, 102
1, 79680, Note_on_c, 13, 63, 93
1, 79692, Note_on_c, 5, 55, 0
1, 79695, Note_on_c, 7, 67, 0
1, 79705, Note_on_c, 1, 34, 0
1, 79714, Note_on_c, 5, 58, 0
1, 79720, Note_on_c, 8, 67, 0
1, 79720, Note_on_c, 13, 67, 0
1, 79733, Control_c, 7, 64, 127
1, 79733, Note_on_c, 9, 42, 0
1, 79739, Note_on_c, 9, 54, 0
1, 79760, Note_on_c, 9, 69, 0
1, 79800, Note_on_c, 9, 54, 31
1, 79800, Note_on_c, 9, 70, 54
1, 79800, Note_on_c, 9, 42, 80
1, 79842, Note_on_c, 9, 54, 0
1, 79860, Note_on_c, 9, 42, 0
1, 79893, Note_on_c, 9, 70, 0
1, 79895, Note_on_c, 11, 60, 0
1, 79920, Lyric_t, "you're "
1, 79920, Note_on_c, 7, 63, 80
1, 79920, Note_on_c, 3, 75, 117
1, 79920, Note_on_c, 9, 42, 59
1, 79920, Note_on_c, 9, 54, 70
1, 79920, Note_on_c, 9, 69, 44
1, 79920, Note_on_c, 11, 60, 84
1, 79920, Note_on_c, 11, 70, 102
1, 79920, Note_on_c, 12, 56, 55
1, 79978, Note_on_c, 9, 42, 0
1, 79987, Note_on_c, 9, 54, 0
1, 79993, Note_on_c, 9, 69, 0
1, 80029, Note_on_c, 9, 36, 0
1, 80040, Note_on_c, 9, 54, 49
1, 80040, Note_on_c, 9, 42, 59
1, 80040, Note_on_c, 9, 70, 56
1, 80067, Note_on_c, 12, 56, 0
1, 80074, Note_on_c, 9, 42, 0
1, 80076, Note_on_c, 9, 54, 0
1, 80135, Note_on_c, 3, 75, 0
1, 80142, Note_on_c, 9, 70, 0
1, 80152, Note_on_c, 12, 63, 0
1, 80152, Note_on_c, 12, 60, 0
1, 80152, Note_on_c, 12, 56, 0
1, 80160, Lyric_t, "beau"
1, 80160, Note_on_c, 3, 82, 111
1, 80160, Note_on_c, 9, 42, 105
1, 80160, Note_on_c, 9, 54, 86
1, 80160, Note_on_c, 9, 69, 32
1, 80160, Note_on_c, 9, 38, 114
1, 80160, Note_on_c, 12, 56, 80
1, 80160, Note_on_c, 12, 60, 93
1, 80160, Note_on_c, 12, 63, 93
1, 80206, Note_on_c, 7, 51, 0
1, 80211, Note_on_c, 9, 42, 0
1, 80231, Note_on_c, 9, 54, 0
1, 80239, Note_on_c, 9, 69, 0
1, 80249, Note_on_c, 7, 56, 0
1, 80263, Note_on_c, 11, 70, 0
1, 80280, Lyric_t, "ti"
1, 80280, Note_on_c, 3, 79, 102
1, 80280, Note_on_c, 9, 54, 34
1, 80280, Note_on_c, 9, 70, 53
1, 80280, Note_on_c, 9, 42, 34
1, 80305, Note_on_c, 3, 82, 0
1, 80315, Note_on_c, 9, 42, 0
1, 80316, Note_on_c, 9, 54, 0
1, 80368, Note_on_c, 9, 70, 0
1, 80400, Note_on_c, 7, 56, 49
1, 80400, Note_on_c, 7, 51, 55
1, 80400, Note_on_c, 9, 54, 72
1, 80400, Note_on_c, 9, 69, 45
1, 80400, Note_on_c, 9, 42, 82
1, 80400, Note_on_c, 11, 70, 87
1, 80429, Note_on_c, 7, 44, 0
1, 80434, Note_on_c, 1, 32, 0
1, 80445, Note_on_c, 9, 38, 0
1, 80448, Note_on_c, 9, 42, 0
1, 80453, Note_on_c, 7, 51, 0
1, 80454, Note_on_c, 3, 79, 0
1, 80464, Note_on_c, 9, 54, 0
1, 80471, Note_on_c, 9, 69, 0
1, 80500, Note_on_c, 7, 63, 0
1, 80508, Note_on_c, 7, 56, 0
1, 80509, Note_on_c, 11, 60, 0
1, 80520, Lyric_t, "ful "
1, 80520, Note_on_c, 1, 32, 74
1, 80520, Note_on_c, 3, 79, 102
1, 80520, Note_on_c, 9, 70, 51
1, 80520, Note_on_c, 9, 42, 51
1, 80520, Note_on_c, 9, 54, 43
1, 80520, Note_on_c, 12, 60, 42
1, 80520, Note_on_c, 12, 56, 64
1, 80524, Note_on_c, 11, 63, 0
1, 80546, Note_on_c, 9, 42, 0
1, 80550, Note_on_c, 9, 54, 0
1, 80581, Note_on_c, 12, 60, 0
1, 80587, Note_on_c, 7, 60, 0
1, 80588, Note_on_c, 1, 32, 0
1, 80604, Note_on_c, 9, 70, 0
1, 80621, Note_on_c, 11, 70, 0
1, 80640, Note_on_c, 1, 34, 87
1, 80640, Note_on_c, 7, 46, 93
1, 80640, Note_on_c, 7, 65, 76
1, 80640, Note_on_c, 7, 62, 82
1, 80640, Note_on_c, 7, 58, 68
1, 80640, Note_on_c, 5, 58, 56
1, 80640, Note_on_c, 5, 53, 43
1, 80640, Note_on_c, 6, 77, 84
1, 80640, Note_on_c, 6, 68, 61
1, 80640, Note_on_c, 9, 42, 96
1, 80640, Note_on_c, 9, 54, 86
1, 80640, Note_on_c, 9, 36, 105
1, 80640, Note_on_c, 9, 69, 32
1, 80640, Note_on_c, 11, 62, 84
1, 80640, Note_on_c, 11, 65, 96
1, 80640, Note_on_c, 11, 70, 87
1, 80645, Control_c, 7, 64, 0
1, 80646, Note_on_c, 12, 56, 0
1, 80650, Note_on_c, 5, 60, 0
1, 80669, Note_on_c, 5, 56, 0
1, 80687, Note_on_c, 9, 42, 0
1, 80707, Note_on_c, 9, 54, 0
1, 80712, Note_on_c, 8, 63, 0
1, 80712, Note_on_c, 13, 63, 0
1, 80713, Note_on_c, 6, 72, 0
1, 80713, Note_on_c, 9, 69, 0
1, 80720, Note_on_c, 6, 63, 0
1, 80751, Note_on_c, 12, 56, 0
1, 80751, Note_on_c, 12, 60, 0
1, 80751, Note_on_c, 12, 63, 0
1, 80760, Note_on_c, 9, 54, 43
1, 80760, Note_on_c, 9, 70, 41
1, 80760, Note_on_c, 9, 42, 70
1, 80760, Note_on_c, 12, 58, 62
1, 80760, Note_on_c, 12, 62, 82
1, 80760, Note_on_c, 12, 65, 70
1, 80763, Control_c, 7, 64, 127
1, 80782, Note_on_c, 9, 36, 0
1, 80791, Note_on_c, 9, 54, 0
1, 80801, Note_on_c, 9, 42, 0
1, 80839, Note_on_c, 3, 79, 0
1, 80843, Note_on_c, 7, 65, 0
1, 80857, Note_on_c, 1, 34, 0
1, 80867, Note_on_c, 9, 70, 0
1, 80872, Note_on_c, 11, 62, 0
1, 80875, Note_on_c, 12, 58, 0
1, 80875, Note_on_c, 12, 62, 0
1, 80875, Note_on_c, 12, 65, 0
1, 80880, Lyric_t, "it's "
1, 80880, Note_on_c, 1, 34, 99
1, 80880, Note_on_c, 7, 65, 93
1, 80880, Note_on_c, 3, 82, 105
1, 80880, Note_on_c, 8, 65, 87
1, 80880, Note_on_c, 9, 46, 99
1, 80880, Note_on_c, 9, 36, 111
1, 80880, Note_on_c, 9, 69, 44
1, 80880, Note_on_c, 9, 54, 78
1, 80880, Note_on_c, 11, 62, 87
1, 80880, Note_on_c, 11, 72, 96
1, 80880, Note_on_c, 12, 62, 58
1, 80880, Note_on_c, 12, 58, 78
1, 80880, Note_on_c, 12, 65, 66
1, 80880, Note_on_c, 13, 65, 87
1, 80896, Note_on_c, 11, 70, 0
1, 80948, Note_on_c, 9, 54, 0
1, 80951, Note_on_c, 9, 69, 0
1, 80958, Note_on_c, 9, 46, 0
1, 81000, Note_on_c, 9, 70, 51
1, 81000, Note_on_c, 9, 54, 36
1, 81027, Note_on_c, 9, 54, 0
1, 81074, Note_on_c, 9, 36, 0
1, 81097, Note_on_c, 9, 70, 0
1, 81114, Note_on_c, 12, 62, 0
1, 81114, Note_on_c, 12, 58, 0
1, 81114, Note_on_c, 12, 65, 0
1, 81120, Note_on_c, 9, 54, 91
1, 81120, Note_on_c, 9, 38, 108
1, 81120, Note_on_c, 9, 42, 76
1, 81120, Note_on_c, 9, 69, 33
1, 81120, Note_on_c, 12, 62, 99
1, 81120, Note_on_c, 12, 65, 90
1, 81120, Note_on_c, 12, 58, 111
1, 81162, Note_on_c, 9, 42, 0
1, 81186, Note_on_c, 9, 54, 0
1, 81200, Note_on_c, 9, 69, 0
1, 81206, Note_on_c, 7, 62, 0
1, 81240, Note_on_c, 9, 70, 43
1, 81240, Note_on_c, 9, 54, 33
1, 81240, Note_on_c, 9, 42, 61
1, 81275, Note_on_c, 9, 42, 0
1, 81276, Note_on_c, 11, 62, 0
1, 81285, Note_on_c, 9, 54, 0
1, 81314, Note_on_c, 9, 38, 0
1, 81315, Note_on_c, 11, 65, 0
1, 81326, Note_on_c, 9, 70, 0
1, 81352, Note_on_c, 11, 72, 0
1, 81354, Note_on_c, 1, 34, 0
1, 81356, Note_on_c, 3, 82, 0
1, 81360, Lyric_t, "true. "
1, 81360, Lyric_t, "\015"
1, 81360, Note_on_c, 1, 38, 102
1, 81360, Note_on_c, 7, 53, 46
1, 81360, Note_on_c, 7, 62, 58
1, 81360, Note_on_c, 3, 75, 108
1, 81360, Note_on_c, 6, 74, 70
1, 81360, Note_on_c, 6, 65, 68
1, 81360, Note_on_c, 9, 54, 78
1, 81360, Note_on_c, 9, 42, 90
1, 81360, Note_on_c, 9, 69, 48
1, 81360, Note_on_c, 11, 65, 64
1, 81360, Note_on_c, 11, 70, 82
1, 81360, Note_on_c, 11, 62, 76
1, 81405, Note_on_c, 9, 42, 0
1, 81406, Note_on_c, 6, 68, 0
1, 81423, Note_on_c, 9, 69, 0
1, 81424, Note_on_c, 6, 77, 0
1, 81425, Note_on_c, 9, 54, 0
1, 81480, Note_on_c, 9, 54, 27
1, 81480, Note_on_c, 9, 70, 56
1, 81480, Note_on_c, 9, 42, 68
1, 81480, Note_on_c, 12, 58, 38
1, 81512, Note_on_c, 9, 54, 0
1, 81519, Note_on_c, 9, 42, 0
1, 81520, Note_on_c, 11, 65, 0
1, 81532, Note_on_c, 12, 58, 0
1, 81536, Note_on_c, 7, 65, 0
1, 81537, Note_on_c, 8, 65, 0
1, 81537, Note_on_c, 13, 65, 0
1, 81543, Note_on_c, 7, 46, 0
1, 81543, Note_on_c, 7, 53, 0
1, 81548, Note_on_c, 7, 62, 0
1, 81561, Note_on_c, 11, 62, 0
1, 81563, Note_on_c, 7, 58, 0
1, 81590, Note_on_c, 9, 70, 0
1, 81592, Note_on_c, 12, 62, 0
1, 81592, Note_on_c, 12, 65, 0
1, 81592, Note_on_c, 12, 58, 0
1, 81597, Note_on_c, 5, 53, 0
1, 81600, Note_on_c, 1, 39, 108
1, 81600, Note_on_c, 7, 67, 90
1, 81600, Note_on_c, 7, 58, 84
1, 81600, Note_on_c, 7, 51, 74
1, 81600, Note_on_c, 7, 63, 80
1, 81600, Note_on_c, 7, 39, 87
1, 81600, Note_on_c, 5, 55, 57
1, 81600, Note_on_c, 6, 75, 78
1, 81600, Note_on_c, 6, 67, 76
1, 81600, Note_on_c, 8, 67, 82
1, 81600, Note_on_c, 9, 36, 117
1, 81600, Note_on_c, 9, 69, 27
1, 81600, Note_on_c, 9, 42, 99
1, 81600, Note_on_c, 9, 54, 86
1, 81600, Note_on_c, 12, 58, 102
1, 81600, Note_on_c, 12, 67, 90
1, 81600, Note_on_c, 12, 63, 90
1, 81600, Note_on_c, 13, 67, 82
1, 81603, Control_c, 7, 64, 0
1, 81632, Note_on_c, 1, 38, 0
1, 81641, Note_on_c, 6, 65, 0
1, 81650, Control_c, 7, 64, 127
1, 81653, Note_on_c, 6, 74, 0
1, 81656, Note_on_c, 9, 42, 0
1, 81660, Note_on_c, 9, 54, 0
1, 81686, Note_on_c, 9, 69, 0
1, 81700, Note_on_c, 11, 70, 0
1, 81720, Note_on_c, 9, 54, 35
1, 81720, Note_on_c, 9, 42, 66
1, 81720, Note_on_c, 9, 70, 45
1, 81746, Note_on_c, 9, 54, 0
1, 81752, Note_on_c, 9, 42, 0
1, 81816, Note_on_c, 9, 70, 0
1, 81840, Note_on_c, 9, 54, 75
1, 81840, Note_on_c, 9, 42, 82
1, 81840, Note_on_c, 9, 69, 33
1, 81840, Note_on_c, 11, 67, 90
1, 81840, Note_on_c, 11, 70, 87
1, 81840, Note_on_c, 11, 63, 90
1, 81840, Note_on_c, 12, 58, 59
1, 81890, Note_on_c, 9, 42, 0
1, 81900, Note_on_c, 9, 54, 0
1, 81905, Note_on_c, 9, 69, 0
1, 81921, Note_on_c, 9, 36, 0
1, 81960, Note_on_c, 9, 54, 25
1, 81960, Note_on_c, 9, 70, 54
1, 81960, Note_on_c, 9, 42, 44
1, 81984, Note_on_c, 7, 63, 0
1, 81992, Note_on_c, 9, 42, 0
1, 82002, Note_on_c, 9, 54, 0
1, 82017, Note_on_c, 12, 58, 0
1, 82024, Note_on_c, 3, 75, 0
1, 82037, Control_c, 7, 64, 0
1, 82042, Control_c, 7, 64, 127
1, 82059, Note_on_c, 9, 70, 0
1, 82072, Note_on_c, 12, 58, 0
1, 82072, Note_on_c, 12, 67, 0
1, 82072, Note_on_c, 12, 63, 0
1, 82080, Note_on_c, 7, 63, 66
1, 82080, Note_on_c, 7, 55, 44
1, 82080, Note_on_c, 9, 42, 99
1, 82080, Note_on_c, 9, 69, 39
1, 82080, Note_on_c, 9, 54, 83
1, 82080, Note_on_c, 9, 38, 111
1, 82080, Note_on_c, 12, 63, 72
1, 82080, Note_on_c, 12, 58, 102
1, 82080, Note_on_c, 12, 67, 93
1, 82126, Note_on_c, 11, 63, 0
1, 82131, Note_on_c, 9, 42, 0
1, 82135, Note_on_c, 11, 67, 0
1, 82139, Note_on_c, 9, 54, 0
1, 82154, Note_on_c, 9, 69, 0
1, 82200, Note_on_c, 9, 54, 34
1, 82200, Note_on_c, 9, 42, 49
1, 82200, Note_on_c, 9, 70, 51
1, 82201, Note_on_c, 7, 51, 0
1, 82234, Note_on_c, 9, 54, 0
1, 82237, Note_on_c, 9, 42, 0
1, 82262, Note_on_c, 11, 70, 0
1, 82285, Note_on_c, 1, 39, 0
1, 82295, Note_on_c, 9, 70, 0
1, 82304, Note_on_c, 9, 38, 0
1, 82320, Note_on_c, 1, 39, 84
1, 82320, Note_on_c, 9, 42, 70
1, 82320, Note_on_c, 9, 69, 44
1, 82320, Note_on_c, 9, 54, 81
1, 82320, Note_on_c, 11, 70, 74
1, 82320, Note_on_c, 11, 67, 87
1, 82320, Note_on_c, 11, 63, 87
1, 82377, Note_on_c, 9, 42, 0
1, 82381, Note_on_c, 9, 54, 0
1, 82382, Note_on_c, 9, 69, 0
1, 82440, Note_on_c, 9, 54, 30
1, 82440, Note_on_c, 9, 70, 56
1, 82440, Note_on_c, 9, 42, 52
1, 82440, Note_on_c, 9, 36, 78
1, 82440, Note_on_c, 12, 58, 64
1, 82457, Note_on_c, 7, 63, 0
1, 82470, Note_on_c, 9, 54, 0
1, 82472, Note_on_c, 7, 55, 0
1, 82480, Note_on_c, 9, 42, 0
1, 82480, Note_on_c, 9, 36, 0
1, 82514, Note_on_c, 1, 39, 0
1, 82528, Note_on_c, 9, 70, 0
1, 82560, Note_on_c, 1, 39, 90
1, 82560, Note_on_c, 7, 51, 58
1, 82560, Note_on_c, 7, 63, 62
1, 82560, Note_on_c, 7, 55, 43
1, 82560, Note_on_c, 9, 54, 78
1, 82560, Note_on_c, 9, 36, 108
1, 82560, Note_on_c, 9, 42, 90
1, 82560, Note_on_c, 9, 69, 42
1, 82617, Note_on_c, 9, 54, 0
1, 82618, Note_on_c, 12, 58, 0
1, 82619, Note_on_c, 7, 67, 0
1, 82620, Note_on_c, 9, 42, 0
1, 82620, Note_on_c, 9, 69, 0
1, 82654, Note_on_c, 8, 67, 0
1, 82654, Note_on_c, 13, 67, 0
1, 82657, Note_on_c, 7, 55, 0
1, 82658, Note_on_c, 11, 70, 0
1, 82671, Note_on_c, 12, 63, 0
1, 82671, Note_on_c, 12, 58, 0
1, 82671, Note_on_c, 12, 67, 0
1, 82674, Note_on_c, 7, 58, 0
1, 82680, Note_on_c, 9, 42, 54
1, 82680, Note_on_c, 9, 70, 54
1, 82680, Note_on_c, 9, 54, 30
1, 82680, Note_on_c, 12, 58, 66
1, 82680, Note_on_c, 12, 67, 40
1, 82687, Note_on_c, 7, 63, 0
1, 82707, Note_on_c, 9, 54, 0
1, 82716, Note_on_c, 9, 42, 0
1, 82717, Note_on_c, 9, 36, 0
1, 82764, Note_on_c, 11, 63, 0
1, 82768, Note_on_c, 9, 70, 0
1, 82795, Note_on_c, 12, 58, 0
1, 82795, Note_on_c, 12, 67, 0
1, 82797, Note_on_c, 1, 39, 0
1, 82800, Note_on_c, 1, 46, 84
1, 82800, Note_on_c, 7, 65, 108
1, 82800, Note_on_c, 7, 53, 90
1, 82800, Note_on_c, 5, 53, 57
1, 82800, Note_on_c, 8, 65, 93
1, 82800, Note_on_c, 9, 69, 50
1, 82800, Note_on_c, 9, 54, 81
1, 82800, Note_on_c, 9, 36, 99
1, 82800, Note_on_c, 9, 46, 105
1, 82800, Note_on_c, 11, 63, 93
1, 82800, Note_on_c, 11, 70, 99
1, 82800, Note_on_c, 12, 67, 87
1, 82800, Note_on_c, 12, 58, 90
1, 82800, Note_on_c, 12, 63, 90
1, 82800, Note_on_c, 13, 65, 93
1, 82817, Note_on_c, 5, 55, 0
1, 82856, Note_on_c, 9, 69, 0
1, 82856, Note_on_c, 9, 54, 0
1, 82885, Note_on_c, 9, 46, 0
1, 82920, Note_on_c, 9, 54, 30
1, 82920, Note_on_c, 9, 70, 56
1, 82922, Note_on_c, 9, 36, 0
1, 82966, Note_on_c, 9, 54, 0
1, 83011, Note_on_c, 9, 70, 0
1, 83034, Note_on_c, 12, 67, 0
1, 83034, Note_on_c, 12, 58, 0
1, 83034, Note_on_c, 12, 63, 0
1, 83040, Note_on_c, 1, 39, 84
1, 83040, Note_on_c, 9, 38, 114
1, 83040, Note_on_c, 9, 69, 41
1, 83040, Note_on_c, 9, 54, 81
1, 83040, Note_on_c, 9, 46, 66
1, 83040, Note_on_c, 12, 58, 90
1, 83040, Note_on_c, 12, 67, 90
1, 83043, Note_on_c, 1, 46, 0
1, 83070, Note_on_c, 7, 53, 0
1, 83075, Note_on_c, 11, 63, 0
1, 83089, Note_on_c, 9, 69, 0
1, 83090, Note_on_c, 9, 46, 0
1, 83099, Note_on_c, 9, 54, 0
1, 83114, Note_on_c, 11, 70, 0
1, 83146, Note_on_c, 5, 53, 0
1, 83159, Note_on_c, 8, 65, 0
1, 83159, Note_on_c, 13, 65, 0
1, 83160, Note_on_c, 7, 67, 105
1, 83160, Note_on_c, 7, 55, 64
1, 83160, Note_on_c, 5, 55, 62
1, 83160, Note_on_c, 8, 67, 99
1, 83160, Note_on_c, 9, 70, 48
1, 83160, Note_on_c, 9, 54, 24
1, 83160, Note_on_c, 11, 63, 45
1, 83160, Note_on_c, 13, 67, 99
1, 83170, Note_on_c, 7, 65, 0
1, 83198, Note_on_c, 9, 54, 0
1, 83206, Note_on_c, 11, 63, 0
1, 83225, Note_on_c, 11, 67, 0
1, 83246, Note_on_c, 1, 39, 0
1, 83257, Note_on_c, 9, 70, 0
1, 83267, Note_on_c, 9, 38, 0
1, 83280, Lyric_t, "I "
1, 83280, Note_on_c, 1, 39, 93
1, 83280, Note_on_c, 3, 75, 108
1, 83280, Note_on_c, 9, 69, 53
1, 83280, Note_on_c, 9, 36, 99
1, 83280, Note_on_c, 9, 54, 78
1, 83280, Note_on_c, 9, 42, 102
1, 83280, Note_on_c, 11, 67, 78
1, 83280, Note_on_c, 11, 63, 76
1, 83280, Note_on_c, 11, 70, 87
1, 83280, Note_on_c, 12, 58, 74
1, 83320, Note_on_c, 9, 42, 0
1, 83331, Control_c, 7, 64, 0
1, 83334, Note_on_c, 9, 54, 0
1, 83338, Note_on_c, 9, 36, 0
1, 83351, Note_on_c, 9, 69, 0
1, 83376, Note_on_c, 12, 58, 0
1, 83400, Lyric_t, "saw "
1, 83400, Note_on_c, 3, 82, 117
1, 83400, Note_on_c, 9, 42, 66
1, 83400, Note_on_c, 9, 54, 39
1, 83414, Note_on_c, 7, 51, 0
1, 83419, Note_on_c, 3, 75, 0
1, 83433, Note_on_c, 9, 42, 0
1, 83442, Note_on_c, 9, 54, 0
1, 83451, Note_on_c, 7, 39, 0
1, 83479, Note_on_c, 11, 70, 0
1, 83485, Note_on_c, 11, 63, 0
1, 83488, Note_on_c, 11, 67, 0
1, 83489, Note_on_c, 7, 55, 0
1, 83512, Note_on_c, 12, 58, 0
1, 83512, Note_on_c, 12, 67, 0
1, 83520, Note_on_c, 1, 32, 108
1, 83520, Note_on_c, 7, 63, 84
1, 83520, Note_on_c, 7, 44, 96
1, 83520, Note_on_c, 7, 60, 80
1, 83520, Note_on_c, 7, 56, 76
1, 83520, Note_on_c, 5, 60, 57
1, 83520, Note_on_c, 5, 56, 56
1, 83520, Note_on_c, 6, 72, 80
1, 83520, Note_on_c, 6, 68, 70
1, 83520, Note_on_c, 8, 63, 96
1, 83520, Note_on_c, 9, 42, 96
1, 83520, Note_on_c, 9, 54, 89
1, 83520, Note_on_c, 9, 36, 117
1, 83520, Note_on_c, 9, 69, 51
1, 83520, Note_on_c, 11, 63, 58
1, 83520, Note_on_c, 11, 60, 55
1, 83520, Note_on_c, 12, 60, 90
1, 83520, Note_on_c, 12, 68, 93
1, 83520, Note_on_c, 13, 63, 96
1, 83521, Note_on_c, 5, 55, 0
1, 83525, Note_on_c, 7, 67, 0
1, 83527, Note_on_c, 6, 75, 0
1, 83533, Note_on_c, 6, 67, 0
1, 83534, Note_on_c, 5, 58, 0
1, 83537, Note_on_c, 1, 39, 0
1, 83570, Note_on_c, 9, 54, 0
1, 83571, Control_c, 7, 64, 127
1, 83574, Note_on_c, 8, 67, 0
1, 83574, Note_on_c, 13, 67, 0
1, 83577, Note_on_c, 9, 42, 0
1, 83600, Note_on_c, 9, 69, 0
1, 83640, Note_on_c, 9, 54, 37
1, 83640, Note_on_c, 9, 70, 54
1, 83640, Note_on_c, 9, 42, 68
1, 83673, Note_on_c, 9, 42, 0
1, 83674, Note_on_c, 9, 54, 0
1, 83721, Note_on_c, 11, 60, 0
1, 83733, Note_on_c, 9, 70, 0
1, 83760, Lyric_t, "your "
1, 83760, Note_on_c, 3, 79, 105
1, 83760, Note_on_c, 9, 42, 78
1, 83760, Note_on_c, 9, 54, 70
1, 83760, Note_on_c, 9, 69, 44
1, 83760, Note_on_c, 11, 60, 93
1, 83760, Note_on_c, 11, 70, 93
1, 83760, Note_on_c, 12, 60, 68
1, 83785, Note_on_c, 3, 82, 0
1, 83792, Note_on_c, 7, 56, 0
1, 83813, Note_on_c, 9, 42, 0
1, 83814, Note_on_c, 9, 54, 0
1, 83833, Note_on_c, 9, 69, 0
1, 83869, Note_on_c, 9, 36, 0
1, 83880, Note_on_c, 7, 56, 32
1, 83880, Note_on_c, 9, 70, 56
1, 83880, Note_on_c, 9, 54, 32
1, 83880, Note_on_c, 9, 42, 68
1, 83913, Note_on_c, 7, 63, 0
1, 83918, Note_on_c, 9, 42, 0
1, 83921, Note_on_c, 12, 60, 0
1, 83938, Note_on_c, 9, 54, 0
1, 83982, Note_on_c, 9, 70, 0
1, 83992, Note_on_c, 12, 60, 0
1, 83992, Note_on_c, 12, 68, 0
1, 84000, Note_on_c, 7, 63, 46
1, 84000, Note_on_c, 7, 51, 44
1, 84000, Note_on_c, 9, 38, 114
1, 84000, Note_on_c, 9, 69, 32
1, 84000, Note_on_c, 9, 42, 105
1, 84000, Note_on_c, 9, 54, 89
1, 84000, Note_on_c, 12, 60, 99
1, 84000, Note_on_c, 12, 63, 84
1, 84000, Note_on_c, 12, 68, 96
1, 84051, Note_on_c, 9, 54, 0
1, 84054, Note_on_c, 9, 42, 0
1, 84079, Note_on_c, 9, 69, 0
1, 84091, Note_on_c, 11, 60, 0
1, 84120, Note_on_c, 9, 42, 64
1, 84120, Note_on_c, 9, 54, 42
1, 84120, Note_on_c, 9, 70, 53
1, 84120, Note_on_c, 11, 60, 40
1, 84158, Note_on_c, 9, 42, 0
1, 84161, Note_on_c, 9, 54, 0
1, 84173, Note_on_c, 11, 60, 0
1, 84190, Note_on_c, 11, 70, 0
1, 84196, Note_on_c, 11, 63, 0
1, 84198, Note_on_c, 7, 51, 0
1, 84208, Note_on_c, 9, 70, 0
1, 84214, Note_on_c, 7, 56, 0
1, 84226, Note_on_c, 3, 79, 0
1, 84240, Lyric_t, "face "
1, 84240, Lyric_t, "\015"
1, 84240, Note_on_c, 7, 56, 26
1, 84240, Note_on_c, 3, 75, 114
1, 84240, Note_on_c, 9, 54, 78
1, 84240, Note_on_c, 9, 69, 45
1, 84240, Note_on_c, 9, 42, 78
1, 84240, Note_on_c, 11, 60, 76
1, 84240, Note_on_c, 11, 63, 80
1, 84240, Note_on_c, 11, 70, 93
1, 84244, Note_on_c, 7, 44, 0
1, 84274, Note_on_c, 8, 63, 0
1, 84274, Note_on_c, 13, 63, 0
1, 84285, Note_on_c, 9, 38, 0
1, 84290, Note_on_c, 9, 42, 0
1, 84293, Note_on_c, 9, 54, 0
1, 84296, Note_on_c, 7, 56, 0
1, 84311, Note_on_c, 9, 69, 0
1, 84336, Note_on_c, 1, 32, 0
1, 84338, Note_on_c, 7, 60, 0
1, 84360, Note_on_c, 1, 32, 76
1, 84360, Note_on_c, 9, 70, 51
1, 84360, Note_on_c, 9, 42, 61
1, 84360, Note_on_c, 9, 54, 34
1, 84360, Note_on_c, 12, 60, 64
1, 84362, Note_on_c, 7, 63, 0
1, 84386, Note_on_c, 11, 63, 0
1, 84389, Note_on_c, 11, 60, 0
1, 84392, Note_on_c, 9, 42, 0
1, 84394, Note_on_c, 9, 54, 0
1, 84444, Note_on_c, 9, 70, 0
1, 84461, Note_on_c, 11, 70, 0
1, 84477, Note_on_c, 12, 60, 0
1, 84480, Note_on_c, 1, 34, 82
1, 84480, Note_on_c, 7, 58, 74
1, 84480, Note_on_c, 7, 46, 93
1, 84480, Note_on_c, 7, 62, 84
1, 84480, Note_on_c, 5, 58, 57
1, 84480, Note_on_c, 5, 53, 48
1, 84480, Note_on_c, 6, 74, 87
1, 84480, Note_on_c, 6, 70, 74
1, 84480, Note_on_c, 8, 65, 70
1, 84480, Note_on_c, 9, 36, 105
1, 84480, Note_on_c, 9, 69, 32
1, 84480, Note_on_c, 9, 42, 90
1, 84480, Note_on_c, 9, 54, 72
1, 84480, Note_on_c, 11, 65, 87
1, 84480, Note_on_c, 11, 62, 84
1, 84480, Note_on_c, 11, 70, 66
1, 84480, Note_on_c, 13, 65, 70
1, 84481, Control_c, 7, 64, 0
1, 84497, Note_on_c, 1, 32, 0
1, 84503, Note_on_c, 5, 60, 0
1, 84506, Note_on_c, 6, 68, 0
1, 84507, Note_on_c, 6, 72, 0
1, 84512, Note_on_c, 5, 56, 0
1, 84535, Note_on_c, 9, 54, 0
1, 84537, Note_on_c, 9, 42, 0
1, 84553, Note_on_c, 9, 69, 0
1, 84578, Note_on_c, 3, 75, 0
1, 84588, Control_c, 7, 64, 127
1, 84591, Note_on_c, 12, 60, 0
1, 84591, Note_on_c, 12, 63, 0
1, 84591, Note_on_c, 12, 68, 0
1, 84600, Note_on_c, 9, 42, 38
1, 84600, Note_on_c, 9, 54, 51
1, 84600, Note_on_c, 9, 70, 41
1, 84600, Note_on_c, 12, 62, 74
1, 84600, Note_on_c, 12, 58, 74
1, 84600, Note_on_c, 12, 65, 66
1, 84622, Note_on_c, 9, 36, 0
1, 84637, Note_on_c, 9, 42, 0
1, 84637, Note_on_c, 9, 54, 0
1, 84697, Note_on_c, 1, 34, 0
1, 84700, Note_on_c, 11, 62, 0
1, 84707, Note_on_c, 9, 70, 0
1, 84716, Note_on_c, 11, 70, 0
1, 84720, Note_on_c, 1, 34, 87
1, 84720, Note_on_c, 9, 69, 44
1, 84720, Note_on_c, 9, 54, 81
1, 84720, Note_on_c, 9, 36, 111
1, 84720, Note_on_c, 9, 46, 99
1, 84720, Note_on_c, 11, 72, 105
1, 84720, Note_on_c, 11, 62, 99
1, 84720, Note_on_c, 12, 58, 76
1, 84720, Note_on_c, 12, 62, 76
1, 84743, Note_on_c, 7, 58, 0
1, 84774, Note_on_c, 9, 54, 0
1, 84791, Note_on_c, 9, 69, 0
1, 84804, Note_on_c, 9, 46, 0
1, 84840, Note_on_c, 7, 58, 25
1, 84840, Note_on_c, 9, 54, 26
1, 84840, Note_on_c, 9, 70, 51
1, 84884, Note_on_c, 9, 54, 0
1, 84886, Note_on_c, 7, 62, 0
1, 84898, Note_on_c, 12, 58, 0
1, 84911, Note_on_c, 12, 62, 0
1, 84914, Note_on_c, 9, 36, 0
1, 84937, Note_on_c, 9, 70, 0
1, 84947, Note_on_c, 7, 58, 0
1, 84953, Note_on_c, 12, 62, 0
1, 84953, Note_on_c, 12, 58, 0
1, 84953, Note_on_c, 12, 65, 0
1, 84960, Note_on_c, 7, 53, 55
1, 84960, Note_on_c, 7, 63, 76
1, 84960, Note_on_c, 7, 58, 55
1, 84960, Note_on_c, 9, 69, 33
1, 84960, Note_on_c, 9, 38, 108
1, 84960, Note_on_c, 9, 54, 78
1, 84960, Note_on_c, 9, 42, 76
1, 84960, Note_on_c, 12, 62, 93
1, 84960, Note_on_c, 12, 65, 84
1, 84960, Note_on_c, 12, 58, 102
1, 85010, Note_on_c, 9, 54, 0
1, 85016, Note_on_c, 9, 42, 0
1, 85040, Note_on_c, 9, 69, 0
1, 85080, Note_on_c, 9, 42, 64
1, 85080, Note_on_c, 9, 54, 36
1, 85080, Note_on_c, 9, 70, 43
1, 85113, Note_on_c, 9, 42, 0
1, 85134, Note_on_c, 9, 54, 0
1, 85145, Note_on_c, 11, 62, 0
1, 85154, Note_on_c, 9, 38, 0
1, 85166, Note_on_c, 9, 70, 0
1, 85189, Note_on_c, 1, 34, 0
1, 85200, Lyric_t, "in "
1, 85200, Note_on_c, 1, 38, 87
1, 85200, Note_on_c, 3, 75, 114
1, 85200, Note_on_c, 9, 42, 96
1, 85200, Note_on_c, 9, 54, 75
1, 85200, Note_on_c, 9, 69, 48
1, 85200, Note_on_c, 11, 70, 76
1, 85200, Note_on_c, 11, 62, 72
1, 85206, Note_on_c, 11, 72, 0
1, 85248, Note_on_c, 9, 42, 0
1, 85255, Note_on_c, 9, 54, 0
1, 85263, Note_on_c, 9, 69, 0
1, 85275, Note_on_c, 3, 75, 0
1, 85320, Lyric_t, "a "
1, 85320, Note_on_c, 3, 75, 105
1, 85320, Note_on_c, 9, 54, 27
1, 85320, Note_on_c, 9, 42, 78
1, 85320, Note_on_c, 9, 70, 56
1, 85320, Note_on_c, 12, 58, 54
1, 85333, Note_on_c, 11, 62, 0
1, 85340, Note_on_c, 11, 70, 0
1, 85347, Note_on_c, 11, 65, 0
1, 85354, Note_on_c, 9, 42, 0
1, 85358, Note_on_c, 7, 53, 0
1, 85361, Note_on_c, 7, 46, 0
1, 85363, Note_on_c, 9, 54, 0
1, 85367, Note_on_c, 7, 58, 0
1, 85378, Note_on_c, 7, 63, 0
1, 85382, Note_on_c, 5, 53, 0
1, 85398, Note_on_c, 12, 58, 0
1, 85415, Control_c, 7, 64, 0
1, 85430, Note_on_c, 9, 70, 0
1, 85432, Note_on_c, 12, 62, 0
1, 85432, Note_on_c, 12, 65, 0
1, 85432, Note_on_c, 12, 58, 0
1, 85433, Note_on_c, 3, 75, 0
1, 85438, Note_on_c, 1, 38, 0
1, 85440, Time_signature, 6, 2, 24, 8
1, 85440, Lyric_t, "crowd"
1, 85440, Note_on_c, 1, 39, 111
1, 85440, Note_on_c, 7, 67, 87
1, 85440, Note_on_c, 7, 63, 82
1, 85440, Note_on_c, 7, 58, 82
1, 85440, Note_on_c, 7, 39, 82
1, 85440, Note_on_c, 7, 51, 68
1, 85440, Note_on_c, 3, 82, 111
1, 85440, Note_on_c, 5, 63, 60
1, 85440, Note_on_c, 5, 55, 45
1, 85440, Note_on_c, 6, 75, 82
1, 85440, Note_on_c, 6, 67, 74
1, 85440, Note_on_c, 8, 67, 76
1, 85440, Note_on_c, 9, 42, 99
1, 85440, Note_on_c, 9, 54, 81
1, 85440, Note_on_c, 9, 69, 27
1, 85440, Note_on_c, 9, 36, 111
1, 85440, Note_on_c, 11, 70, 87
1, 85440, Note_on_c, 11, 67, 90
1, 85440, Note_on_c, 11, 63, 87
1, 85440, Note_on_c, 12, 67, 87
1, 85440, Note_on_c, 12, 63, 96
1, 85440, Note_on_c, 12, 58, 105
1, 85440, Note_on_c, 13, 67, 76
1, 85465, Note_on_c, 8, 65, 0
1, 85465, Note_on_c, 13, 65, 0
1, 85483, Note_on_c, 6, 70, 0
1, 85492, Note_on_c, 9, 42, 0
1, 85493, Note_on_c, 9, 54, 0
1, 85504, Note_on_c, 5, 58, 0
1, 85509, Note_on_c, 6, 74, 0
1, 85511, Control_c, 7, 64, 127
1, 85526, Note_on_c, 9, 69, 0
1, 85560, Note_on_c, 9, 42, 55
1, 85560, Note_on_c, 9, 70, 45
1, 85560, Note_on_c, 9, 54, 25
1, 85601, Note_on_c, 9, 54, 0
1, 85604, Note_on_c, 9, 42, 0
1, 85635, Note_on_c, 3, 82, 0
1, 85636, Note_on_c, 9, 36, 0
1, 85656, Note_on_c, 9, 70, 0
1, 85673, Note_on_c, 7, 51, 0
1, 85680, Lyric_t, "ed "
1, 85680, Note_on_c, 3, 79, 108
1, 85680, Note_on_c, 9, 54, 72
1, 85680, Note_on_c, 9, 69, 33
1, 85680, Note_on_c, 9, 42, 54
1, 85680, Note_on_c, 12, 58, 32
1, 85693, Note_on_c, 7, 39, 0
1, 85720, Note_on_c, 12, 58, 0
1, 85732, Note_on_c, 9, 54, 0
1, 85737, Note_on_c, 9, 42, 0
1, 85744, Note_on_c, 11, 63, 0
1, 85745, Note_on_c, 9, 69, 0
1, 85775, Note_on_c, 7, 67, 0
1, 85799, Note_on_c, 11, 70, 0
1, 85800, Note_on_c, 9, 54, 39
1, 85800, Note_on_c, 9, 42, 44
1, 85800, Note_on_c, 9, 70, 54
1, 85800, Note_on_c, 11, 63, 43
1, 85800, Note_on_c, 12, 58, 52
1, 85813, Note_on_c, 7, 63, 0
1, 85830, Note_on_c, 9, 54, 0
1, 85839, Note_on_c, 5, 55, 0
1, 85845, Note_on_c, 7, 58, 0
1, 85848, Note_on_c, 9, 42, 0
1, 85850, Note_on_c, 11, 63, 0
1, 85865, Note_on_c, 11, 67, 0
1, 85867, Note_on_c, 12, 58, 0
1, 85899, Note_on_c, 9, 70, 0
1, 85912, Note_on_c, 12, 67, 0
1, 85912, Note_on_c, 12, 63, 0
1, 85912, Note_on_c, 12, 58, 0
1, 85920, Note_on_c, 1, 38, 105
1, 85920, Note_on_c, 7, 65, 82
1, 85920, Note_on_c, 7, 62, 84
1, 85920, Note_on_c, 7, 58, 74
1, 85920, Note_on_c, 7, 38, 87
1, 85920, Note_on_c, 7, 50, 76
1, 85920, Note_on_c, 3, 77, 111
1, 85920, Note_on_c, 5, 62, 60
1, 85920, Note_on_c, 5, 58, 54
1, 85920, Note_on_c, 5, 53, 54
1, 85920, Note_on_c, 6, 65, 76
1, 85920, Note_on_c, 6, 74, 84
1, 85920, Note_on_c, 8, 65, 82
1, 85920, Note_on_c, 9, 46, 102
1, 85920, Note_on_c, 9, 38, 111
1, 85920, Note_on_c, 9, 69, 39
1, 85920, Note_on_c, 9, 54, 81
1, 85920, Note_on_c, 11, 70, 96
1, 85920, Note_on_c, 11, 65, 90
1, 85920, Note_on_c, 12, 62, 93
1, 85920, Note_on_c, 12, 58, 96
1, 85920, Note_on_c, 12, 65, 87
1, 85920, Note_on_c, 13, 65, 82
1, 85921, Note_on_c, 8, 67, 0
1, 85921, Note_on_c, 13, 67, 0
1, 85928, Note_on_c, 5, 63, 0
1, 85933, Note_on_c, 1, 39, 0
1, 85938, Note_on_c, 3, 79, 0
1, 85948, Control_c, 7, 64, 0
1, 85953, Note_on_c, 6, 67, 0
1, 85959, Note_on_c, 6, 75, 0
1, 85970, Note_on_c, 9, 54, 0
1, 85994, Note_on_c, 9, 69, 0
1, 86024, Note_on_c, 9, 46, 0
1, 86034, Control_c, 7, 64, 127
1, 86040, Note_on_c, 9, 70, 51
1, 86040, Note_on_c, 9, 54, 36
1, 86089, Note_on_c, 9, 54, 0
1, 86098, Note_on_c, 9, 38, 0
1, 86124, Note_on_c, 7, 62, 0
1, 86134, Note_on_c, 3, 77, 0
1, 86135, Note_on_c, 9, 70, 0
1, 86140, Note_on_c, 7, 65, 0
1, 86145, Note_on_c, 7, 50, 0
1, 86151, Note_on_c, 7, 38, 0
1, 86157, Note_on_c, 7, 58, 0
1, 86160, Lyric_t, "place "
1, 86160, Lyric_t, "\015"
1, 86160, Note_on_c, 3, 75, 108
1, 86160, Note_on_c, 9, 46, 102
1, 86160, Note_on_c, 9, 54, 66
1, 86160, Note_on_c, 9, 69, 44
1, 86216, Note_on_c, 9, 54, 0
1, 86217, Note_on_c, 11, 65, 0
1, 86222, Note_on_c, 9, 69, 0
1, 86238, Note_on_c, 1, 38, 0
1, 86250, Note_on_c, 9, 46, 0
1, 86280, Note_on_c, 1, 38, 87
1, 86280, Note_on_c, 9, 54, 26
1, 86280, Note_on_c, 9, 36, 61
1, 86280, Note_on_c, 9, 70, 56
1, 86280, Note_on_c, 11, 65, 64
1, 86280, Note_on_c, 12, 58, 78
1, 86317, Note_on_c, 9, 54, 0
1, 86318, Note_on_c, 9, 36, 0
1, 86347, Note_on_c, 11, 65, 0
1, 86352, Note_on_c, 11, 70, 0
1, 86368, Note_on_c, 9, 70, 0
1, 86400, Note_on_c, 1, 36, 102
1, 86400, Note_on_c, 7, 55, 66
1, 86400, Note_on_c, 7, 60, 82
1, 86400, Note_on_c, 7, 63, 87
1, 86400, Note_on_c, 7, 48, 80
1, 86400, Note_on_c, 7, 36, 90
1, 86400, Note_on_c, 5, 55, 49
1, 86400, Note_on_c, 5, 60, 62
1, 86400, Note_on_c, 6, 72, 84
1, 86400, Note_on_c, 6, 63, 76
1, 86400, Note_on_c, 8, 63, 80
1, 86400, Note_on_c, 9, 54, 86
1, 86400, Note_on_c, 9, 42, 99
1, 86400, Note_on_c, 9, 69, 42
1, 86400, Note_on_c, 9, 36, 111
1, 86400, Note_on_c, 11, 70, 80
1, 86400, Note_on_c, 11, 67, 90
1, 86400, Note_on_c, 13, 63, 80
1, 86412, Note_on_c, 12, 58, 0
1, 86417, Note_on_c, 1, 38, 0
1, 86419, Control_c, 7, 64, 0
1, 86422, Note_on_c, 6, 65, 0
1, 86430, Note_on_c, 5, 53, 0
1, 86436, Note_on_c, 5, 62, 0
1, 86439, Note_on_c, 6, 74, 0
1, 86451, Note_on_c, 8, 65, 0
1, 86451, Note_on_c, 13, 65, 0
1, 86454, Note_on_c, 9, 54, 0
1, 86458, Note_on_c, 5, 58, 0
1, 86459, Note_on_c, 9, 42, 0
1, 86460, Note_on_c, 9, 69, 0
1, 86511, Note_on_c, 12, 62, 0
1, 86511, Note_on_c, 12, 58, 0
1, 86511, Note_on_c, 12, 65, 0
1, 86520, Note_on_c, 9, 70, 54
1, 86520, Note_on_c, 9, 54, 27
1, 86520, Note_on_c, 9, 42, 54
1, 86520, Note_on_c, 12, 60, 80
1, 86520, Note_on_c, 12, 63, 76
1, 86520, Note_on_c, 12, 67, 74
1, 86550, Note_on_c, 9, 54, 0
1, 86561, Note_on_c, 9, 42, 0
1, 86608, Note_on_c, 9, 70, 0
1, 86613, Note_on_c, 9, 36, 0
1, 86635, Note_on_c, 12, 60, 0
1, 86635, Note_on_c, 12, 63, 0
1, 86635, Note_on_c, 12, 67, 0
1, 86637, Note_on_c, 3, 75, 0
1, 86640, Note_on_c, 9, 69, 50
1, 86640, Note_on_c, 9, 42, 84
1, 86640, Note_on_c, 9, 54, 68
1, 86640, Note_on_c, 12, 60, 87
1, 86640, Note_on_c, 12, 67, 93
1, 86640, Note_on_c, 12, 63, 87
1, 86666, Note_on_c, 11, 67, 0
1, 86687, Note_on_c, 9, 42, 0
1, 86692, Note_on_c, 9, 54, 0
1, 86696, Note_on_c, 9, 69, 0
1, 86726, Note_on_c, 11, 70, 0
1, 86760, Note_on_c, 9, 54, 23
1, 86760, Note_on_c, 9, 42, 54
1, 86760, Note_on_c, 9, 70, 56
1, 86760, Note_on_c, 11, 67, 87
1, 86760, Note_on_c, 11, 70, 74
1, 86760, Note_on_c, 11, 63, 74
1, 86797, Note_on_c, 9, 42, 0
1, 86824, Note_on_c, 9, 54, 0
1, 86851, Note_on_c, 9, 70, 0
1, 86872, Note_on_c, 8, 50, 70
1, 86874, Note_on_c, 12, 60, 0
1, 86874, Note_on_c, 12, 67, 0
1, 86874, Note_on_c, 12, 63, 0
1, 86880, Note_on_c, 9, 69, 41
1, 86880, Note_on_c, 9, 54, 83
1, 86880, Note_on_c, 9, 42, 99
1, 86880, Note_on_c, 9, 38, 111
1, 86880, Note_on_c, 12, 60, 93
1, 86880, Note_on_c, 12, 67, 90
1, 86880, Note_on_c, 12, 63, 72
1, 86885, Note_on_c, 8, 63, 0
1, 86894, Note_on_c, 13, 62, 87
1, 86910, Note_on_c, 13, 63, 99
1, 86914, Note_on_c, 8, 51, 68
1, 86929, Note_on_c, 9, 69, 0
1, 86929, Note_on_c, 9, 54, 0
1, 86940, Note_on_c, 8, 50, 0
1, 86947, Note_on_c, 9, 42, 0
1, 86962, Note_on_c, 13, 62, 0
1, 87000, Note_on_c, 9, 70, 48
1, 87000, Note_on_c, 9, 54, 30
1, 87000, Note_on_c, 9, 42, 37
1, 87022, Note_on_c, 9, 38, 0
1, 87032, Note_on_c, 9, 54, 0
1, 87042, Note_on_c, 9, 42, 0
1, 87078, Note_on_c, 11, 63, 0
1, 87088, Note_on_c, 11, 70, 0
1, 87097, Note_on_c, 9, 70, 0
1, 87120, Note_on_c, 9, 69, 53
1, 87120, Note_on_c, 9, 54, 75
1, 87120, Note_on_c, 9, 42, 84
1, 87171, Note_on_c, 9, 42, 0
1, 87172, Note_on_c, 9, 54, 0
1, 87191, Note_on_c, 9, 69, 0
1, 87226, Note_on_c, 1, 36, 0
1, 87240, Note_on_c, 1, 36, 105
1, 87240, Note_on_c, 9, 36, 108
1, 87240, Note_on_c, 9, 42, 42
1, 87240, Note_on_c, 9, 54, 36
1, 87240, Note_on_c, 12, 60, 57
1, 87249, Note_on_c, 13, 63, 0
1, 87251, Note_on_c, 13, 70, 102
1, 87265, Note_on_c, 9, 54, 0
1, 87268, Note_on_c, 9, 42, 0
1, 87293, Note_on_c, 12, 60, 0
1, 87308, Note_on_c, 13, 63, 0
1, 87343, Note_on_c, 8, 51, 0
1, 87351, Note_on_c, 9, 36, 0
1, 87352, Note_on_c, 12, 60, 0
1, 87352, Note_on_c, 12, 67, 0
1, 87352, Note_on_c, 12, 63, 0
1, 87360, Note_on_c, 7, 48, 62
1, 87360, Note_on_c, 7, 62, 74
1, 87360, Note_on_c, 7, 36, 76
1, 87360, Note_on_c, 9, 42, 87
1, 87360, Note_on_c, 9, 54, 78
1, 87360, Note_on_c, 9, 69, 27
1, 87360, Note_on_c, 12, 60, 84
1, 87360, Note_on_c, 12, 67, 87
1, 87369, Note_on_c, 7, 48, 0
1, 87376, Note_on_c, 7, 36, 0
1, 87381, Note_on_c, 7, 60, 0
1, 87383, Note_on_c, 7, 63, 0
1, 87383, Note_on_c, 8, 50, 47
1, 87386, Note_on_c, 7, 55, 0
1, 87401, Note_on_c, 8, 51, 64
1, 87415, Note_on_c, 9, 42, 0
1, 87418, Note_on_c, 9, 54, 0
1, 87439, Note_on_c, 8, 50, 0
1, 87446, Note_on_c, 9, 69, 0
1, 87454, Note_on_c, 1, 36, 0
1, 87480, Note_on_c, 1, 36, 87
1, 87480, Note_on_c, 7, 63, 74
1, 87480, Control_c, 7, 64, 127
1, 87480, Note_on_c, 9, 36, 82
1, 87480, Note_on_c, 9, 70, 45
1, 87480, Note_on_c, 9, 42, 51
1, 87480, Note_on_c, 9, 54, 38
1, 87480, Note_on_c, 11, 63, 44
1, 87480, Note_on_c, 11, 70, 51
1, 87512, Note_on_c, 9, 54, 0
1, 87517, Note_on_c, 9, 36, 0
1, 87518, Note_on_c, 9, 42, 0
1, 87529, Note_on_c, 1, 36, 0
1, 87574, Note_on_c, 11, 63, 0
1, 87576, Note_on_c, 9, 70, 0
1, 87600, Note_on_c, 1, 36, 99
1, 87600, Note_on_c, 7, 70, 90
1, 87600, Note_on_c, 9, 54, 70
1, 87600, Note_on_c, 9, 69, 33
1, 87600, Note_on_c, 9, 42, 74
1, 87600, Note_on_c, 9, 36, 108
1, 87629, Note_on_c, 11, 70, 0
1, 87651, Note_on_c, 9, 54, 0
1, 87654, Note_on_c, 9, 42, 0
1, 87665, Note_on_c, 9, 69, 0
1, 87677, Note_on_c, 7, 48, 0
1, 87698, Note_on_c, 7, 62, 0
1, 87720, Note_on_c, 9, 70, 54
1, 87720, Note_on_c, 9, 42, 59
1, 87720, Note_on_c, 9, 54, 33
1, 87720, Note_on_c, 11, 63, 29
1, 87737, Note_on_c, 9, 36, 0
1, 87745, Note_on_c, 11, 63, 0
1, 87754, Note_on_c, 9, 54, 0
1, 87758, Note_on_c, 9, 42, 0
1, 87815, Note_on_c, 11, 67, 0
1, 87819, Note_on_c, 9, 70, 0
1, 87832, Note_on_c, 12, 60, 0
1, 87832, Note_on_c, 12, 67, 0
1, 87840, Note_on_c, 7, 48, 55
1, 87840, Note_on_c, 9, 38, 114
1, 87840, Note_on_c, 9, 46, 105
1, 87840, Note_on_c, 9, 54, 83
1, 87840, Note_on_c, 9, 69, 39
1, 87840, Note_on_c, 11, 67, 51
1, 87840, Note_on_c, 11, 63, 70
1, 87840, Note_on_c, 11, 70, 93
1, 87840, Note_on_c, 12, 60, 90
1, 87840, Note_on_c, 12, 67, 93
1, 87891, Note_on_c, 9, 54, 0
1, 87908, Note_on_c, 9, 46, 0
1, 87914, Note_on_c, 9, 69, 0
1, 87960, Note_on_c, 9, 70, 51
1, 87960, Note_on_c, 9, 54, 33
1, 87971, Note_on_c, 7, 63, 0
1, 87981, Note_on_c, 9, 38, 0
1, 88001, Note_on_c, 9, 54, 0
1, 88055, Note_on_c, 9, 70, 0
1, 88065, Note_on_c, 1, 36, 0
1, 88080, Lyric_t, "and "
1, 88080, Note_on_c, 1, 31, 102
1, 88080, Note_on_c, 7, 60, 68
1, 88080, Note_on_c, 3, 72, 111
1, 88080, Note_on_c, 9, 42, 82
1, 88080, Note_on_c, 9, 69, 44
1, 88080, Note_on_c, 9, 54, 68
1, 88080, Note_on_c, 9, 36, 96
1, 88112, Note_on_c, 7, 70, 0
1, 88128, Note_on_c, 11, 63, 0
1, 88132, Note_on_c, 9, 54, 0
1, 88134, Note_on_c, 9, 36, 0
1, 88138, Note_on_c, 9, 42, 0
1, 88142, Note_on_c, 9, 69, 0
1, 88146, Note_on_c, 11, 67, 0
1, 88183, Control_c, 7, 64, 0
1, 88198, Note_on_c, 3, 72, 0
1, 88200, Lyric_t, "I "
1, 88200, Note_on_c, 7, 62, 64
1, 88200, Note_on_c, 3, 74, 108
1, 88200, Note_on_c, 9, 70, 56
1, 88200, Note_on_c, 9, 42, 82
1, 88200, Note_on_c, 9, 54, 42
1, 88200, Note_on_c, 11, 67, 55
1, 88200, Note_on_c, 12, 60, 50
1, 88203, Note_on_c, 7, 60, 0
1, 88205, Note_on_c, 11, 70, 0
1, 88232, Note_on_c, 9, 42, 0
1, 88238, Note_on_c, 9, 54, 0
1, 88239, Note_on_c, 12, 60, 0
1, 88246, Note_on_c, 13, 70, 0
1, 88249, Note_on_c, 11, 67, 0
1, 88254, Note_on_c, 7, 48, 0
1, 88255, Note_on_c, 7, 36, 0
1, 88282, Note_on_c, 7, 62, 0
1, 88288, Note_on_c, 9, 70, 0
1, 88302, Note_on_c, 5, 55, 0
1, 88318, Note_on_c, 5, 60, 0
1, 88320, Time_signature, 4, 2, 24, 8
1, 88320, Lyric_t, "don't "
1, 88320, Note_on_c, 1, 32, 111
1, 88320, Note_on_c, 7, 63, 84
1, 88320, Note_on_c, 7, 44, 90
1, 88320, Note_on_c, 7, 60, 78
1, 88320, Note_on_c, 3, 75, 117
1, 88320, Note_on_c, 5, 60, 52
1, 88320, Note_on_c, 5, 56, 51
1, 88320, Note_on_c, 6, 63, 70
1, 88320, Note_on_c, 6, 60, 55
1, 88320, Note_on_c, 9, 69, 51
1, 88320, Note_on_c, 9, 42, 102
1, 88320, Note_on_c, 9, 36, 111
1, 88320, Note_on_c, 9, 54, 86
1, 88320, Note_on_c, 11, 63, 57
1, 88320, Note_on_c, 11, 60, 54
1, 88320, Note_on_c, 12, 63, 82
1, 88320, Note_on_c, 12, 60, 87
1, 88320, Note_on_c, 12, 56, 108
1, 88329, Note_on_c, 3, 74, 0
1, 88333, Note_on_c, 1, 31, 0
1, 88339, Note_on_c, 6, 72, 0
1, 88342, Note_on_c, 6, 63, 0
1, 88365, Note_on_c, 8, 51, 0
1, 88368, Control_c, 7, 64, 127
1, 88376, Note_on_c, 9, 42, 0
1, 88376, Note_on_c, 9, 54, 0
1, 88400, Note_on_c, 9, 69, 0
1, 88440, Note_on_c, 9, 42, 76
1, 88440, Note_on_c, 9, 54, 39
1, 88440, Note_on_c, 9, 70, 54
1, 88473, Note_on_c, 9, 42, 0
1, 88476, Note_on_c, 9, 54, 0
1, 88479, Note_on_c, 11, 60, 0
1, 88510, Note_on_c, 12, 56, 0
1, 88526, Note_on_c, 9, 36, 0
1, 88533, Note_on_c, 9, 70, 0
1, 88536, Note_on_c, 3, 75, 0
1, 88560, Lyric_t, "know "
1, 88560, Note_on_c, 7, 60, 45
1, 88560, Note_on_c, 3, 79, 108
1, 88560, Note_on_c, 9, 54, 61
1, 88560, Note_on_c, 9, 69, 44
1, 88560, Note_on_c, 9, 42, 84
1, 88560, Note_on_c, 11, 60, 49
1, 88560, Note_on_c, 12, 56, 64
1, 88567, Note_on_c, 7, 60, 0
1, 88611, Note_on_c, 9, 42, 0
1, 88612, Note_on_c, 9, 54, 0
1, 88633, Note_on_c, 9, 69, 0
1, 88680, Note_on_c, 9, 54, 30
1, 88680, Note_on_c, 9, 42, 70
1, 88680, Note_on_c, 9, 70, 56
1, 88704, Note_on_c, 12, 56, 0
1, 88713, Note_on_c, 9, 42, 0
1, 88730, Note_on_c, 9, 54, 0
1, 88737, Note_on_c, 11, 63, 0
1, 88750, Note_on_c, 11, 60, 0
1, 88761, Note_on_c, 12, 60, 0
1, 88773, Control_c, 7, 64, 0
1, 88779, Control_c, 7, 64, 127
1, 88782, Note_on_c, 9, 70, 0
1, 88784, Note_on_c, 3, 79, 0
1, 88787, Note_on_c, 12, 60, 0
1, 88787, Note_on_c, 12, 67, 0
1, 88800, Note_on_c, 7, 56, 66
1, 88800, Note_on_c, 7, 70, 90
1, 88800, Note_on_c, 3, 77, 99
1, 88800, Note_on_c, 8, 70, 87
1, 88800, Note_on_c, 9, 42, 102
1, 88800, Note_on_c, 9, 69, 32
1, 88800, Note_on_c, 9, 38, 111
1, 88800, Note_on_c, 9, 54, 78
1, 88800, Note_on_c, 11, 63, 87
1, 88800, Note_on_c, 11, 60, 90
1, 88800, Note_on_c, 11, 70, 96
1, 88800, Note_on_c, 12, 60, 76
1, 88800, Note_on_c, 12, 56, 90
1, 88800, Note_on_c, 12, 68, 93
1, 88800, Note_on_c, 13, 70, 87
1, 88838, Note_on_c, 7, 60, 0
1, 88855, Note_on_c, 9, 42, 0
1, 88856, Note_on_c, 9, 54, 0
1, 88879, Note_on_c, 9, 69, 0
1, 88920, Note_on_c, 9, 70, 53
1, 88920, Note_on_c, 9, 42, 37
1, 88920, Note_on_c, 9, 54, 27
1, 88957, Note_on_c, 9, 42, 0
1, 88959, Note_on_c, 9, 54, 0
1, 88967, Note_on_c, 9, 38, 0
1, 88975, Note_on_c, 3, 77, 0
1, 88990, Note_on_c, 7, 56, 0
1, 89007, Note_on_c, 7, 70, 0
1, 89008, Note_on_c, 9, 70, 0
1, 89040, Lyric_t, "what "
1, 89040, Note_on_c, 7, 60, 51
1, 89040, Note_on_c, 7, 51, 57
1, 89040, Note_on_c, 3, 77, 111
1, 89040, Note_on_c, 9, 42, 84
1, 89040, Note_on_c, 9, 69, 45
1, 89040, Note_on_c, 9, 54, 68
1, 89063, Note_on_c, 7, 63, 0
1, 89086, Note_on_c, 7, 60, 0
1, 89089, Note_on_c, 9, 54, 0
1, 89093, Note_on_c, 9, 42, 0
1, 89099, Note_on_c, 11, 60, 0
1, 89111, Note_on_c, 9, 69, 0
1, 89130, Note_on_c, 7, 44, 0
1, 89160, Note_on_c, 9, 54, 40
1, 89160, Note_on_c, 9, 70, 51
1, 89160, Note_on_c, 9, 42, 70
1, 89160, Note_on_c, 11, 60, 36
1, 89160, Note_on_c, 12, 56, 55
1, 89160, Note_on_c, 12, 60, 34
1, 89188, Note_on_c, 12, 60, 0
1, 89193, Note_on_c, 9, 42, 0
1, 89197, Note_on_c, 9, 54, 0
1, 89237, Note_on_c, 11, 60, 0
1, 89244, Note_on_c, 7, 51, 0
1, 89244, Note_on_c, 9, 70, 0
1, 89263, Note_on_c, 11, 63, 0
1, 89271, Control_c, 7, 64, 0
1, 89274, Note_on_c, 1, 32, 0
1, 89275, Note_on_c, 12, 56, 0
1, 89276, Note_on_c, 5, 56, 0
1, 89280, Note_on_c, 1, 34, 102
1, 89280, Note_on_c, 7, 62, 82
1, 89280, Note_on_c, 7, 46, 84
1, 89280, Note_on_c, 7, 65, 87
1, 89280, Note_on_c, 5, 53, 47
1, 89280, Note_on_c, 5, 58, 68
1, 89280, Note_on_c, 6, 65, 78
1, 89280, Note_on_c, 6, 62, 74
1, 89280, Note_on_c, 9, 36, 108
1, 89280, Note_on_c, 9, 69, 32
1, 89280, Note_on_c, 9, 54, 89
1, 89280, Note_on_c, 9, 42, 99
1, 89307, Note_on_c, 5, 60, 0
1, 89311, Note_on_c, 6, 63, 0
1, 89311, Note_on_c, 12, 63, 0
1, 89317, Note_on_c, 6, 60, 0
1, 89332, Note_on_c, 9, 54, 0
1, 89352, Note_on_c, 9, 42, 0
1, 89353, Note_on_c, 9, 69, 0
1, 89380, Control_c, 7, 64, 127
1, 89391, Note_on_c, 12, 60, 0
1, 89391, Note_on_c, 12, 56, 0
1, 89391, Note_on_c, 12, 68, 0
1, 89400, Note_on_c, 9, 54, 18
1, 89400, Note_on_c, 9, 42, 34
1, 89400, Note_on_c, 9, 70, 41
1, 89400, Note_on_c, 12, 58, 72
1, 89400, Note_on_c, 12, 62, 76
1, 89400, Note_on_c, 12, 65, 74
1, 89421, Note_on_c, 9, 36, 0
1, 89426, Note_on_c, 9, 54, 0
1, 89443, Note_on_c, 9, 42, 0
1, 89453, Note_on_c, 11, 70, 0
1, 89495, Note_on_c, 1, 34, 0
1, 89503, Note_on_c, 3, 77, 0
1, 89507, Note_on_c, 9, 70, 0
1, 89520, Lyric_t, "to "
1, 89520, Note_on_c, 1, 34, 96
1, 89520, Note_on_c, 7, 58, 52
1, 89520, Note_on_c, 3, 74, 114
1, 89520, Note_on_c, 9, 36, 108
1, 89520, Note_on_c, 9, 54, 68
1, 89520, Note_on_c, 9, 42, 84
1, 89520, Note_on_c, 9, 69, 44
1, 89520, Note_on_c, 11, 65, 87
1, 89520, Note_on_c, 11, 62, 87
1, 89520, Note_on_c, 11, 70, 87
1, 89520, Note_on_c, 12, 58, 84
1, 89568, Note_on_c, 9, 54, 0
1, 89586, Note_on_c, 9, 42, 0
1, 89591, Note_on_c, 9, 69, 0
1, 89596, Note_on_c, 8, 70, 0
1, 89596, Note_on_c, 13, 70, 0
1, 89635, Note_on_c, 7, 62, 0
1, 89640, Note_on_c, 9, 42, 59
1, 89640, Note_on_c, 9, 70, 51
1, 89640, Note_on_c, 9, 54, 45
1, 89647, Note_on_c, 9, 36, 0
1, 89672, Note_on_c, 7, 58, 0
1, 89684, Note_on_c, 9, 54, 0
1, 89686, Note_on_c, 9, 42, 0
1, 89713, Note_on_c, 12, 58, 0
1, 89737, Note_on_c, 9, 70, 0
1, 89753, Note_on_c, 12, 58, 0
1, 89753, Note_on_c, 12, 62, 0
1, 89753, Note_on_c, 12, 65, 0
1, 89760, Note_on_c, 7, 62, 74
1, 89760, Note_on_c, 7, 53, 78
1, 89760, Note_on_c, 3, 72, 105
1, 89760, Note_on_c, 8, 58, 82
1, 89760, Note_on_c, 9, 38, 114
1, 89760, Note_on_c, 9, 42, 90
1, 89760, Note_on_c, 9, 69, 33
1, 89760, Note_on_c, 9, 54, 83
1, 89760, Note_on_c, 12, 62, 68
1, 89760, Note_on_c, 12, 65, 78
1, 89760, Note_on_c, 12, 58, 99
1, 89760, Note_on_c, 13, 62, 82
1, 89794, Note_on_c, 3, 74, 0
1, 89802, Note_on_c, 11, 62, 0
1, 89813, Note_on_c, 9, 54, 0
1, 89816, Note_on_c, 11, 65, 0
1, 89820, Note_on_c, 9, 42, 0
1, 89840, Note_on_c, 9, 69, 0
1, 89856, Note_on_c, 11, 70, 0
1, 89880, Note_on_c, 8, 60, 44
1, 89880, Note_on_c, 9, 54, 44
1, 89880, Note_on_c, 9, 42, 72
1, 89880, Note_on_c, 9, 70, 43
1, 89880, Note_on_c, 11, 65, 31
1, 89880, Note_on_c, 11, 62, 50
1, 89880, Note_on_c, 13, 63, 44
1, 89925, Note_on_c, 8, 58, 0
1, 89925, Note_on_c, 13, 62, 0
1, 89927, Note_on_c, 9, 54, 0
1, 89934, Note_on_c, 9, 42, 0
1, 89944, Note_on_c, 9, 38, 0
1, 89952, Note_on_c, 7, 46, 0
1, 89959, Note_on_c, 1, 34, 0
1, 89962, Note_on_c, 11, 62, 0
1, 89966, Note_on_c, 9, 70, 0
1, 89976, Note_on_c, 3, 72, 0
1, 89990, Note_on_c, 7, 62, 0
1, 90000, Lyric_t, "do "
1, 90000, Lyric_t, "\015"
1, 90000, Note_on_c, 1, 34, 68
1, 90000, Note_on_c, 7, 60, 49
1, 90000, Note_on_c, 3, 72, 111
1, 90000, Note_on_c, 8, 62, 64
1, 90000, Note_on_c, 9, 46, 96
1, 90000, Note_on_c, 9, 54, 70
1, 90000, Note_on_c, 9, 69, 48
1, 90000, Note_on_c, 11, 70, 84
1, 90000, Note_on_c, 11, 62, 82
1, 90000, Note_on_c, 13, 65, 64
1, 90005, Note_on_c, 8, 60, 0
1, 90005, Note_on_c, 13, 63, 0
1, 90050, Note_on_c, 9, 54, 0
1, 90060, Note_on_c, 9, 46, 0
1, 90063, Note_on_c, 9, 69, 0
1, 90098, Note_on_c, 7, 60, 0
1, 90118, Note_on_c, 1, 34, 0
1, 90119, Note_on_c, 8, 62, 0
1, 90119, Note_on_c, 13, 65, 0
1, 90120, Note_on_c, 1, 36, 76
1, 90120, Note_on_c, 7, 62, 61
1, 90120, Note_on_c, 8, 60, 61
1, 90120, Note_on_c, 9, 70, 56
1, 90120, Note_on_c, 9, 54, 35
1, 90120, Note_on_c, 12, 58, 47
1, 90120, Note_on_c, 13, 63, 61
1, 90124, Note_on_c, 7, 65, 0
1, 90124, Control_c, 7, 64, 0
1, 90151, Note_on_c, 11, 70, 0
1, 90154, Note_on_c, 7, 53, 0
1, 90166, Note_on_c, 9, 54, 0
1, 90171, Note_on_c, 12, 58, 0
1, 90179, Note_on_c, 11, 62, 0
1, 90189, Note_on_c, 11, 65, 0
1, 90202, Note_on_c, 1, 36, 0
1, 90209, Note_on_c, 8, 60, 0
1, 90209, Note_on_c, 13, 63, 0
1, 90223, Note_on_c, 7, 62, 0
1, 90230, Note_on_c, 5, 53, 0
1, 90230, Note_on_c, 9, 70, 0
1, 90232, Note_on_c, 12, 62, 0
1, 90232, Note_on_c, 12, 65, 0
1, 90232, Note_on_c, 12, 58, 0
1, 90233, Note_on_c, 5, 58, 0
1, 90240, Note_on_c, 1, 36, 108
1, 90240, Note_on_c, 7, 48, 78
1, 90240, Note_on_c, 7, 36, 102
1, 90240, Note_on_c, 7, 63, 87
1, 90240, Note_on_c, 7, 60, 84
1, 90240, Note_on_c, 5, 55, 64
1, 90240, Note_on_c, 5, 60, 72
1, 90240, Note_on_c, 6, 67, 76
1, 90240, Note_on_c, 6, 63, 64
1, 90240, Note_on_c, 9, 42, 105
1, 90240, Note_on_c, 9, 54, 83
1, 90240, Note_on_c, 9, 69, 27
1, 90240, Note_on_c, 9, 36, 111
1, 90240, Note_on_c, 12, 63, 82
1, 90240, Note_on_c, 12, 67, 87
1, 90240, Note_on_c, 12, 60, 93
1, 90265, Note_on_c, 6, 62, 0
1, 90280, Note_on_c, 6, 65, 0
1, 90291, Note_on_c, 9, 54, 0
1, 90295, Note_on_c, 9, 42, 0
1, 90326, Note_on_c, 9, 69, 0
1, 90337, Control_c, 7, 64, 127
1, 90360, Note_on_c, 9, 70, 45
1, 90360, Note_on_c, 9, 42, 61
1, 90360, Note_on_c, 9, 54, 40
1, 90396, Note_on_c, 9, 42, 0
1, 90401, Note_on_c, 9, 54, 0
1, 90435, Note_on_c, 9, 36, 0
1, 90456, Note_on_c, 9, 70, 0
1, 90480, Note_on_c, 7, 55, 51
1, 90480, Note_on_c, 8, 55, 57
1, 90480, Note_on_c, 9, 69, 33
1, 90480, Note_on_c, 9, 42, 84
1, 90480, Note_on_c, 9, 54, 64
1, 90480, Note_on_c, 11, 63, 33
1, 90480, Note_on_c, 11, 67, 37
1, 90480, Note_on_c, 12, 60, 51
1, 90480, Note_on_c, 13, 55, 57
1, 90529, Note_on_c, 9, 54, 0
1, 90536, Note_on_c, 9, 42, 0
1, 90545, Note_on_c, 9, 69, 0
1, 90600, Note_on_c, 9, 70, 54
1, 90600, Note_on_c, 9, 42, 43
1, 90600, Note_on_c, 9, 54, 35
1, 90637, Note_on_c, 3, 72, 0
1, 90637, Note_on_c, 9, 54, 0
1, 90639, Note_on_c, 9, 42, 0
1, 90654, Note_on_c, 11, 63, 0
1, 90660, Note_on_c, 7, 63, 0
1, 90685, Note_on_c, 12, 60, 0
1, 90699, Note_on_c, 9, 70, 0
1, 90712, Note_on_c, 12, 63, 0
1, 90712, Note_on_c, 12, 67, 0
1, 90712, Note_on_c, 12, 60, 0
1, 90720, Note_on_c, 7, 63, 55
1, 90720, Note_on_c, 8, 63, 105
1, 90720, Note_on_c, 9, 38, 114
1, 90720, Note_on_c, 9, 42, 93
1, 90720, Note_on_c, 9, 69, 39
1, 90720, Note_on_c, 9, 54, 83
1, 90720, Note_on_c, 11, 63, 90
1, 90720, Note_on_c, 11, 70, 93
1, 90720, Note_on_c, 12, 60, 93
1, 90720, Note_on_c, 12, 67, 102
1, 90720, Note_on_c, 13, 63, 105
1, 90727, Note_on_c, 8, 55, 0
1, 90727, Note_on_c, 13, 55, 0
1, 90767, Note_on_c, 9, 54, 0
1, 90779, Note_on_c, 9, 42, 0
1, 90794, Note_on_c, 9, 69, 0
1, 90840, Note_on_c, 9, 42, 59
1, 90840, Note_on_c, 9, 70, 51
1, 90840, Note_on_c, 9, 54, 26
1, 90851, Note_on_c, 9, 38, 0
1, 90863, Note_on_c, 9, 54, 0
1, 90886, Note_on_c, 9, 42, 0
1, 90935, Note_on_c, 9, 70, 0
1, 90960, Note_on_c, 8, 62, 102
1, 90960, Note_on_c, 9, 54, 70
1, 90960, Note_on_c, 9, 42, 93
1, 90960, Note_on_c, 9, 69, 44
1, 90960, Note_on_c, 13, 62, 102
1, 90977, Note_on_c, 8, 63, 0
1, 90977, Note_on_c, 13, 63, 0
1, 91008, Note_on_c, 1, 36, 0
1, 91008, Note_on_c, 9, 54, 0
1, 91009, Note_on_c, 9, 42, 0
1, 91022, Note_on_c, 9, 69, 0
1, 91037, Note_on_c, 11, 63, 0
1, 91051, Note_on_c, 11, 70, 0
1, 91070, Note_on_c, 7, 48, 0
1, 91080, Note_on_c, 1, 36, 99
1, 91080, Note_on_c, 9, 36, 93
1, 91080, Note_on_c, 9, 42, 72
1, 91080, Note_on_c, 9, 54, 33
1, 91080, Note_on_c, 9, 70, 56
1, 91080, Note_on_c, 12, 60, 72
1, 91112, Note_on_c, 9, 54, 0
1, 91118, Note_on_c, 9, 42, 0
1, 91132, Note_on_c, 7, 55, 0
1, 91142, Note_on_c, 7, 60, 0
1, 91148, Note_on_c, 9, 36, 0
1, 91152, Note_on_c, 7, 63, 0
1, 91168, Note_on_c, 9, 70, 0
1, 91200, Note_on_c, 7, 60, 76
1, 91200, Note_on_c, 7, 63, 80
1, 91200, Note_on_c, 7, 48, 66
1, 91200, Note_on_c, 9, 69, 42
1, 91200, Note_on_c, 9, 42, 90
1, 91200, Note_on_c, 9, 54, 73
1, 91200, Note_on_c, 11, 63, 76
1, 91200, Note_on_c, 11, 70, 84
1, 91251, Note_on_c, 9, 54, 0
1, 91254, Note_on_c, 12, 60, 0
1, 91260, Note_on_c, 9, 69, 0
1, 91262, Note_on_c, 9, 42, 0
1, 91285, Note_on_c, 1, 36, 0
1, 91311, Note_on_c, 12, 60, 0
1, 91311, Note_on_c, 12, 67, 0
1, 91320, Note_on_c, 1, 36, 82
1, 91320, Note_on_c, 9, 70, 54
1, 91320, Note_on_c, 9, 42, 59
1, 91320, Note_on_c, 9, 54, 32
1, 91320, Note_on_c, 9, 36, 68
1, 91320, Note_on_c, 12, 63, 49
1, 91320, Note_on_c, 12, 67, 57
1, 91320, Note_on_c, 12, 60, 34
1, 91343, Note_on_c, 9, 36, 0
1, 91359, Note_on_c, 9, 54, 0
1, 91362, Note_on_c, 9, 42, 0
1, 91371, Note_on_c, 11, 67, 0
1, 91383, Note_on_c, 11, 63, 0
1, 91390, Note_on_c, 1, 36, 0
1, 91408, Note_on_c, 9, 70, 0
1, 91434, Note_on_c, 11, 70, 0
1, 91435, Note_on_c, 12, 63, 0
1, 91435, Note_on_c, 12, 67, 0
1, 91435, Note_on_c, 12, 60, 0
1, 91440, Note_on_c, 1, 36, 102
1, 91440, Note_on_c, 7, 55, 49
1, 91440, Note_on_c, 8, 63, 99
1, 91440, Note_on_c, 9, 54, 75
1, 91440, Note_on_c, 9, 36, 111
1, 91440, Note_on_c, 9, 69, 50
1, 91440, Note_on_c, 9, 46, 99
1, 91440, Note_on_c, 11, 67, 55
1, 91440, Note_on_c, 11, 63, 31
1, 91440, Note_on_c, 12, 63, 93
1, 91440, Note_on_c, 12, 67, 96
1, 91440, Note_on_c, 12, 60, 93
1, 91440, Note_on_c, 13, 63, 99
1, 91441, Note_on_c, 8, 62, 0
1, 91441, Note_on_c, 13, 62, 0
1, 91466, Note_on_c, 7, 63, 0
1, 91467, Note_on_c, 7, 36, 0
1, 91490, Note_on_c, 9, 54, 0
1, 91496, Note_on_c, 9, 69, 0
1, 91500, Note_on_c, 7, 60, 0
1, 91511, Note_on_c, 9, 46, 0
1, 91550, Note_on_c, 9, 36, 0
1, 91560, Note_on_c, 9, 70, 56
1, 91560, Note_on_c, 9, 54, 27
1, 91607, Note_on_c, 9, 54, 0
1, 91609, Note_on_c, 11, 63, 0
1, 91651, Note_on_c, 9, 70, 0
1, 91674, Note_on_c, 12, 63, 0
1, 91674, Note_on_c, 12, 67, 0
1, 91674, Note_on_c, 12, 60, 0
1, 91680, Lyric_t, "'cause "
1, 91680, Note_on_c, 7, 36, 90
1, 91680, Note_on_c, 7, 63, 74
1, 91680, Note_on_c, 7, 60, 70
1, 91680, Note_on_c, 3, 72, 114
1, 91680, Note_on_c, 5, 48, 49
1, 91680, Note_on_c, 9, 54, 68
1, 91680, Note_on_c, 9, 69, 41
1, 91680, Note_on_c, 9, 38, 114
1, 91680, Note_on_c, 9, 42, 62
1, 91680, Note_on_c, 11, 70, 84
1, 91680, Note_on_c, 11, 63, 82
1, 91680, Note_on_c, 12, 67, 99
1, 91680, Note_on_c, 12, 60, 90
1, 91718, Note_on_c, 9, 42, 0
1, 91729, Note_on_c, 9, 54, 0
1, 91729, Note_on_c, 9, 69, 0
1, 91746, Note_on_c, 7, 55, 0
1, 91766, Note_on_c, 11, 63, 0
1, 91799, Note_on_c, 3, 72, 0
1, 91800, Lyric_t, "I'll "
1, 91800, Note_on_c, 7, 55, 57
1, 91800, Note_on_c, 3, 74, 108
1, 91800, Note_on_c, 9, 42, 66
1, 91800, Note_on_c, 9, 54, 28
1, 91800, Note_on_c, 9, 70, 48
1, 91800, Note_on_c, 11, 63, 50
1, 91800, Note_on_c, 13, 62, 74
1, 91810, Note_on_c, 9, 38, 0
1, 91843, Note_on_c, 9, 54, 0
1, 91848, Note_on_c, 9, 42, 0
1, 91853, Note_on_c, 13, 63, 0
1, 91857, Note_on_c, 11, 63, 0
1, 91884, Note_on_c, 11, 70, 0
1, 91894, Note_on_c, 11, 67, 0
1, 91897, Note_on_c, 9, 70, 0
1, 91914, Note_on_c, 13, 62, 0
1, 91920, Note_on_c, 1, 34, 99
1, 91920, Note_on_c, 9, 54, 73
1, 91920, Note_on_c, 9, 69, 53
1, 91920, Note_on_c, 9, 42, 76
1, 91920, Note_on_c, 9, 36, 102
1, 91920, Note_on_c, 11, 67, 61
1, 91920, Note_on_c, 11, 70, 58
1, 91920, Note_on_c, 11, 63, 57
1, 91920, Note_on_c, 13, 60, 61
1, 91944, Note_on_c, 1, 36, 0
1, 91963, Note_on_c, 9, 42, 0
1, 91966, Note_on_c, 11, 63, 0
1, 91971, Note_on_c, 9, 54, 0
1, 91977, Note_on_c, 9, 36, 0
1, 91981, Note_on_c, 11, 67, 0
1, 91988, Note_on_c, 11, 70, 0
1, 91991, Note_on_c, 9, 69, 0
1, 92040, Lyric_t, "nev"
1, 92040, Note_on_c, 3, 75, 111
1, 92040, Note_on_c, 9, 42, 70
1, 92040, Note_on_c, 9, 54, 30
1, 92040, Note_on_c, 11, 70, 66
1, 92040, Note_on_c, 11, 67, 72
1, 92040, Note_on_c, 11, 63, 55
1, 92040, Note_on_c, 12, 60, 64
1, 92040, Note_on_c, 13, 58, 61
1, 92045, Note_on_c, 3, 74, 0
1, 92052, Note_on_c, 13, 60, 0
1, 92059, Note_on_c, 7, 60, 0
1, 92061, Control_c, 7, 64, 0
1, 92066, Note_on_c, 9, 42, 0
1, 92082, Note_on_c, 9, 54, 0
1, 92088, Note_on_c, 7, 48, 0
1, 92090, Note_on_c, 12, 60, 0
1, 92123, Note_on_c, 11, 63, 0
1, 92125, Note_on_c, 7, 63, 0
1, 92128, Note_on_c, 5, 60, 0
1, 92129, Note_on_c, 11, 67, 0
1, 92133, Note_on_c, 11, 70, 0
1, 92134, Note_on_c, 7, 36, 0
1, 92138, Note_on_c, 6, 67, 0
1, 92143, Note_on_c, 13, 58, 0
1, 92148, Note_on_c, 6, 63, 0
1, 92150, Note_on_c, 5, 48, 0
1, 92150, Note_on_c, 8, 63, 0
1, 92152, Note_on_c, 12, 67, 0
1, 92152, Note_on_c, 12, 60, 0
1, 92156, Note_on_c, 7, 55, 0
1, 92160, Note_on_c, 1, 32, 108
1, 92160, Note_on_c, 7, 56, 74
1, 92160, Note_on_c, 7, 51, 74
1, 92160, Note_on_c, 7, 44, 84
1, 92160, Note_on_c, 7, 60, 84
1, 92160, Note_on_c, 7, 63, 84
1, 92160, Note_on_c, 5, 56, 57
1, 92160, Note_on_c, 5, 51, 55
1, 92160, Note_on_c, 6, 75, 72
1, 92160, Note_on_c, 6, 72, 62
1, 92160, Note_on_c, 9, 54, 78
1, 92160, Note_on_c, 9, 36, 114
1, 92160, Note_on_c, 9, 42, 99
1, 92160, Note_on_c, 9, 69, 51
1, 92160, Note_on_c, 11, 60, 74
1, 92160, Note_on_c, 11, 63, 82
1, 92160, Note_on_c, 12, 60, 90
1, 92160, Note_on_c, 12, 63, 87
1, 92160, Note_on_c, 12, 68, 102
1, 92171, Note_on_c, 1, 34, 0
1, 92185, Note_on_c, 5, 55, 0
1, 92192, Control_c, 7, 64, 127
1, 92215, Note_on_c, 9, 54, 0
1, 92215, Note_on_c, 9, 42, 0
1, 92240, Note_on_c, 9, 69, 0
1, 92280, Note_on_c, 9, 54, 27
1, 92280, Note_on_c, 9, 42, 45
1, 92280, Note_on_c, 9, 70, 54
1, 92321, Note_on_c, 9, 42, 0
1, 92326, Note_on_c, 9, 54, 0
1, 92337, Note_on_c, 9, 36, 0
1, 92369, Note_on_c, 7, 60, 0
1, 92369, Note_on_c, 3, 75, 0
1, 92373, Note_on_c, 9, 70, 0
1, 92400, Lyric_t, "er "
1, 92400, Note_on_c, 7, 60, 49
1, 92400, Note_on_c, 3, 79, 108
1, 92400, Note_on_c, 9, 69, 44
1, 92400, Note_on_c, 9, 54, 75
1, 92400, Note_on_c, 9, 42, 78
1, 92400, Note_on_c, 12, 60, 70
1, 92450, Note_on_c, 9, 42, 0
1, 92451, Note_on_c, 9, 54, 0
1, 92472, Note_on_c, 7, 56, 0
1, 92473, Note_on_c, 9, 69, 0
1, 92498, Note_on_c, 7, 51, 0
1, 92520, Note_on_c, 9, 54, 27
1, 92520, Note_on_c, 9, 42, 74
1, 92520, Note_on_c, 9, 70, 56
1, 92525, Note_on_c, 12, 60, 0
1, 92556, Note_on_c, 9, 54, 0
1, 92560, Note_on_c, 7, 60, 0
1, 92562, Note_on_c, 9, 42, 0
1, 92586, Note_on_c, 11, 60, 0
1, 92601, Note_on_c, 11, 63, 0
1, 92622, Note_on_c, 9, 70, 0
1, 92632, Note_on_c, 12, 60, 0
1, 92632, Note_on_c, 12, 63, 0
1, 92632, Note_on_c, 12, 68, 0
1, 92640, Note_on_c, 7, 60, 68
1, 92640, Note_on_c, 7, 56, 49
1, 92640, Note_on_c, 7, 70, 93
1, 92640, Note_on_c, 3, 77, 99
1, 92640, Note_on_c, 8, 70, 111
1, 92640, Note_on_c, 9, 42, 105
1, 92640, Note_on_c, 9, 38, 117
1, 92640, Note_on_c, 9, 54, 78
1, 92640, Note_on_c, 9, 69, 32
1, 92640, Note_on_c, 11, 63, 66
1, 92640, Note_on_c, 11, 60, 78
1, 92640, Note_on_c, 11, 70, 93
1, 92640, Note_on_c, 12, 60, 90
1, 92640, Note_on_c, 12, 63, 87
1, 92640, Note_on_c, 12, 68, 93
1, 92640, Note_on_c, 13, 70, 111
1, 92656, Note_on_c, 3, 79, 0
1, 92689, Note_on_c, 9, 42, 0
1, 92695, Note_on_c, 9, 54, 0
1, 92719, Note_on_c, 9, 69, 0
1, 92760, Note_on_c, 9, 70, 53
1, 92760, Note_on_c, 9, 42, 44
1, 92760, Note_on_c, 9, 54, 18
1, 92780, Note_on_c, 7, 56, 0
1, 92805, Note_on_c, 9, 42, 0
1, 92808, Note_on_c, 9, 54, 0
1, 92814, Note_on_c, 7, 60, 0
1, 92821, Note_on_c, 3, 77, 0
1, 92836, Note_on_c, 9, 38, 0
1, 92848, Note_on_c, 9, 70, 0
1, 92864, Note_on_c, 7, 70, 0
1, 92880, Lyric_t, "be "
1, 92880, Note_on_c, 3, 77, 111
1, 92880, Note_on_c, 9, 69, 45
1, 92880, Note_on_c, 9, 42, 84
1, 92880, Note_on_c, 9, 54, 75
1, 92892, Note_on_c, 7, 63, 0
1, 92902, Note_on_c, 7, 44, 0
1, 92933, Note_on_c, 9, 54, 0
1, 92935, Note_on_c, 9, 42, 0
1, 92951, Note_on_c, 9, 69, 0
1, 93000, Note_on_c, 9, 70, 51
1, 93000, Note_on_c, 9, 54, 39
1, 93000, Note_on_c, 9, 42, 59
1, 93000, Note_on_c, 12, 60, 40
1, 93021, Note_on_c, 11, 70, 0
1, 93026, Note_on_c, 11, 63, 0
1, 93029, Note_on_c, 11, 60, 0
1, 93031, Note_on_c, 9, 54, 0
1, 93050, Note_on_c, 9, 42, 0
1, 93069, Note_on_c, 12, 60, 0
1, 93084, Note_on_c, 9, 70, 0
1, 93093, Note_on_c, 1, 32, 0
1, 93120, Note_on_c, 1, 34, 108
1, 93120, Note_on_c, 7, 62, 84
1, 93120, Note_on_c, 7, 46, 84
1, 93120, Note_on_c, 7, 53, 82
1, 93120, Note_on_c, 7, 58, 72
1, 93120, Note_on_c, 7, 65, 80
1, 93120, Note_on_c, 5, 53, 62
1, 93120, Note_on_c, 5, 58, 76
1, 93120, Note_on_c, 6, 77, 74
1, 93120, Note_on_c, 6, 74, 72
1, 93120, Note_on_c, 9, 42, 93
1, 93120, Note_on_c, 9, 54, 78
1, 93120, Note_on_c, 9, 36, 108
1, 93120, Note_on_c, 9, 69, 32
1, 93120, Note_on_c, 11, 65, 80
1, 93120, Note_on_c, 11, 62, 82
1, 93120, Note_on_c, 11, 70, 76
1, 93129, Note_on_c, 6, 75, 0
1, 93130, Note_on_c, 6, 72, 0
1, 93133, Control_c, 7, 64, 0
1, 93134, Note_on_c, 5, 51, 0
1, 93156, Note_on_c, 5, 56, 0
1, 93172, Note_on_c, 9, 54, 0
1, 93173, Note_on_c, 9, 42, 0
1, 93193, Note_on_c, 9, 69, 0
1, 93200, Note_on_c, 9, 36, 0
1, 93231, Note_on_c, 12, 60, 0
1, 93231, Note_on_c, 12, 63, 0
1, 93231, Note_on_c, 12, 68, 0
1, 93234, Note_on_c, 3, 77, 0
1, 93240, Note_on_c, 9, 54, 30
1, 93240, Note_on_c, 9, 70, 41
1, 93240, Note_on_c, 9, 42, 55
1, 93240, Note_on_c, 12, 62, 72
1, 93240, Note_on_c, 12, 58, 84
1, 93240, Note_on_c, 12, 65, 74
1, 93262, Control_c, 7, 64, 127
1, 93282, Note_on_c, 9, 42, 0
1, 93297, Note_on_c, 9, 54, 0
1, 93347, Note_on_c, 9, 70, 0
1, 93360, Lyric_t, "with "
1, 93360, Note_on_c, 3, 74, 117
1, 93360, Note_on_c, 4, 67, 74
1, 93360, Note_on_c, 9, 46, 96
1, 93360, Note_on_c, 9, 69, 44
1, 93360, Note_on_c, 9, 47, 117
1, 93360, Note_on_c, 9, 54, 73
1, 93360, Note_on_c, 12, 62, 64
1, 93360, Note_on_c, 12, 58, 82
1, 93415, Note_on_c, 9, 54, 0
1, 93431, Note_on_c, 9, 69, 0
1, 93454, Note_on_c, 9, 46, 0
1, 93480, Note_on_c, 9, 70, 51
1, 93480, Note_on_c, 9, 54, 28
1, 93502, Note_on_c, 9, 47, 0
1, 93527, Note_on_c, 9, 54, 0
1, 93535, Note_on_c, 7, 53, 0
1, 93539, Note_on_c, 8, 70, 0
1, 93539, Note_on_c, 13, 70, 0
1, 93545, Note_on_c, 12, 58, 0
1, 93566, Note_on_c, 12, 62, 0
1, 93577, Note_on_c, 9, 70, 0
1, 93593, Note_on_c, 12, 62, 0
1, 93593, Note_on_c, 12, 58, 0
1, 93593, Note_on_c, 12, 65, 0
1, 93600, Note_on_c, 7, 53, 59
1, 93600, Note_on_c, 6, 70, 74
1, 93600, Note_on_c, 8, 63, 108
1, 93600, Note_on_c, 9, 69, 33
1, 93600, Note_on_c, 9, 42, 87
1, 93600, Note_on_c, 9, 38, 105
1, 93600, Note_on_c, 9, 54, 68
1, 93600, Note_on_c, 12, 65, 80
1, 93600, Note_on_c, 12, 62, 102
1, 93600, Note_on_c, 12, 58, 105
1, 93600, Note_on_c, 13, 63, 108
1, 93655, Note_on_c, 9, 38, 0
1, 93655, Note_on_c, 9, 54, 0
1, 93666, Note_on_c, 6, 77, 0
1, 93668, Note_on_c, 9, 42, 0
1, 93680, Note_on_c, 9, 69, 0
1, 93720, Note_on_c, 8, 63, 0
1, 93720, Note_on_c, 8, 62, 82
1, 93720, Note_on_c, 9, 54, 25
1, 93720, Note_on_c, 9, 70, 43
1, 93720, Note_on_c, 9, 38, 108
1, 93720, Note_on_c, 13, 63, 0
1, 93720, Note_on_c, 13, 62, 82
1, 93752, Note_on_c, 9, 54, 0
1, 93777, Note_on_c, 9, 38, 0
1, 93796, Note_on_c, 4, 67, 0
1, 93806, Note_on_c, 9, 70, 0
1, 93838, Note_on_c, 3, 74, 0
1, 93838, Note_on_c, 11, 70, 0
1, 93840, Lyric_t, "you. "
1, 93840, Lyric_t, "\015"
1, 93840, Note_on_c, 1, 38, 84
1, 93840, Note_on_c, 3, 75, 111
1, 93840, Note_on_c, 4, 63, 70
1, 93840, Note_on_c, 9, 69, 48
1, 93840, Note_on_c, 9, 54, 78
1, 93840, Note_on_c, 9, 46, 87
1, 93840, Note_on_c, 9, 43, 114
1, 93860, Note_on_c, 1, 34, 0
1, 93875, Note_on_c, 8, 62, 0
1, 93875, Note_on_c, 13, 62, 0
1, 93896, Note_on_c, 9, 54, 0
1, 93903, Note_on_c, 9, 69, 0
1, 93905, Note_on_c, 9, 46, 0
1, 93919, Control_c, 7, 64, 0
1, 93930, Note_on_c, 11, 65, 0
1, 93941, Note_on_c, 11, 62, 0
1, 93960, Note_on_c, 8, 63, 105
1, 93960, Note_on_c, 9, 43, 0
1, 93960, Note_on_c, 9, 54, 28
1, 93960, Note_on_c, 9, 70, 56
1, 93960, Note_on_c, 13, 63, 105
1, 93998, Note_on_c, 9, 54, 0
1, 94025, Note_on_c, 7, 65, 0
1, 94031, Note_on_c, 6, 70, 0
1, 94038, Note_on_c, 7, 53, 0
1, 94039, Note_on_c, 7, 62, 0
1, 94042, Note_on_c, 7, 46, 0
1, 94046, Note_on_c, 12, 62, 0
1, 94047, Note_on_c, 12, 65, 0
1, 94048, Note_on_c, 7, 58, 0
1, 94048, Note_on_c, 12, 58, 0
1, 94053, Note_on_c, 6, 74, 0
1, 94070, Note_on_c, 9, 70, 0
1, 94080, Note_on_c, 1, 39, 108
1, 94080, Note_on_c, 7, 58, 74
1, 94080, Note_on_c, 7, 55, 76
1, 94080, Note_on_c, 7, 63, 82
1, 94080, Note_on_c, 7, 51, 80
1, 94080, Note_on_c, 5, 63, 80
1, 94080, Note_on_c, 5, 55, 87
1, 94080, Note_on_c, 6, 67, 84
1, 94080, Note_on_c, 6, 63, 74
1, 94080, Note_on_c, 6, 75, 58
1, 94080, Note_on_c, 9, 36, 111
1, 94080, Note_on_c, 9, 69, 51
1, 94080, Note_on_c, 9, 42, 102
1, 94080, Note_on_c, 9, 54, 86
1, 94080, Note_on_c, 11, 75, 78
1, 94080, Note_on_c, 11, 67, 84
1, 94080, Note_on_c, 11, 70, 82
1, 94080, Note_on_c, 12, 67, 74
1, 94080, Note_on_c, 12, 58, 93
1, 94080, Note_on_c, 12, 63, 96
1, 94093, Note_on_c, 5, 58, 0
1, 94096, Note_on_c, 5, 53, 0
1, 94108, Note_on_c, 1, 38, 0
1, 94136, Note_on_c, 9, 42, 0
1, 94136, Note_on_c, 9, 54, 0
1, 94143, Control_c, 7, 64, 127
1, 94160, Note_on_c, 9, 69, 0
1, 94200, Note_on_c, 9, 70, 54
1, 94200, Note_on_c, 9, 54, 39
1, 94200, Note_on_c, 9, 42, 76
1, 94233, Note_on_c, 9, 42, 0
1, 94236, Note_on_c, 9, 54, 0
1, 94257, Note_on_c, 4, 63, 0
1, 94286, Note_on_c, 9, 36, 0
1, 94293, Note_on_c, 9, 70, 0
1, 94320, Note_on_c, 9, 54, 61
1, 94320, Note_on_c, 9, 69, 44
1, 94320, Note_on_c, 9, 42, 84
1, 94371, Note_on_c, 9, 42, 0
1, 94372, Note_on_c, 9, 54, 0
1, 94372, Note_on_c, 12, 58, 0
1, 94374, Note_on_c, 12, 67, 0
1, 94384, Note_on_c, 11, 75, 0
1, 94393, Note_on_c, 9, 69, 0
1, 94395, Note_on_c, 3, 75, 0
1, 94440, Note_on_c, 9, 70, 56
1, 94440, Note_on_c, 9, 42, 70
1, 94440, Note_on_c, 9, 54, 30
1, 94440, Note_on_c, 12, 67, 82
1, 94440, Note_on_c, 12, 58, 76
1, 94473, Note_on_c, 9, 42, 0
1, 94480, Note_on_c, 11, 67, 0
1, 94490, Note_on_c, 9, 54, 0
1, 94508, Note_on_c, 11, 70, 0
1, 94542, Note_on_c, 9, 70, 0
1, 94560, Note_on_c, 9, 54, 78
1, 94560, Note_on_c, 9, 69, 32
1, 94560, Note_on_c, 9, 38, 111
1, 94560, Note_on_c, 9, 42, 102
1, 94560, Note_on_c, 11, 67, 87
1, 94560, Note_on_c, 11, 70, 87
1, 94560, Note_on_c, 11, 75, 93
1, 94605, Note_on_c, 8, 63, 0
1, 94605, Note_on_c, 13, 63, 0
1, 94615, Note_on_c, 9, 42, 0
1, 94616, Note_on_c, 9, 54, 0
1, 94617, Note_on_c, 12, 63, 0
1, 94635, Note_on_c, 12, 58, 0
1, 94639, Note_on_c, 9, 69, 0
1, 94644, Note_on_c, 12, 67, 0
1, 94680, Note_on_c, 9, 70, 53
1, 94680, Note_on_c, 9, 54, 27
1, 94680, Note_on_c, 9, 42, 37
1, 94680, Note_on_c, 12, 67, 74
1, 94680, Note_on_c, 12, 58, 72
1, 94680, Note_on_c, 12, 63, 45
1, 94716, Note_on_c, 7, 55, 0
1, 94717, Note_on_c, 9, 42, 0
1, 94719, Note_on_c, 9, 54, 0
1, 94727, Note_on_c, 9, 38, 0
1, 94746, Note_on_c, 12, 58, 0
1, 94750, Note_on_c, 12, 63, 0
1, 94764, Note_on_c, 12, 67, 0
1, 94768, Note_on_c, 9, 70, 0
1, 94800, Note_on_c, 7, 55, 44
1, 94800, Note_on_c, 8, 67, 72
1, 94800, Note_on_c, 9, 42, 84
1, 94800, Note_on_c, 9, 69, 45
1, 94800, Note_on_c, 9, 54, 68
1, 94800, Note_on_c, 12, 63, 66
1, 94800, Note_on_c, 12, 67, 72
1, 94800, Note_on_c, 12, 58, 74
1, 94828, Note_on_c, 7, 51, 0
1, 94849, Note_on_c, 9, 54, 0
1, 94852, Note_on_c, 11, 70, 0
1, 94853, Note_on_c, 9, 42, 0
1, 94854, Note_on_c, 11, 67, 0
1, 94871, Note_on_c, 9, 69, 0
1, 94885, Note_on_c, 1, 39, 0
1, 94887, Note_on_c, 11, 75, 0
1, 94912, Note_on_c, 7, 58, 0
1, 94920, Note_on_c, 1, 39, 70
1, 94920, Note_on_c, 9, 42, 70
1, 94920, Note_on_c, 9, 70, 51
1, 94920, Note_on_c, 9, 54, 40
1, 94920, Note_on_c, 11, 67, 76
1, 94920, Note_on_c, 11, 75, 54
1, 94920, Note_on_c, 11, 70, 82
1, 94930, Note_on_c, 7, 63, 0
1, 94953, Note_on_c, 9, 42, 0
1, 94956, Note_on_c, 7, 55, 0
1, 94957, Note_on_c, 9, 54, 0
1, 94995, Note_on_c, 1, 39, 0
1, 95004, Note_on_c, 9, 70, 0
1, 95040, Note_on_c, 1, 39, 90
1, 95040, Note_on_c, 7, 51, 72
1, 95040, Note_on_c, 7, 55, 66
1, 95040, Note_on_c, 7, 63, 74
1, 95040, Note_on_c, 7, 58, 66
1, 95040, Note_on_c, 9, 36, 108
1, 95040, Note_on_c, 9, 42, 99
1, 95040, Note_on_c, 9, 54, 89
1, 95040, Note_on_c, 9, 69, 32
1, 95092, Note_on_c, 9, 54, 0
1, 95112, Note_on_c, 9, 42, 0
1, 95113, Note_on_c, 9, 69, 0
1, 95125, Note_on_c, 12, 58, 0
1, 95126, Note_on_c, 11, 70, 0
1, 95131, Note_on_c, 12, 67, 0
1, 95136, Note_on_c, 11, 67, 0
1, 95136, Note_on_c, 11, 75, 0
1, 95160, Note_on_c, 9, 54, 18
1, 95160, Note_on_c, 9, 42, 34
1, 95160, Note_on_c, 9, 70, 41
1, 95160, Note_on_c, 11, 75, 76
1, 95160, Note_on_c, 11, 67, 82
1, 95160, Note_on_c, 11, 70, 82
1, 95160, Note_on_c, 12, 67, 72
1, 95160, Note_on_c, 12, 58, 90
1, 95180, Note_on_c, 7, 55, 0
1, 95181, Note_on_c, 9, 36, 0
1, 95186, Note_on_c, 9, 54, 0
1, 95203, Note_on_c, 9, 42, 0
1, 95226, Note_on_c, 1, 39, 0
1, 95250, Note_on_c, 8, 67, 0
1, 95267, Note_on_c, 9, 70, 0
1, 95272, Note_on_c, 11, 70, 0
1, 95280, Note_on_c, 1, 39, 84
1, 95280, Note_on_c, 7, 53, 78
1, 95280, Note_on_c, 8, 65, 66
1, 95280, Note_on_c, 9, 54, 68
1, 95280, Note_on_c, 9, 42, 84
1, 95280, Note_on_c, 9, 69, 44
1, 95280, Note_on_c, 9, 36, 108
1, 95280, Note_on_c, 11, 70, 72
1, 95280, Note_on_c, 11, 67, 49
1, 95280, Note_on_c, 12, 65, 46
1, 95284, Note_on_c, 11, 67, 0
1, 95302, Note_on_c, 12, 67, 0
1, 95328, Note_on_c, 9, 54, 0
1, 95334, Note_on_c, 11, 75, 0
1, 95346, Note_on_c, 9, 42, 0
1, 95351, Note_on_c, 9, 69, 0
1, 95384, Note_on_c, 12, 58, 0
1, 95400, Note_on_c, 9, 42, 59
1, 95400, Note_on_c, 9, 70, 51
1, 95400, Note_on_c, 9, 54, 45
1, 95407, Note_on_c, 9, 36, 0
1, 95419, Note_on_c, 11, 67, 0
1, 95438, Note_on_c, 11, 70, 0
1, 95444, Note_on_c, 9, 54, 0
1, 95446, Note_on_c, 9, 42, 0
1, 95480, Note_on_c, 1, 39, 0
1, 95484, Note_on_c, 12, 65, 0
1, 95492, Note_on_c, 12, 63, 0
1, 95497, Note_on_c, 9, 70, 0
1, 95509, Note_on_c, 7, 53, 0
1, 95520, Note_on_c, 1, 39, 105
1, 95520, Note_on_c, 7, 55, 90
1, 95520, Note_on_c, 5, 58, 82
1, 95520, Note_on_c, 8, 67, 76
1, 95520, Note_on_c, 9, 69, 33
1, 95520, Note_on_c, 9, 42, 90
1, 95520, Note_on_c, 9, 38, 114
1, 95520, Note_on_c, 9, 54, 83
1, 95520, Note_on_c, 11, 67, 105
1, 95520, Note_on_c, 11, 75, 105
1, 95520, Note_on_c, 11, 70, 96
1, 95520, Note_on_c, 12, 67, 90
1, 95520, Note_on_c, 12, 63, 46
1, 95520, Note_on_c, 12, 58, 99
1, 95531, Note_on_c, 8, 65, 0
1, 95562, Note_on_c, 5, 55, 0
1, 95573, Note_on_c, 9, 54, 0
1, 95580, Note_on_c, 9, 42, 0
1, 95600, Note_on_c, 9, 69, 0
1, 95601, Note_on_c, 7, 51, 0
1, 95640, Note_on_c, 9, 70, 43
1, 95640, Note_on_c, 9, 42, 72
1, 95640, Note_on_c, 9, 54, 44
1, 95687, Note_on_c, 9, 54, 0
1, 95694, Note_on_c, 9, 42, 0
1, 95704, Note_on_c, 9, 38, 0
1, 95715, Note_on_c, 12, 58, 0
1, 95726, Note_on_c, 9, 70, 0
1, 95727, Note_on_c, 11, 70, 0
1, 95730, Note_on_c, 12, 67, 0
1, 95736, Note_on_c, 12, 63, 0
1, 95738, Note_on_c, 11, 67, 0
1, 95758, Note_on_c, 1, 39, 0
1, 95760, Note_on_c, 1, 34, 102
1, 95760, Note_on_c, 7, 51, 87
1, 95760, Note_on_c, 8, 63, 78
1, 95760, Note_on_c, 9, 38, 114
1, 95760, Note_on_c, 9, 54, 70
1, 95760, Note_on_c, 9, 69, 48
1, 95760, Note_on_c, 9, 46, 96
1, 95760, Note_on_c, 11, 70, 74
1, 95760, Note_on_c, 11, 67, 59
1, 95760, Note_on_c, 12, 63, 58
1, 95760, Note_on_c, 12, 58, 59
1, 95760, Note_on_c, 12, 67, 78
1, 95777, Note_on_c, 8, 67, 0
1, 95801, Control_c, 7, 64, 0
1, 95810, Note_on_c, 9, 54, 0
1, 95811, Note_on_c, 9, 38, 0
1, 95820, Note_on_c, 9, 46, 0
1, 95823, Note_on_c, 9, 69, 0
1, 95857, Note_on_c, 12, 67, 0
1, 95863, Note_on_c, 11, 75, 0
1, 95880, Note_on_c, 9, 38, 99
1, 95880, Note_on_c, 9, 70, 56
1, 95880, Note_on_c, 9, 54, 35
1, 95885, Note_on_c, 11, 67, 0
1, 95897, Note_on_c, 11, 70, 0
1, 95918, Note_on_c, 12, 58, 0
1, 95926, Note_on_c, 9, 54, 0
1, 95927, Note_on_c, 12, 63, 0
1, 95934, Note_on_c, 9, 38, 0
1, 95936, Note_on_c, 7, 55, 0
1, 95939, Note_on_c, 7, 58, 0
1, 95944, Note_on_c, 7, 63, 0
1, 95952, Note_on_c, 5, 58, 0
1, 95963, Note_on_c, 5, 63, 0
1, 95979, Note_on_c, 8, 63, 0
1, 95988, Note_on_c, 7, 51, 0
1, 95990, Note_on_c, 9, 70, 0
1, 95994, Note_on_c, 6, 67, 0
1, 95996, Note_on_c, 6, 63, 0
1, 96000, Note_on_c, 1, 32, 102
1, 96000, Note_on_c, 7, 60, 78
1, 96000, Note_on_c, 7, 63, 87
1, 96000, Note_on_c, 7, 56, 68
1, 96000, Note_on_c, 7, 44, 102
1, 96000, Note_on_c, 5, 60, 84
1, 96000, Note_on_c, 5, 56, 93
1, 96000, Note_on_c, 5, 51, 82
1, 96000, Note_on_c, 6, 68, 92
1, 96000, Note_on_c, 6, 72, 95
1, 96000, Note_on_c, 6, 63, 92
1, 96000, Note_on_c, 6, 56, 111
1, 96000, Note_on_c, 9, 54, 84
1, 96000, Note_on_c, 9, 36, 111
1, 96000, Note_on_c, 9, 49, 99
1, 96000, Note_on_c, 9, 69, 51
1, 96000, Note_on_c, 11, 68, 105
1, 96000, Note_on_c, 11, 63, 46
1, 96000, Note_on_c, 12, 60, 84
1, 96000, Note_on_c, 12, 56, 93
1, 96000, Note_on_c, 12, 63, 93
1, 96000, Note_on_c, 2, 75, 52
1, 96000, Note_on_c, 2, 82, 50
1, 96002, Note_on_c, 6, 75, 0
1, 96010, Note_on_c, 1, 34, 0
1, 96043, Note_on_c, 6, 63, 0
1, 96044, Note_on_c, 6, 72, 0
1, 96054, Control_c, 7, 64, 127
1, 96056, Note_on_c, 6, 56, 0
1, 96057, Note_on_c, 2, 82, 0
1, 96059, Note_on_c, 6, 68, 0
1, 96061, Note_on_c, 9, 54, 0
1, 96061, Note_on_c, 2, 75, 0
1, 96077, Note_on_c, 9, 49, 0
1, 96080, Note_on_c, 9, 69, 0
1, 96120, Note_on_c, 9, 54, 41
1, 96120, Note_on_c, 9, 42, 50
1, 96120, Note_on_c, 9, 70, 54
1, 96148, Note_on_c, 7, 56, 0
1, 96163, Note_on_c, 9, 42, 0
1, 96171, Note_on_c, 9, 54, 0
1, 96196, Note_on_c, 1, 32, 0
1, 96206, Note_on_c, 12, 56, 0
1, 96213, Note_on_c, 9, 36, 0
1, 96213, Note_on_c, 9, 70, 0
1, 96240, Note_on_c, 1, 32, 80
1, 96240, Note_on_c, 7, 63, 0
1, 96240, Note_on_c, 7, 56, 62
1, 96240, Note_on_c, 6, 72, 92
1, 96240, Note_on_c, 6, 68, 89
1, 96240, Note_on_c, 6, 63, 92
1, 96240, Note_on_c, 6, 56, 111
1, 96240, Note_on_c, 9, 69, 44
1, 96240, Note_on_c, 9, 54, 35
1, 96240, Note_on_c, 9, 42, 51
1, 96240, Note_on_c, 11, 70, 87
1, 96240, Note_on_c, 12, 56, 68
1, 96240, Note_on_c, 2, 82, 54
1, 96240, Note_on_c, 2, 75, 40
1, 96245, Note_on_c, 7, 60, 0
1, 96274, Note_on_c, 11, 68, 0
1, 96282, Note_on_c, 2, 75, 0
1, 96283, Note_on_c, 9, 42, 0
1, 96290, Note_on_c, 6, 63, 0
1, 96292, Note_on_c, 6, 72, 0
1, 96298, Note_on_c, 2, 82, 0
1, 96299, Note_on_c, 6, 56, 0
1, 96303, Note_on_c, 6, 68, 0
1, 96313, Note_on_c, 9, 69, 0
1, 96360, Note_on_c, 9, 42, 55
1, 96360, Note_on_c, 9, 70, 56
1, 96370, Note_on_c, 9, 54, 0
1, 96389, Note_on_c, 12, 63, 0
1, 96391, Note_on_c, 9, 42, 0
1, 96397, Note_on_c, 12, 60, 0
1, 96406, Note_on_c, 7, 56, 0
1, 96443, Note_on_c, 12, 56, 0
1, 96462, Note_on_c, 9, 70, 0
1, 96480, Lyric_t, "Na"
1, 96480, Note_on_c, 7, 63, 82
1, 96480, Note_on_c, 7, 60, 84
1, 96480, Note_on_c, 7, 51, 61
1, 96480, Note_on_c, 3, 72, 111
1, 96480, Note_on_c, 4, 72, 88
1, 96480, Note_on_c, 6, 72, 101
1, 96480, Note_on_c, 6, 68, 92
1, 96480, Note_on_c, 6, 63, 95
1, 96480, Note_on_c, 6, 56, 104
1, 96480, Note_on_c, 9, 69, 32
1, 96480, Note_on_c, 9, 54, 102
1, 96480, Note_on_c, 9, 42, 96
1, 96480, Note_on_c, 9, 38, 111
1, 96480, Note_on_c, 10, 56, 64
1, 96480, Note_on_c, 12, 56, 84
1, 96480, Note_on_c, 12, 63, 93
1, 96480, Note_on_c, 12, 60, 93
1, 96480, Note_on_c, 2, 82, 59
1, 96480, Note_on_c, 2, 75, 44
1, 96520, Note_on_c, 6, 63, 0
1, 96527, Note_on_c, 6, 72, 0
1, 96530, Note_on_c, 6, 68, 0
1, 96531, Note_on_c, 9, 42, 0
1, 96533, Note_on_c, 6, 56, 0
1, 96545, Note_on_c, 2, 75, 0
1, 96550, Note_on_c, 9, 54, 0
1, 96553, Note_on_c, 2, 82, 0
1, 96559, Note_on_c, 9, 69, 0
1, 96600, Note_on_c, 9, 70, 53
1, 96600, Note_on_c, 9, 42, 31
1, 96600, Note_on_c, 9, 54, 37
1, 96621, Note_on_c, 9, 54, 0
1, 96640, Note_on_c, 7, 44, 0
1, 96649, Note_on_c, 1, 32, 0
1, 96650, Note_on_c, 11, 63, 0
1, 96654, Note_on_c, 9, 42, 0
1, 96684, Note_on_c, 12, 56, 0
1, 96688, Note_on_c, 9, 70, 0
1, 96716, Note_on_c, 10, 56, 0
1, 96717, Note_on_c, 3, 72, 0
1, 96717, Note_on_c, 4, 72, 0
1, 96720, Lyric_t, "na"
1, 96720, Note_on_c, 1, 32, 90
1, 96720, Note_on_c, 7, 56, 64
1, 96720, Note_on_c, 7, 44, 52
1, 96720, Note_on_c, 3, 74, 99
1, 96720, Note_on_c, 4, 74, 79
1, 96720, Note_on_c, 6, 72, 98
1, 96720, Note_on_c, 6, 63, 92
1, 96720, Note_on_c, 6, 68, 95
1, 96720, Note_on_c, 6, 56, 92
1, 96720, Note_on_c, 9, 54, 52
1, 96720, Note_on_c, 9, 42, 49
1, 96720, Note_on_c, 9, 69, 45
1, 96720, Note_on_c, 10, 58, 54
1, 96720, Note_on_c, 11, 63, 58
1, 96720, Note_on_c, 12, 56, 45
1, 96720, Note_on_c, 2, 75, 55
1, 96720, Note_on_c, 2, 82, 57
1, 96745, Note_on_c, 9, 38, 0
1, 96761, Note_on_c, 6, 63, 0
1, 96771, Note_on_c, 7, 60, 0
1, 96771, Note_on_c, 2, 75, 0
1, 96772, Note_on_c, 6, 68, 0
1, 96772, Note_on_c, 2, 82, 0
1, 96773, Note_on_c, 6, 72, 0
1, 96775, Note_on_c, 7, 51, 0
1, 96778, Note_on_c, 6, 56, 0
1, 96780, Note_on_c, 9, 54, 0
1, 96780, Note_on_c, 9, 42, 0
1, 96788, Note_on_c, 7, 63, 0
1, 96791, Note_on_c, 9, 69, 0
1, 96793, Note_on_c, 12, 56, 0
1, 96812, Note_on_c, 10, 58, 0
1, 96836, Note_on_c, 7, 44, 0
1, 96840, Lyric_t, "na "
1, 96840, Note_on_c, 1, 34, 82
1, 96840, Note_on_c, 7, 55, 36
1, 96840, Note_on_c, 3, 75, 105
1, 96840, Note_on_c, 4, 75, 84
1, 96840, Note_on_c, 6, 67, 86
1, 96840, Note_on_c, 9, 36, 66
1, 96840, Note_on_c, 9, 42, 76
1, 96840, Note_on_c, 9, 70, 51
1, 96840, Note_on_c, 10, 60, 57
1, 96840, Note_on_c, 12, 62, 74
1, 96847, Note_on_c, 1, 32, 0
1, 96862, Note_on_c, 12, 63, 0
1, 96867, Note_on_c, 11, 70, 0
1, 96870, Note_on_c, 3, 74, 0
1, 96870, Note_on_c, 4, 74, 0
1, 96870, Note_on_c, 12, 60, 0
1, 96874, Note_on_c, 9, 36, 0
1, 96876, Note_on_c, 6, 67, 0
1, 96883, Note_on_c, 7, 56, 0
1, 96884, Note_on_c, 9, 42, 0
1, 96916, Note_on_c, 5, 56, 0
1, 96924, Note_on_c, 9, 70, 0
1, 96932, Note_on_c, 12, 62, 0
1, 96936, Note_on_c, 1, 34, 0
1, 96960, Note_on_c, 1, 36, 102
1, 96960, Note_on_c, 7, 63, 84
1, 96960, Note_on_c, 7, 48, 93
1, 96960, Note_on_c, 7, 60, 84
1, 96960, Note_on_c, 5, 55, 87
1, 96960, Note_on_c, 6, 60, 84
1, 96960, Note_on_c, 6, 67, 92
1, 96960, Note_on_c, 6, 72, 89
1, 96960, Note_on_c, 6, 75, 98
1, 96960, Note_on_c, 9, 54, 78
1, 96960, Note_on_c, 9, 69, 32
1, 96960, Note_on_c, 9, 42, 96
1, 96960, Note_on_c, 9, 36, 108
1, 96960, Note_on_c, 11, 70, 108
1, 96960, Note_on_c, 12, 63, 82
1, 96960, Note_on_c, 12, 60, 82
1, 96960, Note_on_c, 12, 55, 108
1, 96960, Note_on_c, 2, 84, 54
1, 96960, Note_on_c, 2, 79, 48
1, 96983, Note_on_c, 10, 60, 0
1, 96984, Control_c, 7, 64, 0
1, 96990, Note_on_c, 7, 55, 0
1, 96995, Note_on_c, 3, 75, 0
1, 96995, Note_on_c, 4, 75, 0
1, 97003, Note_on_c, 6, 72, 0
1, 97014, Note_on_c, 6, 67, 0
1, 97014, Note_on_c, 6, 75, 0
1, 97026, Note_on_c, 2, 79, 0
1, 97027, Note_on_c, 6, 60, 0
1, 97033, Note_on_c, 9, 69, 0
1, 97035, Note_on_c, 9, 54, 0
1, 97040, Note_on_c, 9, 42, 0
1, 97043, Note_on_c, 2, 84, 0
1, 97050, Note_on_c, 11, 63, 0
1, 97080, Note_on_c, 9, 42, 61
1, 97080, Note_on_c, 9, 70, 41
1, 97080, Note_on_c, 9, 54, 31
1, 97080, Note_on_c, 10, 55, 42
1, 97117, Note_on_c, 9, 54, 0
1, 97118, Note_on_c, 9, 36, 0
1, 97121, Note_on_c, 9, 42, 0
1, 97141, Control_c, 7, 64, 127
1, 97150, Note_on_c, 1, 36, 0
1, 97174, Note_on_c, 12, 63, 0
1, 97187, Note_on_c, 9, 70, 0
1, 97200, Lyric_t, "na "
1, 97200, Lyric_t, "\015"
1, 97200, Note_on_c, 1, 36, 99
1, 97200, Note_on_c, 7, 55, 64
1, 97200, Note_on_c, 3, 75, 114
1, 97200, Note_on_c, 4, 75, 91
1, 97200, Note_on_c, 6, 72, 89
1, 97200, Note_on_c, 6, 67, 86
1, 97200, Note_on_c, 6, 60, 80
1, 97200, Note_on_c, 6, 75, 92
1, 97200, Note_on_c, 9, 46, 99
1, 97200, Note_on_c, 9, 36, 108
1, 97200, Note_on_c, 9, 69, 44
1, 97200, Note_on_c, 9, 54, 41
1, 97200, Note_on_c, 10, 60, 62
1, 97200, Note_on_c, 11, 67, 82
1, 97200, Note_on_c, 12, 63, 70
1, 97200, Note_on_c, 2, 79, 50
1, 97200, Note_on_c, 2, 84, 57
1, 97217, Note_on_c, 10, 55, 0
1, 97225, Note_on_c, 7, 63, 0
1, 97241, Note_on_c, 7, 60, 0
1, 97244, Note_on_c, 6, 75, 0
1, 97245, Note_on_c, 2, 84, 0
1, 97249, Note_on_c, 2, 79, 0
1, 97253, Note_on_c, 6, 72, 0
1, 97256, Note_on_c, 9, 54, 0
1, 97257, Note_on_c, 6, 67, 0
1, 97268, Note_on_c, 6, 60, 0
1, 97271, Note_on_c, 9, 69, 0
1, 97320, Note_on_c, 9, 70, 51
1, 97320, Note_on_c, 9, 54, 25
1, 97331, Note_on_c, 9, 36, 0
1, 97343, Note_on_c, 9, 54, 0
1, 97345, Note_on_c, 9, 46, 0
1, 97381, Note_on_c, 12, 63, 0
1, 97411, Note_on_c, 12, 55, 0
1, 97412, Note_on_c, 12, 60, 0
1, 97417, Note_on_c, 9, 70, 0
1, 97421, Note_on_c, 7, 55, 0
1, 97440, Note_on_c, 7, 63, 76
1, 97440, Note_on_c, 7, 60, 80
1, 97440, Note_on_c, 6, 67, 80
1, 97440, Note_on_c, 6, 75, 89
1, 97440, Note_on_c, 6, 72, 82
1, 97440, Note_on_c, 6, 60, 89
1, 97440, Note_on_c, 9, 69, 33
1, 97440, Note_on_c, 9, 42, 61
1, 97440, Note_on_c, 9, 38, 117
1, 97440, Note_on_c, 9, 54, 105
1, 97440, Note_on_c, 11, 75, 102
1, 97440, Note_on_c, 12, 60, 84
1, 97440, Note_on_c, 12, 55, 96
1, 97440, Note_on_c, 12, 63, 96
1, 97440, Note_on_c, 2, 79, 52
1, 97440, Note_on_c, 2, 84, 48
1, 97473, Note_on_c, 2, 84, 0
1, 97479, Note_on_c, 6, 72, 0
1, 97483, Note_on_c, 6, 75, 0
1, 97488, Note_on_c, 2, 79, 0
1, 97496, Note_on_c, 6, 67, 0
1, 97504, Note_on_c, 6, 60, 0
1, 97505, Note_on_c, 9, 42, 0
1, 97508, Note_on_c, 9, 54, 0
1, 97520, Note_on_c, 9, 69, 0
1, 97560, Note_on_c, 9, 54, 61
1, 97560, Note_on_c, 9, 70, 43
1, 97592, Note_on_c, 9, 54, 0
1, 97609, Note_on_c, 3, 75, 0
1, 97609, Note_on_c, 4, 75, 0
1, 97613, Note_on_c, 12, 55, 0
1, 97625, Note_on_c, 9, 38, 0
1, 97646, Note_on_c, 9, 70, 0
1, 97651, Note_on_c, 1, 36, 0
1, 97661, Note_on_c, 7, 48, 0
1, 97672, Note_on_c, 7, 63, 0
1, 97680, Note_on_c, 1, 36, 102
1, 97680, Note_on_c, 7, 55, 76
1, 97680, Note_on_c, 6, 75, 89
1, 97680, Note_on_c, 6, 60, 92
1, 97680, Note_on_c, 6, 72, 84
1, 97680, Note_on_c, 6, 67, 80
1, 97680, Note_on_c, 9, 54, 50
1, 97680, Note_on_c, 9, 69, 48
1, 97680, Note_on_c, 9, 42, 87
1, 97680, Note_on_c, 12, 55, 72
1, 97680, Note_on_c, 2, 84, 58
1, 97680, Note_on_c, 2, 79, 46
1, 97706, Note_on_c, 7, 60, 0
1, 97713, Note_on_c, 6, 72, 0
1, 97721, Note_on_c, 2, 79, 0
1, 97726, Note_on_c, 2, 84, 0
1, 97729, Note_on_c, 9, 42, 0
1, 97731, Note_on_c, 6, 75, 0
1, 97732, Note_on_c, 6, 67, 0
1, 97734, Note_on_c, 9, 54, 0
1, 97737, Note_on_c, 12, 63, 0
1, 97743, Note_on_c, 9, 69, 0
1, 97744, Note_on_c, 12, 60, 0
1, 97758, Note_on_c, 6, 60, 0
1, 97800, Note_on_c, 9, 70, 56
1, 97800, Note_on_c, 9, 54, 45
1, 97800, Note_on_c, 12, 60, 62
1, 97800, Note_on_c, 12, 63, 59
1, 97804, Note_on_c, 10, 60, 0
1, 97820, Note_on_c, 9, 54, 0
1, 97833, Note_on_c, 5, 55, 0
1, 97845, Note_on_c, 5, 51, 0
1, 97850, Note_on_c, 12, 63, 0
1, 97877, Note_on_c, 12, 55, 0
1, 97882, Note_on_c, 11, 75, 0
1, 97891, Note_on_c, 7, 55, 0
1, 97900, Control_c, 7, 64, 0
1, 97905, Note_on_c, 11, 67, 0
1, 97907, Control_c, 7, 64, 127
1, 97910, Note_on_c, 9, 70, 0
1, 97920, Note_on_c, 1, 32, 105
1, 97920, Note_on_c, 7, 63, 80
1, 97920, Note_on_c, 7, 44, 99
1, 97920, Note_on_c, 7, 56, 70
1, 97920, Note_on_c, 7, 60, 82
1, 97920, Note_on_c, 5, 56, 80
1, 97920, Note_on_c, 5, 51, 87
1, 97920, Note_on_c, 6, 68, 89
1, 97920, Note_on_c, 6, 63, 80
1, 97920, Note_on_c, 6, 72, 89
1, 97920, Note_on_c, 6, 56, 89
1, 97920, Note_on_c, 9, 36, 117
1, 97920, Note_on_c, 9, 69, 51
1, 97920, Note_on_c, 9, 54, 96
1, 97920, Note_on_c, 9, 42, 102
1, 97920, Note_on_c, 11, 63, 99
1, 97920, Note_on_c, 12, 63, 87
1, 97920, Note_on_c, 12, 56, 93
1, 97920, Note_on_c, 2, 82, 55
1, 97922, Note_on_c, 1, 36, 0
1, 97936, Control_c, 7, 64, 0
1, 97968, Note_on_c, 2, 82, 0
1, 97973, Note_on_c, 6, 68, 0
1, 97973, Note_on_c, 6, 63, 0
1, 97975, Note_on_c, 6, 72, 0
1, 97979, Note_on_c, 9, 42, 0
1, 97984, Note_on_c, 6, 56, 0
1, 97985, Note_on_c, 9, 54, 0
1, 98000, Note_on_c, 9, 69, 0
1, 98040, Note_on_c, 9, 54, 33
1, 98040, Note_on_c, 9, 70, 54
1, 98040, Note_on_c, 9, 42, 70
1, 98064, Note_on_c, 7, 56, 0
1, 98066, Note_on_c, 9, 54, 0
1, 98074, Note_on_c, 9, 42, 0
1, 98083, Note_on_c, 12, 56, 0
1, 98100, Control_c, 7, 64, 127
1, 98113, Note_on_c, 9, 36, 0
1, 98133, Note_on_c, 9, 70, 0
1, 98137, Note_on_c, 11, 70, 0
1, 98160, Note_on_c, 7, 56, 62
1, 98160, Note_on_c, 6, 63, 84
1, 98160, Note_on_c, 6, 72, 95
1, 98160, Note_on_c, 6, 56, 67
1, 98160, Note_on_c, 6, 68, 92
1, 98160, Note_on_c, 9, 54, 54
1, 98160, Note_on_c, 9, 69, 44
1, 98160, Note_on_c, 9, 42, 59
1, 98160, Note_on_c, 11, 70, 105
1, 98160, Note_on_c, 12, 56, 55
1, 98160, Note_on_c, 2, 82, 55
1, 98160, Note_on_c, 2, 75, 49
1, 98193, Note_on_c, 6, 56, 0
1, 98206, Note_on_c, 7, 63, 0
1, 98208, Note_on_c, 2, 82, 0
1, 98213, Note_on_c, 9, 42, 0
1, 98216, Note_on_c, 9, 54, 0
1, 98217, Note_on_c, 2, 75, 0
1, 98219, Note_on_c, 6, 63, 0
1, 98219, Note_on_c, 6, 68, 0
1, 98220, Note_on_c, 6, 72, 0
1, 98229, Note_on_c, 7, 60, 0
1, 98233, Note_on_c, 9, 69, 0
1, 98239, Note_on_c, 12, 60, 0
1, 98239, Note_on_c, 12, 63, 0
1, 98280, Note_on_c, 9, 54, 40
1, 98280, Note_on_c, 9, 42, 48
1, 98280, Note_on_c, 9, 70, 56
1, 98303, Note_on_c, 9, 54, 0
1, 98303, Note_on_c, 9, 42, 0
1, 98352, Note_on_c, 12, 56, 0
1, 98382, Note_on_c, 9, 70, 0
1, 98400, Lyric_t, "na"
1, 98400, Note_on_c, 7, 63, 72
1, 98400, Note_on_c, 7, 60, 78
1, 98400, Note_on_c, 3, 72, 111
1, 98400, Note_on_c, 4, 72, 88
1, 98400, Note_on_c, 6, 72, 95
1, 98400, Note_on_c, 6, 63, 82
1, 98400, Note_on_c, 6, 56, 80
1, 98400, Note_on_c, 6, 68, 84
1, 98400, Note_on_c, 9, 38, 114
1, 98400, Note_on_c, 9, 42, 108
1, 98400, Note_on_c, 9, 69, 32
1, 98400, Note_on_c, 9, 54, 105
1, 98400, Note_on_c, 10, 56, 55
1, 98400, Note_on_c, 12, 60, 76
1, 98400, Note_on_c, 12, 56, 90
1, 98400, Note_on_c, 12, 63, 84
1, 98400, Note_on_c, 2, 82, 54
1, 98400, Note_on_c, 2, 75, 43
1, 98444, Note_on_c, 6, 63, 0
1, 98446, Note_on_c, 6, 56, 0
1, 98446, Note_on_c, 6, 68, 0
1, 98452, Note_on_c, 6, 72, 0
1, 98452, Note_on_c, 2, 75, 0
1, 98456, Note_on_c, 2, 82, 0
1, 98464, Note_on_c, 9, 54, 0
1, 98473, Note_on_c, 9, 42, 0
1, 98479, Note_on_c, 9, 69, 0
1, 98492, Note_on_c, 7, 56, 0
1, 98520, Note_on_c, 9, 54, 40
1, 98520, Note_on_c, 9, 42, 49
1, 98520, Note_on_c, 9, 70, 53
1, 98543, Note_on_c, 9, 54, 0
1, 98559, Note_on_c, 9, 42, 0
1, 98563, Note_on_c, 1, 32, 0
1, 98569, Note_on_c, 12, 56, 0
1, 98605, Note_on_c, 10, 56, 0
1, 98608, Note_on_c, 9, 70, 0
1, 98637, Note_on_c, 3, 72, 0
1, 98637, Note_on_c, 4, 72, 0
1, 98640, Lyric_t, "na"
1, 98640, Note_on_c, 1, 32, 96
1, 98640, Note_on_c, 7, 51, 61
1, 98640, Note_on_c, 3, 74, 99
1, 98640, Note_on_c, 4, 74, 79
1, 98640, Note_on_c, 6, 68, 92
1, 98640, Note_on_c, 6, 72, 95
1, 98640, Note_on_c, 6, 56, 84
1, 98640, Note_on_c, 6, 63, 89
1, 98640, Note_on_c, 9, 69, 45
1, 98640, Note_on_c, 9, 54, 50
1, 98640, Note_on_c, 9, 42, 72
1, 98640, Note_on_c, 10, 58, 45
1, 98640, Note_on_c, 11, 60, 64
1, 98640, Note_on_c, 12, 56, 62
1, 98640, Note_on_c, 2, 82, 54
1, 98640, Note_on_c, 2, 75, 49
1, 98658, Note_on_c, 9, 38, 0
1, 98675, Note_on_c, 6, 63, 0
1, 98687, Note_on_c, 6, 68, 0
1, 98691, Note_on_c, 9, 42, 0
1, 98695, Note_on_c, 6, 72, 0
1, 98697, Note_on_c, 2, 82, 0
1, 98697, Note_on_c, 2, 75, 0
1, 98698, Note_on_c, 9, 54, 0
1, 98705, Note_on_c, 12, 56, 0
1, 98707, Note_on_c, 6, 56, 0
1, 98711, Note_on_c, 9, 69, 0
1, 98720, Note_on_c, 11, 63, 0
1, 98751, Note_on_c, 10, 58, 0
1, 98751, Note_on_c, 12, 63, 0
1, 98759, Note_on_c, 7, 63, 0
1, 98760, Lyric_t, "na "
1, 98760, Note_on_c, 1, 34, 68
1, 98760, Note_on_c, 7, 55, 62
1, 98760, Note_on_c, 3, 75, 105
1, 98760, Note_on_c, 4, 75, 84
1, 98760, Note_on_c, 6, 67, 89
1, 98760, Note_on_c, 9, 36, 62
1, 98760, Note_on_c, 9, 70, 51
1, 98760, Note_on_c, 9, 54, 36
1, 98760, Note_on_c, 9, 42, 51
1, 98760, Note_on_c, 10, 60, 61
1, 98760, Note_on_c, 12, 58, 64
1, 98762, Note_on_c, 7, 51, 0
1, 98776, Note_on_c, 1, 32, 0
1, 98783, Note_on_c, 9, 42, 0
1, 98786, Note_on_c, 9, 54, 0
1, 98787, Note_on_c, 12, 60, 0
1, 98790, Note_on_c, 3, 74, 0
1, 98790, Note_on_c, 4, 74, 0
1, 98793, Note_on_c, 7, 60, 0
1, 98794, Note_on_c, 6, 67, 0
1, 98806, Note_on_c, 9, 36, 0
1, 98809, Note_on_c, 7, 44, 0
1, 98821, Note_on_c, 11, 70, 0
1, 98827, Note_on_c, 5, 56, 0
1, 98841, Note_on_c, 12, 58, 0
1, 98844, Note_on_c, 9, 70, 0
1, 98849, Control_c, 7, 64, 0
1, 98855, Control_c, 7, 64, 127
1, 98861, Control_c, 7, 64, 0
1, 98862, Note_on_c, 1, 34, 0
1, 98867, Control_c, 7, 64, 127
1, 98874, Note_on_c, 11, 60, 0
1, 98880, Note_on_c, 1, 36, 84
1, 98880, Note_on_c, 7, 48, 90
1, 98880, Note_on_c, 7, 63, 82
1, 98880, Note_on_c, 7, 60, 87
1, 98880, Note_on_c, 5, 55, 87
1, 98880, Note_on_c, 6, 75, 89
1, 98880, Note_on_c, 6, 72, 92
1, 98880, Note_on_c, 6, 67, 67
1, 98880, Note_on_c, 6, 60, 86
1, 98880, Note_on_c, 9, 36, 102
1, 98880, Note_on_c, 9, 69, 32
1, 98880, Note_on_c, 9, 54, 84
1, 98880, Note_on_c, 9, 42, 105
1, 98880, Note_on_c, 11, 70, 105
1, 98880, Note_on_c, 11, 63, 76
1, 98880, Note_on_c, 12, 60, 90
1, 98880, Note_on_c, 12, 63, 93
1, 98880, Note_on_c, 2, 79, 42
1, 98880, Note_on_c, 2, 84, 51
1, 98889, Control_c, 7, 64, 0
1, 98911, Note_on_c, 10, 60, 0
1, 98915, Note_on_c, 3, 75, 0
1, 98915, Note_on_c, 4, 75, 0
1, 98925, Note_on_c, 7, 55, 0
1, 98937, Note_on_c, 6, 72, 0
1, 98942, Note_on_c, 9, 54, 0
1, 98942, Note_on_c, 2, 84, 0
1, 98944, Note_on_c, 9, 36, 0
1, 98944, Note_on_c, 2, 79, 0
1, 98945, Note_on_c, 6, 75, 0
1, 98945, Note_on_c, 9, 42, 0
1, 98947, Note_on_c, 6, 67, 0
1, 98949, Note_on_c, 6, 60, 0
1, 98953, Note_on_c, 9, 69, 0
1, 98997, Note_on_c, 1, 36, 0
1, 99000, Note_on_c, 1, 31, 68
1, 99000, Note_on_c, 9, 70, 41
1, 99000, Note_on_c, 9, 36, 76
1, 99000, Note_on_c, 9, 54, 43
1, 99000, Note_on_c, 9, 42, 61
1, 99000, Note_on_c, 10, 55, 42
1, 99027, Note_on_c, 9, 42, 0
1, 99030, Note_on_c, 9, 54, 0
1, 99048, Note_on_c, 9, 36, 0
1, 99082, Control_c, 7, 64, 127
1, 99089, Note_on_c, 1, 31, 0
1, 99107, Note_on_c, 9, 70, 0
1, 99120, Lyric_t, "na "
1, 99120, Lyric_t, "\015"
1, 99120, Note_on_c, 1, 36, 99
1, 99120, Note_on_c, 7, 55, 68
1, 99120, Note_on_c, 3, 75, 114
1, 99120, Note_on_c, 4, 75, 91
1, 99120, Note_on_c, 6, 72, 95
1, 99120, Note_on_c, 6, 75, 95
1, 99120, Note_on_c, 6, 67, 89
1, 99120, Note_on_c, 6, 60, 76
1, 99120, Note_on_c, 9, 54, 48
1, 99120, Note_on_c, 9, 36, 108
1, 99120, Note_on_c, 9, 46, 93
1, 99120, Note_on_c, 9, 69, 44
1, 99120, Note_on_c, 10, 60, 57
1, 99120, Note_on_c, 11, 67, 74
1, 99120, Note_on_c, 12, 55, 38
1, 99120, Note_on_c, 2, 79, 52
1, 99120, Note_on_c, 2, 84, 55
1, 99130, Note_on_c, 10, 55, 0
1, 99145, Note_on_c, 7, 63, 0
1, 99145, Note_on_c, 12, 63, 0
1, 99168, Note_on_c, 2, 84, 0
1, 99171, Note_on_c, 6, 72, 0
1, 99171, Note_on_c, 6, 67, 0
1, 99171, Note_on_c, 2, 79, 0
1, 99175, Note_on_c, 6, 75, 0
1, 99179, Note_on_c, 7, 60, 0
1, 99181, Note_on_c, 9, 54, 0
1, 99189, Note_on_c, 6, 60, 0
1, 99191, Note_on_c, 9, 69, 0
1, 99193, Note_on_c, 12, 60, 0
1, 99239, Note_on_c, 9, 46, 0
1, 99240, Note_on_c, 9, 70, 51
1, 99240, Note_on_c, 9, 54, 45
1, 99263, Note_on_c, 9, 54, 0
1, 99275, Note_on_c, 9, 36, 0
1, 99308, Note_on_c, 12, 55, 0
1, 99334, Note_on_c, 11, 63, 0
1, 99337, Note_on_c, 9, 70, 0
1, 99351, Note_on_c, 7, 55, 0
1, 99360, Note_on_c, 7, 63, 82
1, 99360, Note_on_c, 7, 60, 84
1, 99360, Note_on_c, 6, 75, 92
1, 99360, Note_on_c, 6, 60, 86
1, 99360, Note_on_c, 6, 67, 89
1, 99360, Note_on_c, 6, 72, 89
1, 99360, Note_on_c, 9, 42, 96
1, 99360, Note_on_c, 9, 54, 105
1, 99360, Note_on_c, 9, 69, 33
1, 99360, Note_on_c, 9, 38, 108
1, 99360, Note_on_c, 11, 75, 105
1, 99360, Note_on_c, 12, 60, 84
1, 99360, Note_on_c, 12, 55, 93
1, 99360, Note_on_c, 12, 63, 96
1, 99360, Note_on_c, 2, 79, 46
1, 99360, Note_on_c, 2, 84, 57
1, 99408, Note_on_c, 6, 72, 0
1, 99411, Note_on_c, 6, 75, 0
1, 99412, Note_on_c, 6, 67, 0
1, 99413, Note_on_c, 2, 84, 0
1, 99420, Note_on_c, 2, 79, 0
1, 99425, Note_on_c, 9, 54, 0
1, 99426, Note_on_c, 6, 60, 0
1, 99432, Note_on_c, 9, 42, 0
1, 99440, Note_on_c, 9, 69, 0
1, 99480, Note_on_c, 9, 54, 62
1, 99480, Note_on_c, 9, 42, 39
1, 99480, Note_on_c, 9, 70, 43
1, 99508, Note_on_c, 9, 54, 0
1, 99517, Note_on_c, 9, 42, 0
1, 99529, Note_on_c, 3, 75, 0
1, 99529, Note_on_c, 4, 75, 0
1, 99529, Note_on_c, 12, 55, 0
1, 99531, Note_on_c, 10, 60, 0
1, 99545, Note_on_c, 11, 67, 0
1, 99549, Note_on_c, 9, 38, 0
1, 99564, Note_on_c, 1, 36, 0
1, 99566, Note_on_c, 9, 70, 0
1, 99591, Note_on_c, 7, 63, 0
1, 99600, Note_on_c, 1, 36, 102
1, 99600, Note_on_c, 7, 55, 64
1, 99600, Note_on_c, 6, 67, 86
1, 99600, Note_on_c, 6, 60, 89
1, 99600, Note_on_c, 6, 72, 89
1, 99600, Note_on_c, 6, 75, 89
1, 99600, Note_on_c, 9, 69, 48
1, 99600, Note_on_c, 9, 42, 87
1, 99600, Note_on_c, 9, 54, 48
1, 99600, Note_on_c, 10, 55, 38
1, 99600, Note_on_c, 11, 67, 45
1, 99600, Note_on_c, 12, 55, 72
1, 99600, Note_on_c, 2, 79, 47
1, 99600, Note_on_c, 2, 84, 50
1, 99609, Note_on_c, 12, 63, 0
1, 99645, Note_on_c, 6, 72, 0
1, 99645, Note_on_c, 2, 84, 0
1, 99646, Note_on_c, 6, 75, 0
1, 99647, Note_on_c, 7, 60, 0
1, 99650, Note_on_c, 6, 67, 0
1, 99656, Note_on_c, 9, 54, 0
1, 99659, Note_on_c, 9, 42, 0
1, 99660, Note_on_c, 2, 79, 0
1, 99663, Note_on_c, 9, 69, 0
1, 99672, Note_on_c, 6, 60, 0
1, 99678, Note_on_c, 11, 75, 0
1, 99681, Note_on_c, 11, 70, 0
1, 99686, Note_on_c, 12, 55, 0
1, 99720, Note_on_c, 9, 70, 56
1, 99720, Note_on_c, 9, 54, 45
1, 99720, Note_on_c, 9, 42, 55
1, 99720, Note_on_c, 12, 55, 68
1, 99746, Note_on_c, 9, 42, 0
1, 99747, Note_on_c, 9, 54, 0
1, 99750, Note_on_c, 5, 55, 0
1, 99774, Note_on_c, 12, 60, 0
1, 99783, Note_on_c, 10, 55, 0
1, 99791, Note_on_c, 7, 55, 0
1, 99797, Note_on_c, 12, 55, 0
1, 99802, Note_on_c, 7, 48, 0
1, 99822, Note_on_c, 11, 67, 0
1, 99829, Note_on_c, 1, 36, 0
1, 99830, Note_on_c, 9, 70, 0
1, 99840, Note_on_c, 1, 32, 111
1, 99840, Note_on_c, 7, 63, 82
1, 99840, Note_on_c, 7, 60, 68
1, 99840, Note_on_c, 7, 56, 72
1, 99840, Note_on_c, 7, 44, 90
1, 99840, Note_on_c, 5, 56, 87
1, 99840, Note_on_c, 6, 63, 74
1, 99840, Note_on_c, 6, 72, 95
1, 99840, Note_on_c, 6, 68, 89
1, 99840, Note_on_c, 6, 56, 92
1, 99840, Note_on_c, 9, 42, 102
1, 99840, Note_on_c, 9, 54, 84
1, 99840, Note_on_c, 9, 69, 51
1, 99840, Note_on_c, 9, 36, 111
1, 99840, Note_on_c, 11, 70, 93
1, 99840, Note_on_c, 11, 63, 72
1, 99840, Note_on_c, 11, 60, 76
1, 99840, Note_on_c, 12, 60, 84
1, 99840, Note_on_c, 12, 56, 96
1, 99840, Note_on_c, 12, 63, 90
1, 99840, Note_on_c, 2, 82, 58
1, 99840, Note_on_c, 2, 75, 48
1, 99847, Control_c, 7, 64, 0
1, 99891, Note_on_c, 2, 75, 0
1, 99893, Note_on_c, 6, 68, 0
1, 99897, Note_on_c, 9, 54, 0
1, 99899, Note_on_c, 9, 42, 0
1, 99901, Note_on_c, 6, 63, 0
1, 99902, Note_on_c, 6, 72, 0
1, 99904, Note_on_c, 6, 56, 0
1, 99909, Note_on_c, 2, 82, 0
1, 99920, Note_on_c, 9, 69, 0
1, 99960, Note_on_c, 9, 42, 70
1, 99960, Note_on_c, 9, 54, 55
1, 99960, Note_on_c, 9, 70, 54
1, 99994, Note_on_c, 9, 42, 0
1, 99995, Note_on_c, 9, 54, 0
1, 99996, Note_on_c, 12, 56, 0
1, 100007, Note_on_c, 7, 56, 0
1, 100017, Control_c, 7, 64, 127
1, 100053, Note_on_c, 9, 70, 0
1, 100057, Note_on_c, 9, 36, 0
1, 100063, Note_on_c, 11, 70, 0
1, 100080, Note_on_c, 7, 56, 62
1, 100080, Note_on_c, 6, 63, 84
1, 100080, Note_on_c, 6, 56, 89
1, 100080, Note_on_c, 6, 72, 89
1, 100080, Note_on_c, 6, 68, 92
1, 100080, Note_on_c, 9, 42, 59
1, 100080, Note_on_c, 9, 54, 55
1, 100080, Note_on_c, 9, 69, 44
1, 100080, Note_on_c, 11, 70, 90
1, 100080, Note_on_c, 12, 56, 64
1, 100080, Note_on_c, 2, 82, 52
1, 100080, Note_on_c, 2, 75, 43
1, 100126, Note_on_c, 2, 75, 0
1, 100130, Note_on_c, 2, 82, 0
1, 100131, Note_on_c, 6, 63, 0
1, 100131, Note_on_c, 6, 68, 0
1, 100133, Note_on_c, 7, 63, 0
1, 100133, Note_on_c, 9, 42, 0
1, 100133, Note_on_c, 9, 54, 0
1, 100141, Note_on_c, 6, 56, 0
1, 100141, Note_on_c, 6, 72, 0
1, 100147, Note_on_c, 12, 63, 0
1, 100153, Note_on_c, 9, 69, 0
1, 100177, Note_on_c, 7, 60, 0
1, 100182, Note_on_c, 11, 63, 0
1, 100200, Note_on_c, 9, 54, 42
1, 100200, Note_on_c, 9, 42, 48
1, 100200, Note_on_c, 9, 70, 56
1, 100211, Note_on_c, 12, 60, 0
1, 100221, Note_on_c, 9, 54, 0
1, 100223, Note_on_c, 9, 42, 0
1, 100224, Note_on_c, 12, 56, 0
1, 100262, Note_on_c, 5, 60, 0
1, 100302, Note_on_c, 9, 70, 0
1, 100320, Lyric_t, "na"
1, 100320, Note_on_c, 7, 63, 84
1, 100320, Note_on_c, 7, 60, 82
1, 100320, Note_on_c, 3, 72, 111
1, 100320, Note_on_c, 4, 72, 88
1, 100320, Note_on_c, 5, 60, 84
1, 100320, Note_on_c, 6, 68, 89
1, 100320, Note_on_c, 6, 56, 82
1, 100320, Note_on_c, 6, 63, 92
1, 100320, Note_on_c, 6, 72, 95
1, 100320, Note_on_c, 9, 38, 114
1, 100320, Note_on_c, 9, 69, 32
1, 100320, Note_on_c, 9, 54, 105
1, 100320, Note_on_c, 9, 42, 108
1, 100320, Note_on_c, 10, 56, 59
1, 100320, Note_on_c, 11, 63, 54
1, 100320, Note_on_c, 12, 60, 84
1, 100320, Note_on_c, 12, 63, 93
1, 100320, Note_on_c, 12, 56, 90
1, 100320, Note_on_c, 2, 82, 55
1, 100320, Note_on_c, 2, 75, 41
1, 100365, Note_on_c, 2, 75, 0
1, 100366, Note_on_c, 6, 68, 0
1, 100370, Note_on_c, 2, 82, 0
1, 100371, Note_on_c, 6, 63, 0
1, 100378, Note_on_c, 7, 56, 0
1, 100382, Note_on_c, 9, 54, 0
1, 100383, Note_on_c, 6, 72, 0
1, 100386, Note_on_c, 6, 56, 0
1, 100393, Note_on_c, 9, 42, 0
1, 100399, Note_on_c, 9, 69, 0
1, 100440, Note_on_c, 9, 70, 53
1, 100440, Note_on_c, 9, 54, 32
1, 100440, Note_on_c, 9, 42, 49
1, 100461, Note_on_c, 9, 54, 0
1, 100472, Note_on_c, 9, 38, 0
1, 100477, Note_on_c, 1, 32, 0
1, 100479, Note_on_c, 9, 42, 0
1, 100509, Note_on_c, 11, 70, 0
1, 100522, Note_on_c, 12, 56, 0
1, 100528, Note_on_c, 9, 70, 0
1, 100537, Note_on_c, 10, 56, 0
1, 100557, Note_on_c, 3, 72, 0
1, 100557, Note_on_c, 4, 72, 0
1, 100560, Lyric_t, "na"
1, 100560, Note_on_c, 1, 32, 96
1, 100560, Note_on_c, 7, 51, 55
1, 100560, Note_on_c, 7, 56, 44
1, 100560, Note_on_c, 3, 74, 99
1, 100560, Note_on_c, 4, 74, 79
1, 100560, Note_on_c, 6, 68, 86
1, 100560, Note_on_c, 6, 63, 76
1, 100560, Note_on_c, 6, 72, 92
1, 100560, Note_on_c, 6, 56, 82
1, 100560, Note_on_c, 9, 69, 45
1, 100560, Note_on_c, 9, 42, 72
1, 100560, Note_on_c, 9, 54, 59
1, 100560, Note_on_c, 10, 58, 49
1, 100560, Note_on_c, 11, 70, 50
1, 100560, Note_on_c, 12, 56, 74
1, 100560, Note_on_c, 2, 82, 55
1, 100560, Note_on_c, 2, 75, 40
1, 100603, Note_on_c, 6, 63, 0
1, 100603, Note_on_c, 2, 75, 0
1, 100606, Note_on_c, 2, 82, 0
1, 100611, Note_on_c, 9, 42, 0
1, 100614, Note_on_c, 9, 54, 0
1, 100615, Note_on_c, 6, 68, 0
1, 100617, Note_on_c, 6, 72, 0
1, 100619, Note_on_c, 12, 56, 0
1, 100623, Note_on_c, 6, 56, 0
1, 100631, Note_on_c, 9, 69, 0
1, 100645, Note_on_c, 11, 60, 0
1, 100665, Note_on_c, 7, 63, 0
1, 100666, Note_on_c, 7, 56, 0
1, 100680, Lyric_t, "na "
1, 100680, Note_on_c, 1, 34, 78
1, 100680, Note_on_c, 7, 55, 64
1, 100680, Note_on_c, 3, 75, 105
1, 100680, Note_on_c, 4, 75, 84
1, 100680, Note_on_c, 6, 67, 80
1, 100680, Note_on_c, 9, 36, 80
1, 100680, Note_on_c, 9, 42, 51
1, 100680, Note_on_c, 9, 54, 35
1, 100680, Note_on_c, 9, 70, 51
1, 100680, Note_on_c, 10, 60, 64
1, 100680, Note_on_c, 12, 58, 70
1, 100681, Note_on_c, 10, 58, 0
1, 100690, Note_on_c, 7, 51, 0
1, 100695, Note_on_c, 1, 32, 0
1, 100695, Note_on_c, 9, 54, 0
1, 100703, Note_on_c, 9, 42, 0
1, 100703, Note_on_c, 11, 63, 0
1, 100710, Note_on_c, 3, 74, 0
1, 100710, Note_on_c, 4, 74, 0
1, 100712, Note_on_c, 6, 67, 0
1, 100720, Note_on_c, 9, 36, 0
1, 100722, Note_on_c, 12, 63, 0
1, 100731, Note_on_c, 7, 60, 0
1, 100731, Note_on_c, 12, 60, 0
1, 100732, Note_on_c, 11, 70, 0
1, 100745, Note_on_c, 7, 44, 0
1, 100749, Note_on_c, 5, 56, 0
1, 100752, Control_c, 7, 64, 0
1, 100756, Note_on_c, 12, 58, 0
1, 100759, Control_c, 7, 64, 127
1, 100764, Note_on_c, 9, 70, 0
1, 100765, Note_on_c, 1, 34, 0
1, 100787, Control_c, 7, 64, 0
1, 100800, Note_on_c, 1, 36, 96
1, 100800, Note_on_c, 7, 63, 80
1, 100800, Note_on_c, 7, 60, 70
1, 100800, Note_on_c, 7, 48, 96
1, 100800, Note_on_c, 5, 55, 84
1, 100800, Note_on_c, 6, 60, 82
1, 100800, Note_on_c, 6, 67, 89
1, 100800, Note_on_c, 6, 72, 92
1, 100800, Note_on_c, 6, 75, 89
1, 100800, Note_on_c, 9, 42, 105
1, 100800, Note_on_c, 9, 54, 78
1, 100800, Note_on_c, 9, 36, 102
1, 100800, Note_on_c, 9, 69, 32
1, 100800, Note_on_c, 11, 70, 105
1, 100800, Note_on_c, 11, 63, 90
1, 100800, Note_on_c, 12, 60, 90
1, 100800, Note_on_c, 12, 63, 87
1, 100800, Note_on_c, 12, 55, 108
1, 100800, Note_on_c, 2, 84, 47
1, 100800, Note_on_c, 2, 79, 41
1, 100835, Note_on_c, 3, 75, 0
1, 100835, Note_on_c, 4, 75, 0
1, 100843, Note_on_c, 10, 60, 0
1, 100857, Note_on_c, 6, 72, 0
1, 100857, Note_on_c, 9, 54, 0
1, 100863, Note_on_c, 2, 79, 0
1, 100865, Note_on_c, 9, 42, 0
1, 100870, Note_on_c, 2, 84, 0
1, 100871, Note_on_c, 6, 75, 0
1, 100873, Note_on_c, 6, 60, 0
1, 100873, Note_on_c, 9, 69, 0
1, 100884, Note_on_c, 6, 67, 0
1, 100913, Note_on_c, 7, 55, 0
1, 100919, Note_on_c, 9, 36, 0
1, 100920, Note_on_c, 9, 42, 61
1, 100920, Note_on_c, 9, 70, 41
1, 100920, Note_on_c, 9, 54, 37
1, 100920, Note_on_c, 10, 55, 42
1, 100947, Note_on_c, 9, 42, 0
1, 100947, Note_on_c, 9, 54, 0
1, 100981, Note_on_c, 1, 36, 0
1, 100982, Control_c, 7, 64, 127
1, 101008, Note_on_c, 12, 55, 0
1, 101024, Note_on_c, 10, 55, 0
1, 101027, Note_on_c, 9, 70, 0
1, 101038, Note_on_c, 12, 63, 0
1, 101040, Lyric_t, "na "
1, 101040, Note_on_c, 1, 36, 108
1, 101040, Note_on_c, 7, 55, 66
1, 101040, Note_on_c, 3, 75, 114
1, 101040, Note_on_c, 4, 75, 91
1, 101040, Note_on_c, 6, 72, 95
1, 101040, Note_on_c, 6, 60, 84
1, 101040, Note_on_c, 6, 67, 86
1, 101040, Note_on_c, 6, 75, 89
1, 101040, Note_on_c, 9, 54, 62
1, 101040, Note_on_c, 9, 69, 44
1, 101040, Note_on_c, 9, 46, 93
1, 101040, Note_on_c, 9, 36, 108
1, 101040, Note_on_c, 10, 60, 66
1, 101040, Note_on_c, 11, 67, 90
1, 101040, Note_on_c, 12, 55, 70
1, 101040, Note_on_c, 2, 79, 54
1, 101040, Note_on_c, 2, 84, 59
1, 101062, Note_on_c, 7, 63, 0
1, 101078, Note_on_c, 7, 60, 0
1, 101087, Note_on_c, 6, 72, 0
1, 101088, Note_on_c, 9, 54, 0
1, 101090, Note_on_c, 2, 84, 0
1, 101092, Note_on_c, 2, 79, 0
1, 101094, Note_on_c, 6, 75, 0
1, 101095, Note_on_c, 6, 67, 0
1, 101104, Note_on_c, 6, 60, 0
1, 101111, Note_on_c, 9, 69, 0
1, 101134, Control_c, 7, 64, 0
1, 101140, Control_c, 7, 64, 127
1, 101159, Note_on_c, 9, 46, 0
1, 101159, Note_on_c, 12, 60, 0
1, 101160, Note_on_c, 9, 54, 37
1, 101160, Note_on_c, 9, 70, 51
1, 101166, Note_on_c, 9, 36, 0
1, 101188, Note_on_c, 9, 54, 0
1, 101206, Note_on_c, 12, 55, 0
1, 101220, Note_on_c, 11, 67, 0
1, 101257, Note_on_c, 9, 70, 0
1, 101280, Note_on_c, 7, 63, 90
1, 101280, Note_on_c, 7, 60, 80
1, 101280, Note_on_c, 6, 72, 89
1, 101280, Note_on_c, 6, 75, 92
1, 101280, Note_on_c, 6, 67, 95
1, 101280, Note_on_c, 6, 60, 86
1, 101280, Note_on_c, 9, 38, 114
1, 101280, Note_on_c, 9, 54, 102
1, 101280, Note_on_c, 9, 42, 96
1, 101280, Note_on_c, 9, 69, 33
1, 101280, Note_on_c, 11, 67, 93
1, 101280, Note_on_c, 11, 75, 105
1, 101280, Note_on_c, 12, 60, 76
1, 101280, Note_on_c, 12, 55, 90
1, 101280, Note_on_c, 12, 63, 99
1, 101280, Note_on_c, 2, 79, 47
1, 101280, Note_on_c, 2, 84, 57
1, 101292, Note_on_c, 11, 63, 0
1, 101317, Note_on_c, 7, 55, 0
1, 101329, Note_on_c, 2, 84, 0
1, 101331, Note_on_c, 2, 79, 0
1, 101337, Note_on_c, 6, 75, 0
1, 101338, Note_on_c, 6, 72, 0
1, 101339, Note_on_c, 9, 54, 0
1, 101345, Note_on_c, 6, 67, 0
1, 101345, Note_on_c, 6, 60, 0
1, 101352, Note_on_c, 9, 42, 0
1, 101360, Note_on_c, 9, 69, 0
1, 101400, Note_on_c, 9, 70, 43
1, 101400, Note_on_c, 9, 54, 37
1, 101400, Note_on_c, 9, 42, 39
1, 101427, Note_on_c, 9, 54, 0
1, 101437, Note_on_c, 9, 42, 0
1, 101449, Note_on_c, 3, 75, 0
1, 101449, Note_on_c, 4, 75, 0
1, 101454, Note_on_c, 11, 67, 0
1, 101459, Note_on_c, 12, 55, 0
1, 101476, Note_on_c, 9, 38, 0
1, 101486, Note_on_c, 9, 70, 0
1, 101493, Note_on_c, 1, 36, 0
1, 101520, Lyric_t, "na. "
1, 101520, Lyric_t, "\015"
1, 101520, Note_on_c, 1, 36, 108
1, 101520, Note_on_c, 7, 55, 84
1, 101520, Note_on_c, 3, 75, 111
1, 101520, Note_on_c, 4, 75, 87
1, 101520, Note_on_c, 6, 60, 86
1, 101520, Note_on_c, 6, 67, 95
1, 101520, Note_on_c, 6, 72, 92
1, 101520, Note_on_c, 6, 75, 95
1, 101520, Note_on_c, 9, 36, 84
1, 101520, Note_on_c, 9, 69, 48
1, 101520, Note_on_c, 9, 42, 87
1, 101520, Note_on_c, 9, 54, 62
1, 101520, Note_on_c, 11, 67, 72
1, 101520, Note_on_c, 12, 55, 74
1, 101520, Note_on_c, 2, 79, 48
1, 101520, Note_on_c, 2, 84, 54
1, 101540, Control_c, 7, 64, 0
1, 101543, Note_on_c, 12, 63, 0
1, 101545, Control_c, 7, 64, 127
1, 101560, Note_on_c, 9, 36, 0
1, 101562, Note_on_c, 2, 84, 0
1, 101569, Note_on_c, 9, 54, 0
1, 101570, Note_on_c, 2, 79, 0
1, 101573, Control_c, 7, 64, 0
1, 101577, Note_on_c, 6, 67, 0
1, 101579, Note_on_c, 9, 42, 0
1, 101583, Note_on_c, 9, 69, 0
1, 101586, Note_on_c, 6, 60, 0
1, 101586, Note_on_c, 6, 75, 0
1, 101587, Note_on_c, 6, 72, 0
1, 101591, Note_on_c, 12, 60, 0
1, 101599, Note_on_c, 10, 60, 0
1, 101604, Note_on_c, 7, 63, 0
1, 101628, Note_on_c, 5, 55, 0
1, 101640, Note_on_c, 9, 54, 50
1, 101640, Note_on_c, 9, 70, 56
1, 101640, Note_on_c, 9, 42, 55
1, 101640, Note_on_c, 12, 63, 59
1, 101640, Note_on_c, 12, 60, 59
1, 101655, Note_on_c, 5, 51, 0
1, 101664, Note_on_c, 9, 54, 0
1, 101666, Note_on_c, 9, 42, 0
1, 101672, Note_on_c, 7, 60, 0
1, 101678, Note_on_c, 7, 48, 0
1, 101685, Note_on_c, 11, 75, 0
1, 101701, Note_on_c, 12, 63, 0
1, 101703, Note_on_c, 12, 55, 0
1, 101707, Note_on_c, 11, 70, 0
1, 101719, Note_on_c, 11, 67, 0
1, 101726, Note_on_c, 7, 55, 0
1, 101737, Note_on_c, 12, 60, 0
1, 101750, Note_on_c, 9, 70, 0
1, 101759, Note_on_c, 11, 60, 90
1, 101760, Note_on_c, 1, 41, 108
1, 101760, Note_on_c, 7, 63, 78
1, 101760, Note_on_c, 7, 60, 76
1, 101760, Note_on_c, 7, 56, 62
1, 101760, Note_on_c, 7, 53, 59
1, 101760, Note_on_c, 3, 77, 105
1, 101760, Note_on_c, 4, 77, 82
1, 101760, Note_on_c, 5, 56, 93
1, 101760, Note_on_c, 5, 65, 105
1, 101760, Note_on_c, 5, 53, 99
1, 101760, Note_on_c, 6, 72, 80
1, 101760, Note_on_c, 6, 75, 111
1, 101760, Note_on_c, 6, 58, 104
1, 101760, Note_on_c, 9, 42, 108
1, 101760, Note_on_c, 9, 69, 51
1, 101760, Note_on_c, 9, 54, 82
1, 101760, Note_on_c, 9, 36, 120
1, 101760, Note_on_c, 10, 53, 66
1, 101760, Note_on_c, 11, 63, 99
1, 101760, Note_on_c, 12, 53, 78
1, 101760, Note_on_c, 12, 63, 96
1, 101760, Note_on_c, 12, 60, 90
1, 101760, Note_on_c, 2, 75, 48
1, 101761, Note_on_c, 11, 68, 93
1, 101765, Note_on_c, 4, 75, 0
1, 101773, Note_on_c, 1, 36, 0
1, 101791, Note_on_c, 3, 75, 0
1, 101820, Note_on_c, 9, 42, 0
1, 101822, Note_on_c, 9, 54, 0
1, 101840, Note_on_c, 9, 69, 0
1, 101850, Control_c, 7, 64, 127
1, 101852, Note_on_c, 6, 58, 0
1, 101880, Note_on_c, 6, 77, 89
1, 101880, Note_on_c, 6, 74, 86
1, 101880, Note_on_c, 6, 58, 89
1, 101880, Note_on_c, 9, 54, 41
1, 101880, Note_on_c, 9, 70, 54
1, 101880, Note_on_c, 2, 77, 58
1, 101892, Note_on_c, 2, 75, 0
1, 101898, Note_on_c, 6, 75, 0
1, 101910, Note_on_c, 7, 53, 0
1, 101912, Note_on_c, 6, 72, 0
1, 101914, Note_on_c, 9, 54, 0
1, 101919, Note_on_c, 7, 56, 0
1, 101929, Note_on_c, 7, 63, 0
1, 101941, Note_on_c, 7, 60, 0
1, 101952, Note_on_c, 6, 74, 0
1, 101952, Note_on_c, 9, 36, 0
1, 101964, Note_on_c, 6, 77, 0
1, 101966, Note_on_c, 6, 58, 0
1, 101973, Note_on_c, 9, 70, 0
1, 101974, Note_on_c, 1, 41, 0
1, 102000, Note_on_c, 1, 41, 84
1, 102000, Note_on_c, 7, 63, 55
1, 102000, Note_on_c, 7, 60, 40
1, 102000, Note_on_c, 7, 53, 26
1, 102000, Note_on_c, 7, 56, 52
1, 102000, Note_on_c, 6, 58, 80
1, 102000, Note_on_c, 6, 77, 98
1, 102000, Note_on_c, 6, 74, 92
1, 102000, Note_on_c, 9, 42, 74
1, 102000, Note_on_c, 9, 69, 44
1, 102000, Note_on_c, 9, 54, 61
1, 102054, Note_on_c, 9, 42, 0
1, 102054, Note_on_c, 9, 54, 0
1, 102073, Note_on_c, 9, 69, 0
1, 102083, Note_on_c, 6, 58, 0
1, 102083, Note_on_c, 12, 53, 0
1, 102109, Note_on_c, 12, 63, 0
1, 102110, Note_on_c, 7, 53, 0
1, 102120, Note_on_c, 6, 58, 89
1, 102120, Note_on_c, 6, 75, 95
1, 102120, Note_on_c, 6, 72, 82
1, 102120, Note_on_c, 9, 70, 56
1, 102120, Note_on_c, 9, 42, 72
1, 102120, Note_on_c, 9, 54, 43
1, 102120, Note_on_c, 12, 53, 66
1, 102125, Note_on_c, 7, 56, 0
1, 102132, Note_on_c, 7, 63, 0
1, 102132, Note_on_c, 7, 60, 0
1, 102147, Note_on_c, 6, 77, 0
1, 102149, Note_on_c, 9, 54, 0
1, 102151, Note_on_c, 6, 74, 0
1, 102155, Note_on_c, 9, 42, 0
1, 102168, Note_on_c, 2, 77, 0
1, 102184, Note_on_c, 11, 60, 0
1, 102185, Note_on_c, 12, 53, 0
1, 102192, Note_on_c, 11, 68, 0
1, 102195, Note_on_c, 1, 41, 0
1, 102195, Note_on_c, 11, 63, 0
1, 102202, Note_on_c, 6, 72, 0
1, 102205, Note_on_c, 6, 75, 0
1, 102205, Note_on_c, 12, 60, 0
1, 102218, Note_on_c, 6, 58, 0
1, 102222, Note_on_c, 9, 70, 0
1, 102240, Note_on_c, 1, 41, 93
1, 102240, Note_on_c, 7, 56, 74
1, 102240, Note_on_c, 7, 53, 68
1, 102240, Note_on_c, 7, 63, 72
1, 102240, Note_on_c, 7, 60, 74
1, 102240, Note_on_c, 6, 58, 95
1, 102240, Note_on_c, 6, 75, 92
1, 102240, Note_on_c, 6, 72, 101
1, 102240, Note_on_c, 9, 54, 105
1, 102240, Note_on_c, 9, 69, 32
1, 102240, Note_on_c, 9, 38, 114
1, 102240, Note_on_c, 9, 42, 93
1, 102240, Note_on_c, 11, 60, 96
1, 102240, Note_on_c, 11, 68, 96
1, 102240, Note_on_c, 11, 63, 93
1, 102240, Note_on_c, 12, 60, 74
1, 102240, Note_on_c, 12, 53, 99
1, 102240, Note_on_c, 12, 63, 102
1, 102240, Note_on_c, 2, 75, 43
1, 102301, Note_on_c, 9, 42, 0
1, 102303, Note_on_c, 9, 54, 0
1, 102319, Note_on_c, 9, 69, 0
1, 102360, Note_on_c, 9, 70, 53
1, 102360, Note_on_c, 9, 42, 18
1, 102360, Note_on_c, 9, 54, 41
1, 102388, Note_on_c, 9, 54, 0
1, 102396, Note_on_c, 9, 42, 0
1, 102413, Note_on_c, 7, 56, 0
1, 102414, Note_on_c, 7, 53, 0
1, 102420, Note_on_c, 7, 63, 0
1, 102427, Note_on_c, 1, 41, 0
1, 102427, Note_on_c, 6, 58, 0
1, 102429, Note_on_c, 7, 60, 0
1, 102448, Note_on_c, 9, 70, 0
1, 102451, Note_on_c, 11, 63, 0
1, 102456, Note_on_c, 11, 60, 0
1, 102461, Note_on_c, 9, 38, 0
1, 102480, Note_on_c, 1, 41, 105
1, 102480, Note_on_c, 7, 53, 59
1, 102480, Note_on_c, 7, 63, 66
1, 102480, Note_on_c, 7, 60, 49
1, 102480, Note_on_c, 7, 56, 66
1, 102480, Note_on_c, 6, 58, 82
1, 102480, Note_on_c, 6, 70, 86
1, 102480, Note_on_c, 6, 74, 89
1, 102480, Note_on_c, 9, 54, 52
1, 102480, Note_on_c, 9, 42, 82
1, 102480, Note_on_c, 9, 69, 45
1, 102480, Note_on_c, 11, 63, 72
1, 102480, Note_on_c, 11, 60, 74
1, 102480, Note_on_c, 2, 74, 61
1, 102492, Note_on_c, 6, 72, 0
1, 102511, Note_on_c, 6, 75, 0
1, 102530, Note_on_c, 9, 54, 0
1, 102531, Note_on_c, 9, 42, 0
1, 102534, Note_on_c, 2, 75, 0
1, 102547, Note_on_c, 7, 56, 0
1, 102549, Note_on_c, 11, 60, 0
1, 102551, Note_on_c, 9, 69, 0
1, 102552, Note_on_c, 7, 63, 0
1, 102552, Note_on_c, 12, 53, 0
1, 102567, Note_on_c, 7, 60, 0
1, 102585, Note_on_c, 7, 53, 0
1, 102600, Note_on_c, 6, 60, 84
1, 102600, Note_on_c, 6, 72, 89
1, 102600, Note_on_c, 6, 75, 89
1, 102600, Note_on_c, 9, 54, 36
1, 102600, Note_on_c, 9, 70, 51
1, 102600, Note_on_c, 9, 42, 55
1, 102600, Note_on_c, 11, 60, 74
1, 102600, Note_on_c, 12, 53, 84
1, 102600, Note_on_c, 2, 75, 52
1, 102602, Note_on_c, 5, 56, 0
1, 102621, Note_on_c, 6, 74, 0
1, 102627, Note_on_c, 9, 42, 0
1, 102628, Note_on_c, 9, 54, 0
1, 102629, Note_on_c, 2, 74, 0
1, 102638, Note_on_c, 6, 58, 0
1, 102649, Note_on_c, 6, 70, 0
1, 102652, Note_on_c, 12, 63, 0
1, 102666, Note_on_c, 11, 63, 0
1, 102681, Note_on_c, 12, 60, 0
1, 102684, Note_on_c, 9, 70, 0
1, 102686, Note_on_c, 11, 68, 0
1, 102687, Note_on_c, 12, 53, 0
1, 102688, Control_c, 7, 64, 0
1, 102691, Note_on_c, 11, 60, 0
1, 102707, Note_on_c, 1, 41, 0
1, 102720, Note_on_c, 1, 38, 102
1, 102720, Note_on_c, 7, 62, 84
1, 102720, Note_on_c, 7, 50, 72
1, 102720, Note_on_c, 7, 53, 78
1, 102720, Note_on_c, 7, 58, 87
1, 102720, Note_on_c, 5, 62, 87
1, 102720, Note_on_c, 5, 58, 90
1, 102720, Note_on_c, 6, 58, 95
1, 102720, Note_on_c, 6, 77, 82
1, 102720, Note_on_c, 6, 74, 104
1, 102720, Note_on_c, 9, 54, 80
1, 102720, Note_on_c, 9, 46, 84
1, 102720, Note_on_c, 9, 36, 114
1, 102720, Note_on_c, 9, 69, 32
1, 102720, Note_on_c, 10, 58, 76
1, 102720, Note_on_c, 11, 70, 105
1, 102720, Note_on_c, 11, 62, 100
1, 102720, Note_on_c, 12, 62, 99
1, 102720, Note_on_c, 12, 53, 90
1, 102720, Note_on_c, 12, 58, 93
1, 102720, Note_on_c, 2, 77, 61
1, 102721, Note_on_c, 11, 65, 93
1, 102727, Note_on_c, 10, 53, 0
1, 102743, Note_on_c, 5, 65, 0
1, 102746, Note_on_c, 6, 60, 0
1, 102749, Note_on_c, 5, 60, 0
1, 102749, Note_on_c, 2, 75, 0
1, 102765, Note_on_c, 6, 75, 0
1, 102767, Note_on_c, 6, 72, 0
1, 102785, Note_on_c, 9, 54, 0
1, 102793, Note_on_c, 9, 69, 0
1, 102821, Note_on_c, 9, 46, 0
1, 102826, Control_c, 7, 64, 127
1, 102840, Note_on_c, 9, 54, 40
1, 102840, Note_on_c, 9, 70, 41
1, 102845, Note_on_c, 9, 36, 0
1, 102871, Note_on_c, 9, 54, 0
1, 102939, Note_on_c, 7, 50, 0
1, 102942, Note_on_c, 7, 58, 0
1, 102942, Note_on_c, 11, 62, 0
1, 102947, Note_on_c, 9, 70, 0
1, 102951, Note_on_c, 11, 70, 0
1, 102957, Note_on_c, 7, 53, 0
1, 102959, Note_on_c, 11, 62, 72
1, 102959, Note_on_c, 11, 70, 51
1, 102960, Note_on_c, 1, 34, 105
1, 102960, Note_on_c, 7, 46, 74
1, 102960, Note_on_c, 7, 58, 61
1, 102960, Note_on_c, 7, 53, 28
1, 102960, Note_on_c, 9, 42, 80
1, 102960, Note_on_c, 9, 69, 44
1, 102960, Note_on_c, 9, 54, 58
1, 102960, Note_on_c, 9, 38, 93
1, 102961, Note_on_c, 1, 38, 0
1, 103007, Note_on_c, 9, 38, 0
1, 103018, Note_on_c, 9, 54, 0
1, 103031, Note_on_c, 9, 69, 0
1, 103033, Note_on_c, 12, 62, 0
1, 103044, Note_on_c, 9, 42, 0
1, 103054, Control_c, 6, 11, 124
1, 103072, Control_c, 6, 11, 123
1, 103080, Note_on_c, 9, 42, 76
1, 103080, Note_on_c, 9, 54, 37
1, 103080, Note_on_c, 9, 70, 51
1, 103080, Note_on_c, 9, 38, 99
1, 103084, Control_c, 6, 11, 122
1, 103096, Control_c, 6, 11, 121
1, 103107, Note_on_c, 9, 54, 0
1, 103111, Note_on_c, 9, 42, 0
1, 103115, Control_c, 6, 11, 120
1, 103127, Control_c, 6, 11, 119
1, 103129, Note_on_c, 9, 38, 0
1, 103135, Note_on_c, 12, 53, 0
1, 103139, Control_c, 6, 11, 118
1, 103142, Note_on_c, 7, 58, 0
1, 103146, Note_on_c, 11, 70, 0
1, 103151, Note_on_c, 7, 53, 0
1, 103152, Note_on_c, 11, 62, 0
1, 103153, Note_on_c, 3, 77, 0
1, 103157, Control_c, 6, 11, 117
1, 103157, Note_on_c, 12, 58, 0
1, 103165, Note_on_c, 1, 34, 0
1, 103169, Control_c, 6, 11, 116
1, 103175, Note_on_c, 11, 65, 0
1, 103177, Note_on_c, 9, 70, 0
1, 103181, Control_c, 6, 11, 115
1, 103194, Control_c, 6, 11, 114
1, 103198, Note_on_c, 4, 77, 0
1, 103200, Note_on_c, 1, 34, 93
1, 103200, Note_on_c, 7, 58, 72
1, 103200, Note_on_c, 7, 53, 54
1, 103200, Note_on_c, 9, 54, 105
1, 103200, Note_on_c, 9, 69, 33
1, 103200, Note_on_c, 9, 42, 96
1, 103200, Note_on_c, 9, 38, 114
1, 103200, Note_on_c, 11, 70, 93
1, 103200, Note_on_c, 11, 62, 99
1, 103200, Note_on_c, 12, 62, 99
1, 103200, Note_on_c, 12, 53, 102
1, 103200, Note_on_c, 12, 58, 87
1, 103201, Note_on_c, 11, 65, 102
1, 103212, Control_c, 6, 11, 113
1, 103224, Control_c, 6, 11, 112
1, 103236, Control_c, 6, 11, 111
1, 103248, Note_on_c, 9, 42, 0
1, 103254, Control_c, 6, 11, 110
1, 103264, Note_on_c, 9, 38, 0
1, 103265, Note_on_c, 9, 54, 0
1, 103267, Control_c, 6, 11, 109
1, 103279, Control_c, 6, 11, 108
1, 103280, Note_on_c, 9, 69, 0
1, 103297, Control_c, 6, 11, 107
1, 103309, Control_c, 6, 11, 106
1, 103320, Note_on_c, 9, 54, 35
1, 103320, Note_on_c, 9, 47, 87
1, 103320, Note_on_c, 9, 70, 43
1, 103321, Control_c, 6, 11, 105
1, 103333, Control_c, 6, 11, 104
1, 103346, Note_on_c, 9, 54, 0
1, 103349, Note_on_c, 7, 58, 0
1, 103352, Control_c, 6, 11, 103
1, 103364, Control_c, 6, 11, 102
1, 103376, Control_c, 6, 11, 101
1, 103393, Note_on_c, 7, 53, 0
1, 103394, Control_c, 6, 11, 100
1, 103397, Note_on_c, 9, 47, 0
1, 103402, Note_on_c, 11, 62, 0
1, 103403, Note_on_c, 11, 70, 0
1, 103406, Control_c, 6, 11, 99
1, 103406, Note_on_c, 9, 70, 0
1, 103418, Control_c, 6, 11, 98
1, 103418, Note_on_c, 12, 53, 0
1, 103420, Note_on_c, 12, 58, 0
1, 103425, Note_on_c, 1, 34, 0
1, 103437, Control_c, 6, 11, 97
1, 103440, Note_on_c, 1, 41, 82
1, 103440, Note_on_c, 7, 58, 78
1, 103440, Note_on_c, 9, 42, 87
1, 103440, Note_on_c, 9, 54, 61
1, 103440, Note_on_c, 9, 69, 48
1, 103440, Note_on_c, 9, 45, 66
1, 103440, Note_on_c, 11, 70, 78
1, 103440, Note_on_c, 11, 62, 72
1, 103440, Note_on_c, 12, 58, 55
1, 103440, Note_on_c, 12, 53, 64
1, 103447, Control_c, 7, 64, 0
1, 103449, Control_c, 6, 11, 96
1, 103461, Control_c, 6, 11, 95
1, 103473, Control_c, 6, 11, 94
1, 103491, Control_c, 6, 11, 93
1, 103495, Note_on_c, 9, 54, 0
1, 103495, Note_on_c, 12, 53, 0
1, 103496, Note_on_c, 9, 42, 0
1, 103503, Control_c, 6, 11, 92
1, 103503, Note_on_c, 9, 69, 0
1, 103503, Note_on_c, 11, 62, 0
1, 103516, Control_c, 6, 11, 91
1, 103519, Note_on_c, 12, 58, 0
1, 103527, Note_on_c, 12, 62, 0
1, 103529, Note_on_c, 11, 70, 0
1, 103531, Note_on_c, 9, 45, 0
1, 103534, Control_c, 6, 11, 90
1, 103546, Control_c, 6, 11, 89
1, 103554, Note_on_c, 1, 41, 0
1, 103558, Control_c, 6, 11, 88
1, 103560, Note_on_c, 1, 34, 84
1, 103560, Note_on_c, 7, 53, 57
1, 103560, Note_on_c, 9, 54, 37
1, 103560, Note_on_c, 9, 43, 62
1, 103560, Note_on_c, 9, 70, 56
1, 103560, Note_on_c, 11, 62, 90
1, 103560, Note_on_c, 11, 70, 90
1, 103560, Note_on_c, 12, 58, 76
1, 103560, Note_on_c, 12, 53, 80
1, 103560, Note_on_c, 12, 62, 99
1, 103576, Note_on_c, 7, 58, 0
1, 103576, Control_c, 6, 11, 87
1, 103587, Note_on_c, 9, 54, 0
1, 103589, Control_c, 6, 11, 86
1, 103601, Control_c, 6, 11, 85
1, 103607, Note_on_c, 10, 58, 0
1, 103613, Control_c, 6, 11, 84
1, 103616, Note_on_c, 11, 65, 0
1, 103618, Note_on_c, 9, 43, 0
1, 103619, Note_on_c, 11, 62, 0
1, 103619, Note_on_c, 11, 70, 0
1, 103640, Note_on_c, 12, 62, 0
1, 103641, Note_on_c, 12, 53, 0
1, 103649, Note_on_c, 7, 62, 0
1, 103650, Note_on_c, 6, 58, 0
1, 103652, Note_on_c, 12, 58, 0
1, 103653, Note_on_c, 7, 46, 0
1, 103659, Note_on_c, 6, 77, 0
1, 103659, Note_on_c, 6, 74, 0
1, 103662, Note_on_c, 2, 77, 0
1, 103668, Control_c, 6, 11, 127
1, 103670, Note_on_c, 9, 70, 0
1, 103680, Note_on_c, 1, 32, 111
1, 103680, Note_on_c, 7, 51, 90
1, 103680, Note_on_c, 7, 56, 76
1, 103680, Note_on_c, 7, 44, 90
1, 103680, Note_on_c, 7, 60, 82
1, 103680, Note_on_c, 7, 63, 84
1, 103680, Note_on_c, 5, 60, 83
1, 103680, Note_on_c, 5, 63, 78
1, 103680, Note_on_c, 5, 56, 75
1, 103680, Note_on_c, 5, 51, 57
1, 103680, Note_on_c, 6, 68, 93
1, 103680, Note_on_c, 6, 72, 93
1, 103680, Note_on_c, 6, 84, 52
1, 103680, Note_on_c, 8, 63, 84
1, 103680, Note_on_c, 9, 49, 90
1, 103680, Note_on_c, 9, 54, 86
1, 103680, Note_on_c, 9, 69, 51
1, 103680, Note_on_c, 9, 36, 117
1, 103680, Note_on_c, 12, 60, 90
1, 103680, Note_on_c, 12, 56, 99
1, 103680, Note_on_c, 12, 63, 90
1, 103680, Note_on_c, 2, 75, 68
1, 103680, Note_on_c, 2, 72, 64
1, 103680, Note_on_c, 13, 63, 84
1, 103681, Note_on_c, 7, 53, 0
1, 103694, Note_on_c, 1, 34, 0
1, 103720, Control_c, 7, 64, 127
1, 103720, Note_on_c, 5, 62, 0
1, 103722, Note_on_c, 5, 58, 0
1, 103724, Note_on_c, 5, 53, 0
1, 103731, Note_on_c, 9, 54, 0
1, 103734, Note_on_c, 9, 49, 0
1, 103760, Note_on_c, 9, 69, 0
1, 103800, Note_on_c, 9, 54, 23
1, 103800, Note_on_c, 9, 70, 54
1, 103800, Note_on_c, 9, 42, 59
1, 103830, Note_on_c, 9, 42, 0
1, 103834, Note_on_c, 9, 54, 0
1, 103866, Note_on_c, 7, 63, 0
1, 103893, Note_on_c, 9, 70, 0
1, 103920, Lyric_t, "You're "
1, 103920, Note_on_c, 7, 63, 82
1, 103920, Note_on_c, 3, 75, 111
1, 103920, Note_on_c, 9, 54, 45
1, 103920, Note_on_c, 9, 69, 44
1, 103920, Note_on_c, 9, 42, 55
1, 103920, Note_on_c, 11, 63, 84
1, 103920, Note_on_c, 11, 60, 87
1, 103920, Note_on_c, 11, 70, 96
1, 103920, Note_on_c, 12, 56, 31
1, 103966, Note_on_c, 9, 42, 0
1, 103979, Note_on_c, 9, 54, 0
1, 103993, Note_on_c, 9, 69, 0
1, 104029, Note_on_c, 9, 36, 0
1, 104033, Note_on_c, 12, 56, 0
1, 104040, Note_on_c, 9, 54, 37
1, 104040, Note_on_c, 9, 42, 43
1, 104040, Note_on_c, 9, 70, 56
1, 104065, Note_on_c, 9, 42, 0
1, 104084, Note_on_c, 9, 54, 0
1, 104085, Note_on_c, 7, 51, 0
1, 104142, Note_on_c, 9, 70, 0
1, 104145, Note_on_c, 3, 75, 0
1, 104152, Note_on_c, 12, 60, 0
1, 104152, Note_on_c, 12, 56, 0
1, 104152, Note_on_c, 12, 63, 0
1, 104160, Lyric_t, "beau"
1, 104160, Note_on_c, 3, 82, 105
1, 104160, Note_on_c, 9, 54, 89
1, 104160, Note_on_c, 9, 69, 32
1, 104160, Note_on_c, 9, 38, 114
1, 104160, Note_on_c, 9, 42, 90
1, 104160, Note_on_c, 12, 56, 99
1, 104160, Note_on_c, 12, 63, 96
1, 104216, Note_on_c, 9, 54, 0
1, 104231, Note_on_c, 9, 42, 0
1, 104239, Note_on_c, 9, 69, 0
1, 104273, Note_on_c, 11, 70, 0
1, 104280, Lyric_t, "ti"
1, 104280, Note_on_c, 3, 79, 96
1, 104280, Note_on_c, 9, 70, 53
1, 104280, Note_on_c, 9, 54, 27
1, 104280, Note_on_c, 9, 42, 54
1, 104280, Note_on_c, 11, 70, 66
1, 104290, Note_on_c, 7, 56, 0
1, 104316, Note_on_c, 9, 42, 0
1, 104321, Note_on_c, 3, 82, 0
1, 104324, Note_on_c, 9, 54, 0
1, 104341, Note_on_c, 11, 70, 0
1, 104343, Note_on_c, 11, 60, 0
1, 104355, Note_on_c, 11, 63, 0
1, 104368, Note_on_c, 9, 70, 0
1, 104400, Note_on_c, 7, 51, 47
1, 104400, Note_on_c, 7, 56, 62
1, 104400, Note_on_c, 9, 54, 66
1, 104400, Note_on_c, 9, 69, 45
1, 104400, Note_on_c, 9, 42, 76
1, 104400, Note_on_c, 11, 63, 76
1, 104400, Note_on_c, 11, 60, 68
1, 104400, Note_on_c, 11, 70, 84
1, 104428, Note_on_c, 3, 79, 0
1, 104434, Note_on_c, 1, 32, 0
1, 104445, Note_on_c, 9, 38, 0
1, 104461, Note_on_c, 9, 54, 0
1, 104463, Note_on_c, 9, 42, 0
1, 104466, Note_on_c, 11, 60, 0
1, 104469, Note_on_c, 7, 51, 0
1, 104471, Note_on_c, 9, 69, 0
1, 104475, Note_on_c, 11, 63, 0
1, 104483, Note_on_c, 7, 56, 0
1, 104486, Note_on_c, 11, 70, 0
1, 104488, Note_on_c, 7, 44, 0
1, 104520, Lyric_t, "ful "
1, 104520, Lyric_t, "\015"
1, 104520, Note_on_c, 1, 32, 74
1, 104520, Note_on_c, 3, 79, 105
1, 104520, Note_on_c, 9, 42, 49
1, 104520, Note_on_c, 9, 70, 51
1, 104520, Note_on_c, 9, 54, 37
1, 104520, Note_on_c, 12, 56, 57
1, 104547, Note_on_c, 5, 56, 0
1, 104551, Note_on_c, 9, 42, 0
1, 104557, Note_on_c, 9, 54, 0
1, 104581, Note_on_c, 6, 72, 0
1, 104588, Note_on_c, 1, 32, 0
1, 104598, Note_on_c, 7, 63, 0
1, 104604, Note_on_c, 7, 60, 0
1, 104604, Note_on_c, 9, 70, 0
1, 104605, Note_on_c, 2, 75, 0
1, 104610, Note_on_c, 2, 72, 0
1, 104619, Note_on_c, 5, 51, 0
1, 104626, Control_c, 7, 64, 0
1, 104631, Control_c, 7, 64, 127
1, 104640, Note_on_c, 1, 34, 87
1, 104640, Note_on_c, 7, 58, 68
1, 104640, Note_on_c, 7, 65, 61
1, 104640, Note_on_c, 7, 46, 90
1, 104640, Note_on_c, 7, 62, 82
1, 104640, Note_on_c, 3, 75, 105
1, 104640, Note_on_c, 5, 63, 0
1, 104640, Note_on_c, 5, 65, 78
1, 104640, Note_on_c, 5, 58, 68
1, 104640, Note_on_c, 5, 62, 83
1, 104640, Note_on_c, 5, 53, 55
1, 104640, Note_on_c, 6, 74, 80
1, 104640, Note_on_c, 6, 70, 84
1, 104640, Note_on_c, 6, 86, 62
1, 104640, Note_on_c, 9, 54, 75
1, 104640, Note_on_c, 9, 36, 105
1, 104640, Note_on_c, 9, 69, 32
1, 104640, Note_on_c, 9, 42, 102
1, 104640, Note_on_c, 11, 62, 78
1, 104640, Note_on_c, 11, 65, 70
1, 104640, Note_on_c, 11, 70, 82
1, 104640, Note_on_c, 2, 77, 50
1, 104640, Note_on_c, 2, 74, 47
1, 104649, Note_on_c, 5, 60, 0
1, 104658, Control_c, 7, 64, 0
1, 104669, Note_on_c, 6, 84, 0
1, 104670, Note_on_c, 12, 56, 0
1, 104674, Note_on_c, 6, 68, 0
1, 104698, Note_on_c, 9, 42, 0
1, 104704, Note_on_c, 9, 54, 0
1, 104712, Note_on_c, 3, 79, 0
1, 104713, Note_on_c, 9, 69, 0
1, 104725, Note_on_c, 8, 63, 0
1, 104725, Note_on_c, 13, 63, 0
1, 104751, Note_on_c, 12, 56, 0
1, 104751, Note_on_c, 12, 63, 0
1, 104760, Note_on_c, 9, 42, 44
1, 104760, Note_on_c, 9, 70, 41
1, 104760, Note_on_c, 9, 54, 40
1, 104760, Note_on_c, 12, 58, 80
1, 104760, Note_on_c, 12, 62, 87
1, 104760, Note_on_c, 12, 65, 87
1, 104776, Control_c, 7, 64, 127
1, 104782, Note_on_c, 9, 36, 0
1, 104787, Note_on_c, 9, 42, 0
1, 104807, Note_on_c, 9, 54, 0
1, 104812, Note_on_c, 7, 65, 0
1, 104818, Note_on_c, 7, 58, 0
1, 104854, Note_on_c, 11, 62, 0
1, 104855, Note_on_c, 7, 62, 0
1, 104857, Note_on_c, 1, 34, 0
1, 104863, Note_on_c, 3, 75, 0
1, 104867, Note_on_c, 9, 70, 0
1, 104879, Note_on_c, 11, 70, 0
1, 104880, Note_on_c, 1, 34, 99
1, 104880, Note_on_c, 7, 58, 76
1, 104880, Note_on_c, 7, 65, 84
1, 104880, Note_on_c, 7, 62, 87
1, 104880, Note_on_c, 9, 69, 44
1, 104880, Note_on_c, 9, 42, 74
1, 104880, Note_on_c, 9, 36, 111
1, 104880, Note_on_c, 9, 54, 70
1, 104880, Note_on_c, 11, 72, 102
1, 104880, Note_on_c, 11, 62, 99
1, 104880, Note_on_c, 12, 58, 61
1, 104940, Note_on_c, 9, 42, 0
1, 104947, Note_on_c, 9, 54, 0
1, 104951, Note_on_c, 9, 69, 0
1, 105000, Note_on_c, 9, 42, 40
1, 105000, Note_on_c, 9, 54, 33
1, 105000, Note_on_c, 9, 70, 51
1, 105034, Note_on_c, 12, 58, 0
1, 105037, Note_on_c, 9, 42, 0
1, 105042, Note_on_c, 9, 54, 0
1, 105074, Note_on_c, 9, 36, 0
1, 105097, Note_on_c, 9, 70, 0
1, 105113, Note_on_c, 12, 58, 0
1, 105113, Note_on_c, 12, 62, 0
1, 105113, Note_on_c, 12, 65, 0
1, 105120, Note_on_c, 9, 69, 33
1, 105120, Note_on_c, 9, 38, 108
1, 105120, Note_on_c, 9, 54, 66
1, 105120, Note_on_c, 9, 42, 93
1, 105120, Note_on_c, 12, 62, 90
1, 105120, Note_on_c, 12, 65, 87
1, 105120, Note_on_c, 12, 58, 105
1, 105183, Note_on_c, 9, 42, 0
1, 105190, Note_on_c, 9, 54, 0
1, 105200, Note_on_c, 9, 69, 0
1, 105218, Note_on_c, 11, 62, 0
1, 105226, Note_on_c, 7, 65, 0
1, 105240, Note_on_c, 7, 63, 64
1, 105240, Note_on_c, 9, 54, 28
1, 105240, Note_on_c, 9, 70, 43
1, 105240, Note_on_c, 9, 42, 43
1, 105240, Note_on_c, 11, 70, 93
1, 105240, Note_on_c, 11, 62, 96
1, 105256, Note_on_c, 11, 72, 0
1, 105267, Note_on_c, 9, 54, 0
1, 105273, Note_on_c, 9, 42, 0
1, 105291, Note_on_c, 7, 58, 0
1, 105314, Note_on_c, 9, 38, 0
1, 105322, Note_on_c, 7, 62, 0
1, 105326, Note_on_c, 9, 70, 0
1, 105348, Note_on_c, 7, 63, 0
1, 105354, Note_on_c, 1, 34, 0
1, 105360, Note_on_c, 1, 38, 102
1, 105360, Note_on_c, 7, 62, 54
1, 105360, Note_on_c, 7, 65, 93
1, 105360, Note_on_c, 7, 58, 76
1, 105360, Note_on_c, 9, 69, 48
1, 105360, Note_on_c, 9, 54, 78
1, 105360, Note_on_c, 9, 42, 84
1, 105405, Note_on_c, 9, 42, 0
1, 105423, Note_on_c, 9, 69, 0
1, 105423, Note_on_c, 9, 54, 0
1, 105473, Note_on_c, 12, 62, 0
1, 105473, Note_on_c, 12, 65, 0
1, 105473, Note_on_c, 12, 58, 0
1, 105480, Note_on_c, 9, 54, 18
1, 105480, Note_on_c, 9, 42, 52
1, 105480, Note_on_c, 9, 70, 56
1, 105480, Note_on_c, 12, 58, 52
1, 105480, Note_on_c, 12, 62, 57
1, 105480, Note_on_c, 12, 65, 48
1, 105494, Control_c, 7, 64, 0
1, 105500, Note_on_c, 6, 74, 0
1, 105508, Note_on_c, 9, 42, 0
1, 105519, Note_on_c, 9, 54, 0
1, 105550, Note_on_c, 2, 74, 0
1, 105558, Note_on_c, 11, 70, 0
1, 105565, Note_on_c, 11, 62, 0
1, 105569, Note_on_c, 7, 46, 0
1, 105576, Note_on_c, 11, 65, 0
1, 105590, Note_on_c, 9, 70, 0
1, 105595, Note_on_c, 12, 58, 0
1, 105595, Note_on_c, 12, 62, 0
1, 105595, Note_on_c, 12, 65, 0
1, 105600, Note_on_c, 1, 39, 108
1, 105600, Note_on_c, 7, 51, 74
1, 105600, Note_on_c, 7, 39, 84
1, 105600, Note_on_c, 7, 63, 76
1, 105600, Note_on_c, 7, 67, 87
1, 105600, Note_on_c, 7, 58, 82
1, 105600, Note_on_c, 5, 67, 78
1, 105600, Note_on_c, 5, 63, 78
1, 105600, Note_on_c, 5, 51, 73
1, 105600, Note_on_c, 6, 87, 59
1, 105600, Note_on_c, 6, 67, 84
1, 105600, Note_on_c, 6, 75, 74
1, 105600, Note_on_c, 9, 42, 105
1, 105600, Note_on_c, 9, 36, 111
1, 105600, Note_on_c, 9, 69, 27
1, 105600, Note_on_c, 9, 54, 78
1, 105600, Note_on_c, 11, 67, 44
1, 105600, Note_on_c, 11, 63, 39
1, 105600, Note_on_c, 12, 63, 68
1, 105600, Note_on_c, 12, 58, 84
1, 105600, Note_on_c, 12, 67, 99
1, 105600, Note_on_c, 2, 75, 55
1, 105600, Note_on_c, 2, 79, 57
1, 105601, Note_on_c, 7, 62, 0
1, 105612, Note_on_c, 2, 77, 0
1, 105616, Note_on_c, 7, 65, 0
1, 105618, Note_on_c, 7, 58, 0
1, 105625, Note_on_c, 5, 53, 0
1, 105625, Note_on_c, 6, 86, 0
1, 105627, Note_on_c, 6, 70, 0
1, 105632, Note_on_c, 1, 38, 0
1, 105639, Note_on_c, 11, 63, 0
1, 105644, Note_on_c, 5, 65, 0
1, 105647, Note_on_c, 9, 42, 0
1, 105653, Control_c, 7, 64, 127
1, 105653, Note_on_c, 5, 62, 0
1, 105659, Note_on_c, 11, 67, 0
1, 105660, Note_on_c, 9, 54, 0
1, 105686, Note_on_c, 9, 69, 0
1, 105720, Note_on_c, 9, 42, 62
1, 105720, Note_on_c, 9, 70, 45
1, 105720, Note_on_c, 9, 54, 42
1, 105751, Note_on_c, 9, 42, 0
1, 105762, Note_on_c, 9, 54, 0
1, 105802, Note_on_c, 7, 63, 0
1, 105816, Note_on_c, 9, 70, 0
1, 105831, Note_on_c, 9, 36, 0
1, 105840, Lyric_t, "you're "
1, 105840, Note_on_c, 7, 63, 54
1, 105840, Note_on_c, 7, 55, 49
1, 105840, Note_on_c, 3, 75, 111
1, 105840, Note_on_c, 9, 69, 33
1, 105840, Note_on_c, 9, 54, 68
1, 105840, Note_on_c, 9, 42, 68
1, 105840, Note_on_c, 11, 67, 87
1, 105840, Note_on_c, 11, 70, 87
1, 105840, Note_on_c, 11, 63, 84
1, 105840, Note_on_c, 12, 58, 59
1, 105889, Note_on_c, 9, 42, 0
1, 105901, Note_on_c, 9, 54, 0
1, 105905, Note_on_c, 9, 69, 0
1, 105943, Note_on_c, 12, 58, 0
1, 105960, Note_on_c, 9, 42, 61
1, 105960, Note_on_c, 9, 70, 54
1, 105960, Note_on_c, 9, 54, 33
1, 105987, Note_on_c, 9, 42, 0
1, 105999, Note_on_c, 9, 54, 0
1, 106059, Note_on_c, 9, 70, 0
1, 106072, Note_on_c, 12, 63, 0
1, 106072, Note_on_c, 12, 58, 0
1, 106072, Note_on_c, 12, 67, 0
1, 106075, Note_on_c, 3, 75, 0
1, 106080, Lyric_t, "beau"
1, 106080, Note_on_c, 3, 82, 99
1, 106080, Note_on_c, 9, 69, 39
1, 106080, Note_on_c, 9, 42, 93
1, 106080, Note_on_c, 9, 38, 114
1, 106080, Note_on_c, 9, 54, 78
1, 106080, Note_on_c, 12, 63, 82
1, 106080, Note_on_c, 12, 67, 90
1, 106080, Note_on_c, 12, 58, 102
1, 106107, Note_on_c, 7, 63, 0
1, 106128, Note_on_c, 9, 42, 0
1, 106146, Note_on_c, 9, 54, 0
1, 106154, Note_on_c, 9, 69, 0
1, 106200, Lyric_t, "ti"
1, 106200, Note_on_c, 7, 63, 74
1, 106200, Note_on_c, 3, 79, 102
1, 106200, Note_on_c, 9, 42, 58
1, 106200, Note_on_c, 9, 54, 24
1, 106200, Note_on_c, 9, 70, 51
1, 106230, Note_on_c, 9, 42, 0
1, 106243, Note_on_c, 3, 82, 0
1, 106247, Note_on_c, 9, 54, 0
1, 106247, Note_on_c, 11, 70, 0
1, 106253, Note_on_c, 11, 63, 0
1, 106255, Note_on_c, 11, 67, 0
1, 106292, Note_on_c, 7, 51, 0
1, 106295, Note_on_c, 9, 70, 0
1, 106320, Note_on_c, 9, 69, 44
1, 106320, Note_on_c, 9, 42, 66
1, 106320, Note_on_c, 9, 54, 64
1, 106320, Note_on_c, 11, 67, 84
1, 106320, Note_on_c, 11, 70, 90
1, 106320, Note_on_c, 11, 63, 78
1, 106335, Note_on_c, 9, 38, 0
1, 106342, Note_on_c, 3, 79, 0
1, 106375, Note_on_c, 1, 39, 0
1, 106376, Note_on_c, 9, 42, 0
1, 106382, Note_on_c, 9, 69, 0
1, 106403, Note_on_c, 9, 54, 0
1, 106433, Note_on_c, 12, 63, 0
1, 106433, Note_on_c, 12, 67, 0
1, 106433, Note_on_c, 12, 58, 0
1, 106440, Lyric_t, "ful. "
1, 106440, Lyric_t, "\015"
1, 106440, Note_on_c, 1, 39, 76
1, 106440, Note_on_c, 3, 79, 105
1, 106440, Note_on_c, 9, 36, 105
1, 106440, Note_on_c, 9, 42, 59
1, 106440, Note_on_c, 9, 54, 29
1, 106440, Note_on_c, 9, 70, 56
1, 106440, Note_on_c, 12, 58, 74
1, 106440, Note_on_c, 12, 67, 82
1, 106477, Note_on_c, 9, 42, 0
1, 106481, Note_on_c, 9, 54, 0
1, 106514, Note_on_c, 1, 39, 0
1, 106528, Note_on_c, 9, 70, 0
1, 106554, Note_on_c, 9, 36, 0
1, 106560, Note_on_c, 1, 39, 93
1, 106560, Note_on_c, 7, 51, 36
1, 106560, Note_on_c, 3, 75, 99
1, 106560, Note_on_c, 9, 69, 42
1, 106560, Note_on_c, 9, 54, 83
1, 106560, Note_on_c, 9, 42, 87
1, 106610, Note_on_c, 11, 70, 0
1, 106620, Note_on_c, 9, 69, 0
1, 106621, Note_on_c, 9, 42, 0
1, 106624, Note_on_c, 9, 54, 0
1, 106632, Note_on_c, 7, 58, 0
1, 106636, Note_on_c, 3, 79, 0
1, 106644, Note_on_c, 11, 63, 0
1, 106646, Note_on_c, 11, 67, 0
1, 106674, Note_on_c, 12, 58, 0
1, 106674, Note_on_c, 12, 67, 0
1, 106680, Note_on_c, 9, 54, 26
1, 106680, Note_on_c, 9, 42, 64
1, 106680, Note_on_c, 9, 70, 54
1, 106680, Note_on_c, 11, 67, 49
1, 106680, Note_on_c, 11, 63, 37
1, 106680, Note_on_c, 12, 58, 66
1, 106680, Note_on_c, 12, 67, 64
1, 106706, Note_on_c, 9, 54, 0
1, 106706, Note_on_c, 11, 63, 0
1, 106712, Note_on_c, 9, 42, 0
1, 106732, Note_on_c, 11, 67, 0
1, 106754, Note_on_c, 1, 39, 0
1, 106756, Note_on_c, 3, 75, 0
1, 106768, Note_on_c, 9, 70, 0
1, 106795, Note_on_c, 12, 58, 0
1, 106795, Note_on_c, 12, 67, 0
1, 106800, Note_on_c, 1, 39, 99
1, 106800, Note_on_c, 7, 65, 99
1, 106800, Note_on_c, 8, 65, 99
1, 106800, Note_on_c, 9, 54, 78
1, 106800, Note_on_c, 9, 46, 99
1, 106800, Note_on_c, 9, 36, 114
1, 106800, Note_on_c, 9, 69, 50
1, 106800, Note_on_c, 11, 67, 93
1, 106800, Note_on_c, 11, 63, 90
1, 106800, Note_on_c, 11, 70, 93
1, 106800, Note_on_c, 12, 67, 80
1, 106800, Note_on_c, 12, 58, 87
1, 106800, Note_on_c, 13, 65, 99
1, 106839, Note_on_c, 7, 67, 0
1, 106850, Note_on_c, 7, 63, 0
1, 106856, Note_on_c, 9, 69, 0
1, 106860, Note_on_c, 9, 54, 0
1, 106911, Note_on_c, 9, 46, 0
1, 106920, Note_on_c, 9, 54, 35
1, 106920, Note_on_c, 9, 70, 56
1, 106926, Note_on_c, 9, 36, 0
1, 106957, Note_on_c, 9, 54, 0
1, 107011, Note_on_c, 9, 70, 0
1, 107034, Note_on_c, 12, 67, 0
1, 107034, Note_on_c, 12, 58, 0
1, 107040, Note_on_c, 9, 42, 70
1, 107040, Note_on_c, 9, 38, 114
1, 107040, Note_on_c, 9, 54, 78
1, 107040, Note_on_c, 9, 69, 41
1, 107040, Note_on_c, 12, 58, 99
1, 107040, Note_on_c, 12, 67, 90
1, 107074, Note_on_c, 9, 42, 0
1, 107089, Note_on_c, 9, 69, 0
1, 107104, Note_on_c, 9, 54, 0
1, 107159, Note_on_c, 7, 65, 0
1, 107160, Note_on_c, 7, 67, 96
1, 107160, Note_on_c, 8, 67, 87
1, 107160, Note_on_c, 9, 54, 27
1, 107160, Note_on_c, 9, 42, 62
1, 107160, Note_on_c, 9, 70, 48
1, 107160, Note_on_c, 13, 67, 87
1, 107194, Note_on_c, 9, 42, 0
1, 107198, Note_on_c, 8, 65, 0
1, 107198, Note_on_c, 9, 54, 0
1, 107198, Note_on_c, 13, 65, 0
1, 107205, Note_on_c, 11, 63, 0
1, 107206, Note_on_c, 11, 67, 0
1, 107213, Note_on_c, 11, 70, 0
1, 107234, Note_on_c, 9, 38, 0
1, 107257, Note_on_c, 9, 70, 0
1, 107280, Note_on_c, 1, 34, 96
1, 107280, Note_on_c, 9, 69, 53
1, 107280, Note_on_c, 9, 46, 90
1, 107280, Note_on_c, 9, 36, 90
1, 107280, Note_on_c, 9, 54, 78
1, 107280, Note_on_c, 11, 67, 84
1, 107280, Note_on_c, 11, 70, 68
1, 107280, Note_on_c, 11, 63, 84
1, 107291, Note_on_c, 1, 39, 0
1, 107336, Note_on_c, 9, 36, 0
1, 107344, Note_on_c, 9, 54, 0
1, 107351, Note_on_c, 9, 69, 0
1, 107370, Control_c, 7, 64, 0
1, 107391, Note_on_c, 9, 46, 0
1, 107400, Note_on_c, 9, 54, 30
1, 107400, Note_on_c, 12, 58, 52
1, 107420, Note_on_c, 7, 55, 0
1, 107420, Note_on_c, 2, 75, 0
1, 107432, Note_on_c, 9, 54, 0
1, 107445, Note_on_c, 7, 51, 0
1, 107459, Note_on_c, 7, 39, 0
1, 107464, Note_on_c, 12, 58, 0
1, 107497, Note_on_c, 6, 75, 0
1, 107501, Note_on_c, 2, 79, 0
1, 107503, Note_on_c, 11, 63, 0
1, 107504, Note_on_c, 6, 67, 0
1, 107507, Note_on_c, 11, 67, 0
1, 107507, Note_on_c, 11, 70, 0
1, 107512, Note_on_c, 6, 87, 0
1, 107512, Note_on_c, 12, 58, 0
1, 107512, Note_on_c, 12, 67, 0
1, 107515, Note_on_c, 5, 51, 0
1, 107520, Note_on_c, 1, 32, 111
1, 107520, Note_on_c, 7, 44, 87
1, 107520, Note_on_c, 7, 56, 82
1, 107520, Note_on_c, 7, 51, 80
1, 107520, Note_on_c, 7, 60, 82
1, 107520, Note_on_c, 5, 60, 75
1, 107520, Note_on_c, 5, 63, 75
1, 107520, Note_on_c, 5, 68, 78
1, 107520, Note_on_c, 5, 56, 94
1, 107520, Note_on_c, 6, 84, 46
1, 107520, Note_on_c, 6, 75, 62
1, 107520, Note_on_c, 6, 60, 90
1, 107520, Note_on_c, 6, 68, 99
1, 107520, Note_on_c, 8, 63, 93
1, 107520, Note_on_c, 9, 69, 51
1, 107520, Note_on_c, 9, 42, 105
1, 107520, Note_on_c, 9, 54, 89
1, 107520, Note_on_c, 9, 36, 117
1, 107520, Note_on_c, 11, 60, 50
1, 107520, Note_on_c, 11, 63, 58
1, 107520, Note_on_c, 12, 63, 80
1, 107520, Note_on_c, 12, 60, 84
1, 107520, Note_on_c, 12, 56, 102
1, 107520, Note_on_c, 2, 72, 58
1, 107520, Note_on_c, 2, 75, 72
1, 107520, Note_on_c, 13, 63, 93
1, 107535, Note_on_c, 7, 67, 0
1, 107541, Note_on_c, 5, 67, 0
1, 107545, Note_on_c, 1, 34, 0
1, 107549, Note_on_c, 5, 63, 0
1, 107560, Note_on_c, 8, 67, 0
1, 107560, Note_on_c, 13, 67, 0
1, 107570, Note_on_c, 5, 58, 0
1, 107573, Control_c, 7, 64, 127
1, 107573, Note_on_c, 9, 42, 0
1, 107579, Note_on_c, 9, 54, 0
1, 107600, Note_on_c, 9, 69, 0
1, 107640, Note_on_c, 9, 54, 31
1, 107640, Note_on_c, 9, 70, 54
1, 107640, Note_on_c, 9, 42, 80
1, 107682, Note_on_c, 9, 54, 0
1, 107700, Note_on_c, 9, 42, 0
1, 107733, Note_on_c, 9, 70, 0
1, 107735, Note_on_c, 11, 60, 0
1, 107760, Lyric_t, "you're "
1, 107760, Note_on_c, 7, 63, 80
1, 107760, Note_on_c, 3, 75, 117
1, 107760, Note_on_c, 9, 42, 59
1, 107760, Note_on_c, 9, 54, 70
1, 107760, Note_on_c, 9, 69, 44
1, 107760, Note_on_c, 11, 60, 84
1, 107760, Note_on_c, 11, 70, 102
1, 107760, Note_on_c, 12, 56, 55
1, 107818, Note_on_c, 9, 42, 0
1, 107827, Note_on_c, 9, 54, 0
1, 107833, Note_on_c, 9, 69, 0
1, 107869, Note_on_c, 9, 36, 0
1, 107880, Note_on_c, 9, 54, 49
1, 107880, Note_on_c, 9, 42, 59
1, 107880, Note_on_c, 9, 70, 56
1, 107907, Note_on_c, 12, 56, 0
1, 107914, Note_on_c, 9, 42, 0
1, 107916, Note_on_c, 9, 54, 0
1, 107975, Note_on_c, 3, 75, 0
1, 107982, Note_on_c, 9, 70, 0
1, 107992, Note_on_c, 12, 63, 0
1, 107992, Note_on_c, 12, 60, 0
1, 107992, Note_on_c, 12, 56, 0
1, 108000, Lyric_t, "beau"
1, 108000, Note_on_c, 3, 82, 111
1, 108000, Note_on_c, 6, 70, 96
1, 108000, Note_on_c, 6, 62, 96
1, 108000, Note_on_c, 9, 42, 105
1, 108000, Note_on_c, 9, 54, 86
1, 108000, Note_on_c, 9, 69, 32
1, 108000, Note_on_c, 9, 38, 114
1, 108000, Note_on_c, 12, 56, 80
1, 108000, Note_on_c, 12, 60, 93
1, 108000, Note_on_c, 12, 63, 93
1, 108036, Note_on_c, 6, 68, 0
1, 108038, Note_on_c, 6, 60, 0
1, 108046, Note_on_c, 7, 51, 0
1, 108051, Note_on_c, 9, 42, 0
1, 108071, Note_on_c, 9, 54, 0
1, 108079, Note_on_c, 9, 69, 0
1, 108089, Note_on_c, 7, 56, 0
1, 108103, Note_on_c, 11, 70, 0
1, 108120, Lyric_t, "ti"
1, 108120, Note_on_c, 3, 79, 102
1, 108120, Note_on_c, 9, 54, 34
1, 108120, Note_on_c, 9, 70, 53
1, 108120, Note_on_c, 9, 42, 34
1, 108145, Note_on_c, 3, 82, 0
1, 108155, Note_on_c, 9, 42, 0
1, 108156, Note_on_c, 9, 54, 0
1, 108188, Note_on_c, 3, 79, 0
1, 108208, Note_on_c, 9, 70, 0
1, 108240, Lyric_t, "ful "
1, 108240, Note_on_c, 7, 56, 49
1, 108240, Note_on_c, 7, 51, 55
1, 108240, Note_on_c, 3, 79, 102
1, 108240, Note_on_c, 6, 63, 99
1, 108240, Note_on_c, 6, 72, 96
1, 108240, Note_on_c, 9, 54, 72
1, 108240, Note_on_c, 9, 69, 45
1, 108240, Note_on_c, 9, 42, 82
1, 108240, Note_on_c, 11, 70, 87
1, 108254, Note_on_c, 6, 62, 0
1, 108255, Note_on_c, 6, 70, 0
1, 108269, Note_on_c, 7, 44, 0
1, 108274, Note_on_c, 1, 32, 0
1, 108285, Note_on_c, 9, 38, 0
1, 108288, Note_on_c, 9, 42, 0
1, 108293, Note_on_c, 7, 51, 0
1, 108304, Note_on_c, 9, 54, 0
1, 108311, Note_on_c, 9, 69, 0
1, 108340, Note_on_c, 7, 63, 0
1, 108348, Note_on_c, 7, 56, 0
1, 108349, Note_on_c, 11, 60, 0
1, 108360, Note_on_c, 1, 32, 74
1, 108360, Note_on_c, 9, 70, 51
1, 108360, Note_on_c, 9, 42, 51
1, 108360, Note_on_c, 9, 54, 43
1, 108360, Note_on_c, 12, 60, 42
1, 108360, Note_on_c, 12, 56, 64
1, 108364, Note_on_c, 11, 63, 0
1, 108386, Note_on_c, 9, 42, 0
1, 108390, Note_on_c, 9, 54, 0
1, 108400, Note_on_c, 6, 75, 0
1, 108421, Note_on_c, 12, 60, 0
1, 108427, Note_on_c, 7, 60, 0
1, 108428, Note_on_c, 1, 32, 0
1, 108444, Note_on_c, 9, 70, 0
1, 108456, Note_on_c, 5, 63, 0
1, 108458, Note_on_c, 5, 68, 0
1, 108461, Note_on_c, 11, 70, 0
1, 108466, Note_on_c, 2, 75, 0
1, 108471, Note_on_c, 5, 60, 0
1, 108473, Note_on_c, 5, 56, 0
1, 108480, Note_on_c, 1, 34, 87
1, 108480, Note_on_c, 7, 46, 93
1, 108480, Note_on_c, 7, 65, 76
1, 108480, Note_on_c, 7, 62, 82
1, 108480, Note_on_c, 7, 58, 68
1, 108480, Note_on_c, 5, 62, 81
1, 108480, Note_on_c, 5, 65, 81
1, 108480, Note_on_c, 5, 53, 81
1, 108480, Note_on_c, 5, 58, 91
1, 108480, Note_on_c, 6, 82, 48
1, 108480, Note_on_c, 6, 70, 102
1, 108480, Note_on_c, 6, 62, 90
1, 108480, Note_on_c, 9, 42, 96
1, 108480, Note_on_c, 9, 54, 86
1, 108480, Note_on_c, 9, 36, 105
1, 108480, Note_on_c, 9, 69, 32
1, 108480, Note_on_c, 11, 62, 84
1, 108480, Note_on_c, 11, 65, 96
1, 108480, Note_on_c, 11, 70, 87
1, 108480, Note_on_c, 2, 77, 61
1, 108480, Note_on_c, 2, 74, 54
1, 108484, Note_on_c, 6, 72, 0
1, 108485, Control_c, 7, 64, 0
1, 108485, Note_on_c, 2, 72, 0
1, 108486, Note_on_c, 12, 56, 0
1, 108492, Note_on_c, 6, 63, 0
1, 108514, Note_on_c, 6, 84, 0
1, 108527, Note_on_c, 9, 42, 0
1, 108547, Note_on_c, 9, 54, 0
1, 108552, Note_on_c, 8, 63, 0
1, 108552, Note_on_c, 13, 63, 0
1, 108553, Note_on_c, 9, 69, 0
1, 108591, Note_on_c, 12, 56, 0
1, 108591, Note_on_c, 12, 60, 0
1, 108591, Note_on_c, 12, 63, 0
1, 108600, Note_on_c, 9, 54, 43
1, 108600, Note_on_c, 9, 70, 41
1, 108600, Note_on_c, 9, 42, 70
1, 108600, Note_on_c, 12, 58, 62
1, 108600, Note_on_c, 12, 62, 82
1, 108600, Note_on_c, 12, 65, 70
1, 108603, Control_c, 7, 64, 127
1, 108622, Note_on_c, 9, 36, 0
1, 108631, Note_on_c, 9, 54, 0
1, 108641, Note_on_c, 9, 42, 0
1, 108660, Note_on_c, 3, 79, 0
1, 108683, Note_on_c, 7, 65, 0
1, 108697, Note_on_c, 1, 34, 0
1, 108707, Note_on_c, 9, 70, 0
1, 108712, Note_on_c, 11, 62, 0
1, 108715, Note_on_c, 12, 58, 0
1, 108715, Note_on_c, 12, 62, 0
1, 108715, Note_on_c, 12, 65, 0
1, 108720, Lyric_t, "it's "
1, 108720, Note_on_c, 1, 34, 99
1, 108720, Note_on_c, 7, 65, 93
1, 108720, Note_on_c, 3, 82, 105
1, 108720, Note_on_c, 8, 65, 87
1, 108720, Note_on_c, 9, 46, 99
1, 108720, Note_on_c, 9, 36, 111
1, 108720, Note_on_c, 9, 69, 44
1, 108720, Note_on_c, 9, 54, 78
1, 108720, Note_on_c, 11, 62, 87
1, 108720, Note_on_c, 11, 72, 96
1, 108720, Note_on_c, 12, 62, 58
1, 108720, Note_on_c, 12, 58, 78
1, 108720, Note_on_c, 12, 65, 66
1, 108720, Note_on_c, 13, 65, 87
1, 108736, Note_on_c, 11, 70, 0
1, 108788, Note_on_c, 9, 54, 0
1, 108791, Note_on_c, 9, 69, 0
1, 108798, Note_on_c, 9, 46, 0
1, 108840, Note_on_c, 6, 63, 102
1, 108840, Note_on_c, 6, 72, 90
1, 108840, Note_on_c, 9, 70, 51
1, 108840, Note_on_c, 9, 54, 36
1, 108849, Note_on_c, 6, 62, 0
1, 108867, Note_on_c, 9, 54, 0
1, 108868, Note_on_c, 6, 70, 0
1, 108914, Note_on_c, 9, 36, 0
1, 108937, Note_on_c, 9, 70, 0
1, 108954, Note_on_c, 12, 62, 0
1, 108954, Note_on_c, 12, 58, 0
1, 108954, Note_on_c, 12, 65, 0
1, 108960, Note_on_c, 6, 65, 74
1, 108960, Note_on_c, 6, 74, 93
1, 108960, Note_on_c, 9, 54, 91
1, 108960, Note_on_c, 9, 38, 108
1, 108960, Note_on_c, 9, 42, 76
1, 108960, Note_on_c, 9, 69, 33
1, 108960, Note_on_c, 12, 62, 99
1, 108960, Note_on_c, 12, 65, 90
1, 108960, Note_on_c, 12, 58, 111
1, 108978, Note_on_c, 6, 72, 0
1, 108983, Note_on_c, 6, 63, 0
1, 109002, Note_on_c, 9, 42, 0
1, 109026, Note_on_c, 9, 54, 0
1, 109040, Note_on_c, 9, 69, 0
1, 109046, Note_on_c, 7, 62, 0
1, 109080, Note_on_c, 9, 70, 43
1, 109080, Note_on_c, 9, 54, 33
1, 109080, Note_on_c, 9, 42, 61
1, 109115, Note_on_c, 9, 42, 0
1, 109116, Note_on_c, 11, 62, 0
1, 109125, Note_on_c, 9, 54, 0
1, 109154, Note_on_c, 9, 38, 0
1, 109155, Note_on_c, 11, 65, 0
1, 109166, Note_on_c, 9, 70, 0
1, 109192, Note_on_c, 11, 72, 0
1, 109194, Note_on_c, 1, 34, 0
1, 109196, Note_on_c, 3, 82, 0
1, 109200, Lyric_t, "true. "
1, 109200, Lyric_t, "\015"
1, 109200, Note_on_c, 1, 38, 102
1, 109200, Note_on_c, 7, 53, 46
1, 109200, Note_on_c, 7, 62, 58
1, 109200, Note_on_c, 3, 75, 108
1, 109200, Note_on_c, 6, 70, 93
1, 109200, Note_on_c, 6, 62, 105
1, 109200, Note_on_c, 9, 54, 78
1, 109200, Note_on_c, 9, 42, 90
1, 109200, Note_on_c, 9, 69, 48
1, 109200, Note_on_c, 11, 65, 64
1, 109200, Note_on_c, 11, 70, 82
1, 109200, Note_on_c, 11, 62, 76
1, 109231, Note_on_c, 6, 74, 0
1, 109244, Note_on_c, 6, 65, 0
1, 109245, Note_on_c, 9, 42, 0
1, 109263, Note_on_c, 9, 69, 0
1, 109265, Note_on_c, 9, 54, 0
1, 109320, Note_on_c, 9, 54, 27
1, 109320, Note_on_c, 9, 70, 56
1, 109320, Note_on_c, 9, 42, 68
1, 109320, Note_on_c, 12, 58, 38
1, 109352, Note_on_c, 9, 54, 0
1, 109359, Note_on_c, 9, 42, 0
1, 109360, Note_on_c, 11, 65, 0
1, 109372, Note_on_c, 12, 58, 0
1, 109376, Note_on_c, 7, 65, 0
1, 109377, Note_on_c, 8, 65, 0
1, 109377, Note_on_c, 13, 65, 0
1, 109383, Note_on_c, 7, 46, 0
1, 109383, Note_on_c, 7, 53, 0
1, 109388, Note_on_c, 7, 62, 0
1, 109401, Note_on_c, 11, 62, 0
1, 109403, Note_on_c, 7, 58, 0
1, 109422, Note_on_c, 6, 62, 0
1, 109430, Note_on_c, 9, 70, 0
1, 109432, Note_on_c, 12, 62, 0
1, 109432, Note_on_c, 12, 65, 0
1, 109432, Note_on_c, 12, 58, 0
1, 109435, Note_on_c, 2, 74, 0
1, 109437, Note_on_c, 6, 82, 0
1, 109440, Note_on_c, 1, 39, 108
1, 109440, Note_on_c, 7, 67, 90
1, 109440, Note_on_c, 7, 58, 84
1, 109440, Note_on_c, 7, 51, 74
1, 109440, Note_on_c, 7, 63, 80
1, 109440, Note_on_c, 7, 39, 87
1, 109440, Note_on_c, 5, 53, 0
1, 109440, Note_on_c, 5, 67, 75
1, 109440, Note_on_c, 5, 63, 78
1, 109440, Note_on_c, 5, 55, 59
1, 109440, Note_on_c, 6, 75, 99
1, 109440, Note_on_c, 6, 67, 76
1, 109440, Note_on_c, 6, 79, 34
1, 109440, Note_on_c, 8, 67, 82
1, 109440, Note_on_c, 9, 36, 117
1, 109440, Note_on_c, 9, 69, 27
1, 109440, Note_on_c, 9, 42, 99
1, 109440, Note_on_c, 9, 54, 86
1, 109440, Note_on_c, 12, 58, 102
1, 109440, Note_on_c, 12, 67, 90
1, 109440, Note_on_c, 12, 63, 90
1, 109440, Note_on_c, 2, 79, 74
1, 109440, Note_on_c, 2, 75, 64
1, 109440, Note_on_c, 13, 67, 82
1, 109443, Control_c, 7, 64, 0
1, 109452, Note_on_c, 6, 70, 0
1, 109462, Note_on_c, 5, 62, 0
1, 109471, Note_on_c, 2, 77, 0
1, 109472, Note_on_c, 1, 38, 0
1, 109479, Note_on_c, 5, 65, 0
1, 109490, Control_c, 7, 64, 127
1, 109496, Note_on_c, 9, 42, 0
1, 109500, Note_on_c, 9, 54, 0
1, 109526, Note_on_c, 9, 69, 0
1, 109540, Note_on_c, 11, 70, 0
1, 109560, Note_on_c, 9, 54, 35
1, 109560, Note_on_c, 9, 42, 66
1, 109560, Note_on_c, 9, 70, 45
1, 109586, Note_on_c, 9, 54, 0
1, 109592, Note_on_c, 9, 42, 0
1, 109656, Note_on_c, 9, 70, 0
1, 109680, Note_on_c, 9, 54, 75
1, 109680, Note_on_c, 9, 42, 82
1, 109680, Note_on_c, 9, 69, 33
1, 109680, Note_on_c, 11, 67, 90
1, 109680, Note_on_c, 11, 70, 87
1, 109680, Note_on_c, 11, 63, 90
1, 109680, Note_on_c, 12, 58, 59
1, 109730, Note_on_c, 9, 42, 0
1, 109740, Note_on_c, 9, 54, 0
1, 109745, Note_on_c, 9, 69, 0
1, 109761, Note_on_c, 9, 36, 0
1, 109800, Note_on_c, 9, 54, 25
1, 109800, Note_on_c, 9, 70, 54
1, 109800, Note_on_c, 9, 42, 44
1, 109824, Note_on_c, 7, 63, 0
1, 109832, Note_on_c, 9, 42, 0
1, 109842, Note_on_c, 9, 54, 0
1, 109857, Note_on_c, 12, 58, 0
1, 109864, Note_on_c, 3, 75, 0
1, 109877, Control_c, 7, 64, 0
1, 109882, Control_c, 7, 64, 127
1, 109899, Note_on_c, 9, 70, 0
1, 109912, Note_on_c, 12, 58, 0
1, 109912, Note_on_c, 12, 67, 0
1, 109912, Note_on_c, 12, 63, 0
1, 109920, Note_on_c, 7, 63, 66
1, 109920, Note_on_c, 7, 55, 44
1, 109920, Note_on_c, 9, 42, 99
1, 109920, Note_on_c, 9, 69, 39
1, 109920, Note_on_c, 9, 54, 83
1, 109920, Note_on_c, 9, 38, 111
1, 109920, Note_on_c, 12, 63, 72
1, 109920, Note_on_c, 12, 58, 102
1, 109920, Note_on_c, 12, 67, 93
1, 109966, Note_on_c, 11, 63, 0
1, 109971, Note_on_c, 9, 42, 0
1, 109975, Note_on_c, 11, 67, 0
1, 109979, Note_on_c, 9, 54, 0
1, 109994, Note_on_c, 9, 69, 0
1, 110040, Note_on_c, 9, 54, 34
1, 110040, Note_on_c, 9, 42, 49
1, 110040, Note_on_c, 9, 70, 51
1, 110041, Note_on_c, 7, 51, 0
1, 110074, Note_on_c, 9, 54, 0
1, 110077, Note_on_c, 9, 42, 0
1, 110102, Note_on_c, 11, 70, 0
1, 110125, Note_on_c, 1, 39, 0
1, 110135, Note_on_c, 9, 70, 0
1, 110144, Note_on_c, 9, 38, 0
1, 110160, Note_on_c, 1, 39, 84
1, 110160, Note_on_c, 9, 42, 70
1, 110160, Note_on_c, 9, 69, 44
1, 110160, Note_on_c, 9, 54, 81
1, 110160, Note_on_c, 11, 70, 74
1, 110160, Note_on_c, 11, 67, 87
1, 110160, Note_on_c, 11, 63, 87
1, 110217, Note_on_c, 9, 42, 0
1, 110221, Note_on_c, 9, 54, 0
1, 110222, Note_on_c, 9, 69, 0
1, 110280, Note_on_c, 9, 54, 30
1, 110280, Note_on_c, 9, 70, 56
1, 110280, Note_on_c, 9, 42, 52
1, 110280, Note_on_c, 9, 36, 78
1, 110280, Note_on_c, 12, 58, 64
1, 110295, Note_on_c, 5, 55, 0
1, 110297, Note_on_c, 7, 63, 0
1, 110310, Note_on_c, 9, 54, 0
1, 110312, Note_on_c, 7, 55, 0
1, 110320, Note_on_c, 9, 42, 0
1, 110320, Note_on_c, 9, 36, 0
1, 110354, Note_on_c, 1, 39, 0
1, 110368, Note_on_c, 9, 70, 0
1, 110400, Note_on_c, 1, 39, 90
1, 110400, Note_on_c, 7, 51, 58
1, 110400, Note_on_c, 7, 63, 62
1, 110400, Note_on_c, 7, 55, 43
1, 110400, Note_on_c, 5, 55, 73
1, 110400, Note_on_c, 9, 54, 78
1, 110400, Note_on_c, 9, 36, 108
1, 110400, Note_on_c, 9, 42, 90
1, 110400, Note_on_c, 9, 69, 42
1, 110457, Note_on_c, 9, 54, 0
1, 110458, Note_on_c, 12, 58, 0
1, 110459, Note_on_c, 7, 67, 0
1, 110460, Note_on_c, 9, 42, 0
1, 110460, Note_on_c, 9, 69, 0
1, 110494, Note_on_c, 8, 67, 0
1, 110494, Note_on_c, 13, 67, 0
1, 110497, Note_on_c, 7, 55, 0
1, 110498, Note_on_c, 11, 70, 0
1, 110511, Note_on_c, 12, 63, 0
1, 110511, Note_on_c, 12, 58, 0
1, 110511, Note_on_c, 12, 67, 0
1, 110514, Note_on_c, 7, 58, 0
1, 110520, Note_on_c, 9, 42, 54
1, 110520, Note_on_c, 9, 70, 54
1, 110520, Note_on_c, 9, 54, 30
1, 110520, Note_on_c, 12, 58, 66
1, 110520, Note_on_c, 12, 67, 40
1, 110527, Note_on_c, 7, 63, 0
1, 110547, Note_on_c, 9, 54, 0
1, 110556, Note_on_c, 9, 42, 0
1, 110557, Note_on_c, 9, 36, 0
1, 110604, Note_on_c, 11, 63, 0
1, 110608, Note_on_c, 9, 70, 0
1, 110635, Note_on_c, 12, 58, 0
1, 110635, Note_on_c, 12, 67, 0
1, 110637, Note_on_c, 1, 39, 0
1, 110640, Note_on_c, 1, 46, 84
1, 110640, Note_on_c, 7, 65, 108
1, 110640, Note_on_c, 7, 53, 90
1, 110640, Note_on_c, 5, 65, 81
1, 110640, Note_on_c, 8, 65, 93
1, 110640, Note_on_c, 9, 69, 50
1, 110640, Note_on_c, 9, 54, 81
1, 110640, Note_on_c, 9, 36, 99
1, 110640, Note_on_c, 9, 46, 105
1, 110640, Note_on_c, 11, 63, 93
1, 110640, Note_on_c, 11, 70, 99
1, 110640, Note_on_c, 12, 67, 87
1, 110640, Note_on_c, 12, 58, 90
1, 110640, Note_on_c, 12, 63, 90
1, 110640, Note_on_c, 13, 65, 93
1, 110662, Note_on_c, 5, 67, 0
1, 110696, Note_on_c, 9, 69, 0
1, 110696, Note_on_c, 9, 54, 0
1, 110725, Note_on_c, 9, 46, 0
1, 110760, Note_on_c, 9, 54, 30
1, 110760, Note_on_c, 9, 70, 56
1, 110762, Note_on_c, 9, 36, 0
1, 110806, Note_on_c, 9, 54, 0
1, 110851, Note_on_c, 9, 70, 0
1, 110874, Note_on_c, 12, 67, 0
1, 110874, Note_on_c, 12, 58, 0
1, 110874, Note_on_c, 12, 63, 0
1, 110880, Note_on_c, 1, 39, 84
1, 110880, Note_on_c, 6, 87, 24
1, 110880, Note_on_c, 9, 38, 114
1, 110880, Note_on_c, 9, 69, 41
1, 110880, Note_on_c, 9, 54, 81
1, 110880, Note_on_c, 9, 46, 66
1, 110880, Note_on_c, 12, 58, 90
1, 110880, Note_on_c, 12, 67, 90
1, 110883, Note_on_c, 1, 46, 0
1, 110910, Note_on_c, 7, 53, 0
1, 110915, Note_on_c, 11, 63, 0
1, 110923, Note_on_c, 6, 79, 0
1, 110929, Note_on_c, 9, 69, 0
1, 110930, Note_on_c, 9, 46, 0
1, 110939, Note_on_c, 9, 54, 0
1, 110954, Note_on_c, 11, 70, 0
1, 110999, Note_on_c, 8, 65, 0
1, 110999, Note_on_c, 13, 65, 0
1, 111000, Note_on_c, 7, 67, 105
1, 111000, Note_on_c, 7, 55, 64
1, 111000, Note_on_c, 5, 67, 94
1, 111000, Note_on_c, 8, 67, 99
1, 111000, Note_on_c, 9, 70, 48
1, 111000, Note_on_c, 9, 54, 24
1, 111000, Note_on_c, 11, 63, 45
1, 111000, Note_on_c, 13, 67, 99
1, 111010, Note_on_c, 7, 65, 0
1, 111017, Note_on_c, 5, 65, 0
1, 111038, Note_on_c, 9, 54, 0
1, 111046, Note_on_c, 11, 63, 0
1, 111065, Note_on_c, 11, 67, 0
1, 111086, Note_on_c, 1, 39, 0
1, 111097, Note_on_c, 9, 70, 0
1, 111107, Note_on_c, 9, 38, 0
1, 111120, Lyric_t, "There "
1, 111120, Note_on_c, 1, 39, 93
1, 111120, Note_on_c, 3, 75, 108
1, 111120, Note_on_c, 9, 69, 53
1, 111120, Note_on_c, 9, 36, 99
1, 111120, Note_on_c, 9, 54, 78
1, 111120, Note_on_c, 9, 42, 102
1, 111120, Note_on_c, 11, 67, 78
1, 111120, Note_on_c, 11, 63, 76
1, 111120, Note_on_c, 11, 70, 87
1, 111120, Note_on_c, 12, 58, 74
1, 111160, Note_on_c, 9, 42, 0
1, 111171, Control_c, 7, 64, 0
1, 111174, Note_on_c, 9, 54, 0
1, 111178, Note_on_c, 9, 36, 0
1, 111191, Note_on_c, 9, 69, 0
1, 111216, Note_on_c, 12, 58, 0
1, 111240, Lyric_t, "must "
1, 111240, Note_on_c, 3, 82, 117
1, 111240, Note_on_c, 9, 42, 66
1, 111240, Note_on_c, 9, 54, 39
1, 111254, Note_on_c, 7, 51, 0
1, 111259, Note_on_c, 3, 75, 0
1, 111273, Note_on_c, 9, 42, 0
1, 111282, Note_on_c, 9, 54, 0
1, 111290, Note_on_c, 6, 87, 0
1, 111291, Note_on_c, 7, 39, 0
1, 111305, Note_on_c, 6, 75, 0
1, 111319, Note_on_c, 11, 70, 0
1, 111324, Note_on_c, 2, 79, 0
1, 111325, Note_on_c, 11, 63, 0
1, 111328, Note_on_c, 11, 67, 0
1, 111329, Note_on_c, 7, 55, 0
1, 111331, Note_on_c, 5, 58, 0
1, 111333, Note_on_c, 6, 67, 0
1, 111339, Note_on_c, 5, 63, 0
1, 111352, Note_on_c, 12, 58, 0
1, 111352, Note_on_c, 12, 67, 0
1, 111360, Note_on_c, 1, 32, 108
1, 111360, Note_on_c, 7, 63, 84
1, 111360, Note_on_c, 7, 44, 96
1, 111360, Note_on_c, 7, 60, 80
1, 111360, Note_on_c, 7, 56, 76
1, 111360, Note_on_c, 5, 63, 83
1, 111360, Note_on_c, 5, 51, 61
1, 111360, Note_on_c, 5, 56, 83
1, 111360, Note_on_c, 5, 60, 86
1, 111360, Note_on_c, 6, 87, 64
1, 111360, Note_on_c, 6, 72, 84
1, 111360, Note_on_c, 6, 75, 87
1, 111360, Note_on_c, 8, 63, 96
1, 111360, Note_on_c, 9, 42, 96
1, 111360, Note_on_c, 9, 54, 89
1, 111360, Note_on_c, 9, 36, 117
1, 111360, Note_on_c, 9, 69, 51
1, 111360, Note_on_c, 11, 63, 58
1, 111360, Note_on_c, 11, 60, 55
1, 111360, Note_on_c, 12, 60, 90
1, 111360, Note_on_c, 12, 68, 93
1, 111360, Note_on_c, 2, 72, 66
1, 111360, Note_on_c, 13, 63, 96
1, 111362, Note_on_c, 5, 67, 0
1, 111363, Note_on_c, 5, 55, 0
1, 111365, Note_on_c, 7, 67, 0
1, 111377, Note_on_c, 1, 39, 0
1, 111410, Note_on_c, 9, 54, 0
1, 111411, Control_c, 7, 64, 127
1, 111414, Note_on_c, 8, 67, 0
1, 111414, Note_on_c, 13, 67, 0
1, 111417, Note_on_c, 9, 42, 0
1, 111440, Note_on_c, 9, 69, 0
1, 111480, Note_on_c, 9, 54, 37
1, 111480, Note_on_c, 9, 70, 54
1, 111480, Note_on_c, 9, 42, 68
1, 111513, Note_on_c, 9, 42, 0
1, 111514, Note_on_c, 9, 54, 0
1, 111561, Note_on_c, 11, 60, 0
1, 111573, Note_on_c, 9, 70, 0
1, 111600, Lyric_t, "be "
1, 111600, Note_on_c, 3, 79, 105
1, 111600, Note_on_c, 9, 42, 78
1, 111600, Note_on_c, 9, 54, 70
1, 111600, Note_on_c, 9, 69, 44
1, 111600, Note_on_c, 11, 60, 93
1, 111600, Note_on_c, 11, 70, 93
1, 111600, Note_on_c, 12, 60, 68
1, 111625, Note_on_c, 3, 82, 0
1, 111632, Note_on_c, 7, 56, 0
1, 111653, Note_on_c, 9, 42, 0
1, 111654, Note_on_c, 9, 54, 0
1, 111673, Note_on_c, 9, 69, 0
1, 111709, Note_on_c, 9, 36, 0
1, 111720, Note_on_c, 7, 56, 32
1, 111720, Note_on_c, 9, 70, 56
1, 111720, Note_on_c, 9, 54, 32
1, 111720, Note_on_c, 9, 42, 68
1, 111753, Note_on_c, 7, 63, 0
1, 111758, Note_on_c, 9, 42, 0
1, 111761, Note_on_c, 12, 60, 0
1, 111778, Note_on_c, 9, 54, 0
1, 111822, Note_on_c, 9, 70, 0
1, 111832, Note_on_c, 12, 60, 0
1, 111832, Note_on_c, 12, 68, 0
1, 111840, Note_on_c, 7, 63, 46
1, 111840, Note_on_c, 7, 51, 44
1, 111840, Note_on_c, 9, 38, 114
1, 111840, Note_on_c, 9, 69, 32
1, 111840, Note_on_c, 9, 42, 105
1, 111840, Note_on_c, 9, 54, 89
1, 111840, Note_on_c, 12, 60, 99
1, 111840, Note_on_c, 12, 63, 84
1, 111840, Note_on_c, 12, 68, 96
1, 111891, Note_on_c, 9, 54, 0
1, 111894, Note_on_c, 9, 42, 0
1, 111919, Note_on_c, 9, 69, 0
1, 111931, Note_on_c, 11, 60, 0
1, 111960, Note_on_c, 9, 42, 64
1, 111960, Note_on_c, 9, 54, 42
1, 111960, Note_on_c, 9, 70, 53
1, 111960, Note_on_c, 11, 60, 40
1, 111998, Note_on_c, 9, 42, 0
1, 112001, Note_on_c, 9, 54, 0
1, 112013, Note_on_c, 11, 60, 0
1, 112030, Note_on_c, 11, 70, 0
1, 112036, Note_on_c, 11, 63, 0
1, 112038, Note_on_c, 7, 51, 0
1, 112048, Note_on_c, 9, 70, 0
1, 112054, Note_on_c, 7, 56, 0
1, 112066, Note_on_c, 3, 79, 0
1, 112080, Lyric_t, "an "
1, 112080, Note_on_c, 7, 56, 26
1, 112080, Note_on_c, 3, 75, 114
1, 112080, Note_on_c, 9, 54, 78
1, 112080, Note_on_c, 9, 69, 45
1, 112080, Note_on_c, 9, 42, 78
1, 112080, Note_on_c, 11, 60, 76
1, 112080, Note_on_c, 11, 63, 80
1, 112080, Note_on_c, 11, 70, 93
1, 112084, Note_on_c, 7, 44, 0
1, 112114, Note_on_c, 8, 63, 0
1, 112114, Note_on_c, 13, 63, 0
1, 112125, Note_on_c, 9, 38, 0
1, 112130, Note_on_c, 9, 42, 0
1, 112133, Note_on_c, 9, 54, 0
1, 112136, Note_on_c, 7, 56, 0
1, 112151, Note_on_c, 9, 69, 0
1, 112176, Note_on_c, 1, 32, 0
1, 112178, Note_on_c, 7, 60, 0
1, 112196, Note_on_c, 3, 75, 0
1, 112200, Lyric_t, "an"
1, 112200, Note_on_c, 1, 32, 76
1, 112200, Note_on_c, 3, 70, 114
1, 112200, Note_on_c, 9, 70, 51
1, 112200, Note_on_c, 9, 42, 61
1, 112200, Note_on_c, 9, 54, 34
1, 112200, Note_on_c, 12, 60, 64
1, 112202, Note_on_c, 7, 63, 0
1, 112226, Note_on_c, 11, 63, 0
1, 112229, Note_on_c, 11, 60, 0
1, 112232, Note_on_c, 9, 42, 0
1, 112234, Note_on_c, 9, 54, 0
1, 112263, Note_on_c, 6, 75, 0
1, 112284, Note_on_c, 9, 70, 0
1, 112285, Note_on_c, 5, 51, 0
1, 112299, Note_on_c, 2, 75, 0
1, 112301, Note_on_c, 11, 70, 0
1, 112313, Note_on_c, 5, 56, 0
1, 112316, Note_on_c, 3, 70, 0
1, 112317, Note_on_c, 12, 60, 0
1, 112320, Lyric_t, "gel "
1, 112320, Lyric_t, "\015"
1, 112320, Note_on_c, 1, 34, 82
1, 112320, Note_on_c, 7, 58, 74
1, 112320, Note_on_c, 7, 46, 93
1, 112320, Note_on_c, 7, 62, 84
1, 112320, Note_on_c, 3, 70, 114
1, 112320, Note_on_c, 5, 63, 0
1, 112320, Note_on_c, 5, 60, 0
1, 112320, Note_on_c, 5, 62, 81
1, 112320, Note_on_c, 5, 58, 70
1, 112320, Note_on_c, 5, 65, 81
1, 112320, Note_on_c, 5, 53, 75
1, 112320, Note_on_c, 6, 89, 62
1, 112320, Note_on_c, 6, 74, 82
1, 112320, Note_on_c, 6, 77, 93
1, 112320, Note_on_c, 8, 65, 70
1, 112320, Note_on_c, 9, 36, 105
1, 112320, Note_on_c, 9, 69, 32
1, 112320, Note_on_c, 9, 42, 90
1, 112320, Note_on_c, 9, 54, 72
1, 112320, Note_on_c, 11, 65, 87
1, 112320, Note_on_c, 11, 62, 84
1, 112320, Note_on_c, 11, 70, 66
1, 112320, Note_on_c, 2, 74, 57
1, 112320, Note_on_c, 2, 77, 66
1, 112320, Note_on_c, 13, 65, 70
1, 112321, Control_c, 7, 64, 0
1, 112325, Note_on_c, 2, 72, 0
1, 112337, Note_on_c, 1, 32, 0
1, 112369, Note_on_c, 6, 72, 0
1, 112375, Note_on_c, 9, 54, 0
1, 112377, Note_on_c, 9, 42, 0
1, 112390, Note_on_c, 6, 87, 0
1, 112393, Note_on_c, 9, 69, 0
1, 112428, Control_c, 7, 64, 127
1, 112431, Note_on_c, 12, 60, 0
1, 112431, Note_on_c, 12, 63, 0
1, 112431, Note_on_c, 12, 68, 0
1, 112440, Note_on_c, 9, 42, 38
1, 112440, Note_on_c, 9, 54, 51
1, 112440, Note_on_c, 9, 70, 41
1, 112440, Note_on_c, 12, 62, 74
1, 112440, Note_on_c, 12, 58, 74
1, 112440, Note_on_c, 12, 65, 66
1, 112462, Note_on_c, 9, 36, 0
1, 112477, Note_on_c, 9, 42, 0
1, 112477, Note_on_c, 9, 54, 0
1, 112537, Note_on_c, 1, 34, 0
1, 112540, Note_on_c, 11, 62, 0
1, 112547, Note_on_c, 9, 70, 0
1, 112556, Note_on_c, 11, 70, 0
1, 112560, Note_on_c, 1, 34, 87
1, 112560, Note_on_c, 9, 69, 44
1, 112560, Note_on_c, 9, 54, 81
1, 112560, Note_on_c, 9, 36, 111
1, 112560, Note_on_c, 9, 46, 99
1, 112560, Note_on_c, 11, 72, 105
1, 112560, Note_on_c, 11, 62, 99
1, 112560, Note_on_c, 12, 58, 76
1, 112560, Note_on_c, 12, 62, 76
1, 112583, Note_on_c, 7, 58, 0
1, 112614, Note_on_c, 9, 54, 0
1, 112615, Note_on_c, 3, 70, 0
1, 112631, Note_on_c, 9, 69, 0
1, 112644, Note_on_c, 9, 46, 0
1, 112680, Note_on_c, 7, 58, 25
1, 112680, Note_on_c, 9, 54, 26
1, 112680, Note_on_c, 9, 70, 51
1, 112724, Note_on_c, 9, 54, 0
1, 112726, Note_on_c, 7, 62, 0
1, 112738, Note_on_c, 12, 58, 0
1, 112751, Note_on_c, 12, 62, 0
1, 112754, Note_on_c, 9, 36, 0
1, 112777, Note_on_c, 9, 70, 0
1, 112787, Note_on_c, 7, 58, 0
1, 112793, Note_on_c, 12, 62, 0
1, 112793, Note_on_c, 12, 58, 0
1, 112793, Note_on_c, 12, 65, 0
1, 112800, Note_on_c, 7, 53, 55
1, 112800, Note_on_c, 7, 63, 76
1, 112800, Note_on_c, 7, 58, 55
1, 112800, Note_on_c, 9, 69, 33
1, 112800, Note_on_c, 9, 38, 108
1, 112800, Note_on_c, 9, 54, 78
1, 112800, Note_on_c, 9, 42, 76
1, 112800, Note_on_c, 12, 62, 93
1, 112800, Note_on_c, 12, 65, 84
1, 112800, Note_on_c, 12, 58, 102
1, 112850, Note_on_c, 9, 54, 0
1, 112856, Note_on_c, 9, 42, 0
1, 112880, Note_on_c, 9, 69, 0
1, 112920, Note_on_c, 9, 42, 64
1, 112920, Note_on_c, 9, 54, 36
1, 112920, Note_on_c, 9, 70, 43
1, 112953, Note_on_c, 9, 42, 0
1, 112974, Note_on_c, 9, 54, 0
1, 112985, Note_on_c, 11, 62, 0
1, 112994, Note_on_c, 9, 38, 0
1, 113006, Note_on_c, 9, 70, 0
1, 113029, Note_on_c, 1, 34, 0
1, 113040, Lyric_t, "with "
1, 113040, Note_on_c, 1, 38, 87
1, 113040, Note_on_c, 3, 70, 114
1, 113040, Note_on_c, 9, 42, 96
1, 113040, Note_on_c, 9, 54, 75
1, 113040, Note_on_c, 9, 69, 48
1, 113040, Note_on_c, 11, 70, 76
1, 113040, Note_on_c, 11, 62, 72
1, 113046, Note_on_c, 11, 72, 0
1, 113088, Note_on_c, 9, 42, 0
1, 113095, Note_on_c, 9, 54, 0
1, 113103, Note_on_c, 9, 69, 0
1, 113115, Note_on_c, 3, 70, 0
1, 113160, Lyric_t, "a "
1, 113160, Note_on_c, 3, 70, 105
1, 113160, Note_on_c, 9, 54, 27
1, 113160, Note_on_c, 9, 42, 78
1, 113160, Note_on_c, 9, 70, 56
1, 113160, Note_on_c, 12, 58, 54
1, 113173, Note_on_c, 11, 62, 0
1, 113180, Note_on_c, 11, 70, 0
1, 113187, Note_on_c, 11, 65, 0
1, 113194, Note_on_c, 9, 42, 0
1, 113198, Note_on_c, 7, 53, 0
1, 113201, Note_on_c, 7, 46, 0
1, 113203, Note_on_c, 9, 54, 0
1, 113207, Note_on_c, 7, 58, 0
1, 113218, Note_on_c, 7, 63, 0
1, 113233, Note_on_c, 2, 74, 0
1, 113238, Note_on_c, 12, 58, 0
1, 113255, Control_c, 7, 64, 0
1, 113264, Note_on_c, 2, 77, 0
1, 113270, Note_on_c, 9, 70, 0
1, 113272, Note_on_c, 12, 62, 0
1, 113272, Note_on_c, 12, 65, 0
1, 113272, Note_on_c, 12, 58, 0
1, 113273, Note_on_c, 3, 70, 0
1, 113273, Note_on_c, 6, 77, 0
1, 113278, Note_on_c, 1, 38, 0
1, 113280, Time_signature, 6, 2, 24, 8
1, 113280, Lyric_t, "smile "
1, 113280, Note_on_c, 1, 39, 111
1, 113280, Note_on_c, 7, 67, 87
1, 113280, Note_on_c, 7, 63, 82
1, 113280, Note_on_c, 7, 58, 82
1, 113280, Note_on_c, 7, 39, 82
1, 113280, Note_on_c, 7, 51, 68
1, 113280, Note_on_c, 3, 82, 111
1, 113280, Note_on_c, 5, 67, 86
1, 113280, Note_on_c, 5, 63, 91
1, 113280, Note_on_c, 5, 55, 73
1, 113280, Note_on_c, 6, 67, 84
1, 113280, Note_on_c, 6, 75, 87
1, 113280, Note_on_c, 6, 87, 50
1, 113280, Note_on_c, 8, 67, 76
1, 113280, Note_on_c, 9, 42, 99
1, 113280, Note_on_c, 9, 54, 81
1, 113280, Note_on_c, 9, 69, 27
1, 113280, Note_on_c, 9, 36, 111
1, 113280, Note_on_c, 11, 70, 87
1, 113280, Note_on_c, 11, 67, 90
1, 113280, Note_on_c, 11, 63, 87
1, 113280, Note_on_c, 12, 67, 87
1, 113280, Note_on_c, 12, 63, 96
1, 113280, Note_on_c, 12, 58, 105
1, 113280, Note_on_c, 2, 79, 74
1, 113280, Note_on_c, 2, 75, 74
1, 113280, Note_on_c, 13, 67, 76
1, 113282, Note_on_c, 5, 53, 0
1, 113305, Note_on_c, 8, 65, 0
1, 113305, Note_on_c, 13, 65, 0
1, 113306, Note_on_c, 6, 74, 0
1, 113307, Note_on_c, 6, 89, 0
1, 113316, Note_on_c, 5, 62, 0
1, 113328, Note_on_c, 5, 65, 0
1, 113332, Note_on_c, 9, 42, 0
1, 113333, Note_on_c, 9, 54, 0
1, 113351, Control_c, 7, 64, 127
1, 113366, Note_on_c, 9, 69, 0
1, 113400, Note_on_c, 9, 42, 55
1, 113400, Note_on_c, 9, 70, 45
1, 113400, Note_on_c, 9, 54, 25
1, 113441, Note_on_c, 9, 54, 0
1, 113444, Note_on_c, 9, 42, 0
1, 113475, Note_on_c, 3, 82, 0
1, 113476, Note_on_c, 9, 36, 0
1, 113496, Note_on_c, 9, 70, 0
1, 113513, Note_on_c, 7, 51, 0
1, 113520, Lyric_t, "on "
1, 113520, Note_on_c, 3, 79, 108
1, 113520, Note_on_c, 9, 54, 72
1, 113520, Note_on_c, 9, 69, 33
1, 113520, Note_on_c, 9, 42, 54
1, 113520, Note_on_c, 12, 58, 32
1, 113533, Note_on_c, 7, 39, 0
1, 113560, Note_on_c, 12, 58, 0
1, 113572, Note_on_c, 9, 54, 0
1, 113577, Note_on_c, 9, 42, 0
1, 113584, Note_on_c, 11, 63, 0
1, 113585, Note_on_c, 9, 69, 0
1, 113615, Note_on_c, 7, 67, 0
1, 113639, Note_on_c, 11, 70, 0
1, 113640, Note_on_c, 9, 54, 39
1, 113640, Note_on_c, 9, 42, 44
1, 113640, Note_on_c, 9, 70, 54
1, 113640, Note_on_c, 11, 63, 43
1, 113640, Note_on_c, 12, 58, 52
1, 113653, Note_on_c, 7, 63, 0
1, 113670, Note_on_c, 9, 54, 0
1, 113685, Note_on_c, 7, 58, 0
1, 113688, Note_on_c, 9, 42, 0
1, 113690, Note_on_c, 11, 63, 0
1, 113705, Note_on_c, 11, 67, 0
1, 113707, Note_on_c, 12, 58, 0
1, 113712, Note_on_c, 3, 79, 0
1, 113720, Note_on_c, 6, 75, 0
1, 113739, Note_on_c, 9, 70, 0
1, 113743, Pitch_bend_c, 3, 3628
1, 113744, Note_on_c, 5, 67, 0
1, 113752, Note_on_c, 12, 67, 0
1, 113752, Note_on_c, 12, 63, 0
1, 113752, Note_on_c, 12, 58, 0
1, 113754, Pitch_bend_c, 3, 3159
1, 113760, Lyric_t, "her "
1, 113760, Note_on_c, 1, 38, 105
1, 113760, Note_on_c, 7, 65, 82
1, 113760, Note_on_c, 7, 62, 84
1, 113760, Note_on_c, 7, 58, 74
1, 113760, Note_on_c, 7, 38, 87
1, 113760, Note_on_c, 7, 50, 76
1, 113760, Note_on_c, 3, 79, 111
1, 113760, Note_on_c, 5, 65, 75
1, 113760, Note_on_c, 5, 62, 75
1, 113760, Note_on_c, 5, 53, 73
1, 113760, Note_on_c, 6, 74, 80
1, 113760, Note_on_c, 6, 65, 90
1, 113760, Note_on_c, 6, 86, 58
1, 113760, Note_on_c, 8, 65, 82
1, 113760, Note_on_c, 9, 46, 102
1, 113760, Note_on_c, 9, 38, 111
1, 113760, Note_on_c, 9, 69, 39
1, 113760, Note_on_c, 9, 54, 81
1, 113760, Note_on_c, 11, 70, 96
1, 113760, Note_on_c, 11, 65, 90
1, 113760, Note_on_c, 12, 62, 93
1, 113760, Note_on_c, 12, 58, 96
1, 113760, Note_on_c, 12, 65, 87
1, 113760, Note_on_c, 2, 77, 74
1, 113760, Note_on_c, 2, 74, 72
1, 113760, Note_on_c, 13, 65, 82
1, 113761, Note_on_c, 8, 67, 0
1, 113761, Note_on_c, 13, 67, 0
1, 113763, Note_on_c, 5, 55, 0
1, 113765, Pitch_bend_c, 3, 3011
1, 113766, Note_on_c, 5, 63, 0
1, 113773, Note_on_c, 1, 39, 0
1, 113774, Note_on_c, 2, 75, 0
1, 113776, Pitch_bend_c, 3, 3110
1, 113786, Pitch_bend_c, 3, 3456
1, 113788, Control_c, 7, 64, 0
1, 113797, Pitch_bend_c, 3, 4146
1, 113797, Note_on_c, 6, 87, 0
1, 113808, Pitch_bend_c, 3, 5380
1, 113810, Note_on_c, 9, 54, 0
1, 113810, Note_on_c, 2, 79, 0
1, 113819, Pitch_bend_c, 3, 6934
1, 113824, Note_on_c, 6, 67, 0
1, 113829, Pitch_bend_c, 3, 8192
1, 113834, Note_on_c, 9, 69, 0
1, 113864, Note_on_c, 9, 46, 0
1, 113874, Control_c, 7, 64, 127
1, 113880, Note_on_c, 9, 70, 51
1, 113880, Note_on_c, 9, 54, 36
1, 113929, Note_on_c, 9, 54, 0
1, 113938, Note_on_c, 9, 38, 0
1, 113964, Note_on_c, 7, 62, 0
1, 113974, Note_on_c, 3, 79, 0
1, 113975, Note_on_c, 9, 70, 0
1, 113980, Note_on_c, 7, 65, 0
1, 113985, Note_on_c, 7, 50, 0
1, 113991, Note_on_c, 7, 38, 0
1, 113997, Note_on_c, 7, 58, 0
1, 114000, Lyric_t, "face "
1, 114000, Lyric_t, "\015"
1, 114000, Note_on_c, 3, 75, 108
1, 114000, Note_on_c, 9, 46, 102
1, 114000, Note_on_c, 9, 54, 66
1, 114000, Note_on_c, 9, 69, 44
1, 114056, Note_on_c, 9, 54, 0
1, 114057, Note_on_c, 11, 65, 0
1, 114062, Note_on_c, 9, 69, 0
1, 114078, Note_on_c, 1, 38, 0
1, 114090, Note_on_c, 9, 46, 0
1, 114116, Note_on_c, 6, 65, 0
1, 114120, Note_on_c, 1, 38, 87
1, 114120, Note_on_c, 9, 54, 26
1, 114120, Note_on_c, 9, 36, 61
1, 114120, Note_on_c, 9, 70, 56
1, 114120, Note_on_c, 11, 65, 64
1, 114120, Note_on_c, 12, 58, 78
1, 114157, Note_on_c, 9, 54, 0
1, 114158, Note_on_c, 9, 36, 0
1, 114187, Note_on_c, 11, 65, 0
1, 114192, Note_on_c, 11, 70, 0
1, 114208, Note_on_c, 9, 70, 0
1, 114237, Note_on_c, 6, 86, 0
1, 114238, Note_on_c, 2, 74, 0
1, 114240, Note_on_c, 1, 36, 102
1, 114240, Note_on_c, 7, 55, 66
1, 114240, Note_on_c, 7, 60, 82
1, 114240, Note_on_c, 7, 63, 87
1, 114240, Note_on_c, 7, 48, 80
1, 114240, Note_on_c, 7, 36, 90
1, 114240, Note_on_c, 5, 55, 73
1, 114240, Note_on_c, 5, 63, 86
1, 114240, Note_on_c, 5, 60, 81
1, 114240, Note_on_c, 6, 63, 93
1, 114240, Note_on_c, 6, 72, 80
1, 114240, Note_on_c, 6, 84, 72
1, 114240, Note_on_c, 8, 63, 80
1, 114240, Note_on_c, 9, 54, 86
1, 114240, Note_on_c, 9, 42, 99
1, 114240, Note_on_c, 9, 69, 42
1, 114240, Note_on_c, 9, 36, 111
1, 114240, Note_on_c, 11, 70, 80
1, 114240, Note_on_c, 11, 67, 90
1, 114240, Note_on_c, 2, 72, 68
1, 114240, Note_on_c, 2, 75, 74
1, 114240, Note_on_c, 13, 63, 80
1, 114243, Note_on_c, 6, 74, 0
1, 114252, Note_on_c, 12, 58, 0
1, 114257, Note_on_c, 1, 38, 0
1, 114259, Control_c, 7, 64, 0
1, 114259, Note_on_c, 2, 77, 0
1, 114264, Note_on_c, 5, 53, 0
1, 114268, Note_on_c, 5, 62, 0
1, 114281, Note_on_c, 5, 58, 0
1, 114291, Note_on_c, 8, 65, 0
1, 114291, Note_on_c, 13, 65, 0
1, 114294, Note_on_c, 5, 65, 0
1, 114294, Note_on_c, 9, 54, 0
1, 114299, Note_on_c, 9, 42, 0
1, 114300, Note_on_c, 9, 69, 0
1, 114351, Note_on_c, 12, 62, 0
1, 114351, Note_on_c, 12, 58, 0
1, 114351, Note_on_c, 12, 65, 0
1, 114360, Note_on_c, 9, 70, 54
1, 114360, Note_on_c, 9, 54, 27
1, 114360, Note_on_c, 9, 42, 54
1, 114360, Note_on_c, 12, 60, 80
1, 114360, Note_on_c, 12, 63, 76
1, 114360, Note_on_c, 12, 67, 74
1, 114390, Note_on_c, 9, 54, 0
1, 114401, Note_on_c, 9, 42, 0
1, 114448, Note_on_c, 9, 70, 0
1, 114453, Note_on_c, 9, 36, 0
1, 114475, Note_on_c, 12, 60, 0
1, 114475, Note_on_c, 12, 63, 0
1, 114475, Note_on_c, 12, 67, 0
1, 114477, Note_on_c, 3, 75, 0
1, 114480, Note_on_c, 9, 69, 50
1, 114480, Note_on_c, 9, 42, 84
1, 114480, Note_on_c, 9, 54, 68
1, 114480, Note_on_c, 12, 60, 87
1, 114480, Note_on_c, 12, 67, 93
1, 114480, Note_on_c, 12, 63, 87
1, 114506, Note_on_c, 11, 67, 0
1, 114527, Note_on_c, 9, 42, 0
1, 114532, Note_on_c, 9, 54, 0
1, 114536, Note_on_c, 9, 69, 0
1, 114566, Note_on_c, 11, 70, 0
1, 114600, Note_on_c, 9, 54, 23
1, 114600, Note_on_c, 9, 42, 54
1, 114600, Note_on_c, 9, 70, 56
1, 114600, Note_on_c, 11, 67, 87
1, 114600, Note_on_c, 11, 70, 74
1, 114600, Note_on_c, 11, 63, 74
1, 114637, Note_on_c, 9, 42, 0
1, 114664, Note_on_c, 9, 54, 0
1, 114691, Note_on_c, 9, 70, 0
1, 114712, Note_on_c, 8, 50, 70
1, 114714, Note_on_c, 12, 60, 0
1, 114714, Note_on_c, 12, 67, 0
1, 114714, Note_on_c, 12, 63, 0
1, 114720, Note_on_c, 9, 69, 41
1, 114720, Note_on_c, 9, 54, 83
1, 114720, Note_on_c, 9, 42, 99
1, 114720, Note_on_c, 9, 38, 111
1, 114720, Note_on_c, 12, 60, 93
1, 114720, Note_on_c, 12, 67, 90
1, 114720, Note_on_c, 12, 63, 72
1, 114725, Note_on_c, 8, 63, 0
1, 114734, Note_on_c, 13, 62, 87
1, 114750, Note_on_c, 13, 63, 99
1, 114754, Note_on_c, 8, 51, 68
1, 114769, Note_on_c, 9, 69, 0
1, 114769, Note_on_c, 9, 54, 0
1, 114780, Note_on_c, 8, 50, 0
1, 114787, Note_on_c, 9, 42, 0
1, 114802, Note_on_c, 13, 62, 0
1, 114840, Note_on_c, 9, 70, 48
1, 114840, Note_on_c, 9, 54, 30
1, 114840, Note_on_c, 9, 42, 37
1, 114862, Note_on_c, 9, 38, 0
1, 114872, Note_on_c, 9, 54, 0
1, 114882, Note_on_c, 9, 42, 0
1, 114918, Note_on_c, 11, 63, 0
1, 114928, Note_on_c, 11, 70, 0
1, 114937, Note_on_c, 9, 70, 0
1, 114960, Note_on_c, 9, 69, 53
1, 114960, Note_on_c, 9, 54, 75
1, 114960, Note_on_c, 9, 42, 84
1, 115011, Note_on_c, 9, 42, 0
1, 115012, Note_on_c, 9, 54, 0
1, 115031, Note_on_c, 9, 69, 0
1, 115066, Note_on_c, 1, 36, 0
1, 115080, Note_on_c, 1, 36, 105
1, 115080, Note_on_c, 9, 36, 108
1, 115080, Note_on_c, 9, 42, 42
1, 115080, Note_on_c, 9, 54, 36
1, 115080, Note_on_c, 12, 60, 57
1, 115089, Note_on_c, 13, 63, 0
1, 115091, Note_on_c, 13, 70, 102
1, 115105, Note_on_c, 9, 54, 0
1, 115108, Note_on_c, 9, 42, 0
1, 115133, Note_on_c, 12, 60, 0
1, 115148, Note_on_c, 13, 63, 0
1, 115183, Note_on_c, 8, 51, 0
1, 115191, Note_on_c, 9, 36, 0
1, 115192, Note_on_c, 12, 60, 0
1, 115192, Note_on_c, 12, 67, 0
1, 115192, Note_on_c, 12, 63, 0
1, 115200, Note_on_c, 7, 48, 62
1, 115200, Note_on_c, 7, 62, 74
1, 115200, Note_on_c, 7, 36, 76
1, 115200, Note_on_c, 9, 42, 87
1, 115200, Note_on_c, 9, 54, 78
1, 115200, Note_on_c, 9, 69, 27
1, 115200, Note_on_c, 12, 60, 84
1, 115200, Note_on_c, 12, 67, 87
1, 115209, Note_on_c, 7, 48, 0
1, 115216, Note_on_c, 7, 36, 0
1, 115221, Note_on_c, 7, 60, 0
1, 115223, Note_on_c, 7, 63, 0
1, 115223, Note_on_c, 8, 50, 47
1, 115226, Note_on_c, 7, 55, 0
1, 115241, Note_on_c, 8, 51, 64
1, 115255, Note_on_c, 9, 42, 0
1, 115258, Note_on_c, 9, 54, 0
1, 115279, Note_on_c, 8, 50, 0
1, 115286, Note_on_c, 9, 69, 0
1, 115294, Note_on_c, 1, 36, 0
1, 115320, Note_on_c, 1, 36, 87
1, 115320, Note_on_c, 7, 63, 74
1, 115320, Control_c, 7, 64, 127
1, 115320, Note_on_c, 9, 36, 82
1, 115320, Note_on_c, 9, 70, 45
1, 115320, Note_on_c, 9, 42, 51
1, 115320, Note_on_c, 9, 54, 38
1, 115320, Note_on_c, 11, 63, 44
1, 115320, Note_on_c, 11, 70, 51
1, 115352, Note_on_c, 9, 54, 0
1, 115357, Note_on_c, 9, 36, 0
1, 115358, Note_on_c, 9, 42, 0
1, 115369, Note_on_c, 1, 36, 0
1, 115414, Note_on_c, 11, 63, 0
1, 115416, Note_on_c, 9, 70, 0
1, 115440, Note_on_c, 1, 36, 99
1, 115440, Note_on_c, 7, 70, 90
1, 115440, Note_on_c, 9, 54, 70
1, 115440, Note_on_c, 9, 69, 33
1, 115440, Note_on_c, 9, 42, 74
1, 115440, Note_on_c, 9, 36, 108
1, 115469, Note_on_c, 11, 70, 0
1, 115491, Note_on_c, 9, 54, 0
1, 115494, Note_on_c, 9, 42, 0
1, 115505, Note_on_c, 9, 69, 0
1, 115517, Note_on_c, 7, 48, 0
1, 115538, Note_on_c, 7, 62, 0
1, 115560, Note_on_c, 9, 70, 54
1, 115560, Note_on_c, 9, 42, 59
1, 115560, Note_on_c, 9, 54, 33
1, 115560, Note_on_c, 11, 63, 29
1, 115577, Note_on_c, 9, 36, 0
1, 115585, Note_on_c, 11, 63, 0
1, 115594, Note_on_c, 9, 54, 0
1, 115598, Note_on_c, 9, 42, 0
1, 115655, Note_on_c, 11, 67, 0
1, 115659, Note_on_c, 9, 70, 0
1, 115672, Note_on_c, 12, 60, 0
1, 115672, Note_on_c, 12, 67, 0
1, 115680, Note_on_c, 7, 48, 55
1, 115680, Note_on_c, 9, 38, 114
1, 115680, Note_on_c, 9, 46, 105
1, 115680, Note_on_c, 9, 54, 83
1, 115680, Note_on_c, 9, 69, 39
1, 115680, Note_on_c, 11, 67, 51
1, 115680, Note_on_c, 11, 63, 70
1, 115680, Note_on_c, 11, 70, 93
1, 115680, Note_on_c, 12, 60, 90
1, 115680, Note_on_c, 12, 67, 93
1, 115731, Note_on_c, 9, 54, 0
1, 115748, Note_on_c, 9, 46, 0
1, 115754, Note_on_c, 9, 69, 0
1, 115800, Note_on_c, 5, 51, 11
1, 115800, Note_on_c, 9, 70, 51
1, 115800, Note_on_c, 9, 54, 33
1, 115811, Note_on_c, 7, 63, 0
1, 115821, Note_on_c, 9, 38, 0
1, 115841, Note_on_c, 9, 54, 0
1, 115895, Note_on_c, 9, 70, 0
1, 115905, Note_on_c, 1, 36, 0
1, 115920, Lyric_t, "when "
1, 115920, Note_on_c, 1, 31, 102
1, 115920, Note_on_c, 7, 60, 68
1, 115920, Note_on_c, 3, 75, 108
1, 115920, Note_on_c, 9, 42, 82
1, 115920, Note_on_c, 9, 69, 44
1, 115920, Note_on_c, 9, 54, 68
1, 115920, Note_on_c, 9, 36, 96
1, 115939, Note_on_c, 6, 84, 0
1, 115952, Note_on_c, 7, 70, 0
1, 115968, Note_on_c, 11, 63, 0
1, 115972, Note_on_c, 9, 54, 0
1, 115973, Note_on_c, 3, 75, 0
1, 115974, Note_on_c, 9, 36, 0
1, 115978, Note_on_c, 9, 42, 0
1, 115982, Note_on_c, 9, 69, 0
1, 115986, Note_on_c, 11, 67, 0
1, 116023, Control_c, 7, 64, 0
1, 116039, Note_on_c, 2, 72, 0
1, 116040, Lyric_t, "she "
1, 116040, Note_on_c, 7, 62, 64
1, 116040, Note_on_c, 3, 75, 108
1, 116040, Note_on_c, 9, 70, 56
1, 116040, Note_on_c, 9, 42, 82
1, 116040, Note_on_c, 9, 54, 42
1, 116040, Note_on_c, 11, 67, 55
1, 116040, Note_on_c, 12, 60, 50
1, 116043, Note_on_c, 7, 60, 0
1, 116045, Note_on_c, 11, 70, 0
1, 116072, Note_on_c, 9, 42, 0
1, 116078, Note_on_c, 9, 54, 0
1, 116079, Note_on_c, 12, 60, 0
1, 116086, Note_on_c, 13, 70, 0
1, 116089, Note_on_c, 11, 67, 0
1, 116094, Note_on_c, 7, 48, 0
1, 116095, Note_on_c, 7, 36, 0
1, 116097, Note_on_c, 6, 72, 0
1, 116122, Note_on_c, 7, 62, 0
1, 116128, Note_on_c, 9, 70, 0
1, 116131, Note_on_c, 6, 63, 0
1, 116149, Note_on_c, 3, 75, 0
1, 116160, Time_signature, 4, 2, 24, 8
1, 116160, Lyric_t, "thought "
1, 116160, Note_on_c, 1, 32, 111
1, 116160, Note_on_c, 7, 63, 84
1, 116160, Note_on_c, 7, 44, 90
1, 116160, Note_on_c, 7, 60, 78
1, 116160, Note_on_c, 3, 82, 114
1, 116160, Note_on_c, 5, 63, 81
1, 116160, Note_on_c, 5, 60, 75
1, 116160, Note_on_c, 5, 56, 70
1, 116160, Note_on_c, 5, 51, 78
1, 116160, Note_on_c, 6, 75, 84
1, 116160, Note_on_c, 6, 72, 87
1, 116160, Note_on_c, 6, 87, 37
1, 116160, Note_on_c, 9, 69, 51
1, 116160, Note_on_c, 9, 42, 102
1, 116160, Note_on_c, 9, 36, 111
1, 116160, Note_on_c, 9, 54, 86
1, 116160, Note_on_c, 11, 63, 57
1, 116160, Note_on_c, 11, 60, 54
1, 116160, Note_on_c, 12, 63, 82
1, 116160, Note_on_c, 12, 60, 87
1, 116160, Note_on_c, 12, 56, 108
1, 116160, Note_on_c, 2, 72, 61
1, 116162, Note_on_c, 5, 55, 0
1, 116170, Note_on_c, 5, 63, 0
1, 116173, Note_on_c, 1, 31, 0
1, 116176, Note_on_c, 5, 60, 0
1, 116186, Note_on_c, 5, 51, 0
1, 116205, Note_on_c, 8, 51, 0
1, 116208, Control_c, 7, 64, 127
1, 116216, Note_on_c, 9, 42, 0
1, 116216, Note_on_c, 9, 54, 0
1, 116240, Note_on_c, 9, 69, 0
1, 116248, Lyric_t, "up "
1, 116248, Lyric_t, "\015"
1, 116280, Lyric_t, "that "
1, 116280, Note_on_c, 3, 79, 102
1, 116280, Note_on_c, 9, 42, 76
1, 116280, Note_on_c, 9, 54, 39
1, 116280, Note_on_c, 9, 70, 54
1, 116312, Note_on_c, 3, 82, 0
1, 116313, Note_on_c, 9, 42, 0
1, 116316, Note_on_c, 9, 54, 0
1, 116319, Note_on_c, 11, 60, 0
1, 116329, Note_on_c, 3, 79, 0
1, 116350, Note_on_c, 12, 56, 0
1, 116366, Note_on_c, 9, 36, 0
1, 116373, Note_on_c, 9, 70, 0
1, 116400, Lyric_t, "I "
1, 116400, Note_on_c, 7, 60, 45
1, 116400, Note_on_c, 3, 79, 96
1, 116400, Note_on_c, 9, 54, 61
1, 116400, Note_on_c, 9, 69, 44
1, 116400, Note_on_c, 9, 42, 84
1, 116400, Note_on_c, 11, 60, 49
1, 116400, Note_on_c, 12, 56, 64
1, 116407, Note_on_c, 7, 60, 0
1, 116436, Note_on_c, 3, 79, 0
1, 116451, Note_on_c, 9, 42, 0
1, 116452, Note_on_c, 9, 54, 0
1, 116473, Note_on_c, 9, 69, 0
1, 116520, Lyric_t, "should "
1, 116520, Note_on_c, 3, 79, 102
1, 116520, Note_on_c, 3, 79, 102
1, 116520, Note_on_c, 9, 54, 30
1, 116520, Note_on_c, 9, 42, 70
1, 116520, Note_on_c, 9, 70, 56
1, 116540, Note_on_c, 3, 79, 0
1, 116544, Note_on_c, 12, 56, 0
1, 116553, Note_on_c, 9, 42, 0
1, 116561, Note_on_c, 3, 79, 0
1, 116570, Note_on_c, 9, 54, 0
1, 116577, Note_on_c, 11, 63, 0
1, 116590, Note_on_c, 11, 60, 0
1, 116601, Note_on_c, 12, 60, 0
1, 116613, Control_c, 7, 64, 0
1, 116619, Control_c, 7, 64, 127
1, 116622, Note_on_c, 9, 70, 0
1, 116627, Note_on_c, 12, 60, 0
1, 116627, Note_on_c, 12, 67, 0
1, 116640, Lyric_t, "be "
1, 116640, Note_on_c, 7, 56, 66
1, 116640, Note_on_c, 7, 70, 90
1, 116640, Note_on_c, 3, 82, 108
1, 116640, Note_on_c, 8, 70, 87
1, 116640, Note_on_c, 9, 42, 102
1, 116640, Note_on_c, 9, 69, 32
1, 116640, Note_on_c, 9, 38, 111
1, 116640, Note_on_c, 9, 54, 78
1, 116640, Note_on_c, 11, 63, 87
1, 116640, Note_on_c, 11, 60, 90
1, 116640, Note_on_c, 11, 70, 96
1, 116640, Note_on_c, 12, 60, 76
1, 116640, Note_on_c, 12, 56, 90
1, 116640, Note_on_c, 12, 68, 93
1, 116640, Note_on_c, 13, 70, 87
1, 116678, Note_on_c, 7, 60, 0
1, 116695, Note_on_c, 9, 42, 0
1, 116696, Note_on_c, 9, 54, 0
1, 116719, Note_on_c, 9, 69, 0
1, 116760, Lyric_t, "with "
1, 116760, Note_on_c, 3, 75, 105
1, 116760, Note_on_c, 9, 70, 53
1, 116760, Note_on_c, 9, 42, 37
1, 116760, Note_on_c, 9, 54, 27
1, 116765, Note_on_c, 3, 82, 0
1, 116797, Note_on_c, 9, 42, 0
1, 116799, Note_on_c, 9, 54, 0
1, 116807, Note_on_c, 9, 38, 0
1, 116830, Note_on_c, 7, 56, 0
1, 116847, Note_on_c, 7, 70, 0
1, 116848, Note_on_c, 9, 70, 0
1, 116858, Note_on_c, 3, 75, 0
1, 116880, Lyric_t, "you. "
1, 116880, Lyric_t, "\015"
1, 116880, Note_on_c, 7, 60, 51
1, 116880, Note_on_c, 7, 51, 57
1, 116880, Note_on_c, 3, 75, 105
1, 116880, Note_on_c, 9, 42, 84
1, 116880, Note_on_c, 9, 69, 45
1, 116880, Note_on_c, 9, 54, 68
1, 116903, Note_on_c, 7, 63, 0
1, 116926, Note_on_c, 7, 60, 0
1, 116929, Note_on_c, 9, 54, 0
1, 116933, Note_on_c, 9, 42, 0
1, 116939, Note_on_c, 11, 60, 0
1, 116951, Note_on_c, 9, 69, 0
1, 116970, Note_on_c, 7, 44, 0
1, 117000, Note_on_c, 9, 54, 40
1, 117000, Note_on_c, 9, 70, 51
1, 117000, Note_on_c, 9, 42, 70
1, 117000, Note_on_c, 11, 60, 36
1, 117000, Note_on_c, 12, 56, 55
1, 117000, Note_on_c, 12, 60, 34
1, 117028, Note_on_c, 12, 60, 0
1, 117033, Note_on_c, 9, 42, 0
1, 117037, Note_on_c, 9, 54, 0
1, 117043, Note_on_c, 5, 56, 0
1, 117077, Note_on_c, 11, 60, 0
1, 117084, Note_on_c, 7, 51, 0
1, 117084, Note_on_c, 9, 70, 0
1, 117102, Note_on_c, 2, 75, 0
1, 117103, Note_on_c, 11, 63, 0
1, 117109, Note_on_c, 5, 63, 0
1, 117110, Note_on_c, 6, 87, 0
1, 117111, Control_c, 7, 64, 0
1, 117114, Note_on_c, 1, 32, 0
1, 117115, Note_on_c, 12, 56, 0
1, 117120, Note_on_c, 1, 34, 102
1, 117120, Note_on_c, 7, 62, 82
1, 117120, Note_on_c, 7, 46, 84
1, 117120, Note_on_c, 7, 65, 87
1, 117120, Note_on_c, 5, 65, 73
1, 117120, Note_on_c, 5, 58, 70
1, 117120, Note_on_c, 5, 62, 81
1, 117120, Note_on_c, 5, 53, 99
1, 117120, Note_on_c, 6, 77, 80
1, 117120, Note_on_c, 6, 74, 84
1, 117120, Note_on_c, 6, 89, 34
1, 117120, Note_on_c, 9, 36, 108
1, 117120, Note_on_c, 9, 69, 32
1, 117120, Note_on_c, 9, 54, 89
1, 117120, Note_on_c, 9, 42, 99
1, 117120, Note_on_c, 2, 74, 70
1, 117120, Note_on_c, 2, 70, 54
1, 117129, Note_on_c, 2, 72, 0
1, 117133, Note_on_c, 5, 51, 0
1, 117137, Note_on_c, 6, 75, 0
1, 117139, Note_on_c, 6, 72, 0
1, 117151, Note_on_c, 5, 60, 0
1, 117151, Note_on_c, 12, 63, 0
1, 117172, Note_on_c, 9, 54, 0
1, 117187, Note_on_c, 3, 75, 0
1, 117192, Note_on_c, 9, 42, 0
1, 117193, Note_on_c, 9, 69, 0
1, 117220, Control_c, 7, 64, 127
1, 117231, Note_on_c, 12, 60, 0
1, 117231, Note_on_c, 12, 56, 0
1, 117231, Note_on_c, 12, 68, 0
1, 117240, Note_on_c, 9, 54, 18
1, 117240, Note_on_c, 9, 42, 34
1, 117240, Note_on_c, 9, 70, 41
1, 117240, Note_on_c, 12, 58, 72
1, 117240, Note_on_c, 12, 62, 76
1, 117240, Note_on_c, 12, 65, 74
1, 117261, Note_on_c, 9, 36, 0
1, 117266, Note_on_c, 9, 54, 0
1, 117283, Note_on_c, 9, 42, 0
1, 117293, Note_on_c, 11, 70, 0
1, 117335, Note_on_c, 1, 34, 0
1, 117347, Note_on_c, 9, 70, 0
1, 117360, Note_on_c, 1, 34, 96
1, 117360, Note_on_c, 7, 58, 52
1, 117360, Note_on_c, 9, 36, 108
1, 117360, Note_on_c, 9, 54, 68
1, 117360, Note_on_c, 9, 42, 84
1, 117360, Note_on_c, 9, 69, 44
1, 117360, Note_on_c, 11, 65, 87
1, 117360, Note_on_c, 11, 62, 87
1, 117360, Note_on_c, 11, 70, 87
1, 117360, Note_on_c, 12, 58, 84
1, 117408, Note_on_c, 9, 54, 0
1, 117426, Note_on_c, 9, 42, 0
1, 117431, Note_on_c, 9, 69, 0
1, 117436, Note_on_c, 8, 70, 0
1, 117436, Note_on_c, 13, 70, 0
1, 117475, Note_on_c, 7, 62, 0
1, 117480, Note_on_c, 9, 42, 59
1, 117480, Note_on_c, 9, 70, 51
1, 117480, Note_on_c, 9, 54, 45
1, 117487, Note_on_c, 9, 36, 0
1, 117512, Note_on_c, 7, 58, 0
1, 117524, Note_on_c, 9, 54, 0
1, 117526, Note_on_c, 9, 42, 0
1, 117553, Note_on_c, 12, 58, 0
1, 117577, Note_on_c, 9, 70, 0
1, 117593, Note_on_c, 12, 58, 0
1, 117593, Note_on_c, 12, 62, 0
1, 117593, Note_on_c, 12, 65, 0
1, 117600, Note_on_c, 7, 62, 74
1, 117600, Note_on_c, 7, 53, 78
1, 117600, Note_on_c, 8, 58, 82
1, 117600, Note_on_c, 9, 38, 114
1, 117600, Note_on_c, 9, 42, 90
1, 117600, Note_on_c, 9, 69, 33
1, 117600, Note_on_c, 9, 54, 83
1, 117600, Note_on_c, 12, 62, 68
1, 117600, Note_on_c, 12, 65, 78
1, 117600, Note_on_c, 12, 58, 99
1, 117600, Note_on_c, 13, 62, 82
1, 117642, Note_on_c, 11, 62, 0
1, 117653, Note_on_c, 9, 54, 0
1, 117656, Note_on_c, 11, 65, 0
1, 117660, Note_on_c, 9, 42, 0
1, 117680, Note_on_c, 9, 69, 0
1, 117696, Note_on_c, 11, 70, 0
1, 117720, Note_on_c, 8, 60, 44
1, 117720, Note_on_c, 9, 54, 44
1, 117720, Note_on_c, 9, 42, 72
1, 117720, Note_on_c, 9, 70, 43
1, 117720, Note_on_c, 11, 65, 31
1, 117720, Note_on_c, 11, 62, 50
1, 117720, Note_on_c, 13, 63, 44
1, 117765, Note_on_c, 8, 58, 0
1, 117765, Note_on_c, 13, 62, 0
1, 117767, Note_on_c, 9, 54, 0
1, 117774, Note_on_c, 9, 42, 0
1, 117784, Note_on_c, 9, 38, 0
1, 117792, Note_on_c, 7, 46, 0
1, 117799, Note_on_c, 1, 34, 0
1, 117802, Note_on_c, 11, 62, 0
1, 117806, Note_on_c, 9, 70, 0
1, 117830, Note_on_c, 7, 62, 0
1, 117840, Note_on_c, 1, 34, 68
1, 117840, Note_on_c, 7, 60, 49
1, 117840, Note_on_c, 8, 62, 64
1, 117840, Note_on_c, 9, 46, 96
1, 117840, Note_on_c, 9, 54, 70
1, 117840, Note_on_c, 9, 69, 48
1, 117840, Note_on_c, 11, 70, 84
1, 117840, Note_on_c, 11, 62, 82
1, 117840, Note_on_c, 2, 77, 72
1, 117840, Note_on_c, 13, 65, 64
1, 117841, Note_on_c, 2, 70, 0
1, 117845, Note_on_c, 8, 60, 0
1, 117845, Note_on_c, 13, 63, 0
1, 117890, Note_on_c, 9, 54, 0
1, 117900, Note_on_c, 9, 46, 0
1, 117903, Note_on_c, 9, 69, 0
1, 117938, Note_on_c, 7, 60, 0
1, 117958, Note_on_c, 1, 34, 0
1, 117959, Note_on_c, 8, 62, 0
1, 117959, Note_on_c, 13, 65, 0
1, 117960, Note_on_c, 1, 36, 76
1, 117960, Note_on_c, 7, 62, 61
1, 117960, Note_on_c, 8, 60, 61
1, 117960, Note_on_c, 9, 70, 56
1, 117960, Note_on_c, 9, 54, 35
1, 117960, Note_on_c, 12, 58, 47
1, 117960, Note_on_c, 13, 63, 61
1, 117964, Note_on_c, 7, 65, 0
1, 117964, Control_c, 7, 64, 0
1, 117991, Note_on_c, 11, 70, 0
1, 117994, Note_on_c, 7, 53, 0
1, 118006, Note_on_c, 9, 54, 0
1, 118011, Note_on_c, 12, 58, 0
1, 118019, Note_on_c, 11, 62, 0
1, 118029, Note_on_c, 11, 65, 0
1, 118042, Note_on_c, 1, 36, 0
1, 118049, Note_on_c, 8, 60, 0
1, 118049, Note_on_c, 13, 63, 0
1, 118061, Note_on_c, 6, 77, 0
1, 118063, Note_on_c, 7, 62, 0
1, 118070, Note_on_c, 9, 70, 0
1, 118072, Note_on_c, 12, 62, 0
1, 118072, Note_on_c, 12, 65, 0
1, 118072, Note_on_c, 12, 58, 0
1, 118076, Note_on_c, 6, 89, 0
1, 118080, Note_on_c, 1, 39, 105
1, 118080, Note_on_c, 7, 67, 84
1, 118080, Note_on_c, 7, 70, 84
1, 118080, Note_on_c, 7, 51, 99
1, 118080, Note_on_c, 7, 63, 84
1, 118080, Note_on_c, 5, 55, 105
1, 118080, Note_on_c, 5, 63, 84
1, 118080, Note_on_c, 5, 58, 90
1, 118080, Note_on_c, 6, 75, 87
1, 118080, Note_on_c, 6, 79, 84
1, 118080, Note_on_c, 6, 91, 52
1, 118080, Note_on_c, 8, 55, 70
1, 118080, Note_on_c, 9, 54, 86
1, 118080, Note_on_c, 9, 69, 42
1, 118080, Note_on_c, 9, 49, 99
1, 118080, Note_on_c, 9, 36, 111
1, 118080, Note_on_c, 11, 63, 87
1, 118080, Note_on_c, 11, 70, 87
1, 118080, Note_on_c, 11, 67, 90
1, 118080, Note_on_c, 12, 67, 84
1, 118080, Note_on_c, 12, 58, 87
1, 118080, Note_on_c, 12, 63, 80
1, 118080, Note_on_c, 2, 79, 82
1, 118080, Note_on_c, 2, 75, 78
1, 118082, Note_on_c, 2, 77, 0
1, 118089, Note_on_c, 2, 74, 0
1, 118099, Note_on_c, 6, 74, 0
1, 118100, Note_on_c, 5, 53, 0
1, 118128, Note_on_c, 5, 58, 0
1, 118133, Control_c, 7, 64, 127
1, 118134, Note_on_c, 5, 65, 0
1, 118134, Note_on_c, 9, 54, 0
1, 118135, Note_on_c, 5, 62, 0
1, 118140, Note_on_c, 9, 69, 0
1, 118153, Note_on_c, 9, 49, 0
1, 118200, Note_on_c, 9, 70, 54
1, 118200, Note_on_c, 9, 54, 27
1, 118230, Note_on_c, 9, 54, 0
1, 118273, Note_on_c, 12, 67, 0
1, 118274, Note_on_c, 12, 58, 0
1, 118288, Note_on_c, 9, 70, 0
1, 118315, Note_on_c, 7, 67, 0
1, 118320, Note_on_c, 7, 65, 78
1, 118320, Note_on_c, 9, 54, 68
1, 118320, Note_on_c, 9, 42, 61
1, 118320, Note_on_c, 9, 69, 50
1, 118320, Note_on_c, 12, 58, 39
1, 118328, Note_on_c, 9, 36, 0
1, 118342, Note_on_c, 7, 63, 0
1, 118346, Note_on_c, 9, 42, 0
1, 118364, Note_on_c, 7, 51, 0
1, 118372, Note_on_c, 9, 54, 0
1, 118376, Note_on_c, 9, 69, 0
1, 118378, Note_on_c, 12, 58, 0
1, 118384, Note_on_c, 11, 63, 0
1, 118428, Note_on_c, 7, 65, 0
1, 118439, Note_on_c, 11, 70, 0
1, 118440, Note_on_c, 7, 67, 62
1, 118440, Note_on_c, 9, 54, 23
1, 118440, Note_on_c, 9, 70, 56
1, 118440, Note_on_c, 9, 42, 47
1, 118440, Note_on_c, 11, 63, 43
1, 118440, Note_on_c, 12, 58, 62
1, 118440, Note_on_c, 12, 67, 62
1, 118443, Note_on_c, 7, 70, 0
1, 118461, Note_on_c, 9, 42, 0
1, 118490, Note_on_c, 11, 63, 0
1, 118492, Note_on_c, 12, 63, 0
1, 118499, Note_on_c, 12, 67, 0
1, 118504, Note_on_c, 9, 54, 0
1, 118505, Note_on_c, 11, 67, 0
1, 118511, Note_on_c, 12, 58, 0
1, 118528, Note_on_c, 7, 67, 0
1, 118531, Note_on_c, 9, 70, 0
1, 118543, Note_on_c, 1, 39, 0
1, 118552, Note_on_c, 6, 91, 0
1, 118556, Control_c, 7, 64, 0
1, 118560, Note_on_c, 1, 38, 102
1, 118560, Note_on_c, 7, 70, 80
1, 118560, Note_on_c, 7, 50, 99
1, 118560, Note_on_c, 7, 65, 93
1, 118560, Note_on_c, 5, 63, 0
1, 118560, Note_on_c, 5, 53, 96
1, 118560, Note_on_c, 5, 62, 84
1, 118560, Note_on_c, 6, 77, 93
1, 118560, Note_on_c, 6, 74, 82
1, 118560, Note_on_c, 6, 89, 64
1, 118560, Note_on_c, 8, 53, 64
1, 118560, Note_on_c, 9, 69, 41
1, 118560, Note_on_c, 9, 54, 83
1, 118560, Note_on_c, 9, 38, 111
1, 118560, Note_on_c, 9, 57, 90
1, 118560, Note_on_c, 11, 65, 90
1, 118560, Note_on_c, 11, 70, 96
1, 118560, Note_on_c, 12, 58, 80
1, 118560, Note_on_c, 12, 65, 87
1, 118560, Note_on_c, 12, 62, 84
1, 118560, Note_on_c, 2, 77, 72
1, 118560, Note_on_c, 2, 74, 70
1, 118565, Note_on_c, 6, 75, 0
1, 118567, Note_on_c, 2, 75, 0
1, 118572, Note_on_c, 5, 55, 0
1, 118572, Note_on_c, 6, 79, 0
1, 118578, Note_on_c, 2, 79, 0
1, 118590, Note_on_c, 8, 55, 0
1, 118609, Note_on_c, 9, 69, 0
1, 118609, Note_on_c, 9, 54, 0
1, 118644, Note_on_c, 9, 57, 0
1, 118680, Note_on_c, 9, 70, 48
1, 118680, Note_on_c, 9, 54, 30
1, 118706, Control_c, 7, 64, 127
1, 118712, Note_on_c, 9, 54, 0
1, 118743, Note_on_c, 12, 62, 0
1, 118753, Note_on_c, 9, 38, 0
1, 118767, Note_on_c, 12, 65, 0
1, 118771, Note_on_c, 12, 58, 0
1, 118777, Note_on_c, 9, 70, 0
1, 118794, Note_on_c, 7, 65, 0
1, 118800, Note_on_c, 7, 62, 72
1, 118800, Note_on_c, 9, 42, 62
1, 118800, Note_on_c, 9, 69, 53
1, 118800, Note_on_c, 9, 54, 75
1, 118800, Note_on_c, 12, 62, 37
1, 118800, Note_on_c, 12, 58, 34
1, 118846, Note_on_c, 9, 42, 0
1, 118848, Note_on_c, 12, 58, 0
1, 118852, Note_on_c, 9, 54, 0
1, 118857, Note_on_c, 11, 65, 0
1, 118871, Note_on_c, 9, 69, 0
1, 118885, Note_on_c, 12, 62, 0
1, 118920, Note_on_c, 7, 65, 58
1, 118920, Note_on_c, 9, 54, 36
1, 118920, Note_on_c, 9, 42, 68
1, 118920, Note_on_c, 11, 65, 64
1, 118920, Note_on_c, 12, 62, 58
1, 118920, Note_on_c, 12, 58, 72
1, 118920, Note_on_c, 12, 65, 59
1, 118935, Note_on_c, 7, 70, 0
1, 118945, Note_on_c, 9, 54, 0
1, 118957, Note_on_c, 5, 58, 0
1, 118959, Note_on_c, 7, 62, 0
1, 118959, Note_on_c, 9, 42, 0
1, 118968, Note_on_c, 12, 65, 0
1, 118976, Note_on_c, 12, 58, 0
1, 118983, Note_on_c, 7, 65, 0
1, 118987, Note_on_c, 11, 65, 0
1, 118992, Note_on_c, 11, 70, 0
1, 118996, Note_on_c, 12, 62, 0
1, 119015, Note_on_c, 7, 50, 0
1, 119038, Note_on_c, 6, 74, 0
1, 119040, Note_on_c, 1, 38, 0
1, 119040, Note_on_c, 1, 36, 105
1, 119040, Note_on_c, 7, 48, 93
1, 119040, Note_on_c, 7, 67, 80
1, 119040, Note_on_c, 7, 63, 74
1, 119040, Note_on_c, 5, 55, 93
1, 119040, Note_on_c, 5, 63, 72
1, 119040, Note_on_c, 5, 60, 76
1, 119040, Note_on_c, 6, 72, 80
1, 119040, Note_on_c, 6, 87, 64
1, 119040, Note_on_c, 6, 75, 76
1, 119040, Note_on_c, 8, 51, 62
1, 119040, Note_on_c, 9, 54, 78
1, 119040, Note_on_c, 9, 69, 27
1, 119040, Note_on_c, 9, 49, 93
1, 119040, Note_on_c, 9, 36, 111
1, 119040, Note_on_c, 11, 70, 80
1, 119040, Note_on_c, 11, 67, 90
1, 119040, Note_on_c, 12, 67, 84
1, 119040, Note_on_c, 12, 63, 80
1, 119040, Note_on_c, 12, 60, 96
1, 119040, Note_on_c, 2, 72, 62
1, 119040, Note_on_c, 2, 75, 76
1, 119041, Note_on_c, 5, 53, 0
1, 119049, Control_c, 7, 64, 0
1, 119056, Note_on_c, 8, 53, 0
1, 119062, Note_on_c, 6, 89, 0
1, 119069, Note_on_c, 6, 77, 0
1, 119070, Note_on_c, 5, 62, 0
1, 119073, Note_on_c, 2, 74, 0
1, 119080, Note_on_c, 2, 77, 0
1, 119098, Note_on_c, 9, 54, 0
1, 119126, Note_on_c, 9, 69, 0
1, 119160, Note_on_c, 9, 54, 38
1, 119160, Note_on_c, 9, 70, 45
1, 119192, Note_on_c, 9, 54, 0
1, 119193, Note_on_c, 9, 49, 0
1, 119210, Control_c, 7, 64, 127
1, 119256, Note_on_c, 9, 70, 0
1, 119271, Note_on_c, 12, 67, 0
1, 119277, Note_on_c, 7, 67, 0
1, 119280, Note_on_c, 7, 60, 61
1, 119280, Note_on_c, 9, 69, 33
1, 119280, Note_on_c, 9, 42, 62
1, 119280, Note_on_c, 9, 54, 70
1, 119280, Note_on_c, 12, 67, 34
1, 119306, Note_on_c, 11, 67, 0
1, 119315, Note_on_c, 12, 67, 0
1, 119320, Note_on_c, 9, 42, 0
1, 119321, Note_on_c, 7, 63, 0
1, 119331, Note_on_c, 9, 54, 0
1, 119345, Note_on_c, 9, 69, 0
1, 119364, Note_on_c, 12, 60, 0
1, 119366, Note_on_c, 11, 70, 0
1, 119372, Note_on_c, 9, 36, 0
1, 119378, Note_on_c, 12, 63, 0
1, 119400, Note_on_c, 9, 70, 54
1, 119400, Note_on_c, 9, 54, 33
1, 119400, Note_on_c, 9, 42, 54
1, 119400, Note_on_c, 11, 67, 87
1, 119400, Note_on_c, 11, 70, 74
1, 119400, Note_on_c, 11, 63, 74
1, 119400, Note_on_c, 12, 63, 54
1, 119400, Note_on_c, 12, 60, 51
1, 119434, Note_on_c, 9, 54, 0
1, 119446, Note_on_c, 9, 42, 0
1, 119455, Note_on_c, 12, 60, 0
1, 119471, Note_on_c, 12, 63, 0
1, 119499, Note_on_c, 9, 70, 0
1, 119506, Note_on_c, 7, 60, 0
1, 119518, Note_on_c, 8, 51, 0
1, 119520, Note_on_c, 7, 67, 82
1, 119520, Note_on_c, 7, 63, 72
1, 119520, Note_on_c, 8, 62, 84
1, 119520, Note_on_c, 9, 54, 83
1, 119520, Note_on_c, 9, 42, 55
1, 119520, Note_on_c, 9, 38, 111
1, 119520, Note_on_c, 9, 69, 39
1, 119520, Note_on_c, 12, 60, 84
1, 119520, Note_on_c, 12, 67, 87
1, 119520, Note_on_c, 12, 63, 68
1, 119520, Note_on_c, 13, 62, 84
1, 119568, Note_on_c, 9, 42, 0
1, 119571, Note_on_c, 9, 54, 0
1, 119594, Note_on_c, 9, 69, 0
1, 119640, Note_on_c, 8, 63, 76
1, 119640, Note_on_c, 9, 54, 33
1, 119640, Note_on_c, 9, 70, 51
1, 119640, Note_on_c, 13, 63, 76
1, 119657, Note_on_c, 8, 62, 0
1, 119657, Note_on_c, 13, 62, 0
1, 119670, Note_on_c, 9, 38, 0
1, 119681, Note_on_c, 9, 54, 0
1, 119718, Note_on_c, 11, 63, 0
1, 119728, Note_on_c, 11, 70, 0
1, 119735, Note_on_c, 9, 70, 0
1, 119760, Note_on_c, 7, 60, 44
1, 119760, Note_on_c, 9, 42, 47
1, 119760, Note_on_c, 9, 69, 44
1, 119760, Note_on_c, 9, 54, 68
1, 119763, Note_on_c, 12, 60, 0
1, 119788, Note_on_c, 12, 67, 0
1, 119812, Note_on_c, 9, 54, 0
1, 119814, Note_on_c, 9, 42, 0
1, 119822, Note_on_c, 9, 69, 0
1, 119833, Note_on_c, 7, 63, 0
1, 119880, Note_on_c, 8, 70, 87
1, 119880, Note_on_c, 9, 70, 56
1, 119880, Note_on_c, 9, 54, 42
1, 119880, Note_on_c, 9, 36, 78
1, 119880, Note_on_c, 9, 42, 47
1, 119880, Note_on_c, 12, 60, 33
1, 119880, Note_on_c, 13, 70, 87
1, 119889, Note_on_c, 8, 63, 0
1, 119889, Note_on_c, 13, 63, 0
1, 119910, Note_on_c, 9, 36, 0
1, 119917, Note_on_c, 9, 42, 0
1, 119918, Note_on_c, 9, 54, 0
1, 119934, Note_on_c, 12, 63, 0
1, 119941, Control_c, 7, 64, 0
1, 119957, Note_on_c, 12, 60, 0
1, 119963, Note_on_c, 1, 36, 0
1, 119968, Note_on_c, 9, 70, 0
1, 119984, Note_on_c, 6, 87, 0
1, 119991, Note_on_c, 7, 60, 0
1, 119999, Note_on_c, 7, 67, 0
1, 120000, Note_on_c, 1, 36, 87
1, 120000, Note_on_c, 7, 48, 0
1, 120000, Note_on_c, 7, 70, 59
1, 120000, Note_on_c, 7, 55, 39
1, 120000, Note_on_c, 7, 67, 72
1, 120000, Note_on_c, 7, 48, 68
1, 120000, Note_on_c, 7, 36, 68
1, 120000, Note_on_c, 7, 74, 78
1, 120000, Note_on_c, 6, 74, 90
1, 120000, Note_on_c, 6, 70, 70
1, 120000, Note_on_c, 6, 86, 8
1, 120000, Note_on_c, 9, 69, 51
1, 120000, Note_on_c, 9, 42, 78
1, 120000, Note_on_c, 9, 36, 111
1, 120000, Note_on_c, 9, 54, 86
1, 120000, Note_on_c, 12, 67, 90
1, 120000, Note_on_c, 12, 60, 80
1, 120000, Note_on_c, 12, 63, 76
1, 120001, Note_on_c, 6, 75, 0
1, 120009, Note_on_c, 6, 72, 0
1, 120027, Note_on_c, 7, 55, 0
1, 120056, Note_on_c, 9, 54, 0
1, 120080, Note_on_c, 9, 69, 0
1, 120081, Note_on_c, 9, 42, 0
1, 120092, Note_on_c, 9, 36, 0
1, 120120, Note_on_c, 9, 42, 45
1, 120120, Note_on_c, 9, 70, 54
1, 120120, Note_on_c, 9, 54, 39
1, 120120, Note_on_c, 11, 70, 51
1, 120120, Note_on_c, 11, 63, 44
1, 120156, Note_on_c, 9, 54, 0
1, 120165, Note_on_c, 9, 42, 0
1, 120196, Control_c, 7, 64, 127
1, 120210, Note_on_c, 1, 36, 0
1, 120213, Note_on_c, 9, 70, 0
1, 120214, Note_on_c, 11, 63, 0
1, 120240, Note_on_c, 1, 36, 99
1, 120240, Note_on_c, 9, 42, 55
1, 120240, Note_on_c, 9, 36, 108
1, 120240, Note_on_c, 9, 69, 44
1, 120240, Note_on_c, 9, 54, 61
1, 120269, Note_on_c, 11, 70, 0
1, 120292, Note_on_c, 9, 54, 0
1, 120304, Note_on_c, 12, 60, 0
1, 120308, Note_on_c, 12, 67, 0
1, 120311, Note_on_c, 9, 42, 0
1, 120313, Note_on_c, 9, 69, 0
1, 120338, Note_on_c, 7, 70, 0
1, 120346, Control_c, 2, 11, 122
1, 120352, Note_on_c, 7, 67, 0
1, 120356, Note_on_c, 9, 36, 0
1, 120360, Note_on_c, 9, 70, 56
1, 120360, Note_on_c, 9, 42, 49
1, 120360, Note_on_c, 9, 54, 30
1, 120360, Note_on_c, 11, 63, 29
1, 120360, Note_on_c, 12, 60, 37
1, 120376, Control_c, 2, 11, 121
1, 120377, Note_on_c, 7, 48, 0
1, 120385, Note_on_c, 11, 63, 0
1, 120401, Control_c, 2, 11, 120
1, 120403, Note_on_c, 9, 42, 0
1, 120410, Note_on_c, 9, 54, 0
1, 120425, Control_c, 2, 11, 119
1, 120440, Note_on_c, 12, 60, 0
1, 120449, Control_c, 2, 11, 118
1, 120455, Note_on_c, 11, 67, 0
1, 120457, Note_on_c, 12, 63, 0
1, 120462, Note_on_c, 9, 70, 0
1, 120480, Note_on_c, 7, 70, 57
1, 120480, Note_on_c, 7, 67, 51
1, 120480, Note_on_c, 7, 48, 46
1, 120480, Note_on_c, 9, 38, 105
1, 120480, Note_on_c, 9, 46, 76
1, 120480, Note_on_c, 9, 54, 78
1, 120480, Note_on_c, 9, 69, 32
1, 120480, Note_on_c, 11, 70, 93
1, 120480, Note_on_c, 11, 67, 51
1, 120480, Note_on_c, 11, 63, 70
1, 120480, Note_on_c, 12, 60, 76
1, 120480, Note_on_c, 12, 63, 74
1, 120480, Note_on_c, 12, 67, 87
1, 120480, Control_c, 2, 11, 117
1, 120504, Control_c, 2, 11, 116
1, 120528, Control_c, 2, 11, 115
1, 120536, Note_on_c, 9, 54, 0
1, 120553, Control_c, 2, 11, 114
1, 120555, Note_on_c, 9, 46, 0
1, 120559, Note_on_c, 9, 69, 0
1, 120583, Control_c, 2, 11, 113
1, 120600, Note_on_c, 9, 54, 27
1, 120600, Note_on_c, 9, 70, 53
1, 120607, Control_c, 2, 11, 112
1, 120629, Note_on_c, 9, 38, 0
1, 120632, Control_c, 2, 11, 111
1, 120634, Note_on_c, 7, 36, 0
1, 120639, Note_on_c, 9, 54, 0
1, 120656, Control_c, 2, 11, 110
1, 120676, Note_on_c, 7, 70, 0
1, 120686, Control_c, 2, 11, 109
1, 120688, Note_on_c, 9, 70, 0
1, 120689, Note_on_c, 7, 48, 0
1, 120694, Note_on_c, 12, 60, 0
1, 120697, Note_on_c, 1, 36, 0
1, 120711, Control_c, 2, 11, 108
1, 120720, Note_on_c, 1, 31, 99
1, 120720, Note_on_c, 7, 63, 41
1, 120720, Note_on_c, 9, 69, 45
1, 120720, Note_on_c, 9, 36, 70
1, 120720, Note_on_c, 9, 54, 68
1, 120720, Note_on_c, 9, 46, 90
1, 120735, Control_c, 2, 11, 107
1, 120736, Note_on_c, 7, 67, 0
1, 120759, Control_c, 2, 11, 106
1, 120768, Note_on_c, 11, 63, 0
1, 120769, Note_on_c, 9, 36, 0
1, 120769, Note_on_c, 9, 54, 0
1, 120784, Note_on_c, 9, 46, 0
1, 120786, Note_on_c, 11, 67, 0
1, 120790, Control_c, 2, 11, 105
1, 120791, Note_on_c, 9, 69, 0
1, 120800, Note_on_c, 12, 67, 0
1, 120814, Control_c, 2, 11, 104
1, 120833, Note_on_c, 7, 63, 0
1, 120838, Control_c, 2, 11, 103
1, 120840, Note_on_c, 7, 67, 61
1, 120840, Note_on_c, 9, 54, 40
1, 120840, Note_on_c, 9, 70, 51
1, 120840, Note_on_c, 11, 67, 55
1, 120840, Note_on_c, 12, 60, 54
1, 120845, Note_on_c, 11, 70, 0
1, 120847, Note_on_c, 7, 74, 0
1, 120862, Control_c, 2, 11, 102
1, 120877, Note_on_c, 9, 54, 0
1, 120878, Note_on_c, 12, 63, 0
1, 120889, Note_on_c, 11, 67, 0
1, 120893, Control_c, 2, 11, 101
1, 120912, Note_on_c, 12, 60, 0
1, 120917, Control_c, 2, 11, 100
1, 120924, Note_on_c, 9, 70, 0
1, 120941, Control_c, 2, 11, 99
1, 120960, Note_on_c, 1, 36, 105
1, 120960, Note_on_c, 7, 70, 76
1, 120960, Note_on_c, 7, 36, 58
1, 120960, Note_on_c, 5, 51, 54
1, 120960, Note_on_c, 6, 67, 74
1, 120960, Note_on_c, 6, 84, 62
1, 120960, Note_on_c, 6, 72, 74
1, 120960, Note_on_c, 9, 42, 99
1, 120960, Note_on_c, 9, 36, 111
1, 120960, Note_on_c, 9, 54, 89
1, 120960, Note_on_c, 9, 69, 32
1, 120960, Note_on_c, 12, 63, 46
1, 120960, Note_on_c, 12, 67, 78
1, 120960, Note_on_c, 12, 60, 70
1, 120966, Control_c, 2, 11, 98
1, 120969, Note_on_c, 1, 31, 0
1, 120976, Note_on_c, 6, 86, 0
1, 120983, Note_on_c, 6, 70, 0
1, 120986, Note_on_c, 5, 63, 0
1, 120990, Control_c, 2, 11, 97
1, 121001, Note_on_c, 6, 74, 0
1, 121012, Note_on_c, 9, 54, 0
1, 121016, Note_on_c, 9, 42, 0
1, 121020, Control_c, 2, 11, 96
1, 121033, Note_on_c, 9, 69, 0
1, 121045, Control_c, 2, 11, 95
1, 121048, Note_on_c, 7, 67, 0
1, 121069, Control_c, 2, 11, 94
1, 121080, Note_on_c, 9, 54, 18
1, 121080, Note_on_c, 9, 42, 41
1, 121080, Note_on_c, 9, 70, 41
1, 121080, Note_on_c, 11, 67, 37
1, 121080, Note_on_c, 11, 70, 44
1, 121093, Control_c, 2, 11, 93
1, 121100, Note_on_c, 9, 36, 0
1, 121106, Note_on_c, 9, 54, 0
1, 121124, Control_c, 2, 11, 92
1, 121135, Note_on_c, 9, 42, 0
1, 121148, Control_c, 2, 11, 91
1, 121172, Control_c, 2, 11, 90
1, 121187, Note_on_c, 9, 70, 0
1, 121197, Control_c, 2, 11, 89
1, 121200, Note_on_c, 7, 63, 31
1, 121200, Note_on_c, 9, 42, 57
1, 121200, Note_on_c, 9, 54, 68
1, 121200, Note_on_c, 9, 69, 44
1, 121227, Control_c, 2, 11, 88
1, 121245, Note_on_c, 12, 60, 0
1, 121248, Note_on_c, 9, 54, 0
1, 121251, Control_c, 2, 11, 87
1, 121258, Note_on_c, 9, 42, 0
1, 121260, Note_on_c, 7, 70, 0
1, 121266, Note_on_c, 12, 67, 0
1, 121271, Note_on_c, 9, 69, 0
1, 121271, Note_on_c, 12, 63, 0
1, 121276, Control_c, 2, 11, 86
1, 121300, Control_c, 2, 11, 85
1, 121320, Note_on_c, 9, 70, 51
1, 121320, Note_on_c, 9, 54, 45
1, 121320, Note_on_c, 9, 42, 48
1, 121320, Note_on_c, 12, 63, 54
1, 121320, Note_on_c, 12, 60, 66
1, 121325, Note_on_c, 8, 70, 0
1, 121325, Note_on_c, 13, 70, 0
1, 121330, Control_c, 2, 11, 84
1, 121353, Note_on_c, 9, 42, 0
1, 121355, Control_c, 2, 11, 83
1, 121364, Note_on_c, 9, 54, 0
1, 121369, Note_on_c, 11, 67, 0
1, 121371, Note_on_c, 7, 63, 0
1, 121379, Control_c, 2, 11, 82
1, 121383, Note_on_c, 11, 70, 0
1, 121384, Note_on_c, 12, 60, 0
1, 121403, Control_c, 2, 11, 81
1, 121410, Note_on_c, 12, 63, 0
1, 121417, Note_on_c, 9, 70, 0
1, 121434, Control_c, 2, 11, 80
1, 121440, Note_on_c, 7, 67, 49
1, 121440, Note_on_c, 7, 70, 54
1, 121440, Note_on_c, 7, 48, 43
1, 121440, Note_on_c, 8, 62, 72
1, 121440, Note_on_c, 9, 69, 33
1, 121440, Note_on_c, 9, 42, 102
1, 121440, Note_on_c, 9, 38, 114
1, 121440, Note_on_c, 9, 54, 83
1, 121440, Note_on_c, 11, 70, 48
1, 121440, Note_on_c, 11, 67, 64
1, 121440, Note_on_c, 12, 63, 76
1, 121440, Note_on_c, 12, 60, 70
1, 121440, Note_on_c, 12, 67, 90
1, 121440, Note_on_c, 13, 62, 72
1, 121458, Control_c, 2, 11, 79
1, 121482, Control_c, 2, 11, 78
1, 121493, Note_on_c, 9, 54, 0
1, 121504, Note_on_c, 9, 42, 0
1, 121507, Control_c, 2, 11, 77
1, 121520, Note_on_c, 9, 69, 0
1, 121537, Control_c, 2, 11, 76
1, 121553, Note_on_c, 9, 38, 0
1, 121560, Note_on_c, 8, 63, 61
1, 121560, Note_on_c, 9, 42, 34
1, 121560, Note_on_c, 9, 54, 44
1, 121560, Note_on_c, 9, 70, 43
1, 121560, Note_on_c, 13, 63, 61
1, 121561, Control_c, 2, 11, 75
1, 121586, Control_c, 2, 11, 74
1, 121607, Note_on_c, 9, 54, 0
1, 121610, Control_c, 2, 11, 73
1, 121616, Note_on_c, 8, 62, 0
1, 121616, Note_on_c, 13, 62, 0
1, 121621, Note_on_c, 9, 42, 0
1, 121634, Control_c, 2, 11, 72
1, 121646, Note_on_c, 9, 70, 0
1, 121657, Note_on_c, 7, 70, 0
1, 121665, Control_c, 2, 11, 71
1, 121669, Note_on_c, 7, 67, 0
1, 121680, Note_on_c, 7, 63, 33
1, 121680, Note_on_c, 9, 69, 48
1, 121680, Note_on_c, 9, 42, 37
1, 121680, Note_on_c, 9, 54, 70
1, 121689, Control_c, 2, 11, 70
1, 121691, Note_on_c, 7, 48, 0
1, 121710, Note_on_c, 11, 67, 0
1, 121713, Control_c, 2, 11, 69
1, 121717, Note_on_c, 12, 60, 0
1, 121728, Note_on_c, 7, 63, 0
1, 121730, Note_on_c, 9, 54, 0
1, 121734, Note_on_c, 12, 67, 0
1, 121737, Control_c, 2, 11, 68
1, 121740, Note_on_c, 9, 42, 0
1, 121743, Note_on_c, 9, 69, 0
1, 121768, Control_c, 2, 11, 67
1, 121776, Note_on_c, 11, 70, 0
1, 121792, Control_c, 2, 11, 66
1, 121800, Note_on_c, 8, 70, 72
1, 121800, Note_on_c, 9, 54, 35
1, 121800, Note_on_c, 9, 70, 56
1, 121800, Note_on_c, 9, 42, 54
1, 121800, Note_on_c, 9, 36, 108
1, 121800, Note_on_c, 11, 67, 28
1, 121800, Note_on_c, 12, 60, 47
1, 121800, Note_on_c, 13, 70, 72
1, 121816, Control_c, 2, 11, 65
1, 121835, Note_on_c, 8, 63, 0
1, 121835, Note_on_c, 13, 63, 0
1, 121841, Control_c, 2, 11, 64
1, 121846, Note_on_c, 9, 54, 0
1, 121846, Note_on_c, 9, 42, 0
1, 121871, Control_c, 2, 11, 63
1, 121881, Note_on_c, 12, 63, 0
1, 121882, Note_on_c, 11, 67, 0
1, 121895, Control_c, 2, 11, 62
1, 121906, Note_on_c, 6, 72, 0
1, 121906, Note_on_c, 12, 60, 0
1, 121908, Note_on_c, 9, 36, 0
1, 121910, Note_on_c, 9, 70, 0
1, 121920, Note_on_c, 7, 70, 72
1, 121920, Note_on_c, 7, 67, 66
1, 121920, Note_on_c, 7, 48, 48
1, 121920, Note_on_c, 6, 82, 38
1, 121920, Note_on_c, 6, 70, 72
1, 121920, Note_on_c, 9, 42, 82
1, 121920, Note_on_c, 9, 69, 42
1, 121920, Note_on_c, 9, 54, 86
1, 121920, Note_on_c, 11, 67, 50
1, 121920, Note_on_c, 11, 70, 66
1, 121920, Note_on_c, 12, 60, 36
1, 121920, Note_on_c, 12, 67, 84
1, 121920, Note_on_c, 12, 63, 57
1, 121920, Control_c, 2, 11, 61
1, 121924, Note_on_c, 6, 84, 0
1, 121944, Control_c, 2, 11, 60
1, 121974, Note_on_c, 9, 54, 0
1, 121974, Control_c, 2, 11, 59
1, 121980, Note_on_c, 9, 69, 0
1, 121986, Note_on_c, 9, 42, 0
1, 121999, Control_c, 2, 11, 58
1, 122023, Control_c, 2, 11, 57
1, 122040, Note_on_c, 9, 42, 52
1, 122040, Note_on_c, 9, 70, 54
1, 122040, Note_on_c, 9, 54, 27
1, 122047, Control_c, 2, 11, 56
1, 122070, Note_on_c, 9, 54, 0
1, 122078, Control_c, 2, 11, 55
1, 122088, Note_on_c, 9, 42, 0
1, 122096, Note_on_c, 1, 36, 0
1, 122102, Control_c, 2, 11, 54
1, 122126, Control_c, 2, 11, 53
1, 122128, Note_on_c, 9, 70, 0
1, 122151, Control_c, 2, 11, 52
1, 122160, Note_on_c, 1, 36, 90
1, 122160, Note_on_c, 9, 69, 50
1, 122160, Note_on_c, 9, 54, 68
1, 122160, Note_on_c, 9, 36, 96
1, 122160, Note_on_c, 9, 46, 82
1, 122181, Control_c, 2, 11, 51
1, 122202, Note_on_c, 11, 67, 0
1, 122205, Control_c, 2, 11, 50
1, 122212, Note_on_c, 9, 54, 0
1, 122215, Note_on_c, 12, 60, 0
1, 122216, Note_on_c, 9, 69, 0
1, 122230, Control_c, 2, 11, 49
1, 122241, Note_on_c, 12, 67, 0
1, 122252, Note_on_c, 9, 36, 0
1, 122254, Control_c, 2, 11, 48
1, 122256, Note_on_c, 7, 67, 0
1, 122256, Note_on_c, 9, 46, 0
1, 122268, Note_on_c, 7, 48, 0
1, 122275, Note_on_c, 11, 70, 0
1, 122278, Control_c, 2, 11, 47
1, 122280, Note_on_c, 9, 70, 56
1, 122280, Note_on_c, 9, 54, 23
1, 122280, Note_on_c, 11, 67, 37
1, 122280, Note_on_c, 12, 60, 41
1, 122309, Control_c, 2, 11, 46
1, 122333, Control_c, 2, 11, 45
1, 122344, Note_on_c, 9, 54, 0
1, 122352, Note_on_c, 11, 67, 0
1, 122357, Control_c, 2, 11, 44
1, 122365, Note_on_c, 12, 60, 0
1, 122371, Note_on_c, 9, 70, 0
1, 122373, Note_on_c, 12, 63, 0
1, 122381, Control_c, 2, 11, 43
1, 122400, Lyric_t, "But "
1, 122400, Note_on_c, 7, 67, 58
1, 122400, Note_on_c, 7, 48, 48
1, 122400, Note_on_c, 3, 72, 108
1, 122400, Note_on_c, 5, 48, 64
1, 122400, Note_on_c, 9, 69, 41
1, 122400, Note_on_c, 9, 54, 83
1, 122400, Note_on_c, 9, 42, 74
1, 122400, Note_on_c, 9, 38, 114
1, 122400, Note_on_c, 11, 70, 57
1, 122400, Note_on_c, 11, 67, 36
1, 122400, Note_on_c, 12, 60, 68
1, 122400, Note_on_c, 12, 63, 61
1, 122400, Note_on_c, 12, 67, 84
1, 122412, Control_c, 2, 11, 42
1, 122436, Control_c, 2, 11, 41
1, 122449, Note_on_c, 9, 69, 0
1, 122449, Note_on_c, 9, 54, 0
1, 122460, Note_on_c, 5, 51, 0
1, 122460, Control_c, 2, 11, 40
1, 122480, Note_on_c, 9, 42, 0
1, 122485, Control_c, 2, 11, 39
1, 122515, Control_c, 2, 11, 38
1, 122520, Lyric_t, "it's "
1, 122520, Note_on_c, 3, 74, 102
1, 122520, Note_on_c, 9, 70, 48
1, 122520, Note_on_c, 9, 54, 30
1, 122522, Note_on_c, 3, 72, 0
1, 122539, Control_c, 2, 11, 37
1, 122552, Note_on_c, 9, 54, 0
1, 122564, Control_c, 2, 11, 36
1, 122588, Control_c, 2, 11, 35
1, 122592, Note_on_c, 9, 38, 0
1, 122609, Note_on_c, 12, 60, 0
1, 122617, Note_on_c, 9, 70, 0
1, 122618, Control_c, 2, 11, 34
1, 122627, Note_on_c, 12, 63, 0
1, 122629, Control_c, 7, 64, 0
1, 122640, Note_on_c, 1, 31, 78
1, 122640, Note_on_c, 7, 63, 35
1, 122640, Note_on_c, 9, 42, 59
1, 122640, Note_on_c, 9, 69, 53
1, 122640, Note_on_c, 9, 54, 75
1, 122640, Note_on_c, 12, 63, 37
1, 122640, Note_on_c, 12, 60, 54
1, 122643, Control_c, 2, 11, 33
1, 122647, Note_on_c, 1, 36, 0
1, 122649, Note_on_c, 11, 67, 0
1, 122667, Control_c, 2, 11, 32
1, 122676, Note_on_c, 3, 74, 0
1, 122691, Control_c, 2, 11, 31
1, 122692, Note_on_c, 9, 54, 0
1, 122693, Note_on_c, 9, 42, 0
1, 122705, Note_on_c, 12, 60, 0
1, 122711, Note_on_c, 9, 69, 0
1, 122712, Note_on_c, 12, 67, 0
1, 122721, Note_on_c, 12, 63, 0
1, 122722, Control_c, 2, 11, 30
1, 122746, Control_c, 2, 11, 29
1, 122760, Lyric_t, "time "
1, 122760, Note_on_c, 3, 75, 108
1, 122760, Note_on_c, 9, 54, 36
1, 122760, Note_on_c, 11, 67, 45
1, 122760, Note_on_c, 12, 60, 64
1, 122760, Note_on_c, 12, 67, 46
1, 122764, Note_on_c, 8, 70, 0
1, 122764, Note_on_c, 13, 70, 0
1, 122770, Control_c, 2, 11, 28
1, 122785, Note_on_c, 9, 54, 0
1, 122792, Note_on_c, 12, 67, 0
1, 122793, Note_on_c, 5, 48, 0
1, 122795, Control_c, 2, 11, 27
1, 122799, Note_on_c, 5, 55, 0
1, 122806, Note_on_c, 12, 60, 0
1, 122813, Note_on_c, 11, 70, 0
1, 122819, Control_c, 2, 11, 26
1, 122825, Note_on_c, 7, 36, 0
1, 122828, Note_on_c, 11, 67, 0
1, 122831, Note_on_c, 7, 63, 0
1, 122831, Note_on_c, 2, 75, 0
1, 122839, Note_on_c, 6, 67, 0
1, 122847, Note_on_c, 5, 60, 0
1, 122852, Note_on_c, 2, 72, 0
1, 122853, Note_on_c, 7, 48, 0
1, 122855, Control_c, 2, 11, 127
1, 122857, Note_on_c, 7, 70, 0
1, 122862, Note_on_c, 1, 31, 0
1, 122868, Note_on_c, 6, 82, 0
1, 122868, Note_on_c, 6, 70, 0
1, 122869, Note_on_c, 7, 67, 0
1, 122880, Note_on_c, 1, 32, 105
1, 122880, Note_on_c, 7, 56, 48
1, 122880, Note_on_c, 7, 63, 61
1, 122880, Note_on_c, 7, 58, 48
1, 122880, Note_on_c, 7, 44, 76
1, 122880, Note_on_c, 5, 58, 36
1, 122880, Note_on_c, 5, 44, 26
1, 122880, Note_on_c, 5, 51, 30
1, 122880, Note_on_c, 6, 70, 58
1, 122880, Note_on_c, 9, 54, 78
1, 122880, Note_on_c, 9, 69, 27
1, 122880, Note_on_c, 9, 42, 93
1, 122880, Note_on_c, 9, 36, 111
1, 122880, Note_on_c, 11, 56, 62
1, 122880, Note_on_c, 11, 60, 72
1, 122880, Note_on_c, 11, 51, 66
1, 122880, Note_on_c, 12, 44, 105
1, 122938, Note_on_c, 9, 54, 0
1, 122966, Note_on_c, 9, 69, 0
1, 122971, Control_c, 7, 64, 127
1, 122975, Note_on_c, 9, 42, 0
1, 123000, Note_on_c, 9, 54, 38
1, 123000, Note_on_c, 9, 70, 45
1, 123019, Note_on_c, 7, 56, 0
1, 123032, Note_on_c, 9, 54, 0
1, 123042, Note_on_c, 9, 36, 0
1, 123094, Note_on_c, 3, 75, 0
1, 123096, Note_on_c, 9, 70, 0
1, 123120, Lyric_t, "to "
1, 123120, Lyric_t, "\015"
1, 123120, Note_on_c, 7, 56, 32
1, 123120, Note_on_c, 3, 79, 108
1, 123120, Note_on_c, 8, 51, 48
1, 123120, Note_on_c, 9, 54, 70
1, 123120, Note_on_c, 9, 69, 33
1, 123120, Note_on_c, 9, 42, 52
1, 123120, Note_on_c, 12, 51, 61
1, 123132, Note_on_c, 7, 63, 0
1, 123152, Note_on_c, 7, 58, 0
1, 123167, Note_on_c, 9, 42, 0
1, 123171, Note_on_c, 9, 54, 0
1, 123185, Note_on_c, 9, 69, 0
1, 123192, Note_on_c, 7, 56, 0
1, 123240, Note_on_c, 9, 42, 62
1, 123240, Note_on_c, 9, 70, 54
1, 123240, Note_on_c, 9, 54, 33
1, 123270, Note_on_c, 9, 42, 0
1, 123274, Note_on_c, 9, 54, 0
1, 123339, Note_on_c, 9, 70, 0
1, 123360, Note_on_c, 7, 58, 58
1, 123360, Note_on_c, 7, 63, 68
1, 123360, Note_on_c, 7, 51, 64
1, 123360, Note_on_c, 3, 77, 93
1, 123360, Note_on_c, 8, 60, 61
1, 123360, Note_on_c, 9, 38, 111
1, 123360, Note_on_c, 9, 42, 74
1, 123360, Note_on_c, 9, 54, 83
1, 123360, Note_on_c, 9, 69, 39
1, 123360, Note_on_c, 12, 60, 96
1, 123410, Note_on_c, 3, 79, 0
1, 123411, Note_on_c, 9, 54, 0
1, 123425, Note_on_c, 9, 42, 0
1, 123434, Note_on_c, 9, 69, 0
1, 123460, Note_on_c, 8, 51, 0
1, 123480, Note_on_c, 9, 70, 51
1, 123480, Note_on_c, 9, 54, 33
1, 123480, Note_on_c, 9, 42, 55
1, 123507, Note_on_c, 9, 42, 0
1, 123521, Note_on_c, 9, 54, 0
1, 123523, Note_on_c, 11, 56, 0
1, 123529, Note_on_c, 7, 63, 0
1, 123539, Note_on_c, 11, 60, 0
1, 123541, Note_on_c, 12, 51, 0
1, 123554, Note_on_c, 3, 77, 0
1, 123554, Note_on_c, 9, 38, 0
1, 123575, Note_on_c, 9, 70, 0
1, 123600, Lyric_t, "face "
1, 123600, Note_on_c, 7, 56, 37
1, 123600, Note_on_c, 3, 77, 108
1, 123600, Note_on_c, 8, 58, 52
1, 123600, Note_on_c, 9, 54, 68
1, 123600, Note_on_c, 9, 69, 44
1, 123600, Note_on_c, 9, 42, 50
1, 123600, Note_on_c, 11, 60, 50
1, 123600, Note_on_c, 11, 56, 43
1, 123600, Note_on_c, 12, 56, 55
1, 123637, Note_on_c, 7, 51, 0
1, 123652, Note_on_c, 9, 54, 0
1, 123654, Note_on_c, 9, 42, 0
1, 123662, Note_on_c, 9, 69, 0
1, 123666, Note_on_c, 7, 58, 0
1, 123669, Note_on_c, 8, 60, 0
1, 123684, Note_on_c, 7, 56, 0
1, 123703, Note_on_c, 7, 44, 0
1, 123705, Note_on_c, 8, 58, 0
1, 123711, Note_on_c, 11, 56, 0
1, 123715, Note_on_c, 1, 32, 0
1, 123720, Note_on_c, 1, 34, 61
1, 123720, Note_on_c, 7, 53, 45
1, 123720, Note_on_c, 8, 56, 54
1, 123720, Note_on_c, 9, 70, 56
1, 123720, Note_on_c, 9, 54, 42
1, 123720, Note_on_c, 9, 42, 36
1, 123720, Note_on_c, 12, 51, 78
1, 123737, Note_on_c, 9, 42, 0
1, 123758, Note_on_c, 9, 54, 0
1, 123788, Note_on_c, 8, 56, 0
1, 123799, Note_on_c, 12, 51, 0
1, 123808, Note_on_c, 9, 70, 0
1, 123816, Note_on_c, 12, 56, 0
1, 123819, Note_on_c, 1, 34, 0
1, 123819, Note_on_c, 12, 60, 0
1, 123823, Note_on_c, 11, 51, 0
1, 123834, Note_on_c, 12, 44, 0
1, 123836, Control_c, 7, 64, 0
1, 123840, Note_on_c, 1, 34, 84
1, 123840, Note_on_c, 7, 46, 68
1, 123840, Note_on_c, 7, 65, 50
1, 123840, Note_on_c, 7, 58, 39
1, 123840, Note_on_c, 7, 62, 74
1, 123840, Note_on_c, 9, 36, 108
1, 123840, Note_on_c, 9, 42, 82
1, 123840, Note_on_c, 9, 69, 51
1, 123840, Note_on_c, 9, 54, 86
1, 123840, Note_on_c, 11, 58, 68
1, 123840, Note_on_c, 11, 62, 87
1, 123840, Note_on_c, 11, 53, 62
1, 123840, Note_on_c, 12, 46, 87
1, 123851, Note_on_c, 11, 60, 0
1, 123896, Note_on_c, 9, 54, 0
1, 123920, Note_on_c, 9, 69, 0
1, 123940, Note_on_c, 9, 42, 0
1, 123943, Note_on_c, 9, 36, 0
1, 123960, Note_on_c, 7, 53, 0
1, 123960, Note_on_c, 9, 54, 39
1, 123960, Note_on_c, 9, 70, 54
1, 123978, Control_c, 7, 64, 127
1, 123996, Note_on_c, 9, 54, 0
1, 124018, Note_on_c, 3, 77, 0
1, 124028, Note_on_c, 7, 58, 0
1, 124053, Note_on_c, 9, 70, 0
1, 124080, Lyric_t, "the "
1, 124080, Note_on_c, 3, 74, 102
1, 124080, Note_on_c, 8, 53, 50
1, 124080, Note_on_c, 9, 54, 61
1, 124080, Note_on_c, 9, 36, 99
1, 124080, Note_on_c, 9, 42, 58
1, 124080, Note_on_c, 9, 69, 44
1, 124080, Note_on_c, 12, 53, 72
1, 124132, Note_on_c, 9, 54, 0
1, 124142, Note_on_c, 9, 42, 0
1, 124144, Note_on_c, 7, 62, 0
1, 124153, Note_on_c, 9, 69, 0
1, 124171, Note_on_c, 9, 36, 0
1, 124200, Note_on_c, 9, 70, 56
1, 124302, Note_on_c, 9, 70, 0
1, 124320, Note_on_c, 7, 53, 55
1, 124320, Note_on_c, 7, 62, 61
1, 124320, Note_on_c, 3, 72, 87
1, 124320, Note_on_c, 8, 62, 82
1, 124320, Note_on_c, 9, 38, 111
1, 124320, Note_on_c, 9, 46, 87
1, 124320, Note_on_c, 9, 54, 78
1, 124320, Note_on_c, 9, 69, 32
1, 124320, Note_on_c, 12, 62, 87
1, 124320, Note_on_c, 12, 58, 84
1, 124376, Note_on_c, 9, 54, 0
1, 124385, Note_on_c, 3, 74, 0
1, 124399, Note_on_c, 9, 69, 0
1, 124401, Control_c, 7, 64, 0
1, 124413, Note_on_c, 9, 46, 0
1, 124419, Note_on_c, 8, 53, 0
1, 124440, Note_on_c, 9, 54, 27
1, 124440, Note_on_c, 9, 70, 53
1, 124441, Note_on_c, 11, 62, 0
1, 124449, Note_on_c, 11, 58, 0
1, 124463, Note_on_c, 12, 46, 0
1, 124479, Note_on_c, 9, 54, 0
1, 124495, Note_on_c, 12, 58, 0
1, 124516, Note_on_c, 3, 72, 0
1, 124521, Note_on_c, 9, 38, 0
1, 124528, Note_on_c, 9, 70, 0
1, 124545, Note_on_c, 8, 62, 0
1, 124560, Lyric_t, "truth "
1, 124560, Lyric_t, "\015"
1, 124560, Note_on_c, 7, 58, 43
1, 124560, Note_on_c, 3, 72, 99
1, 124560, Note_on_c, 8, 60, 31
1, 124560, Note_on_c, 9, 46, 72
1, 124560, Note_on_c, 9, 69, 45
1, 124560, Note_on_c, 9, 54, 68
1, 124560, Note_on_c, 11, 58, 47
1, 124560, Note_on_c, 11, 62, 61
1, 124560, Note_on_c, 12, 58, 68
1, 124562, Note_on_c, 7, 62, 0
1, 124564, Note_on_c, 11, 53, 0
1, 124591, Note_on_c, 12, 62, 0
1, 124596, Note_on_c, 11, 62, 0
1, 124602, Note_on_c, 12, 53, 0
1, 124609, Note_on_c, 9, 54, 0
1, 124612, Note_on_c, 11, 58, 0
1, 124614, Note_on_c, 12, 58, 0
1, 124615, Note_on_c, 8, 60, 0
1, 124619, Note_on_c, 9, 46, 0
1, 124631, Note_on_c, 9, 69, 0
1, 124662, Note_on_c, 7, 65, 0
1, 124714, Note_on_c, 7, 46, 0
1, 124733, Note_on_c, 7, 58, 0
1, 124741, Note_on_c, 7, 53, 0
1, 124760, Note_on_c, 1, 34, 0
1, 124800, Note_on_c, 1, 48, 59
1, 124800, Note_on_c, 10, 70, 41
1, 124800, Note_on_c, 10, 63, 45
1, 124800, Note_on_c, 10, 36, 42
1, 124800, Note_on_c, 11, 63, 76
1, 124800, Note_on_c, 11, 70, 84
1, 124800, Note_on_c, 11, 60, 72
1, 124800, Note_on_c, 12, 67, 74
1, 124800, Note_on_c, 12, 63, 72
1, 124803, Note_on_c, 5, 44, 0
1, 124809, Note_on_c, 6, 70, 0
1, 124820, Note_on_c, 5, 58, 0
1, 124826, Note_on_c, 5, 51, 0
1, 124873, Note_on_c, 3, 72, 0
1, 125162, Note_on_c, 11, 70, 0
1, 125171, Note_on_c, 11, 60, 0
1, 125197, Note_on_c, 11, 63, 0
1, 125279, Note_on_c, 11, 60, 48
1, 125280, Note_on_c, 11, 70, 84
1, 125280, Note_on_c, 11, 63, 42
1, 125463, Note_on_c, 11, 60, 0
1, 125480, Note_on_c, 11, 63, 0
1, 125520, Note_on_c, 11, 63, 23
1, 125520, Note_on_c, 11, 60, 23
1, 125545, Note_on_c, 11, 70, 0
1, 125567, Note_on_c, 11, 60, 0
1, 125601, Note_on_c, 11, 63, 0
1, 125639, Note_on_c, 11, 70, 78
1, 125639, Note_on_c, 11, 60, 66
1, 125640, Note_on_c, 11, 63, 68
1, 125861, Note_on_c, 11, 70, 0
1, 125861, Note_on_c, 11, 60, 0
1, 125867, Note_on_c, 11, 63, 0
1, 125880, Note_on_c, 11, 60, 64
1, 125880, Note_on_c, 11, 63, 64
1, 125880, Note_on_c, 11, 70, 33
1, 125915, Note_on_c, 11, 70, 0
1, 125953, Note_on_c, 11, 60, 0
1, 125953, Note_on_c, 11, 63, 0
1, 125997, Note_on_c, 11, 63, 76
1, 126000, Note_on_c, 11, 70, 84
1, 126000, Note_on_c, 11, 60, 74
1, 126240, Lyric_t, "I "
1, 126240, Note_on_c, 3, 72, 102
1, 126340, Note_on_c, 11, 70, 0
1, 126347, Note_on_c, 11, 60, 0
1, 126360, Lyric_t, "will "
1, 126360, Note_on_c, 3, 74, 102
1, 126360, Note_on_c, 11, 70, 78
1, 126360, Note_on_c, 11, 60, 46
1, 126376, Note_on_c, 3, 72, 0
1, 126588, Note_on_c, 3, 74, 0
1, 126600, Lyric_t, "nev"
1, 126600, Note_on_c, 3, 75, 108
1, 126637, Note_on_c, 11, 70, 0
1, 126648, Note_on_c, 11, 60, 0
1, 126675, Note_on_c, 11, 63, 0
1, 126692, Note_on_c, 10, 36, 0
1, 126698, Note_on_c, 1, 48, 0
1, 126704, Note_on_c, 10, 63, 0
1, 126709, Note_on_c, 12, 44, 66
1, 126716, Note_on_c, 12, 63, 0
1, 126717, Note_on_c, 12, 67, 0
1, 126720, Note_on_c, 1, 44, 57
1, 126720, Note_on_c, 8, 63, 42
1, 126720, Note_on_c, 8, 56, 44
1, 126720, Note_on_c, 10, 70, 0
1, 126720, Note_on_c, 10, 44, 59
1, 126720, Note_on_c, 11, 60, 70
1, 126720, Note_on_c, 11, 63, 74
1, 126720, Note_on_c, 11, 56, 70
1, 126720, Note_on_c, 11, 70, 59
1, 126720, Note_on_c, 11, 63, 59
1, 126720, Note_on_c, 11, 60, 46
1, 126726, Note_on_c, 12, 56, 55
1, 126736, Note_on_c, 12, 60, 61
1, 126744, Note_on_c, 12, 51, 70
1, 126746, Note_on_c, 12, 63, 74
1, 126938, Note_on_c, 3, 75, 0
1, 126960, Lyric_t, "er "
1, 126960, Note_on_c, 3, 79, 105
1, 127200, Note_on_c, 3, 77, 90
1, 127219, Note_on_c, 3, 79, 0
1, 127315, Note_on_c, 11, 60, 0
1, 127320, Note_on_c, 11, 63, 0
1, 127326, Note_on_c, 11, 70, 0
1, 127394, Note_on_c, 3, 77, 0
1, 127402, Pitch_bend_c, 1, 8526
1, 127412, Pitch_bend_c, 1, 9620
1, 127423, Pitch_bend_c, 1, 10535
1, 127434, Pitch_bend_c, 1, 11807
1, 127440, Lyric_t, "be "
1, 127440, Note_on_c, 3, 77, 105
1, 127440, Note_on_c, 11, 70, 54
1, 127440, Note_on_c, 11, 60, 34
1, 127440, Note_on_c, 11, 63, 37
1, 127441, Pitch_bend_c, 10, 8749
1, 127445, Pitch_bend_c, 1, 12990
1, 127452, Pitch_bend_c, 10, 9798
1, 127456, Pitch_bend_c, 1, 14351
1, 127463, Pitch_bend_c, 10, 10557
1, 127466, Pitch_bend_c, 1, 15334
1, 127473, Pitch_bend_c, 10, 11517
1, 127477, Pitch_bend_c, 1, 16226
1, 127484, Pitch_bend_c, 10, 12477
1, 127488, Pitch_bend_c, 1, 16383
1, 127489, Note_on_c, 12, 56, 0
1, 127495, Pitch_bend_c, 10, 13481
1, 127497, Note_on_c, 11, 63, 0
1, 127504, Note_on_c, 11, 60, 0
1, 127505, Pitch_bend_c, 10, 14106
1, 127514, Note_on_c, 11, 70, 0
1, 127516, Pitch_bend_c, 10, 14776
1, 127520, Note_on_c, 1, 44, 0
1, 127527, Note_on_c, 10, 44, 0
1, 127527, Pitch_bend_c, 10, 14999
1, 127534, Note_on_c, 12, 63, 0
1, 127534, Note_on_c, 12, 60, 0
1, 127539, Pitch_bend_c, 10, 15222
1, 127554, Note_on_c, 12, 44, 0
1, 127593, Pitch_bend_c, 10, 15043
1, 127594, Note_on_c, 11, 56, 0
1, 127600, Note_on_c, 11, 60, 0
1, 127607, Pitch_bend_c, 1, 15735
1, 127609, Note_on_c, 11, 63, 0
1, 127614, Pitch_bend_c, 10, 14642
1, 127617, Pitch_bend_c, 1, 14151
1, 127622, Note_on_c, 12, 51, 0
1, 127626, Pitch_bend_c, 10, 13927
1, 127629, Pitch_bend_c, 1, 11941
1, 127637, Pitch_bend_c, 10, 13169
1, 127637, Note_on_c, 12, 46, 61
1, 127640, Pitch_bend_c, 1, 8192
1, 127647, Pitch_bend_c, 10, 12120
1, 127650, Note_on_c, 8, 63, 0
1, 127658, Pitch_bend_c, 10, 11048
1, 127662, Note_on_c, 12, 58, 55
1, 127668, Pitch_bend_c, 10, 9598
1, 127669, Note_on_c, 8, 56, 0
1, 127678, Note_on_c, 12, 53, 82
1, 127680, Note_on_c, 1, 46, 68
1, 127680, Note_on_c, 8, 58, 50
1, 127680, Note_on_c, 8, 65, 48
1, 127680, Note_on_c, 10, 46, 49
1, 127680, Note_on_c, 11, 62, 64
1, 127680, Note_on_c, 11, 58, 76
1, 127680, Note_on_c, 11, 65, 64
1, 127681, Note_on_c, 12, 65, 82
1, 127682, Pitch_bend_c, 10, 8281
1, 127685, Note_on_c, 12, 62, 82
1, 127692, Pitch_bend_c, 10, 8192
1, 127856, Note_on_c, 3, 77, 0
1, 127920, Lyric_t, "with "
1, 127920, Note_on_c, 3, 74, 96
1, 128187, Note_on_c, 3, 74, 0
1, 128400, Lyric_t, "you... "
1, 128400, Lyric_t, "\015"
1, 128400, Note_on_c, 3, 75, 90
1, 128581, Note_on_c, 12, 53, 0
1, 128584, Note_on_c, 11, 58, 0
1, 128585, Note_on_c, 1, 46, 0
1, 128587, Note_on_c, 11, 65, 0
1, 128590, Note_on_c, 12, 46, 0
1, 128592, Note_on_c, 11, 51, 37
1, 128597, Note_on_c, 11, 58, 64
1, 128600, Note_on_c, 12, 65, 0
1, 128601, Note_on_c, 8, 58, 0
1, 128602, Note_on_c, 8, 65, 0
1, 128602, Note_on_c, 12, 62, 0
1, 128603, Note_on_c, 7, 39, 62
1, 128603, Note_on_c, 11, 62, 0
1, 128609, Note_on_c, 7, 55, 33
1, 128614, Note_on_c, 12, 58, 0
1, 128615, Note_on_c, 7, 51, 39
1, 128618, Note_on_c, 12, 51, 64
1, 128622, Note_on_c, 12, 55, 50
1, 128627, Note_on_c, 11, 63, 58
1, 128628, Note_on_c, 7, 63, 44
1, 128631, Note_on_c, 11, 55, 66
1, 128633, Note_on_c, 12, 58, 64
1, 128635, Note_on_c, 10, 46, 0
1, 128640, Note_on_c, 1, 27, 51
1, 128640, Note_on_c, 8, 55, 35
1, 128640, Note_on_c, 8, 63, 32
1, 128640, Note_on_c, 9, 49, 30
1, 128640, Note_on_c, 9, 36, 33
1, 128640, Note_on_c, 10, 39, 72
1, 128651, Note_on_c, 11, 67, 76
1, 128655, Note_on_c, 12, 63, 76
1, 128875, Note_on_c, 3, 75, 0
1, 128922, Note_on_c, 9, 49, 0
1, 128925, Note_on_c, 9, 36, 0
1, 130565, Note_on_c, 11, 51, 0
1, 130568, Note_on_c, 11, 55, 0
1, 130571, Note_on_c, 11, 67, 0
1, 130576, Note_on_c, 11, 58, 0
1, 130577, Note_on_c, 12, 51, 0
1, 130584, Note_on_c, 11, 63, 0
1, 130592, Note_on_c, 12, 55, 0
1, 130595, Note_on_c, 12, 63, 0
1, 130598, Note_on_c, 10, 39, 0
1, 130598, Note_on_c, 12, 58, 0
1, 130606, Note_on_c, 1, 27, 0
1, 130683, Note_on_c, 8, 63, 0
1, 130692, Note_on_c, 7, 51, 0
1, 130701, Note_on_c, 8, 55, 0
1, 130717, Note_on_c, 7, 63, 0
1, 130718, Note_on_c, 7, 39, 0
1, 130719, Note_on_c, 7, 55, 0
1, 130719, End_track
0, 0, End_of_file
